<svg width="14" height="10" viewBox="0 0 14 10" fill="none" xmlns="http://www.w3.org/2000/svg">
<path d="M3.75 9.11932C3.10795 9.11932 2.56108 8.9446 2.10938 8.59517C1.65767 8.2429 1.3125 7.73295 1.07386 7.06534C0.835227 6.39489 0.715909 5.58523 0.715909 4.63636C0.715909 3.69318 0.835227 2.88778 1.07386 2.22017C1.31534 1.54972 1.66193 1.03835 2.11364 0.686079C2.56818 0.330966 3.11364 0.153409 3.75 0.153409C4.38636 0.153409 4.9304 0.330966 5.3821 0.686079C5.83665 1.03835 6.18324 1.54972 6.42188 2.22017C6.66335 2.88778 6.78409 3.69318 6.78409 4.63636C6.78409 5.58523 6.66477 6.39489 6.42614 7.06534C6.1875 7.73295 5.84233 8.2429 5.39062 8.59517C4.93892 8.9446 4.39205 9.11932 3.75 9.11932ZM3.75 8.18182C4.38636 8.18182 4.88068 7.875 5.23295 7.26136C5.58523 6.64773 5.76136 5.77273 5.76136 4.63636C5.76136 3.88068 5.6804 3.23722 5.51847 2.70597C5.35938 2.17472 5.12926 1.76989 4.82812 1.49148C4.52983 1.21307 4.17045 1.07386 3.75 1.07386C3.11932 1.07386 2.62642 1.38494 2.27131 2.0071C1.91619 2.62642 1.73864 3.50284 1.73864 4.63636C1.73864 5.39205 1.81818 6.03409 1.97727 6.5625C2.13636 7.09091 2.36506 7.4929 2.66335 7.76847C2.96449 8.04403 3.3267 8.18182 3.75 8.18182ZM8.40341 9V8.23295L11.2841 5.07955C11.6222 4.71023 11.9006 4.3892 12.1193 4.11648C12.3381 3.84091 12.5 3.58239 12.6051 3.34091C12.7131 3.09659 12.767 2.84091 12.767 2.57386C12.767 2.26705 12.6932 2.00142 12.5455 1.77699C12.4006 1.55256 12.2017 1.37926 11.9489 1.2571C11.696 1.13494 11.4119 1.07386 11.0966 1.07386C10.7614 1.07386 10.4688 1.14347 10.2188 1.28267C9.97159 1.41903 9.77983 1.6108 9.64347 1.85795C9.50994 2.10511 9.44318 2.39489 9.44318 2.72727H8.4375C8.4375 2.21591 8.5554 1.76705 8.79119 1.38068C9.02699 0.994318 9.34801 0.693181 9.75426 0.477272C10.1634 0.261363 10.6222 0.153409 11.1307 0.153409C11.642 0.153409 12.0952 0.261363 12.4901 0.477272C12.8849 0.693181 13.1946 0.984375 13.419 1.35085C13.6435 1.71733 13.7557 2.125 13.7557 2.57386C13.7557 2.89489 13.6974 3.20881 13.581 3.51562C13.4673 3.8196 13.2685 4.15909 12.9844 4.53409C12.7031 4.90625 12.3125 5.3608 11.8125 5.89773L9.85227 7.99432V8.0625H13.9091V9H8.40341Z" fill="black"/>
</svg>
