<svg width="15" height="10" viewBox="0 0 15 10" fill="none" xmlns="http://www.w3.org/2000/svg">
<path d="M3.75 9.11932C3.10795 9.11932 2.56108 8.9446 2.10938 8.59517C1.65767 8.2429 1.3125 7.73295 1.07386 7.06534C0.835227 6.39489 0.715909 5.58523 0.715909 4.63636C0.715909 3.69318 0.835227 2.88778 1.07386 2.22017C1.31534 1.54972 1.66193 1.03835 2.11364 0.686079C2.56818 0.330966 3.11364 0.153409 3.75 0.153409C4.38636 0.153409 4.9304 0.330966 5.3821 0.686079C5.83665 1.03835 6.18324 1.54972 6.42188 2.22017C6.66335 2.88778 6.78409 3.69318 6.78409 4.63636C6.78409 5.58523 6.66477 6.39489 6.42614 7.06534C6.1875 7.73295 5.84233 8.2429 5.39062 8.59517C4.93892 8.9446 4.39205 9.11932 3.75 9.11932ZM3.75 8.18182C4.38636 8.18182 4.88068 7.875 5.23295 7.26136C5.58523 6.64773 5.76136 5.77273 5.76136 4.63636C5.76136 3.88068 5.6804 3.23722 5.51847 2.70597C5.35938 2.17472 5.12926 1.76989 4.82812 1.49148C4.52983 1.21307 4.17045 1.07386 3.75 1.07386C3.11932 1.07386 2.62642 1.38494 2.27131 2.0071C1.91619 2.62642 1.73864 3.50284 1.73864 4.63636C1.73864 5.39205 1.81818 6.03409 1.97727 6.5625C2.13636 7.09091 2.36506 7.4929 2.66335 7.76847C2.96449 8.04403 3.3267 8.18182 3.75 8.18182ZM11.3523 9.11932C10.7898 9.11932 10.2884 9.02273 9.84801 8.82955C9.41051 8.63636 9.0625 8.3679 8.80398 8.02415C8.5483 7.67756 8.40909 7.27557 8.38636 6.81818H9.46023C9.48295 7.09943 9.57955 7.34233 9.75 7.54688C9.92045 7.74858 10.1435 7.90483 10.419 8.01562C10.6946 8.12642 11 8.18182 11.3352 8.18182C11.7102 8.18182 12.0426 8.11648 12.3324 7.9858C12.6222 7.85511 12.8494 7.6733 13.0142 7.44034C13.179 7.20739 13.2614 6.9375 13.2614 6.63068C13.2614 6.30966 13.1818 6.02699 13.0227 5.78267C12.8636 5.53551 12.6307 5.34233 12.3239 5.20312C12.017 5.06392 11.642 4.99432 11.1989 4.99432H10.5V4.05682H11.1989C11.5455 4.05682 11.8494 3.99432 12.1108 3.86932C12.375 3.74432 12.581 3.56818 12.7287 3.34091C12.8793 3.11364 12.9545 2.84659 12.9545 2.53977C12.9545 2.24432 12.8892 1.98722 12.7585 1.76847C12.6278 1.54972 12.4432 1.37926 12.2045 1.2571C11.9688 1.13494 11.6903 1.07386 11.3693 1.07386C11.0682 1.07386 10.7841 1.12926 10.517 1.24006C10.2528 1.34801 10.0369 1.50568 9.86932 1.71307C9.7017 1.91761 9.6108 2.16477 9.59659 2.45455H8.57386C8.59091 1.99716 8.72869 1.59659 8.98722 1.25284C9.24574 0.90625 9.58381 0.636363 10.0014 0.443182C10.4219 0.25 10.8835 0.153409 11.3864 0.153409C11.9261 0.153409 12.3892 0.262784 12.7756 0.481534C13.1619 0.697443 13.4588 0.982954 13.6662 1.33807C13.8736 1.69318 13.9773 2.0767 13.9773 2.48864C13.9773 2.98011 13.848 3.39915 13.5895 3.74574C13.3338 4.09233 12.9858 4.33239 12.5455 4.46591V4.53409C13.0966 4.625 13.527 4.85937 13.8366 5.23722C14.1463 5.61222 14.3011 6.0767 14.3011 6.63068C14.3011 7.10511 14.1719 7.53125 13.9134 7.90909C13.6577 8.28409 13.3082 8.57955 12.8651 8.79545C12.4219 9.01136 11.9176 9.11932 11.3523 9.11932Z" fill="black"/>
</svg>
