<svg width="15" height="10" viewBox="0 0 15 10" fill="none" xmlns="http://www.w3.org/2000/svg">
<path d="M3.75 9.11932C3.10795 9.11932 2.56108 8.9446 2.10938 8.59517C1.65767 8.2429 1.3125 7.73295 1.07386 7.06534C0.835227 6.39489 0.715909 5.58523 0.715909 4.63636C0.715909 3.69318 0.835227 2.88778 1.07386 2.22017C1.31534 1.54972 1.66193 1.03835 2.11364 0.686079C2.56818 0.330966 3.11364 0.153409 3.75 0.153409C4.38636 0.153409 4.9304 0.330966 5.3821 0.686079C5.83665 1.03835 6.18324 1.54972 6.42188 2.22017C6.66335 2.88778 6.78409 3.69318 6.78409 4.63636C6.78409 5.58523 6.66477 6.39489 6.42614 7.06534C6.1875 7.73295 5.84233 8.2429 5.39062 8.59517C4.93892 8.9446 4.39205 9.11932 3.75 9.11932ZM3.75 8.18182C4.38636 8.18182 4.88068 7.875 5.23295 7.26136C5.58523 6.64773 5.76136 5.77273 5.76136 4.63636C5.76136 3.88068 5.6804 3.23722 5.51847 2.70597C5.35938 2.17472 5.12926 1.76989 4.82812 1.49148C4.52983 1.21307 4.17045 1.07386 3.75 1.07386C3.11932 1.07386 2.62642 1.38494 2.27131 2.0071C1.91619 2.62642 1.73864 3.50284 1.73864 4.63636C1.73864 5.39205 1.81818 6.03409 1.97727 6.5625C2.13636 7.09091 2.36506 7.4929 2.66335 7.76847C2.96449 8.04403 3.3267 8.18182 3.75 8.18182ZM11.1307 9.11932C10.6307 9.11932 10.1804 9.01989 9.77983 8.82102C9.37926 8.62216 9.05824 8.34943 8.81676 8.00284C8.57528 7.65625 8.44318 7.26136 8.42045 6.81818H9.44318C9.48295 7.21307 9.66193 7.53977 9.98011 7.7983C10.3011 8.05398 10.6847 8.18182 11.1307 8.18182C11.4886 8.18182 11.8068 8.09801 12.0852 7.9304C12.3665 7.76278 12.5866 7.53267 12.7457 7.24006C12.9077 6.9446 12.9886 6.6108 12.9886 6.23864C12.9886 5.85795 12.9048 5.51847 12.7372 5.22017C12.5724 4.91903 12.3452 4.68182 12.0554 4.50852C11.7656 4.33523 11.4347 4.24716 11.0625 4.24432C10.7955 4.24148 10.5213 4.28267 10.2401 4.3679C9.95881 4.45028 9.72727 4.55682 9.54545 4.6875L8.55682 4.56818L9.08523 0.272727H13.6193V1.21023H9.97159L9.66477 3.78409H9.71591C9.89489 3.64205 10.1193 3.52415 10.3892 3.4304C10.6591 3.33665 10.9403 3.28977 11.233 3.28977C11.767 3.28977 12.2429 3.41761 12.6605 3.6733C13.081 3.92614 13.4105 4.27273 13.6491 4.71307C13.8906 5.15341 14.0114 5.65625 14.0114 6.22159C14.0114 6.77841 13.8864 7.27557 13.6364 7.71307C13.3892 8.14773 13.0483 8.49148 12.6136 8.74432C12.179 8.99432 11.6847 9.11932 11.1307 9.11932Z" fill="black"/>
</svg>
