<svg width="15" height="10" viewBox="0 0 15 10" fill="none" xmlns="http://www.w3.org/2000/svg">
<path d="M3.75 9.11932C3.10795 9.11932 2.56108 8.9446 2.10938 8.59517C1.65767 8.2429 1.3125 7.73295 1.07386 7.06534C0.835227 6.39489 0.715909 5.58523 0.715909 4.63636C0.715909 3.69318 0.835227 2.88778 1.07386 2.22017C1.31534 1.54972 1.66193 1.03835 2.11364 0.686079C2.56818 0.330966 3.11364 0.153409 3.75 0.153409C4.38636 0.153409 4.9304 0.330966 5.3821 0.686079C5.83665 1.03835 6.18324 1.54972 6.42188 2.22017C6.66335 2.88778 6.78409 3.69318 6.78409 4.63636C6.78409 5.58523 6.66477 6.39489 6.42614 7.06534C6.1875 7.73295 5.84233 8.2429 5.39062 8.59517C4.93892 8.9446 4.39205 9.11932 3.75 9.11932ZM3.75 8.18182C4.38636 8.18182 4.88068 7.875 5.23295 7.26136C5.58523 6.64773 5.76136 5.77273 5.76136 4.63636C5.76136 3.88068 5.6804 3.23722 5.51847 2.70597C5.35938 2.17472 5.12926 1.76989 4.82812 1.49148C4.52983 1.21307 4.17045 1.07386 3.75 1.07386C3.11932 1.07386 2.62642 1.38494 2.27131 2.0071C1.91619 2.62642 1.73864 3.50284 1.73864 4.63636C1.73864 5.39205 1.81818 6.03409 1.97727 6.5625C2.13636 7.09091 2.36506 7.4929 2.66335 7.76847C2.96449 8.04403 3.3267 8.18182 3.75 8.18182ZM11.3011 9.11932C10.9432 9.11364 10.5852 9.04545 10.2273 8.91477C9.86932 8.78409 9.54261 8.56392 9.24716 8.25426C8.9517 7.94176 8.71449 7.51989 8.53551 6.98864C8.35653 6.45455 8.26705 5.78409 8.26705 4.97727C8.26705 4.20455 8.33949 3.51989 8.48438 2.9233C8.62926 2.32386 8.83949 1.8196 9.11506 1.41051C9.39063 0.99858 9.72301 0.686079 10.1122 0.473011C10.5043 0.259943 10.946 0.153409 11.4375 0.153409C11.9261 0.153409 12.3608 0.25142 12.7415 0.447443C13.125 0.640625 13.4375 0.910511 13.679 1.2571C13.9205 1.60369 14.0767 2.00284 14.1477 2.45455H13.108C13.0114 2.0625 12.8239 1.73722 12.5455 1.47869C12.267 1.22017 11.8977 1.09091 11.4375 1.09091C10.7614 1.09091 10.2287 1.38494 9.83949 1.97301C9.45313 2.56108 9.25852 3.38636 9.25568 4.44886H9.32386C9.48295 4.20739 9.67188 4.00142 9.89062 3.83097C10.1122 3.65767 10.3565 3.52415 10.6236 3.4304C10.8906 3.33665 11.1733 3.28977 11.4716 3.28977C11.9716 3.28977 12.429 3.41477 12.8438 3.66477C13.2585 3.91193 13.5909 4.25426 13.8409 4.69176C14.0909 5.12642 14.2159 5.625 14.2159 6.1875C14.2159 6.72727 14.0952 7.22159 13.8537 7.67045C13.6122 8.11648 13.2727 8.47159 12.8352 8.7358C12.4006 8.99716 11.8892 9.125 11.3011 9.11932ZM11.3011 8.18182C11.6591 8.18182 11.9801 8.09233 12.2642 7.91335C12.5511 7.73437 12.777 7.49432 12.9418 7.19318C13.1094 6.89205 13.1932 6.55682 13.1932 6.1875C13.1932 5.8267 13.1122 5.49858 12.9503 5.20312C12.7912 4.90483 12.571 4.66761 12.2898 4.49148C12.0114 4.31534 11.6932 4.22727 11.3352 4.22727C11.0653 4.22727 10.8139 4.28125 10.581 4.3892C10.348 4.49432 10.1435 4.6392 9.96733 4.82386C9.79403 5.00852 9.65767 5.22017 9.55824 5.45881C9.45881 5.6946 9.40909 5.94318 9.40909 6.20455C9.40909 6.55114 9.49006 6.875 9.65199 7.17614C9.81676 7.47727 10.0412 7.72017 10.3253 7.90483C10.6122 8.08949 10.9375 8.18182 11.3011 8.18182Z" fill="black"/>
</svg>
