<svg width="15" height="10" viewBox="0 0 15 10" fill="none" xmlns="http://www.w3.org/2000/svg">
<path d="M3.75 9.11932C3.10795 9.11932 2.56108 8.9446 2.10938 8.59517C1.65767 8.2429 1.3125 7.73295 1.07386 7.06534C0.835227 6.39489 0.715909 5.58523 0.715909 4.63636C0.715909 3.69318 0.835227 2.88778 1.07386 2.22017C1.31534 1.54972 1.66193 1.03835 2.11364 0.686079C2.56818 0.330966 3.11364 0.153409 3.75 0.153409C4.38636 0.153409 4.9304 0.330966 5.3821 0.686079C5.83665 1.03835 6.18324 1.54972 6.42188 2.22017C6.66335 2.88778 6.78409 3.69318 6.78409 4.63636C6.78409 5.58523 6.66477 6.39489 6.42614 7.06534C6.1875 7.73295 5.84233 8.2429 5.39062 8.59517C4.93892 8.9446 4.39205 9.11932 3.75 9.11932ZM3.75 8.18182C4.38636 8.18182 4.88068 7.875 5.23295 7.26136C5.58523 6.64773 5.76136 5.77273 5.76136 4.63636C5.76136 3.88068 5.6804 3.23722 5.51847 2.70597C5.35938 2.17472 5.12926 1.76989 4.82812 1.49148C4.52983 1.21307 4.17045 1.07386 3.75 1.07386C3.11932 1.07386 2.62642 1.38494 2.27131 2.0071C1.91619 2.62642 1.73864 3.50284 1.73864 4.63636C1.73864 5.39205 1.81818 6.03409 1.97727 6.5625C2.13636 7.09091 2.36506 7.4929 2.66335 7.76847C2.96449 8.04403 3.3267 8.18182 3.75 8.18182ZM11.1989 9.11932C10.6136 9.11932 10.0966 9.01562 9.64773 8.80824C9.2017 8.59801 8.85369 8.30966 8.60369 7.94318C8.35369 7.57386 8.23011 7.15341 8.23295 6.68182C8.23011 6.3125 8.30256 5.97159 8.45028 5.65909C8.59801 5.34375 8.79972 5.08097 9.0554 4.87074C9.31392 4.65767 9.60227 4.52273 9.92045 4.46591V4.41477C9.50284 4.30682 9.17045 4.07244 8.9233 3.71165C8.67614 3.34801 8.55398 2.93466 8.55682 2.47159C8.55398 2.02841 8.66619 1.6321 8.89347 1.28267C9.12074 0.933238 9.43324 0.65767 9.83097 0.455966C10.2315 0.254261 10.6875 0.153409 11.1989 0.153409C11.7045 0.153409 12.1563 0.254261 12.554 0.455966C12.9517 0.65767 13.2642 0.933238 13.4915 1.28267C13.7216 1.6321 13.8381 2.02841 13.8409 2.47159C13.8381 2.93466 13.7116 3.34801 13.4616 3.71165C13.2145 4.07244 12.8864 4.30682 12.4773 4.41477V4.46591C12.7926 4.52273 13.0767 4.65767 13.3295 4.87074C13.5824 5.08097 13.7841 5.34375 13.9347 5.65909C14.0852 5.97159 14.1619 6.3125 14.1648 6.68182C14.1619 7.15341 14.0341 7.57386 13.7812 7.94318C13.5312 8.30966 13.1832 8.59801 12.7372 8.80824C12.294 9.01562 11.7813 9.11932 11.1989 9.11932ZM11.1989 8.18182C11.5938 8.18182 11.9347 8.1179 12.2216 7.99006C12.5085 7.86222 12.7301 7.68182 12.8864 7.44886C13.0426 7.21591 13.1222 6.94318 13.125 6.63068C13.1222 6.30114 13.0369 6.00994 12.8693 5.7571C12.7017 5.50426 12.473 5.3054 12.1832 5.16051C11.8963 5.01562 11.5682 4.94318 11.1989 4.94318C10.8267 4.94318 10.4943 5.01562 10.2017 5.16051C9.91193 5.3054 9.68324 5.50426 9.51562 5.7571C9.35085 6.00994 9.26989 6.30114 9.27273 6.63068C9.26989 6.94318 9.34517 7.21591 9.49858 7.44886C9.65483 7.68182 9.87784 7.86222 10.1676 7.99006C10.4574 8.1179 10.8011 8.18182 11.1989 8.18182ZM11.1989 4.03977C11.5114 4.03977 11.7884 3.97727 12.0298 3.85227C12.2741 3.72727 12.4659 3.55256 12.6051 3.32812C12.7443 3.10369 12.8153 2.84091 12.8182 2.53977C12.8153 2.24432 12.7457 1.98722 12.6094 1.76847C12.473 1.54687 12.2841 1.37642 12.0426 1.2571C11.8011 1.13494 11.5199 1.07386 11.1989 1.07386C10.8722 1.07386 10.5866 1.13494 10.3423 1.2571C10.098 1.37642 9.90909 1.54687 9.77557 1.76847C9.64205 1.98722 9.5767 2.24432 9.57955 2.53977C9.5767 2.84091 9.64347 3.10369 9.77983 3.32812C9.91903 3.55256 10.1108 3.72727 10.3551 3.85227C10.5994 3.97727 10.8807 4.03977 11.1989 4.03977Z" fill="black"/>
</svg>
