<svg width="15" height="10" viewBox="0 0 15 10" fill="none" xmlns="http://www.w3.org/2000/svg">
<path d="M3.75 9.11932C3.10795 9.11932 2.56108 8.9446 2.10938 8.59517C1.65767 8.2429 1.3125 7.73295 1.07386 7.06534C0.835227 6.39489 0.715909 5.58523 0.715909 4.63636C0.715909 3.69318 0.835227 2.88778 1.07386 2.22017C1.31534 1.54972 1.66193 1.03835 2.11364 0.686079C2.56818 0.330966 3.11364 0.153409 3.75 0.153409C4.38636 0.153409 4.9304 0.330966 5.3821 0.686079C5.83665 1.03835 6.18324 1.54972 6.42188 2.22017C6.66335 2.88778 6.78409 3.69318 6.78409 4.63636C6.78409 5.58523 6.66477 6.39489 6.42614 7.06534C6.1875 7.73295 5.84233 8.2429 5.39062 8.59517C4.93892 8.9446 4.39205 9.11932 3.75 9.11932ZM3.75 8.18182C4.38636 8.18182 4.88068 7.875 5.23295 7.26136C5.58523 6.64773 5.76136 5.77273 5.76136 4.63636C5.76136 3.88068 5.6804 3.23722 5.51847 2.70597C5.35938 2.17472 5.12926 1.76989 4.82812 1.49148C4.52983 1.21307 4.17045 1.07386 3.75 1.07386C3.11932 1.07386 2.62642 1.38494 2.27131 2.0071C1.91619 2.62642 1.73864 3.50284 1.73864 4.63636C1.73864 5.39205 1.81818 6.03409 1.97727 6.5625C2.13636 7.09091 2.36506 7.4929 2.66335 7.76847C2.96449 8.04403 3.3267 8.18182 3.75 8.18182ZM11.1818 0.153409C11.5398 0.15625 11.8977 0.224432 12.2557 0.357954C12.6136 0.491477 12.9403 0.713068 13.2358 1.02273C13.5313 1.32955 13.7685 1.74858 13.9474 2.27983C14.1264 2.81108 14.2159 3.47727 14.2159 4.27841C14.2159 5.05398 14.142 5.7429 13.9943 6.34517C13.8494 6.9446 13.6392 7.45028 13.3636 7.86222C13.0909 8.27415 12.7585 8.58665 12.3665 8.79972C11.9773 9.01278 11.5369 9.11932 11.0455 9.11932C10.5568 9.11932 10.1207 9.02273 9.73722 8.82955C9.35653 8.63352 9.04403 8.36222 8.79972 8.01562C8.55824 7.66619 8.40341 7.26136 8.33523 6.80114H9.375C9.46875 7.2017 9.65483 7.53267 9.93324 7.79403C10.2145 8.05256 10.5852 8.18182 11.0455 8.18182C11.7188 8.18182 12.25 7.88778 12.6392 7.29972C13.0313 6.71165 13.2273 5.88068 13.2273 4.80682H13.1591C13 5.04545 12.8111 5.25142 12.5923 5.42472C12.3736 5.59801 12.1307 5.73153 11.8636 5.82528C11.5966 5.91903 11.3125 5.96591 11.0114 5.96591C10.5114 5.96591 10.0526 5.84233 9.63494 5.59517C9.22017 5.34517 8.88778 5.00284 8.63778 4.56818C8.39062 4.13068 8.26705 3.63068 8.26705 3.06818C8.26705 2.53409 8.38636 2.04545 8.625 1.60227C8.86648 1.15625 9.20455 0.801136 9.6392 0.536932C10.0767 0.272727 10.5909 0.144886 11.1818 0.153409ZM11.1818 1.09091C10.8239 1.09091 10.5014 1.1804 10.2145 1.35938C9.9304 1.53551 9.70455 1.77415 9.53693 2.07528C9.37216 2.37358 9.28977 2.70455 9.28977 3.06818C9.28977 3.43182 9.36932 3.76278 9.52841 4.06108C9.69034 4.35653 9.91051 4.59233 10.1889 4.76847C10.4702 4.94176 10.7898 5.02841 11.1477 5.02841C11.4176 5.02841 11.669 4.97585 11.902 4.87074C12.1349 4.76278 12.3381 4.61648 12.5114 4.43182C12.6875 4.24432 12.8253 4.03267 12.9247 3.79688C13.0241 3.55824 13.0739 3.30966 13.0739 3.05114C13.0739 2.71023 12.9915 2.39062 12.8267 2.09233C12.6648 1.79403 12.4403 1.55256 12.1534 1.3679C11.8693 1.18324 11.5455 1.09091 11.1818 1.09091Z" fill="black"/>
</svg>
