<svg width="13" height="10" viewBox="0 0 13 10" fill="none" xmlns="http://www.w3.org/2000/svg">
<path d="M3.97159 0.272727V9H2.91477V1.38068H2.86364L0.732955 2.79545V1.72159L2.91477 0.272727H3.97159ZM9.32812 9.11932C8.68608 9.11932 8.1392 8.9446 7.6875 8.59517C7.2358 8.2429 6.89063 7.73295 6.65199 7.06534C6.41335 6.39489 6.29403 5.58523 6.29403 4.63636C6.29403 3.69318 6.41335 2.88778 6.65199 2.22017C6.89347 1.54972 7.24006 1.03835 7.69176 0.686079C8.14631 0.330966 8.69176 0.153409 9.32812 0.153409C9.96449 0.153409 10.5085 0.330966 10.9602 0.686079C11.4148 1.03835 11.7614 1.54972 12 2.22017C12.2415 2.88778 12.3622 3.69318 12.3622 4.63636C12.3622 5.58523 12.2429 6.39489 12.0043 7.06534C11.7656 7.73295 11.4205 8.2429 10.9688 8.59517C10.517 8.9446 9.97017 9.11932 9.32812 9.11932ZM9.32812 8.18182C9.96449 8.18182 10.4588 7.875 10.8111 7.26136C11.1634 6.64773 11.3395 5.77273 11.3395 4.63636C11.3395 3.88068 11.2585 3.23722 11.0966 2.70597C10.9375 2.17472 10.7074 1.76989 10.4062 1.49148C10.108 1.21307 9.74858 1.07386 9.32812 1.07386C8.69744 1.07386 8.20455 1.38494 7.84943 2.0071C7.49432 2.62642 7.31676 3.50284 7.31676 4.63636C7.31676 5.39205 7.39631 6.03409 7.5554 6.5625C7.71449 7.09091 7.94318 7.4929 8.24148 7.76847C8.54261 8.04403 8.90483 8.18182 9.32812 8.18182Z" fill="black"/>
</svg>
