<svg width="170" height="59" viewBox="0 0 170 59" fill="none" xmlns="http://www.w3.org/2000/svg">
<path d="M87.616 44.968C87.616 46.328 87.28 47.376 86.608 48.112C85.936 48.832 84.96 49.192 83.68 49.192C82.4 49.192 81.424 48.832 80.752 48.112C80.08 47.376 79.744 46.328 79.744 44.968V36.232C79.744 34.872 80.08 33.832 80.752 33.112C81.424 32.376 82.4 32.008 83.68 32.008C84.96 32.008 85.936 32.376 86.608 33.112C87.28 33.832 87.616 34.872 87.616 36.232V37.864H85.12V36.064C85.12 34.96 84.664 34.408 83.752 34.408C82.84 34.408 82.384 34.96 82.384 36.064V45.136C82.384 46.224 82.84 46.768 83.752 46.768C84.664 46.768 85.12 46.224 85.12 45.136V42.736H87.616V44.968ZM89.0018 36.232C89.0018 34.888 89.3458 33.848 90.0338 33.112C90.7218 32.376 91.7138 32.008 93.0098 32.008C94.3058 32.008 95.2978 32.376 95.9858 33.112C96.6738 33.848 97.0178 34.888 97.0178 36.232V44.968C97.0178 46.312 96.6738 47.352 95.9858 48.088C95.2978 48.824 94.3058 49.192 93.0098 49.192C91.7138 49.192 90.7218 48.824 90.0338 48.088C89.3458 47.352 89.0018 46.312 89.0018 44.968V36.232ZM91.6418 45.136C91.6418 46.24 92.0978 46.792 93.0098 46.792C93.9218 46.792 94.3778 46.24 94.3778 45.136V36.064C94.3778 34.96 93.9218 34.408 93.0098 34.408C92.0978 34.408 91.6418 34.96 91.6418 36.064V45.136ZM101.085 49H98.7094V32.2H102.021L104.733 42.256V32.2H107.085V49H104.373L101.085 36.832V49ZM116.368 32.2V34.6H113.608V49H110.968V34.6H108.208V32.2H116.368ZM123.41 49L122.954 45.952H119.714L119.258 49H116.834L119.522 32.2H123.386L126.074 49H123.41ZM122.594 43.672L121.322 35.176L120.05 43.672H122.594ZM129.944 32.2V49H127.304V32.2H129.944ZM134.226 49H131.85V32.2H135.162L137.874 42.256V32.2H140.226V49H137.514L134.226 36.832V49ZM148.38 39.28V41.68H144.756V46.6H149.316V49H142.116V32.2H149.316V34.6H144.756V39.28H148.38ZM156.472 49C156.376 48.728 156.312 48.472 156.28 48.232C156.248 47.992 156.232 47.56 156.232 46.936V44.296C156.232 43.528 156.096 42.984 155.824 42.664C155.552 42.328 155.112 42.16 154.504 42.16H153.592V49H150.952V32.2H154.936C156.296 32.2 157.288 32.52 157.912 33.16C158.536 33.784 158.848 34.752 158.848 36.064V37.384C158.848 39.112 158.272 40.248 157.12 40.792C157.744 41.048 158.192 41.48 158.464 42.088C158.736 42.68 158.872 43.44 158.872 44.368V46.96C158.872 47.44 158.888 47.832 158.92 48.136C158.952 48.424 159.032 48.712 159.16 49H156.472ZM153.592 39.76H154.624C155.152 39.76 155.544 39.624 155.8 39.352C156.072 39.08 156.208 38.624 156.208 37.984V36.328C156.208 35.72 156.096 35.28 155.872 35.008C155.664 34.736 155.328 34.6 154.864 34.6H153.592V39.76ZM160.272 36.232C160.272 34.872 160.6 33.832 161.256 33.112C161.912 32.376 162.88 32.008 164.16 32.008C165.44 32.008 166.408 32.376 167.064 33.112C167.72 33.832 168.048 34.872 168.048 36.232V36.76H165.552V36.064C165.552 35.488 165.44 35.072 165.216 34.816C164.992 34.544 164.664 34.408 164.232 34.408C163.8 34.408 163.472 34.544 163.248 34.816C163.024 35.072 162.912 35.488 162.912 36.064C162.912 36.768 163.096 37.384 163.464 37.912C163.848 38.44 164.416 39.04 165.168 39.712C165.792 40.288 166.296 40.8 166.68 41.248C167.064 41.68 167.392 42.208 167.664 42.832C167.936 43.456 168.072 44.168 168.072 44.968C168.072 46.328 167.736 47.376 167.064 48.112C166.392 48.832 165.416 49.192 164.136 49.192C162.856 49.192 161.88 48.832 161.208 48.112C160.536 47.376 160.2 46.328 160.2 44.968V43.936H162.696V45.136C162.696 46.224 163.152 46.768 164.064 46.768C164.976 46.768 165.432 46.224 165.432 45.136C165.432 44.432 165.24 43.816 164.856 43.288C164.488 42.76 163.928 42.16 163.176 41.488C162.552 40.912 162.048 40.408 161.664 39.976C161.28 39.528 160.952 38.992 160.68 38.368C160.408 37.744 160.272 37.032 160.272 36.232Z" fill="url(#paint0_linear_309_4)"/>
<mask id="path-2-outside-1_309_4" maskUnits="userSpaceOnUse" x="80" y="31" width="90" height="19" fill="black">
<rect fill="white" x="80" y="31" width="90" height="19"/>
<path d="M88.616 44.968C88.616 46.328 88.28 47.376 87.608 48.112C86.936 48.832 85.96 49.192 84.68 49.192C83.4 49.192 82.424 48.832 81.752 48.112C81.08 47.376 80.744 46.328 80.744 44.968V36.232C80.744 34.872 81.08 33.832 81.752 33.112C82.424 32.376 83.4 32.008 84.68 32.008C85.96 32.008 86.936 32.376 87.608 33.112C88.28 33.832 88.616 34.872 88.616 36.232V37.864H86.12V36.064C86.12 34.96 85.664 34.408 84.752 34.408C83.84 34.408 83.384 34.96 83.384 36.064V45.136C83.384 46.224 83.84 46.768 84.752 46.768C85.664 46.768 86.12 46.224 86.12 45.136V42.736H88.616V44.968ZM90.0018 36.232C90.0018 34.888 90.3458 33.848 91.0338 33.112C91.7218 32.376 92.7138 32.008 94.0098 32.008C95.3058 32.008 96.2978 32.376 96.9858 33.112C97.6738 33.848 98.0178 34.888 98.0178 36.232V44.968C98.0178 46.312 97.6738 47.352 96.9858 48.088C96.2978 48.824 95.3058 49.192 94.0098 49.192C92.7138 49.192 91.7218 48.824 91.0338 48.088C90.3458 47.352 90.0018 46.312 90.0018 44.968V36.232ZM92.6418 45.136C92.6418 46.24 93.0978 46.792 94.0098 46.792C94.9218 46.792 95.3778 46.24 95.3778 45.136V36.064C95.3778 34.96 94.9218 34.408 94.0098 34.408C93.0978 34.408 92.6418 34.96 92.6418 36.064V45.136ZM102.085 49H99.7094V32.2H103.021L105.733 42.256V32.2H108.085V49H105.373L102.085 36.832V49ZM117.368 32.2V34.6H114.608V49H111.968V34.6H109.208V32.2H117.368ZM124.41 49L123.954 45.952H120.714L120.258 49H117.834L120.522 32.2H124.386L127.074 49H124.41ZM123.594 43.672L122.322 35.176L121.05 43.672H123.594ZM130.944 32.2V49H128.304V32.2H130.944ZM135.226 49H132.85V32.2H136.162L138.874 42.256V32.2H141.226V49H138.514L135.226 36.832V49ZM149.38 39.28V41.68H145.756V46.6H150.316V49H143.116V32.2H150.316V34.6H145.756V39.28H149.38ZM157.472 49C157.376 48.728 157.312 48.472 157.28 48.232C157.248 47.992 157.232 47.56 157.232 46.936V44.296C157.232 43.528 157.096 42.984 156.824 42.664C156.552 42.328 156.112 42.16 155.504 42.16H154.592V49H151.952V32.2H155.936C157.296 32.2 158.288 32.52 158.912 33.16C159.536 33.784 159.848 34.752 159.848 36.064V37.384C159.848 39.112 159.272 40.248 158.12 40.792C158.744 41.048 159.192 41.48 159.464 42.088C159.736 42.68 159.872 43.44 159.872 44.368V46.96C159.872 47.44 159.888 47.832 159.92 48.136C159.952 48.424 160.032 48.712 160.16 49H157.472ZM154.592 39.76H155.624C156.152 39.76 156.544 39.624 156.8 39.352C157.072 39.08 157.208 38.624 157.208 37.984V36.328C157.208 35.72 157.096 35.28 156.872 35.008C156.664 34.736 156.328 34.6 155.864 34.6H154.592V39.76ZM161.272 36.232C161.272 34.872 161.6 33.832 162.256 33.112C162.912 32.376 163.88 32.008 165.16 32.008C166.44 32.008 167.408 32.376 168.064 33.112C168.72 33.832 169.048 34.872 169.048 36.232V36.76H166.552V36.064C166.552 35.488 166.44 35.072 166.216 34.816C165.992 34.544 165.664 34.408 165.232 34.408C164.8 34.408 164.472 34.544 164.248 34.816C164.024 35.072 163.912 35.488 163.912 36.064C163.912 36.768 164.096 37.384 164.464 37.912C164.848 38.44 165.416 39.04 166.168 39.712C166.792 40.288 167.296 40.8 167.68 41.248C168.064 41.68 168.392 42.208 168.664 42.832C168.936 43.456 169.072 44.168 169.072 44.968C169.072 46.328 168.736 47.376 168.064 48.112C167.392 48.832 166.416 49.192 165.136 49.192C163.856 49.192 162.88 48.832 162.208 48.112C161.536 47.376 161.2 46.328 161.2 44.968V43.936H163.696V45.136C163.696 46.224 164.152 46.768 165.064 46.768C165.976 46.768 166.432 46.224 166.432 45.136C166.432 44.432 166.24 43.816 165.856 43.288C165.488 42.76 164.928 42.16 164.176 41.488C163.552 40.912 163.048 40.408 162.664 39.976C162.28 39.528 161.952 38.992 161.68 38.368C161.408 37.744 161.272 37.032 161.272 36.232Z"/>
</mask>
<path d="M87.608 48.112L87.7542 48.2485L87.7557 48.2469L87.608 48.112ZM81.752 48.112L81.6043 48.2469L81.6058 48.2485L81.752 48.112ZM81.752 33.112L81.8982 33.2485L81.8997 33.2469L81.752 33.112ZM87.608 33.112L87.4603 33.2469L87.4618 33.2485L87.608 33.112ZM88.616 37.864V38.064H88.816V37.864H88.616ZM86.12 37.864H85.92V38.064H86.12V37.864ZM86.12 42.736V42.536H85.92V42.736H86.12ZM88.616 42.736H88.816V42.536H88.616V42.736ZM88.616 44.968H88.416C88.416 46.2965 88.088 47.2896 87.4603 47.9771L87.608 48.112L87.7557 48.2469C88.472 47.4624 88.816 46.3595 88.816 44.968H88.616ZM87.608 48.112L87.4618 47.9755C86.8381 48.6438 85.9221 48.992 84.68 48.992V49.192V49.392C85.9979 49.392 87.0339 49.0202 87.7542 48.2485L87.608 48.112ZM84.68 49.192V48.992C83.4379 48.992 82.5219 48.6438 81.8982 47.9755L81.752 48.112L81.6058 48.2485C82.3261 49.0202 83.3621 49.392 84.68 49.392V49.192ZM81.752 48.112L81.8997 47.9771C81.272 47.2896 80.944 46.2965 80.944 44.968H80.744H80.544C80.544 46.3595 80.888 47.4624 81.6043 48.2469L81.752 48.112ZM80.744 44.968H80.944V36.232H80.744H80.544V44.968H80.744ZM80.744 36.232H80.944C80.944 34.9032 81.2721 33.9193 81.8982 33.2485L81.752 33.112L81.6058 32.9755C80.8879 33.7447 80.544 34.8408 80.544 36.232H80.744ZM81.752 33.112L81.8997 33.2469C82.5237 32.5634 83.4392 32.208 84.68 32.208V32.008V31.808C83.3608 31.808 82.3243 32.1886 81.6043 32.9771L81.752 33.112ZM84.68 32.008V32.208C85.9208 32.208 86.8363 32.5634 87.4603 33.2469L87.608 33.112L87.7557 32.9771C87.0357 32.1886 85.9992 31.808 84.68 31.808V32.008ZM87.608 33.112L87.4618 33.2485C88.0879 33.9193 88.416 34.9032 88.416 36.232H88.616H88.816C88.816 34.8408 88.4721 33.7447 87.7542 32.9755L87.608 33.112ZM88.616 36.232H88.416V37.864H88.616H88.816V36.232H88.616ZM88.616 37.864V37.664H86.12V37.864V38.064H88.616V37.864ZM86.12 37.864H86.32V36.064H86.12H85.92V37.864H86.12ZM86.12 36.064H86.32C86.32 35.4895 86.2021 35.0214 85.9322 34.6946C85.6562 34.3605 85.25 34.208 84.752 34.208V34.408V34.608C85.166 34.608 85.4438 34.7315 85.6238 34.9494C85.8099 35.1746 85.92 35.5345 85.92 36.064H86.12ZM84.752 34.408V34.208C84.254 34.208 83.8478 34.3605 83.5718 34.6946C83.3019 35.0214 83.184 35.4895 83.184 36.064H83.384H83.584C83.584 35.5345 83.6941 35.1746 83.8802 34.9494C84.0602 34.7315 84.338 34.608 84.752 34.608V34.408ZM83.384 36.064H83.184V45.136H83.384H83.584V36.064H83.384ZM83.384 45.136H83.184C83.184 45.7031 83.3021 46.1656 83.5727 46.4885C83.849 46.8181 84.255 46.968 84.752 46.968V46.768V46.568C84.337 46.568 84.059 46.4459 83.8793 46.2315C83.6939 46.0104 83.584 45.6569 83.584 45.136H83.384ZM84.752 46.768V46.968C85.249 46.968 85.655 46.8181 85.9313 46.4885C86.2019 46.1656 86.32 45.7031 86.32 45.136H86.12H85.92C85.92 45.6569 85.8101 46.0104 85.6247 46.2315C85.445 46.4459 85.167 46.568 84.752 46.568V46.768ZM86.12 45.136H86.32V42.736H86.12H85.92V45.136H86.12ZM86.12 42.736V42.936H88.616V42.736V42.536H86.12V42.736ZM88.616 42.736H88.416V44.968H88.616H88.816V42.736H88.616ZM91.0338 33.112L90.8877 32.9754L90.8877 32.9754L91.0338 33.112ZM96.9858 33.112L97.1319 32.9754L97.1319 32.9754L96.9858 33.112ZM96.9858 48.088L97.1319 48.2246L97.1319 48.2246L96.9858 48.088ZM91.0338 48.088L90.8877 48.2246L90.8877 48.2246L91.0338 48.088ZM90.0018 36.232H90.2018C90.2018 34.9214 90.5368 33.9366 91.1799 33.2486L91.0338 33.112L90.8877 32.9754C90.1548 33.7594 89.8018 34.8546 89.8018 36.232H90.0018ZM91.0338 33.112L91.1799 33.2486C91.82 32.5638 92.7524 32.208 94.0098 32.208V32.008V31.808C92.6752 31.808 91.6236 32.1882 90.8877 32.9754L91.0338 33.112ZM94.0098 32.008V32.208C95.2672 32.208 96.1996 32.5638 96.8397 33.2486L96.9858 33.112L97.1319 32.9754C96.396 32.1882 95.3444 31.808 94.0098 31.808V32.008ZM96.9858 33.112L96.8397 33.2486C97.4828 33.9366 97.8178 34.9214 97.8178 36.232H98.0178H98.2178C98.2178 34.8546 97.8648 33.7594 97.1319 32.9754L96.9858 33.112ZM98.0178 36.232H97.8178V44.968H98.0178H98.2178V36.232H98.0178ZM98.0178 44.968H97.8178C97.8178 46.2786 97.4828 47.2634 96.8397 47.9514L96.9858 48.088L97.1319 48.2246C97.8648 47.4406 98.2178 46.3454 98.2178 44.968H98.0178ZM96.9858 48.088L96.8397 47.9514C96.1996 48.6362 95.2672 48.992 94.0098 48.992V49.192V49.392C95.3444 49.392 96.396 49.0118 97.1319 48.2246L96.9858 48.088ZM94.0098 49.192V48.992C92.7524 48.992 91.82 48.6362 91.1799 47.9514L91.0338 48.088L90.8877 48.2246C91.6236 49.0118 92.6752 49.392 94.0098 49.392V49.192ZM91.0338 48.088L91.1799 47.9514C90.5368 47.2634 90.2018 46.2786 90.2018 44.968H90.0018H89.8018C89.8018 46.3454 90.1548 47.4406 90.8877 48.2246L91.0338 48.088ZM90.0018 44.968H90.2018V36.232H90.0018H89.8018V44.968H90.0018ZM92.6418 45.136H92.4418C92.4418 45.7105 92.5597 46.1786 92.8296 46.5054C93.1056 46.8395 93.5118 46.992 94.0098 46.992V46.792V46.592C93.5958 46.592 93.318 46.4685 93.138 46.2506C92.9519 46.0254 92.8418 45.6655 92.8418 45.136H92.6418ZM94.0098 46.792V46.992C94.5078 46.992 94.914 46.8395 95.19 46.5054C95.4599 46.1786 95.5778 45.7105 95.5778 45.136H95.3778H95.1778C95.1778 45.6655 95.0677 46.0254 94.8816 46.2506C94.7016 46.4685 94.4238 46.592 94.0098 46.592V46.792ZM95.3778 45.136H95.5778V36.064H95.3778H95.1778V45.136H95.3778ZM95.3778 36.064H95.5778C95.5778 35.4895 95.4599 35.0214 95.19 34.6946C94.914 34.3605 94.5078 34.208 94.0098 34.208V34.408V34.608C94.4238 34.608 94.7016 34.7315 94.8816 34.9494C95.0677 35.1746 95.1778 35.5345 95.1778 36.064H95.3778ZM94.0098 34.408V34.208C93.5118 34.208 93.1056 34.3605 92.8296 34.6946C92.5597 35.0214 92.4418 35.4895 92.4418 36.064H92.6418H92.8418C92.8418 35.5345 92.9519 35.1746 93.138 34.9494C93.318 34.7315 93.5958 34.608 94.0098 34.608V34.408ZM92.6418 36.064H92.4418V45.136H92.6418H92.8418V36.064H92.6418ZM102.085 49V49.2H102.285V49H102.085ZM99.7094 49H99.5094V49.2H99.7094V49ZM99.7094 32.2V32H99.5094V32.2H99.7094ZM103.021 32.2L103.215 32.1479L103.175 32H103.021V32.2ZM105.733 42.256L105.54 42.3081L105.933 42.256H105.733ZM105.733 32.2V32H105.533V32.2H105.733ZM108.085 32.2H108.285V32H108.085V32.2ZM108.085 49V49.2H108.285V49H108.085ZM105.373 49L105.18 49.0522L105.22 49.2H105.373V49ZM102.085 36.832L102.279 36.7798L101.885 36.832H102.085ZM102.085 49V48.8H99.7094V49V49.2H102.085V49ZM99.7094 49H99.9094V32.2H99.7094H99.5094V49H99.7094ZM99.7094 32.2V32.4H103.021V32.2V32H99.7094V32.2ZM103.021 32.2L102.828 32.2521L105.54 42.3081L105.733 42.256L105.927 42.2039L103.215 32.1479L103.021 32.2ZM105.733 42.256H105.933V32.2H105.733H105.533V42.256H105.733ZM105.733 32.2V32.4H108.085V32.2V32H105.733V32.2ZM108.085 32.2H107.885V49H108.085H108.285V32.2H108.085ZM108.085 49V48.8H105.373V49V49.2H108.085V49ZM105.373 49L105.567 48.9478L102.279 36.7798L102.085 36.832L101.892 36.8842L105.18 49.0522L105.373 49ZM102.085 36.832H101.885V49H102.085H102.285V36.832H102.085ZM117.368 32.2H117.568V32H117.368V32.2ZM117.368 34.6V34.8H117.568V34.6H117.368ZM114.608 34.6V34.4H114.408V34.6H114.608ZM114.608 49V49.2H114.808V49H114.608ZM111.968 49H111.768V49.2H111.968V49ZM111.968 34.6H112.168V34.4H111.968V34.6ZM109.208 34.6H109.008V34.8H109.208V34.6ZM109.208 32.2V32H109.008V32.2H109.208ZM117.368 32.2H117.168V34.6H117.368H117.568V32.2H117.368ZM117.368 34.6V34.4H114.608V34.6V34.8H117.368V34.6ZM114.608 34.6H114.408V49H114.608H114.808V34.6H114.608ZM114.608 49V48.8H111.968V49V49.2H114.608V49ZM111.968 49H112.168V34.6H111.968H111.768V49H111.968ZM111.968 34.6V34.4H109.208V34.6V34.8H111.968V34.6ZM109.208 34.6H109.408V32.2H109.208H109.008V34.6H109.208ZM109.208 32.2V32.4H117.368V32.2V32H109.208V32.2ZM124.41 49L124.213 49.0296L124.238 49.2H124.41V49ZM123.954 45.952L124.152 45.9224L124.127 45.752H123.954V45.952ZM120.714 45.952V45.752H120.542L120.517 45.9224L120.714 45.952ZM120.258 49V49.2H120.431L120.456 49.0296L120.258 49ZM117.834 49L117.637 48.9684L117.6 49.2H117.834V49ZM120.522 32.2V32H120.352L120.325 32.1684L120.522 32.2ZM124.386 32.2L124.584 32.1684L124.557 32H124.386V32.2ZM127.074 49V49.2H127.309L127.272 48.9684L127.074 49ZM123.594 43.672V43.872H123.826L123.792 43.6424L123.594 43.672ZM122.322 35.176L122.52 35.1464H122.125L122.322 35.176ZM121.05 43.672L120.853 43.6424L120.818 43.872H121.05V43.672ZM124.41 49L124.608 48.9704L124.152 45.9224L123.954 45.952L123.757 45.9816L124.213 49.0296L124.41 49ZM123.954 45.952V45.752H120.714V45.952V46.152H123.954V45.952ZM120.714 45.952L120.517 45.9224L120.061 48.9704L120.258 49L120.456 49.0296L120.912 45.9816L120.714 45.952ZM120.258 49V48.8H117.834V49V49.2H120.258V49ZM117.834 49L118.032 49.0316L120.72 32.2316L120.522 32.2L120.325 32.1684L117.637 48.9684L117.834 49ZM120.522 32.2V32.4H124.386V32.2V32H120.522V32.2ZM124.386 32.2L124.189 32.2316L126.877 49.0316L127.074 49L127.272 48.9684L124.584 32.1684L124.386 32.2ZM127.074 49V48.8H124.41V49V49.2H127.074V49ZM123.594 43.672L123.792 43.6424L122.52 35.1464L122.322 35.176L122.125 35.2056L123.397 43.7016L123.594 43.672ZM122.322 35.176L122.125 35.1464L120.853 43.6424L121.05 43.672L121.248 43.7016L122.52 35.2056L122.322 35.176ZM121.05 43.672V43.872H123.594V43.672V43.472H121.05V43.672ZM130.944 32.2H131.144V32H130.944V32.2ZM130.944 49V49.2H131.144V49H130.944ZM128.304 49H128.104V49.2H128.304V49ZM128.304 32.2V32H128.104V32.2H128.304ZM130.944 32.2H130.744V49H130.944H131.144V32.2H130.944ZM130.944 49V48.8H128.304V49V49.2H130.944V49ZM128.304 49H128.504V32.2H128.304H128.104V49H128.304ZM128.304 32.2V32.4H130.944V32.2V32H128.304V32.2ZM135.226 49V49.2H135.426V49H135.226ZM132.85 49H132.65V49.2H132.85V49ZM132.85 32.2V32H132.65V32.2H132.85ZM136.162 32.2L136.355 32.1479L136.315 32H136.162V32.2ZM138.874 42.256L138.681 42.3081L139.074 42.256H138.874ZM138.874 32.2V32H138.674V32.2H138.874ZM141.226 32.2H141.426V32H141.226V32.2ZM141.226 49V49.2H141.426V49H141.226ZM138.514 49L138.321 49.0522L138.361 49.2H138.514V49ZM135.226 36.832L135.419 36.7798L135.026 36.832H135.226ZM135.226 49V48.8H132.85V49V49.2H135.226V49ZM132.85 49H133.05V32.2H132.85H132.65V49H132.85ZM132.85 32.2V32.4H136.162V32.2V32H132.85V32.2ZM136.162 32.2L135.969 32.2521L138.681 42.3081L138.874 42.256L139.067 42.2039L136.355 32.1479L136.162 32.2ZM138.874 42.256H139.074V32.2H138.874H138.674V42.256H138.874ZM138.874 32.2V32.4H141.226V32.2V32H138.874V32.2ZM141.226 32.2H141.026V49H141.226H141.426V32.2H141.226ZM141.226 49V48.8H138.514V49V49.2H141.226V49ZM138.514 49L138.707 48.9478L135.419 36.7798L135.226 36.832L135.033 36.8842L138.321 49.0522L138.514 49ZM135.226 36.832H135.026V49H135.226H135.426V36.832H135.226ZM149.38 39.28H149.58V39.08H149.38V39.28ZM149.38 41.68V41.88H149.58V41.68H149.38ZM145.756 41.68V41.48H145.556V41.68H145.756ZM145.756 46.6H145.556V46.8H145.756V46.6ZM150.316 46.6H150.516V46.4H150.316V46.6ZM150.316 49V49.2H150.516V49H150.316ZM143.116 49H142.916V49.2H143.116V49ZM143.116 32.2V32H142.916V32.2H143.116ZM150.316 32.2H150.516V32H150.316V32.2ZM150.316 34.6V34.8H150.516V34.6H150.316ZM145.756 34.6V34.4H145.556V34.6H145.756ZM145.756 39.28H145.556V39.48H145.756V39.28ZM149.38 39.28H149.18V41.68H149.38H149.58V39.28H149.38ZM149.38 41.68V41.48H145.756V41.68V41.88H149.38V41.68ZM145.756 41.68H145.556V46.6H145.756H145.956V41.68H145.756ZM145.756 46.6V46.8H150.316V46.6V46.4H145.756V46.6ZM150.316 46.6H150.116V49H150.316H150.516V46.6H150.316ZM150.316 49V48.8H143.116V49V49.2H150.316V49ZM143.116 49H143.316V32.2H143.116H142.916V49H143.116ZM143.116 32.2V32.4H150.316V32.2V32H143.116V32.2ZM150.316 32.2H150.116V34.6H150.316H150.516V32.2H150.316ZM150.316 34.6V34.4H145.756V34.6V34.8H150.316V34.6ZM145.756 34.6H145.556V39.28H145.756H145.956V34.6H145.756ZM145.756 39.28V39.48H149.38V39.28V39.08H145.756V39.28ZM157.472 49L157.284 49.0666L157.331 49.2H157.472V49ZM157.28 48.232L157.478 48.2056L157.478 48.2056L157.28 48.232ZM156.824 42.664L156.669 42.7899L156.672 42.7935L156.824 42.664ZM154.592 42.16V41.96H154.392V42.16H154.592ZM154.592 49V49.2H154.792V49H154.592ZM151.952 49H151.752V49.2H151.952V49ZM151.952 32.2V32H151.752V32.2H151.952ZM158.912 33.16L158.769 33.2996L158.771 33.3014L158.912 33.16ZM158.12 40.792L158.035 40.6112L157.625 40.8049L158.044 40.977L158.12 40.792ZM159.464 42.088L159.282 42.1697L159.282 42.1715L159.464 42.088ZM159.92 48.136L159.721 48.1569L159.721 48.1581L159.92 48.136ZM160.16 49V49.2H160.468L160.343 48.9188L160.16 49ZM154.592 39.76H154.392V39.96H154.592V39.76ZM156.8 39.352L156.659 39.2105L156.655 39.2149L156.8 39.352ZM156.872 35.008L156.713 35.1296L156.718 35.1351L156.872 35.008ZM154.592 34.6V34.4H154.392V34.6H154.592ZM157.472 49L157.661 48.9334C157.569 48.6721 157.508 48.4296 157.478 48.2056L157.28 48.232L157.082 48.2584C157.116 48.5144 157.184 48.7839 157.284 49.0666L157.472 49ZM157.28 48.232L157.478 48.2056C157.448 47.9804 157.432 47.5607 157.432 46.936H157.232H157.032C157.032 47.5593 157.048 48.0036 157.082 48.2584L157.28 48.232ZM157.232 46.936H157.432V44.296H157.232H157.032V46.936H157.232ZM157.232 44.296H157.432C157.432 43.5154 157.296 42.9104 156.977 42.5345L156.824 42.664L156.672 42.7935C156.896 43.0576 157.032 43.5406 157.032 44.296H157.232ZM156.824 42.664L156.98 42.5382C156.656 42.1384 156.147 41.96 155.504 41.96V42.16V42.36C156.078 42.36 156.448 42.5176 156.669 42.7898L156.824 42.664ZM155.504 42.16V41.96H154.592V42.16V42.36H155.504V42.16ZM154.592 42.16H154.392V49H154.592H154.792V42.16H154.592ZM154.592 49V48.8H151.952V49V49.2H154.592V49ZM151.952 49H152.152V32.2H151.952H151.752V49H151.952ZM151.952 32.2V32.4H155.936V32.2V32H151.952V32.2ZM155.936 32.2V32.4C157.27 32.4 158.198 32.7144 158.769 33.2996L158.912 33.16L159.055 33.0204C158.378 32.3256 157.322 32 155.936 32V32.2ZM158.912 33.16L158.771 33.3014C159.342 33.873 159.648 34.7794 159.648 36.064H159.848H160.048C160.048 34.7246 159.73 33.695 159.054 33.0186L158.912 33.16ZM159.848 36.064H159.648V37.384H159.848H160.048V36.064H159.848ZM159.848 37.384H159.648C159.648 39.067 159.092 40.1121 158.035 40.6112L158.12 40.792L158.206 40.9728C159.453 40.3839 160.048 39.157 160.048 37.384H159.848ZM158.12 40.792L158.044 40.977C158.621 41.2138 159.031 41.6092 159.282 42.1697L159.464 42.088L159.647 42.0063C159.353 41.3508 158.867 40.8822 158.196 40.607L158.12 40.792ZM159.464 42.088L159.282 42.1715C159.538 42.7286 159.672 43.4575 159.672 44.368H159.872H160.072C160.072 43.4225 159.934 42.6314 159.646 42.0045L159.464 42.088ZM159.872 44.368H159.672V46.96H159.872H160.072V44.368H159.872ZM159.872 46.96H159.672C159.672 47.4435 159.688 47.8432 159.721 48.1569L159.92 48.136L160.119 48.1151C160.088 47.8208 160.072 47.4365 160.072 46.96H159.872ZM159.92 48.136L159.721 48.1581C159.756 48.4682 159.842 48.7761 159.977 49.0812L160.16 49L160.343 48.9188C160.223 48.6479 160.149 48.3798 160.119 48.1139L159.92 48.136ZM160.16 49V48.8H157.472V49V49.2H160.16V49ZM154.592 39.76V39.96H155.624V39.76V39.56H154.592V39.76ZM155.624 39.76V39.96C156.184 39.96 156.639 39.8155 156.946 39.4891L156.8 39.352L156.655 39.2149C156.45 39.4325 156.12 39.56 155.624 39.56V39.76ZM156.8 39.352L156.942 39.4934C157.269 39.1656 157.408 38.6437 157.408 37.984H157.208H157.008C157.008 38.6043 156.875 38.9944 156.659 39.2106L156.8 39.352ZM157.208 37.984H157.408V36.328H157.208H157.008V37.984H157.208ZM157.208 36.328H157.408C157.408 35.7041 157.295 35.2067 157.027 34.8809L156.872 35.008L156.718 35.1351C156.897 35.3533 157.008 35.7359 157.008 36.328H157.208ZM156.872 35.008L157.031 34.8865C156.773 34.5488 156.367 34.4 155.864 34.4V34.6V34.8C156.29 34.8 156.556 34.9232 156.713 35.1295L156.872 35.008ZM155.864 34.6V34.4H154.592V34.6V34.8H155.864V34.6ZM154.592 34.6H154.392V39.76H154.592H154.792V34.6H154.592ZM162.256 33.112L162.404 33.2467L162.406 33.2451L162.256 33.112ZM168.064 33.112L167.915 33.2451L167.917 33.2467L168.064 33.112ZM169.048 36.76V36.96H169.248V36.76H169.048ZM166.552 36.76H166.352V36.96H166.552V36.76ZM166.216 34.816L166.062 34.9432L166.066 34.9477L166.216 34.816ZM164.248 34.816L164.399 34.9478L164.403 34.9431L164.248 34.816ZM164.464 37.912L164.3 38.0264L164.303 38.0296L164.464 37.912ZM166.168 39.712L166.304 39.565L166.302 39.5629L166.168 39.712ZM167.68 41.248L167.529 41.3782L167.531 41.3809L167.68 41.248ZM168.664 42.832L168.848 42.7521L168.848 42.7521L168.664 42.832ZM168.064 48.112L168.211 48.2485L168.212 48.2469L168.064 48.112ZM162.208 48.112L162.061 48.2469L162.062 48.2485L162.208 48.112ZM161.2 43.936V43.736H161V43.936H161.2ZM163.696 43.936H163.896V43.736H163.696V43.936ZM165.856 43.288L165.692 43.4024L165.695 43.4056L165.856 43.288ZM164.176 41.488L164.041 41.635L164.043 41.6371L164.176 41.488ZM162.664 39.976L162.513 40.1062L162.515 40.1089L162.664 39.976ZM161.272 36.232H161.472C161.472 34.902 161.793 33.9175 162.404 33.2467L162.256 33.112L162.109 32.9773C161.408 33.7465 161.072 34.842 161.072 36.232H161.272ZM162.256 33.112L162.406 33.2451C163.013 32.5635 163.919 32.208 165.16 32.208V32.008V31.808C163.841 31.808 162.812 32.1885 162.107 32.9789L162.256 33.112ZM165.16 32.008V32.208C166.401 32.208 167.308 32.5635 167.915 33.2451L168.064 33.112L168.214 32.9789C167.509 32.1885 166.479 31.808 165.16 31.808V32.008ZM168.064 33.112L167.917 33.2467C168.528 33.9175 168.848 34.902 168.848 36.232H169.048H169.248C169.248 34.842 168.913 33.7465 168.212 32.9773L168.064 33.112ZM169.048 36.232H168.848V36.76H169.048H169.248V36.232H169.048ZM169.048 36.76V36.56H166.552V36.76V36.96H169.048V36.76ZM166.552 36.76H166.752V36.064H166.552H166.352V36.76H166.552ZM166.552 36.064H166.752C166.752 35.4705 166.639 34.9947 166.367 34.6843L166.216 34.816L166.066 34.9477C166.242 35.1493 166.352 35.5055 166.352 36.064H166.552ZM166.216 34.816L166.371 34.6889C166.1 34.3604 165.709 34.208 165.232 34.208V34.408V34.608C165.62 34.608 165.885 34.7276 166.062 34.9431L166.216 34.816ZM165.232 34.408V34.208C164.756 34.208 164.365 34.3604 164.094 34.6889L164.248 34.816L164.403 34.9431C164.58 34.7276 164.845 34.608 165.232 34.608V34.408ZM164.248 34.816L164.098 34.6843C163.826 34.9947 163.712 35.4705 163.712 36.064H163.912H164.112C164.112 35.5055 164.223 35.1493 164.399 34.9477L164.248 34.816ZM163.912 36.064H163.712C163.712 36.8049 163.907 37.4617 164.3 38.0264L164.464 37.912L164.629 37.7976C164.286 37.3063 164.112 36.7311 164.112 36.064H163.912ZM164.464 37.912L164.303 38.0296C164.698 38.5735 165.278 39.1842 166.035 39.8611L166.168 39.712L166.302 39.5629C165.555 38.8958 164.999 38.3065 164.626 37.7944L164.464 37.912ZM166.168 39.712L166.033 39.859C166.653 40.4318 167.151 40.938 167.529 41.3782L167.68 41.248L167.832 41.1178C167.442 40.662 166.932 40.1442 166.304 39.565L166.168 39.712ZM167.68 41.248L167.531 41.3809C167.899 41.7946 168.216 42.3039 168.481 42.9119L168.664 42.832L168.848 42.7521C168.569 42.1121 168.23 41.5654 167.83 41.1151L167.68 41.248ZM168.664 42.832L168.481 42.9119C168.74 43.5067 168.872 44.1907 168.872 44.968H169.072H169.272C169.272 44.1453 169.133 43.4053 168.848 42.7521L168.664 42.832ZM169.072 44.968H168.872C168.872 46.2965 168.544 47.2896 167.917 47.9771L168.064 48.112L168.212 48.2469C168.928 47.4624 169.272 46.3595 169.272 44.968H169.072ZM168.064 48.112L167.918 47.9755C167.295 48.6438 166.379 48.992 165.136 48.992V49.192V49.392C166.454 49.392 167.49 49.0202 168.211 48.2485L168.064 48.112ZM165.136 49.192V48.992C163.894 48.992 162.978 48.6438 162.355 47.9755L162.208 48.112L162.062 48.2485C162.783 49.0202 163.819 49.392 165.136 49.392V49.192ZM162.208 48.112L162.356 47.9771C161.728 47.2896 161.4 46.2965 161.4 44.968H161.2H161C161 46.3595 161.344 47.4624 162.061 48.2469L162.208 48.112ZM161.2 44.968H161.4V43.936H161.2H161V44.968H161.2ZM161.2 43.936V44.136H163.696V43.936V43.736H161.2V43.936ZM163.696 43.936H163.496V45.136H163.696H163.896V43.936H163.696ZM163.696 45.136H163.496C163.496 45.7031 163.615 46.1656 163.885 46.4885C164.161 46.8181 164.567 46.968 165.064 46.968V46.768V46.568C164.649 46.568 164.371 46.4459 164.192 46.2315C164.006 46.0104 163.896 45.6569 163.896 45.136H163.696ZM165.064 46.768V46.968C165.561 46.968 165.967 46.8181 166.244 46.4885C166.514 46.1656 166.632 45.7031 166.632 45.136H166.432H166.232C166.232 45.6569 166.123 46.0104 165.937 46.2315C165.757 46.4459 165.479 46.568 165.064 46.568V46.768ZM166.432 45.136H166.632C166.632 44.3932 166.429 43.7353 166.018 43.1704L165.856 43.288L165.695 43.4056C166.052 43.8967 166.232 44.4708 166.232 45.136H166.432ZM165.856 43.288L166.021 43.1736C165.64 42.6278 165.068 42.0161 164.31 41.3389L164.176 41.488L164.043 41.6371C164.789 42.3039 165.337 42.8922 165.692 43.4024L165.856 43.288ZM164.176 41.488L164.312 41.341C163.691 40.7676 163.192 40.2685 162.814 39.8431L162.664 39.976L162.515 40.1089C162.905 40.5475 163.414 41.0564 164.041 41.635L164.176 41.488ZM162.664 39.976L162.816 39.8458C162.447 39.415 162.129 38.8966 161.864 38.2881L161.68 38.368L161.497 38.4479C161.776 39.0874 162.114 39.641 162.513 40.1062L162.664 39.976ZM161.68 38.368L161.864 38.2881C161.605 37.6933 161.472 37.0093 161.472 36.232H161.272H161.072C161.072 37.0547 161.212 37.7947 161.497 38.4479L161.68 38.368Z" fill="#F36408" mask="url(#path-2-outside-1_309_4)"/>
<path d="M6.48 23C6.384 22.728 6.32 22.472 6.288 22.232C6.256 21.992 6.24 21.56 6.24 20.936V18.296C6.24 17.528 6.104 16.984 5.832 16.664C5.56 16.328 5.12 16.16 4.512 16.16H3.6V23H0.96V6.2H4.944C6.304 6.2 7.296 6.52 7.92 7.16C8.544 7.784 8.856 8.752 8.856 10.064V11.384C8.856 13.112 8.28 14.248 7.128 14.792C7.752 15.048 8.2 15.48 8.472 16.088C8.744 16.68 8.88 17.44 8.88 18.368V20.96C8.88 21.44 8.896 21.832 8.928 22.136C8.96 22.424 9.04 22.712 9.168 23H6.48ZM3.6 13.76H4.632C5.16 13.76 5.552 13.624 5.808 13.352C6.08 13.08 6.216 12.624 6.216 11.984V10.328C6.216 9.72 6.104 9.28 5.88 9.008C5.672 8.736 5.336 8.6 4.872 8.6H3.6V13.76ZM16.8803 13.28V15.68H13.2563V20.6H17.8163V23H10.6163V6.2H17.8163V8.6H13.2563V13.28H16.8803ZM27.1082 18.968C27.1082 20.328 26.7722 21.376 26.1002 22.112C25.4282 22.832 24.4522 23.192 23.1722 23.192C21.8922 23.192 20.9162 22.832 20.2442 22.112C19.5722 21.376 19.2362 20.328 19.2362 18.968V10.232C19.2362 8.872 19.5722 7.832 20.2442 7.112C20.9162 6.376 21.8922 6.008 23.1722 6.008C24.4522 6.008 25.4282 6.376 26.1002 7.112C26.7722 7.832 27.1082 8.872 27.1082 10.232V11.864H24.6122V10.064C24.6122 8.96 24.1562 8.408 23.2442 8.408C22.3322 8.408 21.8762 8.96 21.8762 10.064V19.136C21.8762 20.224 22.3322 20.768 23.2442 20.768C24.1562 20.768 24.6122 20.224 24.6122 19.136V16.736H27.1082V18.968ZM36.102 6.2V8.6H33.342V23H30.702V8.6H27.942V6.2H36.102ZM43.1447 23L42.6887 19.952H39.4487L38.9927 23H36.5687L39.2567 6.2H43.1207L45.8087 23H43.1447ZM42.3287 17.672L41.0567 9.176L39.7847 17.672H42.3287ZM49.3901 23H47.0141V6.2H50.3261L53.0381 16.256V6.2H55.3901V23H52.6781L49.3901 10.832V23ZM64.9363 13.64V18.968C64.9363 20.328 64.6003 21.376 63.9283 22.112C63.2563 22.832 62.2803 23.192 61.0003 23.192C59.7203 23.192 58.7443 22.832 58.0723 22.112C57.4003 21.376 57.0643 20.328 57.0643 18.968V10.232C57.0643 8.872 57.4003 7.832 58.0723 7.112C58.7443 6.376 59.7203 6.008 61.0003 6.008C62.2803 6.008 63.2563 6.376 63.9283 7.112C64.6003 7.832 64.9363 8.872 64.9363 10.232V11.864H62.4403V10.064C62.4403 8.96 61.9843 8.408 61.0723 8.408C60.1603 8.408 59.7043 8.96 59.7043 10.064V19.136C59.7043 20.224 60.1603 20.768 61.0723 20.768C61.9843 20.768 62.4403 20.224 62.4403 19.136V16.04H61.2403V13.64H64.9363ZM69.1519 19.16C69.1519 20.248 69.6079 20.792 70.5199 20.792C71.4319 20.792 71.8879 20.248 71.8879 19.16V6.2H74.3839V18.992C74.3839 20.352 74.0479 21.4 73.3759 22.136C72.7039 22.856 71.7279 23.216 70.4479 23.216C69.1679 23.216 68.1919 22.856 67.5199 22.136C66.8479 21.4 66.5119 20.352 66.5119 18.992V6.2H69.1519V19.16ZM78.8344 6.2V20.6H83.1784V23H76.1944V6.2H78.8344ZM90.2072 23L89.7512 19.952H86.5112L86.0552 23H83.6312L86.3192 6.2H90.1832L92.8712 23H90.2072ZM89.3912 17.672L88.1192 9.176L86.8472 17.672H89.3912ZM99.6206 23C99.5246 22.728 99.4606 22.472 99.4286 22.232C99.3966 21.992 99.3806 21.56 99.3806 20.936V18.296C99.3806 17.528 99.2446 16.984 98.9726 16.664C98.7006 16.328 98.2606 16.16 97.6526 16.16H96.7406V23H94.1006V6.2H98.0846C99.4446 6.2 100.437 6.52 101.061 7.16C101.685 7.784 101.997 8.752 101.997 10.064V11.384C101.997 13.112 101.421 14.248 100.269 14.792C100.893 15.048 101.341 15.48 101.613 16.088C101.885 16.68 102.021 17.44 102.021 18.368V20.96C102.021 21.44 102.037 21.832 102.069 22.136C102.101 22.424 102.181 22.712 102.309 23H99.6206ZM96.7406 13.76H97.7726C98.3006 13.76 98.6926 13.624 98.9486 13.352C99.2206 13.08 99.3566 12.624 99.3566 11.984V10.328C99.3566 9.72 99.2446 9.28 99.0206 9.008C98.8126 8.736 98.4766 8.6 98.0126 8.6H96.7406V13.76Z" fill="url(#paint1_linear_309_4)"/>
<mask id="path-5-outside-2_309_4" maskUnits="userSpaceOnUse" x="1" y="5" width="103" height="19" fill="black">
<rect fill="white" x="1" y="5" width="103" height="19"/>
<path d="M7.48 23C7.384 22.728 7.32 22.472 7.288 22.232C7.256 21.992 7.24 21.56 7.24 20.936V18.296C7.24 17.528 7.104 16.984 6.832 16.664C6.56 16.328 6.12 16.16 5.512 16.16H4.6V23H1.96V6.2H5.944C7.304 6.2 8.296 6.52 8.92 7.16C9.544 7.784 9.856 8.752 9.856 10.064V11.384C9.856 13.112 9.28 14.248 8.128 14.792C8.752 15.048 9.2 15.48 9.472 16.088C9.744 16.68 9.88 17.44 9.88 18.368V20.96C9.88 21.44 9.896 21.832 9.928 22.136C9.96 22.424 10.04 22.712 10.168 23H7.48ZM4.6 13.76H5.632C6.16 13.76 6.552 13.624 6.808 13.352C7.08 13.08 7.216 12.624 7.216 11.984V10.328C7.216 9.72 7.104 9.28 6.88 9.008C6.672 8.736 6.336 8.6 5.872 8.6H4.6V13.76ZM17.8803 13.28V15.68H14.2563V20.6H18.8163V23H11.6163V6.2H18.8163V8.6H14.2563V13.28H17.8803ZM28.1082 18.968C28.1082 20.328 27.7722 21.376 27.1002 22.112C26.4282 22.832 25.4522 23.192 24.1722 23.192C22.8922 23.192 21.9162 22.832 21.2442 22.112C20.5722 21.376 20.2362 20.328 20.2362 18.968V10.232C20.2362 8.872 20.5722 7.832 21.2442 7.112C21.9162 6.376 22.8922 6.008 24.1722 6.008C25.4522 6.008 26.4282 6.376 27.1002 7.112C27.7722 7.832 28.1082 8.872 28.1082 10.232V11.864H25.6122V10.064C25.6122 8.96 25.1562 8.408 24.2442 8.408C23.3322 8.408 22.8762 8.96 22.8762 10.064V19.136C22.8762 20.224 23.3322 20.768 24.2442 20.768C25.1562 20.768 25.6122 20.224 25.6122 19.136V16.736H28.1082V18.968ZM37.102 6.2V8.6H34.342V23H31.702V8.6H28.942V6.2H37.102ZM44.1447 23L43.6887 19.952H40.4487L39.9927 23H37.5687L40.2567 6.2H44.1207L46.8087 23H44.1447ZM43.3287 17.672L42.0567 9.176L40.7847 17.672H43.3287ZM50.3901 23H48.0141V6.2H51.3261L54.0381 16.256V6.2H56.3901V23H53.6781L50.3901 10.832V23ZM65.9363 13.64V18.968C65.9363 20.328 65.6003 21.376 64.9283 22.112C64.2563 22.832 63.2803 23.192 62.0003 23.192C60.7203 23.192 59.7443 22.832 59.0723 22.112C58.4003 21.376 58.0643 20.328 58.0643 18.968V10.232C58.0643 8.872 58.4003 7.832 59.0723 7.112C59.7443 6.376 60.7203 6.008 62.0003 6.008C63.2803 6.008 64.2563 6.376 64.9283 7.112C65.6003 7.832 65.9363 8.872 65.9363 10.232V11.864H63.4403V10.064C63.4403 8.96 62.9843 8.408 62.0723 8.408C61.1603 8.408 60.7043 8.96 60.7043 10.064V19.136C60.7043 20.224 61.1603 20.768 62.0723 20.768C62.9843 20.768 63.4403 20.224 63.4403 19.136V16.04H62.2403V13.64H65.9363ZM70.1519 19.16C70.1519 20.248 70.6079 20.792 71.5199 20.792C72.4319 20.792 72.8879 20.248 72.8879 19.16V6.2H75.3839V18.992C75.3839 20.352 75.0479 21.4 74.3759 22.136C73.7039 22.856 72.7279 23.216 71.4479 23.216C70.1679 23.216 69.1919 22.856 68.5199 22.136C67.8479 21.4 67.5119 20.352 67.5119 18.992V6.2H70.1519V19.16ZM79.8344 6.2V20.6H84.1784V23H77.1944V6.2H79.8344ZM91.2072 23L90.7512 19.952H87.5112L87.0552 23H84.6312L87.3192 6.2H91.1832L93.8712 23H91.2072ZM90.3912 17.672L89.1192 9.176L87.8472 17.672H90.3912ZM100.621 23C100.525 22.728 100.461 22.472 100.429 22.232C100.397 21.992 100.381 21.56 100.381 20.936V18.296C100.381 17.528 100.245 16.984 99.9726 16.664C99.7006 16.328 99.2606 16.16 98.6526 16.16H97.7406V23H95.1006V6.2H99.0846C100.445 6.2 101.437 6.52 102.061 7.16C102.685 7.784 102.997 8.752 102.997 10.064V11.384C102.997 13.112 102.421 14.248 101.269 14.792C101.893 15.048 102.341 15.48 102.613 16.088C102.885 16.68 103.021 17.44 103.021 18.368V20.96C103.021 21.44 103.037 21.832 103.069 22.136C103.101 22.424 103.181 22.712 103.309 23H100.621ZM97.7406 13.76H98.7726C99.3006 13.76 99.6926 13.624 99.9486 13.352C100.221 13.08 100.357 12.624 100.357 11.984V10.328C100.357 9.72 100.245 9.28 100.021 9.008C99.8126 8.736 99.4766 8.6 99.0126 8.6H97.7406V13.76Z"/>
</mask>
<path d="M7.48 23L7.2914 23.0666L7.3385 23.2H7.48V23ZM7.288 22.232L7.48625 22.2056L7.48625 22.2056L7.288 22.232ZM6.832 16.664L6.67651 16.7899L6.67961 16.7935L6.832 16.664ZM4.6 16.16V15.96H4.4V16.16H4.6ZM4.6 23V23.2H4.8V23H4.6ZM1.96 23H1.76V23.2H1.96V23ZM1.96 6.2V6H1.76V6.2H1.96ZM8.92 7.16L8.77679 7.29963L8.77858 7.30142L8.92 7.16ZM8.128 14.792L8.0426 14.6112L7.6324 14.8049L8.05209 14.977L8.128 14.792ZM9.472 16.088L9.28943 16.1697L9.29026 16.1715L9.472 16.088ZM9.928 22.136L9.7291 22.1569L9.72922 22.1581L9.928 22.136ZM10.168 23V23.2H10.4758L10.3508 22.9188L10.168 23ZM4.6 13.76H4.4V13.96H4.6V13.76ZM6.808 13.352L6.66651 13.2105L6.66236 13.2149L6.808 13.352ZM6.88 9.008L6.72103 9.12957L6.72561 9.13514L6.88 9.008ZM4.6 8.6V8.4H4.4V8.6H4.6ZM7.48 23L7.6686 22.9334C7.57635 22.6721 7.51612 22.4296 7.48625 22.2056L7.288 22.232L7.08975 22.2584C7.12388 22.5144 7.19165 22.7839 7.2914 23.0666L7.48 23ZM7.288 22.232L7.48625 22.2056C7.45622 21.9804 7.44 21.5607 7.44 20.936H7.24H7.04C7.04 21.5593 7.05578 22.0036 7.08976 22.2584L7.288 22.232ZM7.24 20.936H7.44V18.296H7.24H7.04V20.936H7.24ZM7.24 18.296H7.44C7.44 17.5154 7.30395 16.9104 6.98439 16.5345L6.832 16.664L6.67961 16.7935C6.90405 17.0576 7.04 17.5406 7.04 18.296H7.24ZM6.832 16.664L6.98745 16.5382C6.6638 16.1384 6.15462 15.96 5.512 15.96V16.16V16.36C6.08538 16.36 6.4562 16.5176 6.67655 16.7898L6.832 16.664ZM5.512 16.16V15.96H4.6V16.16V16.36H5.512V16.16ZM4.6 16.16H4.4V23H4.6H4.8V16.16H4.6ZM4.6 23V22.8H1.96V23V23.2H4.6V23ZM1.96 23H2.16V6.2H1.96H1.76V23H1.96ZM1.96 6.2V6.4H5.944V6.2V6H1.96V6.2ZM5.944 6.2V6.4C7.27782 6.4 8.20618 6.71437 8.7768 7.29962L8.92 7.16L9.0632 7.02038C8.38582 6.32563 7.33018 6 5.944 6V6.2ZM8.92 7.16L8.77858 7.30142C9.35019 7.87303 9.656 8.77944 9.656 10.064H9.856H10.056C10.056 8.72456 9.73781 7.69497 9.06142 7.01858L8.92 7.16ZM9.856 10.064H9.656V11.384H9.856H10.056V10.064H9.856ZM9.856 11.384H9.656C9.656 13.067 9.09945 14.1121 8.0426 14.6112L8.128 14.792L8.2134 14.9728C9.46055 14.3839 10.056 13.157 10.056 11.384H9.856ZM8.128 14.792L8.05209 14.977C8.62926 15.2138 9.0387 15.6092 9.28944 16.1697L9.472 16.088L9.65456 16.0063C9.3613 15.3508 8.87474 14.8822 8.20391 14.607L8.128 14.792ZM9.472 16.088L9.29026 16.1715C9.54625 16.7286 9.68 17.4575 9.68 18.368H9.88H10.08C10.08 17.4225 9.94175 16.6314 9.65374 16.0045L9.472 16.088ZM9.88 18.368H9.68V20.96H9.88H10.08V18.368H9.88ZM9.88 20.96H9.68C9.68 21.4435 9.69608 21.8432 9.7291 22.1569L9.928 22.136L10.1269 22.1151C10.0959 21.8208 10.08 21.4365 10.08 20.96H9.88ZM9.928 22.136L9.72922 22.1581C9.76368 22.4682 9.84962 22.7761 9.98524 23.0812L10.168 23L10.3508 22.9188C10.2304 22.6479 10.1563 22.3798 10.1268 22.1139L9.928 22.136ZM10.168 23V22.8H7.48V23V23.2H10.168V23ZM4.6 13.76V13.96H5.632V13.76V13.56H4.6V13.76ZM5.632 13.76V13.96C6.19186 13.96 6.6464 13.8155 6.95364 13.4891L6.808 13.352L6.66236 13.2149C6.4576 13.4325 6.12814 13.56 5.632 13.56V13.76ZM6.808 13.352L6.94942 13.4934C7.27728 13.1656 7.416 12.6437 7.416 11.984H7.216H7.016C7.016 12.6043 6.88272 12.9944 6.66658 13.2106L6.808 13.352ZM7.216 11.984H7.416V10.328H7.216H7.016V11.984H7.216ZM7.216 10.328H7.416C7.416 9.70412 7.30272 9.2067 7.03439 8.88086L6.88 9.008L6.72561 9.13514C6.90528 9.3533 7.016 9.73588 7.016 10.328H7.216ZM6.88 9.008L7.03887 8.88651C6.78062 8.54879 6.37453 8.4 5.872 8.4V8.6V8.8C6.29747 8.8 6.56338 8.92321 6.72113 9.12949L6.88 9.008ZM5.872 8.6V8.4H4.6V8.6V8.8H5.872V8.6ZM4.6 8.6H4.4V13.76H4.6H4.8V8.6H4.6ZM17.8803 13.28H18.0803V13.08H17.8803V13.28ZM17.8803 15.68V15.88H18.0803V15.68H17.8803ZM14.2563 15.68V15.48H14.0563V15.68H14.2563ZM14.2563 20.6H14.0563V20.8H14.2563V20.6ZM18.8163 20.6H19.0163V20.4H18.8163V20.6ZM18.8163 23V23.2H19.0163V23H18.8163ZM11.6163 23H11.4163V23.2H11.6163V23ZM11.6163 6.2V6H11.4163V6.2H11.6163ZM18.8163 6.2H19.0163V6H18.8163V6.2ZM18.8163 8.6V8.8H19.0163V8.6H18.8163ZM14.2563 8.6V8.4H14.0563V8.6H14.2563ZM14.2563 13.28H14.0563V13.48H14.2563V13.28ZM17.8803 13.28H17.6803V15.68H17.8803H18.0803V13.28H17.8803ZM17.8803 15.68V15.48H14.2563V15.68V15.88H17.8803V15.68ZM14.2563 15.68H14.0563V20.6H14.2563H14.4563V15.68H14.2563ZM14.2563 20.6V20.8H18.8163V20.6V20.4H14.2563V20.6ZM18.8163 20.6H18.6163V23H18.8163H19.0163V20.6H18.8163ZM18.8163 23V22.8H11.6163V23V23.2H18.8163V23ZM11.6163 23H11.8163V6.2H11.6163H11.4163V23H11.6163ZM11.6163 6.2V6.4H18.8163V6.2V6H11.6163V6.2ZM18.8163 6.2H18.6163V8.6H18.8163H19.0163V6.2H18.8163ZM18.8163 8.6V8.4H14.2563V8.6V8.8H18.8163V8.6ZM14.2563 8.6H14.0563V13.28H14.2563H14.4563V8.6H14.2563ZM14.2563 13.28V13.48H17.8803V13.28V13.08H14.2563V13.28ZM27.1002 22.112L27.2464 22.2485L27.2479 22.2469L27.1002 22.112ZM21.2442 22.112L21.0965 22.2469L21.098 22.2485L21.2442 22.112ZM21.2442 7.112L21.3904 7.24847L21.3919 7.24685L21.2442 7.112ZM27.1002 7.112L26.9525 7.24686L26.954 7.24846L27.1002 7.112ZM28.1082 11.864V12.064H28.3082V11.864H28.1082ZM25.6122 11.864H25.4122V12.064H25.6122V11.864ZM25.6122 16.736V16.536H25.4122V16.736H25.6122ZM28.1082 16.736H28.3082V16.536H28.1082V16.736ZM28.1082 18.968H27.9082C27.9082 20.2965 27.5802 21.2896 26.9525 21.9771L27.1002 22.112L27.2479 22.2469C27.9642 21.4624 28.3082 20.3595 28.3082 18.968H28.1082ZM27.1002 22.112L26.954 21.9755C26.3303 22.6438 25.4143 22.992 24.1722 22.992V23.192V23.392C25.4901 23.392 26.5261 23.0202 27.2464 22.2485L27.1002 22.112ZM24.1722 23.192V22.992C22.9301 22.992 22.0141 22.6438 21.3904 21.9755L21.2442 22.112L21.098 22.2485C21.8183 23.0202 22.8543 23.392 24.1722 23.392V23.192ZM21.2442 22.112L21.3919 21.9771C20.7642 21.2896 20.4362 20.2965 20.4362 18.968H20.2362H20.0362C20.0362 20.3595 20.3802 21.4624 21.0965 22.2469L21.2442 22.112ZM20.2362 18.968H20.4362V10.232H20.2362H20.0362V18.968H20.2362ZM20.2362 10.232H20.4362C20.4362 8.90318 20.7643 7.9193 21.3904 7.24846L21.2442 7.112L21.098 6.97553C20.3801 7.7447 20.0362 8.84082 20.0362 10.232H20.2362ZM21.2442 7.112L21.3919 7.24685C22.0159 6.56342 22.9314 6.208 24.1722 6.208V6.008V5.808C22.853 5.808 21.8165 6.18858 21.0965 6.97714L21.2442 7.112ZM24.1722 6.008V6.208C25.413 6.208 26.3285 6.56342 26.9525 7.24685L27.1002 7.112L27.2479 6.97714C26.5279 6.18858 25.4914 5.808 24.1722 5.808V6.008ZM27.1002 7.112L26.954 7.24846C27.5801 7.9193 27.9082 8.90318 27.9082 10.232H28.1082H28.3082C28.3082 8.84082 27.9643 7.7447 27.2464 6.97553L27.1002 7.112ZM28.1082 10.232H27.9082V11.864H28.1082H28.3082V10.232H28.1082ZM28.1082 11.864V11.664H25.6122V11.864V12.064H28.1082V11.864ZM25.6122 11.864H25.8122V10.064H25.6122H25.4122V11.864H25.6122ZM25.6122 10.064H25.8122C25.8122 9.48948 25.6943 9.02139 25.4244 8.69462C25.1484 8.36054 24.7422 8.208 24.2442 8.208V8.408V8.608C24.6582 8.608 24.936 8.73146 25.116 8.94938C25.3021 9.17461 25.4122 9.53452 25.4122 10.064H25.6122ZM24.2442 8.408V8.208C23.7462 8.208 23.34 8.36054 23.064 8.69462C22.7941 9.02139 22.6762 9.48948 22.6762 10.064H22.8762H23.0762C23.0762 9.53452 23.1863 9.17461 23.3724 8.94938C23.5524 8.73146 23.8302 8.608 24.2442 8.608V8.408ZM22.8762 10.064H22.6762V19.136H22.8762H23.0762V10.064H22.8762ZM22.8762 19.136H22.6762C22.6762 19.7031 22.7943 20.1656 23.0649 20.4885C23.3412 20.8181 23.7472 20.968 24.2442 20.968V20.768V20.568C23.8292 20.568 23.5512 20.4459 23.3715 20.2315C23.1861 20.0104 23.0762 19.6569 23.0762 19.136H22.8762ZM24.2442 20.768V20.968C24.7412 20.968 25.1472 20.8181 25.4235 20.4885C25.6941 20.1656 25.8122 19.7031 25.8122 19.136H25.6122H25.4122C25.4122 19.6569 25.3023 20.0104 25.1169 20.2315C24.9372 20.4459 24.6592 20.568 24.2442 20.568V20.768ZM25.6122 19.136H25.8122V16.736H25.6122H25.4122V19.136H25.6122ZM25.6122 16.736V16.936H28.1082V16.736V16.536H25.6122V16.736ZM28.1082 16.736H27.9082V18.968H28.1082H28.3082V16.736H28.1082ZM37.102 6.2H37.302V6H37.102V6.2ZM37.102 8.6V8.8H37.302V8.6H37.102ZM34.342 8.6V8.4H34.142V8.6H34.342ZM34.342 23V23.2H34.542V23H34.342ZM31.702 23H31.502V23.2H31.702V23ZM31.702 8.6H31.902V8.4H31.702V8.6ZM28.942 8.6H28.742V8.8H28.942V8.6ZM28.942 6.2V6H28.742V6.2H28.942ZM37.102 6.2H36.902V8.6H37.102H37.302V6.2H37.102ZM37.102 8.6V8.4H34.342V8.6V8.8H37.102V8.6ZM34.342 8.6H34.142V23H34.342H34.542V8.6H34.342ZM34.342 23V22.8H31.702V23V23.2H34.342V23ZM31.702 23H31.902V8.6H31.702H31.502V23H31.702ZM31.702 8.6V8.4H28.942V8.6V8.8H31.702V8.6ZM28.942 8.6H29.142V6.2H28.942H28.742V8.6H28.942ZM28.942 6.2V6.4H37.102V6.2V6H28.942V6.2ZM44.1447 23L43.9469 23.0296L43.9724 23.2H44.1447V23ZM43.6887 19.952L43.8865 19.9224L43.861 19.752H43.6887V19.952ZM40.4487 19.952V19.752H40.2764L40.2509 19.9224L40.4487 19.952ZM39.9927 23V23.2H40.165L40.1905 23.0296L39.9927 23ZM37.5687 23L37.3712 22.9684L37.3341 23.2H37.5687V23ZM40.2567 6.2V6H40.0861L40.0592 6.1684L40.2567 6.2ZM44.1207 6.2L44.3182 6.1684L44.2912 6H44.1207V6.2ZM46.8087 23V23.2H47.0432L47.0062 22.9684L46.8087 23ZM43.3287 17.672V17.872H43.5609L43.5265 17.6424L43.3287 17.672ZM42.0567 9.176L42.2545 9.14639H41.8589L42.0567 9.176ZM40.7847 17.672L40.5869 17.6424L40.5525 17.872H40.7847V17.672ZM44.1447 23L44.3425 22.9704L43.8865 19.9224L43.6887 19.952L43.4909 19.9816L43.9469 23.0296L44.1447 23ZM43.6887 19.952V19.752H40.4487V19.952V20.152H43.6887V19.952ZM40.4487 19.952L40.2509 19.9224L39.7949 22.9704L39.9927 23L40.1905 23.0296L40.6465 19.9816L40.4487 19.952ZM39.9927 23V22.8H37.5687V23V23.2H39.9927V23ZM37.5687 23L37.7662 23.0316L40.4542 6.2316L40.2567 6.2L40.0592 6.1684L37.3712 22.9684L37.5687 23ZM40.2567 6.2V6.4H44.1207V6.2V6H40.2567V6.2ZM44.1207 6.2L43.9232 6.2316L46.6112 23.0316L46.8087 23L47.0062 22.9684L44.3182 6.1684L44.1207 6.2ZM46.8087 23V22.8H44.1447V23V23.2H46.8087V23ZM43.3287 17.672L43.5265 17.6424L42.2545 9.14639L42.0567 9.176L41.8589 9.20561L43.1309 17.7016L43.3287 17.672ZM42.0567 9.176L41.8589 9.14639L40.5869 17.6424L40.7847 17.672L40.9825 17.7016L42.2545 9.20561L42.0567 9.176ZM40.7847 17.672V17.872H43.3287V17.672V17.472H40.7847V17.672ZM50.3901 23V23.2H50.5901V23H50.3901ZM48.0141 23H47.8141V23.2H48.0141V23ZM48.0141 6.2V6H47.8141V6.2H48.0141ZM51.3261 6.2L51.5192 6.14792L51.4793 6H51.3261V6.2ZM54.0381 16.256L53.845 16.3081L54.2381 16.256H54.0381ZM54.0381 6.2V6H53.8381V6.2H54.0381ZM56.3901 6.2H56.5901V6H56.3901V6.2ZM56.3901 23V23.2H56.5901V23H56.3901ZM53.6781 23L53.485 23.0522L53.525 23.2H53.6781V23ZM50.3901 10.832L50.5832 10.7798L50.1901 10.832H50.3901ZM50.3901 23V22.8H48.0141V23V23.2H50.3901V23ZM48.0141 23H48.2141V6.2H48.0141H47.8141V23H48.0141ZM48.0141 6.2V6.4H51.3261V6.2V6H48.0141V6.2ZM51.3261 6.2L51.133 6.25208L53.845 16.3081L54.0381 16.256L54.2312 16.2039L51.5192 6.14792L51.3261 6.2ZM54.0381 16.256H54.2381V6.2H54.0381H53.8381V16.256H54.0381ZM54.0381 6.2V6.4H56.3901V6.2V6H54.0381V6.2ZM56.3901 6.2H56.1901V23H56.3901H56.5901V6.2H56.3901ZM56.3901 23V22.8H53.6781V23V23.2H56.3901V23ZM53.6781 23L53.8712 22.9478L50.5832 10.7798L50.3901 10.832L50.197 10.8842L53.485 23.0522L53.6781 23ZM50.3901 10.832H50.1901V23H50.3901H50.5901V10.832H50.3901ZM65.9363 13.64H66.1363V13.44H65.9363V13.64ZM64.9283 22.112L65.0745 22.2485L65.076 22.2469L64.9283 22.112ZM59.0723 22.112L58.9246 22.2469L58.9261 22.2485L59.0723 22.112ZM59.0723 7.112L59.2185 7.24847L59.22 7.24685L59.0723 7.112ZM64.9283 7.112L64.7806 7.24686L64.7821 7.24846L64.9283 7.112ZM65.9363 11.864V12.064H66.1363V11.864H65.9363ZM63.4403 11.864H63.2403V12.064H63.4403V11.864ZM63.4403 16.04H63.6403V15.84H63.4403V16.04ZM62.2403 16.04H62.0403V16.24H62.2403V16.04ZM62.2403 13.64V13.44H62.0403V13.64H62.2403ZM65.9363 13.64H65.7363V18.968H65.9363H66.1363V13.64H65.9363ZM65.9363 18.968H65.7363C65.7363 20.2965 65.4083 21.2896 64.7806 21.9771L64.9283 22.112L65.076 22.2469C65.7923 21.4624 66.1363 20.3595 66.1363 18.968H65.9363ZM64.9283 22.112L64.7821 21.9755C64.1584 22.6438 63.2424 22.992 62.0003 22.992V23.192V23.392C63.3182 23.392 64.3542 23.0202 65.0745 22.2485L64.9283 22.112ZM62.0003 23.192V22.992C60.7582 22.992 59.8422 22.6438 59.2185 21.9755L59.0723 22.112L58.9261 22.2485C59.6464 23.0202 60.6824 23.392 62.0003 23.392V23.192ZM59.0723 22.112L59.22 21.9771C58.5923 21.2896 58.2643 20.2965 58.2643 18.968H58.0643H57.8643C57.8643 20.3595 58.2083 21.4624 58.9246 22.2469L59.0723 22.112ZM58.0643 18.968H58.2643V10.232H58.0643H57.8643V18.968H58.0643ZM58.0643 10.232H58.2643C58.2643 8.90318 58.5924 7.9193 59.2185 7.24846L59.0723 7.112L58.9261 6.97553C58.2082 7.7447 57.8643 8.84082 57.8643 10.232H58.0643ZM59.0723 7.112L59.22 7.24685C59.844 6.56342 60.7595 6.208 62.0003 6.208V6.008V5.808C60.6811 5.808 59.6446 6.18858 58.9246 6.97714L59.0723 7.112ZM62.0003 6.008V6.208C63.2411 6.208 64.1566 6.56342 64.7806 7.24685L64.9283 7.112L65.076 6.97714C64.356 6.18858 63.3195 5.808 62.0003 5.808V6.008ZM64.9283 7.112L64.7821 7.24846C65.4082 7.9193 65.7363 8.90318 65.7363 10.232H65.9363H66.1363C66.1363 8.84082 65.7924 7.7447 65.0745 6.97553L64.9283 7.112ZM65.9363 10.232H65.7363V11.864H65.9363H66.1363V10.232H65.9363ZM65.9363 11.864V11.664H63.4403V11.864V12.064H65.9363V11.864ZM63.4403 11.864H63.6403V10.064H63.4403H63.2403V11.864H63.4403ZM63.4403 10.064H63.6403C63.6403 9.48948 63.5224 9.02139 63.2525 8.69462C62.9765 8.36054 62.5703 8.208 62.0723 8.208V8.408V8.608C62.4863 8.608 62.7641 8.73146 62.9441 8.94938C63.1302 9.17461 63.2403 9.53452 63.2403 10.064H63.4403ZM62.0723 8.408V8.208C61.5743 8.208 61.1681 8.36054 60.8921 8.69462C60.6222 9.02139 60.5043 9.48948 60.5043 10.064H60.7043H60.9043C60.9043 9.53452 61.0144 9.17461 61.2005 8.94938C61.3805 8.73146 61.6583 8.608 62.0723 8.608V8.408ZM60.7043 10.064H60.5043V19.136H60.7043H60.9043V10.064H60.7043ZM60.7043 19.136H60.5043C60.5043 19.7031 60.6224 20.1656 60.893 20.4885C61.1693 20.8181 61.5753 20.968 62.0723 20.968V20.768V20.568C61.6573 20.568 61.3793 20.4459 61.1996 20.2315C61.0142 20.0104 60.9043 19.6569 60.9043 19.136H60.7043ZM62.0723 20.768V20.968C62.5693 20.968 62.9753 20.8181 63.2516 20.4885C63.5222 20.1656 63.6403 19.7031 63.6403 19.136H63.4403H63.2403C63.2403 19.6569 63.1304 20.0104 62.945 20.2315C62.7653 20.4459 62.4873 20.568 62.0723 20.568V20.768ZM63.4403 19.136H63.6403V16.04H63.4403H63.2403V19.136H63.4403ZM63.4403 16.04V15.84H62.2403V16.04V16.24H63.4403V16.04ZM62.2403 16.04H62.4403V13.64H62.2403H62.0403V16.04H62.2403ZM62.2403 13.64V13.84H65.9363V13.64V13.44H62.2403V13.64ZM72.8879 6.2V6H72.6879V6.2H72.8879ZM75.3839 6.2H75.5839V6H75.3839V6.2ZM74.3759 22.136L74.5221 22.2725L74.5236 22.2709L74.3759 22.136ZM68.5199 22.136L68.3722 22.2709L68.3737 22.2725L68.5199 22.136ZM67.5119 6.2V6H67.3119V6.2H67.5119ZM70.1519 6.2H70.3519V6H70.1519V6.2ZM70.1519 19.16H69.9519C69.9519 19.7271 70.07 20.1896 70.3406 20.5125C70.6169 20.8421 71.0229 20.992 71.5199 20.992V20.792V20.592C71.1049 20.592 70.8269 20.4699 70.6471 20.2555C70.4618 20.0344 70.3519 19.6809 70.3519 19.16H70.1519ZM71.5199 20.792V20.992C72.0169 20.992 72.4229 20.8421 72.6991 20.5125C72.9698 20.1896 73.0879 19.7271 73.0879 19.16H72.8879H72.6879C72.6879 19.6809 72.578 20.0344 72.3926 20.2555C72.2129 20.4699 71.9349 20.592 71.5199 20.592V20.792ZM72.8879 19.16H73.0879V6.2H72.8879H72.6879V19.16H72.8879ZM72.8879 6.2V6.4H75.3839V6.2V6H72.8879V6.2ZM75.3839 6.2H75.1839V18.992H75.3839H75.5839V6.2H75.3839ZM75.3839 18.992H75.1839C75.1839 20.3205 74.8559 21.3136 74.2282 22.0011L74.3759 22.136L74.5236 22.2709C75.2398 21.4864 75.5839 20.3835 75.5839 18.992H75.3839ZM74.3759 22.136L74.2297 21.9995C73.606 22.6678 72.6899 23.016 71.4479 23.016V23.216V23.416C72.7658 23.416 73.8018 23.0442 74.5221 22.2725L74.3759 22.136ZM71.4479 23.216V23.016C70.2058 23.016 69.2898 22.6678 68.6661 21.9995L68.5199 22.136L68.3737 22.2725C69.094 23.0442 70.1299 23.416 71.4479 23.416V23.216ZM68.5199 22.136L68.6676 22.0011C68.0398 21.3136 67.7119 20.3205 67.7119 18.992H67.5119H67.3119C67.3119 20.3835 67.6559 21.4864 68.3722 22.2709L68.5199 22.136ZM67.5119 18.992H67.7119V6.2H67.5119H67.3119V18.992H67.5119ZM67.5119 6.2V6.4H70.1519V6.2V6H67.5119V6.2ZM70.1519 6.2H69.9519V19.16H70.1519H70.3519V6.2H70.1519ZM79.8344 6.2H80.0344V6H79.8344V6.2ZM79.8344 20.6H79.6344V20.8H79.8344V20.6ZM84.1784 20.6H84.3784V20.4H84.1784V20.6ZM84.1784 23V23.2H84.3784V23H84.1784ZM77.1944 23H76.9944V23.2H77.1944V23ZM77.1944 6.2V6H76.9944V6.2H77.1944ZM79.8344 6.2H79.6344V20.6H79.8344H80.0344V6.2H79.8344ZM79.8344 20.6V20.8H84.1784V20.6V20.4H79.8344V20.6ZM84.1784 20.6H83.9784V23H84.1784H84.3784V20.6H84.1784ZM84.1784 23V22.8H77.1944V23V23.2H84.1784V23ZM77.1944 23H77.3944V6.2H77.1944H76.9944V23H77.1944ZM77.1944 6.2V6.4H79.8344V6.2V6H77.1944V6.2ZM91.2072 23L91.0094 23.0296L91.0349 23.2H91.2072V23ZM90.7512 19.952L90.949 19.9224L90.9235 19.752H90.7512V19.952ZM87.5112 19.952V19.752H87.3389L87.3134 19.9224L87.5112 19.952ZM87.0552 23V23.2H87.2275L87.253 23.0296L87.0552 23ZM84.6312 23L84.4337 22.9684L84.3966 23.2H84.6312V23ZM87.3192 6.2V6H87.1486L87.1217 6.1684L87.3192 6.2ZM91.1832 6.2L91.3807 6.1684L91.3537 6H91.1832V6.2ZM93.8712 23V23.2H94.1057L94.0687 22.9684L93.8712 23ZM90.3912 17.672V17.872H90.6234L90.589 17.6424L90.3912 17.672ZM89.1192 9.176L89.317 9.14639H88.9214L89.1192 9.176ZM87.8472 17.672L87.6494 17.6424L87.615 17.872H87.8472V17.672ZM91.2072 23L91.405 22.9704L90.949 19.9224L90.7512 19.952L90.5534 19.9816L91.0094 23.0296L91.2072 23ZM90.7512 19.952V19.752H87.5112V19.952V20.152H90.7512V19.952ZM87.5112 19.952L87.3134 19.9224L86.8574 22.9704L87.0552 23L87.253 23.0296L87.709 19.9816L87.5112 19.952ZM87.0552 23V22.8H84.6312V23V23.2H87.0552V23ZM84.6312 23L84.8287 23.0316L87.5167 6.2316L87.3192 6.2L87.1217 6.1684L84.4337 22.9684L84.6312 23ZM87.3192 6.2V6.4H91.1832V6.2V6H87.3192V6.2ZM91.1832 6.2L90.9857 6.2316L93.6737 23.0316L93.8712 23L94.0687 22.9684L91.3807 6.1684L91.1832 6.2ZM93.8712 23V22.8H91.2072V23V23.2H93.8712V23ZM90.3912 17.672L90.589 17.6424L89.317 9.14639L89.1192 9.176L88.9214 9.20561L90.1934 17.7016L90.3912 17.672ZM89.1192 9.176L88.9214 9.14639L87.6494 17.6424L87.8472 17.672L88.045 17.7016L89.317 9.20561L89.1192 9.176ZM87.8472 17.672V17.872H90.3912V17.672V17.472H87.8472V17.672ZM100.621 23L100.432 23.0666L100.479 23.2H100.621V23ZM100.429 22.232L100.627 22.2056L100.627 22.2056L100.429 22.232ZM99.9726 16.664L99.8171 16.7899L99.8202 16.7935L99.9726 16.664ZM97.7406 16.16V15.96H97.5406V16.16H97.7406ZM97.7406 23V23.2H97.9406V23H97.7406ZM95.1006 23H94.9006V23.2H95.1006V23ZM95.1006 6.2V6H94.9006V6.2H95.1006ZM102.061 7.16L101.917 7.29963L101.919 7.30142L102.061 7.16ZM101.269 14.792L101.183 14.6112L100.773 14.8049L101.193 14.977L101.269 14.792ZM102.613 16.088L102.43 16.1697L102.431 16.1715L102.613 16.088ZM103.069 22.136L102.87 22.1569L102.87 22.1581L103.069 22.136ZM103.309 23V23.2H103.616L103.491 22.9188L103.309 23ZM97.7406 13.76H97.5406V13.96H97.7406V13.76ZM99.9486 13.352L99.8071 13.2105L99.803 13.2149L99.9486 13.352ZM100.021 9.008L99.8617 9.12957L99.8662 9.13514L100.021 9.008ZM97.7406 8.6V8.4H97.5406V8.6H97.7406ZM100.621 23L100.809 22.9334C100.717 22.6721 100.657 22.4296 100.627 22.2056L100.429 22.232L100.23 22.2584C100.265 22.5144 100.332 22.7839 100.432 23.0666L100.621 23ZM100.429 22.232L100.627 22.2056C100.597 21.9804 100.581 21.5607 100.581 20.936H100.381H100.181C100.181 21.5593 100.196 22.0036 100.23 22.2584L100.429 22.232ZM100.381 20.936H100.581V18.296H100.381H100.181V20.936H100.381ZM100.381 18.296H100.581C100.581 17.5154 100.445 16.9104 100.125 16.5345L99.9726 16.664L99.8202 16.7935C100.045 17.0576 100.181 17.5406 100.181 18.296H100.381ZM99.9726 16.664L100.128 16.5382C99.8044 16.1384 99.2952 15.96 98.6526 15.96V16.16V16.36C99.226 16.36 99.5968 16.5176 99.8172 16.7898L99.9726 16.664ZM98.6526 16.16V15.96H97.7406V16.16V16.36H98.6526V16.16ZM97.7406 16.16H97.5406V23H97.7406H97.9406V16.16H97.7406ZM97.7406 23V22.8H95.1006V23V23.2H97.7406V23ZM95.1006 23H95.3006V6.2H95.1006H94.9006V23H95.1006ZM95.1006 6.2V6.4H99.0846V6.2V6H95.1006V6.2ZM99.0846 6.2V6.4C100.418 6.4 101.347 6.71437 101.917 7.29962L102.061 7.16L102.204 7.02038C101.526 6.32563 100.471 6 99.0846 6V6.2ZM102.061 7.16L101.919 7.30142C102.491 7.87303 102.797 8.77944 102.797 10.064H102.997H103.197C103.197 8.72456 102.878 7.69497 102.202 7.01858L102.061 7.16ZM102.997 10.064H102.797V11.384H102.997H103.197V10.064H102.997ZM102.997 11.384H102.797C102.797 13.067 102.24 14.1121 101.183 14.6112L101.269 14.792L101.354 14.9728C102.601 14.3839 103.197 13.157 103.197 11.384H102.997ZM101.269 14.792L101.193 14.977C101.77 15.2138 102.179 15.6092 102.43 16.1697L102.613 16.088L102.795 16.0063C102.502 15.3508 102.015 14.8822 101.345 14.607L101.269 14.792ZM102.613 16.088L102.431 16.1715C102.687 16.7286 102.821 17.4575 102.821 18.368H103.021H103.221C103.221 17.4225 103.082 16.6314 102.794 16.0045L102.613 16.088ZM103.021 18.368H102.821V20.96H103.021H103.221V18.368H103.021ZM103.021 20.96H102.821C102.821 21.4435 102.837 21.8432 102.87 22.1569L103.069 22.136L103.268 22.1151C103.237 21.8208 103.221 21.4365 103.221 20.96H103.021ZM103.069 22.136L102.87 22.1581C102.904 22.4682 102.99 22.7761 103.126 23.0812L103.309 23L103.491 22.9188C103.371 22.6479 103.297 22.3798 103.267 22.1139L103.069 22.136ZM103.309 23V22.8H100.621V23V23.2H103.309V23ZM97.7406 13.76V13.96H98.7726V13.76V13.56H97.7406V13.76ZM98.7726 13.76V13.96C99.3325 13.96 99.787 13.8155 100.094 13.4891L99.9486 13.352L99.803 13.2149C99.5982 13.4325 99.2688 13.56 98.7726 13.56V13.76ZM99.9486 13.352L100.09 13.4934C100.418 13.1656 100.557 12.6437 100.557 11.984H100.357H100.157C100.157 12.6043 100.023 12.9944 99.8072 13.2106L99.9486 13.352ZM100.357 11.984H100.557V10.328H100.357H100.157V11.984H100.357ZM100.357 10.328H100.557C100.557 9.70412 100.443 9.2067 100.175 8.88086L100.021 9.008L99.8662 9.13514C100.046 9.3533 100.157 9.73588 100.157 10.328H100.357ZM100.021 9.008L100.179 8.88651C99.9212 8.54879 99.5152 8.4 99.0126 8.4V8.6V8.8C99.4381 8.8 99.704 8.92321 99.8618 9.12949L100.021 9.008ZM99.0126 8.6V8.4H97.7406V8.6V8.8H99.0126V8.6ZM97.7406 8.6H97.5406V13.76H97.7406H97.9406V8.6H97.7406Z" fill="#F36408" mask="url(#path-5-outside-2_309_4)"/>
<defs>
<linearGradient id="paint0_linear_309_4" x1="125.25" y1="34.5" x2="124.65" y2="45.9905" gradientUnits="userSpaceOnUse">
<stop stop-color="#ED772C"/>
<stop offset="1" stop-color="#FDBF38"/>
</linearGradient>
<linearGradient id="paint1_linear_309_4" x1="54.4722" y1="8.5" x2="53.9628" y2="19.9992" gradientUnits="userSpaceOnUse">
<stop stop-color="#ED772C"/>
<stop offset="1" stop-color="#FDBF38"/>
</linearGradient>
</defs>
</svg>
