<svg width="136" height="33" viewBox="0 0 136 33" fill="none" xmlns="http://www.w3.org/2000/svg">
<path d="M7.48 23C7.384 22.728 7.32 22.472 7.288 22.232C7.256 21.992 7.24 21.56 7.24 20.936V18.296C7.24 17.528 7.104 16.984 6.832 16.664C6.56 16.328 6.12 16.16 5.512 16.16H4.6V23H1.96V6.2H5.944C7.304 6.2 8.296 6.52 8.92 7.16C9.544 7.784 9.856 8.752 9.856 10.064V11.384C9.856 13.112 9.28 14.248 8.128 14.792C8.752 15.048 9.2 15.48 9.472 16.088C9.744 16.68 9.88 17.44 9.88 18.368V20.96C9.88 21.44 9.896 21.832 9.928 22.136C9.96 22.424 10.04 22.712 10.168 23H7.48ZM4.6 13.76H5.632C6.16 13.76 6.552 13.624 6.808 13.352C7.08 13.08 7.216 12.624 7.216 11.984V10.328C7.216 9.72 7.104 9.28 6.88 9.008C6.672 8.736 6.336 8.6 5.872 8.6H4.6V13.76ZM11.4003 10.232C11.4003 8.888 11.7443 7.848 12.4323 7.112C13.1203 6.376 14.1123 6.008 15.4083 6.008C16.7043 6.008 17.6963 6.376 18.3843 7.112C19.0723 7.848 19.4163 8.888 19.4163 10.232V18.968C19.4163 20.312 19.0723 21.352 18.3843 22.088C17.6963 22.824 16.7043 23.192 15.4083 23.192C14.1123 23.192 13.1203 22.824 12.4323 22.088C11.7443 21.352 11.4003 20.312 11.4003 18.968V10.232ZM14.0403 19.136C14.0403 20.24 14.4963 20.792 15.4083 20.792C16.3203 20.792 16.7763 20.24 16.7763 19.136V10.064C16.7763 8.96 16.3203 8.408 15.4083 8.408C14.4963 8.408 14.0403 8.96 14.0403 10.064V19.136ZM23.6519 19.16C23.6519 20.248 24.1079 20.792 25.0199 20.792C25.9319 20.792 26.3879 20.248 26.3879 19.16V6.2H28.8839V18.992C28.8839 20.352 28.5479 21.4 27.8759 22.136C27.2039 22.856 26.2279 23.216 24.9479 23.216C23.6679 23.216 22.6919 22.856 22.0199 22.136C21.3479 21.4 21.0119 20.352 21.0119 18.992V6.2H23.6519V19.16ZM33.0464 23H30.6704V6.2H33.9824L36.6944 16.256V6.2H39.0464V23H36.3344L33.0464 10.832V23ZM45.1126 6.2C46.4246 6.2 47.4086 6.552 48.0646 7.256C48.7206 7.96 49.0486 8.992 49.0486 10.352V18.848C49.0486 20.208 48.7206 21.24 48.0646 21.944C47.4086 22.648 46.4246 23 45.1126 23H40.9366V6.2H45.1126ZM43.5766 20.6H45.0646C45.4966 20.6 45.8246 20.472 46.0486 20.216C46.2886 19.96 46.4086 19.544 46.4086 18.968V10.232C46.4086 9.656 46.2886 9.24 46.0486 8.984C45.8246 8.728 45.4966 8.6 45.0646 8.6H43.5766V20.6ZM62.116 18.968C62.116 20.328 61.78 21.376 61.108 22.112C60.436 22.832 59.46 23.192 58.18 23.192C56.9 23.192 55.924 22.832 55.252 22.112C54.58 21.376 54.244 20.328 54.244 18.968V10.232C54.244 8.872 54.58 7.832 55.252 7.112C55.924 6.376 56.9 6.008 58.18 6.008C59.46 6.008 60.436 6.376 61.108 7.112C61.78 7.832 62.116 8.872 62.116 10.232V11.864H59.62V10.064C59.62 8.96 59.164 8.408 58.252 8.408C57.34 8.408 56.884 8.96 56.884 10.064V19.136C56.884 20.224 57.34 20.768 58.252 20.768C59.164 20.768 59.62 20.224 59.62 19.136V16.736H62.116V18.968ZM63.5018 10.232C63.5018 8.888 63.8458 7.848 64.5338 7.112C65.2218 6.376 66.2138 6.008 67.5098 6.008C68.8058 6.008 69.7978 6.376 70.4858 7.112C71.1738 7.848 71.5178 8.888 71.5178 10.232V18.968C71.5178 20.312 71.1738 21.352 70.4858 22.088C69.7978 22.824 68.8058 23.192 67.5098 23.192C66.2138 23.192 65.2218 22.824 64.5338 22.088C63.8458 21.352 63.5018 20.312 63.5018 18.968V10.232ZM66.1418 19.136C66.1418 20.24 66.5978 20.792 67.5098 20.792C68.4218 20.792 68.8778 20.24 68.8778 19.136V10.064C68.8778 8.96 68.4218 8.408 67.5098 8.408C66.5978 8.408 66.1418 8.96 66.1418 10.064V19.136ZM75.5854 23H73.2094V6.2H76.5214L79.2334 16.256V6.2H81.5854V23H78.8734L75.5854 10.832V23ZM90.8676 6.2V8.6H88.1076V23H85.4676V8.6H82.7076V6.2H90.8676ZM97.9103 23L97.4543 19.952H94.2143L93.7583 23H91.3343L94.0223 6.2H97.8863L100.574 23H97.9103ZM97.0943 17.672L95.8223 9.176L94.5503 17.672H97.0943ZM104.444 6.2V23H101.804V6.2H104.444ZM108.726 23H106.35V6.2H109.662L112.374 16.256V6.2H114.726V23H112.014L108.726 10.832V23ZM122.88 13.28V15.68H119.256V20.6H123.816V23H116.616V6.2H123.816V8.6H119.256V13.28H122.88ZM130.972 23C130.876 22.728 130.812 22.472 130.78 22.232C130.748 21.992 130.732 21.56 130.732 20.936V18.296C130.732 17.528 130.596 16.984 130.324 16.664C130.052 16.328 129.612 16.16 129.004 16.16H128.092V23H125.452V6.2H129.436C130.796 6.2 131.788 6.52 132.412 7.16C133.036 7.784 133.348 8.752 133.348 10.064V11.384C133.348 13.112 132.772 14.248 131.62 14.792C132.244 15.048 132.692 15.48 132.964 16.088C133.236 16.68 133.372 17.44 133.372 18.368V20.96C133.372 21.44 133.388 21.832 133.42 22.136C133.452 22.424 133.532 22.712 133.66 23H130.972ZM128.092 13.76H129.124C129.652 13.76 130.044 13.624 130.3 13.352C130.572 13.08 130.708 12.624 130.708 11.984V10.328C130.708 9.72 130.596 9.28 130.372 9.008C130.164 8.736 129.828 8.6 129.364 8.6H128.092V13.76Z" fill="url(#paint0_linear_310_28)"/>
<mask id="path-2-outside-1_310_28" maskUnits="userSpaceOnUse" x="0" y="5" width="133" height="19" fill="black">
<rect fill="white" y="5" width="133" height="19"/>
<path d="M6.48 23C6.384 22.728 6.32 22.472 6.288 22.232C6.256 21.992 6.24 21.56 6.24 20.936V18.296C6.24 17.528 6.104 16.984 5.832 16.664C5.56 16.328 5.12 16.16 4.512 16.16H3.6V23H0.96V6.2H4.944C6.304 6.2 7.296 6.52 7.92 7.16C8.544 7.784 8.856 8.752 8.856 10.064V11.384C8.856 13.112 8.28 14.248 7.128 14.792C7.752 15.048 8.2 15.48 8.472 16.088C8.744 16.68 8.88 17.44 8.88 18.368V20.96C8.88 21.44 8.896 21.832 8.928 22.136C8.96 22.424 9.04 22.712 9.168 23H6.48ZM3.6 13.76H4.632C5.16 13.76 5.552 13.624 5.808 13.352C6.08 13.08 6.216 12.624 6.216 11.984V10.328C6.216 9.72 6.104 9.28 5.88 9.008C5.672 8.736 5.336 8.6 4.872 8.6H3.6V13.76ZM10.4003 10.232C10.4003 8.888 10.7443 7.848 11.4323 7.112C12.1203 6.376 13.1123 6.008 14.4083 6.008C15.7043 6.008 16.6963 6.376 17.3843 7.112C18.0723 7.848 18.4163 8.888 18.4163 10.232V18.968C18.4163 20.312 18.0723 21.352 17.3843 22.088C16.6963 22.824 15.7043 23.192 14.4083 23.192C13.1123 23.192 12.1203 22.824 11.4323 22.088C10.7443 21.352 10.4003 20.312 10.4003 18.968V10.232ZM13.0403 19.136C13.0403 20.24 13.4963 20.792 14.4083 20.792C15.3203 20.792 15.7763 20.24 15.7763 19.136V10.064C15.7763 8.96 15.3203 8.408 14.4083 8.408C13.4963 8.408 13.0403 8.96 13.0403 10.064V19.136ZM22.6519 19.16C22.6519 20.248 23.1079 20.792 24.0199 20.792C24.9319 20.792 25.3879 20.248 25.3879 19.16V6.2H27.8839V18.992C27.8839 20.352 27.5479 21.4 26.8759 22.136C26.2039 22.856 25.2279 23.216 23.9479 23.216C22.6679 23.216 21.6919 22.856 21.0199 22.136C20.3479 21.4 20.0119 20.352 20.0119 18.992V6.2H22.6519V19.16ZM32.0464 23H29.6704V6.2H32.9824L35.6944 16.256V6.2H38.0464V23H35.3344L32.0464 10.832V23ZM44.1126 6.2C45.4246 6.2 46.4086 6.552 47.0646 7.256C47.7206 7.96 48.0486 8.992 48.0486 10.352V18.848C48.0486 20.208 47.7206 21.24 47.0646 21.944C46.4086 22.648 45.4246 23 44.1126 23H39.9366V6.2H44.1126ZM42.5766 20.6H44.0646C44.4966 20.6 44.8246 20.472 45.0486 20.216C45.2886 19.96 45.4086 19.544 45.4086 18.968V10.232C45.4086 9.656 45.2886 9.24 45.0486 8.984C44.8246 8.728 44.4966 8.6 44.0646 8.6H42.5766V20.6ZM61.116 18.968C61.116 20.328 60.78 21.376 60.108 22.112C59.436 22.832 58.46 23.192 57.18 23.192C55.9 23.192 54.924 22.832 54.252 22.112C53.58 21.376 53.244 20.328 53.244 18.968V10.232C53.244 8.872 53.58 7.832 54.252 7.112C54.924 6.376 55.9 6.008 57.18 6.008C58.46 6.008 59.436 6.376 60.108 7.112C60.78 7.832 61.116 8.872 61.116 10.232V11.864H58.62V10.064C58.62 8.96 58.164 8.408 57.252 8.408C56.34 8.408 55.884 8.96 55.884 10.064V19.136C55.884 20.224 56.34 20.768 57.252 20.768C58.164 20.768 58.62 20.224 58.62 19.136V16.736H61.116V18.968ZM62.5018 10.232C62.5018 8.888 62.8458 7.848 63.5338 7.112C64.2218 6.376 65.2138 6.008 66.5098 6.008C67.8058 6.008 68.7978 6.376 69.4858 7.112C70.1738 7.848 70.5178 8.888 70.5178 10.232V18.968C70.5178 20.312 70.1738 21.352 69.4858 22.088C68.7978 22.824 67.8058 23.192 66.5098 23.192C65.2138 23.192 64.2218 22.824 63.5338 22.088C62.8458 21.352 62.5018 20.312 62.5018 18.968V10.232ZM65.1418 19.136C65.1418 20.24 65.5978 20.792 66.5098 20.792C67.4218 20.792 67.8778 20.24 67.8778 19.136V10.064C67.8778 8.96 67.4218 8.408 66.5098 8.408C65.5978 8.408 65.1418 8.96 65.1418 10.064V19.136ZM74.5854 23H72.2094V6.2H75.5214L78.2334 16.256V6.2H80.5854V23H77.8734L74.5854 10.832V23ZM89.8676 6.2V8.6H87.1076V23H84.4676V8.6H81.7076V6.2H89.8676ZM96.9103 23L96.4543 19.952H93.2143L92.7583 23H90.3343L93.0223 6.2H96.8863L99.5743 23H96.9103ZM96.0943 17.672L94.8223 9.176L93.5503 17.672H96.0943ZM103.444 6.2V23H100.804V6.2H103.444ZM107.726 23H105.35V6.2H108.662L111.374 16.256V6.2H113.726V23H111.014L107.726 10.832V23ZM121.88 13.28V15.68H118.256V20.6H122.816V23H115.616V6.2H122.816V8.6H118.256V13.28H121.88ZM129.972 23C129.876 22.728 129.812 22.472 129.78 22.232C129.748 21.992 129.732 21.56 129.732 20.936V18.296C129.732 17.528 129.596 16.984 129.324 16.664C129.052 16.328 128.612 16.16 128.004 16.16H127.092V23H124.452V6.2H128.436C129.796 6.2 130.788 6.52 131.412 7.16C132.036 7.784 132.348 8.752 132.348 10.064V11.384C132.348 13.112 131.772 14.248 130.62 14.792C131.244 15.048 131.692 15.48 131.964 16.088C132.236 16.68 132.372 17.44 132.372 18.368V20.96C132.372 21.44 132.388 21.832 132.42 22.136C132.452 22.424 132.532 22.712 132.66 23H129.972ZM127.092 13.76H128.124C128.652 13.76 129.044 13.624 129.3 13.352C129.572 13.08 129.708 12.624 129.708 11.984V10.328C129.708 9.72 129.596 9.28 129.372 9.008C129.164 8.736 128.828 8.6 128.364 8.6H127.092V13.76Z"/>
</mask>
<path d="M6.48 23L6.2914 23.0666L6.3385 23.2H6.48V23ZM6.288 22.232L6.48625 22.2056L6.48625 22.2056L6.288 22.232ZM5.832 16.664L5.67651 16.7899L5.67961 16.7935L5.832 16.664ZM3.6 16.16V15.96H3.4V16.16H3.6ZM3.6 23V23.2H3.8V23H3.6ZM0.96 23H0.76V23.2H0.96V23ZM0.96 6.2V6H0.76V6.2H0.96ZM7.92 7.16L7.77679 7.29963L7.77858 7.30142L7.92 7.16ZM7.128 14.792L7.0426 14.6112L6.6324 14.8049L7.05209 14.977L7.128 14.792ZM8.472 16.088L8.28943 16.1697L8.29026 16.1715L8.472 16.088ZM8.928 22.136L8.7291 22.1569L8.72922 22.1581L8.928 22.136ZM9.168 23V23.2H9.47575L9.35076 22.9188L9.168 23ZM3.6 13.76H3.4V13.96H3.6V13.76ZM5.808 13.352L5.66651 13.2105L5.66236 13.2149L5.808 13.352ZM5.88 9.008L5.72103 9.12957L5.72561 9.13514L5.88 9.008ZM3.6 8.6V8.4H3.4V8.6H3.6ZM6.48 23L6.6686 22.9334C6.57635 22.6721 6.51612 22.4296 6.48625 22.2056L6.288 22.232L6.08975 22.2584C6.12388 22.5144 6.19165 22.7839 6.2914 23.0666L6.48 23ZM6.288 22.232L6.48625 22.2056C6.45622 21.9804 6.44 21.5607 6.44 20.936H6.24H6.04C6.04 21.5593 6.05578 22.0036 6.08976 22.2584L6.288 22.232ZM6.24 20.936H6.44V18.296H6.24H6.04V20.936H6.24ZM6.24 18.296H6.44C6.44 17.5154 6.30395 16.9104 5.98439 16.5345L5.832 16.664L5.67961 16.7935C5.90405 17.0576 6.04 17.5406 6.04 18.296H6.24ZM5.832 16.664L5.98745 16.5382C5.6638 16.1384 5.15462 15.96 4.512 15.96V16.16V16.36C5.08538 16.36 5.4562 16.5176 5.67655 16.7898L5.832 16.664ZM4.512 16.16V15.96H3.6V16.16V16.36H4.512V16.16ZM3.6 16.16H3.4V23H3.6H3.8V16.16H3.6ZM3.6 23V22.8H0.96V23V23.2H3.6V23ZM0.96 23H1.16V6.2H0.96H0.76V23H0.96ZM0.96 6.2V6.4H4.944V6.2V6H0.96V6.2ZM4.944 6.2V6.4C6.27782 6.4 7.20618 6.71437 7.7768 7.29962L7.92 7.16L8.0632 7.02038C7.38582 6.32563 6.33018 6 4.944 6V6.2ZM7.92 7.16L7.77858 7.30142C8.35019 7.87303 8.656 8.77944 8.656 10.064H8.856H9.056C9.056 8.72456 8.73781 7.69497 8.06142 7.01858L7.92 7.16ZM8.856 10.064H8.656V11.384H8.856H9.056V10.064H8.856ZM8.856 11.384H8.656C8.656 13.067 8.09945 14.1121 7.0426 14.6112L7.128 14.792L7.2134 14.9728C8.46055 14.3839 9.056 13.157 9.056 11.384H8.856ZM7.128 14.792L7.05209 14.977C7.62926 15.2138 8.0387 15.6092 8.28944 16.1697L8.472 16.088L8.65456 16.0063C8.3613 15.3508 7.87474 14.8822 7.20391 14.607L7.128 14.792ZM8.472 16.088L8.29026 16.1715C8.54625 16.7286 8.68 17.4575 8.68 18.368H8.88H9.08C9.08 17.4225 8.94175 16.6314 8.65374 16.0045L8.472 16.088ZM8.88 18.368H8.68V20.96H8.88H9.08V18.368H8.88ZM8.88 20.96H8.68C8.68 21.4435 8.69608 21.8432 8.7291 22.1569L8.928 22.136L9.1269 22.1151C9.09592 21.8208 9.08 21.4365 9.08 20.96H8.88ZM8.928 22.136L8.72922 22.1581C8.76368 22.4682 8.84962 22.7761 8.98524 23.0812L9.168 23L9.35076 22.9188C9.23038 22.6479 9.15632 22.3798 9.12678 22.1139L8.928 22.136ZM9.168 23V22.8H6.48V23V23.2H9.168V23ZM3.6 13.76V13.96H4.632V13.76V13.56H3.6V13.76ZM4.632 13.76V13.96C5.19186 13.96 5.6464 13.8155 5.95364 13.4891L5.808 13.352L5.66236 13.2149C5.4576 13.4325 5.12814 13.56 4.632 13.56V13.76ZM5.808 13.352L5.94942 13.4934C6.27728 13.1656 6.416 12.6437 6.416 11.984H6.216H6.016C6.016 12.6043 5.88272 12.9944 5.66658 13.2106L5.808 13.352ZM6.216 11.984H6.416V10.328H6.216H6.016V11.984H6.216ZM6.216 10.328H6.416C6.416 9.70412 6.30272 9.2067 6.03439 8.88086L5.88 9.008L5.72561 9.13514C5.90528 9.3533 6.016 9.73588 6.016 10.328H6.216ZM5.88 9.008L6.03887 8.88651C5.78062 8.54879 5.37453 8.4 4.872 8.4V8.6V8.8C5.29747 8.8 5.56338 8.92321 5.72113 9.12949L5.88 9.008ZM4.872 8.6V8.4H3.6V8.6V8.8H4.872V8.6ZM3.6 8.6H3.4V13.76H3.6H3.8V8.6H3.6ZM11.4323 7.112L11.2861 6.97542L11.2861 6.97542L11.4323 7.112ZM17.3843 7.112L17.5304 6.97542L17.5304 6.97542L17.3843 7.112ZM17.3843 22.088L17.5304 22.2246L17.5304 22.2246L17.3843 22.088ZM11.4323 22.088L11.2861 22.2246L11.2861 22.2246L11.4323 22.088ZM10.4003 10.232H10.6003C10.6003 8.92139 10.9352 7.93657 11.5784 7.24858L11.4323 7.112L11.2861 6.97542C10.5533 7.75943 10.2003 8.85461 10.2003 10.232H10.4003ZM11.4323 7.112L11.5784 7.24858C12.2184 6.56384 13.1509 6.208 14.4083 6.208V6.008V5.808C13.0736 5.808 12.0221 6.18816 11.2861 6.97542L11.4323 7.112ZM14.4083 6.008V6.208C15.6656 6.208 16.5981 6.56384 17.2381 7.24858L17.3843 7.112L17.5304 6.97542C16.7944 6.18816 15.7429 5.808 14.4083 5.808V6.008ZM17.3843 7.112L17.2381 7.24858C17.8813 7.93657 18.2163 8.92139 18.2163 10.232H18.4163H18.6163C18.6163 8.85461 18.2632 7.75943 17.5304 6.97542L17.3843 7.112ZM18.4163 10.232H18.2163V18.968H18.4163H18.6163V10.232H18.4163ZM18.4163 18.968H18.2163C18.2163 20.2786 17.8813 21.2634 17.2381 21.9514L17.3843 22.088L17.5304 22.2246C18.2632 21.4406 18.6163 20.3454 18.6163 18.968H18.4163ZM17.3843 22.088L17.2381 21.9514C16.5981 22.6362 15.6656 22.992 14.4083 22.992V23.192V23.392C15.7429 23.392 16.7944 23.0118 17.5304 22.2246L17.3843 22.088ZM14.4083 23.192V22.992C13.1509 22.992 12.2184 22.6362 11.5784 21.9514L11.4323 22.088L11.2861 22.2246C12.0221 23.0118 13.0736 23.392 14.4083 23.392V23.192ZM11.4323 22.088L11.5784 21.9514C10.9352 21.2634 10.6003 20.2786 10.6003 18.968H10.4003H10.2003C10.2003 20.3454 10.5533 21.4406 11.2861 22.2246L11.4323 22.088ZM10.4003 18.968H10.6003V10.232H10.4003H10.2003V18.968H10.4003ZM13.0403 19.136H12.8403C12.8403 19.7105 12.9581 20.1786 13.2281 20.5054C13.504 20.8395 13.9103 20.992 14.4083 20.992V20.792V20.592C13.9942 20.592 13.7165 20.4685 13.5364 20.2506C13.3504 20.0254 13.2403 19.6655 13.2403 19.136H13.0403ZM14.4083 20.792V20.992C14.9062 20.992 15.3125 20.8395 15.5884 20.5054C15.8584 20.1786 15.9763 19.7105 15.9763 19.136H15.7763H15.5763C15.5763 19.6655 15.4661 20.0254 15.2801 20.2506C15.1 20.4685 14.8223 20.592 14.4083 20.592V20.792ZM15.7763 19.136H15.9763V10.064H15.7763H15.5763V19.136H15.7763ZM15.7763 10.064H15.9763C15.9763 9.48948 15.8584 9.02139 15.5884 8.69462C15.3125 8.36054 14.9062 8.208 14.4083 8.208V8.408V8.608C14.8223 8.608 15.1 8.73146 15.2801 8.94938C15.4661 9.17461 15.5763 9.53452 15.5763 10.064H15.7763ZM14.4083 8.408V8.208C13.9103 8.208 13.504 8.36054 13.2281 8.69462C12.9581 9.02139 12.8403 9.48948 12.8403 10.064H13.0403H13.2403C13.2403 9.53452 13.3504 9.17461 13.5364 8.94938C13.7165 8.73146 13.9942 8.608 14.4083 8.608V8.408ZM13.0403 10.064H12.8403V19.136H13.0403H13.2403V10.064H13.0403ZM25.3879 6.2V6H25.1879V6.2H25.3879ZM27.8839 6.2H28.0839V6H27.8839V6.2ZM26.8759 22.136L27.0221 22.2725L27.0236 22.2709L26.8759 22.136ZM21.0199 22.136L20.8722 22.2709L20.8737 22.2725L21.0199 22.136ZM20.0119 6.2V6H19.8119V6.2H20.0119ZM22.6519 6.2H22.8519V6H22.6519V6.2ZM22.6519 19.16H22.4519C22.4519 19.7271 22.57 20.1896 22.8406 20.5125C23.1169 20.8421 23.5229 20.992 24.0199 20.992V20.792V20.592C23.6049 20.592 23.3269 20.4699 23.1471 20.2555C22.9618 20.0344 22.8519 19.6809 22.8519 19.16H22.6519ZM24.0199 20.792V20.992C24.5169 20.992 24.9229 20.8421 25.1991 20.5125C25.4698 20.1896 25.5879 19.7271 25.5879 19.16H25.3879H25.1879C25.1879 19.6809 25.078 20.0344 24.8926 20.2555C24.7129 20.4699 24.4349 20.592 24.0199 20.592V20.792ZM25.3879 19.16H25.5879V6.2H25.3879H25.1879V19.16H25.3879ZM25.3879 6.2V6.4H27.8839V6.2V6H25.3879V6.2ZM27.8839 6.2H27.6839V18.992H27.8839H28.0839V6.2H27.8839ZM27.8839 18.992H27.6839C27.6839 20.3205 27.3559 21.3136 26.7282 22.0011L26.8759 22.136L27.0236 22.2709C27.7398 21.4864 28.0839 20.3835 28.0839 18.992H27.8839ZM26.8759 22.136L26.7297 21.9995C26.106 22.6678 25.1899 23.016 23.9479 23.016V23.216V23.416C25.2658 23.416 26.3018 23.0442 27.0221 22.2725L26.8759 22.136ZM23.9479 23.216V23.016C22.7058 23.016 21.7898 22.6678 21.1661 21.9995L21.0199 22.136L20.8737 22.2725C21.594 23.0442 22.6299 23.416 23.9479 23.416V23.216ZM21.0199 22.136L21.1676 22.0011C20.5398 21.3136 20.2119 20.3205 20.2119 18.992H20.0119H19.8119C19.8119 20.3835 20.1559 21.4864 20.8722 22.2709L21.0199 22.136ZM20.0119 18.992H20.2119V6.2H20.0119H19.8119V18.992H20.0119ZM20.0119 6.2V6.4H22.6519V6.2V6H20.0119V6.2ZM22.6519 6.2H22.4519V19.16H22.6519H22.8519V6.2H22.6519ZM32.0464 23V23.2H32.2464V23H32.0464ZM29.6704 23H29.4704V23.2H29.6704V23ZM29.6704 6.2V6H29.4704V6.2H29.6704ZM32.9824 6.2L33.1755 6.14792L33.1356 6H32.9824V6.2ZM35.6944 16.256L35.5013 16.3081L35.8944 16.256H35.6944ZM35.6944 6.2V6H35.4944V6.2H35.6944ZM38.0464 6.2H38.2464V6H38.0464V6.2ZM38.0464 23V23.2H38.2464V23H38.0464ZM35.3344 23L35.1413 23.0522L35.1812 23.2H35.3344V23ZM32.0464 10.832L32.2395 10.7798L31.8464 10.832H32.0464ZM32.0464 23V22.8H29.6704V23V23.2H32.0464V23ZM29.6704 23H29.8704V6.2H29.6704H29.4704V23H29.6704ZM29.6704 6.2V6.4H32.9824V6.2V6H29.6704V6.2ZM32.9824 6.2L32.7893 6.25208L35.5013 16.3081L35.6944 16.256L35.8875 16.2039L33.1755 6.14792L32.9824 6.2ZM35.6944 16.256H35.8944V6.2H35.6944H35.4944V16.256H35.6944ZM35.6944 6.2V6.4H38.0464V6.2V6H35.6944V6.2ZM38.0464 6.2H37.8464V23H38.0464H38.2464V6.2H38.0464ZM38.0464 23V22.8H35.3344V23V23.2H38.0464V23ZM35.3344 23L35.5275 22.9478L32.2395 10.7798L32.0464 10.832L31.8533 10.8842L35.1413 23.0522L35.3344 23ZM32.0464 10.832H31.8464V23H32.0464H32.2464V10.832H32.0464ZM47.0646 7.256L46.9182 7.39234L46.9182 7.39234L47.0646 7.256ZM39.9366 23H39.7366V23.2H39.9366V23ZM39.9366 6.2V6H39.7366V6.2H39.9366ZM42.5766 20.6H42.3766V20.8H42.5766V20.6ZM45.0486 20.216L44.9026 20.0791L44.898 20.0843L45.0486 20.216ZM45.0486 8.984L44.898 9.11578L44.9027 9.12079L45.0486 8.984ZM42.5766 8.6V8.4H42.3766V8.6H42.5766ZM44.1126 6.2V6.4C45.39 6.4 46.3123 6.74205 46.9182 7.39234L47.0646 7.256L47.2109 7.11965C46.5048 6.36194 45.4592 6 44.1126 6V6.2ZM47.0646 7.256L46.9182 7.39234C47.5277 8.04642 47.8486 9.02167 47.8486 10.352H48.0486H48.2486C48.2486 8.96233 47.9134 7.87357 47.2109 7.11965L47.0646 7.256ZM48.0486 10.352H47.8486V18.848H48.0486H48.2486V10.352H48.0486ZM48.0486 18.848H47.8486C47.8486 20.1783 47.5277 21.1536 46.9182 21.8077L47.0646 21.944L47.2109 22.0803C47.9134 21.3264 48.2486 20.2377 48.2486 18.848H48.0486ZM47.0646 21.944L46.9182 21.8077C46.3123 22.4579 45.39 22.8 44.1126 22.8V23V23.2C45.4592 23.2 46.5048 22.8381 47.2109 22.0803L47.0646 21.944ZM44.1126 23V22.8H39.9366V23V23.2H44.1126V23ZM39.9366 23H40.1366V6.2H39.9366H39.7366V23H39.9366ZM39.9366 6.2V6.4H44.1126V6.2V6H39.9366V6.2ZM42.5766 20.6V20.8H44.0646V20.6V20.4H42.5766V20.6ZM44.0646 20.6V20.8C44.5375 20.8 44.9273 20.6583 45.1991 20.3477L45.0486 20.216L44.898 20.0843C44.7218 20.2857 44.4556 20.4 44.0646 20.4V20.6ZM45.0486 20.216L45.1945 20.3528C45.4857 20.0421 45.6086 19.5641 45.6086 18.968H45.4086H45.2086C45.2086 19.5239 45.0914 19.8779 44.9027 20.0792L45.0486 20.216ZM45.4086 18.968H45.6086V10.232H45.4086H45.2086V18.968H45.4086ZM45.4086 10.232H45.6086C45.6086 9.63592 45.4857 9.15786 45.1945 8.84721L45.0486 8.984L44.9027 9.12079C45.0914 9.32214 45.2086 9.67608 45.2086 10.232H45.4086ZM45.0486 8.984L45.1991 8.8523C44.9273 8.54172 44.5375 8.4 44.0646 8.4V8.6V8.8C44.4556 8.8 44.7218 8.91427 44.898 9.1157L45.0486 8.984ZM44.0646 8.6V8.4H42.5766V8.6V8.8H44.0646V8.6ZM42.5766 8.6H42.3766V20.6H42.5766H42.7766V8.6H42.5766ZM60.108 22.112L60.2542 22.2485L60.2557 22.2469L60.108 22.112ZM54.252 22.112L54.1043 22.2469L54.1058 22.2485L54.252 22.112ZM54.252 7.112L54.3982 7.24847L54.3997 7.24685L54.252 7.112ZM60.108 7.112L59.9603 7.24686L59.9618 7.24846L60.108 7.112ZM61.116 11.864V12.064H61.316V11.864H61.116ZM58.62 11.864H58.42V12.064H58.62V11.864ZM58.62 16.736V16.536H58.42V16.736H58.62ZM61.116 16.736H61.316V16.536H61.116V16.736ZM61.116 18.968H60.916C60.916 20.2965 60.588 21.2896 59.9603 21.9771L60.108 22.112L60.2557 22.2469C60.972 21.4624 61.316 20.3595 61.316 18.968H61.116ZM60.108 22.112L59.9618 21.9755C59.3381 22.6438 58.4221 22.992 57.18 22.992V23.192V23.392C58.4979 23.392 59.5339 23.0202 60.2542 22.2485L60.108 22.112ZM57.18 23.192V22.992C55.9379 22.992 55.0219 22.6438 54.3982 21.9755L54.252 22.112L54.1058 22.2485C54.8261 23.0202 55.8621 23.392 57.18 23.392V23.192ZM54.252 22.112L54.3997 21.9771C53.772 21.2896 53.444 20.2965 53.444 18.968H53.244H53.044C53.044 20.3595 53.388 21.4624 54.1043 22.2469L54.252 22.112ZM53.244 18.968H53.444V10.232H53.244H53.044V18.968H53.244ZM53.244 10.232H53.444C53.444 8.90318 53.7721 7.9193 54.3982 7.24846L54.252 7.112L54.1058 6.97553C53.3879 7.7447 53.044 8.84082 53.044 10.232H53.244ZM54.252 7.112L54.3997 7.24685C55.0237 6.56342 55.9392 6.208 57.18 6.208V6.008V5.808C55.8608 5.808 54.8243 6.18858 54.1043 6.97714L54.252 7.112ZM57.18 6.008V6.208C58.4208 6.208 59.3363 6.56342 59.9603 7.24685L60.108 7.112L60.2557 6.97714C59.5357 6.18858 58.4992 5.808 57.18 5.808V6.008ZM60.108 7.112L59.9618 7.24846C60.5879 7.9193 60.916 8.90318 60.916 10.232H61.116H61.316C61.316 8.84082 60.9721 7.7447 60.2542 6.97553L60.108 7.112ZM61.116 10.232H60.916V11.864H61.116H61.316V10.232H61.116ZM61.116 11.864V11.664H58.62V11.864V12.064H61.116V11.864ZM58.62 11.864H58.82V10.064H58.62H58.42V11.864H58.62ZM58.62 10.064H58.82C58.82 9.48948 58.7021 9.02139 58.4322 8.69462C58.1562 8.36054 57.75 8.208 57.252 8.208V8.408V8.608C57.666 8.608 57.9438 8.73146 58.1238 8.94938C58.3099 9.17461 58.42 9.53452 58.42 10.064H58.62ZM57.252 8.408V8.208C56.754 8.208 56.3478 8.36054 56.0718 8.69462C55.8019 9.02139 55.684 9.48948 55.684 10.064H55.884H56.084C56.084 9.53452 56.1941 9.17461 56.3802 8.94938C56.5602 8.73146 56.838 8.608 57.252 8.608V8.408ZM55.884 10.064H55.684V19.136H55.884H56.084V10.064H55.884ZM55.884 19.136H55.684C55.684 19.7031 55.8021 20.1656 56.0727 20.4885C56.349 20.8181 56.755 20.968 57.252 20.968V20.768V20.568C56.837 20.568 56.559 20.4459 56.3793 20.2315C56.1939 20.0104 56.084 19.6569 56.084 19.136H55.884ZM57.252 20.768V20.968C57.749 20.968 58.155 20.8181 58.4313 20.4885C58.7019 20.1656 58.82 19.7031 58.82 19.136H58.62H58.42C58.42 19.6569 58.3101 20.0104 58.1247 20.2315C57.945 20.4459 57.667 20.568 57.252 20.568V20.768ZM58.62 19.136H58.82V16.736H58.62H58.42V19.136H58.62ZM58.62 16.736V16.936H61.116V16.736V16.536H58.62V16.736ZM61.116 16.736H60.916V18.968H61.116H61.316V16.736H61.116ZM63.5338 7.112L63.3877 6.97542L63.3877 6.97542L63.5338 7.112ZM69.4858 7.112L69.6319 6.97542L69.6319 6.97542L69.4858 7.112ZM69.4858 22.088L69.6319 22.2246L69.6319 22.2246L69.4858 22.088ZM63.5338 22.088L63.3877 22.2246L63.3877 22.2246L63.5338 22.088ZM62.5018 10.232H62.7018C62.7018 8.92139 63.0368 7.93657 63.6799 7.24858L63.5338 7.112L63.3877 6.97542C62.6548 7.75943 62.3018 8.85461 62.3018 10.232H62.5018ZM63.5338 7.112L63.6799 7.24858C64.32 6.56384 65.2524 6.208 66.5098 6.208V6.008V5.808C65.1752 5.808 64.1236 6.18816 63.3877 6.97542L63.5338 7.112ZM66.5098 6.008V6.208C67.7672 6.208 68.6996 6.56384 69.3397 7.24858L69.4858 7.112L69.6319 6.97542C68.896 6.18816 67.8444 5.808 66.5098 5.808V6.008ZM69.4858 7.112L69.3397 7.24858C69.9828 7.93657 70.3178 8.92139 70.3178 10.232H70.5178H70.7178C70.7178 8.85461 70.3648 7.75943 69.6319 6.97542L69.4858 7.112ZM70.5178 10.232H70.3178V18.968H70.5178H70.7178V10.232H70.5178ZM70.5178 18.968H70.3178C70.3178 20.2786 69.9828 21.2634 69.3397 21.9514L69.4858 22.088L69.6319 22.2246C70.3648 21.4406 70.7178 20.3454 70.7178 18.968H70.5178ZM69.4858 22.088L69.3397 21.9514C68.6996 22.6362 67.7672 22.992 66.5098 22.992V23.192V23.392C67.8444 23.392 68.896 23.0118 69.6319 22.2246L69.4858 22.088ZM66.5098 23.192V22.992C65.2524 22.992 64.32 22.6362 63.6799 21.9514L63.5338 22.088L63.3877 22.2246C64.1236 23.0118 65.1752 23.392 66.5098 23.392V23.192ZM63.5338 22.088L63.6799 21.9514C63.0368 21.2634 62.7018 20.2786 62.7018 18.968H62.5018H62.3018C62.3018 20.3454 62.6548 21.4406 63.3877 22.2246L63.5338 22.088ZM62.5018 18.968H62.7018V10.232H62.5018H62.3018V18.968H62.5018ZM65.1418 19.136H64.9418C64.9418 19.7105 65.0597 20.1786 65.3296 20.5054C65.6056 20.8395 66.0118 20.992 66.5098 20.992V20.792V20.592C66.0958 20.592 65.818 20.4685 65.638 20.2506C65.4519 20.0254 65.3418 19.6655 65.3418 19.136H65.1418ZM66.5098 20.792V20.992C67.0078 20.992 67.414 20.8395 67.69 20.5054C67.9599 20.1786 68.0778 19.7105 68.0778 19.136H67.8778H67.6778C67.6778 19.6655 67.5677 20.0254 67.3816 20.2506C67.2016 20.4685 66.9238 20.592 66.5098 20.592V20.792ZM67.8778 19.136H68.0778V10.064H67.8778H67.6778V19.136H67.8778ZM67.8778 10.064H68.0778C68.0778 9.48948 67.9599 9.02139 67.69 8.69462C67.414 8.36054 67.0078 8.208 66.5098 8.208V8.408V8.608C66.9238 8.608 67.2016 8.73146 67.3816 8.94938C67.5677 9.17461 67.6778 9.53452 67.6778 10.064H67.8778ZM66.5098 8.408V8.208C66.0118 8.208 65.6056 8.36054 65.3296 8.69462C65.0597 9.02139 64.9418 9.48948 64.9418 10.064H65.1418H65.3418C65.3418 9.53452 65.4519 9.17461 65.638 8.94938C65.818 8.73146 66.0958 8.608 66.5098 8.608V8.408ZM65.1418 10.064H64.9418V19.136H65.1418H65.3418V10.064H65.1418ZM74.5854 23V23.2H74.7854V23H74.5854ZM72.2094 23H72.0094V23.2H72.2094V23ZM72.2094 6.2V6H72.0094V6.2H72.2094ZM75.5214 6.2L75.7145 6.14792L75.6746 6H75.5214V6.2ZM78.2334 16.256L78.0403 16.3081L78.4334 16.256H78.2334ZM78.2334 6.2V6H78.0334V6.2H78.2334ZM80.5854 6.2H80.7854V6H80.5854V6.2ZM80.5854 23V23.2H80.7854V23H80.5854ZM77.8734 23L77.6804 23.0522L77.7203 23.2H77.8734V23ZM74.5854 10.832L74.7785 10.7798L74.3854 10.832H74.5854ZM74.5854 23V22.8H72.2094V23V23.2H74.5854V23ZM72.2094 23H72.4094V6.2H72.2094H72.0094V23H72.2094ZM72.2094 6.2V6.4H75.5214V6.2V6H72.2094V6.2ZM75.5214 6.2L75.3283 6.25208L78.0403 16.3081L78.2334 16.256L78.4265 16.2039L75.7145 6.14792L75.5214 6.2ZM78.2334 16.256H78.4334V6.2H78.2334H78.0334V16.256H78.2334ZM78.2334 6.2V6.4H80.5854V6.2V6H78.2334V6.2ZM80.5854 6.2H80.3854V23H80.5854H80.7854V6.2H80.5854ZM80.5854 23V22.8H77.8734V23V23.2H80.5854V23ZM77.8734 23L78.0665 22.9478L74.7785 10.7798L74.5854 10.832L74.3924 10.8842L77.6804 23.0522L77.8734 23ZM74.5854 10.832H74.3854V23H74.5854H74.7854V10.832H74.5854ZM89.8676 6.2H90.0676V6H89.8676V6.2ZM89.8676 8.6V8.8H90.0676V8.6H89.8676ZM87.1076 8.6V8.4H86.9076V8.6H87.1076ZM87.1076 23V23.2H87.3076V23H87.1076ZM84.4676 23H84.2676V23.2H84.4676V23ZM84.4676 8.6H84.6676V8.4H84.4676V8.6ZM81.7076 8.6H81.5076V8.8H81.7076V8.6ZM81.7076 6.2V6H81.5076V6.2H81.7076ZM89.8676 6.2H89.6676V8.6H89.8676H90.0676V6.2H89.8676ZM89.8676 8.6V8.4H87.1076V8.6V8.8H89.8676V8.6ZM87.1076 8.6H86.9076V23H87.1076H87.3076V8.6H87.1076ZM87.1076 23V22.8H84.4676V23V23.2H87.1076V23ZM84.4676 23H84.6676V8.6H84.4676H84.2676V23H84.4676ZM84.4676 8.6V8.4H81.7076V8.6V8.8H84.4676V8.6ZM81.7076 8.6H81.9076V6.2H81.7076H81.5076V8.6H81.7076ZM81.7076 6.2V6.4H89.8676V6.2V6H81.7076V6.2ZM96.9103 23L96.7125 23.0296L96.738 23.2H96.9103V23ZM96.4543 19.952L96.6521 19.9224L96.6266 19.752H96.4543V19.952ZM93.2143 19.952V19.752H93.042L93.0165 19.9224L93.2143 19.952ZM92.7583 23V23.2H92.9306L92.9561 23.0296L92.7583 23ZM90.3343 23L90.1368 22.9684L90.0998 23.2H90.3343V23ZM93.0223 6.2V6H92.8518L92.8248 6.1684L93.0223 6.2ZM96.8863 6.2L97.0838 6.1684L97.0569 6H96.8863V6.2ZM99.5743 23V23.2H99.8089L99.7718 22.9684L99.5743 23ZM96.0943 17.672V17.872H96.3265L96.2921 17.6424L96.0943 17.672ZM94.8223 9.176L95.0201 9.14639H94.6245L94.8223 9.176ZM93.5503 17.672L93.3525 17.6424L93.3181 17.872H93.5503V17.672ZM96.9103 23L97.1081 22.9704L96.6521 19.9224L96.4543 19.952L96.2565 19.9816L96.7125 23.0296L96.9103 23ZM96.4543 19.952V19.752H93.2143V19.952V20.152H96.4543V19.952ZM93.2143 19.952L93.0165 19.9224L92.5605 22.9704L92.7583 23L92.9561 23.0296L93.4121 19.9816L93.2143 19.952ZM92.7583 23V22.8H90.3343V23V23.2H92.7583V23ZM90.3343 23L90.5318 23.0316L93.2198 6.2316L93.0223 6.2L92.8248 6.1684L90.1368 22.9684L90.3343 23ZM93.0223 6.2V6.4H96.8863V6.2V6H93.0223V6.2ZM96.8863 6.2L96.6888 6.2316L99.3768 23.0316L99.5743 23L99.7718 22.9684L97.0838 6.1684L96.8863 6.2ZM99.5743 23V22.8H96.9103V23V23.2H99.5743V23ZM96.0943 17.672L96.2921 17.6424L95.0201 9.14639L94.8223 9.176L94.6245 9.20561L95.8965 17.7016L96.0943 17.672ZM94.8223 9.176L94.6245 9.14639L93.3525 17.6424L93.5503 17.672L93.7481 17.7016L95.0201 9.20561L94.8223 9.176ZM93.5503 17.672V17.872H96.0943V17.672V17.472H93.5503V17.672ZM103.444 6.2H103.644V6H103.444V6.2ZM103.444 23V23.2H103.644V23H103.444ZM100.804 23H100.604V23.2H100.804V23ZM100.804 6.2V6H100.604V6.2H100.804ZM103.444 6.2H103.244V23H103.444H103.644V6.2H103.444ZM103.444 23V22.8H100.804V23V23.2H103.444V23ZM100.804 23H101.004V6.2H100.804H100.604V23H100.804ZM100.804 6.2V6.4H103.444V6.2V6H100.804V6.2ZM107.726 23V23.2H107.926V23H107.726ZM105.35 23H105.15V23.2H105.35V23ZM105.35 6.2V6H105.15V6.2H105.35ZM108.662 6.2L108.855 6.14792L108.815 6H108.662V6.2ZM111.374 16.256L111.181 16.3081L111.574 16.256H111.374ZM111.374 6.2V6H111.174V6.2H111.374ZM113.726 6.2H113.926V6H113.726V6.2ZM113.726 23V23.2H113.926V23H113.726ZM111.014 23L110.821 23.0522L110.861 23.2H111.014V23ZM107.726 10.832L107.919 10.7798L107.526 10.832H107.726ZM107.726 23V22.8H105.35V23V23.2H107.726V23ZM105.35 23H105.55V6.2H105.35H105.15V23H105.35ZM105.35 6.2V6.4H108.662V6.2V6H105.35V6.2ZM108.662 6.2L108.469 6.25208L111.181 16.3081L111.374 16.256L111.567 16.2039L108.855 6.14792L108.662 6.2ZM111.374 16.256H111.574V6.2H111.374H111.174V16.256H111.374ZM111.374 6.2V6.4H113.726V6.2V6H111.374V6.2ZM113.726 6.2H113.526V23H113.726H113.926V6.2H113.726ZM113.726 23V22.8H111.014V23V23.2H113.726V23ZM111.014 23L111.207 22.9478L107.919 10.7798L107.726 10.832L107.533 10.8842L110.821 23.0522L111.014 23ZM107.726 10.832H107.526V23H107.726H107.926V10.832H107.726ZM121.88 13.28H122.08V13.08H121.88V13.28ZM121.88 15.68V15.88H122.08V15.68H121.88ZM118.256 15.68V15.48H118.056V15.68H118.256ZM118.256 20.6H118.056V20.8H118.256V20.6ZM122.816 20.6H123.016V20.4H122.816V20.6ZM122.816 23V23.2H123.016V23H122.816ZM115.616 23H115.416V23.2H115.616V23ZM115.616 6.2V6H115.416V6.2H115.616ZM122.816 6.2H123.016V6H122.816V6.2ZM122.816 8.6V8.8H123.016V8.6H122.816ZM118.256 8.6V8.4H118.056V8.6H118.256ZM118.256 13.28H118.056V13.48H118.256V13.28ZM121.88 13.28H121.68V15.68H121.88H122.08V13.28H121.88ZM121.88 15.68V15.48H118.256V15.68V15.88H121.88V15.68ZM118.256 15.68H118.056V20.6H118.256H118.456V15.68H118.256ZM118.256 20.6V20.8H122.816V20.6V20.4H118.256V20.6ZM122.816 20.6H122.616V23H122.816H123.016V20.6H122.816ZM122.816 23V22.8H115.616V23V23.2H122.816V23ZM115.616 23H115.816V6.2H115.616H115.416V23H115.616ZM115.616 6.2V6.4H122.816V6.2V6H115.616V6.2ZM122.816 6.2H122.616V8.6H122.816H123.016V6.2H122.816ZM122.816 8.6V8.4H118.256V8.6V8.8H122.816V8.6ZM118.256 8.6H118.056V13.28H118.256H118.456V8.6H118.256ZM118.256 13.28V13.48H121.88V13.28V13.08H118.256V13.28ZM129.972 23L129.784 23.0666L129.831 23.2H129.972V23ZM129.78 22.232L129.978 22.2056L129.978 22.2056L129.78 22.232ZM129.324 16.664L129.169 16.7899L129.172 16.7935L129.324 16.664ZM127.092 16.16V15.96H126.892V16.16H127.092ZM127.092 23V23.2H127.292V23H127.092ZM124.452 23H124.252V23.2H124.452V23ZM124.452 6.2V6H124.252V6.2H124.452ZM131.412 7.16L131.269 7.29963L131.271 7.30142L131.412 7.16ZM130.62 14.792L130.535 14.6112L130.125 14.8049L130.544 14.977L130.62 14.792ZM131.964 16.088L131.782 16.1697L131.782 16.1715L131.964 16.088ZM132.42 22.136L132.221 22.1569L132.221 22.1581L132.42 22.136ZM132.66 23V23.2H132.968L132.843 22.9188L132.66 23ZM127.092 13.76H126.892V13.96H127.092V13.76ZM129.3 13.352L129.159 13.2105L129.155 13.2149L129.3 13.352ZM129.372 9.008L129.213 9.12957L129.218 9.13514L129.372 9.008ZM127.092 8.6V8.4H126.892V8.6H127.092ZM129.972 23L130.161 22.9334C130.069 22.6721 130.008 22.4296 129.978 22.2056L129.78 22.232L129.582 22.2584C129.616 22.5144 129.684 22.7839 129.784 23.0666L129.972 23ZM129.78 22.232L129.978 22.2056C129.948 21.9804 129.932 21.5607 129.932 20.936H129.732H129.532C129.532 21.5593 129.548 22.0036 129.582 22.2584L129.78 22.232ZM129.732 20.936H129.932V18.296H129.732H129.532V20.936H129.732ZM129.732 18.296H129.932C129.932 17.5154 129.796 16.9104 129.477 16.5345L129.324 16.664L129.172 16.7935C129.396 17.0576 129.532 17.5406 129.532 18.296H129.732ZM129.324 16.664L129.48 16.5382C129.156 16.1384 128.647 15.96 128.004 15.96V16.16V16.36C128.578 16.36 128.948 16.5176 129.169 16.7898L129.324 16.664ZM128.004 16.16V15.96H127.092V16.16V16.36H128.004V16.16ZM127.092 16.16H126.892V23H127.092H127.292V16.16H127.092ZM127.092 23V22.8H124.452V23V23.2H127.092V23ZM124.452 23H124.652V6.2H124.452H124.252V23H124.452ZM124.452 6.2V6.4H128.436V6.2V6H124.452V6.2ZM128.436 6.2V6.4C129.77 6.4 130.698 6.71437 131.269 7.29962L131.412 7.16L131.555 7.02038C130.878 6.32563 129.822 6 128.436 6V6.2ZM131.412 7.16L131.271 7.30142C131.842 7.87303 132.148 8.77944 132.148 10.064H132.348H132.548C132.548 8.72456 132.23 7.69497 131.554 7.01858L131.412 7.16ZM132.348 10.064H132.148V11.384H132.348H132.548V10.064H132.348ZM132.348 11.384H132.148C132.148 13.067 131.592 14.1121 130.535 14.6112L130.62 14.792L130.706 14.9728C131.953 14.3839 132.548 13.157 132.548 11.384H132.348ZM130.62 14.792L130.544 14.977C131.121 15.2138 131.531 15.6092 131.782 16.1697L131.964 16.088L132.147 16.0063C131.853 15.3508 131.367 14.8822 130.696 14.607L130.62 14.792ZM131.964 16.088L131.782 16.1715C132.038 16.7286 132.172 17.4575 132.172 18.368H132.372H132.572C132.572 17.4225 132.434 16.6314 132.146 16.0045L131.964 16.088ZM132.372 18.368H132.172V20.96H132.372H132.572V18.368H132.372ZM132.372 20.96H132.172C132.172 21.4435 132.188 21.8432 132.221 22.1569L132.42 22.136L132.619 22.1151C132.588 21.8208 132.572 21.4365 132.572 20.96H132.372ZM132.42 22.136L132.221 22.1581C132.256 22.4682 132.342 22.7761 132.477 23.0812L132.66 23L132.843 22.9188C132.723 22.6479 132.649 22.3798 132.619 22.1139L132.42 22.136ZM132.66 23V22.8H129.972V23V23.2H132.66V23ZM127.092 13.76V13.96H128.124V13.76V13.56H127.092V13.76ZM128.124 13.76V13.96C128.684 13.96 129.139 13.8155 129.446 13.4891L129.3 13.352L129.155 13.2149C128.95 13.4325 128.62 13.56 128.124 13.56V13.76ZM129.3 13.352L129.442 13.4934C129.769 13.1656 129.908 12.6437 129.908 11.984H129.708H129.508C129.508 12.6043 129.375 12.9944 129.159 13.2106L129.3 13.352ZM129.708 11.984H129.908V10.328H129.708H129.508V11.984H129.708ZM129.708 10.328H129.908C129.908 9.70412 129.795 9.2067 129.527 8.88086L129.372 9.008L129.218 9.13514C129.397 9.3533 129.508 9.73588 129.508 10.328H129.708ZM129.372 9.008L129.531 8.88651C129.273 8.54879 128.867 8.4 128.364 8.4V8.6V8.8C128.79 8.8 129.056 8.92321 129.213 9.12949L129.372 9.008ZM128.364 8.6V8.4H127.092V8.6V8.8H128.364V8.6ZM127.092 8.6H126.892V13.76H127.092H127.292V8.6H127.092Z" fill="#F36408" mask="url(#path-2-outside-1_310_28)"/>
<defs>
<linearGradient id="paint0_linear_310_28" x1="70.375" y1="8.5" x2="69.9747" y2="20.0078" gradientUnits="userSpaceOnUse">
<stop stop-color="#ED772C"/>
<stop offset="1" stop-color="#FDBF38"/>
</linearGradient>
</defs>
</svg>
