<svg width="90" height="33" viewBox="0 0 90 33" fill="none" xmlns="http://www.w3.org/2000/svg">
<path d="M0.624 10.232C0.624 8.872 0.952 7.832 1.608 7.112C2.264 6.376 3.232 6.008 4.512 6.008C5.792 6.008 6.76 6.376 7.416 7.112C8.072 7.832 8.4 8.872 8.4 10.232V10.76H5.904V10.064C5.904 9.488 5.792 9.072 5.568 8.816C5.344 8.544 5.016 8.408 4.584 8.408C4.152 8.408 3.824 8.544 3.6 8.816C3.376 9.072 3.264 9.488 3.264 10.064C3.264 10.768 3.448 11.384 3.816 11.912C4.2 12.44 4.768 13.04 5.52 13.712C6.144 14.288 6.648 14.8 7.032 15.248C7.416 15.68 7.744 16.208 8.016 16.832C8.288 17.456 8.424 18.168 8.424 18.968C8.424 20.328 8.088 21.376 7.416 22.112C6.744 22.832 5.768 23.192 4.488 23.192C3.208 23.192 2.232 22.832 1.56 22.112C0.888 21.376 0.552 20.328 0.552 18.968V17.936H3.048V19.136C3.048 20.224 3.504 20.768 4.416 20.768C5.328 20.768 5.784 20.224 5.784 19.136C5.784 18.432 5.592 17.816 5.208 17.288C4.84 16.76 4.28 16.16 3.528 15.488C2.904 14.912 2.4 14.408 2.016 13.976C1.632 13.528 1.304 12.992 1.032 12.368C0.76 11.744 0.624 11.032 0.624 10.232ZM14.8326 23H11.2086L9.33656 6.2H11.9046L13.3206 19.448L14.5926 6.2H17.1366L18.4566 19.544L19.8246 6.2H22.1286L20.2566 23H16.7526L15.7926 14.048L14.8326 23ZM29.724 13.28V15.68H26.1V20.6H30.66V23H23.46V6.2H30.66V8.6H26.1V13.28H29.724ZM38.5599 13.28V15.68H34.9359V20.6H39.4959V23H32.2959V6.2H39.4959V8.6H34.9359V13.28H38.5599ZM48.5239 6.2V8.6H45.7639V23H43.1239V8.6H40.3639V6.2H48.5239ZM57.3971 6.2C58.7571 6.2 59.7491 6.52 60.3731 7.16C60.9971 7.784 61.3091 8.752 61.3091 10.064V10.664C61.3091 11.528 61.1651 12.24 60.8771 12.8C60.6051 13.36 60.1811 13.776 59.6051 14.048C60.9171 14.56 61.5731 15.76 61.5731 17.648V19.016C61.5731 20.312 61.2291 21.304 60.5411 21.992C59.8691 22.664 58.8771 23 57.5651 23H53.4131V6.2H57.3971ZM56.0531 13.04H57.0851C57.6131 13.04 58.0051 12.904 58.2611 12.632C58.5331 12.36 58.6691 11.904 58.6691 11.264V10.328C58.6691 9.72 58.5571 9.28 58.3331 9.008C58.1251 8.736 57.7891 8.6 57.3251 8.6H56.0531V13.04ZM56.0531 20.6H57.5651C58.0291 20.6 58.3731 20.48 58.5971 20.24C58.8211 19.984 58.9331 19.552 58.9331 18.944V17.48C58.9331 16.712 58.7971 16.184 58.5251 15.896C58.2691 15.592 57.8371 15.44 57.2291 15.44H56.0531V20.6ZM62.9471 10.232C62.9471 8.888 63.2911 7.848 63.9791 7.112C64.6671 6.376 65.6591 6.008 66.9551 6.008C68.2511 6.008 69.2431 6.376 69.9311 7.112C70.6191 7.848 70.9631 8.888 70.9631 10.232V18.968C70.9631 20.312 70.6191 21.352 69.9311 22.088C69.2431 22.824 68.2511 23.192 66.9551 23.192C65.6591 23.192 64.6671 22.824 63.9791 22.088C63.2911 21.352 62.9471 20.312 62.9471 18.968V10.232ZM65.5871 19.136C65.5871 20.24 66.0431 20.792 66.9551 20.792C67.8671 20.792 68.3231 20.24 68.3231 19.136V10.064C68.3231 8.96 67.8671 8.408 66.9551 8.408C66.0431 8.408 65.5871 8.96 65.5871 10.064V19.136ZM78.3752 14.36L81.3272 23H78.5432L76.3832 16.352L74.1992 23H71.7272L74.6792 14.36L71.9192 6.2H74.6552L76.6472 12.392L78.6872 6.2H81.1352L78.3752 14.36Z" fill="url(#paint0_linear_313_35)"/>
<mask id="path-2-outside-1_313_35" maskUnits="userSpaceOnUse" x="1" y="5" width="82" height="19" fill="black">
<rect fill="white" x="1" y="5" width="82" height="19"/>
<path d="M1.624 10.232C1.624 8.872 1.952 7.832 2.608 7.112C3.264 6.376 4.232 6.008 5.512 6.008C6.792 6.008 7.76 6.376 8.416 7.112C9.072 7.832 9.4 8.872 9.4 10.232V10.76H6.904V10.064C6.904 9.488 6.792 9.072 6.568 8.816C6.344 8.544 6.016 8.408 5.584 8.408C5.152 8.408 4.824 8.544 4.6 8.816C4.376 9.072 4.264 9.488 4.264 10.064C4.264 10.768 4.448 11.384 4.816 11.912C5.2 12.44 5.768 13.04 6.52 13.712C7.144 14.288 7.648 14.8 8.032 15.248C8.416 15.68 8.744 16.208 9.016 16.832C9.288 17.456 9.424 18.168 9.424 18.968C9.424 20.328 9.088 21.376 8.416 22.112C7.744 22.832 6.768 23.192 5.488 23.192C4.208 23.192 3.232 22.832 2.56 22.112C1.888 21.376 1.552 20.328 1.552 18.968V17.936H4.048V19.136C4.048 20.224 4.504 20.768 5.416 20.768C6.328 20.768 6.784 20.224 6.784 19.136C6.784 18.432 6.592 17.816 6.208 17.288C5.84 16.76 5.28 16.16 4.528 15.488C3.904 14.912 3.4 14.408 3.016 13.976C2.632 13.528 2.304 12.992 2.032 12.368C1.76 11.744 1.624 11.032 1.624 10.232ZM15.8326 23H12.2086L10.3366 6.2H12.9046L14.3206 19.448L15.5926 6.2H18.1366L19.4566 19.544L20.8246 6.2H23.1286L21.2566 23H17.7526L16.7926 14.048L15.8326 23ZM30.724 13.28V15.68H27.1V20.6H31.66V23H24.46V6.2H31.66V8.6H27.1V13.28H30.724ZM39.5599 13.28V15.68H35.9359V20.6H40.4959V23H33.2959V6.2H40.4959V8.6H35.9359V13.28H39.5599ZM49.5239 6.2V8.6H46.7639V23H44.1239V8.6H41.3639V6.2H49.5239ZM58.3971 6.2C59.7571 6.2 60.7491 6.52 61.3731 7.16C61.9971 7.784 62.3091 8.752 62.3091 10.064V10.664C62.3091 11.528 62.1651 12.24 61.8771 12.8C61.6051 13.36 61.1811 13.776 60.6051 14.048C61.9171 14.56 62.5731 15.76 62.5731 17.648V19.016C62.5731 20.312 62.2291 21.304 61.5411 21.992C60.8691 22.664 59.8771 23 58.5651 23H54.4131V6.2H58.3971ZM57.0531 13.04H58.0851C58.6131 13.04 59.0051 12.904 59.2611 12.632C59.5331 12.36 59.6691 11.904 59.6691 11.264V10.328C59.6691 9.72 59.5571 9.28 59.3331 9.008C59.1251 8.736 58.7891 8.6 58.3251 8.6H57.0531V13.04ZM57.0531 20.6H58.5651C59.0291 20.6 59.3731 20.48 59.5971 20.24C59.8211 19.984 59.9331 19.552 59.9331 18.944V17.48C59.9331 16.712 59.7971 16.184 59.5251 15.896C59.2691 15.592 58.8371 15.44 58.2291 15.44H57.0531V20.6ZM63.9471 10.232C63.9471 8.888 64.2911 7.848 64.9791 7.112C65.6671 6.376 66.6591 6.008 67.9551 6.008C69.2511 6.008 70.2431 6.376 70.9311 7.112C71.6191 7.848 71.9631 8.888 71.9631 10.232V18.968C71.9631 20.312 71.6191 21.352 70.9311 22.088C70.2431 22.824 69.2511 23.192 67.9551 23.192C66.6591 23.192 65.6671 22.824 64.9791 22.088C64.2911 21.352 63.9471 20.312 63.9471 18.968V10.232ZM66.5871 19.136C66.5871 20.24 67.0431 20.792 67.9551 20.792C68.8671 20.792 69.3231 20.24 69.3231 19.136V10.064C69.3231 8.96 68.8671 8.408 67.9551 8.408C67.0431 8.408 66.5871 8.96 66.5871 10.064V19.136ZM79.3752 14.36L82.3272 23H79.5432L77.3832 16.352L75.1992 23H72.7272L75.6792 14.36L72.9192 6.2H75.6552L77.6472 12.392L79.6872 6.2H82.1352L79.3752 14.36Z"/>
</mask>
<path d="M2.608 7.112L2.75585 7.2467L2.7573 7.24507L2.608 7.112ZM8.416 7.112L8.26669 7.24508L8.26816 7.2467L8.416 7.112ZM9.4 10.76V10.96H9.6V10.76H9.4ZM6.904 10.76H6.704V10.96H6.904V10.76ZM6.568 8.816L6.41355 8.9432L6.41748 8.9477L6.568 8.816ZM4.6 8.816L4.75058 8.94776L4.75439 8.94314L4.6 8.816ZM4.816 11.912L4.65189 12.0264L4.65425 12.0296L4.816 11.912ZM6.52 13.712L6.65567 13.565L6.65327 13.5629L6.52 13.712ZM8.032 15.248L7.88012 15.3782L7.88252 15.3809L8.032 15.248ZM9.016 16.832L9.19934 16.7521L9.016 16.832ZM8.416 22.112L8.56222 22.2485L8.5637 22.2469L8.416 22.112ZM2.56 22.112L2.41229 22.2469L2.41379 22.2485L2.56 22.112ZM1.552 17.936V17.736H1.352V17.936H1.552ZM4.048 17.936H4.248V17.736H4.048V17.936ZM6.208 17.288L6.04389 17.4024L6.04625 17.4056L6.208 17.288ZM4.528 15.488L4.39233 15.635L4.39473 15.6371L4.528 15.488ZM3.016 13.976L2.86412 14.1062L2.86652 14.1089L3.016 13.976ZM1.624 10.232H1.824C1.824 8.90204 2.14469 7.91747 2.75584 7.2467L2.608 7.112L2.46016 6.9773C1.75931 7.74653 1.424 8.84195 1.424 10.232H1.624ZM2.608 7.112L2.7573 7.24507C3.36479 6.5635 4.27096 6.208 5.512 6.208V6.008V5.808C4.19304 5.808 3.16321 6.1885 2.4587 6.97892L2.608 7.112ZM5.512 6.008V6.208C6.75304 6.208 7.65921 6.5635 8.2667 7.24507L8.416 7.112L8.5653 6.97892C7.86079 6.1885 6.83096 5.808 5.512 5.808V6.008ZM8.416 7.112L8.26816 7.2467C8.87931 7.91747 9.2 8.90204 9.2 10.232H9.4H9.6C9.6 8.84195 9.26469 7.74653 8.56384 6.9773L8.416 7.112ZM9.4 10.232H9.2V10.76H9.4H9.6V10.232H9.4ZM9.4 10.76V10.56H6.904V10.76V10.96H9.4V10.76ZM6.904 10.76H7.104V10.064H6.904H6.704V10.76H6.904ZM6.904 10.064H7.104C7.104 9.4705 6.99016 8.99475 6.71852 8.6843L6.568 8.816L6.41748 8.9477C6.59384 9.14925 6.704 9.5055 6.704 10.064H6.904ZM6.568 8.816L6.72239 8.68886C6.45188 8.36038 6.06094 8.208 5.584 8.208V8.408V8.608C5.97107 8.608 6.23612 8.72761 6.41361 8.94314L6.568 8.816ZM5.584 8.408V8.208C5.10707 8.208 4.71612 8.36038 4.44561 8.68886L4.6 8.816L4.75439 8.94314C4.93188 8.72761 5.19693 8.608 5.584 8.608V8.408ZM4.6 8.816L4.44948 8.6843C4.17784 8.99475 4.064 9.4705 4.064 10.064H4.264H4.464C4.464 9.5055 4.57416 9.14925 4.75052 8.9477L4.6 8.816ZM4.264 10.064H4.064C4.064 10.8049 4.25834 11.4617 4.65192 12.0264L4.816 11.912L4.98008 11.7976C4.63766 11.3063 4.464 10.7311 4.464 10.064H4.264ZM4.816 11.912L4.65425 12.0296C5.04982 12.5735 5.62921 13.1842 6.38673 13.8611L6.52 13.712L6.65327 13.5629C5.90679 12.8958 5.35018 12.3065 4.97775 11.7944L4.816 11.912ZM6.52 13.712L6.38434 13.859C7.00487 14.4318 7.50288 14.938 7.88015 15.3782L8.032 15.248L8.18385 15.1178C7.79312 14.662 7.28313 14.1442 6.65566 13.565L6.52 13.712ZM8.032 15.248L7.88252 15.3809C8.25028 15.7946 8.56763 16.3039 8.83266 16.9119L9.016 16.832L9.19934 16.7521C8.92037 16.1121 8.58172 15.5654 8.18148 15.1151L8.032 15.248ZM9.016 16.832L8.83266 16.9119C9.09192 17.5067 9.224 18.1907 9.224 18.968H9.424H9.624C9.624 18.1453 9.48408 17.4053 9.19934 16.7521L9.016 16.832ZM9.424 18.968H9.224C9.224 20.2965 8.89603 21.2896 8.2683 21.9771L8.416 22.112L8.5637 22.2469C9.27997 21.4624 9.624 20.3595 9.624 18.968H9.424ZM8.416 22.112L8.26979 21.9755C7.6461 22.6438 6.73007 22.992 5.488 22.992V23.192V23.392C6.80593 23.392 7.8419 23.0202 8.56221 22.2485L8.416 22.112ZM5.488 23.192V22.992C4.24593 22.992 3.3299 22.6438 2.70621 21.9755L2.56 22.112L2.41379 22.2485C3.1341 23.0202 4.17007 23.392 5.488 23.392V23.192ZM2.56 22.112L2.7077 21.9771C2.07997 21.2896 1.752 20.2965 1.752 18.968H1.552H1.352C1.352 20.3595 1.69603 21.4624 2.4123 22.2469L2.56 22.112ZM1.552 18.968H1.752V17.936H1.552H1.352V18.968H1.552ZM1.552 17.936V18.136H4.048V17.936V17.736H1.552V17.936ZM4.048 17.936H3.848V19.136H4.048H4.248V17.936H4.048ZM4.048 19.136H3.848C3.848 19.7031 3.9661 20.1656 4.23673 20.4885C4.51302 20.8181 4.919 20.968 5.416 20.968V20.768V20.568C5.001 20.568 4.72298 20.4459 4.54327 20.2315C4.3579 20.0104 4.248 19.6569 4.248 19.136H4.048ZM5.416 20.768V20.968C5.913 20.968 6.31898 20.8181 6.59527 20.4885C6.8659 20.1656 6.984 19.7031 6.984 19.136H6.784H6.584C6.584 19.6569 6.4741 20.0104 6.28873 20.2315C6.10902 20.4459 5.831 20.568 5.416 20.568V20.768ZM6.784 19.136H6.984C6.984 18.3932 6.78059 17.7353 6.36975 17.1704L6.208 17.288L6.04625 17.4056C6.40341 17.8967 6.584 18.4708 6.584 19.136H6.784ZM6.208 17.288L6.37208 17.1736C5.99167 16.6278 5.41911 16.0161 4.66127 15.3389L4.528 15.488L4.39473 15.6371C5.14089 16.3039 5.68833 16.8922 6.04392 17.4024L6.208 17.288ZM4.528 15.488L4.66366 15.341C4.04248 14.7676 3.5436 14.2685 3.16548 13.8431L3.016 13.976L2.86652 14.1089C3.2564 14.5475 3.76552 15.0564 4.39234 15.635L4.528 15.488ZM3.016 13.976L3.16785 13.8458C2.79859 13.415 2.48059 12.8966 2.21534 12.2881L2.032 12.368L1.84866 12.4479C2.12741 13.0874 2.46541 13.641 2.86415 14.1062L3.016 13.976ZM2.032 12.368L2.21534 12.2881C1.95608 11.6933 1.824 11.0093 1.824 10.232H1.624H1.424C1.424 11.0547 1.56392 11.7947 1.84866 12.4479L2.032 12.368ZM15.8326 23V23.2H16.0123L16.0314 23.0213L15.8326 23ZM12.2086 23L12.0098 23.0221L12.0296 23.2H12.2086V23ZM10.3366 6.2V6H10.113L10.1378 6.22215L10.3366 6.2ZM12.9046 6.2L13.1034 6.17874L13.0843 6H12.9046V6.2ZM14.3206 19.448L14.1217 19.4693L14.5196 19.4671L14.3206 19.448ZM15.5926 6.2V6H15.4108L15.3935 6.18088L15.5926 6.2ZM18.1366 6.2L18.3356 6.18031L18.3178 6H18.1366V6.2ZM19.4566 19.544L19.2575 19.5637L19.6555 19.5644L19.4566 19.544ZM20.8246 6.2V6H20.644L20.6256 6.1796L20.8246 6.2ZM23.1286 6.2L23.3273 6.22215L23.3521 6H23.1286V6.2ZM21.2566 23V23.2H21.4355L21.4553 23.0221L21.2566 23ZM17.7526 23L17.5537 23.0213L17.5729 23.2H17.7526V23ZM16.7926 14.048L16.9914 14.0267H16.5937L16.7926 14.048ZM15.8326 23V22.8H12.2086V23V23.2H15.8326V23ZM12.2086 23L12.4073 22.9779L10.5353 6.17785L10.3366 6.2L10.1378 6.22215L12.0098 23.0221L12.2086 23ZM10.3366 6.2V6.4H12.9046V6.2V6H10.3366V6.2ZM12.9046 6.2L12.7057 6.22125L14.1217 19.4693L14.3206 19.448L14.5194 19.4267L13.1034 6.17874L12.9046 6.2ZM14.3206 19.448L14.5196 19.4671L15.7916 6.21911L15.5926 6.2L15.3935 6.18088L14.1215 19.4289L14.3206 19.448ZM15.5926 6.2V6.4H18.1366V6.2V6H15.5926V6.2ZM18.1366 6.2L17.9375 6.21969L19.2575 19.5637L19.4566 19.544L19.6556 19.5243L18.3356 6.18031L18.1366 6.2ZM19.4566 19.544L19.6555 19.5644L21.0235 6.2204L20.8246 6.2L20.6256 6.1796L19.2576 19.5236L19.4566 19.544ZM20.8246 6.2V6.4H23.1286V6.2V6H20.8246V6.2ZM23.1286 6.2L22.9298 6.17785L21.0578 22.9779L21.2566 23L21.4553 23.0221L23.3273 6.22215L23.1286 6.2ZM21.2566 23V22.8H17.7526V23V23.2H21.2566V23ZM17.7526 23L17.9514 22.9787L16.9914 14.0267L16.7926 14.048L16.5937 14.0693L17.5537 23.0213L17.7526 23ZM16.7926 14.048L16.5937 14.0267L15.6337 22.9787L15.8326 23L16.0314 23.0213L16.9914 14.0693L16.7926 14.048ZM30.724 13.28H30.924V13.08H30.724V13.28ZM30.724 15.68V15.88H30.924V15.68H30.724ZM27.1 15.68V15.48H26.9V15.68H27.1ZM27.1 20.6H26.9V20.8H27.1V20.6ZM31.66 20.6H31.86V20.4H31.66V20.6ZM31.66 23V23.2H31.86V23H31.66ZM24.46 23H24.26V23.2H24.46V23ZM24.46 6.2V6H24.26V6.2H24.46ZM31.66 6.2H31.86V6H31.66V6.2ZM31.66 8.6V8.8H31.86V8.6H31.66ZM27.1 8.6V8.4H26.9V8.6H27.1ZM27.1 13.28H26.9V13.48H27.1V13.28ZM30.724 13.28H30.524V15.68H30.724H30.924V13.28H30.724ZM30.724 15.68V15.48H27.1V15.68V15.88H30.724V15.68ZM27.1 15.68H26.9V20.6H27.1H27.3V15.68H27.1ZM27.1 20.6V20.8H31.66V20.6V20.4H27.1V20.6ZM31.66 20.6H31.46V23H31.66H31.86V20.6H31.66ZM31.66 23V22.8H24.46V23V23.2H31.66V23ZM24.46 23H24.66V6.2H24.46H24.26V23H24.46ZM24.46 6.2V6.4H31.66V6.2V6H24.46V6.2ZM31.66 6.2H31.46V8.6H31.66H31.86V6.2H31.66ZM31.66 8.6V8.4H27.1V8.6V8.8H31.66V8.6ZM27.1 8.6H26.9V13.28H27.1H27.3V8.6H27.1ZM27.1 13.28V13.48H30.724V13.28V13.08H27.1V13.28ZM39.5599 13.28H39.7599V13.08H39.5599V13.28ZM39.5599 15.68V15.88H39.7599V15.68H39.5599ZM35.9359 15.68V15.48H35.7359V15.68H35.9359ZM35.9359 20.6H35.7359V20.8H35.9359V20.6ZM40.4959 20.6H40.6959V20.4H40.4959V20.6ZM40.4959 23V23.2H40.6959V23H40.4959ZM33.2959 23H33.0959V23.2H33.2959V23ZM33.2959 6.2V6H33.0959V6.2H33.2959ZM40.4959 6.2H40.6959V6H40.4959V6.2ZM40.4959 8.6V8.8H40.6959V8.6H40.4959ZM35.9359 8.6V8.4H35.7359V8.6H35.9359ZM35.9359 13.28H35.7359V13.48H35.9359V13.28ZM39.5599 13.28H39.3599V15.68H39.5599H39.7599V13.28H39.5599ZM39.5599 15.68V15.48H35.9359V15.68V15.88H39.5599V15.68ZM35.9359 15.68H35.7359V20.6H35.9359H36.1359V15.68H35.9359ZM35.9359 20.6V20.8H40.4959V20.6V20.4H35.9359V20.6ZM40.4959 20.6H40.2959V23H40.4959H40.6959V20.6H40.4959ZM40.4959 23V22.8H33.2959V23V23.2H40.4959V23ZM33.2959 23H33.4959V6.2H33.2959H33.0959V23H33.2959ZM33.2959 6.2V6.4H40.4959V6.2V6H33.2959V6.2ZM40.4959 6.2H40.2959V8.6H40.4959H40.6959V6.2H40.4959ZM40.4959 8.6V8.4H35.9359V8.6V8.8H40.4959V8.6ZM35.9359 8.6H35.7359V13.28H35.9359H36.1359V8.6H35.9359ZM35.9359 13.28V13.48H39.5599V13.28V13.08H35.9359V13.28ZM49.5239 6.2H49.7239V6H49.5239V6.2ZM49.5239 8.6V8.8H49.7239V8.6H49.5239ZM46.7639 8.6V8.4H46.5639V8.6H46.7639ZM46.7639 23V23.2H46.9639V23H46.7639ZM44.1239 23H43.9239V23.2H44.1239V23ZM44.1239 8.6H44.3239V8.4H44.1239V8.6ZM41.3639 8.6H41.1639V8.8H41.3639V8.6ZM41.3639 6.2V6H41.1639V6.2H41.3639ZM49.5239 6.2H49.3239V8.6H49.5239H49.7239V6.2H49.5239ZM49.5239 8.6V8.4H46.7639V8.6V8.8H49.5239V8.6ZM46.7639 8.6H46.5639V23H46.7639H46.9639V8.6H46.7639ZM46.7639 23V22.8H44.1239V23V23.2H46.7639V23ZM44.1239 23H44.3239V8.6H44.1239H43.9239V23H44.1239ZM44.1239 8.6V8.4H41.3639V8.6V8.8H44.1239V8.6ZM41.3639 8.6H41.5639V6.2H41.3639H41.1639V8.6H41.3639ZM41.3639 6.2V6.4H49.5239V6.2V6H41.3639V6.2ZM61.3731 7.16L61.2299 7.29963L61.2317 7.30142L61.3731 7.16ZM61.8771 12.8L61.6992 12.7085L61.6972 12.7126L61.8771 12.8ZM60.6051 14.048L60.5197 13.8671L60.0998 14.0655L60.5324 14.2343L60.6051 14.048ZM61.5411 21.992L61.3997 21.8506L61.5411 21.992ZM54.4131 23H54.2131V23.2H54.4131V23ZM54.4131 6.2V6H54.2131V6.2H54.4131ZM57.0531 13.04H56.8531V13.24H57.0531V13.04ZM59.2611 12.632L59.1196 12.4905L59.1155 12.4949L59.2611 12.632ZM59.3331 9.008L59.1741 9.12957L59.1787 9.13514L59.3331 9.008ZM57.0531 8.6V8.4H56.8531V8.6H57.0531ZM57.0531 20.6H56.8531V20.8H57.0531V20.6ZM59.5971 20.24L59.7434 20.3765L59.7476 20.3717L59.5971 20.24ZM59.5251 15.896L59.3719 16.025L59.3797 16.0333L59.5251 15.896ZM57.0531 15.44V15.24H56.8531V15.44H57.0531ZM58.3971 6.2V6.4C59.7309 6.4 60.6593 6.71437 61.2299 7.29962L61.3731 7.16L61.5163 7.02038C60.8389 6.32563 59.7833 6 58.3971 6V6.2ZM61.3731 7.16L61.2317 7.30142C61.8033 7.87303 62.1091 8.77944 62.1091 10.064H62.3091H62.5091C62.5091 8.72456 62.1909 7.69497 61.5145 7.01858L61.3731 7.16ZM62.3091 10.064H62.1091V10.664H62.3091H62.5091V10.064H62.3091ZM62.3091 10.664H62.1091C62.1091 11.5074 61.9683 12.1854 61.6993 12.7085L61.8771 12.8L62.055 12.8915C62.3619 12.2946 62.5091 11.5486 62.5091 10.664H62.3091ZM61.8771 12.8L61.6972 12.7126C61.4456 13.2306 61.0555 13.6141 60.5197 13.8671L60.6051 14.048L60.6905 14.2288C61.3067 13.9379 61.7646 13.4894 62.057 12.8874L61.8771 12.8ZM60.6051 14.048L60.5324 14.2343C61.146 14.4738 61.6009 14.8705 61.9056 15.4279C62.2126 15.9894 62.3731 16.7254 62.3731 17.648H62.5731H62.7731C62.7731 16.6826 62.6057 15.8746 62.2566 15.2361C61.9053 14.5935 61.3762 14.1342 60.6778 13.8617L60.6051 14.048ZM62.5731 17.648H62.3731V19.016H62.5731H62.7731V17.648H62.5731ZM62.5731 19.016H62.3731C62.3731 20.2772 62.039 21.2112 61.3997 21.8506L61.5411 21.992L61.6825 22.1334C62.4192 21.3968 62.7731 20.3468 62.7731 19.016H62.5731ZM61.5411 21.992L61.3997 21.8506C60.7776 22.4727 59.8447 22.8 58.5651 22.8V23V23.2C59.9096 23.2 60.9606 22.8553 61.6825 22.1334L61.5411 21.992ZM58.5651 23V22.8H54.4131V23V23.2H58.5651V23ZM54.4131 23H54.6131V6.2H54.4131H54.2131V23H54.4131ZM54.4131 6.2V6.4H58.3971V6.2V6H54.4131V6.2ZM57.0531 13.04V13.24H58.0851V13.04V12.84H57.0531V13.04ZM58.0851 13.04V13.24C58.645 13.24 59.0995 13.0955 59.4068 12.7691L59.2611 12.632L59.1155 12.4949C58.9107 12.7125 58.5813 12.84 58.0851 12.84V13.04ZM59.2611 12.632L59.4025 12.7734C59.7304 12.4456 59.8691 11.9237 59.8691 11.264H59.6691H59.4691C59.4691 11.8843 59.3358 12.2744 59.1197 12.4906L59.2611 12.632ZM59.6691 11.264H59.8691V10.328H59.6691H59.4691V11.264H59.6691ZM59.6691 10.328H59.8691C59.8691 9.70412 59.7558 9.2067 59.4875 8.88086L59.3331 9.008L59.1787 9.13514C59.3584 9.3533 59.4691 9.73588 59.4691 10.328H59.6691ZM59.3331 9.008L59.492 8.88651C59.2337 8.54879 58.8277 8.4 58.3251 8.4V8.6V8.8C58.7506 8.8 59.0165 8.92321 59.1743 9.12949L59.3331 9.008ZM58.3251 8.6V8.4H57.0531V8.6V8.8H58.3251V8.6ZM57.0531 8.6H56.8531V13.04H57.0531H57.2531V8.6H57.0531ZM57.0531 20.6V20.8H58.5651V20.6V20.4H57.0531V20.6ZM58.5651 20.6V20.8C59.0611 20.8 59.468 20.6714 59.7433 20.3765L59.5971 20.24L59.4509 20.1035C59.2782 20.2886 58.9971 20.4 58.5651 20.4V20.6ZM59.5971 20.24L59.7476 20.3717C60.0206 20.0598 60.1331 19.5661 60.1331 18.944H59.9331H59.7331C59.7331 19.5379 59.6217 19.9082 59.4466 20.1083L59.5971 20.24ZM59.9331 18.944H60.1331V17.48H59.9331H59.7331V18.944H59.9331ZM59.9331 17.48H60.1331C60.1331 16.7028 59.9985 16.1059 59.6705 15.7587L59.5251 15.896L59.3797 16.0333C59.5958 16.2621 59.7331 16.7212 59.7331 17.48H59.9331ZM59.5251 15.896L59.6781 15.7672C59.3677 15.3985 58.8646 15.24 58.2291 15.24V15.44V15.64C58.8096 15.64 59.1706 15.7855 59.3721 16.0248L59.5251 15.896ZM58.2291 15.44V15.24H57.0531V15.44V15.64H58.2291V15.44ZM57.0531 15.44H56.8531V20.6H57.0531H57.2531V15.44H57.0531ZM64.9791 7.112L64.833 6.97542L64.9791 7.112ZM70.9311 7.112L71.0772 6.97542L70.9311 7.112ZM70.9311 22.088L71.0772 22.2246L70.9311 22.088ZM64.9791 22.088L64.833 22.2246L64.9791 22.088ZM63.9471 10.232H64.1471C64.1471 8.92139 64.4821 7.93657 65.1252 7.24858L64.9791 7.112L64.833 6.97542C64.1001 7.75943 63.7471 8.85461 63.7471 10.232H63.9471ZM64.9791 7.112L65.1252 7.24858C65.7653 6.56384 66.6977 6.208 67.9551 6.208V6.008V5.808C66.6205 5.808 65.5689 6.18816 64.833 6.97542L64.9791 7.112ZM67.9551 6.008V6.208C69.2125 6.208 70.1449 6.56384 70.785 7.24858L70.9311 7.112L71.0772 6.97542C70.3413 6.18816 69.2897 5.808 67.9551 5.808V6.008ZM70.9311 7.112L70.785 7.24858C71.4281 7.93657 71.7631 8.92139 71.7631 10.232H71.9631H72.1631C72.1631 8.85461 71.8101 7.75943 71.0772 6.97542L70.9311 7.112ZM71.9631 10.232H71.7631V18.968H71.9631H72.1631V10.232H71.9631ZM71.9631 18.968H71.7631C71.7631 20.2786 71.4281 21.2634 70.785 21.9514L70.9311 22.088L71.0772 22.2246C71.8101 21.4406 72.1631 20.3454 72.1631 18.968H71.9631ZM70.9311 22.088L70.785 21.9514C70.1449 22.6362 69.2125 22.992 67.9551 22.992V23.192V23.392C69.2897 23.392 70.3413 23.0118 71.0772 22.2246L70.9311 22.088ZM67.9551 23.192V22.992C66.6977 22.992 65.7653 22.6362 65.1252 21.9514L64.9791 22.088L64.833 22.2246C65.5689 23.0118 66.6205 23.392 67.9551 23.392V23.192ZM64.9791 22.088L65.1252 21.9514C64.4821 21.2634 64.1471 20.2786 64.1471 18.968H63.9471H63.7471C63.7471 20.3454 64.1001 21.4406 64.833 22.2246L64.9791 22.088ZM63.9471 18.968H64.1471V10.232H63.9471H63.7471V18.968H63.9471ZM66.5871 19.136H66.3871C66.3871 19.7105 66.505 20.1786 66.7749 20.5054C67.0509 20.8395 67.4572 20.992 67.9551 20.992V20.792V20.592C67.5411 20.592 67.2633 20.4685 67.0833 20.2506C66.8973 20.0254 66.7871 19.6655 66.7871 19.136H66.5871ZM67.9551 20.792V20.992C68.4531 20.992 68.8593 20.8395 69.1353 20.5054C69.4053 20.1786 69.5231 19.7105 69.5231 19.136H69.3231H69.1231C69.1231 19.6655 69.013 20.0254 68.8269 20.2506C68.6469 20.4685 68.3692 20.592 67.9551 20.592V20.792ZM69.3231 19.136H69.5231V10.064H69.3231H69.1231V19.136H69.3231ZM69.3231 10.064H69.5231C69.5231 9.48948 69.4053 9.02139 69.1353 8.69462C68.8593 8.36054 68.4531 8.208 67.9551 8.208V8.408V8.608C68.3692 8.608 68.6469 8.73146 68.8269 8.94938C69.013 9.17461 69.1231 9.53452 69.1231 10.064H69.3231ZM67.9551 8.408V8.208C67.4572 8.208 67.0509 8.36054 66.7749 8.69462C66.505 9.02139 66.3871 9.48948 66.3871 10.064H66.5871H66.7871C66.7871 9.53452 66.8973 9.17461 67.0833 8.94938C67.2633 8.73146 67.5411 8.608 67.9551 8.608V8.408ZM66.5871 10.064H66.3871V19.136H66.5871H66.7871V10.064H66.5871ZM79.3752 14.36L79.1857 14.2959L79.1639 14.3603L79.1859 14.4247L79.3752 14.36ZM82.3272 23V23.2H82.6069L82.5164 22.9353L82.3272 23ZM79.5432 23L79.353 23.0618L79.3979 23.2H79.5432V23ZM77.3832 16.352L77.5734 16.2902L77.3842 15.708L77.1932 16.2896L77.3832 16.352ZM75.1992 23V23.2H75.344L75.3892 23.0624L75.1992 23ZM72.7272 23L72.5379 22.9353L72.4475 23.2H72.7272V23ZM75.6792 14.36L75.8684 14.4247L75.8904 14.3603L75.8686 14.2959L75.6792 14.36ZM72.9192 6.2V6H72.6404L72.7297 6.26408L72.9192 6.2ZM75.6552 6.2L75.8456 6.13875L75.8009 6H75.6552V6.2ZM77.6472 12.392L77.4568 12.4532L77.6449 13.038L77.8371 12.4546L77.6472 12.392ZM79.6872 6.2V6H79.5425L79.4972 6.13742L79.6872 6.2ZM82.1352 6.2L82.3246 6.26408L82.414 6H82.1352V6.2ZM79.3752 14.36L79.1859 14.4247L82.1379 23.0647L82.3272 23L82.5164 22.9353L79.5644 14.2953L79.3752 14.36ZM82.3272 23V22.8H79.5432V23V23.2H82.3272V23ZM79.5432 23L79.7334 22.9382L77.5734 16.2902L77.3832 16.352L77.193 16.4138L79.353 23.0618L79.5432 23ZM77.3832 16.352L77.1932 16.2896L75.0092 22.9376L75.1992 23L75.3892 23.0624L77.5732 16.4144L77.3832 16.352ZM75.1992 23V22.8H72.7272V23V23.2H75.1992V23ZM72.7272 23L72.9164 23.0647L75.8684 14.4247L75.6792 14.36L75.4899 14.2953L72.5379 22.9353L72.7272 23ZM75.6792 14.36L75.8686 14.2959L73.1086 6.13592L72.9192 6.2L72.7297 6.26408L75.4897 14.4241L75.6792 14.36ZM72.9192 6.2V6.4H75.6552V6.2V6H72.9192V6.2ZM75.6552 6.2L75.4648 6.26125L77.4568 12.4532L77.6472 12.392L77.8376 12.3307L75.8456 6.13875L75.6552 6.2ZM77.6472 12.392L77.8371 12.4546L79.8771 6.26258L79.6872 6.2L79.4972 6.13742L77.4572 12.3294L77.6472 12.392ZM79.6872 6.2V6.4H82.1352V6.2V6H79.6872V6.2ZM82.1352 6.2L81.9457 6.13592L79.1857 14.2959L79.3752 14.36L79.5646 14.4241L82.3246 6.26408L82.1352 6.2Z" fill="#F36408" mask="url(#path-2-outside-1_313_35)"/>
<defs>
<linearGradient id="paint0_linear_313_35" x1="46.25" y1="8.5" x2="45.6505" y2="19.9905" gradientUnits="userSpaceOnUse">
<stop stop-color="#ED772C"/>
<stop offset="1" stop-color="#FDBF38"/>
</linearGradient>
</defs>
</svg>
