<svg width="127" height="33" viewBox="0 0 127 33" fill="none" xmlns="http://www.w3.org/2000/svg">
<path d="M8.352 6.2V8.6H5.592V23H2.952V8.6H0.192V6.2H8.352ZM15.3947 23L14.9387 19.952H11.6987L11.2427 23H8.81869L11.5067 6.2H15.3707L18.0587 23H15.3947ZM14.5787 17.672L13.3067 9.176L12.0347 17.672H14.5787ZM26.6801 6.2H30.3521V23H27.8561V10.952L26.0321 23H23.5361L21.5681 11.12V23H19.2641V6.2H22.9361L24.8801 18.128L26.6801 6.2ZM36.1605 6.2C37.4725 6.2 38.4565 6.552 39.1125 7.256C39.7685 7.96 40.0965 8.992 40.0965 10.352V12.536C40.0965 13.896 39.7685 14.928 39.1125 15.632C38.4565 16.336 37.4725 16.688 36.1605 16.688H34.9125V23H32.2725V6.2H36.1605ZM34.9125 14.288H36.1605C36.5925 14.288 36.9125 14.168 37.1205 13.928C37.3445 13.688 37.4565 13.28 37.4565 12.704V10.184C37.4565 9.608 37.3445 9.2 37.1205 8.96C36.9125 8.72 36.5925 8.6 36.1605 8.6H34.9125V14.288ZM47.7006 13.28V15.68H44.0766V20.6H48.6366V23H41.4366V6.2H48.6366V8.6H44.0766V13.28H47.7006ZM55.7925 23C55.6965 22.728 55.6325 22.472 55.6005 22.232C55.5685 21.992 55.5525 21.56 55.5525 20.936V18.296C55.5525 17.528 55.4165 16.984 55.1445 16.664C54.8725 16.328 54.4325 16.16 53.8245 16.16H52.9125V23H50.2725V6.2H54.2565C55.6165 6.2 56.6085 6.52 57.2325 7.16C57.8565 7.784 58.1685 8.752 58.1685 10.064V11.384C58.1685 13.112 57.5925 14.248 56.4405 14.792C57.0645 15.048 57.5125 15.48 57.7845 16.088C58.0565 16.68 58.1925 17.44 58.1925 18.368V20.96C58.1925 21.44 58.2085 21.832 58.2405 22.136C58.2725 22.424 58.3525 22.712 58.4805 23H55.7925ZM52.9125 13.76H53.9445C54.4725 13.76 54.8645 13.624 55.1205 13.352C55.3925 13.08 55.5285 12.624 55.5285 11.984V10.328C55.5285 9.72 55.4165 9.28 55.1925 9.008C54.9845 8.736 54.6485 8.6 54.1845 8.6H52.9125V13.76ZM69.9193 13.28V15.68H66.2953V20.6H70.8553V23H63.6553V6.2H70.8553V8.6H66.2953V13.28H69.9193ZM78.4913 6.2H80.9153L78.3233 23H74.3873L71.7953 6.2H74.4593L76.4753 19.904L78.4913 6.2ZM84.7875 6.2V23H82.1475V6.2H84.7875ZM90.8938 6.2C92.2058 6.2 93.1898 6.552 93.8458 7.256C94.5018 7.96 94.8298 8.992 94.8298 10.352V18.848C94.8298 20.208 94.5018 21.24 93.8458 21.944C93.1898 22.648 92.2058 23 90.8938 23H86.7178V6.2H90.8938ZM89.3578 20.6H90.8458C91.2778 20.6 91.6058 20.472 91.8298 20.216C92.0698 19.96 92.1898 19.544 92.1898 18.968V10.232C92.1898 9.656 92.0698 9.24 91.8298 8.984C91.6058 8.728 91.2778 8.6 90.8458 8.6H89.3578V20.6ZM102.779 13.28V15.68H99.1547V20.6H103.715V23H96.5147V6.2H103.715V8.6H99.1547V13.28H102.779ZM107.703 23H105.327V6.2H108.639L111.351 16.256V6.2H113.703V23H110.991L107.703 10.832V23ZM122.985 6.2V8.6H120.225V23H117.585V8.6H114.825V6.2H122.985Z" fill="url(#paint0_linear_313_49)"/>
<mask id="path-2-outside-1_313_49" maskUnits="userSpaceOnUse" x="0" y="6" width="125" height="18" fill="black">
<rect fill="white" y="6" width="125" height="18"/>
<path d="M9.352 6.2V8.6H6.592V23H3.952V8.6H1.192V6.2H9.352ZM16.3947 23L15.9387 19.952H12.6987L12.2427 23H9.81869L12.5067 6.2H16.3707L19.0587 23H16.3947ZM15.5787 17.672L14.3067 9.176L13.0347 17.672H15.5787ZM27.6801 6.2H31.3521V23H28.8561V10.952L27.0321 23H24.5361L22.5681 11.12V23H20.2641V6.2H23.9361L25.8801 18.128L27.6801 6.2ZM37.1605 6.2C38.4725 6.2 39.4565 6.552 40.1125 7.256C40.7685 7.96 41.0965 8.992 41.0965 10.352V12.536C41.0965 13.896 40.7685 14.928 40.1125 15.632C39.4565 16.336 38.4725 16.688 37.1605 16.688H35.9125V23H33.2725V6.2H37.1605ZM35.9125 14.288H37.1605C37.5925 14.288 37.9125 14.168 38.1205 13.928C38.3445 13.688 38.4565 13.28 38.4565 12.704V10.184C38.4565 9.608 38.3445 9.2 38.1205 8.96C37.9125 8.72 37.5925 8.6 37.1605 8.6H35.9125V14.288ZM48.7006 13.28V15.68H45.0766V20.6H49.6366V23H42.4366V6.2H49.6366V8.6H45.0766V13.28H48.7006ZM56.7925 23C56.6965 22.728 56.6325 22.472 56.6005 22.232C56.5685 21.992 56.5525 21.56 56.5525 20.936V18.296C56.5525 17.528 56.4165 16.984 56.1445 16.664C55.8725 16.328 55.4325 16.16 54.8245 16.16H53.9125V23H51.2725V6.2H55.2565C56.6165 6.2 57.6085 6.52 58.2325 7.16C58.8565 7.784 59.1685 8.752 59.1685 10.064V11.384C59.1685 13.112 58.5925 14.248 57.4405 14.792C58.0645 15.048 58.5125 15.48 58.7845 16.088C59.0565 16.68 59.1925 17.44 59.1925 18.368V20.96C59.1925 21.44 59.2085 21.832 59.2405 22.136C59.2725 22.424 59.3525 22.712 59.4805 23H56.7925ZM53.9125 13.76H54.9445C55.4725 13.76 55.8645 13.624 56.1205 13.352C56.3925 13.08 56.5285 12.624 56.5285 11.984V10.328C56.5285 9.72 56.4165 9.28 56.1925 9.008C55.9845 8.736 55.6485 8.6 55.1845 8.6H53.9125V13.76ZM70.9193 13.28V15.68H67.2953V20.6H71.8553V23H64.6553V6.2H71.8553V8.6H67.2953V13.28H70.9193ZM79.4913 6.2H81.9153L79.3233 23H75.3873L72.7953 6.2H75.4593L77.4753 19.904L79.4913 6.2ZM85.7875 6.2V23H83.1475V6.2H85.7875ZM91.8938 6.2C93.2058 6.2 94.1898 6.552 94.8458 7.256C95.5018 7.96 95.8298 8.992 95.8298 10.352V18.848C95.8298 20.208 95.5018 21.24 94.8458 21.944C94.1898 22.648 93.2058 23 91.8938 23H87.7178V6.2H91.8938ZM90.3578 20.6H91.8458C92.2778 20.6 92.6058 20.472 92.8298 20.216C93.0698 19.96 93.1898 19.544 93.1898 18.968V10.232C93.1898 9.656 93.0698 9.24 92.8298 8.984C92.6058 8.728 92.2778 8.6 91.8458 8.6H90.3578V20.6ZM103.779 13.28V15.68H100.155V20.6H104.715V23H97.5147V6.2H104.715V8.6H100.155V13.28H103.779ZM108.703 23H106.327V6.2H109.639L112.351 16.256V6.2H114.703V23H111.991L108.703 10.832V23ZM123.985 6.2V8.6H121.225V23H118.585V8.6H115.825V6.2H123.985Z"/>
</mask>
<path d="M9.352 6.2H9.552V6H9.352V6.2ZM9.352 8.6V8.8H9.552V8.6H9.352ZM6.592 8.6V8.4H6.392V8.6H6.592ZM6.592 23V23.2H6.792V23H6.592ZM3.952 23H3.752V23.2H3.952V23ZM3.952 8.6H4.152V8.4H3.952V8.6ZM1.192 8.6H0.992V8.8H1.192V8.6ZM1.192 6.2V6H0.992V6.2H1.192ZM9.352 6.2H9.152V8.6H9.352H9.552V6.2H9.352ZM9.352 8.6V8.4H6.592V8.6V8.8H9.352V8.6ZM6.592 8.6H6.392V23H6.592H6.792V8.6H6.592ZM6.592 23V22.8H3.952V23V23.2H6.592V23ZM3.952 23H4.152V8.6H3.952H3.752V23H3.952ZM3.952 8.6V8.4H1.192V8.6V8.8H3.952V8.6ZM1.192 8.6H1.392V6.2H1.192H0.992V8.6H1.192ZM1.192 6.2V6.4H9.352V6.2V6H1.192V6.2ZM16.3947 23L16.1969 23.0296L16.2224 23.2H16.3947V23ZM15.9387 19.952L16.1365 19.9224L16.111 19.752H15.9387V19.952ZM12.6987 19.952V19.752H12.5264L12.5009 19.9224L12.6987 19.952ZM12.2427 23V23.2H12.415L12.4405 23.0296L12.2427 23ZM9.81869 23L9.6212 22.9684L9.58414 23.2H9.81869V23ZM12.5067 6.2V6H12.3361L12.3092 6.1684L12.5067 6.2ZM16.3707 6.2L16.5682 6.1684L16.5412 6H16.3707V6.2ZM19.0587 23V23.2H19.2932L19.2562 22.9684L19.0587 23ZM15.5787 17.672V17.872H15.8109L15.7765 17.6424L15.5787 17.672ZM14.3067 9.176L14.5045 9.14639H14.1089L14.3067 9.176ZM13.0347 17.672L12.8369 17.6424L12.8025 17.872H13.0347V17.672ZM16.3947 23L16.5925 22.9704L16.1365 19.9224L15.9387 19.952L15.7409 19.9816L16.1969 23.0296L16.3947 23ZM15.9387 19.952V19.752H12.6987V19.952V20.152H15.9387V19.952ZM12.6987 19.952L12.5009 19.9224L12.0449 22.9704L12.2427 23L12.4405 23.0296L12.8965 19.9816L12.6987 19.952ZM12.2427 23V22.8H9.81869V23V23.2H12.2427V23ZM9.81869 23L10.0162 23.0316L12.7042 6.2316L12.5067 6.2L12.3092 6.1684L9.6212 22.9684L9.81869 23ZM12.5067 6.2V6.4H16.3707V6.2V6H12.5067V6.2ZM16.3707 6.2L16.1732 6.2316L18.8612 23.0316L19.0587 23L19.2562 22.9684L16.5682 6.1684L16.3707 6.2ZM19.0587 23V22.8H16.3947V23V23.2H19.0587V23ZM15.5787 17.672L15.7765 17.6424L14.5045 9.14639L14.3067 9.176L14.1089 9.20561L15.3809 17.7016L15.5787 17.672ZM14.3067 9.176L14.1089 9.14639L12.8369 17.6424L13.0347 17.672L13.2325 17.7016L14.5045 9.20561L14.3067 9.176ZM13.0347 17.672V17.872H15.5787V17.672V17.472H13.0347V17.672ZM27.6801 6.2V6H27.508L27.4824 6.17016L27.6801 6.2ZM31.3521 6.2H31.5521V6H31.3521V6.2ZM31.3521 23V23.2H31.5521V23H31.3521ZM28.8561 23H28.6561V23.2H28.8561V23ZM28.8561 10.952H29.0561L28.6584 10.9221L28.8561 10.952ZM27.0321 23V23.2H27.2041L27.2299 23.0299L27.0321 23ZM24.5361 23L24.3388 23.0327L24.3665 23.2H24.5361V23ZM22.5681 11.12L22.7654 11.0873L22.3681 11.12H22.5681ZM22.5681 23V23.2H22.7681V23H22.5681ZM20.2641 23H20.0641V23.2H20.2641V23ZM20.2641 6.2V6H20.0641V6.2H20.2641ZM23.9361 6.2L24.1335 6.16783L24.1062 6H23.9361V6.2ZM25.8801 18.128L25.6827 18.1602L26.0779 18.1578L25.8801 18.128ZM27.6801 6.2V6.4H31.3521V6.2V6H27.6801V6.2ZM31.3521 6.2H31.1521V23H31.3521H31.5521V6.2H31.3521ZM31.3521 23V22.8H28.8561V23V23.2H31.3521V23ZM28.8561 23H29.0561V10.952H28.8561H28.6561V23H28.8561ZM28.8561 10.952L28.6584 10.9221L26.8344 22.9701L27.0321 23L27.2299 23.0299L29.0539 10.9819L28.8561 10.952ZM27.0321 23V22.8H24.5361V23V23.2H27.0321V23ZM24.5361 23L24.7334 22.9673L22.7654 11.0873L22.5681 11.12L22.3708 11.1527L24.3388 23.0327L24.5361 23ZM22.5681 11.12H22.3681V23H22.5681H22.7681V11.12H22.5681ZM22.5681 23V22.8H20.2641V23V23.2H22.5681V23ZM20.2641 23H20.4641V6.2H20.2641H20.0641V23H20.2641ZM20.2641 6.2V6.4H23.9361V6.2V6H20.2641V6.2ZM23.9361 6.2L23.7387 6.23217L25.6827 18.1602L25.8801 18.128L26.0775 18.0958L24.1335 6.16783L23.9361 6.2ZM25.8801 18.128L26.0779 18.1578L27.8779 6.22984L27.6801 6.2L27.4824 6.17016L25.6824 18.0982L25.8801 18.128ZM40.1125 7.256L39.9662 7.39234L39.9662 7.39234L40.1125 7.256ZM35.9125 16.688V16.488H35.7125V16.688H35.9125ZM35.9125 23V23.2H36.1125V23H35.9125ZM33.2725 23H33.0725V23.2H33.2725V23ZM33.2725 6.2V6H33.0725V6.2H33.2725ZM35.9125 14.288H35.7125V14.488H35.9125V14.288ZM38.1205 13.928L37.9742 13.7914L37.9694 13.797L38.1205 13.928ZM38.1205 8.96L37.9693 9.09107L37.9743 9.09646L38.1205 8.96ZM35.9125 8.6V8.4H35.7125V8.6H35.9125ZM37.1605 6.2V6.4C38.4379 6.4 39.3602 6.74205 39.9662 7.39234L40.1125 7.256L40.2588 7.11965C39.5528 6.36194 38.5071 6 37.1605 6V6.2ZM40.1125 7.256L39.9662 7.39234C40.5757 8.04642 40.8965 9.02167 40.8965 10.352H41.0965H41.2965C41.2965 8.96233 40.9613 7.87357 40.2588 7.11965L40.1125 7.256ZM41.0965 10.352H40.8965V12.536H41.0965H41.2965V10.352H41.0965ZM41.0965 12.536H40.8965C40.8965 13.8663 40.5757 14.8416 39.9662 15.4957L40.1125 15.632L40.2588 15.7683C40.9613 15.0144 41.2965 13.9257 41.2965 12.536H41.0965ZM40.1125 15.632L39.9662 15.4957C39.3602 16.1459 38.4379 16.488 37.1605 16.488V16.688V16.888C38.5071 16.888 39.5528 16.5261 40.2588 15.7683L40.1125 15.632ZM37.1605 16.688V16.488H35.9125V16.688V16.888H37.1605V16.688ZM35.9125 16.688H35.7125V23H35.9125H36.1125V16.688H35.9125ZM35.9125 23V22.8H33.2725V23V23.2H35.9125V23ZM33.2725 23H33.4725V6.2H33.2725H33.0725V23H33.2725ZM33.2725 6.2V6.4H37.1605V6.2V6H33.2725V6.2ZM35.9125 14.288V14.488H37.1605V14.288V14.088H35.9125V14.288ZM37.1605 14.288V14.488C37.6286 14.488 38.0133 14.357 38.2716 14.059L38.1205 13.928L37.9694 13.797C37.8117 13.979 37.5564 14.088 37.1605 14.088V14.288ZM38.1205 13.928L38.2667 14.0645C38.5434 13.768 38.6565 13.2957 38.6565 12.704H38.4565H38.2565C38.2565 13.2643 38.1456 13.608 37.9743 13.7915L38.1205 13.928ZM38.4565 12.704H38.6565V10.184H38.4565H38.2565V12.704H38.4565ZM38.4565 10.184H38.6565C38.6565 9.59231 38.5434 9.11999 38.2667 8.82354L38.1205 8.96L37.9743 9.09646C38.1456 9.28001 38.2565 9.62369 38.2565 10.184H38.4565ZM38.1205 8.96L38.2716 8.82901C38.0133 8.53095 37.6286 8.4 37.1605 8.4V8.6V8.8C37.5564 8.8 37.8117 8.90905 37.9694 9.09099L38.1205 8.96ZM37.1605 8.6V8.4H35.9125V8.6V8.8H37.1605V8.6ZM35.9125 8.6H35.7125V14.288H35.9125H36.1125V8.6H35.9125ZM48.7006 13.28H48.9006V13.08H48.7006V13.28ZM48.7006 15.68V15.88H48.9006V15.68H48.7006ZM45.0766 15.68V15.48H44.8766V15.68H45.0766ZM45.0766 20.6H44.8766V20.8H45.0766V20.6ZM49.6366 20.6H49.8366V20.4H49.6366V20.6ZM49.6366 23V23.2H49.8366V23H49.6366ZM42.4366 23H42.2366V23.2H42.4366V23ZM42.4366 6.2V6H42.2366V6.2H42.4366ZM49.6366 6.2H49.8366V6H49.6366V6.2ZM49.6366 8.6V8.8H49.8366V8.6H49.6366ZM45.0766 8.6V8.4H44.8766V8.6H45.0766ZM45.0766 13.28H44.8766V13.48H45.0766V13.28ZM48.7006 13.28H48.5006V15.68H48.7006H48.9006V13.28H48.7006ZM48.7006 15.68V15.48H45.0766V15.68V15.88H48.7006V15.68ZM45.0766 15.68H44.8766V20.6H45.0766H45.2766V15.68H45.0766ZM45.0766 20.6V20.8H49.6366V20.6V20.4H45.0766V20.6ZM49.6366 20.6H49.4366V23H49.6366H49.8366V20.6H49.6366ZM49.6366 23V22.8H42.4366V23V23.2H49.6366V23ZM42.4366 23H42.6366V6.2H42.4366H42.2366V23H42.4366ZM42.4366 6.2V6.4H49.6366V6.2V6H42.4366V6.2ZM49.6366 6.2H49.4366V8.6H49.6366H49.8366V6.2H49.6366ZM49.6366 8.6V8.4H45.0766V8.6V8.8H49.6366V8.6ZM45.0766 8.6H44.8766V13.28H45.0766H45.2766V8.6H45.0766ZM45.0766 13.28V13.48H48.7006V13.28V13.08H45.0766V13.28ZM56.7925 23L56.6039 23.0666L56.651 23.2H56.7925V23ZM56.6005 22.232L56.7987 22.2056L56.7987 22.2056L56.6005 22.232ZM56.1445 16.664L55.989 16.7899L55.9921 16.7935L56.1445 16.664ZM53.9125 16.16V15.96H53.7125V16.16H53.9125ZM53.9125 23V23.2H54.1125V23H53.9125ZM51.2725 23H51.0725V23.2H51.2725V23ZM51.2725 6.2V6H51.0725V6.2H51.2725ZM58.2325 7.16L58.0893 7.29963L58.0911 7.30142L58.2325 7.16ZM57.4405 14.792L57.3551 14.6112L56.9449 14.8049L57.3646 14.977L57.4405 14.792ZM58.7845 16.088L58.6019 16.1697L58.6028 16.1715L58.7845 16.088ZM59.2405 22.136L59.0416 22.1569L59.0417 22.1581L59.2405 22.136ZM59.4805 23V23.2H59.7883L59.6633 22.9188L59.4805 23ZM53.9125 13.76H53.7125V13.96H53.9125V13.76ZM56.1205 13.352L55.979 13.2105L55.9749 13.2149L56.1205 13.352ZM56.1925 9.008L56.0335 9.12957L56.0381 9.13514L56.1925 9.008ZM53.9125 8.6V8.4H53.7125V8.6H53.9125ZM56.7925 23L56.9811 22.9334C56.8888 22.6721 56.8286 22.4296 56.7987 22.2056L56.6005 22.232L56.4023 22.2584C56.4364 22.5144 56.5042 22.7839 56.6039 23.0666L56.7925 23ZM56.6005 22.232L56.7987 22.2056C56.7687 21.9804 56.7525 21.5607 56.7525 20.936H56.5525H56.3525C56.3525 21.5593 56.3683 22.0036 56.4023 22.2584L56.6005 22.232ZM56.5525 20.936H56.7525V18.296H56.5525H56.3525V20.936H56.5525ZM56.5525 18.296H56.7525C56.7525 17.5154 56.6164 16.9104 56.2969 16.5345L56.1445 16.664L55.9921 16.7935C56.2166 17.0576 56.3525 17.5406 56.3525 18.296H56.5525ZM56.1445 16.664L56.2999 16.5382C55.9763 16.1384 55.4671 15.96 54.8245 15.96V16.16V16.36C55.3979 16.36 55.7687 16.5176 55.9891 16.7898L56.1445 16.664ZM54.8245 16.16V15.96H53.9125V16.16V16.36H54.8245V16.16ZM53.9125 16.16H53.7125V23H53.9125H54.1125V16.16H53.9125ZM53.9125 23V22.8H51.2725V23V23.2H53.9125V23ZM51.2725 23H51.4725V6.2H51.2725H51.0725V23H51.2725ZM51.2725 6.2V6.4H55.2565V6.2V6H51.2725V6.2ZM55.2565 6.2V6.4C56.5903 6.4 57.5187 6.71437 58.0893 7.29962L58.2325 7.16L58.3757 7.02038C57.6983 6.32563 56.6427 6 55.2565 6V6.2ZM58.2325 7.16L58.0911 7.30142C58.6627 7.87303 58.9685 8.77944 58.9685 10.064H59.1685H59.3685C59.3685 8.72456 59.0503 7.69497 58.3739 7.01858L58.2325 7.16ZM59.1685 10.064H58.9685V11.384H59.1685H59.3685V10.064H59.1685ZM59.1685 11.384H58.9685C58.9685 13.067 58.412 14.1121 57.3551 14.6112L57.4405 14.792L57.5259 14.9728C58.773 14.3839 59.3685 13.157 59.3685 11.384H59.1685ZM57.4405 14.792L57.3646 14.977C57.9418 15.2138 58.3512 15.6092 58.6019 16.1697L58.7845 16.088L58.9671 16.0063C58.6738 15.3508 58.1872 14.8822 57.5164 14.607L57.4405 14.792ZM58.7845 16.088L58.6028 16.1715C58.8588 16.7286 58.9925 17.4575 58.9925 18.368H59.1925H59.3925C59.3925 17.4225 59.2542 16.6314 58.9662 16.0045L58.7845 16.088ZM59.1925 18.368H58.9925V20.96H59.1925H59.3925V18.368H59.1925ZM59.1925 20.96H58.9925C58.9925 21.4435 59.0086 21.8432 59.0416 22.1569L59.2405 22.136L59.4394 22.1151C59.4084 21.8208 59.3925 21.4365 59.3925 20.96H59.1925ZM59.2405 22.136L59.0417 22.1581C59.0762 22.4682 59.1621 22.7761 59.2977 23.0812L59.4805 23L59.6633 22.9188C59.5429 22.6479 59.4688 22.3798 59.4393 22.1139L59.2405 22.136ZM59.4805 23V22.8H56.7925V23V23.2H59.4805V23ZM53.9125 13.76V13.96H54.9445V13.76V13.56H53.9125V13.76ZM54.9445 13.76V13.96C55.5044 13.96 55.9589 13.8155 56.2661 13.4891L56.1205 13.352L55.9749 13.2149C55.7701 13.4325 55.4406 13.56 54.9445 13.56V13.76ZM56.1205 13.352L56.2619 13.4934C56.5898 13.1656 56.7285 12.6437 56.7285 11.984H56.5285H56.3285C56.3285 12.6043 56.1952 12.9944 55.9791 13.2106L56.1205 13.352ZM56.5285 11.984H56.7285V10.328H56.5285H56.3285V11.984H56.5285ZM56.5285 10.328H56.7285C56.7285 9.70412 56.6152 9.2067 56.3469 8.88086L56.1925 9.008L56.0381 9.13514C56.2178 9.3533 56.3285 9.73588 56.3285 10.328H56.5285ZM56.1925 9.008L56.3514 8.88651C56.0931 8.54879 55.687 8.4 55.1845 8.4V8.6V8.8C55.61 8.8 55.8759 8.92321 56.0336 9.12949L56.1925 9.008ZM55.1845 8.6V8.4H53.9125V8.6V8.8H55.1845V8.6ZM53.9125 8.6H53.7125V13.76H53.9125H54.1125V8.6H53.9125ZM70.9193 13.28H71.1193V13.08H70.9193V13.28ZM70.9193 15.68V15.88H71.1193V15.68H70.9193ZM67.2953 15.68V15.48H67.0953V15.68H67.2953ZM67.2953 20.6H67.0953V20.8H67.2953V20.6ZM71.8553 20.6H72.0553V20.4H71.8553V20.6ZM71.8553 23V23.2H72.0553V23H71.8553ZM64.6553 23H64.4553V23.2H64.6553V23ZM64.6553 6.2V6H64.4553V6.2H64.6553ZM71.8553 6.2H72.0553V6H71.8553V6.2ZM71.8553 8.6V8.8H72.0553V8.6H71.8553ZM67.2953 8.6V8.4H67.0953V8.6H67.2953ZM67.2953 13.28H67.0953V13.48H67.2953V13.28ZM70.9193 13.28H70.7193V15.68H70.9193H71.1193V13.28H70.9193ZM70.9193 15.68V15.48H67.2953V15.68V15.88H70.9193V15.68ZM67.2953 15.68H67.0953V20.6H67.2953H67.4953V15.68H67.2953ZM67.2953 20.6V20.8H71.8553V20.6V20.4H67.2953V20.6ZM71.8553 20.6H71.6553V23H71.8553H72.0553V20.6H71.8553ZM71.8553 23V22.8H64.6553V23V23.2H71.8553V23ZM64.6553 23H64.8553V6.2H64.6553H64.4553V23H64.6553ZM64.6553 6.2V6.4H71.8553V6.2V6H64.6553V6.2ZM71.8553 6.2H71.6553V8.6H71.8553H72.0553V6.2H71.8553ZM71.8553 8.6V8.4H67.2953V8.6V8.8H71.8553V8.6ZM67.2953 8.6H67.0953V13.28H67.2953H67.4953V8.6H67.2953ZM67.2953 13.28V13.48H70.9193V13.28V13.08H67.2953V13.28ZM79.4913 6.2V6H79.3185L79.2934 6.17089L79.4913 6.2ZM81.9153 6.2L82.1129 6.2305L82.1485 6H81.9153V6.2ZM79.3233 23V23.2H79.4948L79.5209 23.0305L79.3233 23ZM75.3873 23L75.1896 23.0305L75.2157 23.2H75.3873V23ZM72.7953 6.2V6H72.562L72.5976 6.2305L72.7953 6.2ZM75.4593 6.2L75.6571 6.17089L75.632 6H75.4593V6.2ZM77.4753 19.904L77.2774 19.9331H77.6731L77.4753 19.904ZM79.4913 6.2V6.4H81.9153V6.2V6H79.4913V6.2ZM81.9153 6.2L81.7176 6.1695L79.1256 22.9695L79.3233 23L79.5209 23.0305L82.1129 6.2305L81.9153 6.2ZM79.3233 23V22.8H75.3873V23V23.2H79.3233V23ZM75.3873 23L75.5849 22.9695L72.9929 6.1695L72.7953 6.2L72.5976 6.2305L75.1896 23.0305L75.3873 23ZM72.7953 6.2V6.4H75.4593V6.2V6H72.7953V6.2ZM75.4593 6.2L75.2614 6.22911L77.2774 19.9331L77.4753 19.904L77.6731 19.8749L75.6571 6.17089L75.4593 6.2ZM77.4753 19.904L77.6731 19.9331L79.6891 6.22911L79.4913 6.2L79.2934 6.17089L77.2774 19.8749L77.4753 19.904ZM85.7875 6.2H85.9875V6H85.7875V6.2ZM85.7875 23V23.2H85.9875V23H85.7875ZM83.1475 23H82.9475V23.2H83.1475V23ZM83.1475 6.2V6H82.9475V6.2H83.1475ZM85.7875 6.2H85.5875V23H85.7875H85.9875V6.2H85.7875ZM85.7875 23V22.8H83.1475V23V23.2H85.7875V23ZM83.1475 23H83.3475V6.2H83.1475H82.9475V23H83.1475ZM83.1475 6.2V6.4H85.7875V6.2V6H83.1475V6.2ZM94.8458 7.256L94.6995 7.39234L94.6995 7.39234L94.8458 7.256ZM87.7178 23H87.5178V23.2H87.7178V23ZM87.7178 6.2V6H87.5178V6.2H87.7178ZM90.3578 20.6H90.1578V20.8H90.3578V20.6ZM92.8298 20.216L92.6838 20.0791L92.6793 20.0843L92.8298 20.216ZM92.8298 8.984L92.6792 9.11578L92.6839 9.12079L92.8298 8.984ZM90.3578 8.6V8.4H90.1578V8.6H90.3578ZM91.8938 6.2V6.4C93.1712 6.4 94.0935 6.74205 94.6995 7.39234L94.8458 7.256L94.9921 7.11965C94.2861 6.36194 93.2404 6 91.8938 6V6.2ZM94.8458 7.256L94.6995 7.39234C95.309 8.04642 95.6298 9.02167 95.6298 10.352H95.8298H96.0298C96.0298 8.96233 95.6947 7.87357 94.9921 7.11965L94.8458 7.256ZM95.8298 10.352H95.6298V18.848H95.8298H96.0298V10.352H95.8298ZM95.8298 18.848H95.6298C95.6298 20.1783 95.309 21.1536 94.6995 21.8077L94.8458 21.944L94.9921 22.0803C95.6947 21.3264 96.0298 20.2377 96.0298 18.848H95.8298ZM94.8458 21.944L94.6995 21.8077C94.0935 22.4579 93.1712 22.8 91.8938 22.8V23V23.2C93.2404 23.2 94.2861 22.8381 94.9921 22.0803L94.8458 21.944ZM91.8938 23V22.8H87.7178V23V23.2H91.8938V23ZM87.7178 23H87.9178V6.2H87.7178H87.5178V23H87.7178ZM87.7178 6.2V6.4H91.8938V6.2V6H87.7178V6.2ZM90.3578 20.6V20.8H91.8458V20.6V20.4H90.3578V20.6ZM91.8458 20.6V20.8C92.3188 20.8 92.7086 20.6583 92.9803 20.3477L92.8298 20.216L92.6793 20.0843C92.503 20.2857 92.2369 20.4 91.8458 20.4V20.6ZM92.8298 20.216L92.9757 20.3528C93.2669 20.0421 93.3898 19.5641 93.3898 18.968H93.1898H92.9898C92.9898 19.5239 92.8727 19.8779 92.6839 20.0792L92.8298 20.216ZM93.1898 18.968H93.3898V10.232H93.1898H92.9898V18.968H93.1898ZM93.1898 10.232H93.3898C93.3898 9.63592 93.2669 9.15786 92.9757 8.84721L92.8298 8.984L92.6839 9.12079C92.8727 9.32214 92.9898 9.67608 92.9898 10.232H93.1898ZM92.8298 8.984L92.9803 8.8523C92.7086 8.54172 92.3188 8.4 91.8458 8.4V8.6V8.8C92.2369 8.8 92.503 8.91427 92.6793 9.1157L92.8298 8.984ZM91.8458 8.6V8.4H90.3578V8.6V8.8H91.8458V8.6ZM90.3578 8.6H90.1578V20.6H90.3578H90.5578V8.6H90.3578ZM103.779 13.28H103.979V13.08H103.779V13.28ZM103.779 15.68V15.88H103.979V15.68H103.779ZM100.155 15.68V15.48H99.9547V15.68H100.155ZM100.155 20.6H99.9547V20.8H100.155V20.6ZM104.715 20.6H104.915V20.4H104.715V20.6ZM104.715 23V23.2H104.915V23H104.715ZM97.5147 23H97.3147V23.2H97.5147V23ZM97.5147 6.2V6H97.3147V6.2H97.5147ZM104.715 6.2H104.915V6H104.715V6.2ZM104.715 8.6V8.8H104.915V8.6H104.715ZM100.155 8.6V8.4H99.9547V8.6H100.155ZM100.155 13.28H99.9547V13.48H100.155V13.28ZM103.779 13.28H103.579V15.68H103.779H103.979V13.28H103.779ZM103.779 15.68V15.48H100.155V15.68V15.88H103.779V15.68ZM100.155 15.68H99.9547V20.6H100.155H100.355V15.68H100.155ZM100.155 20.6V20.8H104.715V20.6V20.4H100.155V20.6ZM104.715 20.6H104.515V23H104.715H104.915V20.6H104.715ZM104.715 23V22.8H97.5147V23V23.2H104.715V23ZM97.5147 23H97.7147V6.2H97.5147H97.3147V23H97.5147ZM97.5147 6.2V6.4H104.715V6.2V6H97.5147V6.2ZM104.715 6.2H104.515V8.6H104.715H104.915V6.2H104.715ZM104.715 8.6V8.4H100.155V8.6V8.8H104.715V8.6ZM100.155 8.6H99.9547V13.28H100.155H100.355V8.6H100.155ZM100.155 13.28V13.48H103.779V13.28V13.08H100.155V13.28ZM108.703 23V23.2H108.903V23H108.703ZM106.327 23H106.127V23.2H106.327V23ZM106.327 6.2V6H106.127V6.2H106.327ZM109.639 6.2L109.832 6.14792L109.792 6H109.639V6.2ZM112.351 16.256L112.158 16.3081L112.551 16.256H112.351ZM112.351 6.2V6H112.151V6.2H112.351ZM114.703 6.2H114.903V6H114.703V6.2ZM114.703 23V23.2H114.903V23H114.703ZM111.991 23L111.798 23.0522L111.837 23.2H111.991V23ZM108.703 10.832L108.896 10.7798L108.503 10.832H108.703ZM108.703 23V22.8H106.327V23V23.2H108.703V23ZM106.327 23H106.527V6.2H106.327H106.127V23H106.327ZM106.327 6.2V6.4H109.639V6.2V6H106.327V6.2ZM109.639 6.2L109.446 6.25208L112.158 16.3081L112.351 16.256L112.544 16.2039L109.832 6.14792L109.639 6.2ZM112.351 16.256H112.551V6.2H112.351H112.151V16.256H112.351ZM112.351 6.2V6.4H114.703V6.2V6H112.351V6.2ZM114.703 6.2H114.503V23H114.703H114.903V6.2H114.703ZM114.703 23V22.8H111.991V23V23.2H114.703V23ZM111.991 23L112.184 22.9478L108.896 10.7798L108.703 10.832L108.51 10.8842L111.798 23.0522L111.991 23ZM108.703 10.832H108.503V23H108.703H108.903V10.832H108.703ZM123.985 6.2H124.185V6H123.985V6.2ZM123.985 8.6V8.8H124.185V8.6H123.985ZM121.225 8.6V8.4H121.025V8.6H121.225ZM121.225 23V23.2H121.425V23H121.225ZM118.585 23H118.385V23.2H118.585V23ZM118.585 8.6H118.785V8.4H118.585V8.6ZM115.825 8.6H115.625V8.8H115.825V8.6ZM115.825 6.2V6H115.625V6.2H115.825ZM123.985 6.2H123.785V8.6H123.985H124.185V6.2H123.985ZM123.985 8.6V8.4H121.225V8.6V8.8H123.985V8.6ZM121.225 8.6H121.025V23H121.225H121.425V8.6H121.225ZM121.225 23V22.8H118.585V23V23.2H121.225V23ZM118.585 23H118.785V8.6H118.585H118.385V23H118.585ZM118.585 8.6V8.4H115.825V8.6V8.8H118.585V8.6ZM115.825 8.6H116.025V6.2H115.825H115.625V8.6H115.825ZM115.825 6.2V6.4H123.985V6.2V6H115.825V6.2Z" fill="#F36408" mask="url(#path-2-outside-1_313_49)"/>
<defs>
<linearGradient id="paint0_linear_313_49" x1="63.7222" y1="8.5" x2="63.2865" y2="20.0052" gradientUnits="userSpaceOnUse">
<stop stop-color="#ED772C"/>
<stop offset="1" stop-color="#FDBF38"/>
</linearGradient>
</defs>
</svg>
