<svg width="322" height="18" viewBox="0 0 322 18" fill="none" xmlns="http://www.w3.org/2000/svg">
<path d="M1.392 14V8.64L1.648 8.912H0.072V8.4H1.968V14H1.392ZM5.53863 14.048C5.10663 14.048 4.72263 13.936 4.38663 13.712C4.05063 13.4827 3.78663 13.1573 3.59463 12.736C3.40263 12.3093 3.30663 11.7973 3.30663 11.2C3.30663 10.6027 3.40263 10.0933 3.59463 9.672C3.78663 9.24533 4.05063 8.92 4.38663 8.696C4.72263 8.46667 5.10663 8.352 5.53863 8.352C5.97063 8.352 6.35463 8.46667 6.69063 8.696C7.02663 8.92 7.29063 9.24533 7.48263 9.672C7.67996 10.0933 7.77863 10.6027 7.77863 11.2C7.77863 11.7973 7.67996 12.3093 7.48263 12.736C7.29063 13.1573 7.02663 13.4827 6.69063 13.712C6.35463 13.936 5.97063 14.048 5.53863 14.048ZM5.53863 13.52C5.86929 13.52 6.15729 13.432 6.40263 13.256C6.64796 13.0747 6.83996 12.8133 6.97863 12.472C7.11729 12.1253 7.18663 11.7013 7.18663 11.2C7.18663 10.6987 7.11729 10.2773 6.97863 9.936C6.83996 9.58933 6.64796 9.328 6.40263 9.152C6.15729 8.97067 5.86929 8.88 5.53863 8.88C5.21863 8.88 4.93329 8.97067 4.68263 9.152C4.43196 9.328 4.23729 9.58933 4.09863 9.936C3.95996 10.2773 3.89062 10.6987 3.89062 11.2C3.89062 11.7013 3.95996 12.1253 4.09863 12.472C4.23729 12.8133 4.43196 13.0747 4.68263 13.256C4.93329 13.432 5.21863 13.52 5.53863 13.52ZM10.8355 14.048C10.4035 14.048 10.0195 13.936 9.6835 13.712C9.3475 13.4827 9.0835 13.1573 8.8915 12.736C8.6995 12.3093 8.6035 11.7973 8.6035 11.2C8.6035 10.6027 8.6995 10.0933 8.8915 9.672C9.0835 9.24533 9.3475 8.92 9.6835 8.696C10.0195 8.46667 10.4035 8.352 10.8355 8.352C11.2675 8.352 11.6515 8.46667 11.9875 8.696C12.3235 8.92 12.5875 9.24533 12.7795 9.672C12.9768 10.0933 13.0755 10.6027 13.0755 11.2C13.0755 11.7973 12.9768 12.3093 12.7795 12.736C12.5875 13.1573 12.3235 13.4827 11.9875 13.712C11.6515 13.936 11.2675 14.048 10.8355 14.048ZM10.8355 13.52C11.1662 13.52 11.4542 13.432 11.6995 13.256C11.9448 13.0747 12.1368 12.8133 12.2755 12.472C12.4142 12.1253 12.4835 11.7013 12.4835 11.2C12.4835 10.6987 12.4142 10.2773 12.2755 9.936C12.1368 9.58933 11.9448 9.328 11.6995 9.152C11.4542 8.97067 11.1662 8.88 10.8355 8.88C10.5155 8.88 10.2302 8.97067 9.9795 9.152C9.72883 9.328 9.53417 9.58933 9.3955 9.936C9.25683 10.2773 9.1875 10.6987 9.1875 11.2C9.1875 11.7013 9.25683 12.1253 9.3955 12.472C9.53417 12.8133 9.72883 13.0747 9.9795 13.256C10.2302 13.432 10.5155 13.52 10.8355 13.52ZM16.1324 14.048C15.7004 14.048 15.3164 13.936 14.9804 13.712C14.6444 13.4827 14.3804 13.1573 14.1884 12.736C13.9964 12.3093 13.9004 11.7973 13.9004 11.2C13.9004 10.6027 13.9964 10.0933 14.1884 9.672C14.3804 9.24533 14.6444 8.92 14.9804 8.696C15.3164 8.46667 15.7004 8.352 16.1324 8.352C16.5644 8.352 16.9484 8.46667 17.2844 8.696C17.6204 8.92 17.8844 9.24533 18.0764 9.672C18.2737 10.0933 18.3724 10.6027 18.3724 11.2C18.3724 11.7973 18.2737 12.3093 18.0764 12.736C17.8844 13.1573 17.6204 13.4827 17.2844 13.712C16.9484 13.936 16.5644 14.048 16.1324 14.048ZM16.1324 13.52C16.463 13.52 16.751 13.432 16.9964 13.256C17.2417 13.0747 17.4337 12.8133 17.5724 12.472C17.711 12.1253 17.7804 11.7013 17.7804 11.2C17.7804 10.6987 17.711 10.2773 17.5724 9.936C17.4337 9.58933 17.2417 9.328 16.9964 9.152C16.751 8.97067 16.463 8.88 16.1324 8.88C15.8124 8.88 15.527 8.97067 15.2764 9.152C15.0257 9.328 14.831 9.58933 14.6924 9.936C14.5537 10.2773 14.4844 10.6987 14.4844 11.2C14.4844 11.7013 14.5537 12.1253 14.6924 12.472C14.831 12.8133 15.0257 13.0747 15.2764 13.256C15.527 13.432 15.8124 13.52 16.1324 13.52ZM24.8213 9.76C25.1626 9.76 25.4586 9.82667 25.7093 9.96C25.9653 10.088 26.1626 10.2853 26.3013 10.552C26.4453 10.8187 26.5173 11.1547 26.5173 11.56V14H25.9493V11.616C25.9493 11.1733 25.8426 10.84 25.6293 10.616C25.4213 10.3867 25.1253 10.272 24.7413 10.272C24.4533 10.272 24.2026 10.3333 23.9893 10.456C23.7813 10.5733 23.6186 10.7467 23.5013 10.976C23.3893 11.2 23.3333 11.472 23.3333 11.792V14H22.7653V11.616C22.7653 11.1733 22.6586 10.84 22.4453 10.616C22.2319 10.3867 21.9333 10.272 21.5493 10.272C21.2666 10.272 21.0186 10.3333 20.8053 10.456C20.5919 10.5733 20.4266 10.7467 20.3093 10.976C20.1973 11.2 20.1413 11.472 20.1413 11.792V14H19.5733V9.8H20.1173V10.936L20.0293 10.736C20.1573 10.432 20.3626 10.1947 20.6453 10.024C20.9333 9.848 21.2719 9.76 21.6613 9.76C22.0719 9.76 22.4213 9.864 22.7093 10.072C22.9973 10.2747 23.1839 10.5813 23.2693 10.992L23.0453 10.904C23.1679 10.5627 23.3839 10.288 23.6933 10.08C24.0079 9.86667 24.3839 9.76 24.8213 9.76ZM28.0576 14V8.064H28.6256V14H28.0576ZM32.4198 14V8.4H34.5158C34.9905 8.4 35.3985 8.47733 35.7398 8.632C36.0811 8.78133 36.3425 9 36.5238 9.288C36.7105 9.57067 36.8038 9.91467 36.8038 10.32C36.8038 10.7147 36.7105 11.056 36.5238 11.344C36.3425 11.6267 36.0811 11.8453 35.7398 12C35.3985 12.1493 34.9905 12.224 34.5158 12.224H32.7478L33.0118 11.952V14H32.4198ZM36.2438 14L34.8038 11.968H35.4438L36.8918 14H36.2438ZM33.0118 12L32.7478 11.72H34.4998C35.0598 11.72 35.4838 11.5973 35.7718 11.352C36.0651 11.1067 36.2118 10.7627 36.2118 10.32C36.2118 9.872 36.0651 9.52533 35.7718 9.28C35.4838 9.03467 35.0598 8.912 34.4998 8.912H32.7478L33.0118 8.632V12ZM39.7931 14.04C39.3877 14.04 39.0224 13.9493 38.6971 13.768C38.3771 13.5813 38.1237 13.328 37.9371 13.008C37.7504 12.6827 37.6571 12.312 37.6571 11.896C37.6571 11.4747 37.7504 11.104 37.9371 10.784C38.1237 10.464 38.3771 10.2133 38.6971 10.032C39.0171 9.85067 39.3824 9.76 39.7931 9.76C40.2091 9.76 40.5771 9.85067 40.8971 10.032C41.2224 10.2133 41.4757 10.464 41.6571 10.784C41.8437 11.104 41.9371 11.4747 41.9371 11.896C41.9371 12.312 41.8437 12.6827 41.6571 13.008C41.4757 13.328 41.2224 13.5813 40.8971 13.768C40.5717 13.9493 40.2037 14.04 39.7931 14.04ZM39.7931 13.536C40.0971 13.536 40.3664 13.4693 40.6011 13.336C40.8357 13.1973 41.0197 13.0053 41.1531 12.76C41.2917 12.5093 41.3611 12.2213 41.3611 11.896C41.3611 11.5653 41.2917 11.2773 41.1531 11.032C41.0197 10.7867 40.8357 10.5973 40.6011 10.464C40.3664 10.3253 40.0997 10.256 39.8011 10.256C39.5024 10.256 39.2357 10.3253 39.0011 10.464C38.7664 10.5973 38.5797 10.7867 38.4411 11.032C38.3024 11.2773 38.2331 11.5653 38.2331 11.896C38.2331 12.2213 38.3024 12.5093 38.4411 12.76C38.5797 13.0053 38.7664 13.1973 39.0011 13.336C39.2357 13.4693 39.4997 13.536 39.7931 13.536ZM44.8327 14.04C44.4754 14.04 44.1634 13.9733 43.8967 13.84C43.63 13.7067 43.422 13.5067 43.2727 13.24C43.1287 12.9733 43.0567 12.64 43.0567 12.24V9.8H43.6247V12.176C43.6247 12.624 43.734 12.9627 43.9527 13.192C44.1767 13.416 44.4887 13.528 44.8887 13.528C45.182 13.528 45.4354 13.4693 45.6487 13.352C45.8674 13.2293 46.0327 13.0533 46.1447 12.824C46.262 12.5947 46.3207 12.32 46.3207 12V9.8H46.8887V14H46.3447V12.848L46.4327 13.056C46.2994 13.3653 46.0914 13.608 45.8087 13.784C45.5314 13.9547 45.206 14.04 44.8327 14.04ZM50.6157 9.76C50.957 9.76 51.2557 9.82667 51.5117 9.96C51.773 10.088 51.9757 10.2853 52.1197 10.552C52.269 10.8187 52.3437 11.1547 52.3437 11.56V14H51.7757V11.616C51.7757 11.1733 51.6637 10.84 51.4397 10.616C51.221 10.3867 50.9117 10.272 50.5117 10.272C50.213 10.272 49.9517 10.3333 49.7277 10.456C49.509 10.5733 49.3384 10.7467 49.2157 10.976C49.0984 11.2 49.0397 11.472 49.0397 11.792V14H48.4717V9.8H49.0157V10.952L48.9277 10.736C49.061 10.432 49.2744 10.1947 49.5677 10.024C49.861 9.848 50.2104 9.76 50.6157 9.76ZM55.5499 14.04C55.1499 14.04 54.7899 13.9493 54.4699 13.768C54.1553 13.5867 53.9073 13.336 53.7259 13.016C53.5446 12.6907 53.4539 12.3173 53.4539 11.896C53.4539 11.4693 53.5446 11.096 53.7259 10.776C53.9073 10.456 54.1553 10.208 54.4699 10.032C54.7899 9.85067 55.1499 9.76 55.5499 9.76C55.9179 9.76 56.2459 9.84267 56.5339 10.008C56.8273 10.1733 57.0593 10.416 57.2299 10.736C57.4059 11.0507 57.4939 11.4373 57.4939 11.896C57.4939 12.3493 57.4086 12.736 57.2379 13.056C57.0673 13.376 56.8353 13.6213 56.5419 13.792C56.2539 13.9573 55.9233 14.04 55.5499 14.04ZM55.5899 13.536C55.8886 13.536 56.1553 13.4693 56.3899 13.336C56.6299 13.1973 56.8166 13.0053 56.9499 12.76C57.0886 12.5093 57.1579 12.2213 57.1579 11.896C57.1579 11.5653 57.0886 11.2773 56.9499 11.032C56.8166 10.7867 56.6299 10.5973 56.3899 10.464C56.1553 10.3253 55.8886 10.256 55.5899 10.256C55.2966 10.256 55.0326 10.3253 54.7979 10.464C54.5633 10.5973 54.3766 10.7867 54.2379 11.032C54.0993 11.2773 54.0299 11.5653 54.0299 11.896C54.0299 12.2213 54.0993 12.5093 54.2379 12.76C54.3766 13.0053 54.5633 13.1973 54.7979 13.336C55.0326 13.4693 55.2966 13.536 55.5899 13.536ZM57.1739 14V12.736L57.2299 11.888L57.1499 11.04V8.064H57.7179V14H57.1739Z" fill="black"/>
<path d="M307.175 14.048C306.743 14.048 306.359 13.936 306.023 13.712C305.687 13.4827 305.423 13.1573 305.231 12.736C305.039 12.3093 304.943 11.7973 304.943 11.2C304.943 10.6027 305.039 10.0933 305.231 9.672C305.423 9.24533 305.687 8.92 306.023 8.696C306.359 8.46667 306.743 8.352 307.175 8.352C307.607 8.352 307.991 8.46667 308.327 8.696C308.663 8.92 308.927 9.24533 309.119 9.672C309.317 10.0933 309.415 10.6027 309.415 11.2C309.415 11.7973 309.317 12.3093 309.119 12.736C308.927 13.1573 308.663 13.4827 308.327 13.712C307.991 13.936 307.607 14.048 307.175 14.048ZM307.175 13.52C307.506 13.52 307.794 13.432 308.039 13.256C308.285 13.0747 308.477 12.8133 308.615 12.472C308.754 12.1253 308.823 11.7013 308.823 11.2C308.823 10.6987 308.754 10.2773 308.615 9.936C308.477 9.58933 308.285 9.328 308.039 9.152C307.794 8.97067 307.506 8.88 307.175 8.88C306.855 8.88 306.57 8.97067 306.319 9.152C306.069 9.328 305.874 9.58933 305.735 9.936C305.597 10.2773 305.527 10.6987 305.527 11.2C305.527 11.7013 305.597 12.1253 305.735 12.472C305.874 12.8133 306.069 13.0747 306.319 13.256C306.57 13.432 306.855 13.52 307.175 13.52ZM311.162 14L313.578 8.656L313.754 8.912H310.29L310.586 8.632V9.96H310.018V8.4H314.13V8.808L311.786 14H311.162Z" fill="black"/>
<path d="M145.272 12.06C145.096 12.06 144.944 11.996 144.816 11.868C144.696 11.74 144.636 11.584 144.636 11.4C144.636 11.208 144.696 11.052 144.816 10.932C144.944 10.812 145.096 10.752 145.272 10.752C145.448 10.752 145.596 10.812 145.716 10.932C145.844 11.052 145.908 11.208 145.908 11.4C145.908 11.584 145.844 11.74 145.716 11.868C145.596 11.996 145.448 12.06 145.272 12.06ZM147.815 12.06C147.639 12.06 147.487 11.996 147.359 11.868C147.239 11.74 147.179 11.584 147.179 11.4C147.179 11.208 147.239 11.052 147.359 10.932C147.487 10.812 147.639 10.752 147.815 10.752C147.991 10.752 148.139 10.812 148.259 10.932C148.387 11.052 148.451 11.208 148.451 11.4C148.451 11.584 148.387 11.74 148.259 11.868C148.139 11.996 147.991 12.06 147.815 12.06ZM150.358 12.06C150.182 12.06 150.03 11.996 149.902 11.868C149.782 11.74 149.722 11.584 149.722 11.4C149.722 11.208 149.782 11.052 149.902 10.932C150.03 10.812 150.182 10.752 150.358 10.752C150.534 10.752 150.682 10.812 150.802 10.932C150.93 11.052 150.994 11.208 150.994 11.4C150.994 11.584 150.93 11.74 150.802 11.868C150.682 11.996 150.534 12.06 150.358 12.06ZM152.901 12.06C152.725 12.06 152.573 11.996 152.445 11.868C152.325 11.74 152.265 11.584 152.265 11.4C152.265 11.208 152.325 11.052 152.445 10.932C152.573 10.812 152.725 10.752 152.901 10.752C153.077 10.752 153.225 10.812 153.345 10.932C153.473 11.052 153.537 11.208 153.537 11.4C153.537 11.584 153.473 11.74 153.345 11.868C153.225 11.996 153.077 12.06 152.901 12.06ZM155.444 12.06C155.268 12.06 155.116 11.996 154.988 11.868C154.868 11.74 154.808 11.584 154.808 11.4C154.808 11.208 154.868 11.052 154.988 10.932C155.116 10.812 155.268 10.752 155.444 10.752C155.62 10.752 155.768 10.812 155.888 10.932C156.016 11.052 156.08 11.208 156.08 11.4C156.08 11.584 156.016 11.74 155.888 11.868C155.768 11.996 155.62 12.06 155.444 12.06ZM157.987 12.06C157.811 12.06 157.659 11.996 157.531 11.868C157.411 11.74 157.351 11.584 157.351 11.4C157.351 11.208 157.411 11.052 157.531 10.932C157.659 10.812 157.811 10.752 157.987 10.752C158.163 10.752 158.311 10.812 158.431 10.932C158.559 11.052 158.623 11.208 158.623 11.4C158.623 11.584 158.559 11.74 158.431 11.868C158.311 11.996 158.163 12.06 157.987 12.06ZM160.53 12.06C160.354 12.06 160.202 11.996 160.074 11.868C159.954 11.74 159.894 11.584 159.894 11.4C159.894 11.208 159.954 11.052 160.074 10.932C160.202 10.812 160.354 10.752 160.53 10.752C160.706 10.752 160.854 10.812 160.974 10.932C161.102 11.052 161.166 11.208 161.166 11.4C161.166 11.584 161.102 11.74 160.974 11.868C160.854 11.996 160.706 12.06 160.53 12.06ZM163.073 12.06C162.897 12.06 162.745 11.996 162.617 11.868C162.497 11.74 162.437 11.584 162.437 11.4C162.437 11.208 162.497 11.052 162.617 10.932C162.745 10.812 162.897 10.752 163.073 10.752C163.249 10.752 163.397 10.812 163.517 10.932C163.645 11.052 163.709 11.208 163.709 11.4C163.709 11.584 163.645 11.74 163.517 11.868C163.397 11.996 163.249 12.06 163.073 12.06ZM165.616 12.06C165.44 12.06 165.288 11.996 165.16 11.868C165.04 11.74 164.98 11.584 164.98 11.4C164.98 11.208 165.04 11.052 165.16 10.932C165.288 10.812 165.44 10.752 165.616 10.752C165.792 10.752 165.94 10.812 166.06 10.932C166.188 11.052 166.252 11.208 166.252 11.4C166.252 11.584 166.188 11.74 166.06 11.868C165.94 11.996 165.792 12.06 165.616 12.06ZM168.159 12.06C167.983 12.06 167.831 11.996 167.703 11.868C167.583 11.74 167.523 11.584 167.523 11.4C167.523 11.208 167.583 11.052 167.703 10.932C167.831 10.812 167.983 10.752 168.159 10.752C168.335 10.752 168.483 10.812 168.603 10.932C168.731 11.052 168.795 11.208 168.795 11.4C168.795 11.584 168.731 11.74 168.603 11.868C168.483 11.996 168.335 12.06 168.159 12.06ZM170.702 12.06C170.526 12.06 170.374 11.996 170.246 11.868C170.126 11.74 170.066 11.584 170.066 11.4C170.066 11.208 170.126 11.052 170.246 10.932C170.374 10.812 170.526 10.752 170.702 10.752C170.878 10.752 171.026 10.812 171.146 10.932C171.274 11.052 171.338 11.208 171.338 11.4C171.338 11.584 171.274 11.74 171.146 11.868C171.026 11.996 170.878 12.06 170.702 12.06ZM173.245 12.06C173.069 12.06 172.917 11.996 172.789 11.868C172.669 11.74 172.609 11.584 172.609 11.4C172.609 11.208 172.669 11.052 172.789 10.932C172.917 10.812 173.069 10.752 173.245 10.752C173.421 10.752 173.569 10.812 173.689 10.932C173.817 11.052 173.881 11.208 173.881 11.4C173.881 11.584 173.817 11.74 173.689 11.868C173.569 11.996 173.421 12.06 173.245 12.06ZM175.788 12.06C175.612 12.06 175.46 11.996 175.332 11.868C175.212 11.74 175.152 11.584 175.152 11.4C175.152 11.208 175.212 11.052 175.332 10.932C175.46 10.812 175.612 10.752 175.788 10.752C175.964 10.752 176.112 10.812 176.232 10.932C176.36 11.052 176.424 11.208 176.424 11.4C176.424 11.584 176.36 11.74 176.232 11.868C176.112 11.996 175.964 12.06 175.788 12.06ZM178.331 12.06C178.155 12.06 178.003 11.996 177.875 11.868C177.755 11.74 177.695 11.584 177.695 11.4C177.695 11.208 177.755 11.052 177.875 10.932C178.003 10.812 178.155 10.752 178.331 10.752C178.507 10.752 178.655 10.812 178.775 10.932C178.903 11.052 178.967 11.208 178.967 11.4C178.967 11.584 178.903 11.74 178.775 11.868C178.655 11.996 178.507 12.06 178.331 12.06ZM180.874 12.06C180.698 12.06 180.546 11.996 180.418 11.868C180.298 11.74 180.238 11.584 180.238 11.4C180.238 11.208 180.298 11.052 180.418 10.932C180.546 10.812 180.698 10.752 180.874 10.752C181.05 10.752 181.198 10.812 181.318 10.932C181.446 11.052 181.51 11.208 181.51 11.4C181.51 11.584 181.446 11.74 181.318 11.868C181.198 11.996 181.05 12.06 180.874 12.06ZM183.417 12.06C183.241 12.06 183.089 11.996 182.961 11.868C182.841 11.74 182.781 11.584 182.781 11.4C182.781 11.208 182.841 11.052 182.961 10.932C183.089 10.812 183.241 10.752 183.417 10.752C183.593 10.752 183.741 10.812 183.861 10.932C183.989 11.052 184.053 11.208 184.053 11.4C184.053 11.584 183.989 11.74 183.861 11.868C183.741 11.996 183.593 12.06 183.417 12.06ZM185.96 12.06C185.784 12.06 185.632 11.996 185.504 11.868C185.384 11.74 185.324 11.584 185.324 11.4C185.324 11.208 185.384 11.052 185.504 10.932C185.632 10.812 185.784 10.752 185.96 10.752C186.136 10.752 186.284 10.812 186.404 10.932C186.532 11.052 186.596 11.208 186.596 11.4C186.596 11.584 186.532 11.74 186.404 11.868C186.284 11.996 186.136 12.06 185.96 12.06ZM188.502 12.06C188.326 12.06 188.174 11.996 188.046 11.868C187.926 11.74 187.866 11.584 187.866 11.4C187.866 11.208 187.926 11.052 188.046 10.932C188.174 10.812 188.326 10.752 188.502 10.752C188.678 10.752 188.826 10.812 188.946 10.932C189.074 11.052 189.138 11.208 189.138 11.4C189.138 11.584 189.074 11.74 188.946 11.868C188.826 11.996 188.678 12.06 188.502 12.06ZM191.045 12.06C190.869 12.06 190.717 11.996 190.589 11.868C190.469 11.74 190.409 11.584 190.409 11.4C190.409 11.208 190.469 11.052 190.589 10.932C190.717 10.812 190.869 10.752 191.045 10.752C191.221 10.752 191.369 10.812 191.489 10.932C191.617 11.052 191.681 11.208 191.681 11.4C191.681 11.584 191.617 11.74 191.489 11.868C191.369 11.996 191.221 12.06 191.045 12.06ZM193.588 12.06C193.412 12.06 193.26 11.996 193.132 11.868C193.012 11.74 192.952 11.584 192.952 11.4C192.952 11.208 193.012 11.052 193.132 10.932C193.26 10.812 193.412 10.752 193.588 10.752C193.764 10.752 193.912 10.812 194.032 10.932C194.16 11.052 194.224 11.208 194.224 11.4C194.224 11.584 194.16 11.74 194.032 11.868C193.912 11.996 193.764 12.06 193.588 12.06ZM196.131 12.06C195.955 12.06 195.803 11.996 195.675 11.868C195.555 11.74 195.495 11.584 195.495 11.4C195.495 11.208 195.555 11.052 195.675 10.932C195.803 10.812 195.955 10.752 196.131 10.752C196.307 10.752 196.455 10.812 196.575 10.932C196.703 11.052 196.767 11.208 196.767 11.4C196.767 11.584 196.703 11.74 196.575 11.868C196.455 11.996 196.307 12.06 196.131 12.06ZM198.674 12.06C198.498 12.06 198.346 11.996 198.218 11.868C198.098 11.74 198.038 11.584 198.038 11.4C198.038 11.208 198.098 11.052 198.218 10.932C198.346 10.812 198.498 10.752 198.674 10.752C198.85 10.752 198.998 10.812 199.118 10.932C199.246 11.052 199.31 11.208 199.31 11.4C199.31 11.584 199.246 11.74 199.118 11.868C198.998 11.996 198.85 12.06 198.674 12.06ZM201.217 12.06C201.041 12.06 200.889 11.996 200.761 11.868C200.641 11.74 200.581 11.584 200.581 11.4C200.581 11.208 200.641 11.052 200.761 10.932C200.889 10.812 201.041 10.752 201.217 10.752C201.393 10.752 201.541 10.812 201.661 10.932C201.789 11.052 201.853 11.208 201.853 11.4C201.853 11.584 201.789 11.74 201.661 11.868C201.541 11.996 201.393 12.06 201.217 12.06ZM203.76 12.06C203.584 12.06 203.432 11.996 203.304 11.868C203.184 11.74 203.124 11.584 203.124 11.4C203.124 11.208 203.184 11.052 203.304 10.932C203.432 10.812 203.584 10.752 203.76 10.752C203.936 10.752 204.084 10.812 204.204 10.932C204.332 11.052 204.396 11.208 204.396 11.4C204.396 11.584 204.332 11.74 204.204 11.868C204.084 11.996 203.936 12.06 203.76 12.06ZM206.303 12.06C206.127 12.06 205.975 11.996 205.847 11.868C205.727 11.74 205.667 11.584 205.667 11.4C205.667 11.208 205.727 11.052 205.847 10.932C205.975 10.812 206.127 10.752 206.303 10.752C206.479 10.752 206.627 10.812 206.747 10.932C206.875 11.052 206.939 11.208 206.939 11.4C206.939 11.584 206.875 11.74 206.747 11.868C206.627 11.996 206.479 12.06 206.303 12.06ZM208.846 12.06C208.67 12.06 208.518 11.996 208.39 11.868C208.27 11.74 208.21 11.584 208.21 11.4C208.21 11.208 208.27 11.052 208.39 10.932C208.518 10.812 208.67 10.752 208.846 10.752C209.022 10.752 209.17 10.812 209.29 10.932C209.418 11.052 209.482 11.208 209.482 11.4C209.482 11.584 209.418 11.74 209.29 11.868C209.17 11.996 209.022 12.06 208.846 12.06ZM211.389 12.06C211.213 12.06 211.061 11.996 210.933 11.868C210.813 11.74 210.753 11.584 210.753 11.4C210.753 11.208 210.813 11.052 210.933 10.932C211.061 10.812 211.213 10.752 211.389 10.752C211.565 10.752 211.713 10.812 211.833 10.932C211.961 11.052 212.025 11.208 212.025 11.4C212.025 11.584 211.961 11.74 211.833 11.868C211.713 11.996 211.565 12.06 211.389 12.06ZM213.932 12.06C213.756 12.06 213.604 11.996 213.476 11.868C213.356 11.74 213.296 11.584 213.296 11.4C213.296 11.208 213.356 11.052 213.476 10.932C213.604 10.812 213.756 10.752 213.932 10.752C214.108 10.752 214.256 10.812 214.376 10.932C214.504 11.052 214.568 11.208 214.568 11.4C214.568 11.584 214.504 11.74 214.376 11.868C214.256 11.996 214.108 12.06 213.932 12.06ZM216.475 12.06C216.299 12.06 216.147 11.996 216.019 11.868C215.899 11.74 215.839 11.584 215.839 11.4C215.839 11.208 215.899 11.052 216.019 10.932C216.147 10.812 216.299 10.752 216.475 10.752C216.651 10.752 216.799 10.812 216.919 10.932C217.047 11.052 217.111 11.208 217.111 11.4C217.111 11.584 217.047 11.74 216.919 11.868C216.799 11.996 216.651 12.06 216.475 12.06ZM219.018 12.06C218.842 12.06 218.69 11.996 218.562 11.868C218.442 11.74 218.382 11.584 218.382 11.4C218.382 11.208 218.442 11.052 218.562 10.932C218.69 10.812 218.842 10.752 219.018 10.752C219.194 10.752 219.342 10.812 219.462 10.932C219.59 11.052 219.654 11.208 219.654 11.4C219.654 11.584 219.59 11.74 219.462 11.868C219.342 11.996 219.194 12.06 219.018 12.06ZM221.561 12.06C221.385 12.06 221.233 11.996 221.105 11.868C220.985 11.74 220.925 11.584 220.925 11.4C220.925 11.208 220.985 11.052 221.105 10.932C221.233 10.812 221.385 10.752 221.561 10.752C221.737 10.752 221.885 10.812 222.005 10.932C222.133 11.052 222.197 11.208 222.197 11.4C222.197 11.584 222.133 11.74 222.005 11.868C221.885 11.996 221.737 12.06 221.561 12.06ZM224.104 12.06C223.928 12.06 223.776 11.996 223.648 11.868C223.528 11.74 223.468 11.584 223.468 11.4C223.468 11.208 223.528 11.052 223.648 10.932C223.776 10.812 223.928 10.752 224.104 10.752C224.28 10.752 224.428 10.812 224.548 10.932C224.676 11.052 224.74 11.208 224.74 11.4C224.74 11.584 224.676 11.74 224.548 11.868C224.428 11.996 224.28 12.06 224.104 12.06ZM226.647 12.06C226.471 12.06 226.319 11.996 226.191 11.868C226.071 11.74 226.011 11.584 226.011 11.4C226.011 11.208 226.071 11.052 226.191 10.932C226.319 10.812 226.471 10.752 226.647 10.752C226.823 10.752 226.971 10.812 227.091 10.932C227.219 11.052 227.283 11.208 227.283 11.4C227.283 11.584 227.219 11.74 227.091 11.868C226.971 11.996 226.823 12.06 226.647 12.06ZM229.19 12.06C229.014 12.06 228.862 11.996 228.734 11.868C228.614 11.74 228.554 11.584 228.554 11.4C228.554 11.208 228.614 11.052 228.734 10.932C228.862 10.812 229.014 10.752 229.19 10.752C229.366 10.752 229.514 10.812 229.634 10.932C229.762 11.052 229.826 11.208 229.826 11.4C229.826 11.584 229.762 11.74 229.634 11.868C229.514 11.996 229.366 12.06 229.19 12.06ZM231.733 12.06C231.557 12.06 231.405 11.996 231.277 11.868C231.157 11.74 231.097 11.584 231.097 11.4C231.097 11.208 231.157 11.052 231.277 10.932C231.405 10.812 231.557 10.752 231.733 10.752C231.909 10.752 232.057 10.812 232.177 10.932C232.305 11.052 232.369 11.208 232.369 11.4C232.369 11.584 232.305 11.74 232.177 11.868C232.057 11.996 231.909 12.06 231.733 12.06ZM234.276 12.06C234.1 12.06 233.948 11.996 233.82 11.868C233.7 11.74 233.64 11.584 233.64 11.4C233.64 11.208 233.7 11.052 233.82 10.932C233.948 10.812 234.1 10.752 234.276 10.752C234.452 10.752 234.6 10.812 234.72 10.932C234.848 11.052 234.912 11.208 234.912 11.4C234.912 11.584 234.848 11.74 234.72 11.868C234.6 11.996 234.452 12.06 234.276 12.06ZM236.819 12.06C236.643 12.06 236.491 11.996 236.363 11.868C236.243 11.74 236.183 11.584 236.183 11.4C236.183 11.208 236.243 11.052 236.363 10.932C236.491 10.812 236.643 10.752 236.819 10.752C236.995 10.752 237.143 10.812 237.263 10.932C237.391 11.052 237.455 11.208 237.455 11.4C237.455 11.584 237.391 11.74 237.263 11.868C237.143 11.996 236.995 12.06 236.819 12.06ZM239.362 12.06C239.186 12.06 239.034 11.996 238.906 11.868C238.786 11.74 238.726 11.584 238.726 11.4C238.726 11.208 238.786 11.052 238.906 10.932C239.034 10.812 239.186 10.752 239.362 10.752C239.538 10.752 239.686 10.812 239.806 10.932C239.934 11.052 239.998 11.208 239.998 11.4C239.998 11.584 239.934 11.74 239.806 11.868C239.686 11.996 239.538 12.06 239.362 12.06ZM241.905 12.06C241.729 12.06 241.577 11.996 241.449 11.868C241.329 11.74 241.269 11.584 241.269 11.4C241.269 11.208 241.329 11.052 241.449 10.932C241.577 10.812 241.729 10.752 241.905 10.752C242.081 10.752 242.229 10.812 242.349 10.932C242.477 11.052 242.541 11.208 242.541 11.4C242.541 11.584 242.477 11.74 242.349 11.868C242.229 11.996 242.081 12.06 241.905 12.06ZM244.448 12.06C244.272 12.06 244.12 11.996 243.992 11.868C243.872 11.74 243.812 11.584 243.812 11.4C243.812 11.208 243.872 11.052 243.992 10.932C244.12 10.812 244.272 10.752 244.448 10.752C244.624 10.752 244.772 10.812 244.892 10.932C245.02 11.052 245.084 11.208 245.084 11.4C245.084 11.584 245.02 11.74 244.892 11.868C244.772 11.996 244.624 12.06 244.448 12.06ZM246.991 12.06C246.815 12.06 246.663 11.996 246.535 11.868C246.415 11.74 246.355 11.584 246.355 11.4C246.355 11.208 246.415 11.052 246.535 10.932C246.663 10.812 246.815 10.752 246.991 10.752C247.167 10.752 247.315 10.812 247.435 10.932C247.563 11.052 247.627 11.208 247.627 11.4C247.627 11.584 247.563 11.74 247.435 11.868C247.315 11.996 247.167 12.06 246.991 12.06ZM249.534 12.06C249.358 12.06 249.206 11.996 249.078 11.868C248.958 11.74 248.898 11.584 248.898 11.4C248.898 11.208 248.958 11.052 249.078 10.932C249.206 10.812 249.358 10.752 249.534 10.752C249.71 10.752 249.858 10.812 249.978 10.932C250.106 11.052 250.17 11.208 250.17 11.4C250.17 11.584 250.106 11.74 249.978 11.868C249.858 11.996 249.71 12.06 249.534 12.06ZM252.077 12.06C251.901 12.06 251.749 11.996 251.621 11.868C251.501 11.74 251.441 11.584 251.441 11.4C251.441 11.208 251.501 11.052 251.621 10.932C251.749 10.812 251.901 10.752 252.077 10.752C252.253 10.752 252.401 10.812 252.521 10.932C252.649 11.052 252.713 11.208 252.713 11.4C252.713 11.584 252.649 11.74 252.521 11.868C252.401 11.996 252.253 12.06 252.077 12.06ZM254.62 12.06C254.444 12.06 254.292 11.996 254.164 11.868C254.044 11.74 253.984 11.584 253.984 11.4C253.984 11.208 254.044 11.052 254.164 10.932C254.292 10.812 254.444 10.752 254.62 10.752C254.796 10.752 254.944 10.812 255.064 10.932C255.192 11.052 255.256 11.208 255.256 11.4C255.256 11.584 255.192 11.74 255.064 11.868C254.944 11.996 254.796 12.06 254.62 12.06ZM257.163 12.06C256.987 12.06 256.835 11.996 256.707 11.868C256.587 11.74 256.527 11.584 256.527 11.4C256.527 11.208 256.587 11.052 256.707 10.932C256.835 10.812 256.987 10.752 257.163 10.752C257.339 10.752 257.487 10.812 257.607 10.932C257.735 11.052 257.799 11.208 257.799 11.4C257.799 11.584 257.735 11.74 257.607 11.868C257.487 11.996 257.339 12.06 257.163 12.06ZM259.706 12.06C259.53 12.06 259.378 11.996 259.25 11.868C259.13 11.74 259.07 11.584 259.07 11.4C259.07 11.208 259.13 11.052 259.25 10.932C259.378 10.812 259.53 10.752 259.706 10.752C259.882 10.752 260.03 10.812 260.15 10.932C260.278 11.052 260.342 11.208 260.342 11.4C260.342 11.584 260.278 11.74 260.15 11.868C260.03 11.996 259.882 12.06 259.706 12.06ZM262.249 12.06C262.073 12.06 261.921 11.996 261.793 11.868C261.673 11.74 261.613 11.584 261.613 11.4C261.613 11.208 261.673 11.052 261.793 10.932C261.921 10.812 262.073 10.752 262.249 10.752C262.425 10.752 262.573 10.812 262.693 10.932C262.821 11.052 262.885 11.208 262.885 11.4C262.885 11.584 262.821 11.74 262.693 11.868C262.573 11.996 262.425 12.06 262.249 12.06ZM264.792 12.06C264.616 12.06 264.464 11.996 264.336 11.868C264.216 11.74 264.156 11.584 264.156 11.4C264.156 11.208 264.216 11.052 264.336 10.932C264.464 10.812 264.616 10.752 264.792 10.752C264.968 10.752 265.116 10.812 265.236 10.932C265.364 11.052 265.428 11.208 265.428 11.4C265.428 11.584 265.364 11.74 265.236 11.868C265.116 11.996 264.968 12.06 264.792 12.06ZM267.335 12.06C267.159 12.06 267.007 11.996 266.879 11.868C266.759 11.74 266.699 11.584 266.699 11.4C266.699 11.208 266.759 11.052 266.879 10.932C267.007 10.812 267.159 10.752 267.335 10.752C267.511 10.752 267.659 10.812 267.779 10.932C267.907 11.052 267.971 11.208 267.971 11.4C267.971 11.584 267.907 11.74 267.779 11.868C267.659 11.996 267.511 12.06 267.335 12.06ZM269.877 12.06C269.701 12.06 269.549 11.996 269.421 11.868C269.301 11.74 269.241 11.584 269.241 11.4C269.241 11.208 269.301 11.052 269.421 10.932C269.549 10.812 269.701 10.752 269.877 10.752C270.053 10.752 270.201 10.812 270.321 10.932C270.449 11.052 270.513 11.208 270.513 11.4C270.513 11.584 270.449 11.74 270.321 11.868C270.201 11.996 270.053 12.06 269.877 12.06ZM272.42 12.06C272.244 12.06 272.092 11.996 271.964 11.868C271.844 11.74 271.784 11.584 271.784 11.4C271.784 11.208 271.844 11.052 271.964 10.932C272.092 10.812 272.244 10.752 272.42 10.752C272.596 10.752 272.744 10.812 272.864 10.932C272.992 11.052 273.056 11.208 273.056 11.4C273.056 11.584 272.992 11.74 272.864 11.868C272.744 11.996 272.596 12.06 272.42 12.06ZM274.963 12.06C274.787 12.06 274.635 11.996 274.507 11.868C274.387 11.74 274.327 11.584 274.327 11.4C274.327 11.208 274.387 11.052 274.507 10.932C274.635 10.812 274.787 10.752 274.963 10.752C275.139 10.752 275.287 10.812 275.407 10.932C275.535 11.052 275.599 11.208 275.599 11.4C275.599 11.584 275.535 11.74 275.407 11.868C275.287 11.996 275.139 12.06 274.963 12.06ZM277.506 12.06C277.33 12.06 277.178 11.996 277.05 11.868C276.93 11.74 276.87 11.584 276.87 11.4C276.87 11.208 276.93 11.052 277.05 10.932C277.178 10.812 277.33 10.752 277.506 10.752C277.682 10.752 277.83 10.812 277.95 10.932C278.078 11.052 278.142 11.208 278.142 11.4C278.142 11.584 278.078 11.74 277.95 11.868C277.83 11.996 277.682 12.06 277.506 12.06ZM280.049 12.06C279.873 12.06 279.721 11.996 279.593 11.868C279.473 11.74 279.413 11.584 279.413 11.4C279.413 11.208 279.473 11.052 279.593 10.932C279.721 10.812 279.873 10.752 280.049 10.752C280.225 10.752 280.373 10.812 280.493 10.932C280.621 11.052 280.685 11.208 280.685 11.4C280.685 11.584 280.621 11.74 280.493 11.868C280.373 11.996 280.225 12.06 280.049 12.06ZM282.592 12.06C282.416 12.06 282.264 11.996 282.136 11.868C282.016 11.74 281.956 11.584 281.956 11.4C281.956 11.208 282.016 11.052 282.136 10.932C282.264 10.812 282.416 10.752 282.592 10.752C282.768 10.752 282.916 10.812 283.036 10.932C283.164 11.052 283.228 11.208 283.228 11.4C283.228 11.584 283.164 11.74 283.036 11.868C282.916 11.996 282.768 12.06 282.592 12.06ZM285.135 12.06C284.959 12.06 284.807 11.996 284.679 11.868C284.559 11.74 284.499 11.584 284.499 11.4C284.499 11.208 284.559 11.052 284.679 10.932C284.807 10.812 284.959 10.752 285.135 10.752C285.311 10.752 285.459 10.812 285.579 10.932C285.707 11.052 285.771 11.208 285.771 11.4C285.771 11.584 285.707 11.74 285.579 11.868C285.459 11.996 285.311 12.06 285.135 12.06ZM287.678 12.06C287.502 12.06 287.35 11.996 287.222 11.868C287.102 11.74 287.042 11.584 287.042 11.4C287.042 11.208 287.102 11.052 287.222 10.932C287.35 10.812 287.502 10.752 287.678 10.752C287.854 10.752 288.002 10.812 288.122 10.932C288.25 11.052 288.314 11.208 288.314 11.4C288.314 11.584 288.25 11.74 288.122 11.868C288.002 11.996 287.854 12.06 287.678 12.06ZM290.221 12.06C290.045 12.06 289.893 11.996 289.765 11.868C289.645 11.74 289.585 11.584 289.585 11.4C289.585 11.208 289.645 11.052 289.765 10.932C289.893 10.812 290.045 10.752 290.221 10.752C290.397 10.752 290.545 10.812 290.665 10.932C290.793 11.052 290.857 11.208 290.857 11.4C290.857 11.584 290.793 11.74 290.665 11.868C290.545 11.996 290.397 12.06 290.221 12.06Z" fill="black"/>
</svg>
