<svg width="322" height="19" viewBox="0 0 322 19" fill="none" xmlns="http://www.w3.org/2000/svg">
<path d="M1.392 14V8.64L1.648 8.912H0.072V8.4H1.968V14H1.392ZM3.20263 14V13.592L5.53063 11.312C5.74396 11.104 5.90396 10.9227 6.01063 10.768C6.11729 10.608 6.18929 10.4587 6.22663 10.32C6.26396 10.1813 6.28263 10.0507 6.28263 9.928C6.28263 9.60267 6.17063 9.34667 5.94663 9.16C5.72796 8.97333 5.40263 8.88 4.97063 8.88C4.63996 8.88 4.34663 8.93067 4.09063 9.032C3.83996 9.13333 3.62396 9.29067 3.44263 9.504L3.03463 9.152C3.25329 8.896 3.53329 8.69867 3.87463 8.56C4.21596 8.42133 4.59729 8.352 5.01863 8.352C5.39729 8.352 5.72529 8.41333 6.00263 8.536C6.27996 8.65333 6.49329 8.82667 6.64263 9.056C6.79729 9.28533 6.87463 9.55467 6.87463 9.864C6.87463 10.0453 6.84796 10.224 6.79463 10.4C6.74663 10.576 6.65596 10.7627 6.52263 10.96C6.39463 11.152 6.20529 11.3707 5.95463 11.616L3.81863 13.712L3.65863 13.488H7.13063V14H3.20263ZM10.0699 14.048C9.63788 14.048 9.25388 13.936 8.91788 13.712C8.58188 13.4827 8.31788 13.1573 8.12588 12.736C7.93388 12.3093 7.83788 11.7973 7.83788 11.2C7.83788 10.6027 7.93388 10.0933 8.12588 9.672C8.31788 9.24533 8.58188 8.92 8.91788 8.696C9.25388 8.46667 9.63788 8.352 10.0699 8.352C10.5019 8.352 10.8859 8.46667 11.2219 8.696C11.5579 8.92 11.8219 9.24533 12.0139 9.672C12.2112 10.0933 12.3099 10.6027 12.3099 11.2C12.3099 11.7973 12.2112 12.3093 12.0139 12.736C11.8219 13.1573 11.5579 13.4827 11.2219 13.712C10.8859 13.936 10.5019 14.048 10.0699 14.048ZM10.0699 13.52C10.4005 13.52 10.6885 13.432 10.9339 13.256C11.1792 13.0747 11.3712 12.8133 11.5099 12.472C11.6485 12.1253 11.7179 11.7013 11.7179 11.2C11.7179 10.6987 11.6485 10.2773 11.5099 9.936C11.3712 9.58933 11.1792 9.328 10.9339 9.152C10.6885 8.97067 10.4005 8.88 10.0699 8.88C9.74988 8.88 9.46454 8.97067 9.21388 9.152C8.96321 9.328 8.76854 9.58933 8.62988 9.936C8.49121 10.2773 8.42188 10.6987 8.42188 11.2C8.42188 11.7013 8.49121 12.1253 8.62988 12.472C8.76854 12.8133 8.96321 13.0747 9.21388 13.256C9.46454 13.432 9.74988 13.52 10.0699 13.52ZM13.5108 14V9.8H14.0548V10.936L13.9668 10.736C14.0948 10.432 14.3001 10.1947 14.5828 10.024C14.8708 9.848 15.2094 9.76 15.5988 9.76C16.0094 9.76 16.3588 9.864 16.6468 10.072C16.9348 10.2747 17.1214 10.5813 17.2068 10.992L16.9828 10.904C17.1054 10.5627 17.3214 10.288 17.6308 10.08C17.9454 9.86667 18.3214 9.76 18.7588 9.76C19.1001 9.76 19.3961 9.82667 19.6468 9.96C19.9028 10.088 20.1001 10.2853 20.2388 10.552C20.3828 10.8187 20.4548 11.1547 20.4548 11.56V14H19.8868V11.616C19.8868 11.1733 19.7801 10.84 19.5668 10.616C19.3588 10.3867 19.0628 10.272 18.6788 10.272C18.3908 10.272 18.1401 10.3333 17.9268 10.456C17.7188 10.5733 17.5561 10.7467 17.4388 10.976C17.3268 11.2 17.2708 11.472 17.2708 11.792V14H16.7028V11.616C16.7028 11.1733 16.5961 10.84 16.3828 10.616C16.1694 10.3867 15.8708 10.272 15.4868 10.272C15.2041 10.272 14.9561 10.3333 14.7428 10.456C14.5294 10.5733 14.3641 10.7467 14.2468 10.976C14.1348 11.2 14.0788 11.472 14.0788 11.792V14H13.5108ZM21.9951 14V8.064H22.5631V14H21.9951ZM26.3573 14V8.4H28.4533C29.1626 8.4 29.72 8.57067 30.1253 8.912C30.536 9.248 30.7413 9.71733 30.7413 10.32C30.7413 10.7147 30.648 11.056 30.4613 11.344C30.28 11.6267 30.0186 11.8453 29.6773 12C29.336 12.1493 28.928 12.224 28.4533 12.224H26.6853L26.9493 11.952V14H26.3573ZM30.1813 14L28.7413 11.968H29.3813L30.8293 14H30.1813ZM26.9493 12L26.6853 11.72H28.4373C28.9973 11.72 29.4213 11.5973 29.7093 11.352C30.0026 11.1067 30.1493 10.7627 30.1493 10.32C30.1493 9.872 30.0026 9.52533 29.7093 9.28C29.4213 9.03467 28.9973 8.912 28.4373 8.912H26.6853L26.9493 8.632V12ZM33.7306 14.04C33.3252 14.04 32.9599 13.9493 32.6346 13.768C32.3146 13.5813 32.0612 13.328 31.8746 13.008C31.6879 12.6827 31.5946 12.312 31.5946 11.896C31.5946 11.4747 31.6879 11.104 31.8746 10.784C32.0612 10.464 32.3146 10.2133 32.6346 10.032C32.9546 9.85067 33.3199 9.76 33.7306 9.76C34.1466 9.76 34.5146 9.85067 34.8346 10.032C35.1599 10.2133 35.4132 10.464 35.5946 10.784C35.7812 11.104 35.8746 11.4747 35.8746 11.896C35.8746 12.312 35.7812 12.6827 35.5946 13.008C35.4132 13.328 35.1599 13.5813 34.8346 13.768C34.5092 13.9493 34.1412 14.04 33.7306 14.04ZM33.7306 13.536C34.0346 13.536 34.3039 13.4693 34.5386 13.336C34.7732 13.1973 34.9572 13.0053 35.0906 12.76C35.2292 12.5093 35.2986 12.2213 35.2986 11.896C35.2986 11.5653 35.2292 11.2773 35.0906 11.032C34.9572 10.7867 34.7732 10.5973 34.5386 10.464C34.3039 10.3253 34.0372 10.256 33.7386 10.256C33.4399 10.256 33.1732 10.3253 32.9386 10.464C32.7039 10.5973 32.5172 10.7867 32.3786 11.032C32.2399 11.2773 32.1706 11.5653 32.1706 11.896C32.1706 12.2213 32.2399 12.5093 32.3786 12.76C32.5172 13.0053 32.7039 13.1973 32.9386 13.336C33.1732 13.4693 33.4372 13.536 33.7306 13.536ZM38.7702 14.04C38.4129 14.04 38.1009 13.9733 37.8342 13.84C37.5675 13.7067 37.3595 13.5067 37.2102 13.24C37.0662 12.9733 36.9942 12.64 36.9942 12.24V9.8H37.5622V12.176C37.5622 12.624 37.6715 12.9627 37.8902 13.192C38.1142 13.416 38.4262 13.528 38.8262 13.528C39.1195 13.528 39.3729 13.4693 39.5862 13.352C39.8049 13.2293 39.9702 13.0533 40.0822 12.824C40.1995 12.5947 40.2582 12.32 40.2582 12V9.8H40.8262V14H40.2822V12.848L40.3702 13.056C40.2369 13.3653 40.0289 13.608 39.7462 13.784C39.4689 13.9547 39.1435 14.04 38.7702 14.04ZM42.4092 14V9.8H42.9532V10.952L42.8652 10.736C42.9985 10.432 43.2119 10.1947 43.5052 10.024C43.7985 9.848 44.1479 9.76 44.5532 9.76C44.8945 9.76 45.1932 9.82667 45.4492 9.96C45.7105 10.088 45.9132 10.2853 46.0572 10.552C46.2065 10.8187 46.2812 11.1547 46.2812 11.56V14H45.7132V11.616C45.7132 11.1733 45.6012 10.84 45.3772 10.616C45.1585 10.3867 44.8492 10.272 44.4492 10.272C44.1505 10.272 43.8892 10.3333 43.6652 10.456C43.4465 10.5733 43.2759 10.7467 43.1532 10.976C43.0359 11.2 42.9772 11.472 42.9772 11.792V14H42.4092ZM49.4874 14.04C49.0874 14.04 48.7274 13.9493 48.4074 13.768C48.0928 13.5867 47.8448 13.336 47.6634 13.016C47.4821 12.6907 47.3914 12.3173 47.3914 11.896C47.3914 11.4693 47.4821 11.096 47.6634 10.776C47.8448 10.456 48.0928 10.208 48.4074 10.032C48.7274 9.85067 49.0874 9.76 49.4874 9.76C49.8554 9.76 50.1834 9.84267 50.4714 10.008C50.7648 10.1733 50.9968 10.416 51.1674 10.736C51.3434 11.0507 51.4314 11.4373 51.4314 11.896C51.4314 12.3493 51.3461 12.736 51.1754 13.056C51.0048 13.376 50.7728 13.6213 50.4794 13.792C50.1914 13.9573 49.8608 14.04 49.4874 14.04ZM49.5274 13.536C49.8261 13.536 50.0928 13.4693 50.3274 13.336C50.5674 13.1973 50.7541 13.0053 50.8874 12.76C51.0261 12.5093 51.0954 12.2213 51.0954 11.896C51.0954 11.5653 51.0261 11.2773 50.8874 11.032C50.7541 10.7867 50.5674 10.5973 50.3274 10.464C50.0928 10.3253 49.8261 10.256 49.5274 10.256C49.2341 10.256 48.9701 10.3253 48.7354 10.464C48.5008 10.5973 48.3141 10.7867 48.1754 11.032C48.0368 11.2773 47.9674 11.5653 47.9674 11.896C47.9674 12.2213 48.0368 12.5093 48.1754 12.76C48.3141 13.0053 48.5008 13.1973 48.7354 13.336C48.9701 13.4693 49.2341 13.536 49.5274 13.536ZM51.1114 14V12.736L51.1674 11.888L51.0874 11.04V8.064H51.6554V14H51.1114ZM57.8831 14.048C57.4617 14.048 57.0724 13.9787 56.7151 13.84C56.3577 13.696 56.0484 13.496 55.7871 13.24C55.5257 12.984 55.3204 12.6827 55.1711 12.336C55.0271 11.9893 54.9551 11.6107 54.9551 11.2C54.9551 10.7893 55.0271 10.4107 55.1711 10.064C55.3204 9.71733 55.5257 9.416 55.7871 9.16C56.0537 8.904 56.3657 8.70667 56.7231 8.568C57.0804 8.424 57.4697 8.352 57.8911 8.352C58.2964 8.352 58.6777 8.42133 59.0351 8.56C59.3924 8.69333 59.6937 8.896 59.9391 9.168L59.5631 9.544C59.3337 9.30933 59.0804 9.14133 58.8031 9.04C58.5257 8.93333 58.2271 8.88 57.9071 8.88C57.5711 8.88 57.2591 8.93867 56.9711 9.056C56.6831 9.168 56.4324 9.33067 56.2191 9.544C56.0057 9.752 55.8377 9.99733 55.7151 10.28C55.5977 10.5573 55.5391 10.864 55.5391 11.2C55.5391 11.536 55.5977 11.8453 55.7151 12.128C55.8377 12.4053 56.0057 12.6507 56.2191 12.864C56.4324 13.072 56.6831 13.2347 56.9711 13.352C57.2591 13.464 57.5711 13.52 57.9071 13.52C58.2271 13.52 58.5257 13.4667 58.8031 13.36C59.0804 13.2533 59.3337 13.0827 59.5631 12.848L59.9391 13.224C59.6937 13.496 59.3924 13.7013 59.0351 13.84C58.6777 13.9787 58.2937 14.048 57.8831 14.048ZM62.5274 14.04C62.1221 14.04 61.7568 13.9493 61.4314 13.768C61.1114 13.5813 60.8581 13.328 60.6714 13.008C60.4848 12.6827 60.3914 12.312 60.3914 11.896C60.3914 11.4747 60.4848 11.104 60.6714 10.784C60.8581 10.464 61.1114 10.2133 61.4314 10.032C61.7514 9.85067 62.1168 9.76 62.5274 9.76C62.9434 9.76 63.3114 9.85067 63.6314 10.032C63.9568 10.2133 64.2101 10.464 64.3914 10.784C64.5781 11.104 64.6714 11.4747 64.6714 11.896C64.6714 12.312 64.5781 12.6827 64.3914 13.008C64.2101 13.328 63.9568 13.5813 63.6314 13.768C63.3061 13.9493 62.9381 14.04 62.5274 14.04ZM62.5274 13.536C62.8314 13.536 63.1008 13.4693 63.3354 13.336C63.5701 13.1973 63.7541 13.0053 63.8874 12.76C64.0261 12.5093 64.0954 12.2213 64.0954 11.896C64.0954 11.5653 64.0261 11.2773 63.8874 11.032C63.7541 10.7867 63.5701 10.5973 63.3354 10.464C63.1008 10.3253 62.8341 10.256 62.5354 10.256C62.2368 10.256 61.9701 10.3253 61.7354 10.464C61.5008 10.5973 61.3141 10.7867 61.1754 11.032C61.0368 11.2773 60.9674 11.5653 60.9674 11.896C60.9674 12.2213 61.0368 12.5093 61.1754 12.76C61.3141 13.0053 61.5008 13.1973 61.7354 13.336C61.9701 13.4693 62.2341 13.536 62.5274 13.536ZM65.8311 14V9.8H66.3751V10.952L66.2871 10.736C66.4204 10.432 66.6337 10.1947 66.9271 10.024C67.2204 9.848 67.5697 9.76 67.9751 9.76C68.3164 9.76 68.6151 9.82667 68.8711 9.96C69.1324 10.088 69.3351 10.2853 69.4791 10.552C69.6284 10.8187 69.7031 11.1547 69.7031 11.56V14H69.1351V11.616C69.1351 11.1733 69.0231 10.84 68.7991 10.616C68.5804 10.3867 68.2711 10.272 67.8711 10.272C67.5724 10.272 67.3111 10.3333 67.0871 10.456C66.8684 10.5733 66.6977 10.7467 66.5751 10.976C66.4577 11.2 66.3991 11.472 66.3991 11.792V14H65.8311ZM72.5653 14.04C72.1706 14.04 71.8666 13.9333 71.6533 13.72C71.44 13.5067 71.3333 13.2053 71.3333 12.816V8.872H71.9013V12.784C71.9013 13.0293 71.9626 13.2187 72.0853 13.352C72.2133 13.4853 72.3946 13.552 72.6293 13.552C72.88 13.552 73.088 13.48 73.2533 13.336L73.4533 13.744C73.3413 13.8453 73.2053 13.92 73.0453 13.968C72.8906 14.016 72.7306 14.04 72.5653 14.04ZM70.5813 10.272V9.8H73.1813V10.272H70.5813ZM76.9631 14V13.072L76.9391 12.92V11.368C76.9391 11.0107 76.8377 10.736 76.6351 10.544C76.4377 10.352 76.1417 10.256 75.7471 10.256C75.4751 10.256 75.2164 10.3013 74.9711 10.392C74.7257 10.4827 74.5177 10.6027 74.3471 10.752L74.0911 10.328C74.3044 10.1467 74.5604 10.008 74.8591 9.912C75.1577 9.81067 75.4724 9.76 75.8031 9.76C76.3471 9.76 76.7657 9.896 77.0591 10.168C77.3577 10.4347 77.5071 10.8427 77.5071 11.392V14H76.9631ZM75.5151 14.04C75.2004 14.04 74.9257 13.9893 74.6911 13.888C74.4617 13.7813 74.2857 13.6373 74.1631 13.456C74.0404 13.2693 73.9791 13.056 73.9791 12.816C73.9791 12.5973 74.0297 12.4 74.1311 12.224C74.2377 12.0427 74.4084 11.8987 74.6431 11.792C74.8831 11.68 75.2031 11.624 75.6031 11.624H77.0511V12.048H75.6191C75.2137 12.048 74.9311 12.12 74.7711 12.264C74.6164 12.408 74.5391 12.5867 74.5391 12.8C74.5391 13.04 74.6324 13.232 74.8191 13.376C75.0057 13.52 75.2671 13.592 75.6031 13.592C75.9231 13.592 76.1977 13.52 76.4271 13.376C76.6617 13.2267 76.8324 13.0133 76.9391 12.736L77.0671 13.128C76.9604 13.4053 76.7737 13.6267 76.5071 13.792C76.2457 13.9573 75.9151 14.04 75.5151 14.04ZM79.0498 14V9.8H79.6178V14H79.0498ZM79.3378 8.872C79.2205 8.872 79.1218 8.832 79.0418 8.752C78.9618 8.672 78.9218 8.576 78.9218 8.464C78.9218 8.352 78.9618 8.25867 79.0418 8.184C79.1218 8.104 79.2205 8.064 79.3378 8.064C79.4551 8.064 79.5538 8.10133 79.6338 8.176C79.7138 8.25067 79.7538 8.344 79.7538 8.456C79.7538 8.57333 79.7138 8.672 79.6338 8.752C79.5591 8.832 79.4605 8.872 79.3378 8.872ZM81.1983 14V9.8H81.7423V10.952L81.6543 10.736C81.7876 10.432 82.0009 10.1947 82.2943 10.024C82.5876 9.848 82.9369 9.76 83.3423 9.76C83.6836 9.76 83.9823 9.82667 84.2383 9.96C84.4996 10.088 84.7023 10.2853 84.8463 10.552C84.9956 10.8187 85.0703 11.1547 85.0703 11.56V14H84.5023V11.616C84.5023 11.1733 84.3903 10.84 84.1663 10.616C83.9476 10.3867 83.6383 10.272 83.2383 10.272C82.9396 10.272 82.6783 10.3333 82.4543 10.456C82.2356 10.5733 82.0649 10.7467 81.9423 10.976C81.8249 11.2 81.7663 11.472 81.7663 11.792V14H81.1983ZM88.3885 14.04C87.9512 14.04 87.5672 13.9493 87.2365 13.768C86.9058 13.5813 86.6472 13.328 86.4605 13.008C86.2738 12.6827 86.1805 12.312 86.1805 11.896C86.1805 11.48 86.2685 11.112 86.4445 10.792C86.6258 10.472 86.8712 10.2213 87.1805 10.04C87.4952 9.85333 87.8472 9.76 88.2365 9.76C88.6312 9.76 88.9805 9.85067 89.2845 10.032C89.5938 10.208 89.8365 10.4587 90.0125 10.784C90.1885 11.104 90.2765 11.4747 90.2765 11.896C90.2765 11.9227 90.2738 11.952 90.2685 11.984C90.2685 12.0107 90.2685 12.04 90.2685 12.072H86.6125V11.648H89.9645L89.7405 11.816C89.7405 11.512 89.6738 11.2427 89.5405 11.008C89.4125 10.768 89.2365 10.5813 89.0125 10.448C88.7885 10.3147 88.5298 10.248 88.2365 10.248C87.9485 10.248 87.6898 10.3147 87.4605 10.448C87.2312 10.5813 87.0525 10.768 86.9245 11.008C86.7965 11.248 86.7325 11.5227 86.7325 11.832V11.92C86.7325 12.24 86.8018 12.5227 86.9405 12.768C87.0845 13.008 87.2818 13.1973 87.5325 13.336C87.7885 13.4693 88.0792 13.536 88.4045 13.536C88.6605 13.536 88.8978 13.4907 89.1165 13.4C89.3405 13.3093 89.5325 13.1707 89.6925 12.984L90.0125 13.352C89.8258 13.576 89.5912 13.7467 89.3085 13.864C89.0312 13.9813 88.7245 14.04 88.3885 14.04ZM91.4326 14V9.8H91.9766V10.944L91.9206 10.744C92.038 10.424 92.2353 10.1813 92.5126 10.016C92.79 9.84533 93.134 9.76 93.5446 9.76V10.312C93.5233 10.312 93.502 10.312 93.4806 10.312C93.4593 10.3067 93.438 10.304 93.4166 10.304C92.974 10.304 92.6273 10.44 92.3766 10.712C92.126 10.9787 92.0006 11.36 92.0006 11.856V14H91.4326Z" fill="black"/>
<path d="M307.281 15.048C306.849 15.048 306.465 14.936 306.129 14.712C305.793 14.4827 305.529 14.1573 305.337 13.736C305.145 13.3093 305.049 12.7973 305.049 12.2C305.049 11.6027 305.145 11.0933 305.337 10.672C305.529 10.2453 305.793 9.92 306.129 9.696C306.465 9.46667 306.849 9.352 307.281 9.352C307.713 9.352 308.097 9.46667 308.433 9.696C308.769 9.92 309.033 10.2453 309.225 10.672C309.422 11.0933 309.521 11.6027 309.521 12.2C309.521 12.7973 309.422 13.3093 309.225 13.736C309.033 14.1573 308.769 14.4827 308.433 14.712C308.097 14.936 307.713 15.048 307.281 15.048ZM307.281 14.52C307.611 14.52 307.899 14.432 308.145 14.256C308.39 14.0747 308.582 13.8133 308.721 13.472C308.859 13.1253 308.929 12.7013 308.929 12.2C308.929 11.6987 308.859 11.2773 308.721 10.936C308.582 10.5893 308.39 10.328 308.145 10.152C307.899 9.97067 307.611 9.88 307.281 9.88C306.961 9.88 306.675 9.97067 306.425 10.152C306.174 10.328 305.979 10.5893 305.841 10.936C305.702 11.2773 305.633 11.6987 305.633 12.2C305.633 12.7013 305.702 13.1253 305.841 13.472C305.979 13.8133 306.174 14.0747 306.425 14.256C306.675 14.432 306.961 14.52 307.281 14.52ZM311.94 15.048C311.534 15.048 311.15 14.984 310.788 14.856C310.43 14.7227 310.142 14.5467 309.924 14.328L310.204 13.872C310.385 14.0587 310.628 14.2133 310.932 14.336C311.241 14.4587 311.577 14.52 311.94 14.52C312.404 14.52 312.758 14.4187 313.004 14.216C313.254 14.0133 313.38 13.7413 313.38 13.4C313.38 13.0587 313.257 12.7867 313.012 12.584C312.772 12.3813 312.39 12.28 311.868 12.28H311.468V11.856L313.196 9.688L313.276 9.912H310.156V9.4H313.756V9.808L312.028 11.976L311.748 11.792H311.964C312.636 11.792 313.137 11.9413 313.468 12.24C313.804 12.5387 313.972 12.9227 313.972 13.392C313.972 13.7067 313.897 13.9893 313.748 14.24C313.598 14.4907 313.372 14.688 313.068 14.832C312.769 14.976 312.393 15.048 311.94 15.048Z" fill="black"/>
<path d="M145.272 12.06C145.096 12.06 144.944 11.996 144.816 11.868C144.696 11.74 144.636 11.584 144.636 11.4C144.636 11.208 144.696 11.052 144.816 10.932C144.944 10.812 145.096 10.752 145.272 10.752C145.448 10.752 145.596 10.812 145.716 10.932C145.844 11.052 145.908 11.208 145.908 11.4C145.908 11.584 145.844 11.74 145.716 11.868C145.596 11.996 145.448 12.06 145.272 12.06ZM147.815 12.06C147.639 12.06 147.487 11.996 147.359 11.868C147.239 11.74 147.179 11.584 147.179 11.4C147.179 11.208 147.239 11.052 147.359 10.932C147.487 10.812 147.639 10.752 147.815 10.752C147.991 10.752 148.139 10.812 148.259 10.932C148.387 11.052 148.451 11.208 148.451 11.4C148.451 11.584 148.387 11.74 148.259 11.868C148.139 11.996 147.991 12.06 147.815 12.06ZM150.358 12.06C150.182 12.06 150.03 11.996 149.902 11.868C149.782 11.74 149.722 11.584 149.722 11.4C149.722 11.208 149.782 11.052 149.902 10.932C150.03 10.812 150.182 10.752 150.358 10.752C150.534 10.752 150.682 10.812 150.802 10.932C150.93 11.052 150.994 11.208 150.994 11.4C150.994 11.584 150.93 11.74 150.802 11.868C150.682 11.996 150.534 12.06 150.358 12.06ZM152.901 12.06C152.725 12.06 152.573 11.996 152.445 11.868C152.325 11.74 152.265 11.584 152.265 11.4C152.265 11.208 152.325 11.052 152.445 10.932C152.573 10.812 152.725 10.752 152.901 10.752C153.077 10.752 153.225 10.812 153.345 10.932C153.473 11.052 153.537 11.208 153.537 11.4C153.537 11.584 153.473 11.74 153.345 11.868C153.225 11.996 153.077 12.06 152.901 12.06ZM155.444 12.06C155.268 12.06 155.116 11.996 154.988 11.868C154.868 11.74 154.808 11.584 154.808 11.4C154.808 11.208 154.868 11.052 154.988 10.932C155.116 10.812 155.268 10.752 155.444 10.752C155.62 10.752 155.768 10.812 155.888 10.932C156.016 11.052 156.08 11.208 156.08 11.4C156.08 11.584 156.016 11.74 155.888 11.868C155.768 11.996 155.62 12.06 155.444 12.06ZM157.987 12.06C157.811 12.06 157.659 11.996 157.531 11.868C157.411 11.74 157.351 11.584 157.351 11.4C157.351 11.208 157.411 11.052 157.531 10.932C157.659 10.812 157.811 10.752 157.987 10.752C158.163 10.752 158.311 10.812 158.431 10.932C158.559 11.052 158.623 11.208 158.623 11.4C158.623 11.584 158.559 11.74 158.431 11.868C158.311 11.996 158.163 12.06 157.987 12.06ZM160.53 12.06C160.354 12.06 160.202 11.996 160.074 11.868C159.954 11.74 159.894 11.584 159.894 11.4C159.894 11.208 159.954 11.052 160.074 10.932C160.202 10.812 160.354 10.752 160.53 10.752C160.706 10.752 160.854 10.812 160.974 10.932C161.102 11.052 161.166 11.208 161.166 11.4C161.166 11.584 161.102 11.74 160.974 11.868C160.854 11.996 160.706 12.06 160.53 12.06ZM163.073 12.06C162.897 12.06 162.745 11.996 162.617 11.868C162.497 11.74 162.437 11.584 162.437 11.4C162.437 11.208 162.497 11.052 162.617 10.932C162.745 10.812 162.897 10.752 163.073 10.752C163.249 10.752 163.397 10.812 163.517 10.932C163.645 11.052 163.709 11.208 163.709 11.4C163.709 11.584 163.645 11.74 163.517 11.868C163.397 11.996 163.249 12.06 163.073 12.06ZM165.616 12.06C165.44 12.06 165.288 11.996 165.16 11.868C165.04 11.74 164.98 11.584 164.98 11.4C164.98 11.208 165.04 11.052 165.16 10.932C165.288 10.812 165.44 10.752 165.616 10.752C165.792 10.752 165.94 10.812 166.06 10.932C166.188 11.052 166.252 11.208 166.252 11.4C166.252 11.584 166.188 11.74 166.06 11.868C165.94 11.996 165.792 12.06 165.616 12.06ZM168.159 12.06C167.983 12.06 167.831 11.996 167.703 11.868C167.583 11.74 167.523 11.584 167.523 11.4C167.523 11.208 167.583 11.052 167.703 10.932C167.831 10.812 167.983 10.752 168.159 10.752C168.335 10.752 168.483 10.812 168.603 10.932C168.731 11.052 168.795 11.208 168.795 11.4C168.795 11.584 168.731 11.74 168.603 11.868C168.483 11.996 168.335 12.06 168.159 12.06ZM170.702 12.06C170.526 12.06 170.374 11.996 170.246 11.868C170.126 11.74 170.066 11.584 170.066 11.4C170.066 11.208 170.126 11.052 170.246 10.932C170.374 10.812 170.526 10.752 170.702 10.752C170.878 10.752 171.026 10.812 171.146 10.932C171.274 11.052 171.338 11.208 171.338 11.4C171.338 11.584 171.274 11.74 171.146 11.868C171.026 11.996 170.878 12.06 170.702 12.06ZM173.245 12.06C173.069 12.06 172.917 11.996 172.789 11.868C172.669 11.74 172.609 11.584 172.609 11.4C172.609 11.208 172.669 11.052 172.789 10.932C172.917 10.812 173.069 10.752 173.245 10.752C173.421 10.752 173.569 10.812 173.689 10.932C173.817 11.052 173.881 11.208 173.881 11.4C173.881 11.584 173.817 11.74 173.689 11.868C173.569 11.996 173.421 12.06 173.245 12.06ZM175.788 12.06C175.612 12.06 175.46 11.996 175.332 11.868C175.212 11.74 175.152 11.584 175.152 11.4C175.152 11.208 175.212 11.052 175.332 10.932C175.46 10.812 175.612 10.752 175.788 10.752C175.964 10.752 176.112 10.812 176.232 10.932C176.36 11.052 176.424 11.208 176.424 11.4C176.424 11.584 176.36 11.74 176.232 11.868C176.112 11.996 175.964 12.06 175.788 12.06ZM178.331 12.06C178.155 12.06 178.003 11.996 177.875 11.868C177.755 11.74 177.695 11.584 177.695 11.4C177.695 11.208 177.755 11.052 177.875 10.932C178.003 10.812 178.155 10.752 178.331 10.752C178.507 10.752 178.655 10.812 178.775 10.932C178.903 11.052 178.967 11.208 178.967 11.4C178.967 11.584 178.903 11.74 178.775 11.868C178.655 11.996 178.507 12.06 178.331 12.06ZM180.874 12.06C180.698 12.06 180.546 11.996 180.418 11.868C180.298 11.74 180.238 11.584 180.238 11.4C180.238 11.208 180.298 11.052 180.418 10.932C180.546 10.812 180.698 10.752 180.874 10.752C181.05 10.752 181.198 10.812 181.318 10.932C181.446 11.052 181.51 11.208 181.51 11.4C181.51 11.584 181.446 11.74 181.318 11.868C181.198 11.996 181.05 12.06 180.874 12.06ZM183.417 12.06C183.241 12.06 183.089 11.996 182.961 11.868C182.841 11.74 182.781 11.584 182.781 11.4C182.781 11.208 182.841 11.052 182.961 10.932C183.089 10.812 183.241 10.752 183.417 10.752C183.593 10.752 183.741 10.812 183.861 10.932C183.989 11.052 184.053 11.208 184.053 11.4C184.053 11.584 183.989 11.74 183.861 11.868C183.741 11.996 183.593 12.06 183.417 12.06ZM185.96 12.06C185.784 12.06 185.632 11.996 185.504 11.868C185.384 11.74 185.324 11.584 185.324 11.4C185.324 11.208 185.384 11.052 185.504 10.932C185.632 10.812 185.784 10.752 185.96 10.752C186.136 10.752 186.284 10.812 186.404 10.932C186.532 11.052 186.596 11.208 186.596 11.4C186.596 11.584 186.532 11.74 186.404 11.868C186.284 11.996 186.136 12.06 185.96 12.06ZM188.502 12.06C188.326 12.06 188.174 11.996 188.046 11.868C187.926 11.74 187.866 11.584 187.866 11.4C187.866 11.208 187.926 11.052 188.046 10.932C188.174 10.812 188.326 10.752 188.502 10.752C188.678 10.752 188.826 10.812 188.946 10.932C189.074 11.052 189.138 11.208 189.138 11.4C189.138 11.584 189.074 11.74 188.946 11.868C188.826 11.996 188.678 12.06 188.502 12.06ZM191.045 12.06C190.869 12.06 190.717 11.996 190.589 11.868C190.469 11.74 190.409 11.584 190.409 11.4C190.409 11.208 190.469 11.052 190.589 10.932C190.717 10.812 190.869 10.752 191.045 10.752C191.221 10.752 191.369 10.812 191.489 10.932C191.617 11.052 191.681 11.208 191.681 11.4C191.681 11.584 191.617 11.74 191.489 11.868C191.369 11.996 191.221 12.06 191.045 12.06ZM193.588 12.06C193.412 12.06 193.26 11.996 193.132 11.868C193.012 11.74 192.952 11.584 192.952 11.4C192.952 11.208 193.012 11.052 193.132 10.932C193.26 10.812 193.412 10.752 193.588 10.752C193.764 10.752 193.912 10.812 194.032 10.932C194.16 11.052 194.224 11.208 194.224 11.4C194.224 11.584 194.16 11.74 194.032 11.868C193.912 11.996 193.764 12.06 193.588 12.06ZM196.131 12.06C195.955 12.06 195.803 11.996 195.675 11.868C195.555 11.74 195.495 11.584 195.495 11.4C195.495 11.208 195.555 11.052 195.675 10.932C195.803 10.812 195.955 10.752 196.131 10.752C196.307 10.752 196.455 10.812 196.575 10.932C196.703 11.052 196.767 11.208 196.767 11.4C196.767 11.584 196.703 11.74 196.575 11.868C196.455 11.996 196.307 12.06 196.131 12.06ZM198.674 12.06C198.498 12.06 198.346 11.996 198.218 11.868C198.098 11.74 198.038 11.584 198.038 11.4C198.038 11.208 198.098 11.052 198.218 10.932C198.346 10.812 198.498 10.752 198.674 10.752C198.85 10.752 198.998 10.812 199.118 10.932C199.246 11.052 199.31 11.208 199.31 11.4C199.31 11.584 199.246 11.74 199.118 11.868C198.998 11.996 198.85 12.06 198.674 12.06ZM201.217 12.06C201.041 12.06 200.889 11.996 200.761 11.868C200.641 11.74 200.581 11.584 200.581 11.4C200.581 11.208 200.641 11.052 200.761 10.932C200.889 10.812 201.041 10.752 201.217 10.752C201.393 10.752 201.541 10.812 201.661 10.932C201.789 11.052 201.853 11.208 201.853 11.4C201.853 11.584 201.789 11.74 201.661 11.868C201.541 11.996 201.393 12.06 201.217 12.06ZM203.76 12.06C203.584 12.06 203.432 11.996 203.304 11.868C203.184 11.74 203.124 11.584 203.124 11.4C203.124 11.208 203.184 11.052 203.304 10.932C203.432 10.812 203.584 10.752 203.76 10.752C203.936 10.752 204.084 10.812 204.204 10.932C204.332 11.052 204.396 11.208 204.396 11.4C204.396 11.584 204.332 11.74 204.204 11.868C204.084 11.996 203.936 12.06 203.76 12.06ZM206.303 12.06C206.127 12.06 205.975 11.996 205.847 11.868C205.727 11.74 205.667 11.584 205.667 11.4C205.667 11.208 205.727 11.052 205.847 10.932C205.975 10.812 206.127 10.752 206.303 10.752C206.479 10.752 206.627 10.812 206.747 10.932C206.875 11.052 206.939 11.208 206.939 11.4C206.939 11.584 206.875 11.74 206.747 11.868C206.627 11.996 206.479 12.06 206.303 12.06ZM208.846 12.06C208.67 12.06 208.518 11.996 208.39 11.868C208.27 11.74 208.21 11.584 208.21 11.4C208.21 11.208 208.27 11.052 208.39 10.932C208.518 10.812 208.67 10.752 208.846 10.752C209.022 10.752 209.17 10.812 209.29 10.932C209.418 11.052 209.482 11.208 209.482 11.4C209.482 11.584 209.418 11.74 209.29 11.868C209.17 11.996 209.022 12.06 208.846 12.06ZM211.389 12.06C211.213 12.06 211.061 11.996 210.933 11.868C210.813 11.74 210.753 11.584 210.753 11.4C210.753 11.208 210.813 11.052 210.933 10.932C211.061 10.812 211.213 10.752 211.389 10.752C211.565 10.752 211.713 10.812 211.833 10.932C211.961 11.052 212.025 11.208 212.025 11.4C212.025 11.584 211.961 11.74 211.833 11.868C211.713 11.996 211.565 12.06 211.389 12.06ZM213.932 12.06C213.756 12.06 213.604 11.996 213.476 11.868C213.356 11.74 213.296 11.584 213.296 11.4C213.296 11.208 213.356 11.052 213.476 10.932C213.604 10.812 213.756 10.752 213.932 10.752C214.108 10.752 214.256 10.812 214.376 10.932C214.504 11.052 214.568 11.208 214.568 11.4C214.568 11.584 214.504 11.74 214.376 11.868C214.256 11.996 214.108 12.06 213.932 12.06ZM216.475 12.06C216.299 12.06 216.147 11.996 216.019 11.868C215.899 11.74 215.839 11.584 215.839 11.4C215.839 11.208 215.899 11.052 216.019 10.932C216.147 10.812 216.299 10.752 216.475 10.752C216.651 10.752 216.799 10.812 216.919 10.932C217.047 11.052 217.111 11.208 217.111 11.4C217.111 11.584 217.047 11.74 216.919 11.868C216.799 11.996 216.651 12.06 216.475 12.06ZM219.018 12.06C218.842 12.06 218.69 11.996 218.562 11.868C218.442 11.74 218.382 11.584 218.382 11.4C218.382 11.208 218.442 11.052 218.562 10.932C218.69 10.812 218.842 10.752 219.018 10.752C219.194 10.752 219.342 10.812 219.462 10.932C219.59 11.052 219.654 11.208 219.654 11.4C219.654 11.584 219.59 11.74 219.462 11.868C219.342 11.996 219.194 12.06 219.018 12.06ZM221.561 12.06C221.385 12.06 221.233 11.996 221.105 11.868C220.985 11.74 220.925 11.584 220.925 11.4C220.925 11.208 220.985 11.052 221.105 10.932C221.233 10.812 221.385 10.752 221.561 10.752C221.737 10.752 221.885 10.812 222.005 10.932C222.133 11.052 222.197 11.208 222.197 11.4C222.197 11.584 222.133 11.74 222.005 11.868C221.885 11.996 221.737 12.06 221.561 12.06ZM224.104 12.06C223.928 12.06 223.776 11.996 223.648 11.868C223.528 11.74 223.468 11.584 223.468 11.4C223.468 11.208 223.528 11.052 223.648 10.932C223.776 10.812 223.928 10.752 224.104 10.752C224.28 10.752 224.428 10.812 224.548 10.932C224.676 11.052 224.74 11.208 224.74 11.4C224.74 11.584 224.676 11.74 224.548 11.868C224.428 11.996 224.28 12.06 224.104 12.06ZM226.647 12.06C226.471 12.06 226.319 11.996 226.191 11.868C226.071 11.74 226.011 11.584 226.011 11.4C226.011 11.208 226.071 11.052 226.191 10.932C226.319 10.812 226.471 10.752 226.647 10.752C226.823 10.752 226.971 10.812 227.091 10.932C227.219 11.052 227.283 11.208 227.283 11.4C227.283 11.584 227.219 11.74 227.091 11.868C226.971 11.996 226.823 12.06 226.647 12.06ZM229.19 12.06C229.014 12.06 228.862 11.996 228.734 11.868C228.614 11.74 228.554 11.584 228.554 11.4C228.554 11.208 228.614 11.052 228.734 10.932C228.862 10.812 229.014 10.752 229.19 10.752C229.366 10.752 229.514 10.812 229.634 10.932C229.762 11.052 229.826 11.208 229.826 11.4C229.826 11.584 229.762 11.74 229.634 11.868C229.514 11.996 229.366 12.06 229.19 12.06ZM231.733 12.06C231.557 12.06 231.405 11.996 231.277 11.868C231.157 11.74 231.097 11.584 231.097 11.4C231.097 11.208 231.157 11.052 231.277 10.932C231.405 10.812 231.557 10.752 231.733 10.752C231.909 10.752 232.057 10.812 232.177 10.932C232.305 11.052 232.369 11.208 232.369 11.4C232.369 11.584 232.305 11.74 232.177 11.868C232.057 11.996 231.909 12.06 231.733 12.06ZM234.276 12.06C234.1 12.06 233.948 11.996 233.82 11.868C233.7 11.74 233.64 11.584 233.64 11.4C233.64 11.208 233.7 11.052 233.82 10.932C233.948 10.812 234.1 10.752 234.276 10.752C234.452 10.752 234.6 10.812 234.72 10.932C234.848 11.052 234.912 11.208 234.912 11.4C234.912 11.584 234.848 11.74 234.72 11.868C234.6 11.996 234.452 12.06 234.276 12.06ZM236.819 12.06C236.643 12.06 236.491 11.996 236.363 11.868C236.243 11.74 236.183 11.584 236.183 11.4C236.183 11.208 236.243 11.052 236.363 10.932C236.491 10.812 236.643 10.752 236.819 10.752C236.995 10.752 237.143 10.812 237.263 10.932C237.391 11.052 237.455 11.208 237.455 11.4C237.455 11.584 237.391 11.74 237.263 11.868C237.143 11.996 236.995 12.06 236.819 12.06ZM239.362 12.06C239.186 12.06 239.034 11.996 238.906 11.868C238.786 11.74 238.726 11.584 238.726 11.4C238.726 11.208 238.786 11.052 238.906 10.932C239.034 10.812 239.186 10.752 239.362 10.752C239.538 10.752 239.686 10.812 239.806 10.932C239.934 11.052 239.998 11.208 239.998 11.4C239.998 11.584 239.934 11.74 239.806 11.868C239.686 11.996 239.538 12.06 239.362 12.06ZM241.905 12.06C241.729 12.06 241.577 11.996 241.449 11.868C241.329 11.74 241.269 11.584 241.269 11.4C241.269 11.208 241.329 11.052 241.449 10.932C241.577 10.812 241.729 10.752 241.905 10.752C242.081 10.752 242.229 10.812 242.349 10.932C242.477 11.052 242.541 11.208 242.541 11.4C242.541 11.584 242.477 11.74 242.349 11.868C242.229 11.996 242.081 12.06 241.905 12.06ZM244.448 12.06C244.272 12.06 244.12 11.996 243.992 11.868C243.872 11.74 243.812 11.584 243.812 11.4C243.812 11.208 243.872 11.052 243.992 10.932C244.12 10.812 244.272 10.752 244.448 10.752C244.624 10.752 244.772 10.812 244.892 10.932C245.02 11.052 245.084 11.208 245.084 11.4C245.084 11.584 245.02 11.74 244.892 11.868C244.772 11.996 244.624 12.06 244.448 12.06ZM246.991 12.06C246.815 12.06 246.663 11.996 246.535 11.868C246.415 11.74 246.355 11.584 246.355 11.4C246.355 11.208 246.415 11.052 246.535 10.932C246.663 10.812 246.815 10.752 246.991 10.752C247.167 10.752 247.315 10.812 247.435 10.932C247.563 11.052 247.627 11.208 247.627 11.4C247.627 11.584 247.563 11.74 247.435 11.868C247.315 11.996 247.167 12.06 246.991 12.06ZM249.534 12.06C249.358 12.06 249.206 11.996 249.078 11.868C248.958 11.74 248.898 11.584 248.898 11.4C248.898 11.208 248.958 11.052 249.078 10.932C249.206 10.812 249.358 10.752 249.534 10.752C249.71 10.752 249.858 10.812 249.978 10.932C250.106 11.052 250.17 11.208 250.17 11.4C250.17 11.584 250.106 11.74 249.978 11.868C249.858 11.996 249.71 12.06 249.534 12.06ZM252.077 12.06C251.901 12.06 251.749 11.996 251.621 11.868C251.501 11.74 251.441 11.584 251.441 11.4C251.441 11.208 251.501 11.052 251.621 10.932C251.749 10.812 251.901 10.752 252.077 10.752C252.253 10.752 252.401 10.812 252.521 10.932C252.649 11.052 252.713 11.208 252.713 11.4C252.713 11.584 252.649 11.74 252.521 11.868C252.401 11.996 252.253 12.06 252.077 12.06ZM254.62 12.06C254.444 12.06 254.292 11.996 254.164 11.868C254.044 11.74 253.984 11.584 253.984 11.4C253.984 11.208 254.044 11.052 254.164 10.932C254.292 10.812 254.444 10.752 254.62 10.752C254.796 10.752 254.944 10.812 255.064 10.932C255.192 11.052 255.256 11.208 255.256 11.4C255.256 11.584 255.192 11.74 255.064 11.868C254.944 11.996 254.796 12.06 254.62 12.06ZM257.163 12.06C256.987 12.06 256.835 11.996 256.707 11.868C256.587 11.74 256.527 11.584 256.527 11.4C256.527 11.208 256.587 11.052 256.707 10.932C256.835 10.812 256.987 10.752 257.163 10.752C257.339 10.752 257.487 10.812 257.607 10.932C257.735 11.052 257.799 11.208 257.799 11.4C257.799 11.584 257.735 11.74 257.607 11.868C257.487 11.996 257.339 12.06 257.163 12.06ZM259.706 12.06C259.53 12.06 259.378 11.996 259.25 11.868C259.13 11.74 259.07 11.584 259.07 11.4C259.07 11.208 259.13 11.052 259.25 10.932C259.378 10.812 259.53 10.752 259.706 10.752C259.882 10.752 260.03 10.812 260.15 10.932C260.278 11.052 260.342 11.208 260.342 11.4C260.342 11.584 260.278 11.74 260.15 11.868C260.03 11.996 259.882 12.06 259.706 12.06ZM262.249 12.06C262.073 12.06 261.921 11.996 261.793 11.868C261.673 11.74 261.613 11.584 261.613 11.4C261.613 11.208 261.673 11.052 261.793 10.932C261.921 10.812 262.073 10.752 262.249 10.752C262.425 10.752 262.573 10.812 262.693 10.932C262.821 11.052 262.885 11.208 262.885 11.4C262.885 11.584 262.821 11.74 262.693 11.868C262.573 11.996 262.425 12.06 262.249 12.06ZM264.792 12.06C264.616 12.06 264.464 11.996 264.336 11.868C264.216 11.74 264.156 11.584 264.156 11.4C264.156 11.208 264.216 11.052 264.336 10.932C264.464 10.812 264.616 10.752 264.792 10.752C264.968 10.752 265.116 10.812 265.236 10.932C265.364 11.052 265.428 11.208 265.428 11.4C265.428 11.584 265.364 11.74 265.236 11.868C265.116 11.996 264.968 12.06 264.792 12.06ZM267.335 12.06C267.159 12.06 267.007 11.996 266.879 11.868C266.759 11.74 266.699 11.584 266.699 11.4C266.699 11.208 266.759 11.052 266.879 10.932C267.007 10.812 267.159 10.752 267.335 10.752C267.511 10.752 267.659 10.812 267.779 10.932C267.907 11.052 267.971 11.208 267.971 11.4C267.971 11.584 267.907 11.74 267.779 11.868C267.659 11.996 267.511 12.06 267.335 12.06ZM269.877 12.06C269.701 12.06 269.549 11.996 269.421 11.868C269.301 11.74 269.241 11.584 269.241 11.4C269.241 11.208 269.301 11.052 269.421 10.932C269.549 10.812 269.701 10.752 269.877 10.752C270.053 10.752 270.201 10.812 270.321 10.932C270.449 11.052 270.513 11.208 270.513 11.4C270.513 11.584 270.449 11.74 270.321 11.868C270.201 11.996 270.053 12.06 269.877 12.06ZM272.42 12.06C272.244 12.06 272.092 11.996 271.964 11.868C271.844 11.74 271.784 11.584 271.784 11.4C271.784 11.208 271.844 11.052 271.964 10.932C272.092 10.812 272.244 10.752 272.42 10.752C272.596 10.752 272.744 10.812 272.864 10.932C272.992 11.052 273.056 11.208 273.056 11.4C273.056 11.584 272.992 11.74 272.864 11.868C272.744 11.996 272.596 12.06 272.42 12.06ZM274.963 12.06C274.787 12.06 274.635 11.996 274.507 11.868C274.387 11.74 274.327 11.584 274.327 11.4C274.327 11.208 274.387 11.052 274.507 10.932C274.635 10.812 274.787 10.752 274.963 10.752C275.139 10.752 275.287 10.812 275.407 10.932C275.535 11.052 275.599 11.208 275.599 11.4C275.599 11.584 275.535 11.74 275.407 11.868C275.287 11.996 275.139 12.06 274.963 12.06ZM277.506 12.06C277.33 12.06 277.178 11.996 277.05 11.868C276.93 11.74 276.87 11.584 276.87 11.4C276.87 11.208 276.93 11.052 277.05 10.932C277.178 10.812 277.33 10.752 277.506 10.752C277.682 10.752 277.83 10.812 277.95 10.932C278.078 11.052 278.142 11.208 278.142 11.4C278.142 11.584 278.078 11.74 277.95 11.868C277.83 11.996 277.682 12.06 277.506 12.06ZM280.049 12.06C279.873 12.06 279.721 11.996 279.593 11.868C279.473 11.74 279.413 11.584 279.413 11.4C279.413 11.208 279.473 11.052 279.593 10.932C279.721 10.812 279.873 10.752 280.049 10.752C280.225 10.752 280.373 10.812 280.493 10.932C280.621 11.052 280.685 11.208 280.685 11.4C280.685 11.584 280.621 11.74 280.493 11.868C280.373 11.996 280.225 12.06 280.049 12.06ZM282.592 12.06C282.416 12.06 282.264 11.996 282.136 11.868C282.016 11.74 281.956 11.584 281.956 11.4C281.956 11.208 282.016 11.052 282.136 10.932C282.264 10.812 282.416 10.752 282.592 10.752C282.768 10.752 282.916 10.812 283.036 10.932C283.164 11.052 283.228 11.208 283.228 11.4C283.228 11.584 283.164 11.74 283.036 11.868C282.916 11.996 282.768 12.06 282.592 12.06ZM285.135 12.06C284.959 12.06 284.807 11.996 284.679 11.868C284.559 11.74 284.499 11.584 284.499 11.4C284.499 11.208 284.559 11.052 284.679 10.932C284.807 10.812 284.959 10.752 285.135 10.752C285.311 10.752 285.459 10.812 285.579 10.932C285.707 11.052 285.771 11.208 285.771 11.4C285.771 11.584 285.707 11.74 285.579 11.868C285.459 11.996 285.311 12.06 285.135 12.06ZM287.678 12.06C287.502 12.06 287.35 11.996 287.222 11.868C287.102 11.74 287.042 11.584 287.042 11.4C287.042 11.208 287.102 11.052 287.222 10.932C287.35 10.812 287.502 10.752 287.678 10.752C287.854 10.752 288.002 10.812 288.122 10.932C288.25 11.052 288.314 11.208 288.314 11.4C288.314 11.584 288.25 11.74 288.122 11.868C288.002 11.996 287.854 12.06 287.678 12.06ZM290.221 12.06C290.045 12.06 289.893 11.996 289.765 11.868C289.645 11.74 289.585 11.584 289.585 11.4C289.585 11.208 289.645 11.052 289.765 10.932C289.893 10.812 290.045 10.752 290.221 10.752C290.397 10.752 290.545 10.812 290.665 10.932C290.793 11.052 290.857 11.208 290.857 11.4C290.857 11.584 290.793 11.74 290.665 11.868C290.545 11.996 290.397 12.06 290.221 12.06Z" fill="black"/>
</svg>
