<svg width="77" height="7" viewBox="0 0 77 7" fill="none" xmlns="http://www.w3.org/2000/svg">
<path id="250_ml_Glass_Round" d="M0.312 6V5.592L2.64 3.312C2.85333 3.104 3.01333 2.92267 3.12 2.768C3.22667 2.608 3.29867 2.45867 3.336 2.32C3.37333 2.18133 3.392 2.05067 3.392 1.928C3.392 1.60267 3.28 1.34667 3.056 1.16C2.83733 0.973333 2.512 0.88 2.08 0.88C1.74933 0.88 1.456 0.930666 1.2 1.032C0.949333 1.13333 0.733333 1.29067 0.552 1.504L0.144 1.152C0.362667 0.896 0.642667 0.698666 0.984 0.56C1.32533 0.421333 1.70667 0.352 2.128 0.352C2.50667 0.352 2.83467 0.413333 3.112 0.536C3.38933 0.653333 3.60267 0.826667 3.752 1.056C3.90667 1.28533 3.984 1.55467 3.984 1.864C3.984 2.04533 3.95733 2.224 3.904 2.4C3.856 2.576 3.76533 2.76267 3.632 2.96C3.504 3.152 3.31467 3.37067 3.064 3.616L0.928 5.712L0.768 5.488H4.24V6H0.312ZM6.73088 6.048C6.33088 6.048 5.94954 5.984 5.58688 5.856C5.22421 5.72267 4.93621 5.54667 4.72288 5.328L5.00288 4.872C5.17888 5.05867 5.41888 5.21333 5.72287 5.336C6.03221 5.45867 6.36554 5.52 6.72288 5.52C7.19754 5.52 7.55754 5.416 7.80288 5.208C8.05354 4.99467 8.17888 4.71733 8.17888 4.376C8.17888 4.136 8.12021 3.93067 8.00288 3.76C7.89088 3.584 7.69888 3.448 7.42688 3.352C7.15488 3.256 6.78154 3.208 6.30688 3.208H5.11488L5.40288 0.4H8.46688V0.912H5.63488L5.93088 0.632L5.68288 2.984L5.38688 2.696H6.43488C7.00021 2.696 7.45354 2.76533 7.79488 2.904C8.13621 3.04267 8.38154 3.23733 8.53088 3.488C8.68554 3.73333 8.76288 4.02133 8.76288 4.352C8.76288 4.66667 8.68821 4.95467 8.53888 5.216C8.38954 5.472 8.16554 5.67467 7.86688 5.824C7.56821 5.97333 7.18954 6.048 6.73088 6.048ZM11.7261 6.048C11.2941 6.048 10.9101 5.936 10.5741 5.712C10.2381 5.48267 9.97413 5.15733 9.78213 4.736C9.59013 4.30933 9.49413 3.79733 9.49413 3.2C9.49413 2.60267 9.59013 2.09333 9.78213 1.672C9.97413 1.24533 10.2381 0.92 10.5741 0.696C10.9101 0.466666 11.2941 0.352 11.7261 0.352C12.1581 0.352 12.5421 0.466666 12.8781 0.696C13.2141 0.92 13.4781 1.24533 13.6701 1.672C13.8675 2.09333 13.9661 2.60267 13.9661 3.2C13.9661 3.79733 13.8675 4.30933 13.6701 4.736C13.4781 5.15733 13.2141 5.48267 12.8781 5.712C12.5421 5.936 12.1581 6.048 11.7261 6.048ZM11.7261 5.52C12.0568 5.52 12.3448 5.432 12.5901 5.256C12.8355 5.07467 13.0275 4.81333 13.1661 4.472C13.3048 4.12533 13.3741 3.70133 13.3741 3.2C13.3741 2.69867 13.3048 2.27733 13.1661 1.936C13.0275 1.58933 12.8355 1.328 12.5901 1.152C12.3448 0.970666 12.0568 0.88 11.7261 0.88C11.4061 0.88 11.1208 0.970666 10.8701 1.152C10.6195 1.328 10.4248 1.58933 10.2861 1.936C10.1475 2.27733 10.0781 2.69867 10.0781 3.2C10.0781 3.70133 10.1475 4.12533 10.2861 4.472C10.4248 4.81333 10.6195 5.07467 10.8701 5.256C11.1208 5.432 11.4061 5.52 11.7261 5.52ZM20.415 1.76C20.7563 1.76 21.0523 1.82667 21.303 1.96C21.559 2.088 21.7563 2.28533 21.895 2.552C22.039 2.81867 22.111 3.15467 22.111 3.56V6H21.543V3.616C21.543 3.17333 21.4363 2.84 21.223 2.616C21.015 2.38667 20.719 2.272 20.335 2.272C20.047 2.272 19.7963 2.33333 19.583 2.456C19.375 2.57333 19.2123 2.74667 19.095 2.976C18.983 3.2 18.927 3.472 18.927 3.792V6H18.359V3.616C18.359 3.17333 18.2523 2.84 18.039 2.616C17.8257 2.38667 17.527 2.272 17.143 2.272C16.8603 2.272 16.6123 2.33333 16.399 2.456C16.1857 2.57333 16.0203 2.74667 15.903 2.976C15.791 3.2 15.735 3.472 15.735 3.792V6H15.167V1.8H15.711V2.936L15.623 2.736C15.751 2.432 15.9563 2.19467 16.239 2.024C16.527 1.848 16.8657 1.76 17.255 1.76C17.6657 1.76 18.015 1.864 18.303 2.072C18.591 2.27467 18.7777 2.58133 18.863 2.992L18.639 2.904C18.7617 2.56267 18.9777 2.288 19.287 2.08C19.6017 1.86667 19.9777 1.76 20.415 1.76ZM23.6514 6V0.0639997H24.2194V6H23.6514ZM30.4696 6.048C30.0429 6.048 29.6482 5.97867 29.2856 5.84C28.9282 5.696 28.6162 5.496 28.3496 5.24C28.0882 4.984 27.8829 4.68267 27.7336 4.336C27.5896 3.98933 27.5176 3.61067 27.5176 3.2C27.5176 2.78933 27.5896 2.41067 27.7336 2.064C27.8829 1.71733 28.0909 1.416 28.3576 1.16C28.6242 0.904 28.9362 0.706666 29.2936 0.568C29.6562 0.424 30.0509 0.352 30.4776 0.352C30.9042 0.352 31.2936 0.418666 31.6456 0.552C32.0029 0.685333 32.3069 0.888 32.5576 1.16L32.1896 1.536C31.9549 1.30133 31.6962 1.13333 31.4136 1.032C31.1309 0.930666 30.8269 0.88 30.5016 0.88C30.1549 0.88 29.8349 0.938666 29.5416 1.056C29.2536 1.168 29.0002 1.33067 28.7816 1.544C28.5682 1.752 28.4002 1.99733 28.2776 2.28C28.1602 2.55733 28.1016 2.864 28.1016 3.2C28.1016 3.53067 28.1602 3.83733 28.2776 4.12C28.4002 4.40267 28.5682 4.65067 28.7816 4.864C29.0002 5.072 29.2536 5.23467 29.5416 5.352C29.8349 5.464 30.1522 5.52 30.4936 5.52C30.8136 5.52 31.1149 5.472 31.3976 5.376C31.6856 5.28 31.9496 5.11733 32.1896 4.888L32.5256 5.336C32.2589 5.57067 31.9469 5.74933 31.5896 5.872C31.2322 5.98933 30.8589 6.048 30.4696 6.048ZM31.9576 5.264V3.2H32.5256V5.336L31.9576 5.264ZM34.0811 6V0.0639997H34.6491V6H34.0811ZM38.8615 6V5.072L38.8375 4.92V3.368C38.8375 3.01067 38.7362 2.736 38.5335 2.544C38.3362 2.352 38.0402 2.256 37.6455 2.256C37.3735 2.256 37.1148 2.30133 36.8695 2.392C36.6242 2.48267 36.4162 2.60267 36.2455 2.752L35.9895 2.328C36.2028 2.14667 36.4588 2.008 36.7575 1.912C37.0562 1.81067 37.3708 1.76 37.7015 1.76C38.2455 1.76 38.6642 1.896 38.9575 2.168C39.2562 2.43467 39.4055 2.84267 39.4055 3.392V6H38.8615ZM37.4135 6.04C37.0988 6.04 36.8242 5.98933 36.5895 5.888C36.3602 5.78133 36.1842 5.63733 36.0615 5.456C35.9388 5.26933 35.8775 5.056 35.8775 4.816C35.8775 4.59733 35.9282 4.4 36.0295 4.224C36.1362 4.04267 36.3068 3.89867 36.5415 3.792C36.7815 3.68 37.1015 3.624 37.5015 3.624H38.9495V4.048H37.5175C37.1122 4.048 36.8295 4.12 36.6695 4.264C36.5148 4.408 36.4375 4.58667 36.4375 4.8C36.4375 5.04 36.5308 5.232 36.7175 5.376C36.9042 5.52 37.1655 5.592 37.5015 5.592C37.8215 5.592 38.0962 5.52 38.3255 5.376C38.5602 5.22667 38.7308 5.01333 38.8375 4.736L38.9655 5.128C38.8588 5.40533 38.6722 5.62667 38.4055 5.792C38.1442 5.95733 37.8135 6.04 37.4135 6.04ZM42.0763 6.04C41.7296 6.04 41.4016 5.992 41.0923 5.896C40.7829 5.79467 40.5403 5.66933 40.3643 5.52L40.6203 5.072C40.7909 5.2 41.0096 5.312 41.2763 5.408C41.5429 5.49867 41.8229 5.544 42.1163 5.544C42.5163 5.544 42.8043 5.48267 42.9803 5.36C43.1563 5.232 43.2443 5.064 43.2443 4.856C43.2443 4.70133 43.1936 4.58133 43.0923 4.496C42.9963 4.40533 42.8683 4.33867 42.7083 4.296C42.5483 4.248 42.3696 4.208 42.1723 4.176C41.9749 4.144 41.7776 4.10667 41.5803 4.064C41.3883 4.02133 41.2123 3.96 41.0523 3.88C40.8923 3.79467 40.7616 3.68 40.6603 3.536C40.5643 3.392 40.5163 3.2 40.5163 2.96C40.5163 2.73067 40.5803 2.52533 40.7083 2.344C40.8363 2.16267 41.0229 2.02133 41.2683 1.92C41.5189 1.81333 41.8229 1.76 42.1803 1.76C42.4523 1.76 42.7243 1.79733 42.9963 1.872C43.2683 1.94133 43.4923 2.03467 43.6683 2.152L43.4203 2.608C43.2336 2.48 43.0336 2.38933 42.8203 2.336C42.6069 2.27733 42.3936 2.248 42.1803 2.248C41.8016 2.248 41.5216 2.31467 41.3403 2.448C41.1643 2.576 41.0763 2.74133 41.0763 2.944C41.0763 3.104 41.1243 3.22933 41.2203 3.32C41.3216 3.41067 41.4523 3.48267 41.6123 3.536C41.7776 3.584 41.9563 3.624 42.1483 3.656C42.3456 3.688 42.5403 3.728 42.7323 3.776C42.9296 3.81867 43.1083 3.88 43.2683 3.96C43.4336 4.03467 43.5643 4.144 43.6603 4.288C43.7616 4.42667 43.8123 4.61067 43.8123 4.84C43.8123 5.08533 43.7429 5.29867 43.6043 5.48C43.4709 5.656 43.2736 5.79467 43.0123 5.896C42.7563 5.992 42.4443 6.04 42.0763 6.04ZM45.9825 6.04C45.6358 6.04 45.3078 5.992 44.9985 5.896C44.6892 5.79467 44.4465 5.66933 44.2705 5.52L44.5265 5.072C44.6972 5.2 44.9158 5.312 45.1825 5.408C45.4492 5.49867 45.7292 5.544 46.0225 5.544C46.4225 5.544 46.7105 5.48267 46.8865 5.36C47.0625 5.232 47.1505 5.064 47.1505 4.856C47.1505 4.70133 47.0998 4.58133 46.9985 4.496C46.9025 4.40533 46.7745 4.33867 46.6145 4.296C46.4545 4.248 46.2758 4.208 46.0785 4.176C45.8812 4.144 45.6838 4.10667 45.4865 4.064C45.2945 4.02133 45.1185 3.96 44.9585 3.88C44.7985 3.79467 44.6678 3.68 44.5665 3.536C44.4705 3.392 44.4225 3.2 44.4225 2.96C44.4225 2.73067 44.4865 2.52533 44.6145 2.344C44.7425 2.16267 44.9292 2.02133 45.1745 1.92C45.4252 1.81333 45.7292 1.76 46.0865 1.76C46.3585 1.76 46.6305 1.79733 46.9025 1.872C47.1745 1.94133 47.3985 2.03467 47.5745 2.152L47.3265 2.608C47.1398 2.48 46.9398 2.38933 46.7265 2.336C46.5132 2.27733 46.2998 2.248 46.0865 2.248C45.7078 2.248 45.4278 2.31467 45.2465 2.448C45.0705 2.576 44.9825 2.74133 44.9825 2.944C44.9825 3.104 45.0305 3.22933 45.1265 3.32C45.2278 3.41067 45.3585 3.48267 45.5185 3.536C45.6838 3.584 45.8625 3.624 46.0545 3.656C46.2518 3.688 46.4465 3.728 46.6385 3.776C46.8358 3.81867 47.0145 3.88 47.1745 3.96C47.3398 4.03467 47.4705 4.144 47.5665 4.288C47.6678 4.42667 47.7185 4.61067 47.7185 4.84C47.7185 5.08533 47.6492 5.29867 47.5105 5.48C47.3772 5.656 47.1798 5.79467 46.9185 5.896C46.6625 5.992 46.3505 6.04 45.9825 6.04ZM50.9745 6V0.4H53.0705C53.5452 0.4 53.9532 0.477333 54.2945 0.632C54.6358 0.781333 54.8972 1 55.0785 1.288C55.2652 1.57067 55.3585 1.91467 55.3585 2.32C55.3585 2.71467 55.2652 3.056 55.0785 3.344C54.8972 3.62667 54.6358 3.84533 54.2945 4C53.9532 4.14933 53.5452 4.224 53.0705 4.224H51.3025L51.5665 3.952V6H50.9745ZM54.7985 6L53.3585 3.968H53.9985L55.4465 6H54.7985ZM51.5665 4L51.3025 3.72H53.0545C53.6145 3.72 54.0385 3.59733 54.3265 3.352C54.6198 3.10667 54.7665 2.76267 54.7665 2.32C54.7665 1.872 54.6198 1.52533 54.3265 1.28C54.0385 1.03467 53.6145 0.912 53.0545 0.912H51.3025L51.5665 0.632V4ZM58.3478 6.04C57.9424 6.04 57.5771 5.94933 57.2518 5.768C56.9318 5.58133 56.6784 5.328 56.4918 5.008C56.3051 4.68267 56.2118 4.312 56.2118 3.896C56.2118 3.47467 56.3051 3.104 56.4918 2.784C56.6784 2.464 56.9318 2.21333 57.2518 2.032C57.5718 1.85067 57.9371 1.76 58.3478 1.76C58.7638 1.76 59.1318 1.85067 59.4518 2.032C59.7771 2.21333 60.0304 2.464 60.2118 2.784C60.3984 3.104 60.4918 3.47467 60.4918 3.896C60.4918 4.312 60.3984 4.68267 60.2118 5.008C60.0304 5.328 59.7771 5.58133 59.4518 5.768C59.1264 5.94933 58.7584 6.04 58.3478 6.04ZM58.3478 5.536C58.6518 5.536 58.9211 5.46933 59.1558 5.336C59.3904 5.19733 59.5744 5.00533 59.7078 4.76C59.8464 4.50933 59.9158 4.22133 59.9158 3.896C59.9158 3.56533 59.8464 3.27733 59.7078 3.032C59.5744 2.78667 59.3904 2.59733 59.1558 2.464C58.9211 2.32533 58.6544 2.256 58.3558 2.256C58.0571 2.256 57.7904 2.32533 57.5558 2.464C57.3211 2.59733 57.1344 2.78667 56.9958 3.032C56.8571 3.27733 56.7878 3.56533 56.7878 3.896C56.7878 4.22133 56.8571 4.50933 56.9958 4.76C57.1344 5.00533 57.3211 5.19733 57.5558 5.336C57.7904 5.46933 58.0544 5.536 58.3478 5.536ZM63.3874 6.04C63.03 6.04 62.718 5.97333 62.4514 5.84C62.1847 5.70667 61.9767 5.50667 61.8274 5.24C61.6834 4.97333 61.6114 4.64 61.6114 4.24V1.8H62.1794V4.176C62.1794 4.624 62.2887 4.96267 62.5074 5.192C62.7314 5.416 63.0434 5.528 63.4434 5.528C63.7367 5.528 63.99 5.46933 64.2034 5.352C64.422 5.22933 64.5874 5.05333 64.6994 4.824C64.8167 4.59467 64.8754 4.32 64.8754 4V1.8H65.4434V6H64.8994V4.848L64.9874 5.056C64.854 5.36533 64.646 5.608 64.3634 5.784C64.086 5.95467 63.7607 6.04 63.3874 6.04ZM69.1704 1.76C69.5117 1.76 69.8104 1.82667 70.0664 1.96C70.3277 2.088 70.5304 2.28533 70.6744 2.552C70.8237 2.81867 70.8984 3.15467 70.8984 3.56V6H70.3304V3.616C70.3304 3.17333 70.2184 2.84 69.9944 2.616C69.7757 2.38667 69.4664 2.272 69.0664 2.272C68.7677 2.272 68.5064 2.33333 68.2824 2.456C68.0637 2.57333 67.893 2.74667 67.7704 2.976C67.653 3.2 67.5944 3.472 67.5944 3.792V6H67.0264V1.8H67.5704V2.952L67.4824 2.736C67.6157 2.432 67.829 2.19467 68.1224 2.024C68.4157 1.848 68.765 1.76 69.1704 1.76ZM74.1046 6.04C73.7046 6.04 73.3446 5.94933 73.0246 5.768C72.71 5.58667 72.462 5.336 72.2806 5.016C72.0993 4.69067 72.0086 4.31733 72.0086 3.896C72.0086 3.46933 72.0993 3.096 72.2806 2.776C72.462 2.456 72.71 2.208 73.0246 2.032C73.3446 1.85067 73.7046 1.76 74.1046 1.76C74.4726 1.76 74.8006 1.84267 75.0886 2.008C75.382 2.17333 75.614 2.416 75.7846 2.736C75.9606 3.05067 76.0486 3.43733 76.0486 3.896C76.0486 4.34933 75.9633 4.736 75.7926 5.056C75.622 5.376 75.39 5.62133 75.0966 5.792C74.8086 5.95733 74.478 6.04 74.1046 6.04ZM74.1446 5.536C74.4433 5.536 74.71 5.46933 74.9446 5.336C75.1846 5.19733 75.3713 5.00533 75.5046 4.76C75.6433 4.50933 75.7126 4.22133 75.7126 3.896C75.7126 3.56533 75.6433 3.27733 75.5046 3.032C75.3713 2.78667 75.1846 2.59733 74.9446 2.464C74.71 2.32533 74.4433 2.256 74.1446 2.256C73.8513 2.256 73.5873 2.32533 73.3526 2.464C73.118 2.59733 72.9313 2.78667 72.7926 3.032C72.654 3.27733 72.5846 3.56533 72.5846 3.896C72.5846 4.22133 72.654 4.50933 72.7926 4.76C72.9313 5.00533 73.118 5.19733 73.3526 5.336C73.5873 5.46933 73.8513 5.536 74.1446 5.536ZM75.7286 6V4.736L75.7846 3.888L75.7046 3.04V0.0639997H76.2726V6H75.7286Z" fill="black"/>
</svg>
