<svg width="322" height="19" viewBox="0 0 322 19" fill="none" xmlns="http://www.w3.org/2000/svg">
<path d="M0.312 14V13.592L2.64 11.312C2.85333 11.104 3.01333 10.9227 3.12 10.768C3.22667 10.608 3.29867 10.4587 3.336 10.32C3.37333 10.1813 3.392 10.0507 3.392 9.928C3.392 9.60267 3.28 9.34667 3.056 9.16C2.83733 8.97333 2.512 8.88 2.08 8.88C1.74933 8.88 1.456 8.93067 1.2 9.032C0.949333 9.13333 0.733333 9.29067 0.552 9.504L0.144 9.152C0.362667 8.896 0.642667 8.69867 0.984 8.56C1.32533 8.42133 1.70667 8.352 2.128 8.352C2.50667 8.352 2.83467 8.41333 3.112 8.536C3.38933 8.65333 3.60267 8.82667 3.752 9.056C3.90667 9.28533 3.984 9.55467 3.984 9.864C3.984 10.0453 3.95733 10.224 3.904 10.4C3.856 10.576 3.76533 10.7627 3.632 10.96C3.504 11.152 3.31467 11.3707 3.064 11.616L0.928 13.712L0.768 13.488H4.24V14H0.312ZM6.73088 14.048C6.33088 14.048 5.94954 13.984 5.58688 13.856C5.22421 13.7227 4.93621 13.5467 4.72288 13.328L5.00288 12.872C5.17888 13.0587 5.41888 13.2133 5.72287 13.336C6.03221 13.4587 6.36554 13.52 6.72288 13.52C7.19754 13.52 7.55754 13.416 7.80288 13.208C8.05354 12.9947 8.17888 12.7173 8.17888 12.376C8.17888 12.136 8.12021 11.9307 8.00288 11.76C7.89088 11.584 7.69888 11.448 7.42688 11.352C7.15488 11.256 6.78154 11.208 6.30688 11.208H5.11488L5.40288 8.4H8.46688V8.912H5.63488L5.93088 8.632L5.68288 10.984L5.38688 10.696H6.43488C7.00021 10.696 7.45354 10.7653 7.79488 10.904C8.13621 11.0427 8.38154 11.2373 8.53088 11.488C8.68554 11.7333 8.76288 12.0213 8.76288 12.352C8.76288 12.6667 8.68821 12.9547 8.53888 13.216C8.38954 13.472 8.16554 13.6747 7.86688 13.824C7.56821 13.9733 7.18954 14.048 6.73088 14.048ZM11.7261 14.048C11.2941 14.048 10.9101 13.936 10.5741 13.712C10.2381 13.4827 9.97413 13.1573 9.78213 12.736C9.59013 12.3093 9.49413 11.7973 9.49413 11.2C9.49413 10.6027 9.59013 10.0933 9.78213 9.672C9.97413 9.24533 10.2381 8.92 10.5741 8.696C10.9101 8.46667 11.2941 8.352 11.7261 8.352C12.1581 8.352 12.5421 8.46667 12.8781 8.696C13.2141 8.92 13.4781 9.24533 13.6701 9.672C13.8675 10.0933 13.9661 10.6027 13.9661 11.2C13.9661 11.7973 13.8675 12.3093 13.6701 12.736C13.4781 13.1573 13.2141 13.4827 12.8781 13.712C12.5421 13.936 12.1581 14.048 11.7261 14.048ZM11.7261 13.52C12.0568 13.52 12.3448 13.432 12.5901 13.256C12.8355 13.0747 13.0275 12.8133 13.1661 12.472C13.3048 12.1253 13.3741 11.7013 13.3741 11.2C13.3741 10.6987 13.3048 10.2773 13.1661 9.936C13.0275 9.58933 12.8355 9.328 12.5901 9.152C12.3448 8.97067 12.0568 8.88 11.7261 8.88C11.4061 8.88 11.1208 8.97067 10.8701 9.152C10.6195 9.328 10.4248 9.58933 10.2861 9.936C10.1475 10.2773 10.0781 10.6987 10.0781 11.2C10.0781 11.7013 10.1475 12.1253 10.2861 12.472C10.4248 12.8133 10.6195 13.0747 10.8701 13.256C11.1208 13.432 11.4061 13.52 11.7261 13.52ZM15.167 14V9.8H15.711V10.936L15.623 10.736C15.751 10.432 15.9563 10.1947 16.239 10.024C16.527 9.848 16.8657 9.76 17.255 9.76C17.6657 9.76 18.015 9.864 18.303 10.072C18.591 10.2747 18.7777 10.5813 18.863 10.992L18.639 10.904C18.7617 10.5627 18.9777 10.288 19.287 10.08C19.6017 9.86667 19.9777 9.76 20.415 9.76C20.7563 9.76 21.0523 9.82667 21.303 9.96C21.559 10.088 21.7563 10.2853 21.895 10.552C22.039 10.8187 22.111 11.1547 22.111 11.56V14H21.543V11.616C21.543 11.1733 21.4363 10.84 21.223 10.616C21.015 10.3867 20.719 10.272 20.335 10.272C20.047 10.272 19.7963 10.3333 19.583 10.456C19.375 10.5733 19.2123 10.7467 19.095 10.976C18.983 11.2 18.927 11.472 18.927 11.792V14H18.359V11.616C18.359 11.1733 18.2523 10.84 18.039 10.616C17.8257 10.3867 17.527 10.272 17.143 10.272C16.8603 10.272 16.6123 10.3333 16.399 10.456C16.1857 10.5733 16.0203 10.7467 15.903 10.976C15.791 11.2 15.735 11.472 15.735 11.792V14H15.167ZM23.6514 14V8.064H24.2194V14H23.6514ZM30.4696 14.048C30.0429 14.048 29.6482 13.9787 29.2856 13.84C28.9282 13.696 28.6162 13.496 28.3496 13.24C28.0882 12.984 27.8829 12.6827 27.7336 12.336C27.5896 11.9893 27.5176 11.6107 27.5176 11.2C27.5176 10.7893 27.5896 10.4107 27.7336 10.064C27.8829 9.71733 28.0909 9.416 28.3576 9.16C28.6242 8.904 28.9362 8.70667 29.2936 8.568C29.6562 8.424 30.0509 8.352 30.4776 8.352C30.9042 8.352 31.2936 8.41867 31.6456 8.552C32.0029 8.68533 32.3069 8.888 32.5576 9.16L32.1896 9.536C31.9549 9.30133 31.6962 9.13333 31.4136 9.032C31.1309 8.93067 30.8269 8.88 30.5016 8.88C30.1549 8.88 29.8349 8.93867 29.5416 9.056C29.2536 9.168 29.0002 9.33067 28.7816 9.544C28.5682 9.752 28.4002 9.99733 28.2776 10.28C28.1602 10.5573 28.1016 10.864 28.1016 11.2C28.1016 11.5307 28.1602 11.8373 28.2776 12.12C28.4002 12.4027 28.5682 12.6507 28.7816 12.864C29.0002 13.072 29.2536 13.2347 29.5416 13.352C29.8349 13.464 30.1522 13.52 30.4936 13.52C30.8136 13.52 31.1149 13.472 31.3976 13.376C31.6856 13.28 31.9496 13.1173 32.1896 12.888L32.5256 13.336C32.2589 13.5707 31.9469 13.7493 31.5896 13.872C31.2322 13.9893 30.8589 14.048 30.4696 14.048ZM32.5256 13.336L31.9576 13.264V11.2H32.5256V13.336ZM34.0811 14V8.064H34.6491V14H34.0811ZM38.8615 14V13.072L38.8375 12.92V11.368C38.8375 11.0107 38.7362 10.736 38.5335 10.544C38.3362 10.352 38.0402 10.256 37.6455 10.256C37.3735 10.256 37.1148 10.3013 36.8695 10.392C36.6242 10.4827 36.4162 10.6027 36.2455 10.752L35.9895 10.328C36.2028 10.1467 36.4588 10.008 36.7575 9.912C37.0562 9.81067 37.3708 9.76 37.7015 9.76C38.2455 9.76 38.6642 9.896 38.9575 10.168C39.2562 10.4347 39.4055 10.8427 39.4055 11.392V14H38.8615ZM37.4135 14.04C37.0988 14.04 36.8242 13.9893 36.5895 13.888C36.3602 13.7813 36.1842 13.6373 36.0615 13.456C35.9388 13.2693 35.8775 13.056 35.8775 12.816C35.8775 12.5973 35.9282 12.4 36.0295 12.224C36.1362 12.0427 36.3068 11.8987 36.5415 11.792C36.7815 11.68 37.1015 11.624 37.5015 11.624H38.9495V12.048H37.5175C37.1122 12.048 36.8295 12.12 36.6695 12.264C36.5148 12.408 36.4375 12.5867 36.4375 12.8C36.4375 13.04 36.5308 13.232 36.7175 13.376C36.9042 13.52 37.1655 13.592 37.5015 13.592C37.8215 13.592 38.0962 13.52 38.3255 13.376C38.5602 13.2267 38.7308 13.0133 38.8375 12.736L38.9655 13.128C38.8588 13.4053 38.6722 13.6267 38.4055 13.792C38.1442 13.9573 37.8135 14.04 37.4135 14.04ZM42.0763 14.04C41.7296 14.04 41.4016 13.992 41.0923 13.896C40.7829 13.7947 40.5403 13.6693 40.3643 13.52L40.6203 13.072C40.7909 13.2 41.0096 13.312 41.2763 13.408C41.5429 13.4987 41.8229 13.544 42.1163 13.544C42.5163 13.544 42.8043 13.4827 42.9803 13.36C43.1563 13.232 43.2443 13.064 43.2443 12.856C43.2443 12.7013 43.1936 12.5813 43.0923 12.496C42.9963 12.4053 42.8683 12.3387 42.7083 12.296C42.5483 12.248 42.3696 12.208 42.1723 12.176C41.9749 12.144 41.7776 12.1067 41.5803 12.064C41.3883 12.0213 41.2123 11.96 41.0523 11.88C40.8923 11.7947 40.7616 11.68 40.6603 11.536C40.5643 11.392 40.5163 11.2 40.5163 10.96C40.5163 10.7307 40.5803 10.5253 40.7083 10.344C40.8363 10.1627 41.0229 10.0213 41.2683 9.92C41.5189 9.81333 41.8229 9.76 42.1803 9.76C42.4523 9.76 42.7243 9.79733 42.9963 9.872C43.2683 9.94133 43.4923 10.0347 43.6683 10.152L43.4203 10.608C43.2336 10.48 43.0336 10.3893 42.8203 10.336C42.6069 10.2773 42.3936 10.248 42.1803 10.248C41.8016 10.248 41.5216 10.3147 41.3403 10.448C41.1643 10.576 41.0763 10.7413 41.0763 10.944C41.0763 11.104 41.1243 11.2293 41.2203 11.32C41.3216 11.4107 41.4523 11.4827 41.6123 11.536C41.7776 11.584 41.9563 11.624 42.1483 11.656C42.3456 11.688 42.5403 11.728 42.7323 11.776C42.9296 11.8187 43.1083 11.88 43.2683 11.96C43.4336 12.0347 43.5643 12.144 43.6603 12.288C43.7616 12.4267 43.8123 12.6107 43.8123 12.84C43.8123 13.0853 43.7429 13.2987 43.6043 13.48C43.4709 13.656 43.2736 13.7947 43.0123 13.896C42.7563 13.992 42.4443 14.04 42.0763 14.04ZM45.9825 14.04C45.6358 14.04 45.3078 13.992 44.9985 13.896C44.6892 13.7947 44.4465 13.6693 44.2705 13.52L44.5265 13.072C44.6972 13.2 44.9158 13.312 45.1825 13.408C45.4492 13.4987 45.7292 13.544 46.0225 13.544C46.4225 13.544 46.7105 13.4827 46.8865 13.36C47.0625 13.232 47.1505 13.064 47.1505 12.856C47.1505 12.7013 47.0998 12.5813 46.9985 12.496C46.9025 12.4053 46.7745 12.3387 46.6145 12.296C46.4545 12.248 46.2758 12.208 46.0785 12.176C45.8812 12.144 45.6838 12.1067 45.4865 12.064C45.2945 12.0213 45.1185 11.96 44.9585 11.88C44.7985 11.7947 44.6678 11.68 44.5665 11.536C44.4705 11.392 44.4225 11.2 44.4225 10.96C44.4225 10.7307 44.4865 10.5253 44.6145 10.344C44.7425 10.1627 44.9292 10.0213 45.1745 9.92C45.4252 9.81333 45.7292 9.76 46.0865 9.76C46.3585 9.76 46.6305 9.79733 46.9025 9.872C47.1745 9.94133 47.3985 10.0347 47.5745 10.152L47.3265 10.608C47.1398 10.48 46.9398 10.3893 46.7265 10.336C46.5132 10.2773 46.2998 10.248 46.0865 10.248C45.7078 10.248 45.4278 10.3147 45.2465 10.448C45.0705 10.576 44.9825 10.7413 44.9825 10.944C44.9825 11.104 45.0305 11.2293 45.1265 11.32C45.2278 11.4107 45.3585 11.4827 45.5185 11.536C45.6838 11.584 45.8625 11.624 46.0545 11.656C46.2518 11.688 46.4465 11.728 46.6385 11.776C46.8358 11.8187 47.0145 11.88 47.1745 11.96C47.3398 12.0347 47.4705 12.144 47.5665 12.288C47.6678 12.4267 47.7185 12.6107 47.7185 12.84C47.7185 13.0853 47.6492 13.2987 47.5105 13.48C47.3772 13.656 47.1798 13.7947 46.9185 13.896C46.6625 13.992 46.3505 14.04 45.9825 14.04ZM50.9745 14V8.4H53.0705C53.7798 8.4 54.3372 8.57067 54.7425 8.912C55.1532 9.248 55.3585 9.71733 55.3585 10.32C55.3585 10.7147 55.2652 11.056 55.0785 11.344C54.8972 11.6267 54.6358 11.8453 54.2945 12C53.9532 12.1493 53.5452 12.224 53.0705 12.224H51.3025L51.5665 11.952V14H50.9745ZM54.7985 14L53.3585 11.968H53.9985L55.4465 14H54.7985ZM51.5665 12L51.3025 11.72H53.0545C53.6145 11.72 54.0385 11.5973 54.3265 11.352C54.6198 11.1067 54.7665 10.7627 54.7665 10.32C54.7665 9.872 54.6198 9.52533 54.3265 9.28C54.0385 9.03467 53.6145 8.912 53.0545 8.912H51.3025L51.5665 8.632V12ZM58.3478 14.04C57.9424 14.04 57.5771 13.9493 57.2518 13.768C56.9318 13.5813 56.6784 13.328 56.4918 13.008C56.3051 12.6827 56.2118 12.312 56.2118 11.896C56.2118 11.4747 56.3051 11.104 56.4918 10.784C56.6784 10.464 56.9318 10.2133 57.2518 10.032C57.5718 9.85067 57.9371 9.76 58.3478 9.76C58.7638 9.76 59.1318 9.85067 59.4518 10.032C59.7771 10.2133 60.0304 10.464 60.2118 10.784C60.3984 11.104 60.4918 11.4747 60.4918 11.896C60.4918 12.312 60.3984 12.6827 60.2118 13.008C60.0304 13.328 59.7771 13.5813 59.4518 13.768C59.1264 13.9493 58.7584 14.04 58.3478 14.04ZM58.3478 13.536C58.6518 13.536 58.9211 13.4693 59.1558 13.336C59.3904 13.1973 59.5744 13.0053 59.7078 12.76C59.8464 12.5093 59.9158 12.2213 59.9158 11.896C59.9158 11.5653 59.8464 11.2773 59.7078 11.032C59.5744 10.7867 59.3904 10.5973 59.1558 10.464C58.9211 10.3253 58.6544 10.256 58.3558 10.256C58.0571 10.256 57.7904 10.3253 57.5558 10.464C57.3211 10.5973 57.1344 10.7867 56.9958 11.032C56.8571 11.2773 56.7878 11.5653 56.7878 11.896C56.7878 12.2213 56.8571 12.5093 56.9958 12.76C57.1344 13.0053 57.3211 13.1973 57.5558 13.336C57.7904 13.4693 58.0544 13.536 58.3478 13.536ZM63.3874 14.04C63.03 14.04 62.718 13.9733 62.4514 13.84C62.1847 13.7067 61.9767 13.5067 61.8274 13.24C61.6834 12.9733 61.6114 12.64 61.6114 12.24V9.8H62.1794V12.176C62.1794 12.624 62.2887 12.9627 62.5074 13.192C62.7314 13.416 63.0434 13.528 63.4434 13.528C63.7367 13.528 63.99 13.4693 64.2034 13.352C64.422 13.2293 64.5874 13.0533 64.6994 12.824C64.8167 12.5947 64.8754 12.32 64.8754 12V9.8H65.4434V14H64.8994V12.848L64.9874 13.056C64.854 13.3653 64.646 13.608 64.3634 13.784C64.086 13.9547 63.7607 14.04 63.3874 14.04ZM67.0264 14V9.8H67.5704V10.952L67.4824 10.736C67.6157 10.432 67.829 10.1947 68.1224 10.024C68.4157 9.848 68.765 9.76 69.1704 9.76C69.5117 9.76 69.8104 9.82667 70.0664 9.96C70.3277 10.088 70.5304 10.2853 70.6744 10.552C70.8237 10.8187 70.8984 11.1547 70.8984 11.56V14H70.3304V11.616C70.3304 11.1733 70.2184 10.84 69.9944 10.616C69.7757 10.3867 69.4664 10.272 69.0664 10.272C68.7677 10.272 68.5064 10.3333 68.2824 10.456C68.0637 10.5733 67.893 10.7467 67.7704 10.976C67.653 11.2 67.5944 11.472 67.5944 11.792V14H67.0264ZM74.1046 14.04C73.7046 14.04 73.3446 13.9493 73.0246 13.768C72.71 13.5867 72.462 13.336 72.2806 13.016C72.0993 12.6907 72.0086 12.3173 72.0086 11.896C72.0086 11.4693 72.0993 11.096 72.2806 10.776C72.462 10.456 72.71 10.208 73.0246 10.032C73.3446 9.85067 73.7046 9.76 74.1046 9.76C74.4726 9.76 74.8006 9.84267 75.0886 10.008C75.382 10.1733 75.614 10.416 75.7846 10.736C75.9606 11.0507 76.0486 11.4373 76.0486 11.896C76.0486 12.3493 75.9633 12.736 75.7926 13.056C75.622 13.376 75.39 13.6213 75.0966 13.792C74.8086 13.9573 74.478 14.04 74.1046 14.04ZM74.1446 13.536C74.4433 13.536 74.71 13.4693 74.9446 13.336C75.1846 13.1973 75.3713 13.0053 75.5046 12.76C75.6433 12.5093 75.7126 12.2213 75.7126 11.896C75.7126 11.5653 75.6433 11.2773 75.5046 11.032C75.3713 10.7867 75.1846 10.5973 74.9446 10.464C74.71 10.3253 74.4433 10.256 74.1446 10.256C73.8513 10.256 73.5873 10.3253 73.3526 10.464C73.118 10.5973 72.9313 10.7867 72.7926 11.032C72.654 11.2773 72.5846 11.5653 72.5846 11.896C72.5846 12.2213 72.654 12.5093 72.7926 12.76C72.9313 13.0053 73.118 13.1973 73.3526 13.336C73.5873 13.4693 73.8513 13.536 74.1446 13.536ZM75.7286 14V12.736L75.7846 11.888L75.7046 11.04V8.064H76.2726V14H75.7286Z" fill="black"/>
<path d="M306.855 15.048C306.423 15.048 306.039 14.936 305.703 14.712C305.367 14.4827 305.103 14.1573 304.911 13.736C304.719 13.3093 304.623 12.7973 304.623 12.2C304.623 11.6027 304.719 11.0933 304.911 10.672C305.103 10.2453 305.367 9.92 305.703 9.696C306.039 9.46667 306.423 9.352 306.855 9.352C307.287 9.352 307.671 9.46667 308.007 9.696C308.343 9.92 308.607 10.2453 308.799 10.672C308.996 11.0933 309.095 11.6027 309.095 12.2C309.095 12.7973 308.996 13.3093 308.799 13.736C308.607 14.1573 308.343 14.4827 308.007 14.712C307.671 14.936 307.287 15.048 306.855 15.048ZM306.855 14.52C307.186 14.52 307.474 14.432 307.719 14.256C307.964 14.0747 308.156 13.8133 308.295 13.472C308.434 13.1253 308.503 12.7013 308.503 12.2C308.503 11.6987 308.434 11.2773 308.295 10.936C308.156 10.5893 307.964 10.328 307.719 10.152C307.474 9.97067 307.186 9.88 306.855 9.88C306.535 9.88 306.25 9.97067 305.999 10.152C305.748 10.328 305.554 10.5893 305.415 10.936C305.276 11.2773 305.207 11.6987 305.207 12.2C305.207 12.7013 305.276 13.1253 305.415 13.472C305.554 13.8133 305.748 14.0747 305.999 14.256C306.25 14.432 306.535 14.52 306.855 14.52ZM309.824 13.528V13.112L312.792 9.4H313.432L310.488 13.112L310.176 13.016H314.68V13.528H309.824ZM312.984 15V13.528L313 13.016V11.72H313.56V15H312.984Z" fill="black"/>
<path d="M145.272 12.06C145.096 12.06 144.944 11.996 144.816 11.868C144.696 11.74 144.636 11.584 144.636 11.4C144.636 11.208 144.696 11.052 144.816 10.932C144.944 10.812 145.096 10.752 145.272 10.752C145.448 10.752 145.596 10.812 145.716 10.932C145.844 11.052 145.908 11.208 145.908 11.4C145.908 11.584 145.844 11.74 145.716 11.868C145.596 11.996 145.448 12.06 145.272 12.06ZM147.815 12.06C147.639 12.06 147.487 11.996 147.359 11.868C147.239 11.74 147.179 11.584 147.179 11.4C147.179 11.208 147.239 11.052 147.359 10.932C147.487 10.812 147.639 10.752 147.815 10.752C147.991 10.752 148.139 10.812 148.259 10.932C148.387 11.052 148.451 11.208 148.451 11.4C148.451 11.584 148.387 11.74 148.259 11.868C148.139 11.996 147.991 12.06 147.815 12.06ZM150.358 12.06C150.182 12.06 150.03 11.996 149.902 11.868C149.782 11.74 149.722 11.584 149.722 11.4C149.722 11.208 149.782 11.052 149.902 10.932C150.03 10.812 150.182 10.752 150.358 10.752C150.534 10.752 150.682 10.812 150.802 10.932C150.93 11.052 150.994 11.208 150.994 11.4C150.994 11.584 150.93 11.74 150.802 11.868C150.682 11.996 150.534 12.06 150.358 12.06ZM152.901 12.06C152.725 12.06 152.573 11.996 152.445 11.868C152.325 11.74 152.265 11.584 152.265 11.4C152.265 11.208 152.325 11.052 152.445 10.932C152.573 10.812 152.725 10.752 152.901 10.752C153.077 10.752 153.225 10.812 153.345 10.932C153.473 11.052 153.537 11.208 153.537 11.4C153.537 11.584 153.473 11.74 153.345 11.868C153.225 11.996 153.077 12.06 152.901 12.06ZM155.444 12.06C155.268 12.06 155.116 11.996 154.988 11.868C154.868 11.74 154.808 11.584 154.808 11.4C154.808 11.208 154.868 11.052 154.988 10.932C155.116 10.812 155.268 10.752 155.444 10.752C155.62 10.752 155.768 10.812 155.888 10.932C156.016 11.052 156.08 11.208 156.08 11.4C156.08 11.584 156.016 11.74 155.888 11.868C155.768 11.996 155.62 12.06 155.444 12.06ZM157.987 12.06C157.811 12.06 157.659 11.996 157.531 11.868C157.411 11.74 157.351 11.584 157.351 11.4C157.351 11.208 157.411 11.052 157.531 10.932C157.659 10.812 157.811 10.752 157.987 10.752C158.163 10.752 158.311 10.812 158.431 10.932C158.559 11.052 158.623 11.208 158.623 11.4C158.623 11.584 158.559 11.74 158.431 11.868C158.311 11.996 158.163 12.06 157.987 12.06ZM160.53 12.06C160.354 12.06 160.202 11.996 160.074 11.868C159.954 11.74 159.894 11.584 159.894 11.4C159.894 11.208 159.954 11.052 160.074 10.932C160.202 10.812 160.354 10.752 160.53 10.752C160.706 10.752 160.854 10.812 160.974 10.932C161.102 11.052 161.166 11.208 161.166 11.4C161.166 11.584 161.102 11.74 160.974 11.868C160.854 11.996 160.706 12.06 160.53 12.06ZM163.073 12.06C162.897 12.06 162.745 11.996 162.617 11.868C162.497 11.74 162.437 11.584 162.437 11.4C162.437 11.208 162.497 11.052 162.617 10.932C162.745 10.812 162.897 10.752 163.073 10.752C163.249 10.752 163.397 10.812 163.517 10.932C163.645 11.052 163.709 11.208 163.709 11.4C163.709 11.584 163.645 11.74 163.517 11.868C163.397 11.996 163.249 12.06 163.073 12.06ZM165.616 12.06C165.44 12.06 165.288 11.996 165.16 11.868C165.04 11.74 164.98 11.584 164.98 11.4C164.98 11.208 165.04 11.052 165.16 10.932C165.288 10.812 165.44 10.752 165.616 10.752C165.792 10.752 165.94 10.812 166.06 10.932C166.188 11.052 166.252 11.208 166.252 11.4C166.252 11.584 166.188 11.74 166.06 11.868C165.94 11.996 165.792 12.06 165.616 12.06ZM168.159 12.06C167.983 12.06 167.831 11.996 167.703 11.868C167.583 11.74 167.523 11.584 167.523 11.4C167.523 11.208 167.583 11.052 167.703 10.932C167.831 10.812 167.983 10.752 168.159 10.752C168.335 10.752 168.483 10.812 168.603 10.932C168.731 11.052 168.795 11.208 168.795 11.4C168.795 11.584 168.731 11.74 168.603 11.868C168.483 11.996 168.335 12.06 168.159 12.06ZM170.702 12.06C170.526 12.06 170.374 11.996 170.246 11.868C170.126 11.74 170.066 11.584 170.066 11.4C170.066 11.208 170.126 11.052 170.246 10.932C170.374 10.812 170.526 10.752 170.702 10.752C170.878 10.752 171.026 10.812 171.146 10.932C171.274 11.052 171.338 11.208 171.338 11.4C171.338 11.584 171.274 11.74 171.146 11.868C171.026 11.996 170.878 12.06 170.702 12.06ZM173.245 12.06C173.069 12.06 172.917 11.996 172.789 11.868C172.669 11.74 172.609 11.584 172.609 11.4C172.609 11.208 172.669 11.052 172.789 10.932C172.917 10.812 173.069 10.752 173.245 10.752C173.421 10.752 173.569 10.812 173.689 10.932C173.817 11.052 173.881 11.208 173.881 11.4C173.881 11.584 173.817 11.74 173.689 11.868C173.569 11.996 173.421 12.06 173.245 12.06ZM175.788 12.06C175.612 12.06 175.46 11.996 175.332 11.868C175.212 11.74 175.152 11.584 175.152 11.4C175.152 11.208 175.212 11.052 175.332 10.932C175.46 10.812 175.612 10.752 175.788 10.752C175.964 10.752 176.112 10.812 176.232 10.932C176.36 11.052 176.424 11.208 176.424 11.4C176.424 11.584 176.36 11.74 176.232 11.868C176.112 11.996 175.964 12.06 175.788 12.06ZM178.331 12.06C178.155 12.06 178.003 11.996 177.875 11.868C177.755 11.74 177.695 11.584 177.695 11.4C177.695 11.208 177.755 11.052 177.875 10.932C178.003 10.812 178.155 10.752 178.331 10.752C178.507 10.752 178.655 10.812 178.775 10.932C178.903 11.052 178.967 11.208 178.967 11.4C178.967 11.584 178.903 11.74 178.775 11.868C178.655 11.996 178.507 12.06 178.331 12.06ZM180.874 12.06C180.698 12.06 180.546 11.996 180.418 11.868C180.298 11.74 180.238 11.584 180.238 11.4C180.238 11.208 180.298 11.052 180.418 10.932C180.546 10.812 180.698 10.752 180.874 10.752C181.05 10.752 181.198 10.812 181.318 10.932C181.446 11.052 181.51 11.208 181.51 11.4C181.51 11.584 181.446 11.74 181.318 11.868C181.198 11.996 181.05 12.06 180.874 12.06ZM183.417 12.06C183.241 12.06 183.089 11.996 182.961 11.868C182.841 11.74 182.781 11.584 182.781 11.4C182.781 11.208 182.841 11.052 182.961 10.932C183.089 10.812 183.241 10.752 183.417 10.752C183.593 10.752 183.741 10.812 183.861 10.932C183.989 11.052 184.053 11.208 184.053 11.4C184.053 11.584 183.989 11.74 183.861 11.868C183.741 11.996 183.593 12.06 183.417 12.06ZM185.96 12.06C185.784 12.06 185.632 11.996 185.504 11.868C185.384 11.74 185.324 11.584 185.324 11.4C185.324 11.208 185.384 11.052 185.504 10.932C185.632 10.812 185.784 10.752 185.96 10.752C186.136 10.752 186.284 10.812 186.404 10.932C186.532 11.052 186.596 11.208 186.596 11.4C186.596 11.584 186.532 11.74 186.404 11.868C186.284 11.996 186.136 12.06 185.96 12.06ZM188.502 12.06C188.326 12.06 188.174 11.996 188.046 11.868C187.926 11.74 187.866 11.584 187.866 11.4C187.866 11.208 187.926 11.052 188.046 10.932C188.174 10.812 188.326 10.752 188.502 10.752C188.678 10.752 188.826 10.812 188.946 10.932C189.074 11.052 189.138 11.208 189.138 11.4C189.138 11.584 189.074 11.74 188.946 11.868C188.826 11.996 188.678 12.06 188.502 12.06ZM191.045 12.06C190.869 12.06 190.717 11.996 190.589 11.868C190.469 11.74 190.409 11.584 190.409 11.4C190.409 11.208 190.469 11.052 190.589 10.932C190.717 10.812 190.869 10.752 191.045 10.752C191.221 10.752 191.369 10.812 191.489 10.932C191.617 11.052 191.681 11.208 191.681 11.4C191.681 11.584 191.617 11.74 191.489 11.868C191.369 11.996 191.221 12.06 191.045 12.06ZM193.588 12.06C193.412 12.06 193.26 11.996 193.132 11.868C193.012 11.74 192.952 11.584 192.952 11.4C192.952 11.208 193.012 11.052 193.132 10.932C193.26 10.812 193.412 10.752 193.588 10.752C193.764 10.752 193.912 10.812 194.032 10.932C194.16 11.052 194.224 11.208 194.224 11.4C194.224 11.584 194.16 11.74 194.032 11.868C193.912 11.996 193.764 12.06 193.588 12.06ZM196.131 12.06C195.955 12.06 195.803 11.996 195.675 11.868C195.555 11.74 195.495 11.584 195.495 11.4C195.495 11.208 195.555 11.052 195.675 10.932C195.803 10.812 195.955 10.752 196.131 10.752C196.307 10.752 196.455 10.812 196.575 10.932C196.703 11.052 196.767 11.208 196.767 11.4C196.767 11.584 196.703 11.74 196.575 11.868C196.455 11.996 196.307 12.06 196.131 12.06ZM198.674 12.06C198.498 12.06 198.346 11.996 198.218 11.868C198.098 11.74 198.038 11.584 198.038 11.4C198.038 11.208 198.098 11.052 198.218 10.932C198.346 10.812 198.498 10.752 198.674 10.752C198.85 10.752 198.998 10.812 199.118 10.932C199.246 11.052 199.31 11.208 199.31 11.4C199.31 11.584 199.246 11.74 199.118 11.868C198.998 11.996 198.85 12.06 198.674 12.06ZM201.217 12.06C201.041 12.06 200.889 11.996 200.761 11.868C200.641 11.74 200.581 11.584 200.581 11.4C200.581 11.208 200.641 11.052 200.761 10.932C200.889 10.812 201.041 10.752 201.217 10.752C201.393 10.752 201.541 10.812 201.661 10.932C201.789 11.052 201.853 11.208 201.853 11.4C201.853 11.584 201.789 11.74 201.661 11.868C201.541 11.996 201.393 12.06 201.217 12.06ZM203.76 12.06C203.584 12.06 203.432 11.996 203.304 11.868C203.184 11.74 203.124 11.584 203.124 11.4C203.124 11.208 203.184 11.052 203.304 10.932C203.432 10.812 203.584 10.752 203.76 10.752C203.936 10.752 204.084 10.812 204.204 10.932C204.332 11.052 204.396 11.208 204.396 11.4C204.396 11.584 204.332 11.74 204.204 11.868C204.084 11.996 203.936 12.06 203.76 12.06ZM206.303 12.06C206.127 12.06 205.975 11.996 205.847 11.868C205.727 11.74 205.667 11.584 205.667 11.4C205.667 11.208 205.727 11.052 205.847 10.932C205.975 10.812 206.127 10.752 206.303 10.752C206.479 10.752 206.627 10.812 206.747 10.932C206.875 11.052 206.939 11.208 206.939 11.4C206.939 11.584 206.875 11.74 206.747 11.868C206.627 11.996 206.479 12.06 206.303 12.06ZM208.846 12.06C208.67 12.06 208.518 11.996 208.39 11.868C208.27 11.74 208.21 11.584 208.21 11.4C208.21 11.208 208.27 11.052 208.39 10.932C208.518 10.812 208.67 10.752 208.846 10.752C209.022 10.752 209.17 10.812 209.29 10.932C209.418 11.052 209.482 11.208 209.482 11.4C209.482 11.584 209.418 11.74 209.29 11.868C209.17 11.996 209.022 12.06 208.846 12.06ZM211.389 12.06C211.213 12.06 211.061 11.996 210.933 11.868C210.813 11.74 210.753 11.584 210.753 11.4C210.753 11.208 210.813 11.052 210.933 10.932C211.061 10.812 211.213 10.752 211.389 10.752C211.565 10.752 211.713 10.812 211.833 10.932C211.961 11.052 212.025 11.208 212.025 11.4C212.025 11.584 211.961 11.74 211.833 11.868C211.713 11.996 211.565 12.06 211.389 12.06ZM213.932 12.06C213.756 12.06 213.604 11.996 213.476 11.868C213.356 11.74 213.296 11.584 213.296 11.4C213.296 11.208 213.356 11.052 213.476 10.932C213.604 10.812 213.756 10.752 213.932 10.752C214.108 10.752 214.256 10.812 214.376 10.932C214.504 11.052 214.568 11.208 214.568 11.4C214.568 11.584 214.504 11.74 214.376 11.868C214.256 11.996 214.108 12.06 213.932 12.06ZM216.475 12.06C216.299 12.06 216.147 11.996 216.019 11.868C215.899 11.74 215.839 11.584 215.839 11.4C215.839 11.208 215.899 11.052 216.019 10.932C216.147 10.812 216.299 10.752 216.475 10.752C216.651 10.752 216.799 10.812 216.919 10.932C217.047 11.052 217.111 11.208 217.111 11.4C217.111 11.584 217.047 11.74 216.919 11.868C216.799 11.996 216.651 12.06 216.475 12.06ZM219.018 12.06C218.842 12.06 218.69 11.996 218.562 11.868C218.442 11.74 218.382 11.584 218.382 11.4C218.382 11.208 218.442 11.052 218.562 10.932C218.69 10.812 218.842 10.752 219.018 10.752C219.194 10.752 219.342 10.812 219.462 10.932C219.59 11.052 219.654 11.208 219.654 11.4C219.654 11.584 219.59 11.74 219.462 11.868C219.342 11.996 219.194 12.06 219.018 12.06ZM221.561 12.06C221.385 12.06 221.233 11.996 221.105 11.868C220.985 11.74 220.925 11.584 220.925 11.4C220.925 11.208 220.985 11.052 221.105 10.932C221.233 10.812 221.385 10.752 221.561 10.752C221.737 10.752 221.885 10.812 222.005 10.932C222.133 11.052 222.197 11.208 222.197 11.4C222.197 11.584 222.133 11.74 222.005 11.868C221.885 11.996 221.737 12.06 221.561 12.06ZM224.104 12.06C223.928 12.06 223.776 11.996 223.648 11.868C223.528 11.74 223.468 11.584 223.468 11.4C223.468 11.208 223.528 11.052 223.648 10.932C223.776 10.812 223.928 10.752 224.104 10.752C224.28 10.752 224.428 10.812 224.548 10.932C224.676 11.052 224.74 11.208 224.74 11.4C224.74 11.584 224.676 11.74 224.548 11.868C224.428 11.996 224.28 12.06 224.104 12.06ZM226.647 12.06C226.471 12.06 226.319 11.996 226.191 11.868C226.071 11.74 226.011 11.584 226.011 11.4C226.011 11.208 226.071 11.052 226.191 10.932C226.319 10.812 226.471 10.752 226.647 10.752C226.823 10.752 226.971 10.812 227.091 10.932C227.219 11.052 227.283 11.208 227.283 11.4C227.283 11.584 227.219 11.74 227.091 11.868C226.971 11.996 226.823 12.06 226.647 12.06ZM229.19 12.06C229.014 12.06 228.862 11.996 228.734 11.868C228.614 11.74 228.554 11.584 228.554 11.4C228.554 11.208 228.614 11.052 228.734 10.932C228.862 10.812 229.014 10.752 229.19 10.752C229.366 10.752 229.514 10.812 229.634 10.932C229.762 11.052 229.826 11.208 229.826 11.4C229.826 11.584 229.762 11.74 229.634 11.868C229.514 11.996 229.366 12.06 229.19 12.06ZM231.733 12.06C231.557 12.06 231.405 11.996 231.277 11.868C231.157 11.74 231.097 11.584 231.097 11.4C231.097 11.208 231.157 11.052 231.277 10.932C231.405 10.812 231.557 10.752 231.733 10.752C231.909 10.752 232.057 10.812 232.177 10.932C232.305 11.052 232.369 11.208 232.369 11.4C232.369 11.584 232.305 11.74 232.177 11.868C232.057 11.996 231.909 12.06 231.733 12.06ZM234.276 12.06C234.1 12.06 233.948 11.996 233.82 11.868C233.7 11.74 233.64 11.584 233.64 11.4C233.64 11.208 233.7 11.052 233.82 10.932C233.948 10.812 234.1 10.752 234.276 10.752C234.452 10.752 234.6 10.812 234.72 10.932C234.848 11.052 234.912 11.208 234.912 11.4C234.912 11.584 234.848 11.74 234.72 11.868C234.6 11.996 234.452 12.06 234.276 12.06ZM236.819 12.06C236.643 12.06 236.491 11.996 236.363 11.868C236.243 11.74 236.183 11.584 236.183 11.4C236.183 11.208 236.243 11.052 236.363 10.932C236.491 10.812 236.643 10.752 236.819 10.752C236.995 10.752 237.143 10.812 237.263 10.932C237.391 11.052 237.455 11.208 237.455 11.4C237.455 11.584 237.391 11.74 237.263 11.868C237.143 11.996 236.995 12.06 236.819 12.06ZM239.362 12.06C239.186 12.06 239.034 11.996 238.906 11.868C238.786 11.74 238.726 11.584 238.726 11.4C238.726 11.208 238.786 11.052 238.906 10.932C239.034 10.812 239.186 10.752 239.362 10.752C239.538 10.752 239.686 10.812 239.806 10.932C239.934 11.052 239.998 11.208 239.998 11.4C239.998 11.584 239.934 11.74 239.806 11.868C239.686 11.996 239.538 12.06 239.362 12.06ZM241.905 12.06C241.729 12.06 241.577 11.996 241.449 11.868C241.329 11.74 241.269 11.584 241.269 11.4C241.269 11.208 241.329 11.052 241.449 10.932C241.577 10.812 241.729 10.752 241.905 10.752C242.081 10.752 242.229 10.812 242.349 10.932C242.477 11.052 242.541 11.208 242.541 11.4C242.541 11.584 242.477 11.74 242.349 11.868C242.229 11.996 242.081 12.06 241.905 12.06ZM244.448 12.06C244.272 12.06 244.12 11.996 243.992 11.868C243.872 11.74 243.812 11.584 243.812 11.4C243.812 11.208 243.872 11.052 243.992 10.932C244.12 10.812 244.272 10.752 244.448 10.752C244.624 10.752 244.772 10.812 244.892 10.932C245.02 11.052 245.084 11.208 245.084 11.4C245.084 11.584 245.02 11.74 244.892 11.868C244.772 11.996 244.624 12.06 244.448 12.06ZM246.991 12.06C246.815 12.06 246.663 11.996 246.535 11.868C246.415 11.74 246.355 11.584 246.355 11.4C246.355 11.208 246.415 11.052 246.535 10.932C246.663 10.812 246.815 10.752 246.991 10.752C247.167 10.752 247.315 10.812 247.435 10.932C247.563 11.052 247.627 11.208 247.627 11.4C247.627 11.584 247.563 11.74 247.435 11.868C247.315 11.996 247.167 12.06 246.991 12.06ZM249.534 12.06C249.358 12.06 249.206 11.996 249.078 11.868C248.958 11.74 248.898 11.584 248.898 11.4C248.898 11.208 248.958 11.052 249.078 10.932C249.206 10.812 249.358 10.752 249.534 10.752C249.71 10.752 249.858 10.812 249.978 10.932C250.106 11.052 250.17 11.208 250.17 11.4C250.17 11.584 250.106 11.74 249.978 11.868C249.858 11.996 249.71 12.06 249.534 12.06ZM252.077 12.06C251.901 12.06 251.749 11.996 251.621 11.868C251.501 11.74 251.441 11.584 251.441 11.4C251.441 11.208 251.501 11.052 251.621 10.932C251.749 10.812 251.901 10.752 252.077 10.752C252.253 10.752 252.401 10.812 252.521 10.932C252.649 11.052 252.713 11.208 252.713 11.4C252.713 11.584 252.649 11.74 252.521 11.868C252.401 11.996 252.253 12.06 252.077 12.06ZM254.62 12.06C254.444 12.06 254.292 11.996 254.164 11.868C254.044 11.74 253.984 11.584 253.984 11.4C253.984 11.208 254.044 11.052 254.164 10.932C254.292 10.812 254.444 10.752 254.62 10.752C254.796 10.752 254.944 10.812 255.064 10.932C255.192 11.052 255.256 11.208 255.256 11.4C255.256 11.584 255.192 11.74 255.064 11.868C254.944 11.996 254.796 12.06 254.62 12.06ZM257.163 12.06C256.987 12.06 256.835 11.996 256.707 11.868C256.587 11.74 256.527 11.584 256.527 11.4C256.527 11.208 256.587 11.052 256.707 10.932C256.835 10.812 256.987 10.752 257.163 10.752C257.339 10.752 257.487 10.812 257.607 10.932C257.735 11.052 257.799 11.208 257.799 11.4C257.799 11.584 257.735 11.74 257.607 11.868C257.487 11.996 257.339 12.06 257.163 12.06ZM259.706 12.06C259.53 12.06 259.378 11.996 259.25 11.868C259.13 11.74 259.07 11.584 259.07 11.4C259.07 11.208 259.13 11.052 259.25 10.932C259.378 10.812 259.53 10.752 259.706 10.752C259.882 10.752 260.03 10.812 260.15 10.932C260.278 11.052 260.342 11.208 260.342 11.4C260.342 11.584 260.278 11.74 260.15 11.868C260.03 11.996 259.882 12.06 259.706 12.06ZM262.249 12.06C262.073 12.06 261.921 11.996 261.793 11.868C261.673 11.74 261.613 11.584 261.613 11.4C261.613 11.208 261.673 11.052 261.793 10.932C261.921 10.812 262.073 10.752 262.249 10.752C262.425 10.752 262.573 10.812 262.693 10.932C262.821 11.052 262.885 11.208 262.885 11.4C262.885 11.584 262.821 11.74 262.693 11.868C262.573 11.996 262.425 12.06 262.249 12.06ZM264.792 12.06C264.616 12.06 264.464 11.996 264.336 11.868C264.216 11.74 264.156 11.584 264.156 11.4C264.156 11.208 264.216 11.052 264.336 10.932C264.464 10.812 264.616 10.752 264.792 10.752C264.968 10.752 265.116 10.812 265.236 10.932C265.364 11.052 265.428 11.208 265.428 11.4C265.428 11.584 265.364 11.74 265.236 11.868C265.116 11.996 264.968 12.06 264.792 12.06ZM267.335 12.06C267.159 12.06 267.007 11.996 266.879 11.868C266.759 11.74 266.699 11.584 266.699 11.4C266.699 11.208 266.759 11.052 266.879 10.932C267.007 10.812 267.159 10.752 267.335 10.752C267.511 10.752 267.659 10.812 267.779 10.932C267.907 11.052 267.971 11.208 267.971 11.4C267.971 11.584 267.907 11.74 267.779 11.868C267.659 11.996 267.511 12.06 267.335 12.06ZM269.877 12.06C269.701 12.06 269.549 11.996 269.421 11.868C269.301 11.74 269.241 11.584 269.241 11.4C269.241 11.208 269.301 11.052 269.421 10.932C269.549 10.812 269.701 10.752 269.877 10.752C270.053 10.752 270.201 10.812 270.321 10.932C270.449 11.052 270.513 11.208 270.513 11.4C270.513 11.584 270.449 11.74 270.321 11.868C270.201 11.996 270.053 12.06 269.877 12.06ZM272.42 12.06C272.244 12.06 272.092 11.996 271.964 11.868C271.844 11.74 271.784 11.584 271.784 11.4C271.784 11.208 271.844 11.052 271.964 10.932C272.092 10.812 272.244 10.752 272.42 10.752C272.596 10.752 272.744 10.812 272.864 10.932C272.992 11.052 273.056 11.208 273.056 11.4C273.056 11.584 272.992 11.74 272.864 11.868C272.744 11.996 272.596 12.06 272.42 12.06ZM274.963 12.06C274.787 12.06 274.635 11.996 274.507 11.868C274.387 11.74 274.327 11.584 274.327 11.4C274.327 11.208 274.387 11.052 274.507 10.932C274.635 10.812 274.787 10.752 274.963 10.752C275.139 10.752 275.287 10.812 275.407 10.932C275.535 11.052 275.599 11.208 275.599 11.4C275.599 11.584 275.535 11.74 275.407 11.868C275.287 11.996 275.139 12.06 274.963 12.06ZM277.506 12.06C277.33 12.06 277.178 11.996 277.05 11.868C276.93 11.74 276.87 11.584 276.87 11.4C276.87 11.208 276.93 11.052 277.05 10.932C277.178 10.812 277.33 10.752 277.506 10.752C277.682 10.752 277.83 10.812 277.95 10.932C278.078 11.052 278.142 11.208 278.142 11.4C278.142 11.584 278.078 11.74 277.95 11.868C277.83 11.996 277.682 12.06 277.506 12.06ZM280.049 12.06C279.873 12.06 279.721 11.996 279.593 11.868C279.473 11.74 279.413 11.584 279.413 11.4C279.413 11.208 279.473 11.052 279.593 10.932C279.721 10.812 279.873 10.752 280.049 10.752C280.225 10.752 280.373 10.812 280.493 10.932C280.621 11.052 280.685 11.208 280.685 11.4C280.685 11.584 280.621 11.74 280.493 11.868C280.373 11.996 280.225 12.06 280.049 12.06ZM282.592 12.06C282.416 12.06 282.264 11.996 282.136 11.868C282.016 11.74 281.956 11.584 281.956 11.4C281.956 11.208 282.016 11.052 282.136 10.932C282.264 10.812 282.416 10.752 282.592 10.752C282.768 10.752 282.916 10.812 283.036 10.932C283.164 11.052 283.228 11.208 283.228 11.4C283.228 11.584 283.164 11.74 283.036 11.868C282.916 11.996 282.768 12.06 282.592 12.06ZM285.135 12.06C284.959 12.06 284.807 11.996 284.679 11.868C284.559 11.74 284.499 11.584 284.499 11.4C284.499 11.208 284.559 11.052 284.679 10.932C284.807 10.812 284.959 10.752 285.135 10.752C285.311 10.752 285.459 10.812 285.579 10.932C285.707 11.052 285.771 11.208 285.771 11.4C285.771 11.584 285.707 11.74 285.579 11.868C285.459 11.996 285.311 12.06 285.135 12.06ZM287.678 12.06C287.502 12.06 287.35 11.996 287.222 11.868C287.102 11.74 287.042 11.584 287.042 11.4C287.042 11.208 287.102 11.052 287.222 10.932C287.35 10.812 287.502 10.752 287.678 10.752C287.854 10.752 288.002 10.812 288.122 10.932C288.25 11.052 288.314 11.208 288.314 11.4C288.314 11.584 288.25 11.74 288.122 11.868C288.002 11.996 287.854 12.06 287.678 12.06ZM290.221 12.06C290.045 12.06 289.893 11.996 289.765 11.868C289.645 11.74 289.585 11.584 289.585 11.4C289.585 11.208 289.645 11.052 289.765 10.932C289.893 10.812 290.045 10.752 290.221 10.752C290.397 10.752 290.545 10.812 290.665 10.932C290.793 11.052 290.857 11.208 290.857 11.4C290.857 11.584 290.793 11.74 290.665 11.868C290.545 11.996 290.397 12.06 290.221 12.06Z" fill="black"/>
</svg>
