<svg width="322" height="18" viewBox="0 0 322 18" fill="none" xmlns="http://www.w3.org/2000/svg">
<path d="M2 12V6.912H0.032V6.4H4.56V6.912H2.592V12H2ZM6.03375 8.904H8.99375V9.408H6.03375V8.904ZM6.09775 11.488H9.46575V12H5.50575V6.4H9.34575V6.912H6.09775V11.488ZM12.3511 12V11.592L14.6791 9.312C14.8924 9.104 15.0524 8.92267 15.1591 8.768C15.2657 8.608 15.3377 8.45867 15.3751 8.32C15.4124 8.18133 15.4311 8.05067 15.4311 7.928C15.4311 7.60267 15.3191 7.34667 15.0951 7.16C14.8764 6.97333 14.5511 6.88 14.1191 6.88C13.7884 6.88 13.4951 6.93067 13.2391 7.032C12.9884 7.13333 12.7724 7.29067 12.5911 7.504L12.1831 7.152C12.4017 6.896 12.6817 6.69867 13.0231 6.56C13.3644 6.42133 13.7457 6.352 14.1671 6.352C14.5457 6.352 14.8737 6.41333 15.1511 6.536C15.4284 6.65333 15.6417 6.82667 15.7911 7.056C15.9457 7.28533 16.0231 7.55467 16.0231 7.864C16.0231 8.04533 15.9964 8.224 15.9431 8.4C15.8951 8.576 15.8044 8.76267 15.6711 8.96C15.5431 9.152 15.3537 9.37067 15.1031 9.616L12.9671 11.712L12.8071 11.488H16.2791V12H12.3511ZM18.7699 12.048C18.3699 12.048 17.9886 11.984 17.6259 11.856C17.2633 11.7227 16.9753 11.5467 16.7619 11.328L17.0419 10.872C17.2179 11.0587 17.4579 11.2133 17.7619 11.336C18.0713 11.4587 18.4046 11.52 18.7619 11.52C19.2366 11.52 19.5966 11.416 19.8419 11.208C20.0926 10.9947 20.2179 10.7173 20.2179 10.376C20.2179 10.136 20.1593 9.93067 20.0419 9.76C19.9299 9.584 19.7379 9.448 19.4659 9.352C19.1939 9.256 18.8206 9.208 18.3459 9.208H17.1539L17.4419 6.4H20.5059V6.912H17.6739L17.9699 6.632L17.7219 8.984L17.4259 8.696H18.4739C19.0393 8.696 19.4926 8.76533 19.8339 8.904C20.1753 9.04267 20.4206 9.23733 20.5699 9.488C20.7246 9.73333 20.8019 10.0213 20.8019 10.352C20.8019 10.6667 20.7273 10.9547 20.5779 11.216C20.4286 11.472 20.2046 11.6747 19.9059 11.824C19.6073 11.9733 19.2286 12.048 18.7699 12.048ZM23.7652 12.048C23.3332 12.048 22.9492 11.936 22.6132 11.712C22.2772 11.4827 22.0132 11.1573 21.8212 10.736C21.6292 10.3093 21.5332 9.79733 21.5332 9.2C21.5332 8.60267 21.6292 8.09333 21.8212 7.672C22.0132 7.24533 22.2772 6.92 22.6132 6.696C22.9492 6.46667 23.3332 6.352 23.7652 6.352C24.1972 6.352 24.5812 6.46667 24.9172 6.696C25.2532 6.92 25.5172 7.24533 25.7092 7.672C25.9065 8.09333 26.0052 8.60267 26.0052 9.2C26.0052 9.79733 25.9065 10.3093 25.7092 10.736C25.5172 11.1573 25.2532 11.4827 24.9172 11.712C24.5812 11.936 24.1972 12.048 23.7652 12.048ZM23.7652 11.52C24.0959 11.52 24.3839 11.432 24.6292 11.256C24.8745 11.0747 25.0665 10.8133 25.2052 10.472C25.3439 10.1253 25.4132 9.70133 25.4132 9.2C25.4132 8.69867 25.3439 8.27733 25.2052 7.936C25.0665 7.58933 24.8745 7.328 24.6292 7.152C24.3839 6.97067 24.0959 6.88 23.7652 6.88C23.4452 6.88 23.1599 6.97067 22.9092 7.152C22.6585 7.328 22.4639 7.58933 22.3252 7.936C22.1865 8.27733 22.1172 8.69867 22.1172 9.2C22.1172 9.70133 22.1865 10.1253 22.3252 10.472C22.4639 10.8133 22.6585 11.0747 22.9092 11.256C23.1599 11.432 23.4452 11.52 23.7652 11.52ZM28.9981 13.592C28.6141 13.592 28.2461 13.536 27.8941 13.424C27.5421 13.312 27.2567 13.152 27.0381 12.944L27.3261 12.512C27.5234 12.688 27.7661 12.8267 28.0541 12.928C28.3474 13.0347 28.6567 13.088 28.9821 13.088C29.5154 13.088 29.9074 12.9627 30.1581 12.712C30.4087 12.4667 30.5341 12.0827 30.5341 11.56V10.512L30.6141 9.792L30.5581 9.072V7.8H31.1021V11.488C31.1021 12.2133 30.9234 12.744 30.5661 13.08C30.2141 13.4213 29.6914 13.592 28.9981 13.592ZM28.8941 11.84C28.4941 11.84 28.1341 11.7547 27.8141 11.584C27.4941 11.408 27.2407 11.1653 27.0541 10.856C26.8727 10.5467 26.7821 10.192 26.7821 9.792C26.7821 9.392 26.8727 9.04 27.0541 8.736C27.2407 8.42667 27.4941 8.18667 27.8141 8.016C28.1341 7.84533 28.4941 7.76 28.8941 7.76C29.2674 7.76 29.6034 7.83733 29.9021 7.992C30.2007 8.14667 30.4381 8.376 30.6141 8.68C30.7901 8.984 30.8781 9.35467 30.8781 9.792C30.8781 10.2293 30.7901 10.6 30.6141 10.904C30.4381 11.208 30.2007 11.44 29.9021 11.6C29.6034 11.76 29.2674 11.84 28.8941 11.84ZM28.9501 11.336C29.2594 11.336 29.5341 11.272 29.7741 11.144C30.0141 11.0107 30.2034 10.8293 30.3421 10.6C30.4807 10.3653 30.5501 10.096 30.5501 9.792C30.5501 9.488 30.4807 9.22133 30.3421 8.992C30.2034 8.76267 30.0141 8.584 29.7741 8.456C29.5341 8.32267 29.2594 8.256 28.9501 8.256C28.6461 8.256 28.3714 8.32267 28.1261 8.456C27.8861 8.584 27.6967 8.76267 27.5581 8.992C27.4247 9.22133 27.3581 9.488 27.3581 9.792C27.3581 10.096 27.4247 10.3653 27.5581 10.6C27.6967 10.8293 27.8861 11.0107 28.1261 11.144C28.3714 11.272 28.6461 11.336 28.9501 11.336ZM37.9306 7.76C38.272 7.76 38.568 7.82667 38.8186 7.96C39.0746 8.088 39.272 8.28533 39.4106 8.552C39.5546 8.81867 39.6266 9.15467 39.6266 9.56V12H39.0586V9.616C39.0586 9.17333 38.952 8.84 38.7386 8.616C38.5306 8.38667 38.2346 8.272 37.8506 8.272C37.5626 8.272 37.312 8.33333 37.0986 8.456C36.8906 8.57333 36.728 8.74667 36.6106 8.976C36.4986 9.2 36.4426 9.472 36.4426 9.792V12H35.8746V9.616C35.8746 9.17333 35.768 8.84 35.5546 8.616C35.3413 8.38667 35.0426 8.272 34.6586 8.272C34.376 8.272 34.128 8.33333 33.9146 8.456C33.7013 8.57333 33.536 8.74667 33.4186 8.976C33.3066 9.2 33.2506 9.472 33.2506 9.792V12H32.6826V7.8H33.2266V8.936L33.1386 8.736C33.2666 8.432 33.472 8.19467 33.7546 8.024C34.0426 7.848 34.3813 7.76 34.7706 7.76C35.1813 7.76 35.5306 7.864 35.8186 8.072C36.1066 8.27467 36.2933 8.58133 36.3786 8.992L36.1546 8.904C36.2773 8.56267 36.4933 8.288 36.8026 8.08C37.1173 7.86667 37.4933 7.76 37.9306 7.76ZM42.295 12.04C41.9483 12.04 41.6203 11.992 41.311 11.896C41.0017 11.7947 40.759 11.6693 40.583 11.52L40.839 11.072C41.0097 11.2 41.2283 11.312 41.495 11.408C41.7617 11.4987 42.0417 11.544 42.335 11.544C42.735 11.544 43.023 11.4827 43.199 11.36C43.375 11.232 43.463 11.064 43.463 10.856C43.463 10.7013 43.4123 10.5813 43.311 10.496C43.215 10.4053 43.087 10.3387 42.927 10.296C42.767 10.248 42.5883 10.208 42.391 10.176C42.1937 10.144 41.9963 10.1067 41.799 10.064C41.607 10.0213 41.431 9.96 41.271 9.88C41.111 9.79467 40.9803 9.68 40.879 9.536C40.783 9.392 40.735 9.2 40.735 8.96C40.735 8.73067 40.799 8.52533 40.927 8.344C41.055 8.16267 41.2417 8.02133 41.487 7.92C41.7377 7.81333 42.0417 7.76 42.399 7.76C42.671 7.76 42.943 7.79733 43.215 7.872C43.487 7.94133 43.711 8.03467 43.887 8.152L43.639 8.608C43.4523 8.48 43.2523 8.38933 43.039 8.336C42.8257 8.27733 42.6123 8.248 42.399 8.248C42.0203 8.248 41.7403 8.31467 41.559 8.448C41.383 8.576 41.295 8.74133 41.295 8.944C41.295 9.104 41.343 9.22933 41.439 9.32C41.5403 9.41067 41.671 9.48267 41.831 9.536C41.9963 9.584 42.175 9.624 42.367 9.656C42.5643 9.688 42.759 9.728 42.951 9.776C43.1483 9.81867 43.327 9.88 43.487 9.96C43.6523 10.0347 43.783 10.144 43.879 10.288C43.9803 10.4267 44.031 10.6107 44.031 10.84C44.031 11.0853 43.9617 11.2987 43.823 11.48C43.6897 11.656 43.4923 11.7947 43.231 11.896C42.975 11.992 42.663 12.04 42.295 12.04ZM48.831 12.048C48.415 12.048 48.015 11.9813 47.631 11.848C47.2523 11.7093 46.959 11.5333 46.751 11.32L46.983 10.864C47.1803 11.056 47.4443 11.2187 47.775 11.352C48.111 11.48 48.463 11.544 48.831 11.544C49.183 11.544 49.4683 11.5013 49.687 11.416C49.911 11.3253 50.0737 11.2053 50.175 11.056C50.2817 10.9067 50.335 10.7413 50.335 10.56C50.335 10.3413 50.271 10.1653 50.143 10.032C50.0203 9.89867 49.8577 9.79467 49.655 9.72C49.4523 9.64 49.2283 9.57067 48.983 9.512C48.7377 9.45333 48.4923 9.392 48.247 9.328C48.0017 9.25867 47.775 9.168 47.567 9.056C47.3643 8.944 47.199 8.79733 47.071 8.616C46.9483 8.42933 46.887 8.18667 46.887 7.888C46.887 7.61067 46.959 7.35733 47.103 7.128C47.2523 6.89333 47.479 6.70667 47.783 6.568C48.087 6.424 48.4763 6.352 48.951 6.352C49.2657 6.352 49.5777 6.39733 49.887 6.488C50.1963 6.57333 50.463 6.69333 50.687 6.848L50.487 7.32C50.247 7.16 49.991 7.04267 49.719 6.968C49.4523 6.89333 49.1937 6.856 48.943 6.856C48.607 6.856 48.3297 6.90133 48.111 6.992C47.8923 7.08267 47.7297 7.20533 47.623 7.36C47.5217 7.50933 47.471 7.68 47.471 7.872C47.471 8.09067 47.5323 8.26667 47.655 8.4C47.783 8.53333 47.9483 8.63733 48.151 8.712C48.359 8.78667 48.5857 8.85333 48.831 8.912C49.0763 8.97067 49.319 9.03467 49.559 9.104C49.8043 9.17333 50.0283 9.264 50.231 9.376C50.439 9.48267 50.6043 9.62667 50.727 9.808C50.855 9.98933 50.919 10.2267 50.919 10.52C50.919 10.792 50.8443 11.0453 50.695 11.28C50.5457 11.5093 50.3163 11.696 50.007 11.84C49.703 11.9787 49.311 12.048 48.831 12.048ZM52.8668 12L51.2828 7.8H51.8268L53.2668 11.696H53.0188L54.4988 7.8H54.9868L56.4508 11.696H56.2028L57.6668 7.8H58.1868L56.5948 12H56.0588L54.6508 8.336H54.8188L53.4028 12H52.8668ZM60.7088 12.04C60.2715 12.04 59.8875 11.9493 59.5568 11.768C59.2261 11.5813 58.9675 11.328 58.7808 11.008C58.5941 10.6827 58.5008 10.312 58.5008 9.896C58.5008 9.48 58.5888 9.112 58.7648 8.792C58.9461 8.472 59.1915 8.22133 59.5008 8.04C59.8155 7.85333 60.1675 7.76 60.5568 7.76C60.9515 7.76 61.3008 7.85067 61.6048 8.032C61.9141 8.208 62.1568 8.45867 62.3328 8.784C62.5088 9.104 62.5968 9.47467 62.5968 9.896C62.5968 9.92267 62.5941 9.952 62.5888 9.984C62.5888 10.0107 62.5888 10.04 62.5888 10.072H58.9328V9.648H62.2848L62.0608 9.816C62.0608 9.512 61.9941 9.24267 61.8608 9.008C61.7328 8.768 61.5568 8.58133 61.3328 8.448C61.1088 8.31467 60.8501 8.248 60.5568 8.248C60.2688 8.248 60.0101 8.31467 59.7808 8.448C59.5515 8.58133 59.3728 8.768 59.2448 9.008C59.1168 9.248 59.0528 9.52267 59.0528 9.832V9.92C59.0528 10.24 59.1221 10.5227 59.2608 10.768C59.4048 11.008 59.6021 11.1973 59.8528 11.336C60.1088 11.4693 60.3995 11.536 60.7248 11.536C60.9808 11.536 61.2181 11.4907 61.4368 11.4C61.6608 11.3093 61.8528 11.1707 62.0128 10.984L62.3328 11.352C62.1461 11.576 61.9115 11.7467 61.6288 11.864C61.3515 11.9813 61.0448 12.04 60.7088 12.04ZM65.5369 12.04C65.0996 12.04 64.7156 11.9493 64.3849 11.768C64.0543 11.5813 63.7956 11.328 63.6089 11.008C63.4223 10.6827 63.3289 10.312 63.3289 9.896C63.3289 9.48 63.4169 9.112 63.5929 8.792C63.7743 8.472 64.0196 8.22133 64.3289 8.04C64.6436 7.85333 64.9956 7.76 65.3849 7.76C65.7796 7.76 66.1289 7.85067 66.4329 8.032C66.7423 8.208 66.9849 8.45867 67.1609 8.784C67.3369 9.104 67.4249 9.47467 67.4249 9.896C67.4249 9.92267 67.4223 9.952 67.4169 9.984C67.4169 10.0107 67.4169 10.04 67.4169 10.072H63.7609V9.648H67.1129L66.8889 9.816C66.8889 9.512 66.8223 9.24267 66.6889 9.008C66.5609 8.768 66.3849 8.58133 66.1609 8.448C65.9369 8.31467 65.6783 8.248 65.3849 8.248C65.0969 8.248 64.8383 8.31467 64.6089 8.448C64.3796 8.58133 64.2009 8.768 64.0729 9.008C63.9449 9.248 63.8809 9.52267 63.8809 9.832V9.92C63.8809 10.24 63.9503 10.5227 64.0889 10.768C64.2329 11.008 64.4303 11.1973 64.6809 11.336C64.9369 11.4693 65.2276 11.536 65.5529 11.536C65.8089 11.536 66.0463 11.4907 66.2649 11.4C66.4889 11.3093 66.6809 11.1707 66.8409 10.984L67.1609 11.352C66.9743 11.576 66.7396 11.7467 66.4569 11.864C66.1796 11.9813 65.8729 12.04 65.5369 12.04ZM69.9091 12.04C69.5144 12.04 69.2104 11.9333 68.9971 11.72C68.7837 11.5067 68.6771 11.2053 68.6771 10.816V6.872H69.2451V10.784C69.2451 11.0293 69.3064 11.2187 69.4291 11.352C69.5571 11.4853 69.7384 11.552 69.9731 11.552C70.2237 11.552 70.4317 11.48 70.5971 11.336L70.7971 11.744C70.6851 11.8453 70.5491 11.92 70.3891 11.968C70.2344 12.016 70.0744 12.04 69.9091 12.04ZM67.9251 8.272V7.8H70.5251V8.272H67.9251ZM74.0448 12V6.4H76.4608C77.0848 6.4 77.5675 6.52533 77.9088 6.776C78.2555 7.02667 78.4288 7.38133 78.4288 7.84C78.4288 8.144 78.3568 8.4 78.2128 8.608C78.0741 8.816 77.8821 8.97333 77.6368 9.08C77.3968 9.18667 77.1328 9.24 76.8448 9.24L76.9808 9.048C77.3381 9.048 77.6448 9.104 77.9008 9.216C78.1621 9.32267 78.3648 9.48533 78.5088 9.704C78.6528 9.91733 78.7248 10.184 78.7248 10.504C78.7248 10.9787 78.5488 11.3467 78.1968 11.608C77.8501 11.8693 77.3248 12 76.6208 12H74.0448ZM74.6368 11.512H76.6128C77.1035 11.512 77.4795 11.4293 77.7408 11.264C78.0021 11.0933 78.1328 10.824 78.1328 10.456C78.1328 10.0933 78.0021 9.82933 77.7408 9.664C77.4795 9.49333 77.1035 9.408 76.6128 9.408H74.5728V8.92H76.4208C76.8688 8.92 77.2155 8.83467 77.4608 8.664C77.7115 8.49333 77.8368 8.24 77.8368 7.904C77.8368 7.56267 77.7115 7.30933 77.4608 7.144C77.2155 6.97333 76.8688 6.888 76.4208 6.888H74.6368V11.512ZM81.6681 12.04C81.2627 12.04 80.8974 11.9493 80.5721 11.768C80.2521 11.5813 79.9987 11.328 79.8121 11.008C79.6254 10.6827 79.5321 10.312 79.5321 9.896C79.5321 9.47467 79.6254 9.104 79.8121 8.784C79.9987 8.464 80.2521 8.21333 80.5721 8.032C80.8921 7.85067 81.2574 7.76 81.6681 7.76C82.0841 7.76 82.4521 7.85067 82.7721 8.032C83.0974 8.21333 83.3507 8.464 83.5321 8.784C83.7187 9.104 83.8121 9.47467 83.8121 9.896C83.8121 10.312 83.7187 10.6827 83.5321 11.008C83.3507 11.328 83.0974 11.5813 82.7721 11.768C82.4467 11.9493 82.0787 12.04 81.6681 12.04ZM81.6681 11.536C81.9721 11.536 82.2414 11.4693 82.4761 11.336C82.7107 11.1973 82.8947 11.0053 83.0281 10.76C83.1667 10.5093 83.2361 10.2213 83.2361 9.896C83.2361 9.56533 83.1667 9.27733 83.0281 9.032C82.8947 8.78667 82.7107 8.59733 82.4761 8.464C82.2414 8.32533 81.9747 8.256 81.6761 8.256C81.3774 8.256 81.1107 8.32533 80.8761 8.464C80.6414 8.59733 80.4547 8.78667 80.3161 9.032C80.1774 9.27733 80.1081 9.56533 80.1081 9.896C80.1081 10.2213 80.1774 10.5093 80.3161 10.76C80.4547 11.0053 80.6414 11.1973 80.8761 11.336C81.1107 11.4693 81.3747 11.536 81.6681 11.536ZM84.1833 12L85.9593 9.696L85.9513 9.976L84.2633 7.8H84.9033L86.2873 9.6L86.0473 9.592L87.4313 7.8H88.0553L86.3513 10L86.3593 9.696L88.1513 12H87.5033L86.0393 10.08L86.2633 10.112L84.8233 12H84.1833Z" fill="black"/>
<path d="M306.798 14V8.64L307.054 8.912H305.478V8.4H307.374V14H306.798ZM310.945 14.048C310.513 14.048 310.129 13.936 309.793 13.712C309.457 13.4827 309.193 13.1573 309.001 12.736C308.809 12.3093 308.713 11.7973 308.713 11.2C308.713 10.6027 308.809 10.0933 309.001 9.672C309.193 9.24533 309.457 8.92 309.793 8.696C310.129 8.46667 310.513 8.352 310.945 8.352C311.377 8.352 311.761 8.46667 312.097 8.696C312.433 8.92 312.697 9.24533 312.889 9.672C313.086 10.0933 313.185 10.6027 313.185 11.2C313.185 11.7973 313.086 12.3093 312.889 12.736C312.697 13.1573 312.433 13.4827 312.097 13.712C311.761 13.936 311.377 14.048 310.945 14.048ZM310.945 13.52C311.276 13.52 311.564 13.432 311.809 13.256C312.054 13.0747 312.246 12.8133 312.385 12.472C312.524 12.1253 312.593 11.7013 312.593 11.2C312.593 10.6987 312.524 10.2773 312.385 9.936C312.246 9.58933 312.054 9.328 311.809 9.152C311.564 8.97067 311.276 8.88 310.945 8.88C310.625 8.88 310.34 8.97067 310.089 9.152C309.838 9.328 309.644 9.58933 309.505 9.936C309.366 10.2773 309.297 10.6987 309.297 11.2C309.297 11.7013 309.366 12.1253 309.505 12.472C309.644 12.8133 309.838 13.0747 310.089 13.256C310.34 13.432 310.625 13.52 310.945 13.52Z" fill="black"/>
<path d="M145.272 12.06C145.096 12.06 144.944 11.996 144.816 11.868C144.696 11.74 144.636 11.584 144.636 11.4C144.636 11.208 144.696 11.052 144.816 10.932C144.944 10.812 145.096 10.752 145.272 10.752C145.448 10.752 145.596 10.812 145.716 10.932C145.844 11.052 145.908 11.208 145.908 11.4C145.908 11.584 145.844 11.74 145.716 11.868C145.596 11.996 145.448 12.06 145.272 12.06ZM147.815 12.06C147.639 12.06 147.487 11.996 147.359 11.868C147.239 11.74 147.179 11.584 147.179 11.4C147.179 11.208 147.239 11.052 147.359 10.932C147.487 10.812 147.639 10.752 147.815 10.752C147.991 10.752 148.139 10.812 148.259 10.932C148.387 11.052 148.451 11.208 148.451 11.4C148.451 11.584 148.387 11.74 148.259 11.868C148.139 11.996 147.991 12.06 147.815 12.06ZM150.358 12.06C150.182 12.06 150.03 11.996 149.902 11.868C149.782 11.74 149.722 11.584 149.722 11.4C149.722 11.208 149.782 11.052 149.902 10.932C150.03 10.812 150.182 10.752 150.358 10.752C150.534 10.752 150.682 10.812 150.802 10.932C150.93 11.052 150.994 11.208 150.994 11.4C150.994 11.584 150.93 11.74 150.802 11.868C150.682 11.996 150.534 12.06 150.358 12.06ZM152.901 12.06C152.725 12.06 152.573 11.996 152.445 11.868C152.325 11.74 152.265 11.584 152.265 11.4C152.265 11.208 152.325 11.052 152.445 10.932C152.573 10.812 152.725 10.752 152.901 10.752C153.077 10.752 153.225 10.812 153.345 10.932C153.473 11.052 153.537 11.208 153.537 11.4C153.537 11.584 153.473 11.74 153.345 11.868C153.225 11.996 153.077 12.06 152.901 12.06ZM155.444 12.06C155.268 12.06 155.116 11.996 154.988 11.868C154.868 11.74 154.808 11.584 154.808 11.4C154.808 11.208 154.868 11.052 154.988 10.932C155.116 10.812 155.268 10.752 155.444 10.752C155.62 10.752 155.768 10.812 155.888 10.932C156.016 11.052 156.08 11.208 156.08 11.4C156.08 11.584 156.016 11.74 155.888 11.868C155.768 11.996 155.62 12.06 155.444 12.06ZM157.987 12.06C157.811 12.06 157.659 11.996 157.531 11.868C157.411 11.74 157.351 11.584 157.351 11.4C157.351 11.208 157.411 11.052 157.531 10.932C157.659 10.812 157.811 10.752 157.987 10.752C158.163 10.752 158.311 10.812 158.431 10.932C158.559 11.052 158.623 11.208 158.623 11.4C158.623 11.584 158.559 11.74 158.431 11.868C158.311 11.996 158.163 12.06 157.987 12.06ZM160.53 12.06C160.354 12.06 160.202 11.996 160.074 11.868C159.954 11.74 159.894 11.584 159.894 11.4C159.894 11.208 159.954 11.052 160.074 10.932C160.202 10.812 160.354 10.752 160.53 10.752C160.706 10.752 160.854 10.812 160.974 10.932C161.102 11.052 161.166 11.208 161.166 11.4C161.166 11.584 161.102 11.74 160.974 11.868C160.854 11.996 160.706 12.06 160.53 12.06ZM163.073 12.06C162.897 12.06 162.745 11.996 162.617 11.868C162.497 11.74 162.437 11.584 162.437 11.4C162.437 11.208 162.497 11.052 162.617 10.932C162.745 10.812 162.897 10.752 163.073 10.752C163.249 10.752 163.397 10.812 163.517 10.932C163.645 11.052 163.709 11.208 163.709 11.4C163.709 11.584 163.645 11.74 163.517 11.868C163.397 11.996 163.249 12.06 163.073 12.06ZM165.616 12.06C165.44 12.06 165.288 11.996 165.16 11.868C165.04 11.74 164.98 11.584 164.98 11.4C164.98 11.208 165.04 11.052 165.16 10.932C165.288 10.812 165.44 10.752 165.616 10.752C165.792 10.752 165.94 10.812 166.06 10.932C166.188 11.052 166.252 11.208 166.252 11.4C166.252 11.584 166.188 11.74 166.06 11.868C165.94 11.996 165.792 12.06 165.616 12.06ZM168.159 12.06C167.983 12.06 167.831 11.996 167.703 11.868C167.583 11.74 167.523 11.584 167.523 11.4C167.523 11.208 167.583 11.052 167.703 10.932C167.831 10.812 167.983 10.752 168.159 10.752C168.335 10.752 168.483 10.812 168.603 10.932C168.731 11.052 168.795 11.208 168.795 11.4C168.795 11.584 168.731 11.74 168.603 11.868C168.483 11.996 168.335 12.06 168.159 12.06ZM170.702 12.06C170.526 12.06 170.374 11.996 170.246 11.868C170.126 11.74 170.066 11.584 170.066 11.4C170.066 11.208 170.126 11.052 170.246 10.932C170.374 10.812 170.526 10.752 170.702 10.752C170.878 10.752 171.026 10.812 171.146 10.932C171.274 11.052 171.338 11.208 171.338 11.4C171.338 11.584 171.274 11.74 171.146 11.868C171.026 11.996 170.878 12.06 170.702 12.06ZM173.245 12.06C173.069 12.06 172.917 11.996 172.789 11.868C172.669 11.74 172.609 11.584 172.609 11.4C172.609 11.208 172.669 11.052 172.789 10.932C172.917 10.812 173.069 10.752 173.245 10.752C173.421 10.752 173.569 10.812 173.689 10.932C173.817 11.052 173.881 11.208 173.881 11.4C173.881 11.584 173.817 11.74 173.689 11.868C173.569 11.996 173.421 12.06 173.245 12.06ZM175.788 12.06C175.612 12.06 175.46 11.996 175.332 11.868C175.212 11.74 175.152 11.584 175.152 11.4C175.152 11.208 175.212 11.052 175.332 10.932C175.46 10.812 175.612 10.752 175.788 10.752C175.964 10.752 176.112 10.812 176.232 10.932C176.36 11.052 176.424 11.208 176.424 11.4C176.424 11.584 176.36 11.74 176.232 11.868C176.112 11.996 175.964 12.06 175.788 12.06ZM178.331 12.06C178.155 12.06 178.003 11.996 177.875 11.868C177.755 11.74 177.695 11.584 177.695 11.4C177.695 11.208 177.755 11.052 177.875 10.932C178.003 10.812 178.155 10.752 178.331 10.752C178.507 10.752 178.655 10.812 178.775 10.932C178.903 11.052 178.967 11.208 178.967 11.4C178.967 11.584 178.903 11.74 178.775 11.868C178.655 11.996 178.507 12.06 178.331 12.06ZM180.874 12.06C180.698 12.06 180.546 11.996 180.418 11.868C180.298 11.74 180.238 11.584 180.238 11.4C180.238 11.208 180.298 11.052 180.418 10.932C180.546 10.812 180.698 10.752 180.874 10.752C181.05 10.752 181.198 10.812 181.318 10.932C181.446 11.052 181.51 11.208 181.51 11.4C181.51 11.584 181.446 11.74 181.318 11.868C181.198 11.996 181.05 12.06 180.874 12.06ZM183.417 12.06C183.241 12.06 183.089 11.996 182.961 11.868C182.841 11.74 182.781 11.584 182.781 11.4C182.781 11.208 182.841 11.052 182.961 10.932C183.089 10.812 183.241 10.752 183.417 10.752C183.593 10.752 183.741 10.812 183.861 10.932C183.989 11.052 184.053 11.208 184.053 11.4C184.053 11.584 183.989 11.74 183.861 11.868C183.741 11.996 183.593 12.06 183.417 12.06ZM185.96 12.06C185.784 12.06 185.632 11.996 185.504 11.868C185.384 11.74 185.324 11.584 185.324 11.4C185.324 11.208 185.384 11.052 185.504 10.932C185.632 10.812 185.784 10.752 185.96 10.752C186.136 10.752 186.284 10.812 186.404 10.932C186.532 11.052 186.596 11.208 186.596 11.4C186.596 11.584 186.532 11.74 186.404 11.868C186.284 11.996 186.136 12.06 185.96 12.06ZM188.502 12.06C188.326 12.06 188.174 11.996 188.046 11.868C187.926 11.74 187.866 11.584 187.866 11.4C187.866 11.208 187.926 11.052 188.046 10.932C188.174 10.812 188.326 10.752 188.502 10.752C188.678 10.752 188.826 10.812 188.946 10.932C189.074 11.052 189.138 11.208 189.138 11.4C189.138 11.584 189.074 11.74 188.946 11.868C188.826 11.996 188.678 12.06 188.502 12.06ZM191.045 12.06C190.869 12.06 190.717 11.996 190.589 11.868C190.469 11.74 190.409 11.584 190.409 11.4C190.409 11.208 190.469 11.052 190.589 10.932C190.717 10.812 190.869 10.752 191.045 10.752C191.221 10.752 191.369 10.812 191.489 10.932C191.617 11.052 191.681 11.208 191.681 11.4C191.681 11.584 191.617 11.74 191.489 11.868C191.369 11.996 191.221 12.06 191.045 12.06ZM193.588 12.06C193.412 12.06 193.26 11.996 193.132 11.868C193.012 11.74 192.952 11.584 192.952 11.4C192.952 11.208 193.012 11.052 193.132 10.932C193.26 10.812 193.412 10.752 193.588 10.752C193.764 10.752 193.912 10.812 194.032 10.932C194.16 11.052 194.224 11.208 194.224 11.4C194.224 11.584 194.16 11.74 194.032 11.868C193.912 11.996 193.764 12.06 193.588 12.06ZM196.131 12.06C195.955 12.06 195.803 11.996 195.675 11.868C195.555 11.74 195.495 11.584 195.495 11.4C195.495 11.208 195.555 11.052 195.675 10.932C195.803 10.812 195.955 10.752 196.131 10.752C196.307 10.752 196.455 10.812 196.575 10.932C196.703 11.052 196.767 11.208 196.767 11.4C196.767 11.584 196.703 11.74 196.575 11.868C196.455 11.996 196.307 12.06 196.131 12.06ZM198.674 12.06C198.498 12.06 198.346 11.996 198.218 11.868C198.098 11.74 198.038 11.584 198.038 11.4C198.038 11.208 198.098 11.052 198.218 10.932C198.346 10.812 198.498 10.752 198.674 10.752C198.85 10.752 198.998 10.812 199.118 10.932C199.246 11.052 199.31 11.208 199.31 11.4C199.31 11.584 199.246 11.74 199.118 11.868C198.998 11.996 198.85 12.06 198.674 12.06ZM201.217 12.06C201.041 12.06 200.889 11.996 200.761 11.868C200.641 11.74 200.581 11.584 200.581 11.4C200.581 11.208 200.641 11.052 200.761 10.932C200.889 10.812 201.041 10.752 201.217 10.752C201.393 10.752 201.541 10.812 201.661 10.932C201.789 11.052 201.853 11.208 201.853 11.4C201.853 11.584 201.789 11.74 201.661 11.868C201.541 11.996 201.393 12.06 201.217 12.06ZM203.76 12.06C203.584 12.06 203.432 11.996 203.304 11.868C203.184 11.74 203.124 11.584 203.124 11.4C203.124 11.208 203.184 11.052 203.304 10.932C203.432 10.812 203.584 10.752 203.76 10.752C203.936 10.752 204.084 10.812 204.204 10.932C204.332 11.052 204.396 11.208 204.396 11.4C204.396 11.584 204.332 11.74 204.204 11.868C204.084 11.996 203.936 12.06 203.76 12.06ZM206.303 12.06C206.127 12.06 205.975 11.996 205.847 11.868C205.727 11.74 205.667 11.584 205.667 11.4C205.667 11.208 205.727 11.052 205.847 10.932C205.975 10.812 206.127 10.752 206.303 10.752C206.479 10.752 206.627 10.812 206.747 10.932C206.875 11.052 206.939 11.208 206.939 11.4C206.939 11.584 206.875 11.74 206.747 11.868C206.627 11.996 206.479 12.06 206.303 12.06ZM208.846 12.06C208.67 12.06 208.518 11.996 208.39 11.868C208.27 11.74 208.21 11.584 208.21 11.4C208.21 11.208 208.27 11.052 208.39 10.932C208.518 10.812 208.67 10.752 208.846 10.752C209.022 10.752 209.17 10.812 209.29 10.932C209.418 11.052 209.482 11.208 209.482 11.4C209.482 11.584 209.418 11.74 209.29 11.868C209.17 11.996 209.022 12.06 208.846 12.06ZM211.389 12.06C211.213 12.06 211.061 11.996 210.933 11.868C210.813 11.74 210.753 11.584 210.753 11.4C210.753 11.208 210.813 11.052 210.933 10.932C211.061 10.812 211.213 10.752 211.389 10.752C211.565 10.752 211.713 10.812 211.833 10.932C211.961 11.052 212.025 11.208 212.025 11.4C212.025 11.584 211.961 11.74 211.833 11.868C211.713 11.996 211.565 12.06 211.389 12.06ZM213.932 12.06C213.756 12.06 213.604 11.996 213.476 11.868C213.356 11.74 213.296 11.584 213.296 11.4C213.296 11.208 213.356 11.052 213.476 10.932C213.604 10.812 213.756 10.752 213.932 10.752C214.108 10.752 214.256 10.812 214.376 10.932C214.504 11.052 214.568 11.208 214.568 11.4C214.568 11.584 214.504 11.74 214.376 11.868C214.256 11.996 214.108 12.06 213.932 12.06ZM216.475 12.06C216.299 12.06 216.147 11.996 216.019 11.868C215.899 11.74 215.839 11.584 215.839 11.4C215.839 11.208 215.899 11.052 216.019 10.932C216.147 10.812 216.299 10.752 216.475 10.752C216.651 10.752 216.799 10.812 216.919 10.932C217.047 11.052 217.111 11.208 217.111 11.4C217.111 11.584 217.047 11.74 216.919 11.868C216.799 11.996 216.651 12.06 216.475 12.06ZM219.018 12.06C218.842 12.06 218.69 11.996 218.562 11.868C218.442 11.74 218.382 11.584 218.382 11.4C218.382 11.208 218.442 11.052 218.562 10.932C218.69 10.812 218.842 10.752 219.018 10.752C219.194 10.752 219.342 10.812 219.462 10.932C219.59 11.052 219.654 11.208 219.654 11.4C219.654 11.584 219.59 11.74 219.462 11.868C219.342 11.996 219.194 12.06 219.018 12.06ZM221.561 12.06C221.385 12.06 221.233 11.996 221.105 11.868C220.985 11.74 220.925 11.584 220.925 11.4C220.925 11.208 220.985 11.052 221.105 10.932C221.233 10.812 221.385 10.752 221.561 10.752C221.737 10.752 221.885 10.812 222.005 10.932C222.133 11.052 222.197 11.208 222.197 11.4C222.197 11.584 222.133 11.74 222.005 11.868C221.885 11.996 221.737 12.06 221.561 12.06ZM224.104 12.06C223.928 12.06 223.776 11.996 223.648 11.868C223.528 11.74 223.468 11.584 223.468 11.4C223.468 11.208 223.528 11.052 223.648 10.932C223.776 10.812 223.928 10.752 224.104 10.752C224.28 10.752 224.428 10.812 224.548 10.932C224.676 11.052 224.74 11.208 224.74 11.4C224.74 11.584 224.676 11.74 224.548 11.868C224.428 11.996 224.28 12.06 224.104 12.06ZM226.647 12.06C226.471 12.06 226.319 11.996 226.191 11.868C226.071 11.74 226.011 11.584 226.011 11.4C226.011 11.208 226.071 11.052 226.191 10.932C226.319 10.812 226.471 10.752 226.647 10.752C226.823 10.752 226.971 10.812 227.091 10.932C227.219 11.052 227.283 11.208 227.283 11.4C227.283 11.584 227.219 11.74 227.091 11.868C226.971 11.996 226.823 12.06 226.647 12.06ZM229.19 12.06C229.014 12.06 228.862 11.996 228.734 11.868C228.614 11.74 228.554 11.584 228.554 11.4C228.554 11.208 228.614 11.052 228.734 10.932C228.862 10.812 229.014 10.752 229.19 10.752C229.366 10.752 229.514 10.812 229.634 10.932C229.762 11.052 229.826 11.208 229.826 11.4C229.826 11.584 229.762 11.74 229.634 11.868C229.514 11.996 229.366 12.06 229.19 12.06ZM231.733 12.06C231.557 12.06 231.405 11.996 231.277 11.868C231.157 11.74 231.097 11.584 231.097 11.4C231.097 11.208 231.157 11.052 231.277 10.932C231.405 10.812 231.557 10.752 231.733 10.752C231.909 10.752 232.057 10.812 232.177 10.932C232.305 11.052 232.369 11.208 232.369 11.4C232.369 11.584 232.305 11.74 232.177 11.868C232.057 11.996 231.909 12.06 231.733 12.06ZM234.276 12.06C234.1 12.06 233.948 11.996 233.82 11.868C233.7 11.74 233.64 11.584 233.64 11.4C233.64 11.208 233.7 11.052 233.82 10.932C233.948 10.812 234.1 10.752 234.276 10.752C234.452 10.752 234.6 10.812 234.72 10.932C234.848 11.052 234.912 11.208 234.912 11.4C234.912 11.584 234.848 11.74 234.72 11.868C234.6 11.996 234.452 12.06 234.276 12.06ZM236.819 12.06C236.643 12.06 236.491 11.996 236.363 11.868C236.243 11.74 236.183 11.584 236.183 11.4C236.183 11.208 236.243 11.052 236.363 10.932C236.491 10.812 236.643 10.752 236.819 10.752C236.995 10.752 237.143 10.812 237.263 10.932C237.391 11.052 237.455 11.208 237.455 11.4C237.455 11.584 237.391 11.74 237.263 11.868C237.143 11.996 236.995 12.06 236.819 12.06ZM239.362 12.06C239.186 12.06 239.034 11.996 238.906 11.868C238.786 11.74 238.726 11.584 238.726 11.4C238.726 11.208 238.786 11.052 238.906 10.932C239.034 10.812 239.186 10.752 239.362 10.752C239.538 10.752 239.686 10.812 239.806 10.932C239.934 11.052 239.998 11.208 239.998 11.4C239.998 11.584 239.934 11.74 239.806 11.868C239.686 11.996 239.538 12.06 239.362 12.06ZM241.905 12.06C241.729 12.06 241.577 11.996 241.449 11.868C241.329 11.74 241.269 11.584 241.269 11.4C241.269 11.208 241.329 11.052 241.449 10.932C241.577 10.812 241.729 10.752 241.905 10.752C242.081 10.752 242.229 10.812 242.349 10.932C242.477 11.052 242.541 11.208 242.541 11.4C242.541 11.584 242.477 11.74 242.349 11.868C242.229 11.996 242.081 12.06 241.905 12.06ZM244.448 12.06C244.272 12.06 244.12 11.996 243.992 11.868C243.872 11.74 243.812 11.584 243.812 11.4C243.812 11.208 243.872 11.052 243.992 10.932C244.12 10.812 244.272 10.752 244.448 10.752C244.624 10.752 244.772 10.812 244.892 10.932C245.02 11.052 245.084 11.208 245.084 11.4C245.084 11.584 245.02 11.74 244.892 11.868C244.772 11.996 244.624 12.06 244.448 12.06ZM246.991 12.06C246.815 12.06 246.663 11.996 246.535 11.868C246.415 11.74 246.355 11.584 246.355 11.4C246.355 11.208 246.415 11.052 246.535 10.932C246.663 10.812 246.815 10.752 246.991 10.752C247.167 10.752 247.315 10.812 247.435 10.932C247.563 11.052 247.627 11.208 247.627 11.4C247.627 11.584 247.563 11.74 247.435 11.868C247.315 11.996 247.167 12.06 246.991 12.06ZM249.534 12.06C249.358 12.06 249.206 11.996 249.078 11.868C248.958 11.74 248.898 11.584 248.898 11.4C248.898 11.208 248.958 11.052 249.078 10.932C249.206 10.812 249.358 10.752 249.534 10.752C249.71 10.752 249.858 10.812 249.978 10.932C250.106 11.052 250.17 11.208 250.17 11.4C250.17 11.584 250.106 11.74 249.978 11.868C249.858 11.996 249.71 12.06 249.534 12.06ZM252.077 12.06C251.901 12.06 251.749 11.996 251.621 11.868C251.501 11.74 251.441 11.584 251.441 11.4C251.441 11.208 251.501 11.052 251.621 10.932C251.749 10.812 251.901 10.752 252.077 10.752C252.253 10.752 252.401 10.812 252.521 10.932C252.649 11.052 252.713 11.208 252.713 11.4C252.713 11.584 252.649 11.74 252.521 11.868C252.401 11.996 252.253 12.06 252.077 12.06ZM254.62 12.06C254.444 12.06 254.292 11.996 254.164 11.868C254.044 11.74 253.984 11.584 253.984 11.4C253.984 11.208 254.044 11.052 254.164 10.932C254.292 10.812 254.444 10.752 254.62 10.752C254.796 10.752 254.944 10.812 255.064 10.932C255.192 11.052 255.256 11.208 255.256 11.4C255.256 11.584 255.192 11.74 255.064 11.868C254.944 11.996 254.796 12.06 254.62 12.06ZM257.163 12.06C256.987 12.06 256.835 11.996 256.707 11.868C256.587 11.74 256.527 11.584 256.527 11.4C256.527 11.208 256.587 11.052 256.707 10.932C256.835 10.812 256.987 10.752 257.163 10.752C257.339 10.752 257.487 10.812 257.607 10.932C257.735 11.052 257.799 11.208 257.799 11.4C257.799 11.584 257.735 11.74 257.607 11.868C257.487 11.996 257.339 12.06 257.163 12.06ZM259.706 12.06C259.53 12.06 259.378 11.996 259.25 11.868C259.13 11.74 259.07 11.584 259.07 11.4C259.07 11.208 259.13 11.052 259.25 10.932C259.378 10.812 259.53 10.752 259.706 10.752C259.882 10.752 260.03 10.812 260.15 10.932C260.278 11.052 260.342 11.208 260.342 11.4C260.342 11.584 260.278 11.74 260.15 11.868C260.03 11.996 259.882 12.06 259.706 12.06ZM262.249 12.06C262.073 12.06 261.921 11.996 261.793 11.868C261.673 11.74 261.613 11.584 261.613 11.4C261.613 11.208 261.673 11.052 261.793 10.932C261.921 10.812 262.073 10.752 262.249 10.752C262.425 10.752 262.573 10.812 262.693 10.932C262.821 11.052 262.885 11.208 262.885 11.4C262.885 11.584 262.821 11.74 262.693 11.868C262.573 11.996 262.425 12.06 262.249 12.06ZM264.792 12.06C264.616 12.06 264.464 11.996 264.336 11.868C264.216 11.74 264.156 11.584 264.156 11.4C264.156 11.208 264.216 11.052 264.336 10.932C264.464 10.812 264.616 10.752 264.792 10.752C264.968 10.752 265.116 10.812 265.236 10.932C265.364 11.052 265.428 11.208 265.428 11.4C265.428 11.584 265.364 11.74 265.236 11.868C265.116 11.996 264.968 12.06 264.792 12.06ZM267.335 12.06C267.159 12.06 267.007 11.996 266.879 11.868C266.759 11.74 266.699 11.584 266.699 11.4C266.699 11.208 266.759 11.052 266.879 10.932C267.007 10.812 267.159 10.752 267.335 10.752C267.511 10.752 267.659 10.812 267.779 10.932C267.907 11.052 267.971 11.208 267.971 11.4C267.971 11.584 267.907 11.74 267.779 11.868C267.659 11.996 267.511 12.06 267.335 12.06ZM269.877 12.06C269.701 12.06 269.549 11.996 269.421 11.868C269.301 11.74 269.241 11.584 269.241 11.4C269.241 11.208 269.301 11.052 269.421 10.932C269.549 10.812 269.701 10.752 269.877 10.752C270.053 10.752 270.201 10.812 270.321 10.932C270.449 11.052 270.513 11.208 270.513 11.4C270.513 11.584 270.449 11.74 270.321 11.868C270.201 11.996 270.053 12.06 269.877 12.06ZM272.42 12.06C272.244 12.06 272.092 11.996 271.964 11.868C271.844 11.74 271.784 11.584 271.784 11.4C271.784 11.208 271.844 11.052 271.964 10.932C272.092 10.812 272.244 10.752 272.42 10.752C272.596 10.752 272.744 10.812 272.864 10.932C272.992 11.052 273.056 11.208 273.056 11.4C273.056 11.584 272.992 11.74 272.864 11.868C272.744 11.996 272.596 12.06 272.42 12.06ZM274.963 12.06C274.787 12.06 274.635 11.996 274.507 11.868C274.387 11.74 274.327 11.584 274.327 11.4C274.327 11.208 274.387 11.052 274.507 10.932C274.635 10.812 274.787 10.752 274.963 10.752C275.139 10.752 275.287 10.812 275.407 10.932C275.535 11.052 275.599 11.208 275.599 11.4C275.599 11.584 275.535 11.74 275.407 11.868C275.287 11.996 275.139 12.06 274.963 12.06ZM277.506 12.06C277.33 12.06 277.178 11.996 277.05 11.868C276.93 11.74 276.87 11.584 276.87 11.4C276.87 11.208 276.93 11.052 277.05 10.932C277.178 10.812 277.33 10.752 277.506 10.752C277.682 10.752 277.83 10.812 277.95 10.932C278.078 11.052 278.142 11.208 278.142 11.4C278.142 11.584 278.078 11.74 277.95 11.868C277.83 11.996 277.682 12.06 277.506 12.06ZM280.049 12.06C279.873 12.06 279.721 11.996 279.593 11.868C279.473 11.74 279.413 11.584 279.413 11.4C279.413 11.208 279.473 11.052 279.593 10.932C279.721 10.812 279.873 10.752 280.049 10.752C280.225 10.752 280.373 10.812 280.493 10.932C280.621 11.052 280.685 11.208 280.685 11.4C280.685 11.584 280.621 11.74 280.493 11.868C280.373 11.996 280.225 12.06 280.049 12.06ZM282.592 12.06C282.416 12.06 282.264 11.996 282.136 11.868C282.016 11.74 281.956 11.584 281.956 11.4C281.956 11.208 282.016 11.052 282.136 10.932C282.264 10.812 282.416 10.752 282.592 10.752C282.768 10.752 282.916 10.812 283.036 10.932C283.164 11.052 283.228 11.208 283.228 11.4C283.228 11.584 283.164 11.74 283.036 11.868C282.916 11.996 282.768 12.06 282.592 12.06ZM285.135 12.06C284.959 12.06 284.807 11.996 284.679 11.868C284.559 11.74 284.499 11.584 284.499 11.4C284.499 11.208 284.559 11.052 284.679 10.932C284.807 10.812 284.959 10.752 285.135 10.752C285.311 10.752 285.459 10.812 285.579 10.932C285.707 11.052 285.771 11.208 285.771 11.4C285.771 11.584 285.707 11.74 285.579 11.868C285.459 11.996 285.311 12.06 285.135 12.06ZM287.678 12.06C287.502 12.06 287.35 11.996 287.222 11.868C287.102 11.74 287.042 11.584 287.042 11.4C287.042 11.208 287.102 11.052 287.222 10.932C287.35 10.812 287.502 10.752 287.678 10.752C287.854 10.752 288.002 10.812 288.122 10.932C288.25 11.052 288.314 11.208 288.314 11.4C288.314 11.584 288.25 11.74 288.122 11.868C288.002 11.996 287.854 12.06 287.678 12.06ZM290.221 12.06C290.045 12.06 289.893 11.996 289.765 11.868C289.645 11.74 289.585 11.584 289.585 11.4C289.585 11.208 289.645 11.052 289.765 10.932C289.893 10.812 290.045 10.752 290.221 10.752C290.397 10.752 290.545 10.812 290.665 10.932C290.793 11.052 290.857 11.208 290.857 11.4C290.857 11.584 290.793 11.74 290.665 11.868C290.545 11.996 290.397 12.06 290.221 12.06Z" fill="black"/>
</svg>
