<svg width="322" height="19" viewBox="0 0 322 19" fill="none" xmlns="http://www.w3.org/2000/svg">
<path d="M0.312 14V13.592L2.64 11.312C2.85333 11.104 3.01333 10.9227 3.12 10.768C3.22667 10.608 3.29867 10.4587 3.336 10.32C3.37333 10.1813 3.392 10.0507 3.392 9.928C3.392 9.60267 3.28 9.34667 3.056 9.16C2.83733 8.97333 2.512 8.88 2.08 8.88C1.74933 8.88 1.456 8.93067 1.2 9.032C0.949333 9.13333 0.733333 9.29067 0.552 9.504L0.144 9.152C0.362667 8.896 0.642667 8.69867 0.984 8.56C1.32533 8.42133 1.70667 8.352 2.128 8.352C2.50667 8.352 2.83467 8.41333 3.112 8.536C3.38933 8.65333 3.60267 8.82667 3.752 9.056C3.90667 9.28533 3.984 9.55467 3.984 9.864C3.984 10.0453 3.95733 10.224 3.904 10.4C3.856 10.576 3.76533 10.7627 3.632 10.96C3.504 11.152 3.31467 11.3707 3.064 11.616L0.928 13.712L0.768 13.488H4.24V14H0.312ZM6.73088 14.048C6.33088 14.048 5.94954 13.984 5.58688 13.856C5.22421 13.7227 4.93621 13.5467 4.72288 13.328L5.00288 12.872C5.17888 13.0587 5.41888 13.2133 5.72287 13.336C6.03221 13.4587 6.36554 13.52 6.72288 13.52C7.19754 13.52 7.55754 13.416 7.80288 13.208C8.05354 12.9947 8.17888 12.7173 8.17888 12.376C8.17888 12.136 8.12021 11.9307 8.00288 11.76C7.89088 11.584 7.69888 11.448 7.42688 11.352C7.15488 11.256 6.78154 11.208 6.30688 11.208H5.11488L5.40288 8.4H8.46688V8.912H5.63488L5.93088 8.632L5.68288 10.984L5.38688 10.696H6.43488C7.00021 10.696 7.45354 10.7653 7.79488 10.904C8.13621 11.0427 8.38154 11.2373 8.53088 11.488C8.68554 11.7333 8.76288 12.0213 8.76288 12.352C8.76288 12.6667 8.68821 12.9547 8.53888 13.216C8.38954 13.472 8.16554 13.6747 7.86688 13.824C7.56821 13.9733 7.18954 14.048 6.73088 14.048ZM11.7261 14.048C11.2941 14.048 10.9101 13.936 10.5741 13.712C10.2381 13.4827 9.97413 13.1573 9.78213 12.736C9.59013 12.3093 9.49413 11.7973 9.49413 11.2C9.49413 10.6027 9.59013 10.0933 9.78213 9.672C9.97413 9.24533 10.2381 8.92 10.5741 8.696C10.9101 8.46667 11.2941 8.352 11.7261 8.352C12.1581 8.352 12.5421 8.46667 12.8781 8.696C13.2141 8.92 13.4781 9.24533 13.6701 9.672C13.8675 10.0933 13.9661 10.6027 13.9661 11.2C13.9661 11.7973 13.8675 12.3093 13.6701 12.736C13.4781 13.1573 13.2141 13.4827 12.8781 13.712C12.5421 13.936 12.1581 14.048 11.7261 14.048ZM11.7261 13.52C12.0568 13.52 12.3448 13.432 12.5901 13.256C12.8355 13.0747 13.0275 12.8133 13.1661 12.472C13.3048 12.1253 13.3741 11.7013 13.3741 11.2C13.3741 10.6987 13.3048 10.2773 13.1661 9.936C13.0275 9.58933 12.8355 9.328 12.5901 9.152C12.3448 8.97067 12.0568 8.88 11.7261 8.88C11.4061 8.88 11.1208 8.97067 10.8701 9.152C10.6195 9.328 10.4248 9.58933 10.2861 9.936C10.1475 10.2773 10.0781 10.6987 10.0781 11.2C10.0781 11.7013 10.1475 12.1253 10.2861 12.472C10.4248 12.8133 10.6195 13.0747 10.8701 13.256C11.1208 13.432 11.4061 13.52 11.7261 13.52ZM16.959 15.592C16.575 15.592 16.207 15.536 15.855 15.424C15.503 15.312 15.2177 15.152 14.999 14.944L15.287 14.512C15.4843 14.688 15.727 14.8267 16.015 14.928C16.3083 15.0347 16.6177 15.088 16.943 15.088C17.4763 15.088 17.8683 14.9627 18.119 14.712C18.3697 14.4667 18.495 14.0827 18.495 13.56V12.512L18.575 11.792L18.519 11.072V9.8H19.063V13.488C19.063 14.2133 18.8843 14.744 18.527 15.08C18.175 15.4213 17.6523 15.592 16.959 15.592ZM16.855 13.84C16.455 13.84 16.095 13.7547 15.775 13.584C15.455 13.408 15.2017 13.1653 15.015 12.856C14.8337 12.5467 14.743 12.192 14.743 11.792C14.743 11.392 14.8337 11.04 15.015 10.736C15.2017 10.4267 15.455 10.1867 15.775 10.016C16.095 9.84533 16.455 9.76 16.855 9.76C17.2283 9.76 17.5643 9.83733 17.863 9.992C18.1617 10.1467 18.399 10.376 18.575 10.68C18.751 10.984 18.839 11.3547 18.839 11.792C18.839 12.2293 18.751 12.6 18.575 12.904C18.399 13.208 18.1617 13.44 17.863 13.6C17.5643 13.76 17.2283 13.84 16.855 13.84ZM16.911 13.336C17.2203 13.336 17.495 13.272 17.735 13.144C17.975 13.0107 18.1643 12.8293 18.303 12.6C18.4417 12.3653 18.511 12.096 18.511 11.792C18.511 11.488 18.4417 11.2213 18.303 10.992C18.1643 10.7627 17.975 10.584 17.735 10.456C17.495 10.3227 17.2203 10.256 16.911 10.256C16.607 10.256 16.3323 10.3227 16.087 10.456C15.847 10.584 15.6577 10.7627 15.519 10.992C15.3857 11.2213 15.319 11.488 15.319 11.792C15.319 12.096 15.3857 12.3653 15.519 12.6C15.6577 12.8293 15.847 13.0107 16.087 13.144C16.3323 13.272 16.607 13.336 16.911 13.336ZM25.8916 9.76C26.2329 9.76 26.5289 9.82667 26.7796 9.96C27.0356 10.088 27.2329 10.2853 27.3716 10.552C27.5156 10.8187 27.5876 11.1547 27.5876 11.56V14H27.0196V11.616C27.0196 11.1733 26.9129 10.84 26.6996 10.616C26.4916 10.3867 26.1956 10.272 25.8116 10.272C25.5236 10.272 25.2729 10.3333 25.0596 10.456C24.8516 10.5733 24.6889 10.7467 24.5716 10.976C24.4596 11.2 24.4036 11.472 24.4036 11.792V14H23.8356V11.616C23.8356 11.1733 23.7289 10.84 23.5156 10.616C23.3022 10.3867 23.0036 10.272 22.6196 10.272C22.3369 10.272 22.0889 10.3333 21.8756 10.456C21.6622 10.5733 21.4969 10.7467 21.3796 10.976C21.2676 11.2 21.2116 11.472 21.2116 11.792V14H20.6436V9.8H21.1876V10.936L21.0996 10.736C21.2276 10.432 21.4329 10.1947 21.7156 10.024C22.0036 9.848 22.3422 9.76 22.7316 9.76C23.1422 9.76 23.4916 9.864 23.7796 10.072C24.0676 10.2747 24.2542 10.5813 24.3396 10.992L24.1156 10.904C24.2382 10.5627 24.4542 10.288 24.7636 10.08C25.0782 9.86667 25.4542 9.76 25.8916 9.76ZM30.2559 14.04C29.9093 14.04 29.5813 13.992 29.2719 13.896C28.9626 13.7947 28.7199 13.6693 28.5439 13.52L28.7999 13.072C28.9706 13.2 29.1893 13.312 29.4559 13.408C29.7226 13.4987 30.0026 13.544 30.2959 13.544C30.6959 13.544 30.9839 13.4827 31.1599 13.36C31.3359 13.232 31.4239 13.064 31.4239 12.856C31.4239 12.7013 31.3733 12.5813 31.2719 12.496C31.1759 12.4053 31.0479 12.3387 30.8879 12.296C30.7279 12.248 30.5493 12.208 30.3519 12.176C30.1546 12.144 29.9573 12.1067 29.7599 12.064C29.5679 12.0213 29.3919 11.96 29.2319 11.88C29.0719 11.7947 28.9413 11.68 28.8399 11.536C28.7439 11.392 28.6959 11.2 28.6959 10.96C28.6959 10.7307 28.7599 10.5253 28.8879 10.344C29.0159 10.1627 29.2026 10.0213 29.4479 9.92C29.6986 9.81333 30.0026 9.76 30.3599 9.76C30.6319 9.76 30.9039 9.79733 31.1759 9.872C31.4479 9.94133 31.6719 10.0347 31.8479 10.152L31.5999 10.608C31.4133 10.48 31.2133 10.3893 30.9999 10.336C30.7866 10.2773 30.5733 10.248 30.3599 10.248C29.9813 10.248 29.7013 10.3147 29.5199 10.448C29.3439 10.576 29.2559 10.7413 29.2559 10.944C29.2559 11.104 29.3039 11.2293 29.3999 11.32C29.5013 11.4107 29.6319 11.4827 29.7919 11.536C29.9573 11.584 30.1359 11.624 30.3279 11.656C30.5253 11.688 30.7199 11.728 30.9119 11.776C31.1093 11.8187 31.2879 11.88 31.4479 11.96C31.6133 12.0347 31.7439 12.144 31.8399 12.288C31.9413 12.4267 31.9919 12.6107 31.9919 12.84C31.9919 13.0853 31.9226 13.2987 31.7839 13.48C31.6506 13.656 31.4533 13.7947 31.1919 13.896C30.9359 13.992 30.6239 14.04 30.2559 14.04ZM36.7919 14.048C36.3759 14.048 35.9759 13.9813 35.5919 13.848C35.2133 13.7093 34.9199 13.5333 34.7119 13.32L34.9439 12.864C35.1413 13.056 35.4053 13.2187 35.7359 13.352C36.0719 13.48 36.4239 13.544 36.7919 13.544C37.1439 13.544 37.4293 13.5013 37.6479 13.416C37.8719 13.3253 38.0346 13.2053 38.1359 13.056C38.2426 12.9067 38.2959 12.7413 38.2959 12.56C38.2959 12.3413 38.2319 12.1653 38.1039 12.032C37.9813 11.8987 37.8186 11.7947 37.6159 11.72C37.4133 11.64 37.1893 11.5707 36.9439 11.512C36.6986 11.4533 36.4533 11.392 36.2079 11.328C35.9626 11.2587 35.7359 11.168 35.5279 11.056C35.3253 10.944 35.1599 10.7973 35.0319 10.616C34.9093 10.4293 34.8479 10.1867 34.8479 9.888C34.8479 9.61067 34.9199 9.35733 35.0639 9.128C35.2133 8.89333 35.4399 8.70667 35.7439 8.568C36.0479 8.424 36.4373 8.352 36.9119 8.352C37.2266 8.352 37.5386 8.39733 37.8479 8.488C38.1573 8.57333 38.4239 8.69333 38.6479 8.848L38.4479 9.32C38.2079 9.16 37.9519 9.04267 37.6799 8.968C37.4133 8.89333 37.1546 8.856 36.9039 8.856C36.5679 8.856 36.2906 8.90133 36.0719 8.992C35.8533 9.08267 35.6906 9.20533 35.5839 9.36C35.4826 9.50933 35.4319 9.68 35.4319 9.872C35.4319 10.0907 35.4933 10.2667 35.6159 10.4C35.7439 10.5333 35.9093 10.6373 36.1119 10.712C36.3199 10.7867 36.5466 10.8533 36.7919 10.912C37.0373 10.9707 37.2799 11.0347 37.5199 11.104C37.7653 11.1733 37.9893 11.264 38.1919 11.376C38.3999 11.4827 38.5653 11.6267 38.6879 11.808C38.8159 11.9893 38.8799 12.2267 38.8799 12.52C38.8799 12.792 38.8053 13.0453 38.6559 13.28C38.5066 13.5093 38.2773 13.696 37.9679 13.84C37.6639 13.9787 37.2719 14.048 36.7919 14.048ZM40.8277 14L39.2437 9.8H39.7877L41.2277 13.696H40.9797L42.4597 9.8H42.9477L44.4117 13.696H44.1637L45.6277 9.8H46.1477L44.5557 14H44.0197L42.6117 10.336H42.7797L41.3637 14H40.8277ZM48.6698 14.04C48.2324 14.04 47.8484 13.9493 47.5178 13.768C47.1871 13.5813 46.9284 13.328 46.7418 13.008C46.5551 12.6827 46.4618 12.312 46.4618 11.896C46.4618 11.48 46.5498 11.112 46.7258 10.792C46.9071 10.472 47.1524 10.2213 47.4618 10.04C47.7764 9.85333 48.1284 9.76 48.5178 9.76C48.9124 9.76 49.2618 9.85067 49.5658 10.032C49.8751 10.208 50.1178 10.4587 50.2938 10.784C50.4698 11.104 50.5578 11.4747 50.5578 11.896C50.5578 11.9227 50.5551 11.952 50.5498 11.984C50.5498 12.0107 50.5498 12.04 50.5498 12.072H46.8938V11.648H50.2458L50.0218 11.816C50.0218 11.512 49.9551 11.2427 49.8218 11.008C49.6938 10.768 49.5178 10.5813 49.2938 10.448C49.0698 10.3147 48.8111 10.248 48.5178 10.248C48.2298 10.248 47.9711 10.3147 47.7418 10.448C47.5124 10.5813 47.3338 10.768 47.2058 11.008C47.0778 11.248 47.0138 11.5227 47.0138 11.832V11.92C47.0138 12.24 47.0831 12.5227 47.2218 12.768C47.3658 13.008 47.5631 13.1973 47.8138 13.336C48.0698 13.4693 48.3604 13.536 48.6858 13.536C48.9418 13.536 49.1791 13.4907 49.3978 13.4C49.6218 13.3093 49.8138 13.1707 49.9738 12.984L50.2938 13.352C50.1071 13.576 49.8724 13.7467 49.5898 13.864C49.3124 13.9813 49.0058 14.04 48.6698 14.04ZM53.4979 14.04C53.0605 14.04 52.6765 13.9493 52.3459 13.768C52.0152 13.5813 51.7565 13.328 51.5699 13.008C51.3832 12.6827 51.2899 12.312 51.2899 11.896C51.2899 11.48 51.3779 11.112 51.5539 10.792C51.7352 10.472 51.9805 10.2213 52.2899 10.04C52.6045 9.85333 52.9565 9.76 53.3459 9.76C53.7405 9.76 54.0899 9.85067 54.3939 10.032C54.7032 10.208 54.9459 10.4587 55.1219 10.784C55.2979 11.104 55.3859 11.4747 55.3859 11.896C55.3859 11.9227 55.3832 11.952 55.3779 11.984C55.3779 12.0107 55.3779 12.04 55.3779 12.072H51.7219V11.648H55.0739L54.8499 11.816C54.8499 11.512 54.7832 11.2427 54.6499 11.008C54.5219 10.768 54.3459 10.5813 54.1219 10.448C53.8979 10.3147 53.6392 10.248 53.3459 10.248C53.0579 10.248 52.7992 10.3147 52.5699 10.448C52.3405 10.5813 52.1619 10.768 52.0339 11.008C51.9059 11.248 51.8419 11.5227 51.8419 11.832V11.92C51.8419 12.24 51.9112 12.5227 52.0499 12.768C52.1939 13.008 52.3912 13.1973 52.6419 13.336C52.8979 13.4693 53.1885 13.536 53.5139 13.536C53.7699 13.536 54.0072 13.4907 54.2259 13.4C54.4499 13.3093 54.6419 13.1707 54.8019 12.984L55.1219 13.352C54.9352 13.576 54.7005 13.7467 54.4179 13.864C54.1405 13.9813 53.8339 14.04 53.4979 14.04ZM57.87 14.04C57.4753 14.04 57.1713 13.9333 56.958 13.72C56.7447 13.5067 56.638 13.2053 56.638 12.816V8.872H57.206V12.784C57.206 13.0293 57.2673 13.2187 57.39 13.352C57.518 13.4853 57.6993 13.552 57.934 13.552C58.1847 13.552 58.3927 13.48 58.558 13.336L58.758 13.744C58.646 13.8453 58.51 13.92 58.35 13.968C58.1953 14.016 58.0353 14.04 57.87 14.04ZM55.886 10.272V9.8H58.486V10.272H55.886ZM62.0058 14V8.4H64.4218C65.0458 8.4 65.5284 8.52533 65.8698 8.776C66.2164 9.02667 66.3898 9.38133 66.3898 9.84C66.3898 10.144 66.3178 10.4 66.1738 10.608C66.0351 10.816 65.8431 10.9733 65.5978 11.08C65.3578 11.1867 65.0938 11.24 64.8058 11.24L64.9418 11.048C65.2991 11.048 65.6058 11.104 65.8618 11.216C66.1231 11.3227 66.3258 11.4853 66.4698 11.704C66.6138 11.9173 66.6858 12.184 66.6858 12.504C66.6858 12.9787 66.5098 13.3467 66.1578 13.608C65.8111 13.8693 65.2858 14 64.5818 14H62.0058ZM62.5978 13.512H64.5738C65.0644 13.512 65.4404 13.4293 65.7018 13.264C65.9631 13.0933 66.0938 12.824 66.0938 12.456C66.0938 12.0933 65.9631 11.8293 65.7018 11.664C65.4404 11.4933 65.0644 11.408 64.5738 11.408H62.5338V10.92H64.3818C64.8298 10.92 65.1764 10.8347 65.4218 10.664C65.6724 10.4933 65.7977 10.24 65.7977 9.904C65.7977 9.56267 65.6724 9.30933 65.4218 9.144C65.1764 8.97333 64.8298 8.888 64.3818 8.888H62.5978V13.512ZM69.629 14.04C69.2237 14.04 68.8583 13.9493 68.533 13.768C68.213 13.5813 67.9597 13.328 67.773 13.008C67.5863 12.6827 67.493 12.312 67.493 11.896C67.493 11.4747 67.5863 11.104 67.773 10.784C67.9597 10.464 68.213 10.2133 68.533 10.032C68.853 9.85067 69.2183 9.76 69.629 9.76C70.045 9.76 70.413 9.85067 70.733 10.032C71.0583 10.2133 71.3117 10.464 71.493 10.784C71.6797 11.104 71.773 11.4747 71.773 11.896C71.773 12.312 71.6797 12.6827 71.493 13.008C71.3117 13.328 71.0583 13.5813 70.733 13.768C70.4077 13.9493 70.0397 14.04 69.629 14.04ZM69.629 13.536C69.933 13.536 70.2023 13.4693 70.437 13.336C70.6717 13.1973 70.8557 13.0053 70.989 12.76C71.1277 12.5093 71.197 12.2213 71.197 11.896C71.197 11.5653 71.1277 11.2773 70.989 11.032C70.8557 10.7867 70.6717 10.5973 70.437 10.464C70.2023 10.3253 69.9357 10.256 69.637 10.256C69.3383 10.256 69.0717 10.3253 68.837 10.464C68.6023 10.5973 68.4157 10.7867 68.277 11.032C68.1383 11.2773 68.069 11.5653 68.069 11.896C68.069 12.2213 68.1383 12.5093 68.277 12.76C68.4157 13.0053 68.6023 13.1973 68.837 13.336C69.0717 13.4693 69.3357 13.536 69.629 13.536ZM72.1442 14L73.9202 11.696L73.9122 11.976L72.2242 9.8H72.8642L74.2482 11.6L74.0082 11.592L75.3922 9.8H76.0162L74.3122 12L74.3202 11.696L76.1122 14H75.4642L74.0002 12.08L74.2242 12.112L72.7842 14H72.1442Z" fill="black"/>
<path d="M306.949 15.048C306.517 15.048 306.133 14.936 305.797 14.712C305.461 14.4827 305.197 14.1573 305.005 13.736C304.813 13.3093 304.717 12.7973 304.717 12.2C304.717 11.6027 304.813 11.0933 305.005 10.672C305.197 10.2453 305.461 9.92 305.797 9.696C306.133 9.46667 306.517 9.352 306.949 9.352C307.381 9.352 307.765 9.46667 308.101 9.696C308.437 9.92 308.701 10.2453 308.893 10.672C309.09 11.0933 309.189 11.6027 309.189 12.2C309.189 12.7973 309.09 13.3093 308.893 13.736C308.701 14.1573 308.437 14.4827 308.101 14.712C307.765 14.936 307.381 15.048 306.949 15.048ZM306.949 14.52C307.279 14.52 307.567 14.432 307.813 14.256C308.058 14.0747 308.25 13.8133 308.389 13.472C308.527 13.1253 308.597 12.7013 308.597 12.2C308.597 11.6987 308.527 11.2773 308.389 10.936C308.25 10.5893 308.058 10.328 307.813 10.152C307.567 9.97067 307.279 9.88 306.949 9.88C306.629 9.88 306.343 9.97067 306.093 10.152C305.842 10.328 305.647 10.5893 305.509 10.936C305.37 11.2773 305.301 11.6987 305.301 12.2C305.301 12.7013 305.37 13.1253 305.509 13.472C305.647 13.8133 305.842 14.0747 306.093 14.256C306.343 14.432 306.629 14.52 306.949 14.52ZM312.142 15.048C311.694 15.048 311.307 14.984 310.982 14.856C310.662 14.728 310.414 14.544 310.238 14.304C310.067 14.0587 309.982 13.7707 309.982 13.44C309.982 13.12 310.064 12.848 310.23 12.624C310.4 12.3947 310.646 12.2187 310.966 12.096C311.291 11.9733 311.683 11.912 312.142 11.912C312.595 11.912 312.984 11.9733 313.31 12.096C313.635 12.2187 313.883 12.3947 314.054 12.624C314.23 12.848 314.318 13.12 314.318 13.44C314.318 13.7707 314.23 14.0587 314.054 14.304C313.878 14.544 313.627 14.728 313.302 14.856C312.976 14.984 312.59 15.048 312.142 15.048ZM312.142 14.56C312.638 14.56 313.024 14.4587 313.302 14.256C313.584 14.0533 313.726 13.7787 313.726 13.432C313.726 13.0853 313.584 12.8133 313.302 12.616C313.024 12.4133 312.638 12.312 312.142 12.312C311.646 12.312 311.259 12.4133 310.982 12.616C310.704 12.8133 310.566 13.0853 310.566 13.432C310.566 13.7787 310.704 14.0533 310.982 14.256C311.259 14.4587 311.646 14.56 312.142 14.56ZM312.142 12.24C311.726 12.24 311.371 12.184 311.078 12.072C310.79 11.96 310.568 11.8 310.414 11.592C310.259 11.3787 310.182 11.1253 310.182 10.832C310.182 10.5227 310.262 10.2587 310.422 10.04C310.587 9.816 310.816 9.64533 311.11 9.528C311.403 9.41067 311.747 9.352 312.142 9.352C312.536 9.352 312.88 9.41067 313.174 9.528C313.472 9.64533 313.704 9.816 313.87 10.04C314.035 10.2587 314.118 10.5227 314.118 10.832C314.118 11.1253 314.04 11.3787 313.886 11.592C313.731 11.8 313.504 11.96 313.206 12.072C312.912 12.184 312.558 12.24 312.142 12.24ZM312.142 11.856C312.579 11.856 312.92 11.7653 313.166 11.584C313.411 11.4027 313.534 11.16 313.534 10.856C313.534 10.536 313.406 10.288 313.15 10.112C312.899 9.93067 312.563 9.84 312.142 9.84C311.72 9.84 311.384 9.93067 311.134 10.112C310.883 10.288 310.758 10.5333 310.758 10.848C310.758 11.1573 310.878 11.4027 311.118 11.584C311.363 11.7653 311.704 11.856 312.142 11.856Z" fill="black"/>
<path d="M145.272 12.06C145.096 12.06 144.944 11.996 144.816 11.868C144.696 11.74 144.636 11.584 144.636 11.4C144.636 11.208 144.696 11.052 144.816 10.932C144.944 10.812 145.096 10.752 145.272 10.752C145.448 10.752 145.596 10.812 145.716 10.932C145.844 11.052 145.908 11.208 145.908 11.4C145.908 11.584 145.844 11.74 145.716 11.868C145.596 11.996 145.448 12.06 145.272 12.06ZM147.815 12.06C147.639 12.06 147.487 11.996 147.359 11.868C147.239 11.74 147.179 11.584 147.179 11.4C147.179 11.208 147.239 11.052 147.359 10.932C147.487 10.812 147.639 10.752 147.815 10.752C147.991 10.752 148.139 10.812 148.259 10.932C148.387 11.052 148.451 11.208 148.451 11.4C148.451 11.584 148.387 11.74 148.259 11.868C148.139 11.996 147.991 12.06 147.815 12.06ZM150.358 12.06C150.182 12.06 150.03 11.996 149.902 11.868C149.782 11.74 149.722 11.584 149.722 11.4C149.722 11.208 149.782 11.052 149.902 10.932C150.03 10.812 150.182 10.752 150.358 10.752C150.534 10.752 150.682 10.812 150.802 10.932C150.93 11.052 150.994 11.208 150.994 11.4C150.994 11.584 150.93 11.74 150.802 11.868C150.682 11.996 150.534 12.06 150.358 12.06ZM152.901 12.06C152.725 12.06 152.573 11.996 152.445 11.868C152.325 11.74 152.265 11.584 152.265 11.4C152.265 11.208 152.325 11.052 152.445 10.932C152.573 10.812 152.725 10.752 152.901 10.752C153.077 10.752 153.225 10.812 153.345 10.932C153.473 11.052 153.537 11.208 153.537 11.4C153.537 11.584 153.473 11.74 153.345 11.868C153.225 11.996 153.077 12.06 152.901 12.06ZM155.444 12.06C155.268 12.06 155.116 11.996 154.988 11.868C154.868 11.74 154.808 11.584 154.808 11.4C154.808 11.208 154.868 11.052 154.988 10.932C155.116 10.812 155.268 10.752 155.444 10.752C155.62 10.752 155.768 10.812 155.888 10.932C156.016 11.052 156.08 11.208 156.08 11.4C156.08 11.584 156.016 11.74 155.888 11.868C155.768 11.996 155.62 12.06 155.444 12.06ZM157.987 12.06C157.811 12.06 157.659 11.996 157.531 11.868C157.411 11.74 157.351 11.584 157.351 11.4C157.351 11.208 157.411 11.052 157.531 10.932C157.659 10.812 157.811 10.752 157.987 10.752C158.163 10.752 158.311 10.812 158.431 10.932C158.559 11.052 158.623 11.208 158.623 11.4C158.623 11.584 158.559 11.74 158.431 11.868C158.311 11.996 158.163 12.06 157.987 12.06ZM160.53 12.06C160.354 12.06 160.202 11.996 160.074 11.868C159.954 11.74 159.894 11.584 159.894 11.4C159.894 11.208 159.954 11.052 160.074 10.932C160.202 10.812 160.354 10.752 160.53 10.752C160.706 10.752 160.854 10.812 160.974 10.932C161.102 11.052 161.166 11.208 161.166 11.4C161.166 11.584 161.102 11.74 160.974 11.868C160.854 11.996 160.706 12.06 160.53 12.06ZM163.073 12.06C162.897 12.06 162.745 11.996 162.617 11.868C162.497 11.74 162.437 11.584 162.437 11.4C162.437 11.208 162.497 11.052 162.617 10.932C162.745 10.812 162.897 10.752 163.073 10.752C163.249 10.752 163.397 10.812 163.517 10.932C163.645 11.052 163.709 11.208 163.709 11.4C163.709 11.584 163.645 11.74 163.517 11.868C163.397 11.996 163.249 12.06 163.073 12.06ZM165.616 12.06C165.44 12.06 165.288 11.996 165.16 11.868C165.04 11.74 164.98 11.584 164.98 11.4C164.98 11.208 165.04 11.052 165.16 10.932C165.288 10.812 165.44 10.752 165.616 10.752C165.792 10.752 165.94 10.812 166.06 10.932C166.188 11.052 166.252 11.208 166.252 11.4C166.252 11.584 166.188 11.74 166.06 11.868C165.94 11.996 165.792 12.06 165.616 12.06ZM168.159 12.06C167.983 12.06 167.831 11.996 167.703 11.868C167.583 11.74 167.523 11.584 167.523 11.4C167.523 11.208 167.583 11.052 167.703 10.932C167.831 10.812 167.983 10.752 168.159 10.752C168.335 10.752 168.483 10.812 168.603 10.932C168.731 11.052 168.795 11.208 168.795 11.4C168.795 11.584 168.731 11.74 168.603 11.868C168.483 11.996 168.335 12.06 168.159 12.06ZM170.702 12.06C170.526 12.06 170.374 11.996 170.246 11.868C170.126 11.74 170.066 11.584 170.066 11.4C170.066 11.208 170.126 11.052 170.246 10.932C170.374 10.812 170.526 10.752 170.702 10.752C170.878 10.752 171.026 10.812 171.146 10.932C171.274 11.052 171.338 11.208 171.338 11.4C171.338 11.584 171.274 11.74 171.146 11.868C171.026 11.996 170.878 12.06 170.702 12.06ZM173.245 12.06C173.069 12.06 172.917 11.996 172.789 11.868C172.669 11.74 172.609 11.584 172.609 11.4C172.609 11.208 172.669 11.052 172.789 10.932C172.917 10.812 173.069 10.752 173.245 10.752C173.421 10.752 173.569 10.812 173.689 10.932C173.817 11.052 173.881 11.208 173.881 11.4C173.881 11.584 173.817 11.74 173.689 11.868C173.569 11.996 173.421 12.06 173.245 12.06ZM175.788 12.06C175.612 12.06 175.46 11.996 175.332 11.868C175.212 11.74 175.152 11.584 175.152 11.4C175.152 11.208 175.212 11.052 175.332 10.932C175.46 10.812 175.612 10.752 175.788 10.752C175.964 10.752 176.112 10.812 176.232 10.932C176.36 11.052 176.424 11.208 176.424 11.4C176.424 11.584 176.36 11.74 176.232 11.868C176.112 11.996 175.964 12.06 175.788 12.06ZM178.331 12.06C178.155 12.06 178.003 11.996 177.875 11.868C177.755 11.74 177.695 11.584 177.695 11.4C177.695 11.208 177.755 11.052 177.875 10.932C178.003 10.812 178.155 10.752 178.331 10.752C178.507 10.752 178.655 10.812 178.775 10.932C178.903 11.052 178.967 11.208 178.967 11.4C178.967 11.584 178.903 11.74 178.775 11.868C178.655 11.996 178.507 12.06 178.331 12.06ZM180.874 12.06C180.698 12.06 180.546 11.996 180.418 11.868C180.298 11.74 180.238 11.584 180.238 11.4C180.238 11.208 180.298 11.052 180.418 10.932C180.546 10.812 180.698 10.752 180.874 10.752C181.05 10.752 181.198 10.812 181.318 10.932C181.446 11.052 181.51 11.208 181.51 11.4C181.51 11.584 181.446 11.74 181.318 11.868C181.198 11.996 181.05 12.06 180.874 12.06ZM183.417 12.06C183.241 12.06 183.089 11.996 182.961 11.868C182.841 11.74 182.781 11.584 182.781 11.4C182.781 11.208 182.841 11.052 182.961 10.932C183.089 10.812 183.241 10.752 183.417 10.752C183.593 10.752 183.741 10.812 183.861 10.932C183.989 11.052 184.053 11.208 184.053 11.4C184.053 11.584 183.989 11.74 183.861 11.868C183.741 11.996 183.593 12.06 183.417 12.06ZM185.96 12.06C185.784 12.06 185.632 11.996 185.504 11.868C185.384 11.74 185.324 11.584 185.324 11.4C185.324 11.208 185.384 11.052 185.504 10.932C185.632 10.812 185.784 10.752 185.96 10.752C186.136 10.752 186.284 10.812 186.404 10.932C186.532 11.052 186.596 11.208 186.596 11.4C186.596 11.584 186.532 11.74 186.404 11.868C186.284 11.996 186.136 12.06 185.96 12.06ZM188.502 12.06C188.326 12.06 188.174 11.996 188.046 11.868C187.926 11.74 187.866 11.584 187.866 11.4C187.866 11.208 187.926 11.052 188.046 10.932C188.174 10.812 188.326 10.752 188.502 10.752C188.678 10.752 188.826 10.812 188.946 10.932C189.074 11.052 189.138 11.208 189.138 11.4C189.138 11.584 189.074 11.74 188.946 11.868C188.826 11.996 188.678 12.06 188.502 12.06ZM191.045 12.06C190.869 12.06 190.717 11.996 190.589 11.868C190.469 11.74 190.409 11.584 190.409 11.4C190.409 11.208 190.469 11.052 190.589 10.932C190.717 10.812 190.869 10.752 191.045 10.752C191.221 10.752 191.369 10.812 191.489 10.932C191.617 11.052 191.681 11.208 191.681 11.4C191.681 11.584 191.617 11.74 191.489 11.868C191.369 11.996 191.221 12.06 191.045 12.06ZM193.588 12.06C193.412 12.06 193.26 11.996 193.132 11.868C193.012 11.74 192.952 11.584 192.952 11.4C192.952 11.208 193.012 11.052 193.132 10.932C193.26 10.812 193.412 10.752 193.588 10.752C193.764 10.752 193.912 10.812 194.032 10.932C194.16 11.052 194.224 11.208 194.224 11.4C194.224 11.584 194.16 11.74 194.032 11.868C193.912 11.996 193.764 12.06 193.588 12.06ZM196.131 12.06C195.955 12.06 195.803 11.996 195.675 11.868C195.555 11.74 195.495 11.584 195.495 11.4C195.495 11.208 195.555 11.052 195.675 10.932C195.803 10.812 195.955 10.752 196.131 10.752C196.307 10.752 196.455 10.812 196.575 10.932C196.703 11.052 196.767 11.208 196.767 11.4C196.767 11.584 196.703 11.74 196.575 11.868C196.455 11.996 196.307 12.06 196.131 12.06ZM198.674 12.06C198.498 12.06 198.346 11.996 198.218 11.868C198.098 11.74 198.038 11.584 198.038 11.4C198.038 11.208 198.098 11.052 198.218 10.932C198.346 10.812 198.498 10.752 198.674 10.752C198.85 10.752 198.998 10.812 199.118 10.932C199.246 11.052 199.31 11.208 199.31 11.4C199.31 11.584 199.246 11.74 199.118 11.868C198.998 11.996 198.85 12.06 198.674 12.06ZM201.217 12.06C201.041 12.06 200.889 11.996 200.761 11.868C200.641 11.74 200.581 11.584 200.581 11.4C200.581 11.208 200.641 11.052 200.761 10.932C200.889 10.812 201.041 10.752 201.217 10.752C201.393 10.752 201.541 10.812 201.661 10.932C201.789 11.052 201.853 11.208 201.853 11.4C201.853 11.584 201.789 11.74 201.661 11.868C201.541 11.996 201.393 12.06 201.217 12.06ZM203.76 12.06C203.584 12.06 203.432 11.996 203.304 11.868C203.184 11.74 203.124 11.584 203.124 11.4C203.124 11.208 203.184 11.052 203.304 10.932C203.432 10.812 203.584 10.752 203.76 10.752C203.936 10.752 204.084 10.812 204.204 10.932C204.332 11.052 204.396 11.208 204.396 11.4C204.396 11.584 204.332 11.74 204.204 11.868C204.084 11.996 203.936 12.06 203.76 12.06ZM206.303 12.06C206.127 12.06 205.975 11.996 205.847 11.868C205.727 11.74 205.667 11.584 205.667 11.4C205.667 11.208 205.727 11.052 205.847 10.932C205.975 10.812 206.127 10.752 206.303 10.752C206.479 10.752 206.627 10.812 206.747 10.932C206.875 11.052 206.939 11.208 206.939 11.4C206.939 11.584 206.875 11.74 206.747 11.868C206.627 11.996 206.479 12.06 206.303 12.06ZM208.846 12.06C208.67 12.06 208.518 11.996 208.39 11.868C208.27 11.74 208.21 11.584 208.21 11.4C208.21 11.208 208.27 11.052 208.39 10.932C208.518 10.812 208.67 10.752 208.846 10.752C209.022 10.752 209.17 10.812 209.29 10.932C209.418 11.052 209.482 11.208 209.482 11.4C209.482 11.584 209.418 11.74 209.29 11.868C209.17 11.996 209.022 12.06 208.846 12.06ZM211.389 12.06C211.213 12.06 211.061 11.996 210.933 11.868C210.813 11.74 210.753 11.584 210.753 11.4C210.753 11.208 210.813 11.052 210.933 10.932C211.061 10.812 211.213 10.752 211.389 10.752C211.565 10.752 211.713 10.812 211.833 10.932C211.961 11.052 212.025 11.208 212.025 11.4C212.025 11.584 211.961 11.74 211.833 11.868C211.713 11.996 211.565 12.06 211.389 12.06ZM213.932 12.06C213.756 12.06 213.604 11.996 213.476 11.868C213.356 11.74 213.296 11.584 213.296 11.4C213.296 11.208 213.356 11.052 213.476 10.932C213.604 10.812 213.756 10.752 213.932 10.752C214.108 10.752 214.256 10.812 214.376 10.932C214.504 11.052 214.568 11.208 214.568 11.4C214.568 11.584 214.504 11.74 214.376 11.868C214.256 11.996 214.108 12.06 213.932 12.06ZM216.475 12.06C216.299 12.06 216.147 11.996 216.019 11.868C215.899 11.74 215.839 11.584 215.839 11.4C215.839 11.208 215.899 11.052 216.019 10.932C216.147 10.812 216.299 10.752 216.475 10.752C216.651 10.752 216.799 10.812 216.919 10.932C217.047 11.052 217.111 11.208 217.111 11.4C217.111 11.584 217.047 11.74 216.919 11.868C216.799 11.996 216.651 12.06 216.475 12.06ZM219.018 12.06C218.842 12.06 218.69 11.996 218.562 11.868C218.442 11.74 218.382 11.584 218.382 11.4C218.382 11.208 218.442 11.052 218.562 10.932C218.69 10.812 218.842 10.752 219.018 10.752C219.194 10.752 219.342 10.812 219.462 10.932C219.59 11.052 219.654 11.208 219.654 11.4C219.654 11.584 219.59 11.74 219.462 11.868C219.342 11.996 219.194 12.06 219.018 12.06ZM221.561 12.06C221.385 12.06 221.233 11.996 221.105 11.868C220.985 11.74 220.925 11.584 220.925 11.4C220.925 11.208 220.985 11.052 221.105 10.932C221.233 10.812 221.385 10.752 221.561 10.752C221.737 10.752 221.885 10.812 222.005 10.932C222.133 11.052 222.197 11.208 222.197 11.4C222.197 11.584 222.133 11.74 222.005 11.868C221.885 11.996 221.737 12.06 221.561 12.06ZM224.104 12.06C223.928 12.06 223.776 11.996 223.648 11.868C223.528 11.74 223.468 11.584 223.468 11.4C223.468 11.208 223.528 11.052 223.648 10.932C223.776 10.812 223.928 10.752 224.104 10.752C224.28 10.752 224.428 10.812 224.548 10.932C224.676 11.052 224.74 11.208 224.74 11.4C224.74 11.584 224.676 11.74 224.548 11.868C224.428 11.996 224.28 12.06 224.104 12.06ZM226.647 12.06C226.471 12.06 226.319 11.996 226.191 11.868C226.071 11.74 226.011 11.584 226.011 11.4C226.011 11.208 226.071 11.052 226.191 10.932C226.319 10.812 226.471 10.752 226.647 10.752C226.823 10.752 226.971 10.812 227.091 10.932C227.219 11.052 227.283 11.208 227.283 11.4C227.283 11.584 227.219 11.74 227.091 11.868C226.971 11.996 226.823 12.06 226.647 12.06ZM229.19 12.06C229.014 12.06 228.862 11.996 228.734 11.868C228.614 11.74 228.554 11.584 228.554 11.4C228.554 11.208 228.614 11.052 228.734 10.932C228.862 10.812 229.014 10.752 229.19 10.752C229.366 10.752 229.514 10.812 229.634 10.932C229.762 11.052 229.826 11.208 229.826 11.4C229.826 11.584 229.762 11.74 229.634 11.868C229.514 11.996 229.366 12.06 229.19 12.06ZM231.733 12.06C231.557 12.06 231.405 11.996 231.277 11.868C231.157 11.74 231.097 11.584 231.097 11.4C231.097 11.208 231.157 11.052 231.277 10.932C231.405 10.812 231.557 10.752 231.733 10.752C231.909 10.752 232.057 10.812 232.177 10.932C232.305 11.052 232.369 11.208 232.369 11.4C232.369 11.584 232.305 11.74 232.177 11.868C232.057 11.996 231.909 12.06 231.733 12.06ZM234.276 12.06C234.1 12.06 233.948 11.996 233.82 11.868C233.7 11.74 233.64 11.584 233.64 11.4C233.64 11.208 233.7 11.052 233.82 10.932C233.948 10.812 234.1 10.752 234.276 10.752C234.452 10.752 234.6 10.812 234.72 10.932C234.848 11.052 234.912 11.208 234.912 11.4C234.912 11.584 234.848 11.74 234.72 11.868C234.6 11.996 234.452 12.06 234.276 12.06ZM236.819 12.06C236.643 12.06 236.491 11.996 236.363 11.868C236.243 11.74 236.183 11.584 236.183 11.4C236.183 11.208 236.243 11.052 236.363 10.932C236.491 10.812 236.643 10.752 236.819 10.752C236.995 10.752 237.143 10.812 237.263 10.932C237.391 11.052 237.455 11.208 237.455 11.4C237.455 11.584 237.391 11.74 237.263 11.868C237.143 11.996 236.995 12.06 236.819 12.06ZM239.362 12.06C239.186 12.06 239.034 11.996 238.906 11.868C238.786 11.74 238.726 11.584 238.726 11.4C238.726 11.208 238.786 11.052 238.906 10.932C239.034 10.812 239.186 10.752 239.362 10.752C239.538 10.752 239.686 10.812 239.806 10.932C239.934 11.052 239.998 11.208 239.998 11.4C239.998 11.584 239.934 11.74 239.806 11.868C239.686 11.996 239.538 12.06 239.362 12.06ZM241.905 12.06C241.729 12.06 241.577 11.996 241.449 11.868C241.329 11.74 241.269 11.584 241.269 11.4C241.269 11.208 241.329 11.052 241.449 10.932C241.577 10.812 241.729 10.752 241.905 10.752C242.081 10.752 242.229 10.812 242.349 10.932C242.477 11.052 242.541 11.208 242.541 11.4C242.541 11.584 242.477 11.74 242.349 11.868C242.229 11.996 242.081 12.06 241.905 12.06ZM244.448 12.06C244.272 12.06 244.12 11.996 243.992 11.868C243.872 11.74 243.812 11.584 243.812 11.4C243.812 11.208 243.872 11.052 243.992 10.932C244.12 10.812 244.272 10.752 244.448 10.752C244.624 10.752 244.772 10.812 244.892 10.932C245.02 11.052 245.084 11.208 245.084 11.4C245.084 11.584 245.02 11.74 244.892 11.868C244.772 11.996 244.624 12.06 244.448 12.06ZM246.991 12.06C246.815 12.06 246.663 11.996 246.535 11.868C246.415 11.74 246.355 11.584 246.355 11.4C246.355 11.208 246.415 11.052 246.535 10.932C246.663 10.812 246.815 10.752 246.991 10.752C247.167 10.752 247.315 10.812 247.435 10.932C247.563 11.052 247.627 11.208 247.627 11.4C247.627 11.584 247.563 11.74 247.435 11.868C247.315 11.996 247.167 12.06 246.991 12.06ZM249.534 12.06C249.358 12.06 249.206 11.996 249.078 11.868C248.958 11.74 248.898 11.584 248.898 11.4C248.898 11.208 248.958 11.052 249.078 10.932C249.206 10.812 249.358 10.752 249.534 10.752C249.71 10.752 249.858 10.812 249.978 10.932C250.106 11.052 250.17 11.208 250.17 11.4C250.17 11.584 250.106 11.74 249.978 11.868C249.858 11.996 249.71 12.06 249.534 12.06ZM252.077 12.06C251.901 12.06 251.749 11.996 251.621 11.868C251.501 11.74 251.441 11.584 251.441 11.4C251.441 11.208 251.501 11.052 251.621 10.932C251.749 10.812 251.901 10.752 252.077 10.752C252.253 10.752 252.401 10.812 252.521 10.932C252.649 11.052 252.713 11.208 252.713 11.4C252.713 11.584 252.649 11.74 252.521 11.868C252.401 11.996 252.253 12.06 252.077 12.06ZM254.62 12.06C254.444 12.06 254.292 11.996 254.164 11.868C254.044 11.74 253.984 11.584 253.984 11.4C253.984 11.208 254.044 11.052 254.164 10.932C254.292 10.812 254.444 10.752 254.62 10.752C254.796 10.752 254.944 10.812 255.064 10.932C255.192 11.052 255.256 11.208 255.256 11.4C255.256 11.584 255.192 11.74 255.064 11.868C254.944 11.996 254.796 12.06 254.62 12.06ZM257.163 12.06C256.987 12.06 256.835 11.996 256.707 11.868C256.587 11.74 256.527 11.584 256.527 11.4C256.527 11.208 256.587 11.052 256.707 10.932C256.835 10.812 256.987 10.752 257.163 10.752C257.339 10.752 257.487 10.812 257.607 10.932C257.735 11.052 257.799 11.208 257.799 11.4C257.799 11.584 257.735 11.74 257.607 11.868C257.487 11.996 257.339 12.06 257.163 12.06ZM259.706 12.06C259.53 12.06 259.378 11.996 259.25 11.868C259.13 11.74 259.07 11.584 259.07 11.4C259.07 11.208 259.13 11.052 259.25 10.932C259.378 10.812 259.53 10.752 259.706 10.752C259.882 10.752 260.03 10.812 260.15 10.932C260.278 11.052 260.342 11.208 260.342 11.4C260.342 11.584 260.278 11.74 260.15 11.868C260.03 11.996 259.882 12.06 259.706 12.06ZM262.249 12.06C262.073 12.06 261.921 11.996 261.793 11.868C261.673 11.74 261.613 11.584 261.613 11.4C261.613 11.208 261.673 11.052 261.793 10.932C261.921 10.812 262.073 10.752 262.249 10.752C262.425 10.752 262.573 10.812 262.693 10.932C262.821 11.052 262.885 11.208 262.885 11.4C262.885 11.584 262.821 11.74 262.693 11.868C262.573 11.996 262.425 12.06 262.249 12.06ZM264.792 12.06C264.616 12.06 264.464 11.996 264.336 11.868C264.216 11.74 264.156 11.584 264.156 11.4C264.156 11.208 264.216 11.052 264.336 10.932C264.464 10.812 264.616 10.752 264.792 10.752C264.968 10.752 265.116 10.812 265.236 10.932C265.364 11.052 265.428 11.208 265.428 11.4C265.428 11.584 265.364 11.74 265.236 11.868C265.116 11.996 264.968 12.06 264.792 12.06ZM267.335 12.06C267.159 12.06 267.007 11.996 266.879 11.868C266.759 11.74 266.699 11.584 266.699 11.4C266.699 11.208 266.759 11.052 266.879 10.932C267.007 10.812 267.159 10.752 267.335 10.752C267.511 10.752 267.659 10.812 267.779 10.932C267.907 11.052 267.971 11.208 267.971 11.4C267.971 11.584 267.907 11.74 267.779 11.868C267.659 11.996 267.511 12.06 267.335 12.06ZM269.877 12.06C269.701 12.06 269.549 11.996 269.421 11.868C269.301 11.74 269.241 11.584 269.241 11.4C269.241 11.208 269.301 11.052 269.421 10.932C269.549 10.812 269.701 10.752 269.877 10.752C270.053 10.752 270.201 10.812 270.321 10.932C270.449 11.052 270.513 11.208 270.513 11.4C270.513 11.584 270.449 11.74 270.321 11.868C270.201 11.996 270.053 12.06 269.877 12.06ZM272.42 12.06C272.244 12.06 272.092 11.996 271.964 11.868C271.844 11.74 271.784 11.584 271.784 11.4C271.784 11.208 271.844 11.052 271.964 10.932C272.092 10.812 272.244 10.752 272.42 10.752C272.596 10.752 272.744 10.812 272.864 10.932C272.992 11.052 273.056 11.208 273.056 11.4C273.056 11.584 272.992 11.74 272.864 11.868C272.744 11.996 272.596 12.06 272.42 12.06ZM274.963 12.06C274.787 12.06 274.635 11.996 274.507 11.868C274.387 11.74 274.327 11.584 274.327 11.4C274.327 11.208 274.387 11.052 274.507 10.932C274.635 10.812 274.787 10.752 274.963 10.752C275.139 10.752 275.287 10.812 275.407 10.932C275.535 11.052 275.599 11.208 275.599 11.4C275.599 11.584 275.535 11.74 275.407 11.868C275.287 11.996 275.139 12.06 274.963 12.06ZM277.506 12.06C277.33 12.06 277.178 11.996 277.05 11.868C276.93 11.74 276.87 11.584 276.87 11.4C276.87 11.208 276.93 11.052 277.05 10.932C277.178 10.812 277.33 10.752 277.506 10.752C277.682 10.752 277.83 10.812 277.95 10.932C278.078 11.052 278.142 11.208 278.142 11.4C278.142 11.584 278.078 11.74 277.95 11.868C277.83 11.996 277.682 12.06 277.506 12.06ZM280.049 12.06C279.873 12.06 279.721 11.996 279.593 11.868C279.473 11.74 279.413 11.584 279.413 11.4C279.413 11.208 279.473 11.052 279.593 10.932C279.721 10.812 279.873 10.752 280.049 10.752C280.225 10.752 280.373 10.812 280.493 10.932C280.621 11.052 280.685 11.208 280.685 11.4C280.685 11.584 280.621 11.74 280.493 11.868C280.373 11.996 280.225 12.06 280.049 12.06ZM282.592 12.06C282.416 12.06 282.264 11.996 282.136 11.868C282.016 11.74 281.956 11.584 281.956 11.4C281.956 11.208 282.016 11.052 282.136 10.932C282.264 10.812 282.416 10.752 282.592 10.752C282.768 10.752 282.916 10.812 283.036 10.932C283.164 11.052 283.228 11.208 283.228 11.4C283.228 11.584 283.164 11.74 283.036 11.868C282.916 11.996 282.768 12.06 282.592 12.06ZM285.135 12.06C284.959 12.06 284.807 11.996 284.679 11.868C284.559 11.74 284.499 11.584 284.499 11.4C284.499 11.208 284.559 11.052 284.679 10.932C284.807 10.812 284.959 10.752 285.135 10.752C285.311 10.752 285.459 10.812 285.579 10.932C285.707 11.052 285.771 11.208 285.771 11.4C285.771 11.584 285.707 11.74 285.579 11.868C285.459 11.996 285.311 12.06 285.135 12.06ZM287.678 12.06C287.502 12.06 287.35 11.996 287.222 11.868C287.102 11.74 287.042 11.584 287.042 11.4C287.042 11.208 287.102 11.052 287.222 10.932C287.35 10.812 287.502 10.752 287.678 10.752C287.854 10.752 288.002 10.812 288.122 10.932C288.25 11.052 288.314 11.208 288.314 11.4C288.314 11.584 288.25 11.74 288.122 11.868C288.002 11.996 287.854 12.06 287.678 12.06ZM290.221 12.06C290.045 12.06 289.893 11.996 289.765 11.868C289.645 11.74 289.585 11.584 289.585 11.4C289.585 11.208 289.645 11.052 289.765 10.932C289.893 10.812 290.045 10.752 290.221 10.752C290.397 10.752 290.545 10.812 290.665 10.932C290.793 11.052 290.857 11.208 290.857 11.4C290.857 11.584 290.793 11.74 290.665 11.868C290.545 11.996 290.397 12.06 290.221 12.06Z" fill="black"/>
</svg>
