<svg width="96" height="7" viewBox="0 0 96 7" fill="none" xmlns="http://www.w3.org/2000/svg">
<path id="250_ml_Round_Container" d="M0.312 6V5.592L2.64 3.312C2.85333 3.104 3.01333 2.92267 3.12 2.768C3.22667 2.608 3.29867 2.45867 3.336 2.32C3.37333 2.18133 3.392 2.05067 3.392 1.928C3.392 1.60267 3.28 1.34667 3.056 1.16C2.83733 0.973333 2.512 0.88 2.08 0.88C1.74933 0.88 1.456 0.930666 1.2 1.032C0.949333 1.13333 0.733333 1.29067 0.552 1.504L0.144 1.152C0.362667 0.896 0.642667 0.698666 0.984 0.56C1.32533 0.421333 1.70667 0.352 2.128 0.352C2.50667 0.352 2.83467 0.413333 3.112 0.536C3.38933 0.653333 3.60267 0.826667 3.752 1.056C3.90667 1.28533 3.984 1.55467 3.984 1.864C3.984 2.04533 3.95733 2.224 3.904 2.4C3.856 2.576 3.76533 2.76267 3.632 2.96C3.504 3.152 3.31467 3.37067 3.064 3.616L0.928 5.712L0.768 5.488H4.24V6H0.312ZM6.73088 6.048C6.33088 6.048 5.94954 5.984 5.58688 5.856C5.22421 5.72267 4.93621 5.54667 4.72288 5.328L5.00288 4.872C5.17888 5.05867 5.41888 5.21333 5.72287 5.336C6.03221 5.45867 6.36554 5.52 6.72288 5.52C7.19754 5.52 7.55754 5.416 7.80288 5.208C8.05354 4.99467 8.17888 4.71733 8.17888 4.376C8.17888 4.136 8.12021 3.93067 8.00288 3.76C7.89088 3.584 7.69888 3.448 7.42688 3.352C7.15488 3.256 6.78154 3.208 6.30688 3.208H5.11488L5.40288 0.4H8.46688V0.912H5.63488L5.93088 0.632L5.68288 2.984L5.38688 2.696H6.43488C7.00021 2.696 7.45354 2.76533 7.79488 2.904C8.13621 3.04267 8.38154 3.23733 8.53088 3.488C8.68554 3.73333 8.76288 4.02133 8.76288 4.352C8.76288 4.66667 8.68821 4.95467 8.53888 5.216C8.38954 5.472 8.16554 5.67467 7.86688 5.824C7.56821 5.97333 7.18954 6.048 6.73088 6.048ZM11.7261 6.048C11.2941 6.048 10.9101 5.936 10.5741 5.712C10.2381 5.48267 9.97413 5.15733 9.78213 4.736C9.59013 4.30933 9.49413 3.79733 9.49413 3.2C9.49413 2.60267 9.59013 2.09333 9.78213 1.672C9.97413 1.24533 10.2381 0.92 10.5741 0.696C10.9101 0.466666 11.2941 0.352 11.7261 0.352C12.1581 0.352 12.5421 0.466666 12.8781 0.696C13.2141 0.92 13.4781 1.24533 13.6701 1.672C13.8675 2.09333 13.9661 2.60267 13.9661 3.2C13.9661 3.79733 13.8675 4.30933 13.6701 4.736C13.4781 5.15733 13.2141 5.48267 12.8781 5.712C12.5421 5.936 12.1581 6.048 11.7261 6.048ZM11.7261 5.52C12.0568 5.52 12.3448 5.432 12.5901 5.256C12.8355 5.07467 13.0275 4.81333 13.1661 4.472C13.3048 4.12533 13.3741 3.70133 13.3741 3.2C13.3741 2.69867 13.3048 2.27733 13.1661 1.936C13.0275 1.58933 12.8355 1.328 12.5901 1.152C12.3448 0.970666 12.0568 0.88 11.7261 0.88C11.4061 0.88 11.1208 0.970666 10.8701 1.152C10.6195 1.328 10.4248 1.58933 10.2861 1.936C10.1475 2.27733 10.0781 2.69867 10.0781 3.2C10.0781 3.70133 10.1475 4.12533 10.2861 4.472C10.4248 4.81333 10.6195 5.07467 10.8701 5.256C11.1208 5.432 11.4061 5.52 11.7261 5.52ZM20.415 1.76C20.7563 1.76 21.0523 1.82667 21.303 1.96C21.559 2.088 21.7563 2.28533 21.895 2.552C22.039 2.81867 22.111 3.15467 22.111 3.56V6H21.543V3.616C21.543 3.17333 21.4363 2.84 21.223 2.616C21.015 2.38667 20.719 2.272 20.335 2.272C20.047 2.272 19.7963 2.33333 19.583 2.456C19.375 2.57333 19.2123 2.74667 19.095 2.976C18.983 3.2 18.927 3.472 18.927 3.792V6H18.359V3.616C18.359 3.17333 18.2523 2.84 18.039 2.616C17.8257 2.38667 17.527 2.272 17.143 2.272C16.8603 2.272 16.6123 2.33333 16.399 2.456C16.1857 2.57333 16.0203 2.74667 15.903 2.976C15.791 3.2 15.735 3.472 15.735 3.792V6H15.167V1.8H15.711V2.936L15.623 2.736C15.751 2.432 15.9563 2.19467 16.239 2.024C16.527 1.848 16.8657 1.76 17.255 1.76C17.6657 1.76 18.015 1.864 18.303 2.072C18.591 2.27467 18.7777 2.58133 18.863 2.992L18.639 2.904C18.7617 2.56267 18.9777 2.288 19.287 2.08C19.6017 1.86667 19.9777 1.76 20.415 1.76ZM23.6514 6V0.0639997H24.2194V6H23.6514ZM28.0136 6V0.4H30.1096C30.5842 0.4 30.9922 0.477333 31.3336 0.632C31.6749 0.781333 31.9362 1 32.1176 1.288C32.3042 1.57067 32.3976 1.91467 32.3976 2.32C32.3976 2.71467 32.3042 3.056 32.1176 3.344C31.9362 3.62667 31.6749 3.84533 31.3336 4C30.9922 4.14933 30.5842 4.224 30.1096 4.224H28.3416L28.6056 3.952V6H28.0136ZM31.8376 6L30.3976 3.968H31.0376L32.4856 6H31.8376ZM28.6056 4L28.3416 3.72H30.0936C30.6536 3.72 31.0776 3.59733 31.3656 3.352C31.6589 3.10667 31.8056 2.76267 31.8056 2.32C31.8056 1.872 31.6589 1.52533 31.3656 1.28C31.0776 1.03467 30.6536 0.912 30.0936 0.912H28.3416L28.6056 0.632V4ZM35.3868 6.04C34.9815 6.04 34.6161 5.94933 34.2908 5.768C33.9708 5.58133 33.7175 5.328 33.5308 5.008C33.3441 4.68267 33.2508 4.312 33.2508 3.896C33.2508 3.47467 33.3441 3.104 33.5308 2.784C33.7175 2.464 33.9708 2.21333 34.2908 2.032C34.6108 1.85067 34.9761 1.76 35.3868 1.76C35.8028 1.76 36.1708 1.85067 36.4908 2.032C36.8161 2.21333 37.0695 2.464 37.2508 2.784C37.4375 3.104 37.5308 3.47467 37.5308 3.896C37.5308 4.312 37.4375 4.68267 37.2508 5.008C37.0695 5.328 36.8161 5.58133 36.4908 5.768C36.1655 5.94933 35.7975 6.04 35.3868 6.04ZM35.3868 5.536C35.6908 5.536 35.9601 5.46933 36.1948 5.336C36.4295 5.19733 36.6135 5.00533 36.7468 4.76C36.8855 4.50933 36.9548 4.22133 36.9548 3.896C36.9548 3.56533 36.8855 3.27733 36.7468 3.032C36.6135 2.78667 36.4295 2.59733 36.1948 2.464C35.9601 2.32533 35.6935 2.256 35.3948 2.256C35.0961 2.256 34.8295 2.32533 34.5948 2.464C34.3601 2.59733 34.1735 2.78667 34.0348 3.032C33.8961 3.27733 33.8268 3.56533 33.8268 3.896C33.8268 4.22133 33.8961 4.50933 34.0348 4.76C34.1735 5.00533 34.3601 5.19733 34.5948 5.336C34.8295 5.46933 35.0935 5.536 35.3868 5.536ZM40.4264 6.04C40.0691 6.04 39.7571 5.97333 39.4904 5.84C39.2238 5.70667 39.0158 5.50667 38.8664 5.24C38.7224 4.97333 38.6504 4.64 38.6504 4.24V1.8H39.2184V4.176C39.2184 4.624 39.3278 4.96267 39.5464 5.192C39.7704 5.416 40.0824 5.528 40.4824 5.528C40.7758 5.528 41.0291 5.46933 41.2424 5.352C41.4611 5.22933 41.6264 5.05333 41.7384 4.824C41.8558 4.59467 41.9144 4.32 41.9144 4V1.8H42.4824V6H41.9384V4.848L42.0264 5.056C41.8931 5.36533 41.6851 5.608 41.4024 5.784C41.1251 5.95467 40.7998 6.04 40.4264 6.04ZM46.2094 1.76C46.5508 1.76 46.8494 1.82667 47.1054 1.96C47.3668 2.088 47.5694 2.28533 47.7134 2.552C47.8628 2.81867 47.9374 3.15467 47.9374 3.56V6H47.3694V3.616C47.3694 3.17333 47.2574 2.84 47.0334 2.616C46.8148 2.38667 46.5054 2.272 46.1054 2.272C45.8068 2.272 45.5454 2.33333 45.3214 2.456C45.1028 2.57333 44.9321 2.74667 44.8094 2.976C44.6921 3.2 44.6334 3.472 44.6334 3.792V6H44.0654V1.8H44.6094V2.952L44.5214 2.736C44.6548 2.432 44.8681 2.19467 45.1614 2.024C45.4548 1.848 45.8041 1.76 46.2094 1.76ZM51.1437 6.04C50.7437 6.04 50.3837 5.94933 50.0637 5.768C49.749 5.58667 49.501 5.336 49.3197 5.016C49.1384 4.69067 49.0477 4.31733 49.0477 3.896C49.0477 3.46933 49.1384 3.096 49.3197 2.776C49.501 2.456 49.749 2.208 50.0637 2.032C50.3837 1.85067 50.7437 1.76 51.1437 1.76C51.5117 1.76 51.8397 1.84267 52.1277 2.008C52.421 2.17333 52.653 2.416 52.8237 2.736C52.9997 3.05067 53.0877 3.43733 53.0877 3.896C53.0877 4.34933 53.0024 4.736 52.8317 5.056C52.661 5.376 52.429 5.62133 52.1357 5.792C51.8477 5.95733 51.517 6.04 51.1437 6.04ZM51.1837 5.536C51.4824 5.536 51.749 5.46933 51.9837 5.336C52.2237 5.19733 52.4104 5.00533 52.5437 4.76C52.6824 4.50933 52.7517 4.22133 52.7517 3.896C52.7517 3.56533 52.6824 3.27733 52.5437 3.032C52.4104 2.78667 52.2237 2.59733 51.9837 2.464C51.749 2.32533 51.4824 2.256 51.1837 2.256C50.8904 2.256 50.6264 2.32533 50.3917 2.464C50.157 2.59733 49.9704 2.78667 49.8317 3.032C49.693 3.27733 49.6237 3.56533 49.6237 3.896C49.6237 4.22133 49.693 4.50933 49.8317 4.76C49.9704 5.00533 50.157 5.19733 50.3917 5.336C50.6264 5.46933 50.8904 5.536 51.1837 5.536ZM52.7677 6V4.736L52.8237 3.888L52.7437 3.04V0.0639997H53.3117V6H52.7677ZM59.5393 6.048C59.118 6.048 58.7286 5.97867 58.3713 5.84C58.014 5.696 57.7046 5.496 57.4433 5.24C57.182 4.984 56.9766 4.68267 56.8273 4.336C56.6833 3.98933 56.6113 3.61067 56.6113 3.2C56.6113 2.78933 56.6833 2.41067 56.8273 2.064C56.9766 1.71733 57.182 1.416 57.4433 1.16C57.71 0.904 58.022 0.706666 58.3793 0.568C58.7366 0.424 59.126 0.352 59.5473 0.352C59.9526 0.352 60.334 0.421333 60.6913 0.56C61.0486 0.693333 61.35 0.896 61.5953 1.168L61.2193 1.544C60.99 1.30933 60.7366 1.14133 60.4593 1.04C60.182 0.933333 59.8833 0.88 59.5633 0.88C59.2273 0.88 58.9153 0.938666 58.6273 1.056C58.3393 1.168 58.0886 1.33067 57.8753 1.544C57.662 1.752 57.494 1.99733 57.3713 2.28C57.254 2.55733 57.1953 2.864 57.1953 3.2C57.1953 3.536 57.254 3.84533 57.3713 4.128C57.494 4.40533 57.662 4.65067 57.8753 4.864C58.0886 5.072 58.3393 5.23467 58.6273 5.352C58.9153 5.464 59.2273 5.52 59.5633 5.52C59.8833 5.52 60.182 5.46667 60.4593 5.36C60.7366 5.25333 60.99 5.08267 61.2193 4.848L61.5953 5.224C61.35 5.496 61.0486 5.70133 60.6913 5.84C60.334 5.97867 59.95 6.048 59.5393 6.048ZM64.2618 6.04C63.8565 6.04 63.4911 5.94933 63.1658 5.768C62.8458 5.58133 62.5925 5.328 62.4058 5.008C62.2191 4.68267 62.1258 4.312 62.1258 3.896C62.1258 3.47467 62.2191 3.104 62.4058 2.784C62.5925 2.464 62.8458 2.21333 63.1658 2.032C63.4858 1.85067 63.8511 1.76 64.2618 1.76C64.6778 1.76 65.0458 1.85067 65.3658 2.032C65.6911 2.21333 65.9445 2.464 66.1258 2.784C66.3125 3.104 66.4058 3.47467 66.4058 3.896C66.4058 4.312 66.3125 4.68267 66.1258 5.008C65.9445 5.328 65.6911 5.58133 65.3658 5.768C65.0405 5.94933 64.6725 6.04 64.2618 6.04ZM64.2618 5.536C64.5658 5.536 64.8351 5.46933 65.0698 5.336C65.3045 5.19733 65.4885 5.00533 65.6218 4.76C65.7605 4.50933 65.8298 4.22133 65.8298 3.896C65.8298 3.56533 65.7605 3.27733 65.6218 3.032C65.4885 2.78667 65.3045 2.59733 65.0698 2.464C64.8351 2.32533 64.5685 2.256 64.2698 2.256C63.9711 2.256 63.7045 2.32533 63.4698 2.464C63.2351 2.59733 63.0485 2.78667 62.9098 3.032C62.7711 3.27733 62.7018 3.56533 62.7018 3.896C62.7018 4.22133 62.7711 4.50933 62.9098 4.76C63.0485 5.00533 63.2351 5.19733 63.4698 5.336C63.7045 5.46933 63.9685 5.536 64.2618 5.536ZM69.7094 1.76C70.0508 1.76 70.3494 1.82667 70.6054 1.96C70.8668 2.088 71.0694 2.28533 71.2134 2.552C71.3628 2.81867 71.4374 3.15467 71.4374 3.56V6H70.8694V3.616C70.8694 3.17333 70.7574 2.84 70.5334 2.616C70.3148 2.38667 70.0054 2.272 69.6054 2.272C69.3068 2.272 69.0454 2.33333 68.8214 2.456C68.6028 2.57333 68.4321 2.74667 68.3094 2.976C68.1921 3.2 68.1334 3.472 68.1334 3.792V6H67.5654V1.8H68.1094V2.952L68.0214 2.736C68.1548 2.432 68.3681 2.19467 68.6614 2.024C68.9548 1.848 69.3041 1.76 69.7094 1.76ZM74.2997 6.04C73.905 6.04 73.601 5.93333 73.3877 5.72C73.1744 5.50667 73.0677 5.20533 73.0677 4.816V0.872H73.6357V4.784C73.6357 5.02933 73.697 5.21867 73.8197 5.352C73.9477 5.48533 74.129 5.552 74.3637 5.552C74.6144 5.552 74.8224 5.48 74.9877 5.336L75.1877 5.744C75.0757 5.84533 74.9397 5.92 74.7797 5.968C74.625 6.016 74.465 6.04 74.2997 6.04ZM72.3157 2.272V1.8H74.9157V2.272H72.3157ZM78.8537 6V5.072L78.8297 4.92V3.368C78.8297 3.01067 78.7284 2.736 78.5257 2.544C78.3284 2.352 78.0324 2.256 77.6377 2.256C77.3657 2.256 77.107 2.30133 76.8617 2.392C76.6164 2.48267 76.4084 2.60267 76.2377 2.752L75.9817 2.328C76.195 2.14667 76.451 2.008 76.7497 1.912C77.0484 1.81067 77.363 1.76 77.6937 1.76C78.2377 1.76 78.6564 1.896 78.9497 2.168C79.2484 2.43467 79.3977 2.84267 79.3977 3.392V6H78.8537ZM77.4057 6.04C77.091 6.04 76.8164 5.98933 76.5817 5.888C76.3524 5.78133 76.1764 5.63733 76.0537 5.456C75.931 5.26933 75.8697 5.056 75.8697 4.816C75.8697 4.59733 75.9204 4.4 76.0217 4.224C76.1284 4.04267 76.299 3.89867 76.5337 3.792C76.7737 3.68 77.0937 3.624 77.4937 3.624H78.9417V4.048H77.5097C77.1044 4.048 76.8217 4.12 76.6617 4.264C76.507 4.408 76.4297 4.58667 76.4297 4.8C76.4297 5.04 76.523 5.232 76.7097 5.376C76.8964 5.52 77.1577 5.592 77.4937 5.592C77.8137 5.592 78.0884 5.52 78.3177 5.376C78.5524 5.22667 78.723 5.01333 78.8297 4.736L78.9577 5.128C78.851 5.40533 78.6644 5.62667 78.3977 5.792C78.1364 5.95733 77.8057 6.04 77.4057 6.04ZM80.9404 6V1.8H81.5084V6H80.9404ZM81.2284 0.872C81.1111 0.872 81.0124 0.832 80.9324 0.752C80.8524 0.672 80.8124 0.576 80.8124 0.464C80.8124 0.352 80.8524 0.258666 80.9324 0.184C81.0124 0.104 81.1111 0.0639997 81.2284 0.0639997C81.3458 0.0639997 81.4444 0.101333 81.5244 0.176C81.6044 0.250666 81.6444 0.344 81.6444 0.456C81.6444 0.573333 81.6044 0.672 81.5244 0.752C81.4498 0.832 81.3511 0.872 81.2284 0.872ZM85.2329 1.76C85.5742 1.76 85.8729 1.82667 86.1289 1.96C86.3902 2.088 86.5929 2.28533 86.7369 2.552C86.8862 2.81867 86.9609 3.15467 86.9609 3.56V6H86.3929V3.616C86.3929 3.17333 86.2809 2.84 86.0569 2.616C85.8382 2.38667 85.5289 2.272 85.1289 2.272C84.8302 2.272 84.5689 2.33333 84.3449 2.456C84.1262 2.57333 83.9555 2.74667 83.8329 2.976C83.7155 3.2 83.6569 3.472 83.6569 3.792V6H83.0889V1.8H83.6329V2.952L83.5449 2.736C83.6782 2.432 83.8915 2.19467 84.1849 2.024C84.4782 1.848 84.8275 1.76 85.2329 1.76ZM90.2791 6.04C89.8418 6.04 89.4578 5.94933 89.1271 5.768C88.7965 5.58133 88.5378 5.328 88.3511 5.008C88.1645 4.68267 88.0711 4.312 88.0711 3.896C88.0711 3.48 88.1591 3.112 88.3351 2.792C88.5165 2.472 88.7618 2.22133 89.0711 2.04C89.3858 1.85333 89.7378 1.76 90.1271 1.76C90.5218 1.76 90.8711 1.85067 91.1751 2.032C91.4845 2.208 91.7271 2.45867 91.9031 2.784C92.0791 3.104 92.1671 3.47467 92.1671 3.896C92.1671 3.92267 92.1645 3.952 92.1591 3.984C92.1591 4.01067 92.1591 4.04 92.1591 4.072H88.5031V3.648H91.8551L91.6311 3.816C91.6311 3.512 91.5645 3.24267 91.4311 3.008C91.3031 2.768 91.1271 2.58133 90.9031 2.448C90.6791 2.31467 90.4205 2.248 90.1271 2.248C89.8391 2.248 89.5805 2.31467 89.3511 2.448C89.1218 2.58133 88.9431 2.768 88.8151 3.008C88.6871 3.248 88.6231 3.52267 88.6231 3.832V3.92C88.6231 4.24 88.6925 4.52267 88.8311 4.768C88.9751 5.008 89.1725 5.19733 89.4231 5.336C89.6791 5.46933 89.9698 5.536 90.2951 5.536C90.5511 5.536 90.7885 5.49067 91.0071 5.4C91.2311 5.30933 91.4231 5.17067 91.5831 4.984L91.9031 5.352C91.7165 5.576 91.4818 5.74667 91.1991 5.864C90.9218 5.98133 90.6151 6.04 90.2791 6.04ZM93.3233 6V1.8H93.8673V2.944L93.8113 2.744C93.9286 2.424 94.1259 2.18133 94.4033 2.016C94.6806 1.84533 95.0246 1.76 95.4353 1.76V2.312C95.4139 2.312 95.3926 2.312 95.3713 2.312C95.3499 2.30667 95.3286 2.304 95.3073 2.304C94.8646 2.304 94.5179 2.44 94.2673 2.712C94.0166 2.97867 93.8913 3.36 93.8913 3.856V6H93.3233Z" fill="black"/>
</svg>
