<svg width="97" height="7" viewBox="0 0 97 7" fill="none" xmlns="http://www.w3.org/2000/svg">
<path id="300_ml_Round_Container&#194;&#160;&#194;&#160;" d="M2.088 6.048C1.68267 6.048 1.29867 5.984 0.936 5.856C0.578667 5.72267 0.290667 5.54667 0.072 5.328L0.352 4.872C0.533333 5.05867 0.776 5.21333 1.08 5.336C1.38933 5.45867 1.72533 5.52 2.088 5.52C2.552 5.52 2.90667 5.41867 3.152 5.216C3.40267 5.01333 3.528 4.74133 3.528 4.4C3.528 4.05867 3.40533 3.78667 3.16 3.584C2.92 3.38133 2.53867 3.28 2.016 3.28H1.616V2.856L3.344 0.688L3.424 0.912H0.304V0.4H3.904V0.808L2.176 2.976L1.896 2.792H2.112C2.784 2.792 3.28533 2.94133 3.616 3.24C3.952 3.53867 4.12 3.92267 4.12 4.392C4.12 4.70667 4.04533 4.98933 3.896 5.24C3.74667 5.49067 3.52 5.688 3.216 5.832C2.91733 5.976 2.54133 6.048 2.088 6.048ZM7.16363 6.048C6.73163 6.048 6.34763 5.936 6.01163 5.712C5.67563 5.48267 5.41163 5.15733 5.21963 4.736C5.02763 4.30933 4.93163 3.79733 4.93163 3.2C4.93163 2.60267 5.02763 2.09333 5.21963 1.672C5.41163 1.24533 5.67563 0.92 6.01163 0.696C6.34763 0.466666 6.73163 0.352 7.16363 0.352C7.59563 0.352 7.97963 0.466666 8.31563 0.696C8.65163 0.92 8.91563 1.24533 9.10763 1.672C9.30496 2.09333 9.40363 2.60267 9.40363 3.2C9.40363 3.79733 9.30496 4.30933 9.10763 4.736C8.91563 5.15733 8.65163 5.48267 8.31563 5.712C7.97963 5.936 7.59563 6.048 7.16363 6.048ZM7.16363 5.52C7.49429 5.52 7.78229 5.432 8.02763 5.256C8.27296 5.07467 8.46496 4.81333 8.60363 4.472C8.74229 4.12533 8.81163 3.70133 8.81163 3.2C8.81163 2.69867 8.74229 2.27733 8.60363 1.936C8.46496 1.58933 8.27296 1.328 8.02763 1.152C7.78229 0.970666 7.49429 0.88 7.16363 0.88C6.84363 0.88 6.55829 0.970666 6.30763 1.152C6.05696 1.328 5.86229 1.58933 5.72363 1.936C5.58496 2.27733 5.51562 2.69867 5.51562 3.2C5.51562 3.70133 5.58496 4.12533 5.72363 4.472C5.86229 4.81333 6.05696 5.07467 6.30763 5.256C6.55829 5.432 6.84363 5.52 7.16363 5.52ZM12.4605 6.048C12.0285 6.048 11.6445 5.936 11.3085 5.712C10.9725 5.48267 10.7085 5.15733 10.5165 4.736C10.3245 4.30933 10.2285 3.79733 10.2285 3.2C10.2285 2.60267 10.3245 2.09333 10.5165 1.672C10.7085 1.24533 10.9725 0.92 11.3085 0.696C11.6445 0.466666 12.0285 0.352 12.4605 0.352C12.8925 0.352 13.2765 0.466666 13.6125 0.696C13.9485 0.92 14.2125 1.24533 14.4045 1.672C14.6018 2.09333 14.7005 2.60267 14.7005 3.2C14.7005 3.79733 14.6018 4.30933 14.4045 4.736C14.2125 5.15733 13.9485 5.48267 13.6125 5.712C13.2765 5.936 12.8925 6.048 12.4605 6.048ZM12.4605 5.52C12.7912 5.52 13.0792 5.432 13.3245 5.256C13.5698 5.07467 13.7618 4.81333 13.9005 4.472C14.0392 4.12533 14.1085 3.70133 14.1085 3.2C14.1085 2.69867 14.0392 2.27733 13.9005 1.936C13.7618 1.58933 13.5698 1.328 13.3245 1.152C13.0792 0.970666 12.7912 0.88 12.4605 0.88C12.1405 0.88 11.8552 0.970666 11.6045 1.152C11.3538 1.328 11.1592 1.58933 11.0205 1.936C10.8818 2.27733 10.8125 2.69867 10.8125 3.2C10.8125 3.70133 10.8818 4.12533 11.0205 4.472C11.1592 4.81333 11.3538 5.07467 11.6045 5.256C11.8552 5.432 12.1405 5.52 12.4605 5.52ZM21.1494 1.76C21.4907 1.76 21.7867 1.82667 22.0374 1.96C22.2934 2.088 22.4907 2.28533 22.6294 2.552C22.7734 2.81867 22.8454 3.15467 22.8454 3.56V6H22.2774V3.616C22.2774 3.17333 22.1707 2.84 21.9574 2.616C21.7494 2.38667 21.4534 2.272 21.0694 2.272C20.7814 2.272 20.5307 2.33333 20.3174 2.456C20.1094 2.57333 19.9467 2.74667 19.8294 2.976C19.7174 3.2 19.6614 3.472 19.6614 3.792V6H19.0934V3.616C19.0934 3.17333 18.9867 2.84 18.7734 2.616C18.56 2.38667 18.2614 2.272 17.8774 2.272C17.5947 2.272 17.3467 2.33333 17.1334 2.456C16.92 2.57333 16.7547 2.74667 16.6374 2.976C16.5254 3.2 16.4694 3.472 16.4694 3.792V6H15.9014V1.8H16.4454V2.936L16.3574 2.736C16.4854 2.432 16.6907 2.19467 16.9734 2.024C17.2614 1.848 17.6 1.76 17.9894 1.76C18.4 1.76 18.7494 1.864 19.0374 2.072C19.3254 2.27467 19.512 2.58133 19.5974 2.992L19.3734 2.904C19.496 2.56267 19.712 2.288 20.0214 2.08C20.336 1.86667 20.712 1.76 21.1494 1.76ZM24.3858 6V0.0639997H24.9538V6H24.3858ZM28.7479 6V0.4H30.8439C31.3186 0.4 31.7266 0.477333 32.0679 0.632C32.4093 0.781333 32.6706 1 32.8519 1.288C33.0386 1.57067 33.1319 1.91467 33.1319 2.32C33.1319 2.71467 33.0386 3.056 32.8519 3.344C32.6706 3.62667 32.4093 3.84533 32.0679 4C31.7266 4.14933 31.3186 4.224 30.8439 4.224H29.0759L29.3399 3.952V6H28.7479ZM32.5719 6L31.1319 3.968H31.7719L33.2199 6H32.5719ZM29.3399 4L29.0759 3.72H30.8279C31.3879 3.72 31.8119 3.59733 32.0999 3.352C32.3933 3.10667 32.5399 2.76267 32.5399 2.32C32.5399 1.872 32.3933 1.52533 32.0999 1.28C31.8119 1.03467 31.3879 0.912 30.8279 0.912H29.0759L29.3399 0.632V4ZM36.1212 6.04C35.7159 6.04 35.3505 5.94933 35.0252 5.768C34.7052 5.58133 34.4519 5.328 34.2652 5.008C34.0785 4.68267 33.9852 4.312 33.9852 3.896C33.9852 3.47467 34.0785 3.104 34.2652 2.784C34.4519 2.464 34.7052 2.21333 35.0252 2.032C35.3452 1.85067 35.7105 1.76 36.1212 1.76C36.5372 1.76 36.9052 1.85067 37.2252 2.032C37.5505 2.21333 37.8039 2.464 37.9852 2.784C38.1719 3.104 38.2652 3.47467 38.2652 3.896C38.2652 4.312 38.1719 4.68267 37.9852 5.008C37.8039 5.328 37.5505 5.58133 37.2252 5.768C36.8999 5.94933 36.5319 6.04 36.1212 6.04ZM36.1212 5.536C36.4252 5.536 36.6945 5.46933 36.9292 5.336C37.1639 5.19733 37.3479 5.00533 37.4812 4.76C37.6199 4.50933 37.6892 4.22133 37.6892 3.896C37.6892 3.56533 37.6199 3.27733 37.4812 3.032C37.3479 2.78667 37.1639 2.59733 36.9292 2.464C36.6945 2.32533 36.4279 2.256 36.1292 2.256C35.8305 2.256 35.5639 2.32533 35.3292 2.464C35.0945 2.59733 34.9079 2.78667 34.7692 3.032C34.6305 3.27733 34.5612 3.56533 34.5612 3.896C34.5612 4.22133 34.6305 4.50933 34.7692 4.76C34.9079 5.00533 35.0945 5.19733 35.3292 5.336C35.5639 5.46933 35.8279 5.536 36.1212 5.536ZM41.1608 6.04C40.8035 6.04 40.4915 5.97333 40.2248 5.84C39.9581 5.70667 39.7501 5.50667 39.6008 5.24C39.4568 4.97333 39.3848 4.64 39.3848 4.24V1.8H39.9528V4.176C39.9528 4.624 40.0621 4.96267 40.2808 5.192C40.5048 5.416 40.8168 5.528 41.2168 5.528C41.5101 5.528 41.7635 5.46933 41.9768 5.352C42.1955 5.22933 42.3608 5.05333 42.4728 4.824C42.5901 4.59467 42.6488 4.32 42.6488 4V1.8H43.2168V6H42.6728V4.848L42.7608 5.056C42.6275 5.36533 42.4195 5.608 42.1368 5.784C41.8595 5.95467 41.5341 6.04 41.1608 6.04ZM46.9438 1.76C47.2851 1.76 47.5838 1.82667 47.8398 1.96C48.1011 2.088 48.3038 2.28533 48.4478 2.552C48.5971 2.81867 48.6718 3.15467 48.6718 3.56V6H48.1038V3.616C48.1038 3.17333 47.9918 2.84 47.7678 2.616C47.5491 2.38667 47.2398 2.272 46.8398 2.272C46.5411 2.272 46.2798 2.33333 46.0558 2.456C45.8371 2.57333 45.6665 2.74667 45.5438 2.976C45.4265 3.2 45.3678 3.472 45.3678 3.792V6H44.7998V1.8H45.3438V2.952L45.2558 2.736C45.3891 2.432 45.6025 2.19467 45.8958 2.024C46.1891 1.848 46.5385 1.76 46.9438 1.76ZM51.8781 6.04C51.4781 6.04 51.1181 5.94933 50.7981 5.768C50.4834 5.58667 50.2354 5.336 50.0541 5.016C49.8727 4.69067 49.7821 4.31733 49.7821 3.896C49.7821 3.46933 49.8727 3.096 50.0541 2.776C50.2354 2.456 50.4834 2.208 50.7981 2.032C51.1181 1.85067 51.4781 1.76 51.8781 1.76C52.2461 1.76 52.5741 1.84267 52.8621 2.008C53.1554 2.17333 53.3874 2.416 53.5581 2.736C53.7341 3.05067 53.8221 3.43733 53.8221 3.896C53.8221 4.34933 53.7367 4.736 53.5661 5.056C53.3954 5.376 53.1634 5.62133 52.8701 5.792C52.5821 5.95733 52.2514 6.04 51.8781 6.04ZM51.9181 5.536C52.2167 5.536 52.4834 5.46933 52.7181 5.336C52.9581 5.19733 53.1447 5.00533 53.2781 4.76C53.4167 4.50933 53.4861 4.22133 53.4861 3.896C53.4861 3.56533 53.4167 3.27733 53.2781 3.032C53.1447 2.78667 52.9581 2.59733 52.7181 2.464C52.4834 2.32533 52.2167 2.256 51.9181 2.256C51.6247 2.256 51.3607 2.32533 51.1261 2.464C50.8914 2.59733 50.7047 2.78667 50.5661 3.032C50.4274 3.27733 50.3581 3.56533 50.3581 3.896C50.3581 4.22133 50.4274 4.50933 50.5661 4.76C50.7047 5.00533 50.8914 5.19733 51.1261 5.336C51.3607 5.46933 51.6247 5.536 51.9181 5.536ZM53.5021 6V4.736L53.5581 3.888L53.4781 3.04V0.0639997H54.0461V6H53.5021ZM60.2737 6.048C59.8524 6.048 59.463 5.97867 59.1057 5.84C58.7484 5.696 58.439 5.496 58.1777 5.24C57.9164 4.984 57.711 4.68267 57.5617 4.336C57.4177 3.98933 57.3457 3.61067 57.3457 3.2C57.3457 2.78933 57.4177 2.41067 57.5617 2.064C57.711 1.71733 57.9164 1.416 58.1777 1.16C58.4444 0.904 58.7564 0.706666 59.1137 0.568C59.471 0.424 59.8604 0.352 60.2817 0.352C60.687 0.352 61.0684 0.421333 61.4257 0.56C61.783 0.693333 62.0844 0.896 62.3297 1.168L61.9537 1.544C61.7244 1.30933 61.471 1.14133 61.1937 1.04C60.9164 0.933333 60.6177 0.88 60.2977 0.88C59.9617 0.88 59.6497 0.938666 59.3617 1.056C59.0737 1.168 58.823 1.33067 58.6097 1.544C58.3964 1.752 58.2284 1.99733 58.1057 2.28C57.9884 2.55733 57.9297 2.864 57.9297 3.2C57.9297 3.536 57.9884 3.84533 58.1057 4.128C58.2284 4.40533 58.3964 4.65067 58.6097 4.864C58.823 5.072 59.0737 5.23467 59.3617 5.352C59.6497 5.464 59.9617 5.52 60.2977 5.52C60.6177 5.52 60.9164 5.46667 61.1937 5.36C61.471 5.25333 61.7244 5.08267 61.9537 4.848L62.3297 5.224C62.0844 5.496 61.783 5.70133 61.4257 5.84C61.0684 5.97867 60.6844 6.048 60.2737 6.048ZM64.9962 6.04C64.5909 6.04 64.2255 5.94933 63.9002 5.768C63.5802 5.58133 63.3269 5.328 63.1402 5.008C62.9535 4.68267 62.8602 4.312 62.8602 3.896C62.8602 3.47467 62.9535 3.104 63.1402 2.784C63.3269 2.464 63.5802 2.21333 63.9002 2.032C64.2202 1.85067 64.5855 1.76 64.9962 1.76C65.4122 1.76 65.7802 1.85067 66.1002 2.032C66.4255 2.21333 66.6789 2.464 66.8602 2.784C67.0469 3.104 67.1402 3.47467 67.1402 3.896C67.1402 4.312 67.0469 4.68267 66.8602 5.008C66.6789 5.328 66.4255 5.58133 66.1002 5.768C65.7749 5.94933 65.4069 6.04 64.9962 6.04ZM64.9962 5.536C65.3002 5.536 65.5695 5.46933 65.8042 5.336C66.0389 5.19733 66.2229 5.00533 66.3562 4.76C66.4949 4.50933 66.5642 4.22133 66.5642 3.896C66.5642 3.56533 66.4949 3.27733 66.3562 3.032C66.2229 2.78667 66.0389 2.59733 65.8042 2.464C65.5695 2.32533 65.3029 2.256 65.0042 2.256C64.7055 2.256 64.4389 2.32533 64.2042 2.464C63.9695 2.59733 63.7829 2.78667 63.6442 3.032C63.5055 3.27733 63.4362 3.56533 63.4362 3.896C63.4362 4.22133 63.5055 4.50933 63.6442 4.76C63.7829 5.00533 63.9695 5.19733 64.2042 5.336C64.4389 5.46933 64.7029 5.536 64.9962 5.536ZM70.4438 1.76C70.7851 1.76 71.0838 1.82667 71.3398 1.96C71.6011 2.088 71.8038 2.28533 71.9478 2.552C72.0971 2.81867 72.1718 3.15467 72.1718 3.56V6H71.6038V3.616C71.6038 3.17333 71.4918 2.84 71.2678 2.616C71.0491 2.38667 70.7398 2.272 70.3398 2.272C70.0411 2.272 69.7798 2.33333 69.5558 2.456C69.3371 2.57333 69.1665 2.74667 69.0438 2.976C68.9265 3.2 68.8678 3.472 68.8678 3.792V6H68.2998V1.8H68.8438V2.952L68.7558 2.736C68.8891 2.432 69.1025 2.19467 69.3958 2.024C69.6891 1.848 70.0385 1.76 70.4438 1.76ZM75.0341 6.04C74.6394 6.04 74.3354 5.93333 74.1221 5.72C73.9087 5.50667 73.8021 5.20533 73.8021 4.816V0.872H74.3701V4.784C74.3701 5.02933 74.4314 5.21867 74.5541 5.352C74.6821 5.48533 74.8634 5.552 75.0981 5.552C75.3487 5.552 75.5567 5.48 75.7221 5.336L75.9221 5.744C75.8101 5.84533 75.6741 5.92 75.5141 5.968C75.3594 6.016 75.1994 6.04 75.0341 6.04ZM73.0501 2.272V1.8H75.6501V2.272H73.0501ZM79.5881 6V5.072L79.5641 4.92V3.368C79.5641 3.01067 79.4627 2.736 79.2601 2.544C79.0627 2.352 78.7667 2.256 78.3721 2.256C78.1001 2.256 77.8414 2.30133 77.5961 2.392C77.3507 2.48267 77.1427 2.60267 76.9721 2.752L76.7161 2.328C76.9294 2.14667 77.1854 2.008 77.4841 1.912C77.7827 1.81067 78.0974 1.76 78.4281 1.76C78.9721 1.76 79.3907 1.896 79.6841 2.168C79.9827 2.43467 80.1321 2.84267 80.1321 3.392V6H79.5881ZM78.1401 6.04C77.8254 6.04 77.5507 5.98933 77.3161 5.888C77.0867 5.78133 76.9107 5.63733 76.7881 5.456C76.6654 5.26933 76.6041 5.056 76.6041 4.816C76.6041 4.59733 76.6547 4.4 76.7561 4.224C76.8627 4.04267 77.0334 3.89867 77.2681 3.792C77.5081 3.68 77.8281 3.624 78.2281 3.624H79.6761V4.048H78.2441C77.8387 4.048 77.5561 4.12 77.3961 4.264C77.2414 4.408 77.1641 4.58667 77.1641 4.8C77.1641 5.04 77.2574 5.232 77.4441 5.376C77.6307 5.52 77.8921 5.592 78.2281 5.592C78.5481 5.592 78.8227 5.52 79.0521 5.376C79.2867 5.22667 79.4574 5.01333 79.5641 4.736L79.6921 5.128C79.5854 5.40533 79.3987 5.62667 79.1321 5.792C78.8707 5.95733 78.5401 6.04 78.1401 6.04ZM81.6748 6V1.8H82.2428V6H81.6748ZM81.9628 0.872C81.8455 0.872 81.7468 0.832 81.6668 0.752C81.5868 0.672 81.5468 0.576 81.5468 0.464C81.5468 0.352 81.5868 0.258666 81.6668 0.184C81.7468 0.104 81.8455 0.0639997 81.9628 0.0639997C82.0801 0.0639997 82.1788 0.101333 82.2588 0.176C82.3388 0.250666 82.3788 0.344 82.3788 0.456C82.3788 0.573333 82.3388 0.672 82.2588 0.752C82.1841 0.832 82.0855 0.872 81.9628 0.872ZM85.9673 1.76C86.3086 1.76 86.6073 1.82667 86.8633 1.96C87.1246 2.088 87.3273 2.28533 87.4713 2.552C87.6206 2.81867 87.6953 3.15467 87.6953 3.56V6H87.1273V3.616C87.1273 3.17333 87.0153 2.84 86.7913 2.616C86.5726 2.38667 86.2633 2.272 85.8633 2.272C85.5646 2.272 85.3033 2.33333 85.0793 2.456C84.8606 2.57333 84.6899 2.74667 84.5673 2.976C84.4499 3.2 84.3913 3.472 84.3913 3.792V6H83.8233V1.8H84.3673V2.952L84.2793 2.736C84.4126 2.432 84.6259 2.19467 84.9193 2.024C85.2126 1.848 85.5619 1.76 85.9673 1.76ZM91.0135 6.04C90.5762 6.04 90.1922 5.94933 89.8615 5.768C89.5308 5.58133 89.2722 5.328 89.0855 5.008C88.8988 4.68267 88.8055 4.312 88.8055 3.896C88.8055 3.48 88.8935 3.112 89.0695 2.792C89.2508 2.472 89.4962 2.22133 89.8055 2.04C90.1202 1.85333 90.4722 1.76 90.8615 1.76C91.2562 1.76 91.6055 1.85067 91.9095 2.032C92.2188 2.208 92.4615 2.45867 92.6375 2.784C92.8135 3.104 92.9015 3.47467 92.9015 3.896C92.9015 3.92267 92.8988 3.952 92.8935 3.984C92.8935 4.01067 92.8935 4.04 92.8935 4.072H89.2375V3.648H92.5895L92.3655 3.816C92.3655 3.512 92.2988 3.24267 92.1655 3.008C92.0375 2.768 91.8615 2.58133 91.6375 2.448C91.4135 2.31467 91.1548 2.248 90.8615 2.248C90.5735 2.248 90.3148 2.31467 90.0855 2.448C89.8562 2.58133 89.6775 2.768 89.5495 3.008C89.4215 3.248 89.3575 3.52267 89.3575 3.832V3.92C89.3575 4.24 89.4268 4.52267 89.5655 4.768C89.7095 5.008 89.9068 5.19733 90.1575 5.336C90.4135 5.46933 90.7042 5.536 91.0295 5.536C91.2855 5.536 91.5228 5.49067 91.7415 5.4C91.9655 5.30933 92.1575 5.17067 92.3175 4.984L92.6375 5.352C92.4508 5.576 92.2162 5.74667 91.9335 5.864C91.6562 5.98133 91.3495 6.04 91.0135 6.04ZM94.0576 6V1.8H94.6016V2.944L94.5456 2.744C94.663 2.424 94.8603 2.18133 95.1376 2.016C95.415 1.84533 95.759 1.76 96.1696 1.76V2.312C96.1483 2.312 96.127 2.312 96.1056 2.312C96.0843 2.30667 96.063 2.304 96.0416 2.304C95.599 2.304 95.2523 2.44 95.0016 2.712C94.751 2.97867 94.6256 3.36 94.6256 3.856V6H94.0576Z" fill="black"/>
</svg>
