<svg width="322" height="19" viewBox="0 0 322 19" fill="none" xmlns="http://www.w3.org/2000/svg">
<path d="M2.088 14.048C1.68267 14.048 1.29867 13.984 0.936 13.856C0.578667 13.7227 0.290667 13.5467 0.072 13.328L0.352 12.872C0.533333 13.0587 0.776 13.2133 1.08 13.336C1.38933 13.4587 1.72533 13.52 2.088 13.52C2.552 13.52 2.90667 13.4187 3.152 13.216C3.40267 13.0133 3.528 12.7413 3.528 12.4C3.528 12.0587 3.40533 11.7867 3.16 11.584C2.92 11.3813 2.53867 11.28 2.016 11.28H1.616V10.856L3.344 8.688L3.424 8.912H0.304V8.4H3.904V8.808L2.176 10.976L1.896 10.792H2.112C2.784 10.792 3.28533 10.9413 3.616 11.24C3.952 11.5387 4.12 11.9227 4.12 12.392C4.12 12.7067 4.04533 12.9893 3.896 13.24C3.74667 13.4907 3.52 13.688 3.216 13.832C2.91733 13.976 2.54133 14.048 2.088 14.048ZM7.16363 14.048C6.73163 14.048 6.34763 13.936 6.01163 13.712C5.67563 13.4827 5.41163 13.1573 5.21963 12.736C5.02763 12.3093 4.93163 11.7973 4.93163 11.2C4.93163 10.6027 5.02763 10.0933 5.21963 9.672C5.41163 9.24533 5.67563 8.92 6.01163 8.696C6.34763 8.46667 6.73163 8.352 7.16363 8.352C7.59563 8.352 7.97963 8.46667 8.31563 8.696C8.65163 8.92 8.91563 9.24533 9.10763 9.672C9.30496 10.0933 9.40363 10.6027 9.40363 11.2C9.40363 11.7973 9.30496 12.3093 9.10763 12.736C8.91563 13.1573 8.65163 13.4827 8.31563 13.712C7.97963 13.936 7.59563 14.048 7.16363 14.048ZM7.16363 13.52C7.49429 13.52 7.78229 13.432 8.02763 13.256C8.27296 13.0747 8.46496 12.8133 8.60363 12.472C8.74229 12.1253 8.81163 11.7013 8.81163 11.2C8.81163 10.6987 8.74229 10.2773 8.60363 9.936C8.46496 9.58933 8.27296 9.328 8.02763 9.152C7.78229 8.97067 7.49429 8.88 7.16363 8.88C6.84363 8.88 6.55829 8.97067 6.30763 9.152C6.05696 9.328 5.86229 9.58933 5.72363 9.936C5.58496 10.2773 5.51562 10.6987 5.51562 11.2C5.51562 11.7013 5.58496 12.1253 5.72363 12.472C5.86229 12.8133 6.05696 13.0747 6.30763 13.256C6.55829 13.432 6.84363 13.52 7.16363 13.52ZM12.4605 14.048C12.0285 14.048 11.6445 13.936 11.3085 13.712C10.9725 13.4827 10.7085 13.1573 10.5165 12.736C10.3245 12.3093 10.2285 11.7973 10.2285 11.2C10.2285 10.6027 10.3245 10.0933 10.5165 9.672C10.7085 9.24533 10.9725 8.92 11.3085 8.696C11.6445 8.46667 12.0285 8.352 12.4605 8.352C12.8925 8.352 13.2765 8.46667 13.6125 8.696C13.9485 8.92 14.2125 9.24533 14.4045 9.672C14.6018 10.0933 14.7005 10.6027 14.7005 11.2C14.7005 11.7973 14.6018 12.3093 14.4045 12.736C14.2125 13.1573 13.9485 13.4827 13.6125 13.712C13.2765 13.936 12.8925 14.048 12.4605 14.048ZM12.4605 13.52C12.7912 13.52 13.0792 13.432 13.3245 13.256C13.5698 13.0747 13.7618 12.8133 13.9005 12.472C14.0392 12.1253 14.1085 11.7013 14.1085 11.2C14.1085 10.6987 14.0392 10.2773 13.9005 9.936C13.7618 9.58933 13.5698 9.328 13.3245 9.152C13.0792 8.97067 12.7912 8.88 12.4605 8.88C12.1405 8.88 11.8552 8.97067 11.6045 9.152C11.3538 9.328 11.1592 9.58933 11.0205 9.936C10.8818 10.2773 10.8125 10.6987 10.8125 11.2C10.8125 11.7013 10.8818 12.1253 11.0205 12.472C11.1592 12.8133 11.3538 13.0747 11.6045 13.256C11.8552 13.432 12.1405 13.52 12.4605 13.52ZM21.1494 9.76C21.4907 9.76 21.7867 9.82667 22.0374 9.96C22.2934 10.088 22.4907 10.2853 22.6294 10.552C22.7734 10.8187 22.8454 11.1547 22.8454 11.56V14H22.2774V11.616C22.2774 11.1733 22.1707 10.84 21.9574 10.616C21.7494 10.3867 21.4534 10.272 21.0694 10.272C20.7814 10.272 20.5307 10.3333 20.3174 10.456C20.1094 10.5733 19.9467 10.7467 19.8294 10.976C19.7174 11.2 19.6614 11.472 19.6614 11.792V14H19.0934V11.616C19.0934 11.1733 18.9867 10.84 18.7734 10.616C18.56 10.3867 18.2614 10.272 17.8774 10.272C17.5947 10.272 17.3467 10.3333 17.1334 10.456C16.92 10.5733 16.7547 10.7467 16.6374 10.976C16.5254 11.2 16.4694 11.472 16.4694 11.792V14H15.9014V9.8H16.4454V10.936L16.3574 10.736C16.4854 10.432 16.6907 10.1947 16.9734 10.024C17.2614 9.848 17.6 9.76 17.9894 9.76C18.4 9.76 18.7494 9.864 19.0374 10.072C19.3254 10.2747 19.512 10.5813 19.5974 10.992L19.3734 10.904C19.496 10.5627 19.712 10.288 20.0214 10.08C20.336 9.86667 20.712 9.76 21.1494 9.76ZM24.3858 14V8.064H24.9538V14H24.3858ZM28.7479 14V8.4H30.8439C31.3186 8.4 31.7266 8.47733 32.0679 8.632C32.4093 8.78133 32.6706 9 32.8519 9.288C33.0386 9.57067 33.1319 9.91467 33.1319 10.32C33.1319 10.7147 33.0386 11.056 32.8519 11.344C32.6706 11.6267 32.4093 11.8453 32.0679 12C31.7266 12.1493 31.3186 12.224 30.8439 12.224H29.0759L29.3399 11.952V14H28.7479ZM32.5719 14L31.1319 11.968H31.7719L33.2199 14H32.5719ZM29.3399 12L29.0759 11.72H30.8279C31.3879 11.72 31.8119 11.5973 32.0999 11.352C32.3933 11.1067 32.5399 10.7627 32.5399 10.32C32.5399 9.872 32.3933 9.52533 32.0999 9.28C31.8119 9.03467 31.3879 8.912 30.8279 8.912H29.0759L29.3399 8.632V12ZM36.1212 14.04C35.7159 14.04 35.3505 13.9493 35.0252 13.768C34.7052 13.5813 34.4519 13.328 34.2652 13.008C34.0785 12.6827 33.9852 12.312 33.9852 11.896C33.9852 11.4747 34.0785 11.104 34.2652 10.784C34.4519 10.464 34.7052 10.2133 35.0252 10.032C35.3452 9.85067 35.7105 9.76 36.1212 9.76C36.5372 9.76 36.9052 9.85067 37.2252 10.032C37.5505 10.2133 37.8039 10.464 37.9852 10.784C38.1719 11.104 38.2652 11.4747 38.2652 11.896C38.2652 12.312 38.1719 12.6827 37.9852 13.008C37.8039 13.328 37.5505 13.5813 37.2252 13.768C36.8999 13.9493 36.5319 14.04 36.1212 14.04ZM36.1212 13.536C36.4252 13.536 36.6945 13.4693 36.9292 13.336C37.1639 13.1973 37.3479 13.0053 37.4812 12.76C37.6199 12.5093 37.6892 12.2213 37.6892 11.896C37.6892 11.5653 37.6199 11.2773 37.4812 11.032C37.3479 10.7867 37.1639 10.5973 36.9292 10.464C36.6945 10.3253 36.4279 10.256 36.1292 10.256C35.8305 10.256 35.5639 10.3253 35.3292 10.464C35.0945 10.5973 34.9079 10.7867 34.7692 11.032C34.6305 11.2773 34.5612 11.5653 34.5612 11.896C34.5612 12.2213 34.6305 12.5093 34.7692 12.76C34.9079 13.0053 35.0945 13.1973 35.3292 13.336C35.5639 13.4693 35.8279 13.536 36.1212 13.536ZM41.1608 14.04C40.8035 14.04 40.4915 13.9733 40.2248 13.84C39.9581 13.7067 39.7501 13.5067 39.6008 13.24C39.4568 12.9733 39.3848 12.64 39.3848 12.24V9.8H39.9528V12.176C39.9528 12.624 40.0621 12.9627 40.2808 13.192C40.5048 13.416 40.8168 13.528 41.2168 13.528C41.5101 13.528 41.7635 13.4693 41.9768 13.352C42.1955 13.2293 42.3608 13.0533 42.4728 12.824C42.5901 12.5947 42.6488 12.32 42.6488 12V9.8H43.2168V14H42.6728V12.848L42.7608 13.056C42.6275 13.3653 42.4195 13.608 42.1368 13.784C41.8595 13.9547 41.5341 14.04 41.1608 14.04ZM46.9438 9.76C47.2851 9.76 47.5838 9.82667 47.8398 9.96C48.1011 10.088 48.3038 10.2853 48.4478 10.552C48.5971 10.8187 48.6718 11.1547 48.6718 11.56V14H48.1038V11.616C48.1038 11.1733 47.9918 10.84 47.7678 10.616C47.5491 10.3867 47.2398 10.272 46.8398 10.272C46.5411 10.272 46.2798 10.3333 46.0558 10.456C45.8371 10.5733 45.6665 10.7467 45.5438 10.976C45.4265 11.2 45.3678 11.472 45.3678 11.792V14H44.7998V9.8H45.3438V10.952L45.2558 10.736C45.3891 10.432 45.6025 10.1947 45.8958 10.024C46.1891 9.848 46.5385 9.76 46.9438 9.76ZM51.8781 14.04C51.4781 14.04 51.1181 13.9493 50.7981 13.768C50.4834 13.5867 50.2354 13.336 50.0541 13.016C49.8727 12.6907 49.7821 12.3173 49.7821 11.896C49.7821 11.4693 49.8727 11.096 50.0541 10.776C50.2354 10.456 50.4834 10.208 50.7981 10.032C51.1181 9.85067 51.4781 9.76 51.8781 9.76C52.2461 9.76 52.5741 9.84267 52.8621 10.008C53.1554 10.1733 53.3874 10.416 53.5581 10.736C53.7341 11.0507 53.8221 11.4373 53.8221 11.896C53.8221 12.3493 53.7367 12.736 53.5661 13.056C53.3954 13.376 53.1634 13.6213 52.8701 13.792C52.5821 13.9573 52.2514 14.04 51.8781 14.04ZM51.9181 13.536C52.2167 13.536 52.4834 13.4693 52.7181 13.336C52.9581 13.1973 53.1447 13.0053 53.2781 12.76C53.4167 12.5093 53.4861 12.2213 53.4861 11.896C53.4861 11.5653 53.4167 11.2773 53.2781 11.032C53.1447 10.7867 52.9581 10.5973 52.7181 10.464C52.4834 10.3253 52.2167 10.256 51.9181 10.256C51.6247 10.256 51.3607 10.3253 51.1261 10.464C50.8914 10.5973 50.7047 10.7867 50.5661 11.032C50.4274 11.2773 50.3581 11.5653 50.3581 11.896C50.3581 12.2213 50.4274 12.5093 50.5661 12.76C50.7047 13.0053 50.8914 13.1973 51.1261 13.336C51.3607 13.4693 51.6247 13.536 51.9181 13.536ZM53.5021 14V12.736L53.5581 11.888L53.4781 11.04V8.064H54.0461V14H53.5021ZM60.2737 14.048C59.8524 14.048 59.463 13.9787 59.1057 13.84C58.7484 13.696 58.439 13.496 58.1777 13.24C57.9164 12.984 57.711 12.6827 57.5617 12.336C57.4177 11.9893 57.3457 11.6107 57.3457 11.2C57.3457 10.7893 57.4177 10.4107 57.5617 10.064C57.711 9.71733 57.9164 9.416 58.1777 9.16C58.4444 8.904 58.7564 8.70667 59.1137 8.568C59.471 8.424 59.8604 8.352 60.2817 8.352C60.687 8.352 61.0684 8.42133 61.4257 8.56C61.783 8.69333 62.0844 8.896 62.3297 9.168L61.9537 9.544C61.7244 9.30933 61.471 9.14133 61.1937 9.04C60.9164 8.93333 60.6177 8.88 60.2977 8.88C59.9617 8.88 59.6497 8.93867 59.3617 9.056C59.0737 9.168 58.823 9.33067 58.6097 9.544C58.3964 9.752 58.2284 9.99733 58.1057 10.28C57.9884 10.5573 57.9297 10.864 57.9297 11.2C57.9297 11.536 57.9884 11.8453 58.1057 12.128C58.2284 12.4053 58.3964 12.6507 58.6097 12.864C58.823 13.072 59.0737 13.2347 59.3617 13.352C59.6497 13.464 59.9617 13.52 60.2977 13.52C60.6177 13.52 60.9164 13.4667 61.1937 13.36C61.471 13.2533 61.7244 13.0827 61.9537 12.848L62.3297 13.224C62.0844 13.496 61.783 13.7013 61.4257 13.84C61.0684 13.9787 60.6844 14.048 60.2737 14.048ZM64.9962 14.04C64.5909 14.04 64.2255 13.9493 63.9002 13.768C63.5802 13.5813 63.3269 13.328 63.1402 13.008C62.9535 12.6827 62.8602 12.312 62.8602 11.896C62.8602 11.4747 62.9535 11.104 63.1402 10.784C63.3269 10.464 63.5802 10.2133 63.9002 10.032C64.2202 9.85067 64.5855 9.76 64.9962 9.76C65.4122 9.76 65.7802 9.85067 66.1002 10.032C66.4255 10.2133 66.6789 10.464 66.8602 10.784C67.0469 11.104 67.1402 11.4747 67.1402 11.896C67.1402 12.312 67.0469 12.6827 66.8602 13.008C66.6789 13.328 66.4255 13.5813 66.1002 13.768C65.7749 13.9493 65.4069 14.04 64.9962 14.04ZM64.9962 13.536C65.3002 13.536 65.5695 13.4693 65.8042 13.336C66.0389 13.1973 66.2229 13.0053 66.3562 12.76C66.4949 12.5093 66.5642 12.2213 66.5642 11.896C66.5642 11.5653 66.4949 11.2773 66.3562 11.032C66.2229 10.7867 66.0389 10.5973 65.8042 10.464C65.5695 10.3253 65.3029 10.256 65.0042 10.256C64.7055 10.256 64.4389 10.3253 64.2042 10.464C63.9695 10.5973 63.7829 10.7867 63.6442 11.032C63.5055 11.2773 63.4362 11.5653 63.4362 11.896C63.4362 12.2213 63.5055 12.5093 63.6442 12.76C63.7829 13.0053 63.9695 13.1973 64.2042 13.336C64.4389 13.4693 64.7029 13.536 64.9962 13.536ZM70.4438 9.76C70.7851 9.76 71.0838 9.82667 71.3398 9.96C71.6011 10.088 71.8038 10.2853 71.9478 10.552C72.0971 10.8187 72.1718 11.1547 72.1718 11.56V14H71.6038V11.616C71.6038 11.1733 71.4918 10.84 71.2678 10.616C71.0491 10.3867 70.7398 10.272 70.3398 10.272C70.0411 10.272 69.7798 10.3333 69.5558 10.456C69.3371 10.5733 69.1665 10.7467 69.0438 10.976C68.9265 11.2 68.8678 11.472 68.8678 11.792V14H68.2998V9.8H68.8438V10.952L68.7558 10.736C68.8891 10.432 69.1025 10.1947 69.3958 10.024C69.6891 9.848 70.0385 9.76 70.4438 9.76ZM75.0341 14.04C74.6394 14.04 74.3354 13.9333 74.1221 13.72C73.9087 13.5067 73.8021 13.2053 73.8021 12.816V8.872H74.3701V12.784C74.3701 13.0293 74.4314 13.2187 74.5541 13.352C74.6821 13.4853 74.8634 13.552 75.0981 13.552C75.3487 13.552 75.5567 13.48 75.7221 13.336L75.9221 13.744C75.8101 13.8453 75.6741 13.92 75.5141 13.968C75.3594 14.016 75.1994 14.04 75.0341 14.04ZM73.0501 10.272V9.8H75.6501V10.272H73.0501ZM79.5881 14V13.072L79.5641 12.92V11.368C79.5641 11.0107 79.4627 10.736 79.2601 10.544C79.0627 10.352 78.7667 10.256 78.3721 10.256C78.1001 10.256 77.8414 10.3013 77.5961 10.392C77.3507 10.4827 77.1427 10.6027 76.9721 10.752L76.7161 10.328C76.9294 10.1467 77.1854 10.008 77.4841 9.912C77.7827 9.81067 78.0974 9.76 78.4281 9.76C78.9721 9.76 79.3907 9.896 79.6841 10.168C79.9827 10.4347 80.1321 10.8427 80.1321 11.392V14H79.5881ZM78.1401 14.04C77.8254 14.04 77.5507 13.9893 77.3161 13.888C77.0867 13.7813 76.9107 13.6373 76.7881 13.456C76.6654 13.2693 76.6041 13.056 76.6041 12.816C76.6041 12.5973 76.6547 12.4 76.7561 12.224C76.8627 12.0427 77.0334 11.8987 77.2681 11.792C77.5081 11.68 77.8281 11.624 78.2281 11.624H79.6761V12.048H78.2441C77.8387 12.048 77.5561 12.12 77.3961 12.264C77.2414 12.408 77.1641 12.5867 77.1641 12.8C77.1641 13.04 77.2574 13.232 77.4441 13.376C77.6307 13.52 77.8921 13.592 78.2281 13.592C78.5481 13.592 78.8227 13.52 79.0521 13.376C79.2867 13.2267 79.4574 13.0133 79.5641 12.736L79.6921 13.128C79.5854 13.4053 79.3987 13.6267 79.1321 13.792C78.8707 13.9573 78.5401 14.04 78.1401 14.04ZM81.6748 14V9.8H82.2428V14H81.6748ZM81.9628 8.872C81.8455 8.872 81.7468 8.832 81.6668 8.752C81.5868 8.672 81.5468 8.576 81.5468 8.464C81.5468 8.352 81.5868 8.25867 81.6668 8.184C81.7468 8.104 81.8455 8.064 81.9628 8.064C82.0801 8.064 82.1788 8.10133 82.2588 8.176C82.3388 8.25067 82.3788 8.344 82.3788 8.456C82.3788 8.57333 82.3388 8.672 82.2588 8.752C82.1841 8.832 82.0855 8.872 81.9628 8.872ZM85.9673 9.76C86.3086 9.76 86.6073 9.82667 86.8633 9.96C87.1246 10.088 87.3273 10.2853 87.4713 10.552C87.6206 10.8187 87.6953 11.1547 87.6953 11.56V14H87.1273V11.616C87.1273 11.1733 87.0153 10.84 86.7913 10.616C86.5726 10.3867 86.2633 10.272 85.8633 10.272C85.5646 10.272 85.3033 10.3333 85.0793 10.456C84.8606 10.5733 84.6899 10.7467 84.5673 10.976C84.4499 11.2 84.3913 11.472 84.3913 11.792V14H83.8233V9.8H84.3673V10.952L84.2793 10.736C84.4126 10.432 84.6259 10.1947 84.9193 10.024C85.2126 9.848 85.5619 9.76 85.9673 9.76ZM91.0135 14.04C90.5762 14.04 90.1922 13.9493 89.8615 13.768C89.5308 13.5813 89.2722 13.328 89.0855 13.008C88.8988 12.6827 88.8055 12.312 88.8055 11.896C88.8055 11.48 88.8935 11.112 89.0695 10.792C89.2508 10.472 89.4962 10.2213 89.8055 10.04C90.1202 9.85333 90.4722 9.76 90.8615 9.76C91.2562 9.76 91.6055 9.85067 91.9095 10.032C92.2188 10.208 92.4615 10.4587 92.6375 10.784C92.8135 11.104 92.9015 11.4747 92.9015 11.896C92.9015 11.9227 92.8988 11.952 92.8935 11.984C92.8935 12.0107 92.8935 12.04 92.8935 12.072H89.2375V11.648H92.5895L92.3655 11.816C92.3655 11.512 92.2988 11.2427 92.1655 11.008C92.0375 10.768 91.8615 10.5813 91.6375 10.448C91.4135 10.3147 91.1548 10.248 90.8615 10.248C90.5735 10.248 90.3148 10.3147 90.0855 10.448C89.8562 10.5813 89.6775 10.768 89.5495 11.008C89.4215 11.248 89.3575 11.5227 89.3575 11.832V11.92C89.3575 12.24 89.4268 12.5227 89.5655 12.768C89.7095 13.008 89.9068 13.1973 90.1575 13.336C90.4135 13.4693 90.7042 13.536 91.0295 13.536C91.2855 13.536 91.5228 13.4907 91.7415 13.4C91.9655 13.3093 92.1575 13.1707 92.3175 12.984L92.6375 13.352C92.4508 13.576 92.2162 13.7467 91.9335 13.864C91.6562 13.9813 91.3495 14.04 91.0135 14.04ZM94.0576 14V9.8H94.6016V10.944L94.5456 10.744C94.663 10.424 94.8603 10.1813 95.1376 10.016C95.415 9.84533 95.759 9.76 96.1696 9.76V10.312C96.1483 10.312 96.127 10.312 96.1056 10.312C96.0843 10.3067 96.063 10.304 96.0416 10.304C95.599 10.304 95.2523 10.44 95.0016 10.712C94.751 10.9787 94.6256 11.36 94.6256 11.856V14H94.0576Z" fill="black"/>
<path d="M306.855 15.048C306.423 15.048 306.039 14.936 305.703 14.712C305.367 14.4827 305.103 14.1573 304.911 13.736C304.719 13.3093 304.623 12.7973 304.623 12.2C304.623 11.6027 304.719 11.0933 304.911 10.672C305.103 10.2453 305.367 9.92 305.703 9.696C306.039 9.46667 306.423 9.352 306.855 9.352C307.287 9.352 307.671 9.46667 308.007 9.696C308.343 9.92 308.607 10.2453 308.799 10.672C308.996 11.0933 309.095 11.6027 309.095 12.2C309.095 12.7973 308.996 13.3093 308.799 13.736C308.607 14.1573 308.343 14.4827 308.007 14.712C307.671 14.936 307.287 15.048 306.855 15.048ZM306.855 14.52C307.186 14.52 307.474 14.432 307.719 14.256C307.964 14.0747 308.156 13.8133 308.295 13.472C308.434 13.1253 308.503 12.7013 308.503 12.2C308.503 11.6987 308.434 11.2773 308.295 10.936C308.156 10.5893 307.964 10.328 307.719 10.152C307.474 9.97067 307.186 9.88 306.855 9.88C306.535 9.88 306.25 9.97067 305.999 10.152C305.748 10.328 305.554 10.5893 305.415 10.936C305.276 11.2773 305.207 11.6987 305.207 12.2C305.207 12.7013 305.276 13.1253 305.415 13.472C305.554 13.8133 305.748 14.0747 305.999 14.256C306.25 14.432 306.535 14.52 306.855 14.52ZM309.824 13.528V13.112L312.792 9.4H313.432L310.488 13.112L310.176 13.016H314.68V13.528H309.824ZM312.984 15V13.528L313 13.016V11.72H313.56V15H312.984Z" fill="black"/>
<path d="M145.272 12.06C145.096 12.06 144.944 11.996 144.816 11.868C144.696 11.74 144.636 11.584 144.636 11.4C144.636 11.208 144.696 11.052 144.816 10.932C144.944 10.812 145.096 10.752 145.272 10.752C145.448 10.752 145.596 10.812 145.716 10.932C145.844 11.052 145.908 11.208 145.908 11.4C145.908 11.584 145.844 11.74 145.716 11.868C145.596 11.996 145.448 12.06 145.272 12.06ZM147.815 12.06C147.639 12.06 147.487 11.996 147.359 11.868C147.239 11.74 147.179 11.584 147.179 11.4C147.179 11.208 147.239 11.052 147.359 10.932C147.487 10.812 147.639 10.752 147.815 10.752C147.991 10.752 148.139 10.812 148.259 10.932C148.387 11.052 148.451 11.208 148.451 11.4C148.451 11.584 148.387 11.74 148.259 11.868C148.139 11.996 147.991 12.06 147.815 12.06ZM150.358 12.06C150.182 12.06 150.03 11.996 149.902 11.868C149.782 11.74 149.722 11.584 149.722 11.4C149.722 11.208 149.782 11.052 149.902 10.932C150.03 10.812 150.182 10.752 150.358 10.752C150.534 10.752 150.682 10.812 150.802 10.932C150.93 11.052 150.994 11.208 150.994 11.4C150.994 11.584 150.93 11.74 150.802 11.868C150.682 11.996 150.534 12.06 150.358 12.06ZM152.901 12.06C152.725 12.06 152.573 11.996 152.445 11.868C152.325 11.74 152.265 11.584 152.265 11.4C152.265 11.208 152.325 11.052 152.445 10.932C152.573 10.812 152.725 10.752 152.901 10.752C153.077 10.752 153.225 10.812 153.345 10.932C153.473 11.052 153.537 11.208 153.537 11.4C153.537 11.584 153.473 11.74 153.345 11.868C153.225 11.996 153.077 12.06 152.901 12.06ZM155.444 12.06C155.268 12.06 155.116 11.996 154.988 11.868C154.868 11.74 154.808 11.584 154.808 11.4C154.808 11.208 154.868 11.052 154.988 10.932C155.116 10.812 155.268 10.752 155.444 10.752C155.62 10.752 155.768 10.812 155.888 10.932C156.016 11.052 156.08 11.208 156.08 11.4C156.08 11.584 156.016 11.74 155.888 11.868C155.768 11.996 155.62 12.06 155.444 12.06ZM157.987 12.06C157.811 12.06 157.659 11.996 157.531 11.868C157.411 11.74 157.351 11.584 157.351 11.4C157.351 11.208 157.411 11.052 157.531 10.932C157.659 10.812 157.811 10.752 157.987 10.752C158.163 10.752 158.311 10.812 158.431 10.932C158.559 11.052 158.623 11.208 158.623 11.4C158.623 11.584 158.559 11.74 158.431 11.868C158.311 11.996 158.163 12.06 157.987 12.06ZM160.53 12.06C160.354 12.06 160.202 11.996 160.074 11.868C159.954 11.74 159.894 11.584 159.894 11.4C159.894 11.208 159.954 11.052 160.074 10.932C160.202 10.812 160.354 10.752 160.53 10.752C160.706 10.752 160.854 10.812 160.974 10.932C161.102 11.052 161.166 11.208 161.166 11.4C161.166 11.584 161.102 11.74 160.974 11.868C160.854 11.996 160.706 12.06 160.53 12.06ZM163.073 12.06C162.897 12.06 162.745 11.996 162.617 11.868C162.497 11.74 162.437 11.584 162.437 11.4C162.437 11.208 162.497 11.052 162.617 10.932C162.745 10.812 162.897 10.752 163.073 10.752C163.249 10.752 163.397 10.812 163.517 10.932C163.645 11.052 163.709 11.208 163.709 11.4C163.709 11.584 163.645 11.74 163.517 11.868C163.397 11.996 163.249 12.06 163.073 12.06ZM165.616 12.06C165.44 12.06 165.288 11.996 165.16 11.868C165.04 11.74 164.98 11.584 164.98 11.4C164.98 11.208 165.04 11.052 165.16 10.932C165.288 10.812 165.44 10.752 165.616 10.752C165.792 10.752 165.94 10.812 166.06 10.932C166.188 11.052 166.252 11.208 166.252 11.4C166.252 11.584 166.188 11.74 166.06 11.868C165.94 11.996 165.792 12.06 165.616 12.06ZM168.159 12.06C167.983 12.06 167.831 11.996 167.703 11.868C167.583 11.74 167.523 11.584 167.523 11.4C167.523 11.208 167.583 11.052 167.703 10.932C167.831 10.812 167.983 10.752 168.159 10.752C168.335 10.752 168.483 10.812 168.603 10.932C168.731 11.052 168.795 11.208 168.795 11.4C168.795 11.584 168.731 11.74 168.603 11.868C168.483 11.996 168.335 12.06 168.159 12.06ZM170.702 12.06C170.526 12.06 170.374 11.996 170.246 11.868C170.126 11.74 170.066 11.584 170.066 11.4C170.066 11.208 170.126 11.052 170.246 10.932C170.374 10.812 170.526 10.752 170.702 10.752C170.878 10.752 171.026 10.812 171.146 10.932C171.274 11.052 171.338 11.208 171.338 11.4C171.338 11.584 171.274 11.74 171.146 11.868C171.026 11.996 170.878 12.06 170.702 12.06ZM173.245 12.06C173.069 12.06 172.917 11.996 172.789 11.868C172.669 11.74 172.609 11.584 172.609 11.4C172.609 11.208 172.669 11.052 172.789 10.932C172.917 10.812 173.069 10.752 173.245 10.752C173.421 10.752 173.569 10.812 173.689 10.932C173.817 11.052 173.881 11.208 173.881 11.4C173.881 11.584 173.817 11.74 173.689 11.868C173.569 11.996 173.421 12.06 173.245 12.06ZM175.788 12.06C175.612 12.06 175.46 11.996 175.332 11.868C175.212 11.74 175.152 11.584 175.152 11.4C175.152 11.208 175.212 11.052 175.332 10.932C175.46 10.812 175.612 10.752 175.788 10.752C175.964 10.752 176.112 10.812 176.232 10.932C176.36 11.052 176.424 11.208 176.424 11.4C176.424 11.584 176.36 11.74 176.232 11.868C176.112 11.996 175.964 12.06 175.788 12.06ZM178.331 12.06C178.155 12.06 178.003 11.996 177.875 11.868C177.755 11.74 177.695 11.584 177.695 11.4C177.695 11.208 177.755 11.052 177.875 10.932C178.003 10.812 178.155 10.752 178.331 10.752C178.507 10.752 178.655 10.812 178.775 10.932C178.903 11.052 178.967 11.208 178.967 11.4C178.967 11.584 178.903 11.74 178.775 11.868C178.655 11.996 178.507 12.06 178.331 12.06ZM180.874 12.06C180.698 12.06 180.546 11.996 180.418 11.868C180.298 11.74 180.238 11.584 180.238 11.4C180.238 11.208 180.298 11.052 180.418 10.932C180.546 10.812 180.698 10.752 180.874 10.752C181.05 10.752 181.198 10.812 181.318 10.932C181.446 11.052 181.51 11.208 181.51 11.4C181.51 11.584 181.446 11.74 181.318 11.868C181.198 11.996 181.05 12.06 180.874 12.06ZM183.417 12.06C183.241 12.06 183.089 11.996 182.961 11.868C182.841 11.74 182.781 11.584 182.781 11.4C182.781 11.208 182.841 11.052 182.961 10.932C183.089 10.812 183.241 10.752 183.417 10.752C183.593 10.752 183.741 10.812 183.861 10.932C183.989 11.052 184.053 11.208 184.053 11.4C184.053 11.584 183.989 11.74 183.861 11.868C183.741 11.996 183.593 12.06 183.417 12.06ZM185.96 12.06C185.784 12.06 185.632 11.996 185.504 11.868C185.384 11.74 185.324 11.584 185.324 11.4C185.324 11.208 185.384 11.052 185.504 10.932C185.632 10.812 185.784 10.752 185.96 10.752C186.136 10.752 186.284 10.812 186.404 10.932C186.532 11.052 186.596 11.208 186.596 11.4C186.596 11.584 186.532 11.74 186.404 11.868C186.284 11.996 186.136 12.06 185.96 12.06ZM188.502 12.06C188.326 12.06 188.174 11.996 188.046 11.868C187.926 11.74 187.866 11.584 187.866 11.4C187.866 11.208 187.926 11.052 188.046 10.932C188.174 10.812 188.326 10.752 188.502 10.752C188.678 10.752 188.826 10.812 188.946 10.932C189.074 11.052 189.138 11.208 189.138 11.4C189.138 11.584 189.074 11.74 188.946 11.868C188.826 11.996 188.678 12.06 188.502 12.06ZM191.045 12.06C190.869 12.06 190.717 11.996 190.589 11.868C190.469 11.74 190.409 11.584 190.409 11.4C190.409 11.208 190.469 11.052 190.589 10.932C190.717 10.812 190.869 10.752 191.045 10.752C191.221 10.752 191.369 10.812 191.489 10.932C191.617 11.052 191.681 11.208 191.681 11.4C191.681 11.584 191.617 11.74 191.489 11.868C191.369 11.996 191.221 12.06 191.045 12.06ZM193.588 12.06C193.412 12.06 193.26 11.996 193.132 11.868C193.012 11.74 192.952 11.584 192.952 11.4C192.952 11.208 193.012 11.052 193.132 10.932C193.26 10.812 193.412 10.752 193.588 10.752C193.764 10.752 193.912 10.812 194.032 10.932C194.16 11.052 194.224 11.208 194.224 11.4C194.224 11.584 194.16 11.74 194.032 11.868C193.912 11.996 193.764 12.06 193.588 12.06ZM196.131 12.06C195.955 12.06 195.803 11.996 195.675 11.868C195.555 11.74 195.495 11.584 195.495 11.4C195.495 11.208 195.555 11.052 195.675 10.932C195.803 10.812 195.955 10.752 196.131 10.752C196.307 10.752 196.455 10.812 196.575 10.932C196.703 11.052 196.767 11.208 196.767 11.4C196.767 11.584 196.703 11.74 196.575 11.868C196.455 11.996 196.307 12.06 196.131 12.06ZM198.674 12.06C198.498 12.06 198.346 11.996 198.218 11.868C198.098 11.74 198.038 11.584 198.038 11.4C198.038 11.208 198.098 11.052 198.218 10.932C198.346 10.812 198.498 10.752 198.674 10.752C198.85 10.752 198.998 10.812 199.118 10.932C199.246 11.052 199.31 11.208 199.31 11.4C199.31 11.584 199.246 11.74 199.118 11.868C198.998 11.996 198.85 12.06 198.674 12.06ZM201.217 12.06C201.041 12.06 200.889 11.996 200.761 11.868C200.641 11.74 200.581 11.584 200.581 11.4C200.581 11.208 200.641 11.052 200.761 10.932C200.889 10.812 201.041 10.752 201.217 10.752C201.393 10.752 201.541 10.812 201.661 10.932C201.789 11.052 201.853 11.208 201.853 11.4C201.853 11.584 201.789 11.74 201.661 11.868C201.541 11.996 201.393 12.06 201.217 12.06ZM203.76 12.06C203.584 12.06 203.432 11.996 203.304 11.868C203.184 11.74 203.124 11.584 203.124 11.4C203.124 11.208 203.184 11.052 203.304 10.932C203.432 10.812 203.584 10.752 203.76 10.752C203.936 10.752 204.084 10.812 204.204 10.932C204.332 11.052 204.396 11.208 204.396 11.4C204.396 11.584 204.332 11.74 204.204 11.868C204.084 11.996 203.936 12.06 203.76 12.06ZM206.303 12.06C206.127 12.06 205.975 11.996 205.847 11.868C205.727 11.74 205.667 11.584 205.667 11.4C205.667 11.208 205.727 11.052 205.847 10.932C205.975 10.812 206.127 10.752 206.303 10.752C206.479 10.752 206.627 10.812 206.747 10.932C206.875 11.052 206.939 11.208 206.939 11.4C206.939 11.584 206.875 11.74 206.747 11.868C206.627 11.996 206.479 12.06 206.303 12.06ZM208.846 12.06C208.67 12.06 208.518 11.996 208.39 11.868C208.27 11.74 208.21 11.584 208.21 11.4C208.21 11.208 208.27 11.052 208.39 10.932C208.518 10.812 208.67 10.752 208.846 10.752C209.022 10.752 209.17 10.812 209.29 10.932C209.418 11.052 209.482 11.208 209.482 11.4C209.482 11.584 209.418 11.74 209.29 11.868C209.17 11.996 209.022 12.06 208.846 12.06ZM211.389 12.06C211.213 12.06 211.061 11.996 210.933 11.868C210.813 11.74 210.753 11.584 210.753 11.4C210.753 11.208 210.813 11.052 210.933 10.932C211.061 10.812 211.213 10.752 211.389 10.752C211.565 10.752 211.713 10.812 211.833 10.932C211.961 11.052 212.025 11.208 212.025 11.4C212.025 11.584 211.961 11.74 211.833 11.868C211.713 11.996 211.565 12.06 211.389 12.06ZM213.932 12.06C213.756 12.06 213.604 11.996 213.476 11.868C213.356 11.74 213.296 11.584 213.296 11.4C213.296 11.208 213.356 11.052 213.476 10.932C213.604 10.812 213.756 10.752 213.932 10.752C214.108 10.752 214.256 10.812 214.376 10.932C214.504 11.052 214.568 11.208 214.568 11.4C214.568 11.584 214.504 11.74 214.376 11.868C214.256 11.996 214.108 12.06 213.932 12.06ZM216.475 12.06C216.299 12.06 216.147 11.996 216.019 11.868C215.899 11.74 215.839 11.584 215.839 11.4C215.839 11.208 215.899 11.052 216.019 10.932C216.147 10.812 216.299 10.752 216.475 10.752C216.651 10.752 216.799 10.812 216.919 10.932C217.047 11.052 217.111 11.208 217.111 11.4C217.111 11.584 217.047 11.74 216.919 11.868C216.799 11.996 216.651 12.06 216.475 12.06ZM219.018 12.06C218.842 12.06 218.69 11.996 218.562 11.868C218.442 11.74 218.382 11.584 218.382 11.4C218.382 11.208 218.442 11.052 218.562 10.932C218.69 10.812 218.842 10.752 219.018 10.752C219.194 10.752 219.342 10.812 219.462 10.932C219.59 11.052 219.654 11.208 219.654 11.4C219.654 11.584 219.59 11.74 219.462 11.868C219.342 11.996 219.194 12.06 219.018 12.06ZM221.561 12.06C221.385 12.06 221.233 11.996 221.105 11.868C220.985 11.74 220.925 11.584 220.925 11.4C220.925 11.208 220.985 11.052 221.105 10.932C221.233 10.812 221.385 10.752 221.561 10.752C221.737 10.752 221.885 10.812 222.005 10.932C222.133 11.052 222.197 11.208 222.197 11.4C222.197 11.584 222.133 11.74 222.005 11.868C221.885 11.996 221.737 12.06 221.561 12.06ZM224.104 12.06C223.928 12.06 223.776 11.996 223.648 11.868C223.528 11.74 223.468 11.584 223.468 11.4C223.468 11.208 223.528 11.052 223.648 10.932C223.776 10.812 223.928 10.752 224.104 10.752C224.28 10.752 224.428 10.812 224.548 10.932C224.676 11.052 224.74 11.208 224.74 11.4C224.74 11.584 224.676 11.74 224.548 11.868C224.428 11.996 224.28 12.06 224.104 12.06ZM226.647 12.06C226.471 12.06 226.319 11.996 226.191 11.868C226.071 11.74 226.011 11.584 226.011 11.4C226.011 11.208 226.071 11.052 226.191 10.932C226.319 10.812 226.471 10.752 226.647 10.752C226.823 10.752 226.971 10.812 227.091 10.932C227.219 11.052 227.283 11.208 227.283 11.4C227.283 11.584 227.219 11.74 227.091 11.868C226.971 11.996 226.823 12.06 226.647 12.06ZM229.19 12.06C229.014 12.06 228.862 11.996 228.734 11.868C228.614 11.74 228.554 11.584 228.554 11.4C228.554 11.208 228.614 11.052 228.734 10.932C228.862 10.812 229.014 10.752 229.19 10.752C229.366 10.752 229.514 10.812 229.634 10.932C229.762 11.052 229.826 11.208 229.826 11.4C229.826 11.584 229.762 11.74 229.634 11.868C229.514 11.996 229.366 12.06 229.19 12.06ZM231.733 12.06C231.557 12.06 231.405 11.996 231.277 11.868C231.157 11.74 231.097 11.584 231.097 11.4C231.097 11.208 231.157 11.052 231.277 10.932C231.405 10.812 231.557 10.752 231.733 10.752C231.909 10.752 232.057 10.812 232.177 10.932C232.305 11.052 232.369 11.208 232.369 11.4C232.369 11.584 232.305 11.74 232.177 11.868C232.057 11.996 231.909 12.06 231.733 12.06ZM234.276 12.06C234.1 12.06 233.948 11.996 233.82 11.868C233.7 11.74 233.64 11.584 233.64 11.4C233.64 11.208 233.7 11.052 233.82 10.932C233.948 10.812 234.1 10.752 234.276 10.752C234.452 10.752 234.6 10.812 234.72 10.932C234.848 11.052 234.912 11.208 234.912 11.4C234.912 11.584 234.848 11.74 234.72 11.868C234.6 11.996 234.452 12.06 234.276 12.06ZM236.819 12.06C236.643 12.06 236.491 11.996 236.363 11.868C236.243 11.74 236.183 11.584 236.183 11.4C236.183 11.208 236.243 11.052 236.363 10.932C236.491 10.812 236.643 10.752 236.819 10.752C236.995 10.752 237.143 10.812 237.263 10.932C237.391 11.052 237.455 11.208 237.455 11.4C237.455 11.584 237.391 11.74 237.263 11.868C237.143 11.996 236.995 12.06 236.819 12.06ZM239.362 12.06C239.186 12.06 239.034 11.996 238.906 11.868C238.786 11.74 238.726 11.584 238.726 11.4C238.726 11.208 238.786 11.052 238.906 10.932C239.034 10.812 239.186 10.752 239.362 10.752C239.538 10.752 239.686 10.812 239.806 10.932C239.934 11.052 239.998 11.208 239.998 11.4C239.998 11.584 239.934 11.74 239.806 11.868C239.686 11.996 239.538 12.06 239.362 12.06ZM241.905 12.06C241.729 12.06 241.577 11.996 241.449 11.868C241.329 11.74 241.269 11.584 241.269 11.4C241.269 11.208 241.329 11.052 241.449 10.932C241.577 10.812 241.729 10.752 241.905 10.752C242.081 10.752 242.229 10.812 242.349 10.932C242.477 11.052 242.541 11.208 242.541 11.4C242.541 11.584 242.477 11.74 242.349 11.868C242.229 11.996 242.081 12.06 241.905 12.06ZM244.448 12.06C244.272 12.06 244.12 11.996 243.992 11.868C243.872 11.74 243.812 11.584 243.812 11.4C243.812 11.208 243.872 11.052 243.992 10.932C244.12 10.812 244.272 10.752 244.448 10.752C244.624 10.752 244.772 10.812 244.892 10.932C245.02 11.052 245.084 11.208 245.084 11.4C245.084 11.584 245.02 11.74 244.892 11.868C244.772 11.996 244.624 12.06 244.448 12.06ZM246.991 12.06C246.815 12.06 246.663 11.996 246.535 11.868C246.415 11.74 246.355 11.584 246.355 11.4C246.355 11.208 246.415 11.052 246.535 10.932C246.663 10.812 246.815 10.752 246.991 10.752C247.167 10.752 247.315 10.812 247.435 10.932C247.563 11.052 247.627 11.208 247.627 11.4C247.627 11.584 247.563 11.74 247.435 11.868C247.315 11.996 247.167 12.06 246.991 12.06ZM249.534 12.06C249.358 12.06 249.206 11.996 249.078 11.868C248.958 11.74 248.898 11.584 248.898 11.4C248.898 11.208 248.958 11.052 249.078 10.932C249.206 10.812 249.358 10.752 249.534 10.752C249.71 10.752 249.858 10.812 249.978 10.932C250.106 11.052 250.17 11.208 250.17 11.4C250.17 11.584 250.106 11.74 249.978 11.868C249.858 11.996 249.71 12.06 249.534 12.06ZM252.077 12.06C251.901 12.06 251.749 11.996 251.621 11.868C251.501 11.74 251.441 11.584 251.441 11.4C251.441 11.208 251.501 11.052 251.621 10.932C251.749 10.812 251.901 10.752 252.077 10.752C252.253 10.752 252.401 10.812 252.521 10.932C252.649 11.052 252.713 11.208 252.713 11.4C252.713 11.584 252.649 11.74 252.521 11.868C252.401 11.996 252.253 12.06 252.077 12.06ZM254.62 12.06C254.444 12.06 254.292 11.996 254.164 11.868C254.044 11.74 253.984 11.584 253.984 11.4C253.984 11.208 254.044 11.052 254.164 10.932C254.292 10.812 254.444 10.752 254.62 10.752C254.796 10.752 254.944 10.812 255.064 10.932C255.192 11.052 255.256 11.208 255.256 11.4C255.256 11.584 255.192 11.74 255.064 11.868C254.944 11.996 254.796 12.06 254.62 12.06ZM257.163 12.06C256.987 12.06 256.835 11.996 256.707 11.868C256.587 11.74 256.527 11.584 256.527 11.4C256.527 11.208 256.587 11.052 256.707 10.932C256.835 10.812 256.987 10.752 257.163 10.752C257.339 10.752 257.487 10.812 257.607 10.932C257.735 11.052 257.799 11.208 257.799 11.4C257.799 11.584 257.735 11.74 257.607 11.868C257.487 11.996 257.339 12.06 257.163 12.06ZM259.706 12.06C259.53 12.06 259.378 11.996 259.25 11.868C259.13 11.74 259.07 11.584 259.07 11.4C259.07 11.208 259.13 11.052 259.25 10.932C259.378 10.812 259.53 10.752 259.706 10.752C259.882 10.752 260.03 10.812 260.15 10.932C260.278 11.052 260.342 11.208 260.342 11.4C260.342 11.584 260.278 11.74 260.15 11.868C260.03 11.996 259.882 12.06 259.706 12.06ZM262.249 12.06C262.073 12.06 261.921 11.996 261.793 11.868C261.673 11.74 261.613 11.584 261.613 11.4C261.613 11.208 261.673 11.052 261.793 10.932C261.921 10.812 262.073 10.752 262.249 10.752C262.425 10.752 262.573 10.812 262.693 10.932C262.821 11.052 262.885 11.208 262.885 11.4C262.885 11.584 262.821 11.74 262.693 11.868C262.573 11.996 262.425 12.06 262.249 12.06ZM264.792 12.06C264.616 12.06 264.464 11.996 264.336 11.868C264.216 11.74 264.156 11.584 264.156 11.4C264.156 11.208 264.216 11.052 264.336 10.932C264.464 10.812 264.616 10.752 264.792 10.752C264.968 10.752 265.116 10.812 265.236 10.932C265.364 11.052 265.428 11.208 265.428 11.4C265.428 11.584 265.364 11.74 265.236 11.868C265.116 11.996 264.968 12.06 264.792 12.06ZM267.335 12.06C267.159 12.06 267.007 11.996 266.879 11.868C266.759 11.74 266.699 11.584 266.699 11.4C266.699 11.208 266.759 11.052 266.879 10.932C267.007 10.812 267.159 10.752 267.335 10.752C267.511 10.752 267.659 10.812 267.779 10.932C267.907 11.052 267.971 11.208 267.971 11.4C267.971 11.584 267.907 11.74 267.779 11.868C267.659 11.996 267.511 12.06 267.335 12.06ZM269.877 12.06C269.701 12.06 269.549 11.996 269.421 11.868C269.301 11.74 269.241 11.584 269.241 11.4C269.241 11.208 269.301 11.052 269.421 10.932C269.549 10.812 269.701 10.752 269.877 10.752C270.053 10.752 270.201 10.812 270.321 10.932C270.449 11.052 270.513 11.208 270.513 11.4C270.513 11.584 270.449 11.74 270.321 11.868C270.201 11.996 270.053 12.06 269.877 12.06ZM272.42 12.06C272.244 12.06 272.092 11.996 271.964 11.868C271.844 11.74 271.784 11.584 271.784 11.4C271.784 11.208 271.844 11.052 271.964 10.932C272.092 10.812 272.244 10.752 272.42 10.752C272.596 10.752 272.744 10.812 272.864 10.932C272.992 11.052 273.056 11.208 273.056 11.4C273.056 11.584 272.992 11.74 272.864 11.868C272.744 11.996 272.596 12.06 272.42 12.06ZM274.963 12.06C274.787 12.06 274.635 11.996 274.507 11.868C274.387 11.74 274.327 11.584 274.327 11.4C274.327 11.208 274.387 11.052 274.507 10.932C274.635 10.812 274.787 10.752 274.963 10.752C275.139 10.752 275.287 10.812 275.407 10.932C275.535 11.052 275.599 11.208 275.599 11.4C275.599 11.584 275.535 11.74 275.407 11.868C275.287 11.996 275.139 12.06 274.963 12.06ZM277.506 12.06C277.33 12.06 277.178 11.996 277.05 11.868C276.93 11.74 276.87 11.584 276.87 11.4C276.87 11.208 276.93 11.052 277.05 10.932C277.178 10.812 277.33 10.752 277.506 10.752C277.682 10.752 277.83 10.812 277.95 10.932C278.078 11.052 278.142 11.208 278.142 11.4C278.142 11.584 278.078 11.74 277.95 11.868C277.83 11.996 277.682 12.06 277.506 12.06ZM280.049 12.06C279.873 12.06 279.721 11.996 279.593 11.868C279.473 11.74 279.413 11.584 279.413 11.4C279.413 11.208 279.473 11.052 279.593 10.932C279.721 10.812 279.873 10.752 280.049 10.752C280.225 10.752 280.373 10.812 280.493 10.932C280.621 11.052 280.685 11.208 280.685 11.4C280.685 11.584 280.621 11.74 280.493 11.868C280.373 11.996 280.225 12.06 280.049 12.06ZM282.592 12.06C282.416 12.06 282.264 11.996 282.136 11.868C282.016 11.74 281.956 11.584 281.956 11.4C281.956 11.208 282.016 11.052 282.136 10.932C282.264 10.812 282.416 10.752 282.592 10.752C282.768 10.752 282.916 10.812 283.036 10.932C283.164 11.052 283.228 11.208 283.228 11.4C283.228 11.584 283.164 11.74 283.036 11.868C282.916 11.996 282.768 12.06 282.592 12.06ZM285.135 12.06C284.959 12.06 284.807 11.996 284.679 11.868C284.559 11.74 284.499 11.584 284.499 11.4C284.499 11.208 284.559 11.052 284.679 10.932C284.807 10.812 284.959 10.752 285.135 10.752C285.311 10.752 285.459 10.812 285.579 10.932C285.707 11.052 285.771 11.208 285.771 11.4C285.771 11.584 285.707 11.74 285.579 11.868C285.459 11.996 285.311 12.06 285.135 12.06ZM287.678 12.06C287.502 12.06 287.35 11.996 287.222 11.868C287.102 11.74 287.042 11.584 287.042 11.4C287.042 11.208 287.102 11.052 287.222 10.932C287.35 10.812 287.502 10.752 287.678 10.752C287.854 10.752 288.002 10.812 288.122 10.932C288.25 11.052 288.314 11.208 288.314 11.4C288.314 11.584 288.25 11.74 288.122 11.868C288.002 11.996 287.854 12.06 287.678 12.06ZM290.221 12.06C290.045 12.06 289.893 11.996 289.765 11.868C289.645 11.74 289.585 11.584 289.585 11.4C289.585 11.208 289.645 11.052 289.765 10.932C289.893 10.812 290.045 10.752 290.221 10.752C290.397 10.752 290.545 10.812 290.665 10.932C290.793 11.052 290.857 11.208 290.857 11.4C290.857 11.584 290.793 11.74 290.665 11.868C290.545 11.996 290.397 12.06 290.221 12.06Z" fill="black"/>
</svg>
