<svg width="322" height="19" viewBox="0 0 322 19" fill="none" xmlns="http://www.w3.org/2000/svg">
<path d="M2.184 14.048C1.784 14.048 1.40267 13.984 1.04 13.856C0.677333 13.7227 0.389333 13.5467 0.176 13.328L0.456 12.872C0.632 13.0587 0.872 13.2133 1.176 13.336C1.48533 13.4587 1.81867 13.52 2.176 13.52C2.65067 13.52 3.01067 13.416 3.256 13.208C3.50667 12.9947 3.632 12.7173 3.632 12.376C3.632 12.136 3.57333 11.9307 3.456 11.76C3.344 11.584 3.152 11.448 2.88 11.352C2.608 11.256 2.23467 11.208 1.76 11.208H0.568L0.856 8.4H3.92V8.912H1.088L1.384 8.632L1.136 10.984L0.84 10.696H1.888C2.45333 10.696 2.90667 10.7653 3.248 10.904C3.58933 11.0427 3.83467 11.2373 3.984 11.488C4.13867 11.7333 4.216 12.0213 4.216 12.352C4.216 12.6667 4.14133 12.9547 3.992 13.216C3.84267 13.472 3.61867 13.6747 3.32 13.824C3.02133 13.9733 2.64267 14.048 2.184 14.048ZM7.17925 14.048C6.74725 14.048 6.36325 13.936 6.02725 13.712C5.69125 13.4827 5.42725 13.1573 5.23525 12.736C5.04325 12.3093 4.94725 11.7973 4.94725 11.2C4.94725 10.6027 5.04325 10.0933 5.23525 9.672C5.42725 9.24533 5.69125 8.92 6.02725 8.696C6.36325 8.46667 6.74725 8.352 7.17925 8.352C7.61125 8.352 7.99525 8.46667 8.33125 8.696C8.66725 8.92 8.93125 9.24533 9.12325 9.672C9.32058 10.0933 9.41925 10.6027 9.41925 11.2C9.41925 11.7973 9.32058 12.3093 9.12325 12.736C8.93125 13.1573 8.66725 13.4827 8.33125 13.712C7.99525 13.936 7.61125 14.048 7.17925 14.048ZM7.17925 13.52C7.50992 13.52 7.79792 13.432 8.04325 13.256C8.28858 13.0747 8.48058 12.8133 8.61925 12.472C8.75792 12.1253 8.82725 11.7013 8.82725 11.2C8.82725 10.6987 8.75792 10.2773 8.61925 9.936C8.48058 9.58933 8.28858 9.328 8.04325 9.152C7.79792 8.97067 7.50992 8.88 7.17925 8.88C6.85925 8.88 6.57392 8.97067 6.32325 9.152C6.07258 9.328 5.87792 9.58933 5.73925 9.936C5.60058 10.2773 5.53125 10.6987 5.53125 11.2C5.53125 11.7013 5.60058 12.1253 5.73925 12.472C5.87792 12.8133 6.07258 13.0747 6.32325 13.256C6.57392 13.432 6.85925 13.52 7.17925 13.52ZM12.4761 14.048C12.0441 14.048 11.6601 13.936 11.3241 13.712C10.9881 13.4827 10.7241 13.1573 10.5321 12.736C10.3401 12.3093 10.2441 11.7973 10.2441 11.2C10.2441 10.6027 10.3401 10.0933 10.5321 9.672C10.7241 9.24533 10.9881 8.92 11.3241 8.696C11.6601 8.46667 12.0441 8.352 12.4761 8.352C12.9081 8.352 13.2921 8.46667 13.6281 8.696C13.9641 8.92 14.2281 9.24533 14.4201 9.672C14.6175 10.0933 14.7161 10.6027 14.7161 11.2C14.7161 11.7973 14.6175 12.3093 14.4201 12.736C14.2281 13.1573 13.9641 13.4827 13.6281 13.712C13.2921 13.936 12.9081 14.048 12.4761 14.048ZM12.4761 13.52C12.8068 13.52 13.0948 13.432 13.3401 13.256C13.5855 13.0747 13.7775 12.8133 13.9161 12.472C14.0548 12.1253 14.1241 11.7013 14.1241 11.2C14.1241 10.6987 14.0548 10.2773 13.9161 9.936C13.7775 9.58933 13.5855 9.328 13.3401 9.152C13.0948 8.97067 12.8068 8.88 12.4761 8.88C12.1561 8.88 11.8708 8.97067 11.6201 9.152C11.3695 9.328 11.1748 9.58933 11.0361 9.936C10.8975 10.2773 10.8281 10.6987 10.8281 11.2C10.8281 11.7013 10.8975 12.1253 11.0361 12.472C11.1748 12.8133 11.3695 13.0747 11.6201 13.256C11.8708 13.432 12.1561 13.52 12.4761 13.52ZM17.709 15.592C17.325 15.592 16.957 15.536 16.605 15.424C16.253 15.312 15.9677 15.152 15.749 14.944L16.037 14.512C16.2343 14.688 16.477 14.8267 16.765 14.928C17.0583 15.0347 17.3677 15.088 17.693 15.088C18.2263 15.088 18.6183 14.9627 18.869 14.712C19.1197 14.4667 19.245 14.0827 19.245 13.56V12.512L19.325 11.792L19.269 11.072V9.8H19.813V13.488C19.813 14.2133 19.6343 14.744 19.277 15.08C18.925 15.4213 18.4023 15.592 17.709 15.592ZM17.605 13.84C17.205 13.84 16.845 13.7547 16.525 13.584C16.205 13.408 15.9517 13.1653 15.765 12.856C15.5837 12.5467 15.493 12.192 15.493 11.792C15.493 11.392 15.5837 11.04 15.765 10.736C15.9517 10.4267 16.205 10.1867 16.525 10.016C16.845 9.84533 17.205 9.76 17.605 9.76C17.9783 9.76 18.3143 9.83733 18.613 9.992C18.9117 10.1467 19.149 10.376 19.325 10.68C19.501 10.984 19.589 11.3547 19.589 11.792C19.589 12.2293 19.501 12.6 19.325 12.904C19.149 13.208 18.9117 13.44 18.613 13.6C18.3143 13.76 17.9783 13.84 17.605 13.84ZM17.661 13.336C17.9703 13.336 18.245 13.272 18.485 13.144C18.725 13.0107 18.9143 12.8293 19.053 12.6C19.1917 12.3653 19.261 12.096 19.261 11.792C19.261 11.488 19.1917 11.2213 19.053 10.992C18.9143 10.7627 18.725 10.584 18.485 10.456C18.245 10.3227 17.9703 10.256 17.661 10.256C17.357 10.256 17.0823 10.3227 16.837 10.456C16.597 10.584 16.4077 10.7627 16.269 10.992C16.1357 11.2213 16.069 11.488 16.069 11.792C16.069 12.096 16.1357 12.3653 16.269 12.6C16.4077 12.8293 16.597 13.0107 16.837 13.144C17.0823 13.272 17.357 13.336 17.661 13.336ZM21.3936 14V9.8H21.9376V10.936L21.8496 10.736C21.9776 10.432 22.1829 10.1947 22.4656 10.024C22.7536 9.848 23.0922 9.76 23.4816 9.76C23.8922 9.76 24.2416 9.864 24.5296 10.072C24.8176 10.2747 25.0042 10.5813 25.0896 10.992L24.8656 10.904C24.9882 10.5627 25.2042 10.288 25.5136 10.08C25.8282 9.86667 26.2042 9.76 26.6416 9.76C26.9829 9.76 27.2789 9.82667 27.5296 9.96C27.7856 10.088 27.9829 10.2853 28.1216 10.552C28.2656 10.8187 28.3376 11.1547 28.3376 11.56V14H27.7696V11.616C27.7696 11.1733 27.6629 10.84 27.4496 10.616C27.2416 10.3867 26.9456 10.272 26.5616 10.272C26.2736 10.272 26.0229 10.3333 25.8096 10.456C25.6016 10.5733 25.4389 10.7467 25.3216 10.976C25.2096 11.2 25.1536 11.472 25.1536 11.792V14H24.5856V11.616C24.5856 11.1733 24.4789 10.84 24.2656 10.616C24.0522 10.3867 23.7536 10.272 23.3696 10.272C23.0869 10.272 22.8389 10.3333 22.6256 10.456C22.4122 10.5733 22.2469 10.7467 22.1296 10.976C22.0176 11.2 21.9616 11.472 21.9616 11.792V14H21.3936ZM31.0059 14.04C30.6593 14.04 30.3313 13.992 30.0219 13.896C29.7126 13.7947 29.4699 13.6693 29.2939 13.52L29.5499 13.072C29.7206 13.2 29.9393 13.312 30.2059 13.408C30.4726 13.4987 30.7526 13.544 31.0459 13.544C31.4459 13.544 31.7339 13.4827 31.9099 13.36C32.0859 13.232 32.1739 13.064 32.1739 12.856C32.1739 12.7013 32.1233 12.5813 32.0219 12.496C31.9259 12.4053 31.7979 12.3387 31.6379 12.296C31.4779 12.248 31.2993 12.208 31.1019 12.176C30.9046 12.144 30.7073 12.1067 30.5099 12.064C30.3179 12.0213 30.1419 11.96 29.9819 11.88C29.8219 11.7947 29.6913 11.68 29.5899 11.536C29.4939 11.392 29.4459 11.2 29.4459 10.96C29.4459 10.7307 29.5099 10.5253 29.6379 10.344C29.7659 10.1627 29.9526 10.0213 30.1979 9.92C30.4486 9.81333 30.7526 9.76 31.1099 9.76C31.3819 9.76 31.6539 9.79733 31.9259 9.872C32.1979 9.94133 32.4219 10.0347 32.5979 10.152L32.3499 10.608C32.1633 10.48 31.9633 10.3893 31.7499 10.336C31.5366 10.2773 31.3233 10.248 31.1099 10.248C30.7313 10.248 30.4513 10.3147 30.2699 10.448C30.0939 10.576 30.0059 10.7413 30.0059 10.944C30.0059 11.104 30.0539 11.2293 30.1499 11.32C30.2513 11.4107 30.3819 11.4827 30.5419 11.536C30.7073 11.584 30.8859 11.624 31.0779 11.656C31.2753 11.688 31.4699 11.728 31.6619 11.776C31.8593 11.8187 32.0379 11.88 32.1979 11.96C32.3633 12.0347 32.4939 12.144 32.5899 12.288C32.6913 12.4267 32.7419 12.6107 32.7419 12.84C32.7419 13.0853 32.6726 13.2987 32.5339 13.48C32.4006 13.656 32.2033 13.7947 31.9419 13.896C31.6859 13.992 31.3739 14.04 31.0059 14.04ZM34.8859 14.8L37.5259 7.264H38.0459L35.4059 14.8H34.8859ZM40.1794 12.528V12.112L43.1474 8.4H43.7874L40.8434 12.112L40.5314 12.016H45.0354V12.528H40.1794ZM43.3394 14V12.528L43.3554 12.016V10.72H43.9154V14H43.3394ZM47.3168 14.048C46.9168 14.048 46.5355 13.984 46.1728 13.856C45.8101 13.7227 45.5221 13.5467 45.3088 13.328L45.5888 12.872C45.7648 13.0587 46.0048 13.2133 46.3088 13.336C46.6181 13.4587 46.9515 13.52 47.3088 13.52C47.7835 13.52 48.1435 13.416 48.3888 13.208C48.6395 12.9947 48.7648 12.7173 48.7648 12.376C48.7648 12.136 48.7061 11.9307 48.5888 11.76C48.4768 11.584 48.2848 11.448 48.0128 11.352C47.7408 11.256 47.3675 11.208 46.8928 11.208H45.7008L45.9888 8.4H49.0528V8.912H46.2208L46.5168 8.632L46.2688 10.984L45.9728 10.696H47.0208C47.5861 10.696 48.0395 10.7653 48.3808 10.904C48.7221 11.0427 48.9675 11.2373 49.1168 11.488C49.2715 11.7333 49.3488 12.0213 49.3488 12.352C49.3488 12.6667 49.2741 12.9547 49.1248 13.216C48.9755 13.472 48.7515 13.6747 48.4528 13.824C48.1541 13.9733 47.7755 14.048 47.3168 14.048ZM52.3121 14.048C51.8801 14.048 51.4961 13.936 51.1601 13.712C50.8241 13.4827 50.5601 13.1573 50.3681 12.736C50.1761 12.3093 50.0801 11.7973 50.0801 11.2C50.0801 10.6027 50.1761 10.0933 50.3681 9.672C50.5601 9.24533 50.8241 8.92 51.1601 8.696C51.4961 8.46667 51.8801 8.352 52.3121 8.352C52.7441 8.352 53.1281 8.46667 53.4641 8.696C53.8001 8.92 54.0641 9.24533 54.2561 9.672C54.4534 10.0933 54.5521 10.6027 54.5521 11.2C54.5521 11.7973 54.4534 12.3093 54.2561 12.736C54.0641 13.1573 53.8001 13.4827 53.4641 13.712C53.1281 13.936 52.7441 14.048 52.3121 14.048ZM52.3121 13.52C52.6427 13.52 52.9307 13.432 53.1761 13.256C53.4214 13.0747 53.6134 12.8133 53.7521 12.472C53.8907 12.1253 53.9601 11.7013 53.9601 11.2C53.9601 10.6987 53.8907 10.2773 53.7521 9.936C53.6134 9.58933 53.4214 9.328 53.1761 9.152C52.9307 8.97067 52.6427 8.88 52.3121 8.88C51.9921 8.88 51.7067 8.97067 51.4561 9.152C51.2054 9.328 51.0107 9.58933 50.8721 9.936C50.7334 10.2773 50.6641 10.6987 50.6641 11.2C50.6641 11.7013 50.7334 12.1253 50.8721 12.472C51.0107 12.8133 51.2054 13.0747 51.4561 13.256C51.7067 13.432 51.9921 13.52 52.3121 13.52ZM55.7529 14V9.8H56.2969V10.936L56.2089 10.736C56.3369 10.432 56.5423 10.1947 56.8249 10.024C57.1129 9.848 57.4516 9.76 57.8409 9.76C58.2516 9.76 58.6009 9.864 58.8889 10.072C59.1769 10.2747 59.3636 10.5813 59.4489 10.992L59.2249 10.904C59.3476 10.5627 59.5636 10.288 59.8729 10.08C60.1876 9.86667 60.5636 9.76 61.0009 9.76C61.3423 9.76 61.6383 9.82667 61.8889 9.96C62.1449 10.088 62.3423 10.2853 62.4809 10.552C62.6249 10.8187 62.6969 11.1547 62.6969 11.56V14H62.1289V11.616C62.1289 11.1733 62.0223 10.84 61.8089 10.616C61.6009 10.3867 61.3049 10.272 60.9209 10.272C60.6329 10.272 60.3823 10.3333 60.1689 10.456C59.9609 10.5733 59.7983 10.7467 59.6809 10.976C59.5689 11.2 59.5129 11.472 59.5129 11.792V14H58.9449V11.616C58.9449 11.1733 58.8383 10.84 58.6249 10.616C58.4116 10.3867 58.1129 10.272 57.7289 10.272C57.4463 10.272 57.1983 10.3333 56.9849 10.456C56.7716 10.5733 56.6063 10.7467 56.4889 10.976C56.3769 11.2 56.3209 11.472 56.3209 11.792V14H55.7529ZM64.2373 14V8.064H64.8053V14H64.2373ZM71.0315 14.048C70.6102 14.048 70.2208 13.9787 69.8635 13.84C69.5062 13.696 69.1968 13.496 68.9355 13.24C68.6742 12.984 68.4688 12.6827 68.3195 12.336C68.1755 11.9893 68.1035 11.6107 68.1035 11.2C68.1035 10.7893 68.1755 10.4107 68.3195 10.064C68.4688 9.71733 68.6742 9.416 68.9355 9.16C69.2022 8.904 69.5142 8.70667 69.8715 8.568C70.2288 8.424 70.6182 8.352 71.0395 8.352C71.4448 8.352 71.8262 8.42133 72.1835 8.56C72.5408 8.69333 72.8422 8.896 73.0875 9.168L72.7115 9.544C72.4822 9.30933 72.2288 9.14133 71.9515 9.04C71.6742 8.93333 71.3755 8.88 71.0555 8.88C70.7195 8.88 70.4075 8.93867 70.1195 9.056C69.8315 9.168 69.5808 9.33067 69.3675 9.544C69.1542 9.752 68.9862 9.99733 68.8635 10.28C68.7462 10.5573 68.6875 10.864 68.6875 11.2C68.6875 11.536 68.7462 11.8453 68.8635 12.128C68.9862 12.4053 69.1542 12.6507 69.3675 12.864C69.5808 13.072 69.8315 13.2347 70.1195 13.352C70.4075 13.464 70.7195 13.52 71.0555 13.52C71.3755 13.52 71.6742 13.4667 71.9515 13.36C72.2288 13.2533 72.4822 13.0827 72.7115 12.848L73.0875 13.224C72.8422 13.496 72.5408 13.7013 72.1835 13.84C71.8262 13.9787 71.4422 14.048 71.0315 14.048ZM75.6759 14.04C75.2705 14.04 74.9052 13.9493 74.5799 13.768C74.2599 13.5813 74.0065 13.328 73.8199 13.008C73.6332 12.6827 73.5399 12.312 73.5399 11.896C73.5399 11.4747 73.6332 11.104 73.8199 10.784C74.0065 10.464 74.2599 10.2133 74.5799 10.032C74.8999 9.85067 75.2652 9.76 75.6759 9.76C76.0919 9.76 76.4599 9.85067 76.7799 10.032C77.1052 10.2133 77.3585 10.464 77.5399 10.784C77.7265 11.104 77.8199 11.4747 77.8199 11.896C77.8199 12.312 77.7265 12.6827 77.5399 13.008C77.3585 13.328 77.1052 13.5813 76.7799 13.768C76.4545 13.9493 76.0865 14.04 75.6759 14.04ZM75.6759 13.536C75.9799 13.536 76.2492 13.4693 76.4839 13.336C76.7185 13.1973 76.9025 13.0053 77.0359 12.76C77.1745 12.5093 77.2439 12.2213 77.2439 11.896C77.2439 11.5653 77.1745 11.2773 77.0359 11.032C76.9025 10.7867 76.7185 10.5973 76.4839 10.464C76.2492 10.3253 75.9825 10.256 75.6839 10.256C75.3852 10.256 75.1185 10.3253 74.8839 10.464C74.6492 10.5973 74.4625 10.7867 74.3239 11.032C74.1852 11.2773 74.1159 11.5653 74.1159 11.896C74.1159 12.2213 74.1852 12.5093 74.3239 12.76C74.4625 13.0053 74.6492 13.1973 74.8839 13.336C75.1185 13.4693 75.3825 13.536 75.6759 13.536ZM78.9795 14V9.8H79.5235V10.952L79.4355 10.736C79.5688 10.432 79.7822 10.1947 80.0755 10.024C80.3688 9.848 80.7182 9.76 81.1235 9.76C81.4648 9.76 81.7635 9.82667 82.0195 9.96C82.2808 10.088 82.4835 10.2853 82.6275 10.552C82.7768 10.8187 82.8515 11.1547 82.8515 11.56V14H82.2835V11.616C82.2835 11.1733 82.1715 10.84 81.9475 10.616C81.7288 10.3867 81.4195 10.272 81.0195 10.272C80.7208 10.272 80.4595 10.3333 80.2355 10.456C80.0168 10.5733 79.8462 10.7467 79.7235 10.976C79.6062 11.2 79.5475 11.472 79.5475 11.792V14H78.9795ZM85.7138 14.04C85.3191 14.04 85.0151 13.9333 84.8018 13.72C84.5884 13.5067 84.4818 13.2053 84.4818 12.816V8.872H85.0498V12.784C85.0498 13.0293 85.1111 13.2187 85.2338 13.352C85.3618 13.4853 85.5431 13.552 85.7778 13.552C86.0284 13.552 86.2364 13.48 86.4018 13.336L86.6018 13.744C86.4898 13.8453 86.3538 13.92 86.1938 13.968C86.0391 14.016 85.8791 14.04 85.7138 14.04ZM83.7298 10.272V9.8H86.3298V10.272H83.7298ZM90.1115 14V13.072L90.0875 12.92V11.368C90.0875 11.0107 89.9862 10.736 89.7835 10.544C89.5862 10.352 89.2902 10.256 88.8955 10.256C88.6235 10.256 88.3648 10.3013 88.1195 10.392C87.8742 10.4827 87.6662 10.6027 87.4955 10.752L87.2395 10.328C87.4528 10.1467 87.7088 10.008 88.0075 9.912C88.3062 9.81067 88.6208 9.76 88.9515 9.76C89.4955 9.76 89.9142 9.896 90.2075 10.168C90.5062 10.4347 90.6555 10.8427 90.6555 11.392V14H90.1115ZM88.6635 14.04C88.3488 14.04 88.0742 13.9893 87.8395 13.888C87.6102 13.7813 87.4342 13.6373 87.3115 13.456C87.1888 13.2693 87.1275 13.056 87.1275 12.816C87.1275 12.5973 87.1782 12.4 87.2795 12.224C87.3862 12.0427 87.5568 11.8987 87.7915 11.792C88.0315 11.68 88.3515 11.624 88.7515 11.624H90.1995V12.048H88.7675C88.3622 12.048 88.0795 12.12 87.9195 12.264C87.7648 12.408 87.6875 12.5867 87.6875 12.8C87.6875 13.04 87.7808 13.232 87.9675 13.376C88.1542 13.52 88.4155 13.592 88.7515 13.592C89.0715 13.592 89.3462 13.52 89.5755 13.376C89.8102 13.2267 89.9808 13.0133 90.0875 12.736L90.2155 13.128C90.1088 13.4053 89.9222 13.6267 89.6555 13.792C89.3942 13.9573 89.0635 14.04 88.6635 14.04ZM92.1983 14V9.8H92.7663V14H92.1983ZM92.4863 8.872C92.3689 8.872 92.2703 8.832 92.1903 8.752C92.1103 8.672 92.0703 8.576 92.0703 8.464C92.0703 8.352 92.1103 8.25867 92.1903 8.184C92.2703 8.104 92.3689 8.064 92.4863 8.064C92.6036 8.064 92.7023 8.10133 92.7823 8.176C92.8623 8.25067 92.9023 8.344 92.9023 8.456C92.9023 8.57333 92.8623 8.672 92.7823 8.752C92.7076 8.832 92.6089 8.872 92.4863 8.872ZM94.3467 14V9.8H94.8907V10.952L94.8027 10.736C94.936 10.432 95.1494 10.1947 95.4427 10.024C95.736 9.848 96.0854 9.76 96.4907 9.76C96.832 9.76 97.1307 9.82667 97.3867 9.96C97.648 10.088 97.8507 10.2853 97.9947 10.552C98.144 10.8187 98.2187 11.1547 98.2187 11.56V14H97.6507V11.616C97.6507 11.1733 97.5387 10.84 97.3147 10.616C97.096 10.3867 96.7867 10.272 96.3867 10.272C96.088 10.272 95.8267 10.3333 95.6027 10.456C95.384 10.5733 95.2134 10.7467 95.0907 10.976C94.9734 11.2 94.9147 11.472 94.9147 11.792V14H94.3467ZM101.537 14.04C101.1 14.04 100.716 13.9493 100.385 13.768C100.054 13.5813 99.7956 13.328 99.6089 13.008C99.4223 12.6827 99.3289 12.312 99.3289 11.896C99.3289 11.48 99.4169 11.112 99.5929 10.792C99.7743 10.472 100.02 10.2213 100.329 10.04C100.644 9.85333 100.996 9.76 101.385 9.76C101.78 9.76 102.129 9.85067 102.433 10.032C102.742 10.208 102.985 10.4587 103.161 10.784C103.337 11.104 103.425 11.4747 103.425 11.896C103.425 11.9227 103.422 11.952 103.417 11.984C103.417 12.0107 103.417 12.04 103.417 12.072H99.7609V11.648H103.113L102.889 11.816C102.889 11.512 102.822 11.2427 102.689 11.008C102.561 10.768 102.385 10.5813 102.161 10.448C101.937 10.3147 101.678 10.248 101.385 10.248C101.097 10.248 100.838 10.3147 100.609 10.448C100.38 10.5813 100.201 10.768 100.073 11.008C99.9449 11.248 99.8809 11.5227 99.8809 11.832V11.92C99.8809 12.24 99.9503 12.5227 100.089 12.768C100.233 13.008 100.43 13.1973 100.681 13.336C100.937 13.4693 101.228 13.536 101.553 13.536C101.809 13.536 102.046 13.4907 102.265 13.4C102.489 13.3093 102.681 13.1707 102.841 12.984L103.161 13.352C102.974 13.576 102.74 13.7467 102.457 13.864C102.18 13.9813 101.873 14.04 101.537 14.04ZM104.581 14V9.8H105.125V10.944L105.069 10.744C105.186 10.424 105.384 10.1813 105.661 10.016C105.938 9.84533 106.282 9.76 106.693 9.76V10.312C106.672 10.312 106.65 10.312 106.629 10.312C106.608 10.3067 106.586 10.304 106.565 10.304C106.122 10.304 105.776 10.44 105.525 10.712C105.274 10.9787 105.149 11.36 105.149 11.856V14H104.581Z" fill="black"/>
<path d="M307.234 15.048C306.802 15.048 306.418 14.936 306.082 14.712C305.746 14.4827 305.482 14.1573 305.29 13.736C305.098 13.3093 305.002 12.7973 305.002 12.2C305.002 11.6027 305.098 11.0933 305.29 10.672C305.482 10.2453 305.746 9.92 306.082 9.696C306.418 9.46667 306.802 9.352 307.234 9.352C307.666 9.352 308.05 9.46667 308.386 9.696C308.722 9.92 308.986 10.2453 309.178 10.672C309.375 11.0933 309.474 11.6027 309.474 12.2C309.474 12.7973 309.375 13.3093 309.178 13.736C308.986 14.1573 308.722 14.4827 308.386 14.712C308.05 14.936 307.666 15.048 307.234 15.048ZM307.234 14.52C307.565 14.52 307.853 14.432 308.098 14.256C308.343 14.0747 308.535 13.8133 308.674 13.472C308.813 13.1253 308.882 12.7013 308.882 12.2C308.882 11.6987 308.813 11.2773 308.674 10.936C308.535 10.5893 308.343 10.328 308.098 10.152C307.853 9.97067 307.565 9.88 307.234 9.88C306.914 9.88 306.629 9.97067 306.378 10.152C306.127 10.328 305.933 10.5893 305.794 10.936C305.655 11.2773 305.586 11.6987 305.586 12.2C305.586 12.7013 305.655 13.1253 305.794 13.472C305.933 13.8133 306.127 14.0747 306.378 14.256C306.629 14.432 306.914 14.52 307.234 14.52ZM312.067 15.048C311.667 15.048 311.285 14.984 310.923 14.856C310.56 14.7227 310.272 14.5467 310.059 14.328L310.339 13.872C310.515 14.0587 310.755 14.2133 311.059 14.336C311.368 14.4587 311.701 14.52 312.059 14.52C312.533 14.52 312.893 14.416 313.139 14.208C313.389 13.9947 313.515 13.7173 313.515 13.376C313.515 13.136 313.456 12.9307 313.339 12.76C313.227 12.584 313.035 12.448 312.763 12.352C312.491 12.256 312.117 12.208 311.643 12.208H310.451L310.739 9.4H313.803V9.912H310.971L311.267 9.632L311.019 11.984L310.723 11.696H311.771C312.336 11.696 312.789 11.7653 313.131 11.904C313.472 12.0427 313.717 12.2373 313.867 12.488C314.021 12.7333 314.099 13.0213 314.099 13.352C314.099 13.6667 314.024 13.9547 313.875 14.216C313.725 14.472 313.501 14.6747 313.203 14.824C312.904 14.9733 312.525 15.048 312.067 15.048Z" fill="black"/>
<path d="M145.272 12.06C145.096 12.06 144.944 11.996 144.816 11.868C144.696 11.74 144.636 11.584 144.636 11.4C144.636 11.208 144.696 11.052 144.816 10.932C144.944 10.812 145.096 10.752 145.272 10.752C145.448 10.752 145.596 10.812 145.716 10.932C145.844 11.052 145.908 11.208 145.908 11.4C145.908 11.584 145.844 11.74 145.716 11.868C145.596 11.996 145.448 12.06 145.272 12.06ZM147.815 12.06C147.639 12.06 147.487 11.996 147.359 11.868C147.239 11.74 147.179 11.584 147.179 11.4C147.179 11.208 147.239 11.052 147.359 10.932C147.487 10.812 147.639 10.752 147.815 10.752C147.991 10.752 148.139 10.812 148.259 10.932C148.387 11.052 148.451 11.208 148.451 11.4C148.451 11.584 148.387 11.74 148.259 11.868C148.139 11.996 147.991 12.06 147.815 12.06ZM150.358 12.06C150.182 12.06 150.03 11.996 149.902 11.868C149.782 11.74 149.722 11.584 149.722 11.4C149.722 11.208 149.782 11.052 149.902 10.932C150.03 10.812 150.182 10.752 150.358 10.752C150.534 10.752 150.682 10.812 150.802 10.932C150.93 11.052 150.994 11.208 150.994 11.4C150.994 11.584 150.93 11.74 150.802 11.868C150.682 11.996 150.534 12.06 150.358 12.06ZM152.901 12.06C152.725 12.06 152.573 11.996 152.445 11.868C152.325 11.74 152.265 11.584 152.265 11.4C152.265 11.208 152.325 11.052 152.445 10.932C152.573 10.812 152.725 10.752 152.901 10.752C153.077 10.752 153.225 10.812 153.345 10.932C153.473 11.052 153.537 11.208 153.537 11.4C153.537 11.584 153.473 11.74 153.345 11.868C153.225 11.996 153.077 12.06 152.901 12.06ZM155.444 12.06C155.268 12.06 155.116 11.996 154.988 11.868C154.868 11.74 154.808 11.584 154.808 11.4C154.808 11.208 154.868 11.052 154.988 10.932C155.116 10.812 155.268 10.752 155.444 10.752C155.62 10.752 155.768 10.812 155.888 10.932C156.016 11.052 156.08 11.208 156.08 11.4C156.08 11.584 156.016 11.74 155.888 11.868C155.768 11.996 155.62 12.06 155.444 12.06ZM157.987 12.06C157.811 12.06 157.659 11.996 157.531 11.868C157.411 11.74 157.351 11.584 157.351 11.4C157.351 11.208 157.411 11.052 157.531 10.932C157.659 10.812 157.811 10.752 157.987 10.752C158.163 10.752 158.311 10.812 158.431 10.932C158.559 11.052 158.623 11.208 158.623 11.4C158.623 11.584 158.559 11.74 158.431 11.868C158.311 11.996 158.163 12.06 157.987 12.06ZM160.53 12.06C160.354 12.06 160.202 11.996 160.074 11.868C159.954 11.74 159.894 11.584 159.894 11.4C159.894 11.208 159.954 11.052 160.074 10.932C160.202 10.812 160.354 10.752 160.53 10.752C160.706 10.752 160.854 10.812 160.974 10.932C161.102 11.052 161.166 11.208 161.166 11.4C161.166 11.584 161.102 11.74 160.974 11.868C160.854 11.996 160.706 12.06 160.53 12.06ZM163.073 12.06C162.897 12.06 162.745 11.996 162.617 11.868C162.497 11.74 162.437 11.584 162.437 11.4C162.437 11.208 162.497 11.052 162.617 10.932C162.745 10.812 162.897 10.752 163.073 10.752C163.249 10.752 163.397 10.812 163.517 10.932C163.645 11.052 163.709 11.208 163.709 11.4C163.709 11.584 163.645 11.74 163.517 11.868C163.397 11.996 163.249 12.06 163.073 12.06ZM165.616 12.06C165.44 12.06 165.288 11.996 165.16 11.868C165.04 11.74 164.98 11.584 164.98 11.4C164.98 11.208 165.04 11.052 165.16 10.932C165.288 10.812 165.44 10.752 165.616 10.752C165.792 10.752 165.94 10.812 166.06 10.932C166.188 11.052 166.252 11.208 166.252 11.4C166.252 11.584 166.188 11.74 166.06 11.868C165.94 11.996 165.792 12.06 165.616 12.06ZM168.159 12.06C167.983 12.06 167.831 11.996 167.703 11.868C167.583 11.74 167.523 11.584 167.523 11.4C167.523 11.208 167.583 11.052 167.703 10.932C167.831 10.812 167.983 10.752 168.159 10.752C168.335 10.752 168.483 10.812 168.603 10.932C168.731 11.052 168.795 11.208 168.795 11.4C168.795 11.584 168.731 11.74 168.603 11.868C168.483 11.996 168.335 12.06 168.159 12.06ZM170.702 12.06C170.526 12.06 170.374 11.996 170.246 11.868C170.126 11.74 170.066 11.584 170.066 11.4C170.066 11.208 170.126 11.052 170.246 10.932C170.374 10.812 170.526 10.752 170.702 10.752C170.878 10.752 171.026 10.812 171.146 10.932C171.274 11.052 171.338 11.208 171.338 11.4C171.338 11.584 171.274 11.74 171.146 11.868C171.026 11.996 170.878 12.06 170.702 12.06ZM173.245 12.06C173.069 12.06 172.917 11.996 172.789 11.868C172.669 11.74 172.609 11.584 172.609 11.4C172.609 11.208 172.669 11.052 172.789 10.932C172.917 10.812 173.069 10.752 173.245 10.752C173.421 10.752 173.569 10.812 173.689 10.932C173.817 11.052 173.881 11.208 173.881 11.4C173.881 11.584 173.817 11.74 173.689 11.868C173.569 11.996 173.421 12.06 173.245 12.06ZM175.788 12.06C175.612 12.06 175.46 11.996 175.332 11.868C175.212 11.74 175.152 11.584 175.152 11.4C175.152 11.208 175.212 11.052 175.332 10.932C175.46 10.812 175.612 10.752 175.788 10.752C175.964 10.752 176.112 10.812 176.232 10.932C176.36 11.052 176.424 11.208 176.424 11.4C176.424 11.584 176.36 11.74 176.232 11.868C176.112 11.996 175.964 12.06 175.788 12.06ZM178.331 12.06C178.155 12.06 178.003 11.996 177.875 11.868C177.755 11.74 177.695 11.584 177.695 11.4C177.695 11.208 177.755 11.052 177.875 10.932C178.003 10.812 178.155 10.752 178.331 10.752C178.507 10.752 178.655 10.812 178.775 10.932C178.903 11.052 178.967 11.208 178.967 11.4C178.967 11.584 178.903 11.74 178.775 11.868C178.655 11.996 178.507 12.06 178.331 12.06ZM180.874 12.06C180.698 12.06 180.546 11.996 180.418 11.868C180.298 11.74 180.238 11.584 180.238 11.4C180.238 11.208 180.298 11.052 180.418 10.932C180.546 10.812 180.698 10.752 180.874 10.752C181.05 10.752 181.198 10.812 181.318 10.932C181.446 11.052 181.51 11.208 181.51 11.4C181.51 11.584 181.446 11.74 181.318 11.868C181.198 11.996 181.05 12.06 180.874 12.06ZM183.417 12.06C183.241 12.06 183.089 11.996 182.961 11.868C182.841 11.74 182.781 11.584 182.781 11.4C182.781 11.208 182.841 11.052 182.961 10.932C183.089 10.812 183.241 10.752 183.417 10.752C183.593 10.752 183.741 10.812 183.861 10.932C183.989 11.052 184.053 11.208 184.053 11.4C184.053 11.584 183.989 11.74 183.861 11.868C183.741 11.996 183.593 12.06 183.417 12.06ZM185.96 12.06C185.784 12.06 185.632 11.996 185.504 11.868C185.384 11.74 185.324 11.584 185.324 11.4C185.324 11.208 185.384 11.052 185.504 10.932C185.632 10.812 185.784 10.752 185.96 10.752C186.136 10.752 186.284 10.812 186.404 10.932C186.532 11.052 186.596 11.208 186.596 11.4C186.596 11.584 186.532 11.74 186.404 11.868C186.284 11.996 186.136 12.06 185.96 12.06ZM188.502 12.06C188.326 12.06 188.174 11.996 188.046 11.868C187.926 11.74 187.866 11.584 187.866 11.4C187.866 11.208 187.926 11.052 188.046 10.932C188.174 10.812 188.326 10.752 188.502 10.752C188.678 10.752 188.826 10.812 188.946 10.932C189.074 11.052 189.138 11.208 189.138 11.4C189.138 11.584 189.074 11.74 188.946 11.868C188.826 11.996 188.678 12.06 188.502 12.06ZM191.045 12.06C190.869 12.06 190.717 11.996 190.589 11.868C190.469 11.74 190.409 11.584 190.409 11.4C190.409 11.208 190.469 11.052 190.589 10.932C190.717 10.812 190.869 10.752 191.045 10.752C191.221 10.752 191.369 10.812 191.489 10.932C191.617 11.052 191.681 11.208 191.681 11.4C191.681 11.584 191.617 11.74 191.489 11.868C191.369 11.996 191.221 12.06 191.045 12.06ZM193.588 12.06C193.412 12.06 193.26 11.996 193.132 11.868C193.012 11.74 192.952 11.584 192.952 11.4C192.952 11.208 193.012 11.052 193.132 10.932C193.26 10.812 193.412 10.752 193.588 10.752C193.764 10.752 193.912 10.812 194.032 10.932C194.16 11.052 194.224 11.208 194.224 11.4C194.224 11.584 194.16 11.74 194.032 11.868C193.912 11.996 193.764 12.06 193.588 12.06ZM196.131 12.06C195.955 12.06 195.803 11.996 195.675 11.868C195.555 11.74 195.495 11.584 195.495 11.4C195.495 11.208 195.555 11.052 195.675 10.932C195.803 10.812 195.955 10.752 196.131 10.752C196.307 10.752 196.455 10.812 196.575 10.932C196.703 11.052 196.767 11.208 196.767 11.4C196.767 11.584 196.703 11.74 196.575 11.868C196.455 11.996 196.307 12.06 196.131 12.06ZM198.674 12.06C198.498 12.06 198.346 11.996 198.218 11.868C198.098 11.74 198.038 11.584 198.038 11.4C198.038 11.208 198.098 11.052 198.218 10.932C198.346 10.812 198.498 10.752 198.674 10.752C198.85 10.752 198.998 10.812 199.118 10.932C199.246 11.052 199.31 11.208 199.31 11.4C199.31 11.584 199.246 11.74 199.118 11.868C198.998 11.996 198.85 12.06 198.674 12.06ZM201.217 12.06C201.041 12.06 200.889 11.996 200.761 11.868C200.641 11.74 200.581 11.584 200.581 11.4C200.581 11.208 200.641 11.052 200.761 10.932C200.889 10.812 201.041 10.752 201.217 10.752C201.393 10.752 201.541 10.812 201.661 10.932C201.789 11.052 201.853 11.208 201.853 11.4C201.853 11.584 201.789 11.74 201.661 11.868C201.541 11.996 201.393 12.06 201.217 12.06ZM203.76 12.06C203.584 12.06 203.432 11.996 203.304 11.868C203.184 11.74 203.124 11.584 203.124 11.4C203.124 11.208 203.184 11.052 203.304 10.932C203.432 10.812 203.584 10.752 203.76 10.752C203.936 10.752 204.084 10.812 204.204 10.932C204.332 11.052 204.396 11.208 204.396 11.4C204.396 11.584 204.332 11.74 204.204 11.868C204.084 11.996 203.936 12.06 203.76 12.06ZM206.303 12.06C206.127 12.06 205.975 11.996 205.847 11.868C205.727 11.74 205.667 11.584 205.667 11.4C205.667 11.208 205.727 11.052 205.847 10.932C205.975 10.812 206.127 10.752 206.303 10.752C206.479 10.752 206.627 10.812 206.747 10.932C206.875 11.052 206.939 11.208 206.939 11.4C206.939 11.584 206.875 11.74 206.747 11.868C206.627 11.996 206.479 12.06 206.303 12.06ZM208.846 12.06C208.67 12.06 208.518 11.996 208.39 11.868C208.27 11.74 208.21 11.584 208.21 11.4C208.21 11.208 208.27 11.052 208.39 10.932C208.518 10.812 208.67 10.752 208.846 10.752C209.022 10.752 209.17 10.812 209.29 10.932C209.418 11.052 209.482 11.208 209.482 11.4C209.482 11.584 209.418 11.74 209.29 11.868C209.17 11.996 209.022 12.06 208.846 12.06ZM211.389 12.06C211.213 12.06 211.061 11.996 210.933 11.868C210.813 11.74 210.753 11.584 210.753 11.4C210.753 11.208 210.813 11.052 210.933 10.932C211.061 10.812 211.213 10.752 211.389 10.752C211.565 10.752 211.713 10.812 211.833 10.932C211.961 11.052 212.025 11.208 212.025 11.4C212.025 11.584 211.961 11.74 211.833 11.868C211.713 11.996 211.565 12.06 211.389 12.06ZM213.932 12.06C213.756 12.06 213.604 11.996 213.476 11.868C213.356 11.74 213.296 11.584 213.296 11.4C213.296 11.208 213.356 11.052 213.476 10.932C213.604 10.812 213.756 10.752 213.932 10.752C214.108 10.752 214.256 10.812 214.376 10.932C214.504 11.052 214.568 11.208 214.568 11.4C214.568 11.584 214.504 11.74 214.376 11.868C214.256 11.996 214.108 12.06 213.932 12.06ZM216.475 12.06C216.299 12.06 216.147 11.996 216.019 11.868C215.899 11.74 215.839 11.584 215.839 11.4C215.839 11.208 215.899 11.052 216.019 10.932C216.147 10.812 216.299 10.752 216.475 10.752C216.651 10.752 216.799 10.812 216.919 10.932C217.047 11.052 217.111 11.208 217.111 11.4C217.111 11.584 217.047 11.74 216.919 11.868C216.799 11.996 216.651 12.06 216.475 12.06ZM219.018 12.06C218.842 12.06 218.69 11.996 218.562 11.868C218.442 11.74 218.382 11.584 218.382 11.4C218.382 11.208 218.442 11.052 218.562 10.932C218.69 10.812 218.842 10.752 219.018 10.752C219.194 10.752 219.342 10.812 219.462 10.932C219.59 11.052 219.654 11.208 219.654 11.4C219.654 11.584 219.59 11.74 219.462 11.868C219.342 11.996 219.194 12.06 219.018 12.06ZM221.561 12.06C221.385 12.06 221.233 11.996 221.105 11.868C220.985 11.74 220.925 11.584 220.925 11.4C220.925 11.208 220.985 11.052 221.105 10.932C221.233 10.812 221.385 10.752 221.561 10.752C221.737 10.752 221.885 10.812 222.005 10.932C222.133 11.052 222.197 11.208 222.197 11.4C222.197 11.584 222.133 11.74 222.005 11.868C221.885 11.996 221.737 12.06 221.561 12.06ZM224.104 12.06C223.928 12.06 223.776 11.996 223.648 11.868C223.528 11.74 223.468 11.584 223.468 11.4C223.468 11.208 223.528 11.052 223.648 10.932C223.776 10.812 223.928 10.752 224.104 10.752C224.28 10.752 224.428 10.812 224.548 10.932C224.676 11.052 224.74 11.208 224.74 11.4C224.74 11.584 224.676 11.74 224.548 11.868C224.428 11.996 224.28 12.06 224.104 12.06ZM226.647 12.06C226.471 12.06 226.319 11.996 226.191 11.868C226.071 11.74 226.011 11.584 226.011 11.4C226.011 11.208 226.071 11.052 226.191 10.932C226.319 10.812 226.471 10.752 226.647 10.752C226.823 10.752 226.971 10.812 227.091 10.932C227.219 11.052 227.283 11.208 227.283 11.4C227.283 11.584 227.219 11.74 227.091 11.868C226.971 11.996 226.823 12.06 226.647 12.06ZM229.19 12.06C229.014 12.06 228.862 11.996 228.734 11.868C228.614 11.74 228.554 11.584 228.554 11.4C228.554 11.208 228.614 11.052 228.734 10.932C228.862 10.812 229.014 10.752 229.19 10.752C229.366 10.752 229.514 10.812 229.634 10.932C229.762 11.052 229.826 11.208 229.826 11.4C229.826 11.584 229.762 11.74 229.634 11.868C229.514 11.996 229.366 12.06 229.19 12.06ZM231.733 12.06C231.557 12.06 231.405 11.996 231.277 11.868C231.157 11.74 231.097 11.584 231.097 11.4C231.097 11.208 231.157 11.052 231.277 10.932C231.405 10.812 231.557 10.752 231.733 10.752C231.909 10.752 232.057 10.812 232.177 10.932C232.305 11.052 232.369 11.208 232.369 11.4C232.369 11.584 232.305 11.74 232.177 11.868C232.057 11.996 231.909 12.06 231.733 12.06ZM234.276 12.06C234.1 12.06 233.948 11.996 233.82 11.868C233.7 11.74 233.64 11.584 233.64 11.4C233.64 11.208 233.7 11.052 233.82 10.932C233.948 10.812 234.1 10.752 234.276 10.752C234.452 10.752 234.6 10.812 234.72 10.932C234.848 11.052 234.912 11.208 234.912 11.4C234.912 11.584 234.848 11.74 234.72 11.868C234.6 11.996 234.452 12.06 234.276 12.06ZM236.819 12.06C236.643 12.06 236.491 11.996 236.363 11.868C236.243 11.74 236.183 11.584 236.183 11.4C236.183 11.208 236.243 11.052 236.363 10.932C236.491 10.812 236.643 10.752 236.819 10.752C236.995 10.752 237.143 10.812 237.263 10.932C237.391 11.052 237.455 11.208 237.455 11.4C237.455 11.584 237.391 11.74 237.263 11.868C237.143 11.996 236.995 12.06 236.819 12.06ZM239.362 12.06C239.186 12.06 239.034 11.996 238.906 11.868C238.786 11.74 238.726 11.584 238.726 11.4C238.726 11.208 238.786 11.052 238.906 10.932C239.034 10.812 239.186 10.752 239.362 10.752C239.538 10.752 239.686 10.812 239.806 10.932C239.934 11.052 239.998 11.208 239.998 11.4C239.998 11.584 239.934 11.74 239.806 11.868C239.686 11.996 239.538 12.06 239.362 12.06ZM241.905 12.06C241.729 12.06 241.577 11.996 241.449 11.868C241.329 11.74 241.269 11.584 241.269 11.4C241.269 11.208 241.329 11.052 241.449 10.932C241.577 10.812 241.729 10.752 241.905 10.752C242.081 10.752 242.229 10.812 242.349 10.932C242.477 11.052 242.541 11.208 242.541 11.4C242.541 11.584 242.477 11.74 242.349 11.868C242.229 11.996 242.081 12.06 241.905 12.06ZM244.448 12.06C244.272 12.06 244.12 11.996 243.992 11.868C243.872 11.74 243.812 11.584 243.812 11.4C243.812 11.208 243.872 11.052 243.992 10.932C244.12 10.812 244.272 10.752 244.448 10.752C244.624 10.752 244.772 10.812 244.892 10.932C245.02 11.052 245.084 11.208 245.084 11.4C245.084 11.584 245.02 11.74 244.892 11.868C244.772 11.996 244.624 12.06 244.448 12.06ZM246.991 12.06C246.815 12.06 246.663 11.996 246.535 11.868C246.415 11.74 246.355 11.584 246.355 11.4C246.355 11.208 246.415 11.052 246.535 10.932C246.663 10.812 246.815 10.752 246.991 10.752C247.167 10.752 247.315 10.812 247.435 10.932C247.563 11.052 247.627 11.208 247.627 11.4C247.627 11.584 247.563 11.74 247.435 11.868C247.315 11.996 247.167 12.06 246.991 12.06ZM249.534 12.06C249.358 12.06 249.206 11.996 249.078 11.868C248.958 11.74 248.898 11.584 248.898 11.4C248.898 11.208 248.958 11.052 249.078 10.932C249.206 10.812 249.358 10.752 249.534 10.752C249.71 10.752 249.858 10.812 249.978 10.932C250.106 11.052 250.17 11.208 250.17 11.4C250.17 11.584 250.106 11.74 249.978 11.868C249.858 11.996 249.71 12.06 249.534 12.06ZM252.077 12.06C251.901 12.06 251.749 11.996 251.621 11.868C251.501 11.74 251.441 11.584 251.441 11.4C251.441 11.208 251.501 11.052 251.621 10.932C251.749 10.812 251.901 10.752 252.077 10.752C252.253 10.752 252.401 10.812 252.521 10.932C252.649 11.052 252.713 11.208 252.713 11.4C252.713 11.584 252.649 11.74 252.521 11.868C252.401 11.996 252.253 12.06 252.077 12.06ZM254.62 12.06C254.444 12.06 254.292 11.996 254.164 11.868C254.044 11.74 253.984 11.584 253.984 11.4C253.984 11.208 254.044 11.052 254.164 10.932C254.292 10.812 254.444 10.752 254.62 10.752C254.796 10.752 254.944 10.812 255.064 10.932C255.192 11.052 255.256 11.208 255.256 11.4C255.256 11.584 255.192 11.74 255.064 11.868C254.944 11.996 254.796 12.06 254.62 12.06ZM257.163 12.06C256.987 12.06 256.835 11.996 256.707 11.868C256.587 11.74 256.527 11.584 256.527 11.4C256.527 11.208 256.587 11.052 256.707 10.932C256.835 10.812 256.987 10.752 257.163 10.752C257.339 10.752 257.487 10.812 257.607 10.932C257.735 11.052 257.799 11.208 257.799 11.4C257.799 11.584 257.735 11.74 257.607 11.868C257.487 11.996 257.339 12.06 257.163 12.06ZM259.706 12.06C259.53 12.06 259.378 11.996 259.25 11.868C259.13 11.74 259.07 11.584 259.07 11.4C259.07 11.208 259.13 11.052 259.25 10.932C259.378 10.812 259.53 10.752 259.706 10.752C259.882 10.752 260.03 10.812 260.15 10.932C260.278 11.052 260.342 11.208 260.342 11.4C260.342 11.584 260.278 11.74 260.15 11.868C260.03 11.996 259.882 12.06 259.706 12.06ZM262.249 12.06C262.073 12.06 261.921 11.996 261.793 11.868C261.673 11.74 261.613 11.584 261.613 11.4C261.613 11.208 261.673 11.052 261.793 10.932C261.921 10.812 262.073 10.752 262.249 10.752C262.425 10.752 262.573 10.812 262.693 10.932C262.821 11.052 262.885 11.208 262.885 11.4C262.885 11.584 262.821 11.74 262.693 11.868C262.573 11.996 262.425 12.06 262.249 12.06ZM264.792 12.06C264.616 12.06 264.464 11.996 264.336 11.868C264.216 11.74 264.156 11.584 264.156 11.4C264.156 11.208 264.216 11.052 264.336 10.932C264.464 10.812 264.616 10.752 264.792 10.752C264.968 10.752 265.116 10.812 265.236 10.932C265.364 11.052 265.428 11.208 265.428 11.4C265.428 11.584 265.364 11.74 265.236 11.868C265.116 11.996 264.968 12.06 264.792 12.06ZM267.335 12.06C267.159 12.06 267.007 11.996 266.879 11.868C266.759 11.74 266.699 11.584 266.699 11.4C266.699 11.208 266.759 11.052 266.879 10.932C267.007 10.812 267.159 10.752 267.335 10.752C267.511 10.752 267.659 10.812 267.779 10.932C267.907 11.052 267.971 11.208 267.971 11.4C267.971 11.584 267.907 11.74 267.779 11.868C267.659 11.996 267.511 12.06 267.335 12.06ZM269.877 12.06C269.701 12.06 269.549 11.996 269.421 11.868C269.301 11.74 269.241 11.584 269.241 11.4C269.241 11.208 269.301 11.052 269.421 10.932C269.549 10.812 269.701 10.752 269.877 10.752C270.053 10.752 270.201 10.812 270.321 10.932C270.449 11.052 270.513 11.208 270.513 11.4C270.513 11.584 270.449 11.74 270.321 11.868C270.201 11.996 270.053 12.06 269.877 12.06ZM272.42 12.06C272.244 12.06 272.092 11.996 271.964 11.868C271.844 11.74 271.784 11.584 271.784 11.4C271.784 11.208 271.844 11.052 271.964 10.932C272.092 10.812 272.244 10.752 272.42 10.752C272.596 10.752 272.744 10.812 272.864 10.932C272.992 11.052 273.056 11.208 273.056 11.4C273.056 11.584 272.992 11.74 272.864 11.868C272.744 11.996 272.596 12.06 272.42 12.06ZM274.963 12.06C274.787 12.06 274.635 11.996 274.507 11.868C274.387 11.74 274.327 11.584 274.327 11.4C274.327 11.208 274.387 11.052 274.507 10.932C274.635 10.812 274.787 10.752 274.963 10.752C275.139 10.752 275.287 10.812 275.407 10.932C275.535 11.052 275.599 11.208 275.599 11.4C275.599 11.584 275.535 11.74 275.407 11.868C275.287 11.996 275.139 12.06 274.963 12.06ZM277.506 12.06C277.33 12.06 277.178 11.996 277.05 11.868C276.93 11.74 276.87 11.584 276.87 11.4C276.87 11.208 276.93 11.052 277.05 10.932C277.178 10.812 277.33 10.752 277.506 10.752C277.682 10.752 277.83 10.812 277.95 10.932C278.078 11.052 278.142 11.208 278.142 11.4C278.142 11.584 278.078 11.74 277.95 11.868C277.83 11.996 277.682 12.06 277.506 12.06ZM280.049 12.06C279.873 12.06 279.721 11.996 279.593 11.868C279.473 11.74 279.413 11.584 279.413 11.4C279.413 11.208 279.473 11.052 279.593 10.932C279.721 10.812 279.873 10.752 280.049 10.752C280.225 10.752 280.373 10.812 280.493 10.932C280.621 11.052 280.685 11.208 280.685 11.4C280.685 11.584 280.621 11.74 280.493 11.868C280.373 11.996 280.225 12.06 280.049 12.06ZM282.592 12.06C282.416 12.06 282.264 11.996 282.136 11.868C282.016 11.74 281.956 11.584 281.956 11.4C281.956 11.208 282.016 11.052 282.136 10.932C282.264 10.812 282.416 10.752 282.592 10.752C282.768 10.752 282.916 10.812 283.036 10.932C283.164 11.052 283.228 11.208 283.228 11.4C283.228 11.584 283.164 11.74 283.036 11.868C282.916 11.996 282.768 12.06 282.592 12.06ZM285.135 12.06C284.959 12.06 284.807 11.996 284.679 11.868C284.559 11.74 284.499 11.584 284.499 11.4C284.499 11.208 284.559 11.052 284.679 10.932C284.807 10.812 284.959 10.752 285.135 10.752C285.311 10.752 285.459 10.812 285.579 10.932C285.707 11.052 285.771 11.208 285.771 11.4C285.771 11.584 285.707 11.74 285.579 11.868C285.459 11.996 285.311 12.06 285.135 12.06ZM287.678 12.06C287.502 12.06 287.35 11.996 287.222 11.868C287.102 11.74 287.042 11.584 287.042 11.4C287.042 11.208 287.102 11.052 287.222 10.932C287.35 10.812 287.502 10.752 287.678 10.752C287.854 10.752 288.002 10.812 288.122 10.932C288.25 11.052 288.314 11.208 288.314 11.4C288.314 11.584 288.25 11.74 288.122 11.868C288.002 11.996 287.854 12.06 287.678 12.06ZM290.221 12.06C290.045 12.06 289.893 11.996 289.765 11.868C289.645 11.74 289.585 11.584 289.585 11.4C289.585 11.208 289.645 11.052 289.765 10.932C289.893 10.812 290.045 10.752 290.221 10.752C290.397 10.752 290.545 10.812 290.665 10.932C290.793 11.052 290.857 11.208 290.857 11.4C290.857 11.584 290.793 11.74 290.665 11.868C290.545 11.996 290.397 12.06 290.221 12.06Z" fill="black"/>
</svg>
