<svg width="322" height="18" viewBox="0 0 322 18" fill="none" xmlns="http://www.w3.org/2000/svg">
<path d="M2.184 13.048C1.784 13.048 1.40267 12.984 1.04 12.856C0.677333 12.7227 0.389333 12.5467 0.176 12.328L0.456 11.872C0.632 12.0587 0.872 12.2133 1.176 12.336C1.48533 12.4587 1.81867 12.52 2.176 12.52C2.65067 12.52 3.01067 12.416 3.256 12.208C3.50667 11.9947 3.632 11.7173 3.632 11.376C3.632 11.136 3.57333 10.9307 3.456 10.76C3.344 10.584 3.152 10.448 2.88 10.352C2.608 10.256 2.23467 10.208 1.76 10.208H0.568L0.856 7.4H3.92V7.912H1.088L1.384 7.632L1.136 9.984L0.84 9.696H1.888C2.45333 9.696 2.90667 9.76533 3.248 9.904C3.58933 10.0427 3.83467 10.2373 3.984 10.488C4.13867 10.7333 4.216 11.0213 4.216 11.352C4.216 11.6667 4.14133 11.9547 3.992 12.216C3.84267 12.472 3.61867 12.6747 3.32 12.824C3.02133 12.9733 2.64267 13.048 2.184 13.048ZM7.17925 13.048C6.74725 13.048 6.36325 12.936 6.02725 12.712C5.69125 12.4827 5.42725 12.1573 5.23525 11.736C5.04325 11.3093 4.94725 10.7973 4.94725 10.2C4.94725 9.60267 5.04325 9.09333 5.23525 8.672C5.42725 8.24533 5.69125 7.92 6.02725 7.696C6.36325 7.46667 6.74725 7.352 7.17925 7.352C7.61125 7.352 7.99525 7.46667 8.33125 7.696C8.66725 7.92 8.93125 8.24533 9.12325 8.672C9.32058 9.09333 9.41925 9.60267 9.41925 10.2C9.41925 10.7973 9.32058 11.3093 9.12325 11.736C8.93125 12.1573 8.66725 12.4827 8.33125 12.712C7.99525 12.936 7.61125 13.048 7.17925 13.048ZM7.17925 12.52C7.50992 12.52 7.79792 12.432 8.04325 12.256C8.28858 12.0747 8.48058 11.8133 8.61925 11.472C8.75792 11.1253 8.82725 10.7013 8.82725 10.2C8.82725 9.69867 8.75792 9.27733 8.61925 8.936C8.48058 8.58933 8.28858 8.328 8.04325 8.152C7.79792 7.97067 7.50992 7.88 7.17925 7.88C6.85925 7.88 6.57392 7.97067 6.32325 8.152C6.07258 8.328 5.87792 8.58933 5.73925 8.936C5.60058 9.27733 5.53125 9.69867 5.53125 10.2C5.53125 10.7013 5.60058 11.1253 5.73925 11.472C5.87792 11.8133 6.07258 12.0747 6.32325 12.256C6.57392 12.432 6.85925 12.52 7.17925 12.52ZM12.4761 13.048C12.0441 13.048 11.6601 12.936 11.3241 12.712C10.9881 12.4827 10.7241 12.1573 10.5321 11.736C10.3401 11.3093 10.2441 10.7973 10.2441 10.2C10.2441 9.60267 10.3401 9.09333 10.5321 8.672C10.7241 8.24533 10.9881 7.92 11.3241 7.696C11.6601 7.46667 12.0441 7.352 12.4761 7.352C12.9081 7.352 13.2921 7.46667 13.6281 7.696C13.9641 7.92 14.2281 8.24533 14.4201 8.672C14.6175 9.09333 14.7161 9.60267 14.7161 10.2C14.7161 10.7973 14.6175 11.3093 14.4201 11.736C14.2281 12.1573 13.9641 12.4827 13.6281 12.712C13.2921 12.936 12.9081 13.048 12.4761 13.048ZM12.4761 12.52C12.8068 12.52 13.0948 12.432 13.3401 12.256C13.5855 12.0747 13.7775 11.8133 13.9161 11.472C14.0548 11.1253 14.1241 10.7013 14.1241 10.2C14.1241 9.69867 14.0548 9.27733 13.9161 8.936C13.7775 8.58933 13.5855 8.328 13.3401 8.152C13.0948 7.97067 12.8068 7.88 12.4761 7.88C12.1561 7.88 11.8708 7.97067 11.6201 8.152C11.3695 8.328 11.1748 8.58933 11.0361 8.936C10.8975 9.27733 10.8281 9.69867 10.8281 10.2C10.8281 10.7013 10.8975 11.1253 11.0361 11.472C11.1748 11.8133 11.3695 12.0747 11.6201 12.256C11.8708 12.432 12.1561 12.52 12.4761 12.52ZM21.165 8.76C21.5063 8.76 21.8023 8.82667 22.053 8.96C22.309 9.088 22.5063 9.28533 22.645 9.552C22.789 9.81867 22.861 10.1547 22.861 10.56V13H22.293V10.616C22.293 10.1733 22.1863 9.84 21.973 9.616C21.765 9.38667 21.469 9.272 21.085 9.272C20.797 9.272 20.5463 9.33333 20.333 9.456C20.125 9.57333 19.9623 9.74667 19.845 9.976C19.733 10.2 19.677 10.472 19.677 10.792V13H19.109V10.616C19.109 10.1733 19.0023 9.84 18.789 9.616C18.5757 9.38667 18.277 9.272 17.893 9.272C17.6103 9.272 17.3623 9.33333 17.149 9.456C16.9357 9.57333 16.7703 9.74667 16.653 9.976C16.541 10.2 16.485 10.472 16.485 10.792V13H15.917V8.8H16.461V9.936L16.373 9.736C16.501 9.432 16.7063 9.19467 16.989 9.024C17.277 8.848 17.6157 8.76 18.005 8.76C18.4157 8.76 18.765 8.864 19.053 9.072C19.341 9.27467 19.5277 9.58133 19.613 9.992L19.389 9.904C19.5117 9.56267 19.7277 9.288 20.037 9.08C20.3517 8.86667 20.7277 8.76 21.165 8.76ZM24.4014 13V7.064H24.9694V13H24.4014ZM28.7636 13V7.4H30.8596C31.3342 7.4 31.7422 7.47733 32.0836 7.632C32.4249 7.78133 32.6862 8 32.8676 8.288C33.0542 8.57067 33.1476 8.91467 33.1476 9.32C33.1476 9.71467 33.0542 10.056 32.8676 10.344C32.6862 10.6267 32.4249 10.8453 32.0836 11C31.7422 11.1493 31.3342 11.224 30.8596 11.224H29.0916L29.3556 10.952V13H28.7636ZM32.5876 13L31.1476 10.968H31.7876L33.2356 13H32.5876ZM29.3556 11L29.0916 10.72H30.8436C31.4036 10.72 31.8276 10.5973 32.1156 10.352C32.4089 10.1067 32.5556 9.76267 32.5556 9.32C32.5556 8.872 32.4089 8.52533 32.1156 8.28C31.8276 8.03467 31.4036 7.912 30.8436 7.912H29.0916L29.3556 7.632V11ZM36.2088 13.04C35.7715 13.04 35.3875 12.9493 35.0568 12.768C34.7261 12.5813 34.4675 12.328 34.2808 12.008C34.0941 11.6827 34.0008 11.312 34.0008 10.896C34.0008 10.48 34.0888 10.112 34.2648 9.792C34.4461 9.472 34.6915 9.22133 35.0008 9.04C35.3155 8.85333 35.6675 8.76 36.0568 8.76C36.4515 8.76 36.8008 8.85067 37.1048 9.032C37.4141 9.208 37.6568 9.45867 37.8328 9.784C38.0088 10.104 38.0968 10.4747 38.0968 10.896C38.0968 10.9227 38.0941 10.952 38.0888 10.984C38.0888 11.0107 38.0888 11.04 38.0888 11.072H34.4328V10.648H37.7848L37.5608 10.816C37.5608 10.512 37.4941 10.2427 37.3608 10.008C37.2328 9.768 37.0568 9.58133 36.8328 9.448C36.6088 9.31467 36.3501 9.248 36.0568 9.248C35.7688 9.248 35.5101 9.31467 35.2808 9.448C35.0515 9.58133 34.8728 9.768 34.7448 10.008C34.6168 10.248 34.5528 10.5227 34.5528 10.832V10.92C34.5528 11.24 34.6221 11.5227 34.7608 11.768C34.9048 12.008 35.1021 12.1973 35.3528 12.336C35.6088 12.4693 35.8995 12.536 36.2248 12.536C36.4808 12.536 36.7181 12.4907 36.9368 12.4C37.1608 12.3093 37.3528 12.1707 37.5128 11.984L37.8328 12.352C37.6461 12.576 37.4115 12.7467 37.1288 12.864C36.8515 12.9813 36.5448 13.04 36.2088 13.04ZM40.9969 13.04C40.5809 13.04 40.2076 12.9493 39.8769 12.768C39.5516 12.5813 39.2956 12.328 39.1089 12.008C38.9223 11.6827 38.8289 11.312 38.8289 10.896C38.8289 10.4747 38.9223 10.104 39.1089 9.784C39.2956 9.464 39.5516 9.21333 39.8769 9.032C40.2076 8.85067 40.5809 8.76 40.9969 8.76C41.3543 8.76 41.6769 8.82933 41.9649 8.968C42.2529 9.10667 42.4796 9.31467 42.6449 9.592L42.2209 9.88C42.0769 9.66667 41.8983 9.50933 41.6849 9.408C41.4716 9.30667 41.2396 9.256 40.9889 9.256C40.6903 9.256 40.4209 9.32533 40.1809 9.464C39.9409 9.59733 39.7516 9.78667 39.6129 10.032C39.4743 10.2773 39.4049 10.5653 39.4049 10.896C39.4049 11.2267 39.4743 11.5147 39.6129 11.76C39.7516 12.0053 39.9409 12.1973 40.1809 12.336C40.4209 12.4693 40.6903 12.536 40.9889 12.536C41.2396 12.536 41.4716 12.4853 41.6849 12.384C41.8983 12.2827 42.0769 12.128 42.2209 11.92L42.6449 12.208C42.4796 12.48 42.2529 12.688 41.9649 12.832C41.6769 12.9707 41.3543 13.04 40.9969 13.04ZM45.1356 13.04C44.741 13.04 44.437 12.9333 44.2236 12.72C44.0103 12.5067 43.9036 12.2053 43.9036 11.816V7.872H44.4716V11.784C44.4716 12.0293 44.533 12.2187 44.6556 12.352C44.7836 12.4853 44.965 12.552 45.1996 12.552C45.4503 12.552 45.6583 12.48 45.8236 12.336L46.0236 12.744C45.9116 12.8453 45.7756 12.92 45.6156 12.968C45.461 13.016 45.301 13.04 45.1356 13.04ZM43.1516 9.272V8.8H45.7516V9.272H43.1516ZM49.6896 13V12.072L49.6656 11.92V10.368C49.6656 10.0107 49.5643 9.736 49.3616 9.544C49.1643 9.352 48.8683 9.256 48.4736 9.256C48.2016 9.256 47.943 9.30133 47.6976 9.392C47.4523 9.48267 47.2443 9.60267 47.0736 9.752L46.8176 9.328C47.031 9.14667 47.287 9.008 47.5856 8.912C47.8843 8.81067 48.199 8.76 48.5296 8.76C49.0736 8.76 49.4923 8.896 49.7856 9.168C50.0843 9.43467 50.2336 9.84267 50.2336 10.392V13H49.6896ZM48.2416 13.04C47.927 13.04 47.6523 12.9893 47.4176 12.888C47.1883 12.7813 47.0123 12.6373 46.8896 12.456C46.767 12.2693 46.7056 12.056 46.7056 11.816C46.7056 11.5973 46.7563 11.4 46.8576 11.224C46.9643 11.0427 47.135 10.8987 47.3696 10.792C47.6096 10.68 47.9296 10.624 48.3296 10.624H49.7776V11.048H48.3456C47.9403 11.048 47.6576 11.12 47.4976 11.264C47.343 11.408 47.2656 11.5867 47.2656 11.8C47.2656 12.04 47.359 12.232 47.5456 12.376C47.7323 12.52 47.9936 12.592 48.3296 12.592C48.6496 12.592 48.9243 12.52 49.1536 12.376C49.3883 12.2267 49.559 12.0133 49.6656 11.736L49.7936 12.128C49.687 12.4053 49.5003 12.6267 49.2336 12.792C48.9723 12.9573 48.6416 13.04 48.2416 13.04ZM53.9204 8.76C54.2617 8.76 54.5604 8.82667 54.8164 8.96C55.0777 9.088 55.2804 9.28533 55.4244 9.552C55.5737 9.81867 55.6484 10.1547 55.6484 10.56V13H55.0804V10.616C55.0804 10.1733 54.9684 9.84 54.7444 9.616C54.5257 9.38667 54.2164 9.272 53.8164 9.272C53.5177 9.272 53.2564 9.33333 53.0324 9.456C52.8137 9.57333 52.643 9.74667 52.5204 9.976C52.403 10.2 52.3444 10.472 52.3444 10.792V13H51.7764V8.8H52.3204V9.952L52.2324 9.736C52.3657 9.432 52.579 9.19467 52.8724 9.024C53.1657 8.848 53.515 8.76 53.9204 8.76ZM58.9746 14.592C58.5906 14.592 58.2226 14.536 57.8706 14.424C57.5186 14.312 57.2333 14.152 57.0146 13.944L57.3026 13.512C57.5 13.688 57.7426 13.8267 58.0306 13.928C58.324 14.0347 58.6333 14.088 58.9586 14.088C59.492 14.088 59.884 13.9627 60.1346 13.712C60.3853 13.4667 60.5106 13.0827 60.5106 12.56V11.512L60.5906 10.792L60.5346 10.072V8.8H61.0786V12.488C61.0786 13.2133 60.9 13.744 60.5426 14.08C60.1906 14.4213 59.668 14.592 58.9746 14.592ZM58.8706 12.84C58.4706 12.84 58.1106 12.7547 57.7906 12.584C57.4706 12.408 57.2173 12.1653 57.0306 11.856C56.8493 11.5467 56.7586 11.192 56.7586 10.792C56.7586 10.392 56.8493 10.04 57.0306 9.736C57.2173 9.42667 57.4706 9.18667 57.7906 9.016C58.1106 8.84533 58.4706 8.76 58.8706 8.76C59.244 8.76 59.58 8.83733 59.8786 8.992C60.1773 9.14667 60.4146 9.376 60.5906 9.68C60.7666 9.984 60.8546 10.3547 60.8546 10.792C60.8546 11.2293 60.7666 11.6 60.5906 11.904C60.4146 12.208 60.1773 12.44 59.8786 12.6C59.58 12.76 59.244 12.84 58.8706 12.84ZM58.9266 12.336C59.236 12.336 59.5106 12.272 59.7506 12.144C59.9906 12.0107 60.18 11.8293 60.3186 11.6C60.4573 11.3653 60.5266 11.096 60.5266 10.792C60.5266 10.488 60.4573 10.2213 60.3186 9.992C60.18 9.76267 59.9906 9.584 59.7506 9.456C59.5106 9.32267 59.236 9.256 58.9266 9.256C58.6226 9.256 58.348 9.32267 58.1026 9.456C57.8626 9.584 57.6733 9.76267 57.5346 9.992C57.4013 10.2213 57.3346 10.488 57.3346 10.792C57.3346 11.096 57.4013 11.3653 57.5346 11.6C57.6733 11.8293 57.8626 12.0107 58.1026 12.144C58.348 12.272 58.6226 12.336 58.9266 12.336ZM64.3952 13.04C64.0379 13.04 63.7259 12.9733 63.4592 12.84C63.1925 12.7067 62.9845 12.5067 62.8352 12.24C62.6912 11.9733 62.6192 11.64 62.6192 11.24V8.8H63.1872V11.176C63.1872 11.624 63.2965 11.9627 63.5152 12.192C63.7392 12.416 64.0512 12.528 64.4512 12.528C64.7445 12.528 64.9979 12.4693 65.2112 12.352C65.4299 12.2293 65.5952 12.0533 65.7072 11.824C65.8245 11.5947 65.8832 11.32 65.8832 11V8.8H66.4512V13H65.9072V11.848L65.9952 12.056C65.8619 12.3653 65.6539 12.608 65.3712 12.784C65.0939 12.9547 64.7685 13.04 64.3952 13.04ZM68.0342 13V7.064H68.6022V13H68.0342ZM72.8146 13V12.072L72.7906 11.92V10.368C72.7906 10.0107 72.6893 9.736 72.4866 9.544C72.2893 9.352 71.9933 9.256 71.5986 9.256C71.3266 9.256 71.068 9.30133 70.8226 9.392C70.5773 9.48267 70.3693 9.60267 70.1986 9.752L69.9426 9.328C70.156 9.14667 70.412 9.008 70.7106 8.912C71.0093 8.81067 71.324 8.76 71.6546 8.76C72.1986 8.76 72.6173 8.896 72.9106 9.168C73.2093 9.43467 73.3586 9.84267 73.3586 10.392V13H72.8146ZM71.3666 13.04C71.052 13.04 70.7773 12.9893 70.5426 12.888C70.3133 12.7813 70.1373 12.6373 70.0146 12.456C69.892 12.2693 69.8306 12.056 69.8306 11.816C69.8306 11.5973 69.8813 11.4 69.9826 11.224C70.0893 11.0427 70.26 10.8987 70.4946 10.792C70.7346 10.68 71.0546 10.624 71.4546 10.624H72.9026V11.048H71.4706C71.0653 11.048 70.7826 11.12 70.6226 11.264C70.468 11.408 70.3906 11.5867 70.3906 11.8C70.3906 12.04 70.484 12.232 70.6706 12.376C70.8573 12.52 71.1186 12.592 71.4546 12.592C71.7746 12.592 72.0493 12.52 72.2786 12.376C72.5133 12.2267 72.684 12.0133 72.7906 11.736L72.9186 12.128C72.812 12.4053 72.6253 12.6267 72.3586 12.792C72.0973 12.9573 71.7666 13.04 71.3666 13.04ZM74.9014 13V8.8H75.4454V9.944L75.3894 9.744C75.5067 9.424 75.704 9.18133 75.9814 9.016C76.2587 8.84533 76.6027 8.76 77.0134 8.76V9.312C76.992 9.312 76.9707 9.312 76.9494 9.312C76.928 9.30667 76.9067 9.304 76.8854 9.304C76.4427 9.304 76.096 9.44 75.8454 9.712C75.5947 9.97867 75.4694 10.36 75.4694 10.856V13H74.9014ZM82.7581 13.048C82.3367 13.048 81.9474 12.9787 81.5901 12.84C81.2327 12.696 80.9234 12.496 80.6621 12.24C80.4007 11.984 80.1954 11.6827 80.0461 11.336C79.9021 10.9893 79.8301 10.6107 79.8301 10.2C79.8301 9.78933 79.9021 9.41067 80.0461 9.064C80.1954 8.71733 80.4007 8.416 80.6621 8.16C80.9287 7.904 81.2407 7.70667 81.5981 7.568C81.9554 7.424 82.3447 7.352 82.7661 7.352C83.1714 7.352 83.5527 7.42133 83.9101 7.56C84.2674 7.69333 84.5687 7.896 84.8141 8.168L84.4381 8.544C84.2087 8.30933 83.9554 8.14133 83.6781 8.04C83.4007 7.93333 83.1021 7.88 82.7821 7.88C82.4461 7.88 82.1341 7.93867 81.8461 8.056C81.5581 8.168 81.3074 8.33067 81.0941 8.544C80.8807 8.752 80.7127 8.99733 80.5901 9.28C80.4727 9.55733 80.4141 9.864 80.4141 10.2C80.4141 10.536 80.4727 10.8453 80.5901 11.128C80.7127 11.4053 80.8807 11.6507 81.0941 11.864C81.3074 12.072 81.5581 12.2347 81.8461 12.352C82.1341 12.464 82.4461 12.52 82.7821 12.52C83.1021 12.52 83.4007 12.4667 83.6781 12.36C83.9554 12.2533 84.2087 12.0827 84.4381 11.848L84.8141 12.224C84.5687 12.496 84.2674 12.7013 83.9101 12.84C83.5527 12.9787 83.1687 13.048 82.7581 13.048ZM87.4806 13.04C87.0752 13.04 86.7099 12.9493 86.3846 12.768C86.0646 12.5813 85.8112 12.328 85.6246 12.008C85.4379 11.6827 85.3446 11.312 85.3446 10.896C85.3446 10.4747 85.4379 10.104 85.6246 9.784C85.8112 9.464 86.0646 9.21333 86.3846 9.032C86.7046 8.85067 87.0699 8.76 87.4806 8.76C87.8966 8.76 88.2646 8.85067 88.5846 9.032C88.9099 9.21333 89.1632 9.464 89.3446 9.784C89.5312 10.104 89.6246 10.4747 89.6246 10.896C89.6246 11.312 89.5312 11.6827 89.3446 12.008C89.1632 12.328 88.9099 12.5813 88.5846 12.768C88.2592 12.9493 87.8912 13.04 87.4806 13.04ZM87.4806 12.536C87.7846 12.536 88.0539 12.4693 88.2886 12.336C88.5232 12.1973 88.7072 12.0053 88.8406 11.76C88.9792 11.5093 89.0486 11.2213 89.0486 10.896C89.0486 10.5653 88.9792 10.2773 88.8406 10.032C88.7072 9.78667 88.5232 9.59733 88.2886 9.464C88.0539 9.32533 87.7872 9.256 87.4886 9.256C87.1899 9.256 86.9232 9.32533 86.6886 9.464C86.4539 9.59733 86.2672 9.78667 86.1286 10.032C85.9899 10.2773 85.9206 10.5653 85.9206 10.896C85.9206 11.2213 85.9899 11.5093 86.1286 11.76C86.2672 12.0053 86.4539 12.1973 86.6886 12.336C86.9232 12.4693 87.1872 12.536 87.4806 12.536ZM92.9282 8.76C93.2695 8.76 93.5682 8.82667 93.8242 8.96C94.0855 9.088 94.2882 9.28533 94.4322 9.552C94.5815 9.81867 94.6562 10.1547 94.6562 10.56V13H94.0882V10.616C94.0882 10.1733 93.9762 9.84 93.7522 9.616C93.5335 9.38667 93.2242 9.272 92.8242 9.272C92.5255 9.272 92.2642 9.33333 92.0402 9.456C91.8215 9.57333 91.6509 9.74667 91.5282 9.976C91.4109 10.2 91.3522 10.472 91.3522 10.792V13H90.7842V8.8H91.3282V9.952L91.2402 9.736C91.3735 9.432 91.5869 9.19467 91.8802 9.024C92.1735 8.848 92.5229 8.76 92.9282 8.76ZM97.5184 13.04C97.1238 13.04 96.8198 12.9333 96.6064 12.72C96.3931 12.5067 96.2864 12.2053 96.2864 11.816V7.872H96.8544V11.784C96.8544 12.0293 96.9158 12.2187 97.0384 12.352C97.1664 12.4853 97.3478 12.552 97.5824 12.552C97.8331 12.552 98.0411 12.48 98.2064 12.336L98.4064 12.744C98.2944 12.8453 98.1584 12.92 97.9984 12.968C97.8438 13.016 97.6838 13.04 97.5184 13.04ZM95.5344 9.272V8.8H98.1344V9.272H95.5344ZM102.072 13V12.072L102.048 11.92V10.368C102.048 10.0107 101.947 9.736 101.744 9.544C101.547 9.352 101.251 9.256 100.856 9.256C100.584 9.256 100.326 9.30133 100.08 9.392C99.8351 9.48267 99.6271 9.60267 99.4564 9.752L99.2004 9.328C99.4138 9.14667 99.6698 9.008 99.9684 8.912C100.267 8.81067 100.582 8.76 100.912 8.76C101.456 8.76 101.875 8.896 102.168 9.168C102.467 9.43467 102.616 9.84267 102.616 10.392V13H102.072ZM100.624 13.04C100.31 13.04 100.035 12.9893 99.8004 12.888C99.5711 12.7813 99.3951 12.6373 99.2724 12.456C99.1498 12.2693 99.0884 12.056 99.0884 11.816C99.0884 11.5973 99.1391 11.4 99.2404 11.224C99.3471 11.0427 99.5178 10.8987 99.7524 10.792C99.9924 10.68 100.312 10.624 100.712 10.624H102.16V11.048H100.728C100.323 11.048 100.04 11.12 99.8804 11.264C99.7258 11.408 99.6484 11.5867 99.6484 11.8C99.6484 12.04 99.7418 12.232 99.9284 12.376C100.115 12.52 100.376 12.592 100.712 12.592C101.032 12.592 101.307 12.52 101.536 12.376C101.771 12.2267 101.942 12.0133 102.048 11.736L102.176 12.128C102.07 12.4053 101.883 12.6267 101.616 12.792C101.355 12.9573 101.024 13.04 100.624 13.04ZM104.159 13V8.8H104.727V13H104.159ZM104.447 7.872C104.33 7.872 104.231 7.832 104.151 7.752C104.071 7.672 104.031 7.576 104.031 7.464C104.031 7.352 104.071 7.25867 104.151 7.184C104.231 7.104 104.33 7.064 104.447 7.064C104.565 7.064 104.663 7.10133 104.743 7.176C104.823 7.25067 104.863 7.344 104.863 7.456C104.863 7.57333 104.823 7.672 104.743 7.752C104.669 7.832 104.57 7.872 104.447 7.872ZM108.452 8.76C108.793 8.76 109.092 8.82667 109.348 8.96C109.609 9.088 109.812 9.28533 109.956 9.552C110.105 9.81867 110.18 10.1547 110.18 10.56V13H109.612V10.616C109.612 10.1733 109.5 9.84 109.276 9.616C109.057 9.38667 108.748 9.272 108.348 9.272C108.049 9.272 107.788 9.33333 107.564 9.456C107.345 9.57333 107.174 9.74667 107.052 9.976C106.934 10.2 106.876 10.472 106.876 10.792V13H106.308V8.8H106.852V9.952L106.764 9.736C106.897 9.432 107.11 9.19467 107.404 9.024C107.697 8.848 108.046 8.76 108.452 8.76ZM113.498 13.04C113.061 13.04 112.677 12.9493 112.346 12.768C112.015 12.5813 111.757 12.328 111.57 12.008C111.383 11.6827 111.29 11.312 111.29 10.896C111.29 10.48 111.378 10.112 111.554 9.792C111.735 9.472 111.981 9.22133 112.29 9.04C112.605 8.85333 112.957 8.76 113.346 8.76C113.741 8.76 114.09 8.85067 114.394 9.032C114.703 9.208 114.946 9.45867 115.122 9.784C115.298 10.104 115.386 10.4747 115.386 10.896C115.386 10.9227 115.383 10.952 115.378 10.984C115.378 11.0107 115.378 11.04 115.378 11.072H111.722V10.648H115.074L114.85 10.816C114.85 10.512 114.783 10.2427 114.65 10.008C114.522 9.768 114.346 9.58133 114.122 9.448C113.898 9.31467 113.639 9.248 113.346 9.248C113.058 9.248 112.799 9.31467 112.57 9.448C112.341 9.58133 112.162 9.768 112.034 10.008C111.906 10.248 111.842 10.5227 111.842 10.832V10.92C111.842 11.24 111.911 11.5227 112.05 11.768C112.194 12.008 112.391 12.1973 112.642 12.336C112.898 12.4693 113.189 12.536 113.514 12.536C113.77 12.536 114.007 12.4907 114.226 12.4C114.45 12.3093 114.642 12.1707 114.802 11.984L115.122 12.352C114.935 12.576 114.701 12.7467 114.418 12.864C114.141 12.9813 113.834 13.04 113.498 13.04ZM116.542 13V8.8H117.086V9.944L117.03 9.744C117.147 9.424 117.345 9.18133 117.622 9.016C117.899 8.84533 118.243 8.76 118.654 8.76V9.312C118.633 9.312 118.611 9.312 118.59 9.312C118.569 9.30667 118.547 9.304 118.526 9.304C118.083 9.304 117.737 9.44 117.486 9.712C117.235 9.97867 117.11 10.36 117.11 10.856V13H116.542Z" fill="black"/>
<path d="M307.175 14.048C306.743 14.048 306.359 13.936 306.023 13.712C305.687 13.4827 305.423 13.1573 305.231 12.736C305.039 12.3093 304.943 11.7973 304.943 11.2C304.943 10.6027 305.039 10.0933 305.231 9.672C305.423 9.24533 305.687 8.92 306.023 8.696C306.359 8.46667 306.743 8.352 307.175 8.352C307.607 8.352 307.991 8.46667 308.327 8.696C308.663 8.92 308.927 9.24533 309.119 9.672C309.317 10.0933 309.415 10.6027 309.415 11.2C309.415 11.7973 309.317 12.3093 309.119 12.736C308.927 13.1573 308.663 13.4827 308.327 13.712C307.991 13.936 307.607 14.048 307.175 14.048ZM307.175 13.52C307.506 13.52 307.794 13.432 308.039 13.256C308.285 13.0747 308.477 12.8133 308.615 12.472C308.754 12.1253 308.823 11.7013 308.823 11.2C308.823 10.6987 308.754 10.2773 308.615 9.936C308.477 9.58933 308.285 9.328 308.039 9.152C307.794 8.97067 307.506 8.88 307.175 8.88C306.855 8.88 306.57 8.97067 306.319 9.152C306.069 9.328 305.874 9.58933 305.735 9.936C305.597 10.2773 305.527 10.6987 305.527 11.2C305.527 11.7013 305.597 12.1253 305.735 12.472C305.874 12.8133 306.069 13.0747 306.319 13.256C306.57 13.432 306.855 13.52 307.175 13.52ZM311.162 14L313.578 8.656L313.754 8.912H310.29L310.586 8.632V9.96H310.018V8.4H314.13V8.808L311.786 14H311.162Z" fill="black"/>
<path d="M145.272 12.06C145.096 12.06 144.944 11.996 144.816 11.868C144.696 11.74 144.636 11.584 144.636 11.4C144.636 11.208 144.696 11.052 144.816 10.932C144.944 10.812 145.096 10.752 145.272 10.752C145.448 10.752 145.596 10.812 145.716 10.932C145.844 11.052 145.908 11.208 145.908 11.4C145.908 11.584 145.844 11.74 145.716 11.868C145.596 11.996 145.448 12.06 145.272 12.06ZM147.815 12.06C147.639 12.06 147.487 11.996 147.359 11.868C147.239 11.74 147.179 11.584 147.179 11.4C147.179 11.208 147.239 11.052 147.359 10.932C147.487 10.812 147.639 10.752 147.815 10.752C147.991 10.752 148.139 10.812 148.259 10.932C148.387 11.052 148.451 11.208 148.451 11.4C148.451 11.584 148.387 11.74 148.259 11.868C148.139 11.996 147.991 12.06 147.815 12.06ZM150.358 12.06C150.182 12.06 150.03 11.996 149.902 11.868C149.782 11.74 149.722 11.584 149.722 11.4C149.722 11.208 149.782 11.052 149.902 10.932C150.03 10.812 150.182 10.752 150.358 10.752C150.534 10.752 150.682 10.812 150.802 10.932C150.93 11.052 150.994 11.208 150.994 11.4C150.994 11.584 150.93 11.74 150.802 11.868C150.682 11.996 150.534 12.06 150.358 12.06ZM152.901 12.06C152.725 12.06 152.573 11.996 152.445 11.868C152.325 11.74 152.265 11.584 152.265 11.4C152.265 11.208 152.325 11.052 152.445 10.932C152.573 10.812 152.725 10.752 152.901 10.752C153.077 10.752 153.225 10.812 153.345 10.932C153.473 11.052 153.537 11.208 153.537 11.4C153.537 11.584 153.473 11.74 153.345 11.868C153.225 11.996 153.077 12.06 152.901 12.06ZM155.444 12.06C155.268 12.06 155.116 11.996 154.988 11.868C154.868 11.74 154.808 11.584 154.808 11.4C154.808 11.208 154.868 11.052 154.988 10.932C155.116 10.812 155.268 10.752 155.444 10.752C155.62 10.752 155.768 10.812 155.888 10.932C156.016 11.052 156.08 11.208 156.08 11.4C156.08 11.584 156.016 11.74 155.888 11.868C155.768 11.996 155.62 12.06 155.444 12.06ZM157.987 12.06C157.811 12.06 157.659 11.996 157.531 11.868C157.411 11.74 157.351 11.584 157.351 11.4C157.351 11.208 157.411 11.052 157.531 10.932C157.659 10.812 157.811 10.752 157.987 10.752C158.163 10.752 158.311 10.812 158.431 10.932C158.559 11.052 158.623 11.208 158.623 11.4C158.623 11.584 158.559 11.74 158.431 11.868C158.311 11.996 158.163 12.06 157.987 12.06ZM160.53 12.06C160.354 12.06 160.202 11.996 160.074 11.868C159.954 11.74 159.894 11.584 159.894 11.4C159.894 11.208 159.954 11.052 160.074 10.932C160.202 10.812 160.354 10.752 160.53 10.752C160.706 10.752 160.854 10.812 160.974 10.932C161.102 11.052 161.166 11.208 161.166 11.4C161.166 11.584 161.102 11.74 160.974 11.868C160.854 11.996 160.706 12.06 160.53 12.06ZM163.073 12.06C162.897 12.06 162.745 11.996 162.617 11.868C162.497 11.74 162.437 11.584 162.437 11.4C162.437 11.208 162.497 11.052 162.617 10.932C162.745 10.812 162.897 10.752 163.073 10.752C163.249 10.752 163.397 10.812 163.517 10.932C163.645 11.052 163.709 11.208 163.709 11.4C163.709 11.584 163.645 11.74 163.517 11.868C163.397 11.996 163.249 12.06 163.073 12.06ZM165.616 12.06C165.44 12.06 165.288 11.996 165.16 11.868C165.04 11.74 164.98 11.584 164.98 11.4C164.98 11.208 165.04 11.052 165.16 10.932C165.288 10.812 165.44 10.752 165.616 10.752C165.792 10.752 165.94 10.812 166.06 10.932C166.188 11.052 166.252 11.208 166.252 11.4C166.252 11.584 166.188 11.74 166.06 11.868C165.94 11.996 165.792 12.06 165.616 12.06ZM168.159 12.06C167.983 12.06 167.831 11.996 167.703 11.868C167.583 11.74 167.523 11.584 167.523 11.4C167.523 11.208 167.583 11.052 167.703 10.932C167.831 10.812 167.983 10.752 168.159 10.752C168.335 10.752 168.483 10.812 168.603 10.932C168.731 11.052 168.795 11.208 168.795 11.4C168.795 11.584 168.731 11.74 168.603 11.868C168.483 11.996 168.335 12.06 168.159 12.06ZM170.702 12.06C170.526 12.06 170.374 11.996 170.246 11.868C170.126 11.74 170.066 11.584 170.066 11.4C170.066 11.208 170.126 11.052 170.246 10.932C170.374 10.812 170.526 10.752 170.702 10.752C170.878 10.752 171.026 10.812 171.146 10.932C171.274 11.052 171.338 11.208 171.338 11.4C171.338 11.584 171.274 11.74 171.146 11.868C171.026 11.996 170.878 12.06 170.702 12.06ZM173.245 12.06C173.069 12.06 172.917 11.996 172.789 11.868C172.669 11.74 172.609 11.584 172.609 11.4C172.609 11.208 172.669 11.052 172.789 10.932C172.917 10.812 173.069 10.752 173.245 10.752C173.421 10.752 173.569 10.812 173.689 10.932C173.817 11.052 173.881 11.208 173.881 11.4C173.881 11.584 173.817 11.74 173.689 11.868C173.569 11.996 173.421 12.06 173.245 12.06ZM175.788 12.06C175.612 12.06 175.46 11.996 175.332 11.868C175.212 11.74 175.152 11.584 175.152 11.4C175.152 11.208 175.212 11.052 175.332 10.932C175.46 10.812 175.612 10.752 175.788 10.752C175.964 10.752 176.112 10.812 176.232 10.932C176.36 11.052 176.424 11.208 176.424 11.4C176.424 11.584 176.36 11.74 176.232 11.868C176.112 11.996 175.964 12.06 175.788 12.06ZM178.331 12.06C178.155 12.06 178.003 11.996 177.875 11.868C177.755 11.74 177.695 11.584 177.695 11.4C177.695 11.208 177.755 11.052 177.875 10.932C178.003 10.812 178.155 10.752 178.331 10.752C178.507 10.752 178.655 10.812 178.775 10.932C178.903 11.052 178.967 11.208 178.967 11.4C178.967 11.584 178.903 11.74 178.775 11.868C178.655 11.996 178.507 12.06 178.331 12.06ZM180.874 12.06C180.698 12.06 180.546 11.996 180.418 11.868C180.298 11.74 180.238 11.584 180.238 11.4C180.238 11.208 180.298 11.052 180.418 10.932C180.546 10.812 180.698 10.752 180.874 10.752C181.05 10.752 181.198 10.812 181.318 10.932C181.446 11.052 181.51 11.208 181.51 11.4C181.51 11.584 181.446 11.74 181.318 11.868C181.198 11.996 181.05 12.06 180.874 12.06ZM183.417 12.06C183.241 12.06 183.089 11.996 182.961 11.868C182.841 11.74 182.781 11.584 182.781 11.4C182.781 11.208 182.841 11.052 182.961 10.932C183.089 10.812 183.241 10.752 183.417 10.752C183.593 10.752 183.741 10.812 183.861 10.932C183.989 11.052 184.053 11.208 184.053 11.4C184.053 11.584 183.989 11.74 183.861 11.868C183.741 11.996 183.593 12.06 183.417 12.06ZM185.96 12.06C185.784 12.06 185.632 11.996 185.504 11.868C185.384 11.74 185.324 11.584 185.324 11.4C185.324 11.208 185.384 11.052 185.504 10.932C185.632 10.812 185.784 10.752 185.96 10.752C186.136 10.752 186.284 10.812 186.404 10.932C186.532 11.052 186.596 11.208 186.596 11.4C186.596 11.584 186.532 11.74 186.404 11.868C186.284 11.996 186.136 12.06 185.96 12.06ZM188.502 12.06C188.326 12.06 188.174 11.996 188.046 11.868C187.926 11.74 187.866 11.584 187.866 11.4C187.866 11.208 187.926 11.052 188.046 10.932C188.174 10.812 188.326 10.752 188.502 10.752C188.678 10.752 188.826 10.812 188.946 10.932C189.074 11.052 189.138 11.208 189.138 11.4C189.138 11.584 189.074 11.74 188.946 11.868C188.826 11.996 188.678 12.06 188.502 12.06ZM191.045 12.06C190.869 12.06 190.717 11.996 190.589 11.868C190.469 11.74 190.409 11.584 190.409 11.4C190.409 11.208 190.469 11.052 190.589 10.932C190.717 10.812 190.869 10.752 191.045 10.752C191.221 10.752 191.369 10.812 191.489 10.932C191.617 11.052 191.681 11.208 191.681 11.4C191.681 11.584 191.617 11.74 191.489 11.868C191.369 11.996 191.221 12.06 191.045 12.06ZM193.588 12.06C193.412 12.06 193.26 11.996 193.132 11.868C193.012 11.74 192.952 11.584 192.952 11.4C192.952 11.208 193.012 11.052 193.132 10.932C193.26 10.812 193.412 10.752 193.588 10.752C193.764 10.752 193.912 10.812 194.032 10.932C194.16 11.052 194.224 11.208 194.224 11.4C194.224 11.584 194.16 11.74 194.032 11.868C193.912 11.996 193.764 12.06 193.588 12.06ZM196.131 12.06C195.955 12.06 195.803 11.996 195.675 11.868C195.555 11.74 195.495 11.584 195.495 11.4C195.495 11.208 195.555 11.052 195.675 10.932C195.803 10.812 195.955 10.752 196.131 10.752C196.307 10.752 196.455 10.812 196.575 10.932C196.703 11.052 196.767 11.208 196.767 11.4C196.767 11.584 196.703 11.74 196.575 11.868C196.455 11.996 196.307 12.06 196.131 12.06ZM198.674 12.06C198.498 12.06 198.346 11.996 198.218 11.868C198.098 11.74 198.038 11.584 198.038 11.4C198.038 11.208 198.098 11.052 198.218 10.932C198.346 10.812 198.498 10.752 198.674 10.752C198.85 10.752 198.998 10.812 199.118 10.932C199.246 11.052 199.31 11.208 199.31 11.4C199.31 11.584 199.246 11.74 199.118 11.868C198.998 11.996 198.85 12.06 198.674 12.06ZM201.217 12.06C201.041 12.06 200.889 11.996 200.761 11.868C200.641 11.74 200.581 11.584 200.581 11.4C200.581 11.208 200.641 11.052 200.761 10.932C200.889 10.812 201.041 10.752 201.217 10.752C201.393 10.752 201.541 10.812 201.661 10.932C201.789 11.052 201.853 11.208 201.853 11.4C201.853 11.584 201.789 11.74 201.661 11.868C201.541 11.996 201.393 12.06 201.217 12.06ZM203.76 12.06C203.584 12.06 203.432 11.996 203.304 11.868C203.184 11.74 203.124 11.584 203.124 11.4C203.124 11.208 203.184 11.052 203.304 10.932C203.432 10.812 203.584 10.752 203.76 10.752C203.936 10.752 204.084 10.812 204.204 10.932C204.332 11.052 204.396 11.208 204.396 11.4C204.396 11.584 204.332 11.74 204.204 11.868C204.084 11.996 203.936 12.06 203.76 12.06ZM206.303 12.06C206.127 12.06 205.975 11.996 205.847 11.868C205.727 11.74 205.667 11.584 205.667 11.4C205.667 11.208 205.727 11.052 205.847 10.932C205.975 10.812 206.127 10.752 206.303 10.752C206.479 10.752 206.627 10.812 206.747 10.932C206.875 11.052 206.939 11.208 206.939 11.4C206.939 11.584 206.875 11.74 206.747 11.868C206.627 11.996 206.479 12.06 206.303 12.06ZM208.846 12.06C208.67 12.06 208.518 11.996 208.39 11.868C208.27 11.74 208.21 11.584 208.21 11.4C208.21 11.208 208.27 11.052 208.39 10.932C208.518 10.812 208.67 10.752 208.846 10.752C209.022 10.752 209.17 10.812 209.29 10.932C209.418 11.052 209.482 11.208 209.482 11.4C209.482 11.584 209.418 11.74 209.29 11.868C209.17 11.996 209.022 12.06 208.846 12.06ZM211.389 12.06C211.213 12.06 211.061 11.996 210.933 11.868C210.813 11.74 210.753 11.584 210.753 11.4C210.753 11.208 210.813 11.052 210.933 10.932C211.061 10.812 211.213 10.752 211.389 10.752C211.565 10.752 211.713 10.812 211.833 10.932C211.961 11.052 212.025 11.208 212.025 11.4C212.025 11.584 211.961 11.74 211.833 11.868C211.713 11.996 211.565 12.06 211.389 12.06ZM213.932 12.06C213.756 12.06 213.604 11.996 213.476 11.868C213.356 11.74 213.296 11.584 213.296 11.4C213.296 11.208 213.356 11.052 213.476 10.932C213.604 10.812 213.756 10.752 213.932 10.752C214.108 10.752 214.256 10.812 214.376 10.932C214.504 11.052 214.568 11.208 214.568 11.4C214.568 11.584 214.504 11.74 214.376 11.868C214.256 11.996 214.108 12.06 213.932 12.06ZM216.475 12.06C216.299 12.06 216.147 11.996 216.019 11.868C215.899 11.74 215.839 11.584 215.839 11.4C215.839 11.208 215.899 11.052 216.019 10.932C216.147 10.812 216.299 10.752 216.475 10.752C216.651 10.752 216.799 10.812 216.919 10.932C217.047 11.052 217.111 11.208 217.111 11.4C217.111 11.584 217.047 11.74 216.919 11.868C216.799 11.996 216.651 12.06 216.475 12.06ZM219.018 12.06C218.842 12.06 218.69 11.996 218.562 11.868C218.442 11.74 218.382 11.584 218.382 11.4C218.382 11.208 218.442 11.052 218.562 10.932C218.69 10.812 218.842 10.752 219.018 10.752C219.194 10.752 219.342 10.812 219.462 10.932C219.59 11.052 219.654 11.208 219.654 11.4C219.654 11.584 219.59 11.74 219.462 11.868C219.342 11.996 219.194 12.06 219.018 12.06ZM221.561 12.06C221.385 12.06 221.233 11.996 221.105 11.868C220.985 11.74 220.925 11.584 220.925 11.4C220.925 11.208 220.985 11.052 221.105 10.932C221.233 10.812 221.385 10.752 221.561 10.752C221.737 10.752 221.885 10.812 222.005 10.932C222.133 11.052 222.197 11.208 222.197 11.4C222.197 11.584 222.133 11.74 222.005 11.868C221.885 11.996 221.737 12.06 221.561 12.06ZM224.104 12.06C223.928 12.06 223.776 11.996 223.648 11.868C223.528 11.74 223.468 11.584 223.468 11.4C223.468 11.208 223.528 11.052 223.648 10.932C223.776 10.812 223.928 10.752 224.104 10.752C224.28 10.752 224.428 10.812 224.548 10.932C224.676 11.052 224.74 11.208 224.74 11.4C224.74 11.584 224.676 11.74 224.548 11.868C224.428 11.996 224.28 12.06 224.104 12.06ZM226.647 12.06C226.471 12.06 226.319 11.996 226.191 11.868C226.071 11.74 226.011 11.584 226.011 11.4C226.011 11.208 226.071 11.052 226.191 10.932C226.319 10.812 226.471 10.752 226.647 10.752C226.823 10.752 226.971 10.812 227.091 10.932C227.219 11.052 227.283 11.208 227.283 11.4C227.283 11.584 227.219 11.74 227.091 11.868C226.971 11.996 226.823 12.06 226.647 12.06ZM229.19 12.06C229.014 12.06 228.862 11.996 228.734 11.868C228.614 11.74 228.554 11.584 228.554 11.4C228.554 11.208 228.614 11.052 228.734 10.932C228.862 10.812 229.014 10.752 229.19 10.752C229.366 10.752 229.514 10.812 229.634 10.932C229.762 11.052 229.826 11.208 229.826 11.4C229.826 11.584 229.762 11.74 229.634 11.868C229.514 11.996 229.366 12.06 229.19 12.06ZM231.733 12.06C231.557 12.06 231.405 11.996 231.277 11.868C231.157 11.74 231.097 11.584 231.097 11.4C231.097 11.208 231.157 11.052 231.277 10.932C231.405 10.812 231.557 10.752 231.733 10.752C231.909 10.752 232.057 10.812 232.177 10.932C232.305 11.052 232.369 11.208 232.369 11.4C232.369 11.584 232.305 11.74 232.177 11.868C232.057 11.996 231.909 12.06 231.733 12.06ZM234.276 12.06C234.1 12.06 233.948 11.996 233.82 11.868C233.7 11.74 233.64 11.584 233.64 11.4C233.64 11.208 233.7 11.052 233.82 10.932C233.948 10.812 234.1 10.752 234.276 10.752C234.452 10.752 234.6 10.812 234.72 10.932C234.848 11.052 234.912 11.208 234.912 11.4C234.912 11.584 234.848 11.74 234.72 11.868C234.6 11.996 234.452 12.06 234.276 12.06ZM236.819 12.06C236.643 12.06 236.491 11.996 236.363 11.868C236.243 11.74 236.183 11.584 236.183 11.4C236.183 11.208 236.243 11.052 236.363 10.932C236.491 10.812 236.643 10.752 236.819 10.752C236.995 10.752 237.143 10.812 237.263 10.932C237.391 11.052 237.455 11.208 237.455 11.4C237.455 11.584 237.391 11.74 237.263 11.868C237.143 11.996 236.995 12.06 236.819 12.06ZM239.362 12.06C239.186 12.06 239.034 11.996 238.906 11.868C238.786 11.74 238.726 11.584 238.726 11.4C238.726 11.208 238.786 11.052 238.906 10.932C239.034 10.812 239.186 10.752 239.362 10.752C239.538 10.752 239.686 10.812 239.806 10.932C239.934 11.052 239.998 11.208 239.998 11.4C239.998 11.584 239.934 11.74 239.806 11.868C239.686 11.996 239.538 12.06 239.362 12.06ZM241.905 12.06C241.729 12.06 241.577 11.996 241.449 11.868C241.329 11.74 241.269 11.584 241.269 11.4C241.269 11.208 241.329 11.052 241.449 10.932C241.577 10.812 241.729 10.752 241.905 10.752C242.081 10.752 242.229 10.812 242.349 10.932C242.477 11.052 242.541 11.208 242.541 11.4C242.541 11.584 242.477 11.74 242.349 11.868C242.229 11.996 242.081 12.06 241.905 12.06ZM244.448 12.06C244.272 12.06 244.12 11.996 243.992 11.868C243.872 11.74 243.812 11.584 243.812 11.4C243.812 11.208 243.872 11.052 243.992 10.932C244.12 10.812 244.272 10.752 244.448 10.752C244.624 10.752 244.772 10.812 244.892 10.932C245.02 11.052 245.084 11.208 245.084 11.4C245.084 11.584 245.02 11.74 244.892 11.868C244.772 11.996 244.624 12.06 244.448 12.06ZM246.991 12.06C246.815 12.06 246.663 11.996 246.535 11.868C246.415 11.74 246.355 11.584 246.355 11.4C246.355 11.208 246.415 11.052 246.535 10.932C246.663 10.812 246.815 10.752 246.991 10.752C247.167 10.752 247.315 10.812 247.435 10.932C247.563 11.052 247.627 11.208 247.627 11.4C247.627 11.584 247.563 11.74 247.435 11.868C247.315 11.996 247.167 12.06 246.991 12.06ZM249.534 12.06C249.358 12.06 249.206 11.996 249.078 11.868C248.958 11.74 248.898 11.584 248.898 11.4C248.898 11.208 248.958 11.052 249.078 10.932C249.206 10.812 249.358 10.752 249.534 10.752C249.71 10.752 249.858 10.812 249.978 10.932C250.106 11.052 250.17 11.208 250.17 11.4C250.17 11.584 250.106 11.74 249.978 11.868C249.858 11.996 249.71 12.06 249.534 12.06ZM252.077 12.06C251.901 12.06 251.749 11.996 251.621 11.868C251.501 11.74 251.441 11.584 251.441 11.4C251.441 11.208 251.501 11.052 251.621 10.932C251.749 10.812 251.901 10.752 252.077 10.752C252.253 10.752 252.401 10.812 252.521 10.932C252.649 11.052 252.713 11.208 252.713 11.4C252.713 11.584 252.649 11.74 252.521 11.868C252.401 11.996 252.253 12.06 252.077 12.06ZM254.62 12.06C254.444 12.06 254.292 11.996 254.164 11.868C254.044 11.74 253.984 11.584 253.984 11.4C253.984 11.208 254.044 11.052 254.164 10.932C254.292 10.812 254.444 10.752 254.62 10.752C254.796 10.752 254.944 10.812 255.064 10.932C255.192 11.052 255.256 11.208 255.256 11.4C255.256 11.584 255.192 11.74 255.064 11.868C254.944 11.996 254.796 12.06 254.62 12.06ZM257.163 12.06C256.987 12.06 256.835 11.996 256.707 11.868C256.587 11.74 256.527 11.584 256.527 11.4C256.527 11.208 256.587 11.052 256.707 10.932C256.835 10.812 256.987 10.752 257.163 10.752C257.339 10.752 257.487 10.812 257.607 10.932C257.735 11.052 257.799 11.208 257.799 11.4C257.799 11.584 257.735 11.74 257.607 11.868C257.487 11.996 257.339 12.06 257.163 12.06ZM259.706 12.06C259.53 12.06 259.378 11.996 259.25 11.868C259.13 11.74 259.07 11.584 259.07 11.4C259.07 11.208 259.13 11.052 259.25 10.932C259.378 10.812 259.53 10.752 259.706 10.752C259.882 10.752 260.03 10.812 260.15 10.932C260.278 11.052 260.342 11.208 260.342 11.4C260.342 11.584 260.278 11.74 260.15 11.868C260.03 11.996 259.882 12.06 259.706 12.06ZM262.249 12.06C262.073 12.06 261.921 11.996 261.793 11.868C261.673 11.74 261.613 11.584 261.613 11.4C261.613 11.208 261.673 11.052 261.793 10.932C261.921 10.812 262.073 10.752 262.249 10.752C262.425 10.752 262.573 10.812 262.693 10.932C262.821 11.052 262.885 11.208 262.885 11.4C262.885 11.584 262.821 11.74 262.693 11.868C262.573 11.996 262.425 12.06 262.249 12.06ZM264.792 12.06C264.616 12.06 264.464 11.996 264.336 11.868C264.216 11.74 264.156 11.584 264.156 11.4C264.156 11.208 264.216 11.052 264.336 10.932C264.464 10.812 264.616 10.752 264.792 10.752C264.968 10.752 265.116 10.812 265.236 10.932C265.364 11.052 265.428 11.208 265.428 11.4C265.428 11.584 265.364 11.74 265.236 11.868C265.116 11.996 264.968 12.06 264.792 12.06ZM267.335 12.06C267.159 12.06 267.007 11.996 266.879 11.868C266.759 11.74 266.699 11.584 266.699 11.4C266.699 11.208 266.759 11.052 266.879 10.932C267.007 10.812 267.159 10.752 267.335 10.752C267.511 10.752 267.659 10.812 267.779 10.932C267.907 11.052 267.971 11.208 267.971 11.4C267.971 11.584 267.907 11.74 267.779 11.868C267.659 11.996 267.511 12.06 267.335 12.06ZM269.877 12.06C269.701 12.06 269.549 11.996 269.421 11.868C269.301 11.74 269.241 11.584 269.241 11.4C269.241 11.208 269.301 11.052 269.421 10.932C269.549 10.812 269.701 10.752 269.877 10.752C270.053 10.752 270.201 10.812 270.321 10.932C270.449 11.052 270.513 11.208 270.513 11.4C270.513 11.584 270.449 11.74 270.321 11.868C270.201 11.996 270.053 12.06 269.877 12.06ZM272.42 12.06C272.244 12.06 272.092 11.996 271.964 11.868C271.844 11.74 271.784 11.584 271.784 11.4C271.784 11.208 271.844 11.052 271.964 10.932C272.092 10.812 272.244 10.752 272.42 10.752C272.596 10.752 272.744 10.812 272.864 10.932C272.992 11.052 273.056 11.208 273.056 11.4C273.056 11.584 272.992 11.74 272.864 11.868C272.744 11.996 272.596 12.06 272.42 12.06ZM274.963 12.06C274.787 12.06 274.635 11.996 274.507 11.868C274.387 11.74 274.327 11.584 274.327 11.4C274.327 11.208 274.387 11.052 274.507 10.932C274.635 10.812 274.787 10.752 274.963 10.752C275.139 10.752 275.287 10.812 275.407 10.932C275.535 11.052 275.599 11.208 275.599 11.4C275.599 11.584 275.535 11.74 275.407 11.868C275.287 11.996 275.139 12.06 274.963 12.06ZM277.506 12.06C277.33 12.06 277.178 11.996 277.05 11.868C276.93 11.74 276.87 11.584 276.87 11.4C276.87 11.208 276.93 11.052 277.05 10.932C277.178 10.812 277.33 10.752 277.506 10.752C277.682 10.752 277.83 10.812 277.95 10.932C278.078 11.052 278.142 11.208 278.142 11.4C278.142 11.584 278.078 11.74 277.95 11.868C277.83 11.996 277.682 12.06 277.506 12.06ZM280.049 12.06C279.873 12.06 279.721 11.996 279.593 11.868C279.473 11.74 279.413 11.584 279.413 11.4C279.413 11.208 279.473 11.052 279.593 10.932C279.721 10.812 279.873 10.752 280.049 10.752C280.225 10.752 280.373 10.812 280.493 10.932C280.621 11.052 280.685 11.208 280.685 11.4C280.685 11.584 280.621 11.74 280.493 11.868C280.373 11.996 280.225 12.06 280.049 12.06ZM282.592 12.06C282.416 12.06 282.264 11.996 282.136 11.868C282.016 11.74 281.956 11.584 281.956 11.4C281.956 11.208 282.016 11.052 282.136 10.932C282.264 10.812 282.416 10.752 282.592 10.752C282.768 10.752 282.916 10.812 283.036 10.932C283.164 11.052 283.228 11.208 283.228 11.4C283.228 11.584 283.164 11.74 283.036 11.868C282.916 11.996 282.768 12.06 282.592 12.06ZM285.135 12.06C284.959 12.06 284.807 11.996 284.679 11.868C284.559 11.74 284.499 11.584 284.499 11.4C284.499 11.208 284.559 11.052 284.679 10.932C284.807 10.812 284.959 10.752 285.135 10.752C285.311 10.752 285.459 10.812 285.579 10.932C285.707 11.052 285.771 11.208 285.771 11.4C285.771 11.584 285.707 11.74 285.579 11.868C285.459 11.996 285.311 12.06 285.135 12.06ZM287.678 12.06C287.502 12.06 287.35 11.996 287.222 11.868C287.102 11.74 287.042 11.584 287.042 11.4C287.042 11.208 287.102 11.052 287.222 10.932C287.35 10.812 287.502 10.752 287.678 10.752C287.854 10.752 288.002 10.812 288.122 10.932C288.25 11.052 288.314 11.208 288.314 11.4C288.314 11.584 288.25 11.74 288.122 11.868C288.002 11.996 287.854 12.06 287.678 12.06ZM290.221 12.06C290.045 12.06 289.893 11.996 289.765 11.868C289.645 11.74 289.585 11.584 289.585 11.4C289.585 11.208 289.645 11.052 289.765 10.932C289.893 10.812 290.045 10.752 290.221 10.752C290.397 10.752 290.545 10.812 290.665 10.932C290.793 11.052 290.857 11.208 290.857 11.4C290.857 11.584 290.793 11.74 290.665 11.868C290.545 11.996 290.397 12.06 290.221 12.06Z" fill="black"/>
</svg>
