<svg width="322" height="19" viewBox="0 0 322 19" fill="none" xmlns="http://www.w3.org/2000/svg">
<path d="M2.184 14.048C1.784 14.048 1.40267 13.984 1.04 13.856C0.677333 13.7227 0.389333 13.5467 0.176 13.328L0.456 12.872C0.632 13.0587 0.872 13.2133 1.176 13.336C1.48533 13.4587 1.81867 13.52 2.176 13.52C2.65067 13.52 3.01067 13.416 3.256 13.208C3.50667 12.9947 3.632 12.7173 3.632 12.376C3.632 12.136 3.57333 11.9307 3.456 11.76C3.344 11.584 3.152 11.448 2.88 11.352C2.608 11.256 2.23467 11.208 1.76 11.208H0.568L0.856 8.4H3.92V8.912H1.088L1.384 8.632L1.136 10.984L0.84 10.696H1.888C2.45333 10.696 2.90667 10.7653 3.248 10.904C3.58933 11.0427 3.83467 11.2373 3.984 11.488C4.13867 11.7333 4.216 12.0213 4.216 12.352C4.216 12.6667 4.14133 12.9547 3.992 13.216C3.84267 13.472 3.61867 13.6747 3.32 13.824C3.02133 13.9733 2.64267 14.048 2.184 14.048ZM7.17925 14.048C6.74725 14.048 6.36325 13.936 6.02725 13.712C5.69125 13.4827 5.42725 13.1573 5.23525 12.736C5.04325 12.3093 4.94725 11.7973 4.94725 11.2C4.94725 10.6027 5.04325 10.0933 5.23525 9.672C5.42725 9.24533 5.69125 8.92 6.02725 8.696C6.36325 8.46667 6.74725 8.352 7.17925 8.352C7.61125 8.352 7.99525 8.46667 8.33125 8.696C8.66725 8.92 8.93125 9.24533 9.12325 9.672C9.32058 10.0933 9.41925 10.6027 9.41925 11.2C9.41925 11.7973 9.32058 12.3093 9.12325 12.736C8.93125 13.1573 8.66725 13.4827 8.33125 13.712C7.99525 13.936 7.61125 14.048 7.17925 14.048ZM7.17925 13.52C7.50992 13.52 7.79792 13.432 8.04325 13.256C8.28858 13.0747 8.48058 12.8133 8.61925 12.472C8.75792 12.1253 8.82725 11.7013 8.82725 11.2C8.82725 10.6987 8.75792 10.2773 8.61925 9.936C8.48058 9.58933 8.28858 9.328 8.04325 9.152C7.79792 8.97067 7.50992 8.88 7.17925 8.88C6.85925 8.88 6.57392 8.97067 6.32325 9.152C6.07258 9.328 5.87792 9.58933 5.73925 9.936C5.60058 10.2773 5.53125 10.6987 5.53125 11.2C5.53125 11.7013 5.60058 12.1253 5.73925 12.472C5.87792 12.8133 6.07258 13.0747 6.32325 13.256C6.57392 13.432 6.85925 13.52 7.17925 13.52ZM12.4761 14.048C12.0441 14.048 11.6601 13.936 11.3241 13.712C10.9881 13.4827 10.7241 13.1573 10.5321 12.736C10.3401 12.3093 10.2441 11.7973 10.2441 11.2C10.2441 10.6027 10.3401 10.0933 10.5321 9.672C10.7241 9.24533 10.9881 8.92 11.3241 8.696C11.6601 8.46667 12.0441 8.352 12.4761 8.352C12.9081 8.352 13.2921 8.46667 13.6281 8.696C13.9641 8.92 14.2281 9.24533 14.4201 9.672C14.6175 10.0933 14.7161 10.6027 14.7161 11.2C14.7161 11.7973 14.6175 12.3093 14.4201 12.736C14.2281 13.1573 13.9641 13.4827 13.6281 13.712C13.2921 13.936 12.9081 14.048 12.4761 14.048ZM12.4761 13.52C12.8068 13.52 13.0948 13.432 13.3401 13.256C13.5855 13.0747 13.7775 12.8133 13.9161 12.472C14.0548 12.1253 14.1241 11.7013 14.1241 11.2C14.1241 10.6987 14.0548 10.2773 13.9161 9.936C13.7775 9.58933 13.5855 9.328 13.3401 9.152C13.0948 8.97067 12.8068 8.88 12.4761 8.88C12.1561 8.88 11.8708 8.97067 11.6201 9.152C11.3695 9.328 11.1748 9.58933 11.0361 9.936C10.8975 10.2773 10.8281 10.6987 10.8281 11.2C10.8281 11.7013 10.8975 12.1253 11.0361 12.472C11.1748 12.8133 11.3695 13.0747 11.6201 13.256C11.8708 13.432 12.1561 13.52 12.4761 13.52ZM21.165 9.76C21.5063 9.76 21.8023 9.82667 22.053 9.96C22.309 10.088 22.5063 10.2853 22.645 10.552C22.789 10.8187 22.861 11.1547 22.861 11.56V14H22.293V11.616C22.293 11.1733 22.1863 10.84 21.973 10.616C21.765 10.3867 21.469 10.272 21.085 10.272C20.797 10.272 20.5463 10.3333 20.333 10.456C20.125 10.5733 19.9623 10.7467 19.845 10.976C19.733 11.2 19.677 11.472 19.677 11.792V14H19.109V11.616C19.109 11.1733 19.0023 10.84 18.789 10.616C18.5757 10.3867 18.277 10.272 17.893 10.272C17.6103 10.272 17.3623 10.3333 17.149 10.456C16.9357 10.5733 16.7703 10.7467 16.653 10.976C16.541 11.2 16.485 11.472 16.485 11.792V14H15.917V9.8H16.461V10.936L16.373 10.736C16.501 10.432 16.7063 10.1947 16.989 10.024C17.277 9.848 17.6157 9.76 18.005 9.76C18.4157 9.76 18.765 9.864 19.053 10.072C19.341 10.2747 19.5277 10.5813 19.613 10.992L19.389 10.904C19.5117 10.5627 19.7277 10.288 20.037 10.08C20.3517 9.86667 20.7277 9.76 21.165 9.76ZM24.4014 14V8.064H24.9694V14H24.4014ZM28.7636 14V8.4H30.8596C31.3342 8.4 31.7422 8.47733 32.0836 8.632C32.4249 8.78133 32.6862 9 32.8676 9.288C33.0542 9.57067 33.1476 9.91467 33.1476 10.32C33.1476 10.7147 33.0542 11.056 32.8676 11.344C32.6862 11.6267 32.4249 11.8453 32.0836 12C31.7422 12.1493 31.3342 12.224 30.8596 12.224H29.0916L29.3556 11.952V14H28.7636ZM32.5876 14L31.1476 11.968H31.7876L33.2356 14H32.5876ZM29.3556 12L29.0916 11.72H30.8436C31.4036 11.72 31.8276 11.5973 32.1156 11.352C32.4089 11.1067 32.5556 10.7627 32.5556 10.32C32.5556 9.872 32.4089 9.52533 32.1156 9.28C31.8276 9.03467 31.4036 8.912 30.8436 8.912H29.0916L29.3556 8.632V12ZM36.1368 14.04C35.7315 14.04 35.3661 13.9493 35.0408 13.768C34.7208 13.5813 34.4675 13.328 34.2808 13.008C34.0941 12.6827 34.0008 12.312 34.0008 11.896C34.0008 11.4747 34.0941 11.104 34.2808 10.784C34.4675 10.464 34.7208 10.2133 35.0408 10.032C35.3608 9.85067 35.7261 9.76 36.1368 9.76C36.5528 9.76 36.9208 9.85067 37.2408 10.032C37.5661 10.2133 37.8195 10.464 38.0008 10.784C38.1875 11.104 38.2808 11.4747 38.2808 11.896C38.2808 12.312 38.1875 12.6827 38.0008 13.008C37.8195 13.328 37.5661 13.5813 37.2408 13.768C36.9155 13.9493 36.5475 14.04 36.1368 14.04ZM36.1368 13.536C36.4408 13.536 36.7101 13.4693 36.9448 13.336C37.1795 13.1973 37.3635 13.0053 37.4968 12.76C37.6355 12.5093 37.7048 12.2213 37.7048 11.896C37.7048 11.5653 37.6355 11.2773 37.4968 11.032C37.3635 10.7867 37.1795 10.5973 36.9448 10.464C36.7101 10.3253 36.4435 10.256 36.1448 10.256C35.8461 10.256 35.5795 10.3253 35.3448 10.464C35.1101 10.5973 34.9235 10.7867 34.7848 11.032C34.6461 11.2773 34.5768 11.5653 34.5768 11.896C34.5768 12.2213 34.6461 12.5093 34.7848 12.76C34.9235 13.0053 35.1101 13.1973 35.3448 13.336C35.5795 13.4693 35.8435 13.536 36.1368 13.536ZM41.1764 14.04C40.8191 14.04 40.5071 13.9733 40.2404 13.84C39.9738 13.7067 39.7658 13.5067 39.6164 13.24C39.4724 12.9733 39.4004 12.64 39.4004 12.24V9.8H39.9684V12.176C39.9684 12.624 40.0778 12.9627 40.2964 13.192C40.5204 13.416 40.8324 13.528 41.2324 13.528C41.5258 13.528 41.7791 13.4693 41.9924 13.352C42.2111 13.2293 42.3764 13.0533 42.4884 12.824C42.6058 12.5947 42.6644 12.32 42.6644 12V9.8H43.2324V14H42.6884V12.848L42.7764 13.056C42.6431 13.3653 42.4351 13.608 42.1524 13.784C41.8751 13.9547 41.5498 14.04 41.1764 14.04ZM46.9594 9.76C47.3008 9.76 47.5994 9.82667 47.8554 9.96C48.1168 10.088 48.3194 10.2853 48.4634 10.552C48.6128 10.8187 48.6874 11.1547 48.6874 11.56V14H48.1194V11.616C48.1194 11.1733 48.0074 10.84 47.7834 10.616C47.5648 10.3867 47.2554 10.272 46.8554 10.272C46.5568 10.272 46.2954 10.3333 46.0714 10.456C45.8528 10.5733 45.6821 10.7467 45.5594 10.976C45.4421 11.2 45.3834 11.472 45.3834 11.792V14H44.8154V9.8H45.3594V10.952L45.2714 10.736C45.4048 10.432 45.6181 10.1947 45.9114 10.024C46.2048 9.848 46.5541 9.76 46.9594 9.76ZM51.8937 14.04C51.4937 14.04 51.1337 13.9493 50.8137 13.768C50.499 13.5867 50.251 13.336 50.0697 13.016C49.8884 12.6907 49.7977 12.3173 49.7977 11.896C49.7977 11.4693 49.8884 11.096 50.0697 10.776C50.251 10.456 50.499 10.208 50.8137 10.032C51.1337 9.85067 51.4937 9.76 51.8937 9.76C52.2617 9.76 52.5897 9.84267 52.8777 10.008C53.171 10.1733 53.403 10.416 53.5737 10.736C53.7497 11.0507 53.8377 11.4373 53.8377 11.896C53.8377 12.3493 53.7524 12.736 53.5817 13.056C53.411 13.376 53.179 13.6213 52.8857 13.792C52.5977 13.9573 52.267 14.04 51.8937 14.04ZM51.9337 13.536C52.2324 13.536 52.499 13.4693 52.7337 13.336C52.9737 13.1973 53.1604 13.0053 53.2937 12.76C53.4324 12.5093 53.5017 12.2213 53.5017 11.896C53.5017 11.5653 53.4324 11.2773 53.2937 11.032C53.1604 10.7867 52.9737 10.5973 52.7337 10.464C52.499 10.3253 52.2324 10.256 51.9337 10.256C51.6404 10.256 51.3764 10.3253 51.1417 10.464C50.907 10.5973 50.7204 10.7867 50.5817 11.032C50.443 11.2773 50.3737 11.5653 50.3737 11.896C50.3737 12.2213 50.443 12.5093 50.5817 12.76C50.7204 13.0053 50.907 13.1973 51.1417 13.336C51.3764 13.4693 51.6404 13.536 51.9337 13.536ZM53.5177 14V12.736L53.5737 11.888L53.4937 11.04V8.064H54.0617V14H53.5177ZM60.2893 14.048C59.868 14.048 59.4786 13.9787 59.1213 13.84C58.764 13.696 58.4546 13.496 58.1933 13.24C57.932 12.984 57.7266 12.6827 57.5773 12.336C57.4333 11.9893 57.3613 11.6107 57.3613 11.2C57.3613 10.7893 57.4333 10.4107 57.5773 10.064C57.7266 9.71733 57.932 9.416 58.1933 9.16C58.46 8.904 58.772 8.70667 59.1293 8.568C59.4866 8.424 59.876 8.352 60.2973 8.352C60.7026 8.352 61.084 8.42133 61.4413 8.56C61.7986 8.69333 62.1 8.896 62.3453 9.168L61.9693 9.544C61.74 9.30933 61.4866 9.14133 61.2093 9.04C60.932 8.93333 60.6333 8.88 60.3133 8.88C59.9773 8.88 59.6653 8.93867 59.3773 9.056C59.0893 9.168 58.8386 9.33067 58.6253 9.544C58.412 9.752 58.244 9.99733 58.1213 10.28C58.004 10.5573 57.9453 10.864 57.9453 11.2C57.9453 11.536 58.004 11.8453 58.1213 12.128C58.244 12.4053 58.412 12.6507 58.6253 12.864C58.8386 13.072 59.0893 13.2347 59.3773 13.352C59.6653 13.464 59.9773 13.52 60.3133 13.52C60.6333 13.52 60.932 13.4667 61.2093 13.36C61.4866 13.2533 61.74 13.0827 61.9693 12.848L62.3453 13.224C62.1 13.496 61.7986 13.7013 61.4413 13.84C61.084 13.9787 60.7 14.048 60.2893 14.048ZM65.0118 14.04C64.6065 14.04 64.2411 13.9493 63.9158 13.768C63.5958 13.5813 63.3425 13.328 63.1558 13.008C62.9691 12.6827 62.8758 12.312 62.8758 11.896C62.8758 11.4747 62.9691 11.104 63.1558 10.784C63.3425 10.464 63.5958 10.2133 63.9158 10.032C64.2358 9.85067 64.6011 9.76 65.0118 9.76C65.4278 9.76 65.7958 9.85067 66.1158 10.032C66.4411 10.2133 66.6945 10.464 66.8758 10.784C67.0625 11.104 67.1558 11.4747 67.1558 11.896C67.1558 12.312 67.0625 12.6827 66.8758 13.008C66.6945 13.328 66.4411 13.5813 66.1158 13.768C65.7905 13.9493 65.4225 14.04 65.0118 14.04ZM65.0118 13.536C65.3158 13.536 65.5851 13.4693 65.8198 13.336C66.0545 13.1973 66.2385 13.0053 66.3718 12.76C66.5105 12.5093 66.5798 12.2213 66.5798 11.896C66.5798 11.5653 66.5105 11.2773 66.3718 11.032C66.2385 10.7867 66.0545 10.5973 65.8198 10.464C65.5851 10.3253 65.3185 10.256 65.0198 10.256C64.7211 10.256 64.4545 10.3253 64.2198 10.464C63.9851 10.5973 63.7985 10.7867 63.6598 11.032C63.5211 11.2773 63.4518 11.5653 63.4518 11.896C63.4518 12.2213 63.5211 12.5093 63.6598 12.76C63.7985 13.0053 63.9851 13.1973 64.2198 13.336C64.4545 13.4693 64.7185 13.536 65.0118 13.536ZM70.4594 9.76C70.8008 9.76 71.0994 9.82667 71.3554 9.96C71.6168 10.088 71.8194 10.2853 71.9634 10.552C72.1128 10.8187 72.1874 11.1547 72.1874 11.56V14H71.6194V11.616C71.6194 11.1733 71.5074 10.84 71.2834 10.616C71.0648 10.3867 70.7554 10.272 70.3554 10.272C70.0568 10.272 69.7954 10.3333 69.5714 10.456C69.3528 10.5733 69.1821 10.7467 69.0594 10.976C68.9421 11.2 68.8834 11.472 68.8834 11.792V14H68.3154V9.8H68.8594V10.952L68.7714 10.736C68.9048 10.432 69.1181 10.1947 69.4114 10.024C69.7048 9.848 70.0541 9.76 70.4594 9.76ZM75.0497 14.04C74.655 14.04 74.351 13.9333 74.1377 13.72C73.9244 13.5067 73.8177 13.2053 73.8177 12.816V8.872H74.3857V12.784C74.3857 13.0293 74.447 13.2187 74.5697 13.352C74.6977 13.4853 74.879 13.552 75.1137 13.552C75.3644 13.552 75.5724 13.48 75.7377 13.336L75.9377 13.744C75.8257 13.8453 75.6897 13.92 75.5297 13.968C75.375 14.016 75.215 14.04 75.0497 14.04ZM73.0657 10.272V9.8H75.6657V10.272H73.0657ZM79.6037 14V13.072L79.5797 12.92V11.368C79.5797 11.0107 79.4784 10.736 79.2757 10.544C79.0784 10.352 78.7824 10.256 78.3877 10.256C78.1157 10.256 77.857 10.3013 77.6117 10.392C77.3664 10.4827 77.1584 10.6027 76.9877 10.752L76.7317 10.328C76.945 10.1467 77.201 10.008 77.4997 9.912C77.7984 9.81067 78.113 9.76 78.4437 9.76C78.9877 9.76 79.4064 9.896 79.6997 10.168C79.9984 10.4347 80.1477 10.8427 80.1477 11.392V14H79.6037ZM78.1557 14.04C77.841 14.04 77.5664 13.9893 77.3317 13.888C77.1024 13.7813 76.9264 13.6373 76.8037 13.456C76.681 13.2693 76.6197 13.056 76.6197 12.816C76.6197 12.5973 76.6704 12.4 76.7717 12.224C76.8784 12.0427 77.049 11.8987 77.2837 11.792C77.5237 11.68 77.8437 11.624 78.2437 11.624H79.6917V12.048H78.2597C77.8544 12.048 77.5717 12.12 77.4117 12.264C77.257 12.408 77.1797 12.5867 77.1797 12.8C77.1797 13.04 77.273 13.232 77.4597 13.376C77.6464 13.52 77.9077 13.592 78.2437 13.592C78.5637 13.592 78.8384 13.52 79.0677 13.376C79.3024 13.2267 79.473 13.0133 79.5797 12.736L79.7077 13.128C79.601 13.4053 79.4144 13.6267 79.1477 13.792C78.8864 13.9573 78.5557 14.04 78.1557 14.04ZM81.6904 14V9.8H82.2584V14H81.6904ZM81.9784 8.872C81.8611 8.872 81.7624 8.832 81.6824 8.752C81.6024 8.672 81.5624 8.576 81.5624 8.464C81.5624 8.352 81.6024 8.25867 81.6824 8.184C81.7624 8.104 81.8611 8.064 81.9784 8.064C82.0958 8.064 82.1944 8.10133 82.2744 8.176C82.3544 8.25067 82.3944 8.344 82.3944 8.456C82.3944 8.57333 82.3544 8.672 82.2744 8.752C82.1998 8.832 82.1011 8.872 81.9784 8.872ZM85.9829 9.76C86.3242 9.76 86.6229 9.82667 86.8789 9.96C87.1402 10.088 87.3429 10.2853 87.4869 10.552C87.6362 10.8187 87.7109 11.1547 87.7109 11.56V14H87.1429V11.616C87.1429 11.1733 87.0309 10.84 86.8069 10.616C86.5882 10.3867 86.2789 10.272 85.8789 10.272C85.5802 10.272 85.3189 10.3333 85.0949 10.456C84.8762 10.5733 84.7055 10.7467 84.5829 10.976C84.4655 11.2 84.4069 11.472 84.4069 11.792V14H83.8389V9.8H84.3829V10.952L84.2949 10.736C84.4282 10.432 84.6415 10.1947 84.9349 10.024C85.2282 9.848 85.5775 9.76 85.9829 9.76ZM91.0291 14.04C90.5918 14.04 90.2078 13.9493 89.8771 13.768C89.5465 13.5813 89.2878 13.328 89.1011 13.008C88.9145 12.6827 88.8211 12.312 88.8211 11.896C88.8211 11.48 88.9091 11.112 89.0851 10.792C89.2665 10.472 89.5118 10.2213 89.8211 10.04C90.1358 9.85333 90.4878 9.76 90.8771 9.76C91.2718 9.76 91.6211 9.85067 91.9251 10.032C92.2345 10.208 92.4771 10.4587 92.6531 10.784C92.8291 11.104 92.9171 11.4747 92.9171 11.896C92.9171 11.9227 92.9145 11.952 92.9091 11.984C92.9091 12.0107 92.9091 12.04 92.9091 12.072H89.2531V11.648H92.6051L92.3811 11.816C92.3811 11.512 92.3145 11.2427 92.1811 11.008C92.0531 10.768 91.8771 10.5813 91.6531 10.448C91.4291 10.3147 91.1705 10.248 90.8771 10.248C90.5891 10.248 90.3305 10.3147 90.1011 10.448C89.8718 10.5813 89.6931 10.768 89.5651 11.008C89.4371 11.248 89.3731 11.5227 89.3731 11.832V11.92C89.3731 12.24 89.4425 12.5227 89.5811 12.768C89.7251 13.008 89.9225 13.1973 90.1731 13.336C90.4291 13.4693 90.7198 13.536 91.0451 13.536C91.3011 13.536 91.5385 13.4907 91.7571 13.4C91.9811 13.3093 92.1731 13.1707 92.3331 12.984L92.6531 13.352C92.4665 13.576 92.2318 13.7467 91.9491 13.864C91.6718 13.9813 91.3651 14.04 91.0291 14.04ZM94.0733 14V9.8H94.6173V10.944L94.5613 10.744C94.6786 10.424 94.8759 10.1813 95.1533 10.016C95.4306 9.84533 95.7746 9.76 96.1853 9.76V10.312C96.1639 10.312 96.1426 10.312 96.1213 10.312C96.0999 10.3067 96.0786 10.304 96.0573 10.304C95.6146 10.304 95.2679 10.44 95.0173 10.712C94.7666 10.9787 94.6413 11.36 94.6413 11.856V14H94.0733Z" fill="black"/>
<path d="M307.062 15.048C306.63 15.048 306.246 14.936 305.91 14.712C305.574 14.4827 305.31 14.1573 305.118 13.736C304.926 13.3093 304.83 12.7973 304.83 12.2C304.83 11.6027 304.926 11.0933 305.118 10.672C305.31 10.2453 305.574 9.92 305.91 9.696C306.246 9.46667 306.63 9.352 307.062 9.352C307.494 9.352 307.878 9.46667 308.214 9.696C308.55 9.92 308.814 10.2453 309.006 10.672C309.203 11.0933 309.302 11.6027 309.302 12.2C309.302 12.7973 309.203 13.3093 309.006 13.736C308.814 14.1573 308.55 14.4827 308.214 14.712C307.878 14.936 307.494 15.048 307.062 15.048ZM307.062 14.52C307.393 14.52 307.681 14.432 307.926 14.256C308.171 14.0747 308.363 13.8133 308.502 13.472C308.641 13.1253 308.71 12.7013 308.71 12.2C308.71 11.6987 308.641 11.2773 308.502 10.936C308.363 10.5893 308.171 10.328 307.926 10.152C307.681 9.97067 307.393 9.88 307.062 9.88C306.742 9.88 306.457 9.97067 306.206 10.152C305.955 10.328 305.761 10.5893 305.622 10.936C305.483 11.2773 305.414 11.6987 305.414 12.2C305.414 12.7013 305.483 13.1253 305.622 13.472C305.761 13.8133 305.955 14.0747 306.206 14.256C306.457 14.432 306.742 14.52 307.062 14.52ZM312.423 15.048C311.927 15.048 311.508 14.9387 311.167 14.72C310.826 14.496 310.567 14.176 310.391 13.76C310.215 13.3387 310.127 12.8347 310.127 12.248C310.127 11.6133 310.234 11.0827 310.447 10.656C310.666 10.224 310.967 9.89867 311.351 9.68C311.735 9.46133 312.18 9.352 312.687 9.352C312.938 9.352 313.178 9.376 313.407 9.424C313.636 9.472 313.839 9.54933 314.015 9.656L313.783 10.12C313.639 10.024 313.474 9.95733 313.287 9.92C313.1 9.87733 312.903 9.856 312.695 9.856C312.092 9.856 311.61 10.048 311.247 10.432C310.89 10.816 310.711 11.3893 310.711 12.152C310.711 12.2693 310.716 12.416 310.727 12.592C310.743 12.7627 310.775 12.9333 310.823 13.104L310.623 12.952C310.682 12.6747 310.796 12.44 310.967 12.248C311.138 12.0507 311.351 11.9013 311.607 11.8C311.863 11.6987 312.143 11.648 312.447 11.648C312.82 11.648 313.148 11.7173 313.431 11.856C313.714 11.9947 313.935 12.1893 314.095 12.44C314.255 12.6907 314.335 12.9867 314.335 13.328C314.335 13.6747 314.252 13.9787 314.087 14.24C313.922 14.496 313.692 14.696 313.399 14.84C313.111 14.9787 312.786 15.048 312.423 15.048ZM312.399 14.56C312.666 14.56 312.9 14.512 313.103 14.416C313.311 14.3147 313.474 14.1733 313.591 13.992C313.708 13.8053 313.767 13.5893 313.767 13.344C313.767 12.976 313.639 12.6827 313.383 12.464C313.132 12.2453 312.791 12.136 312.359 12.136C312.071 12.136 311.82 12.1893 311.607 12.296C311.394 12.4027 311.226 12.5493 311.103 12.736C310.98 12.9173 310.919 13.1253 310.919 13.36C310.919 13.5627 310.975 13.7573 311.087 13.944C311.199 14.1253 311.364 14.2747 311.583 14.392C311.807 14.504 312.079 14.56 312.399 14.56Z" fill="black"/>
<path d="M145.272 12.06C145.096 12.06 144.944 11.996 144.816 11.868C144.696 11.74 144.636 11.584 144.636 11.4C144.636 11.208 144.696 11.052 144.816 10.932C144.944 10.812 145.096 10.752 145.272 10.752C145.448 10.752 145.596 10.812 145.716 10.932C145.844 11.052 145.908 11.208 145.908 11.4C145.908 11.584 145.844 11.74 145.716 11.868C145.596 11.996 145.448 12.06 145.272 12.06ZM147.815 12.06C147.639 12.06 147.487 11.996 147.359 11.868C147.239 11.74 147.179 11.584 147.179 11.4C147.179 11.208 147.239 11.052 147.359 10.932C147.487 10.812 147.639 10.752 147.815 10.752C147.991 10.752 148.139 10.812 148.259 10.932C148.387 11.052 148.451 11.208 148.451 11.4C148.451 11.584 148.387 11.74 148.259 11.868C148.139 11.996 147.991 12.06 147.815 12.06ZM150.358 12.06C150.182 12.06 150.03 11.996 149.902 11.868C149.782 11.74 149.722 11.584 149.722 11.4C149.722 11.208 149.782 11.052 149.902 10.932C150.03 10.812 150.182 10.752 150.358 10.752C150.534 10.752 150.682 10.812 150.802 10.932C150.93 11.052 150.994 11.208 150.994 11.4C150.994 11.584 150.93 11.74 150.802 11.868C150.682 11.996 150.534 12.06 150.358 12.06ZM152.901 12.06C152.725 12.06 152.573 11.996 152.445 11.868C152.325 11.74 152.265 11.584 152.265 11.4C152.265 11.208 152.325 11.052 152.445 10.932C152.573 10.812 152.725 10.752 152.901 10.752C153.077 10.752 153.225 10.812 153.345 10.932C153.473 11.052 153.537 11.208 153.537 11.4C153.537 11.584 153.473 11.74 153.345 11.868C153.225 11.996 153.077 12.06 152.901 12.06ZM155.444 12.06C155.268 12.06 155.116 11.996 154.988 11.868C154.868 11.74 154.808 11.584 154.808 11.4C154.808 11.208 154.868 11.052 154.988 10.932C155.116 10.812 155.268 10.752 155.444 10.752C155.62 10.752 155.768 10.812 155.888 10.932C156.016 11.052 156.08 11.208 156.08 11.4C156.08 11.584 156.016 11.74 155.888 11.868C155.768 11.996 155.62 12.06 155.444 12.06ZM157.987 12.06C157.811 12.06 157.659 11.996 157.531 11.868C157.411 11.74 157.351 11.584 157.351 11.4C157.351 11.208 157.411 11.052 157.531 10.932C157.659 10.812 157.811 10.752 157.987 10.752C158.163 10.752 158.311 10.812 158.431 10.932C158.559 11.052 158.623 11.208 158.623 11.4C158.623 11.584 158.559 11.74 158.431 11.868C158.311 11.996 158.163 12.06 157.987 12.06ZM160.53 12.06C160.354 12.06 160.202 11.996 160.074 11.868C159.954 11.74 159.894 11.584 159.894 11.4C159.894 11.208 159.954 11.052 160.074 10.932C160.202 10.812 160.354 10.752 160.53 10.752C160.706 10.752 160.854 10.812 160.974 10.932C161.102 11.052 161.166 11.208 161.166 11.4C161.166 11.584 161.102 11.74 160.974 11.868C160.854 11.996 160.706 12.06 160.53 12.06ZM163.073 12.06C162.897 12.06 162.745 11.996 162.617 11.868C162.497 11.74 162.437 11.584 162.437 11.4C162.437 11.208 162.497 11.052 162.617 10.932C162.745 10.812 162.897 10.752 163.073 10.752C163.249 10.752 163.397 10.812 163.517 10.932C163.645 11.052 163.709 11.208 163.709 11.4C163.709 11.584 163.645 11.74 163.517 11.868C163.397 11.996 163.249 12.06 163.073 12.06ZM165.616 12.06C165.44 12.06 165.288 11.996 165.16 11.868C165.04 11.74 164.98 11.584 164.98 11.4C164.98 11.208 165.04 11.052 165.16 10.932C165.288 10.812 165.44 10.752 165.616 10.752C165.792 10.752 165.94 10.812 166.06 10.932C166.188 11.052 166.252 11.208 166.252 11.4C166.252 11.584 166.188 11.74 166.06 11.868C165.94 11.996 165.792 12.06 165.616 12.06ZM168.159 12.06C167.983 12.06 167.831 11.996 167.703 11.868C167.583 11.74 167.523 11.584 167.523 11.4C167.523 11.208 167.583 11.052 167.703 10.932C167.831 10.812 167.983 10.752 168.159 10.752C168.335 10.752 168.483 10.812 168.603 10.932C168.731 11.052 168.795 11.208 168.795 11.4C168.795 11.584 168.731 11.74 168.603 11.868C168.483 11.996 168.335 12.06 168.159 12.06ZM170.702 12.06C170.526 12.06 170.374 11.996 170.246 11.868C170.126 11.74 170.066 11.584 170.066 11.4C170.066 11.208 170.126 11.052 170.246 10.932C170.374 10.812 170.526 10.752 170.702 10.752C170.878 10.752 171.026 10.812 171.146 10.932C171.274 11.052 171.338 11.208 171.338 11.4C171.338 11.584 171.274 11.74 171.146 11.868C171.026 11.996 170.878 12.06 170.702 12.06ZM173.245 12.06C173.069 12.06 172.917 11.996 172.789 11.868C172.669 11.74 172.609 11.584 172.609 11.4C172.609 11.208 172.669 11.052 172.789 10.932C172.917 10.812 173.069 10.752 173.245 10.752C173.421 10.752 173.569 10.812 173.689 10.932C173.817 11.052 173.881 11.208 173.881 11.4C173.881 11.584 173.817 11.74 173.689 11.868C173.569 11.996 173.421 12.06 173.245 12.06ZM175.788 12.06C175.612 12.06 175.46 11.996 175.332 11.868C175.212 11.74 175.152 11.584 175.152 11.4C175.152 11.208 175.212 11.052 175.332 10.932C175.46 10.812 175.612 10.752 175.788 10.752C175.964 10.752 176.112 10.812 176.232 10.932C176.36 11.052 176.424 11.208 176.424 11.4C176.424 11.584 176.36 11.74 176.232 11.868C176.112 11.996 175.964 12.06 175.788 12.06ZM178.331 12.06C178.155 12.06 178.003 11.996 177.875 11.868C177.755 11.74 177.695 11.584 177.695 11.4C177.695 11.208 177.755 11.052 177.875 10.932C178.003 10.812 178.155 10.752 178.331 10.752C178.507 10.752 178.655 10.812 178.775 10.932C178.903 11.052 178.967 11.208 178.967 11.4C178.967 11.584 178.903 11.74 178.775 11.868C178.655 11.996 178.507 12.06 178.331 12.06ZM180.874 12.06C180.698 12.06 180.546 11.996 180.418 11.868C180.298 11.74 180.238 11.584 180.238 11.4C180.238 11.208 180.298 11.052 180.418 10.932C180.546 10.812 180.698 10.752 180.874 10.752C181.05 10.752 181.198 10.812 181.318 10.932C181.446 11.052 181.51 11.208 181.51 11.4C181.51 11.584 181.446 11.74 181.318 11.868C181.198 11.996 181.05 12.06 180.874 12.06ZM183.417 12.06C183.241 12.06 183.089 11.996 182.961 11.868C182.841 11.74 182.781 11.584 182.781 11.4C182.781 11.208 182.841 11.052 182.961 10.932C183.089 10.812 183.241 10.752 183.417 10.752C183.593 10.752 183.741 10.812 183.861 10.932C183.989 11.052 184.053 11.208 184.053 11.4C184.053 11.584 183.989 11.74 183.861 11.868C183.741 11.996 183.593 12.06 183.417 12.06ZM185.96 12.06C185.784 12.06 185.632 11.996 185.504 11.868C185.384 11.74 185.324 11.584 185.324 11.4C185.324 11.208 185.384 11.052 185.504 10.932C185.632 10.812 185.784 10.752 185.96 10.752C186.136 10.752 186.284 10.812 186.404 10.932C186.532 11.052 186.596 11.208 186.596 11.4C186.596 11.584 186.532 11.74 186.404 11.868C186.284 11.996 186.136 12.06 185.96 12.06ZM188.502 12.06C188.326 12.06 188.174 11.996 188.046 11.868C187.926 11.74 187.866 11.584 187.866 11.4C187.866 11.208 187.926 11.052 188.046 10.932C188.174 10.812 188.326 10.752 188.502 10.752C188.678 10.752 188.826 10.812 188.946 10.932C189.074 11.052 189.138 11.208 189.138 11.4C189.138 11.584 189.074 11.74 188.946 11.868C188.826 11.996 188.678 12.06 188.502 12.06ZM191.045 12.06C190.869 12.06 190.717 11.996 190.589 11.868C190.469 11.74 190.409 11.584 190.409 11.4C190.409 11.208 190.469 11.052 190.589 10.932C190.717 10.812 190.869 10.752 191.045 10.752C191.221 10.752 191.369 10.812 191.489 10.932C191.617 11.052 191.681 11.208 191.681 11.4C191.681 11.584 191.617 11.74 191.489 11.868C191.369 11.996 191.221 12.06 191.045 12.06ZM193.588 12.06C193.412 12.06 193.26 11.996 193.132 11.868C193.012 11.74 192.952 11.584 192.952 11.4C192.952 11.208 193.012 11.052 193.132 10.932C193.26 10.812 193.412 10.752 193.588 10.752C193.764 10.752 193.912 10.812 194.032 10.932C194.16 11.052 194.224 11.208 194.224 11.4C194.224 11.584 194.16 11.74 194.032 11.868C193.912 11.996 193.764 12.06 193.588 12.06ZM196.131 12.06C195.955 12.06 195.803 11.996 195.675 11.868C195.555 11.74 195.495 11.584 195.495 11.4C195.495 11.208 195.555 11.052 195.675 10.932C195.803 10.812 195.955 10.752 196.131 10.752C196.307 10.752 196.455 10.812 196.575 10.932C196.703 11.052 196.767 11.208 196.767 11.4C196.767 11.584 196.703 11.74 196.575 11.868C196.455 11.996 196.307 12.06 196.131 12.06ZM198.674 12.06C198.498 12.06 198.346 11.996 198.218 11.868C198.098 11.74 198.038 11.584 198.038 11.4C198.038 11.208 198.098 11.052 198.218 10.932C198.346 10.812 198.498 10.752 198.674 10.752C198.85 10.752 198.998 10.812 199.118 10.932C199.246 11.052 199.31 11.208 199.31 11.4C199.31 11.584 199.246 11.74 199.118 11.868C198.998 11.996 198.85 12.06 198.674 12.06ZM201.217 12.06C201.041 12.06 200.889 11.996 200.761 11.868C200.641 11.74 200.581 11.584 200.581 11.4C200.581 11.208 200.641 11.052 200.761 10.932C200.889 10.812 201.041 10.752 201.217 10.752C201.393 10.752 201.541 10.812 201.661 10.932C201.789 11.052 201.853 11.208 201.853 11.4C201.853 11.584 201.789 11.74 201.661 11.868C201.541 11.996 201.393 12.06 201.217 12.06ZM203.76 12.06C203.584 12.06 203.432 11.996 203.304 11.868C203.184 11.74 203.124 11.584 203.124 11.4C203.124 11.208 203.184 11.052 203.304 10.932C203.432 10.812 203.584 10.752 203.76 10.752C203.936 10.752 204.084 10.812 204.204 10.932C204.332 11.052 204.396 11.208 204.396 11.4C204.396 11.584 204.332 11.74 204.204 11.868C204.084 11.996 203.936 12.06 203.76 12.06ZM206.303 12.06C206.127 12.06 205.975 11.996 205.847 11.868C205.727 11.74 205.667 11.584 205.667 11.4C205.667 11.208 205.727 11.052 205.847 10.932C205.975 10.812 206.127 10.752 206.303 10.752C206.479 10.752 206.627 10.812 206.747 10.932C206.875 11.052 206.939 11.208 206.939 11.4C206.939 11.584 206.875 11.74 206.747 11.868C206.627 11.996 206.479 12.06 206.303 12.06ZM208.846 12.06C208.67 12.06 208.518 11.996 208.39 11.868C208.27 11.74 208.21 11.584 208.21 11.4C208.21 11.208 208.27 11.052 208.39 10.932C208.518 10.812 208.67 10.752 208.846 10.752C209.022 10.752 209.17 10.812 209.29 10.932C209.418 11.052 209.482 11.208 209.482 11.4C209.482 11.584 209.418 11.74 209.29 11.868C209.17 11.996 209.022 12.06 208.846 12.06ZM211.389 12.06C211.213 12.06 211.061 11.996 210.933 11.868C210.813 11.74 210.753 11.584 210.753 11.4C210.753 11.208 210.813 11.052 210.933 10.932C211.061 10.812 211.213 10.752 211.389 10.752C211.565 10.752 211.713 10.812 211.833 10.932C211.961 11.052 212.025 11.208 212.025 11.4C212.025 11.584 211.961 11.74 211.833 11.868C211.713 11.996 211.565 12.06 211.389 12.06ZM213.932 12.06C213.756 12.06 213.604 11.996 213.476 11.868C213.356 11.74 213.296 11.584 213.296 11.4C213.296 11.208 213.356 11.052 213.476 10.932C213.604 10.812 213.756 10.752 213.932 10.752C214.108 10.752 214.256 10.812 214.376 10.932C214.504 11.052 214.568 11.208 214.568 11.4C214.568 11.584 214.504 11.74 214.376 11.868C214.256 11.996 214.108 12.06 213.932 12.06ZM216.475 12.06C216.299 12.06 216.147 11.996 216.019 11.868C215.899 11.74 215.839 11.584 215.839 11.4C215.839 11.208 215.899 11.052 216.019 10.932C216.147 10.812 216.299 10.752 216.475 10.752C216.651 10.752 216.799 10.812 216.919 10.932C217.047 11.052 217.111 11.208 217.111 11.4C217.111 11.584 217.047 11.74 216.919 11.868C216.799 11.996 216.651 12.06 216.475 12.06ZM219.018 12.06C218.842 12.06 218.69 11.996 218.562 11.868C218.442 11.74 218.382 11.584 218.382 11.4C218.382 11.208 218.442 11.052 218.562 10.932C218.69 10.812 218.842 10.752 219.018 10.752C219.194 10.752 219.342 10.812 219.462 10.932C219.59 11.052 219.654 11.208 219.654 11.4C219.654 11.584 219.59 11.74 219.462 11.868C219.342 11.996 219.194 12.06 219.018 12.06ZM221.561 12.06C221.385 12.06 221.233 11.996 221.105 11.868C220.985 11.74 220.925 11.584 220.925 11.4C220.925 11.208 220.985 11.052 221.105 10.932C221.233 10.812 221.385 10.752 221.561 10.752C221.737 10.752 221.885 10.812 222.005 10.932C222.133 11.052 222.197 11.208 222.197 11.4C222.197 11.584 222.133 11.74 222.005 11.868C221.885 11.996 221.737 12.06 221.561 12.06ZM224.104 12.06C223.928 12.06 223.776 11.996 223.648 11.868C223.528 11.74 223.468 11.584 223.468 11.4C223.468 11.208 223.528 11.052 223.648 10.932C223.776 10.812 223.928 10.752 224.104 10.752C224.28 10.752 224.428 10.812 224.548 10.932C224.676 11.052 224.74 11.208 224.74 11.4C224.74 11.584 224.676 11.74 224.548 11.868C224.428 11.996 224.28 12.06 224.104 12.06ZM226.647 12.06C226.471 12.06 226.319 11.996 226.191 11.868C226.071 11.74 226.011 11.584 226.011 11.4C226.011 11.208 226.071 11.052 226.191 10.932C226.319 10.812 226.471 10.752 226.647 10.752C226.823 10.752 226.971 10.812 227.091 10.932C227.219 11.052 227.283 11.208 227.283 11.4C227.283 11.584 227.219 11.74 227.091 11.868C226.971 11.996 226.823 12.06 226.647 12.06ZM229.19 12.06C229.014 12.06 228.862 11.996 228.734 11.868C228.614 11.74 228.554 11.584 228.554 11.4C228.554 11.208 228.614 11.052 228.734 10.932C228.862 10.812 229.014 10.752 229.19 10.752C229.366 10.752 229.514 10.812 229.634 10.932C229.762 11.052 229.826 11.208 229.826 11.4C229.826 11.584 229.762 11.74 229.634 11.868C229.514 11.996 229.366 12.06 229.19 12.06ZM231.733 12.06C231.557 12.06 231.405 11.996 231.277 11.868C231.157 11.74 231.097 11.584 231.097 11.4C231.097 11.208 231.157 11.052 231.277 10.932C231.405 10.812 231.557 10.752 231.733 10.752C231.909 10.752 232.057 10.812 232.177 10.932C232.305 11.052 232.369 11.208 232.369 11.4C232.369 11.584 232.305 11.74 232.177 11.868C232.057 11.996 231.909 12.06 231.733 12.06ZM234.276 12.06C234.1 12.06 233.948 11.996 233.82 11.868C233.7 11.74 233.64 11.584 233.64 11.4C233.64 11.208 233.7 11.052 233.82 10.932C233.948 10.812 234.1 10.752 234.276 10.752C234.452 10.752 234.6 10.812 234.72 10.932C234.848 11.052 234.912 11.208 234.912 11.4C234.912 11.584 234.848 11.74 234.72 11.868C234.6 11.996 234.452 12.06 234.276 12.06ZM236.819 12.06C236.643 12.06 236.491 11.996 236.363 11.868C236.243 11.74 236.183 11.584 236.183 11.4C236.183 11.208 236.243 11.052 236.363 10.932C236.491 10.812 236.643 10.752 236.819 10.752C236.995 10.752 237.143 10.812 237.263 10.932C237.391 11.052 237.455 11.208 237.455 11.4C237.455 11.584 237.391 11.74 237.263 11.868C237.143 11.996 236.995 12.06 236.819 12.06ZM239.362 12.06C239.186 12.06 239.034 11.996 238.906 11.868C238.786 11.74 238.726 11.584 238.726 11.4C238.726 11.208 238.786 11.052 238.906 10.932C239.034 10.812 239.186 10.752 239.362 10.752C239.538 10.752 239.686 10.812 239.806 10.932C239.934 11.052 239.998 11.208 239.998 11.4C239.998 11.584 239.934 11.74 239.806 11.868C239.686 11.996 239.538 12.06 239.362 12.06ZM241.905 12.06C241.729 12.06 241.577 11.996 241.449 11.868C241.329 11.74 241.269 11.584 241.269 11.4C241.269 11.208 241.329 11.052 241.449 10.932C241.577 10.812 241.729 10.752 241.905 10.752C242.081 10.752 242.229 10.812 242.349 10.932C242.477 11.052 242.541 11.208 242.541 11.4C242.541 11.584 242.477 11.74 242.349 11.868C242.229 11.996 242.081 12.06 241.905 12.06ZM244.448 12.06C244.272 12.06 244.12 11.996 243.992 11.868C243.872 11.74 243.812 11.584 243.812 11.4C243.812 11.208 243.872 11.052 243.992 10.932C244.12 10.812 244.272 10.752 244.448 10.752C244.624 10.752 244.772 10.812 244.892 10.932C245.02 11.052 245.084 11.208 245.084 11.4C245.084 11.584 245.02 11.74 244.892 11.868C244.772 11.996 244.624 12.06 244.448 12.06ZM246.991 12.06C246.815 12.06 246.663 11.996 246.535 11.868C246.415 11.74 246.355 11.584 246.355 11.4C246.355 11.208 246.415 11.052 246.535 10.932C246.663 10.812 246.815 10.752 246.991 10.752C247.167 10.752 247.315 10.812 247.435 10.932C247.563 11.052 247.627 11.208 247.627 11.4C247.627 11.584 247.563 11.74 247.435 11.868C247.315 11.996 247.167 12.06 246.991 12.06ZM249.534 12.06C249.358 12.06 249.206 11.996 249.078 11.868C248.958 11.74 248.898 11.584 248.898 11.4C248.898 11.208 248.958 11.052 249.078 10.932C249.206 10.812 249.358 10.752 249.534 10.752C249.71 10.752 249.858 10.812 249.978 10.932C250.106 11.052 250.17 11.208 250.17 11.4C250.17 11.584 250.106 11.74 249.978 11.868C249.858 11.996 249.71 12.06 249.534 12.06ZM252.077 12.06C251.901 12.06 251.749 11.996 251.621 11.868C251.501 11.74 251.441 11.584 251.441 11.4C251.441 11.208 251.501 11.052 251.621 10.932C251.749 10.812 251.901 10.752 252.077 10.752C252.253 10.752 252.401 10.812 252.521 10.932C252.649 11.052 252.713 11.208 252.713 11.4C252.713 11.584 252.649 11.74 252.521 11.868C252.401 11.996 252.253 12.06 252.077 12.06ZM254.62 12.06C254.444 12.06 254.292 11.996 254.164 11.868C254.044 11.74 253.984 11.584 253.984 11.4C253.984 11.208 254.044 11.052 254.164 10.932C254.292 10.812 254.444 10.752 254.62 10.752C254.796 10.752 254.944 10.812 255.064 10.932C255.192 11.052 255.256 11.208 255.256 11.4C255.256 11.584 255.192 11.74 255.064 11.868C254.944 11.996 254.796 12.06 254.62 12.06ZM257.163 12.06C256.987 12.06 256.835 11.996 256.707 11.868C256.587 11.74 256.527 11.584 256.527 11.4C256.527 11.208 256.587 11.052 256.707 10.932C256.835 10.812 256.987 10.752 257.163 10.752C257.339 10.752 257.487 10.812 257.607 10.932C257.735 11.052 257.799 11.208 257.799 11.4C257.799 11.584 257.735 11.74 257.607 11.868C257.487 11.996 257.339 12.06 257.163 12.06ZM259.706 12.06C259.53 12.06 259.378 11.996 259.25 11.868C259.13 11.74 259.07 11.584 259.07 11.4C259.07 11.208 259.13 11.052 259.25 10.932C259.378 10.812 259.53 10.752 259.706 10.752C259.882 10.752 260.03 10.812 260.15 10.932C260.278 11.052 260.342 11.208 260.342 11.4C260.342 11.584 260.278 11.74 260.15 11.868C260.03 11.996 259.882 12.06 259.706 12.06ZM262.249 12.06C262.073 12.06 261.921 11.996 261.793 11.868C261.673 11.74 261.613 11.584 261.613 11.4C261.613 11.208 261.673 11.052 261.793 10.932C261.921 10.812 262.073 10.752 262.249 10.752C262.425 10.752 262.573 10.812 262.693 10.932C262.821 11.052 262.885 11.208 262.885 11.4C262.885 11.584 262.821 11.74 262.693 11.868C262.573 11.996 262.425 12.06 262.249 12.06ZM264.792 12.06C264.616 12.06 264.464 11.996 264.336 11.868C264.216 11.74 264.156 11.584 264.156 11.4C264.156 11.208 264.216 11.052 264.336 10.932C264.464 10.812 264.616 10.752 264.792 10.752C264.968 10.752 265.116 10.812 265.236 10.932C265.364 11.052 265.428 11.208 265.428 11.4C265.428 11.584 265.364 11.74 265.236 11.868C265.116 11.996 264.968 12.06 264.792 12.06ZM267.335 12.06C267.159 12.06 267.007 11.996 266.879 11.868C266.759 11.74 266.699 11.584 266.699 11.4C266.699 11.208 266.759 11.052 266.879 10.932C267.007 10.812 267.159 10.752 267.335 10.752C267.511 10.752 267.659 10.812 267.779 10.932C267.907 11.052 267.971 11.208 267.971 11.4C267.971 11.584 267.907 11.74 267.779 11.868C267.659 11.996 267.511 12.06 267.335 12.06ZM269.877 12.06C269.701 12.06 269.549 11.996 269.421 11.868C269.301 11.74 269.241 11.584 269.241 11.4C269.241 11.208 269.301 11.052 269.421 10.932C269.549 10.812 269.701 10.752 269.877 10.752C270.053 10.752 270.201 10.812 270.321 10.932C270.449 11.052 270.513 11.208 270.513 11.4C270.513 11.584 270.449 11.74 270.321 11.868C270.201 11.996 270.053 12.06 269.877 12.06ZM272.42 12.06C272.244 12.06 272.092 11.996 271.964 11.868C271.844 11.74 271.784 11.584 271.784 11.4C271.784 11.208 271.844 11.052 271.964 10.932C272.092 10.812 272.244 10.752 272.42 10.752C272.596 10.752 272.744 10.812 272.864 10.932C272.992 11.052 273.056 11.208 273.056 11.4C273.056 11.584 272.992 11.74 272.864 11.868C272.744 11.996 272.596 12.06 272.42 12.06ZM274.963 12.06C274.787 12.06 274.635 11.996 274.507 11.868C274.387 11.74 274.327 11.584 274.327 11.4C274.327 11.208 274.387 11.052 274.507 10.932C274.635 10.812 274.787 10.752 274.963 10.752C275.139 10.752 275.287 10.812 275.407 10.932C275.535 11.052 275.599 11.208 275.599 11.4C275.599 11.584 275.535 11.74 275.407 11.868C275.287 11.996 275.139 12.06 274.963 12.06ZM277.506 12.06C277.33 12.06 277.178 11.996 277.05 11.868C276.93 11.74 276.87 11.584 276.87 11.4C276.87 11.208 276.93 11.052 277.05 10.932C277.178 10.812 277.33 10.752 277.506 10.752C277.682 10.752 277.83 10.812 277.95 10.932C278.078 11.052 278.142 11.208 278.142 11.4C278.142 11.584 278.078 11.74 277.95 11.868C277.83 11.996 277.682 12.06 277.506 12.06ZM280.049 12.06C279.873 12.06 279.721 11.996 279.593 11.868C279.473 11.74 279.413 11.584 279.413 11.4C279.413 11.208 279.473 11.052 279.593 10.932C279.721 10.812 279.873 10.752 280.049 10.752C280.225 10.752 280.373 10.812 280.493 10.932C280.621 11.052 280.685 11.208 280.685 11.4C280.685 11.584 280.621 11.74 280.493 11.868C280.373 11.996 280.225 12.06 280.049 12.06ZM282.592 12.06C282.416 12.06 282.264 11.996 282.136 11.868C282.016 11.74 281.956 11.584 281.956 11.4C281.956 11.208 282.016 11.052 282.136 10.932C282.264 10.812 282.416 10.752 282.592 10.752C282.768 10.752 282.916 10.812 283.036 10.932C283.164 11.052 283.228 11.208 283.228 11.4C283.228 11.584 283.164 11.74 283.036 11.868C282.916 11.996 282.768 12.06 282.592 12.06ZM285.135 12.06C284.959 12.06 284.807 11.996 284.679 11.868C284.559 11.74 284.499 11.584 284.499 11.4C284.499 11.208 284.559 11.052 284.679 10.932C284.807 10.812 284.959 10.752 285.135 10.752C285.311 10.752 285.459 10.812 285.579 10.932C285.707 11.052 285.771 11.208 285.771 11.4C285.771 11.584 285.707 11.74 285.579 11.868C285.459 11.996 285.311 12.06 285.135 12.06ZM287.678 12.06C287.502 12.06 287.35 11.996 287.222 11.868C287.102 11.74 287.042 11.584 287.042 11.4C287.042 11.208 287.102 11.052 287.222 10.932C287.35 10.812 287.502 10.752 287.678 10.752C287.854 10.752 288.002 10.812 288.122 10.932C288.25 11.052 288.314 11.208 288.314 11.4C288.314 11.584 288.25 11.74 288.122 11.868C288.002 11.996 287.854 12.06 287.678 12.06ZM290.221 12.06C290.045 12.06 289.893 11.996 289.765 11.868C289.645 11.74 289.585 11.584 289.585 11.4C289.585 11.208 289.645 11.052 289.765 10.932C289.893 10.812 290.045 10.752 290.221 10.752C290.397 10.752 290.545 10.812 290.665 10.932C290.793 11.052 290.857 11.208 290.857 11.4C290.857 11.584 290.793 11.74 290.665 11.868C290.545 11.996 290.397 12.06 290.221 12.06Z" fill="black"/>
</svg>
