<svg width="322" height="18" viewBox="0 0 322 18" fill="none" xmlns="http://www.w3.org/2000/svg">
<path d="M2.184 14.048C1.784 14.048 1.40267 13.984 1.04 13.856C0.677333 13.7227 0.389333 13.5467 0.176 13.328L0.456 12.872C0.632 13.0587 0.872 13.2133 1.176 13.336C1.48533 13.4587 1.81867 13.52 2.176 13.52C2.65067 13.52 3.01067 13.416 3.256 13.208C3.50667 12.9947 3.632 12.7173 3.632 12.376C3.632 12.136 3.57333 11.9307 3.456 11.76C3.344 11.584 3.152 11.448 2.88 11.352C2.608 11.256 2.23467 11.208 1.76 11.208H0.568L0.856 8.4H3.92V8.912H1.088L1.384 8.632L1.136 10.984L0.84 10.696H1.888C2.45333 10.696 2.90667 10.7653 3.248 10.904C3.58933 11.0427 3.83467 11.2373 3.984 11.488C4.13867 11.7333 4.216 12.0213 4.216 12.352C4.216 12.6667 4.14133 12.9547 3.992 13.216C3.84267 13.472 3.61867 13.6747 3.32 13.824C3.02133 13.9733 2.64267 14.048 2.184 14.048ZM7.17925 14.048C6.74725 14.048 6.36325 13.936 6.02725 13.712C5.69125 13.4827 5.42725 13.1573 5.23525 12.736C5.04325 12.3093 4.94725 11.7973 4.94725 11.2C4.94725 10.6027 5.04325 10.0933 5.23525 9.672C5.42725 9.24533 5.69125 8.92 6.02725 8.696C6.36325 8.46667 6.74725 8.352 7.17925 8.352C7.61125 8.352 7.99525 8.46667 8.33125 8.696C8.66725 8.92 8.93125 9.24533 9.12325 9.672C9.32058 10.0933 9.41925 10.6027 9.41925 11.2C9.41925 11.7973 9.32058 12.3093 9.12325 12.736C8.93125 13.1573 8.66725 13.4827 8.33125 13.712C7.99525 13.936 7.61125 14.048 7.17925 14.048ZM7.17925 13.52C7.50992 13.52 7.79792 13.432 8.04325 13.256C8.28858 13.0747 8.48058 12.8133 8.61925 12.472C8.75792 12.1253 8.82725 11.7013 8.82725 11.2C8.82725 10.6987 8.75792 10.2773 8.61925 9.936C8.48058 9.58933 8.28858 9.328 8.04325 9.152C7.79792 8.97067 7.50992 8.88 7.17925 8.88C6.85925 8.88 6.57392 8.97067 6.32325 9.152C6.07258 9.328 5.87792 9.58933 5.73925 9.936C5.60058 10.2773 5.53125 10.6987 5.53125 11.2C5.53125 11.7013 5.60058 12.1253 5.73925 12.472C5.87792 12.8133 6.07258 13.0747 6.32325 13.256C6.57392 13.432 6.85925 13.52 7.17925 13.52ZM12.4761 14.048C12.0441 14.048 11.6601 13.936 11.3241 13.712C10.9881 13.4827 10.7241 13.1573 10.5321 12.736C10.3401 12.3093 10.2441 11.7973 10.2441 11.2C10.2441 10.6027 10.3401 10.0933 10.5321 9.672C10.7241 9.24533 10.9881 8.92 11.3241 8.696C11.6601 8.46667 12.0441 8.352 12.4761 8.352C12.9081 8.352 13.2921 8.46667 13.6281 8.696C13.9641 8.92 14.2281 9.24533 14.4201 9.672C14.6175 10.0933 14.7161 10.6027 14.7161 11.2C14.7161 11.7973 14.6175 12.3093 14.4201 12.736C14.2281 13.1573 13.9641 13.4827 13.6281 13.712C13.2921 13.936 12.9081 14.048 12.4761 14.048ZM12.4761 13.52C12.8068 13.52 13.0948 13.432 13.3401 13.256C13.5855 13.0747 13.7775 12.8133 13.9161 12.472C14.0548 12.1253 14.1241 11.7013 14.1241 11.2C14.1241 10.6987 14.0548 10.2773 13.9161 9.936C13.7775 9.58933 13.5855 9.328 13.3401 9.152C13.0948 8.97067 12.8068 8.88 12.4761 8.88C12.1561 8.88 11.8708 8.97067 11.6201 9.152C11.3695 9.328 11.1748 9.58933 11.0361 9.936C10.8975 10.2773 10.8281 10.6987 10.8281 11.2C10.8281 11.7013 10.8975 12.1253 11.0361 12.472C11.1748 12.8133 11.3695 13.0747 11.6201 13.256C11.8708 13.432 12.1561 13.52 12.4761 13.52ZM17.709 15.592C17.325 15.592 16.957 15.536 16.605 15.424C16.253 15.312 15.9677 15.152 15.749 14.944L16.037 14.512C16.2343 14.688 16.477 14.8267 16.765 14.928C17.0583 15.0347 17.3677 15.088 17.693 15.088C18.2263 15.088 18.6183 14.9627 18.869 14.712C19.1197 14.4667 19.245 14.0827 19.245 13.56V12.512L19.325 11.792L19.269 11.072V9.8H19.813V13.488C19.813 14.2133 19.6343 14.744 19.277 15.08C18.925 15.4213 18.4023 15.592 17.709 15.592ZM17.605 13.84C17.205 13.84 16.845 13.7547 16.525 13.584C16.205 13.408 15.9517 13.1653 15.765 12.856C15.5837 12.5467 15.493 12.192 15.493 11.792C15.493 11.392 15.5837 11.04 15.765 10.736C15.9517 10.4267 16.205 10.1867 16.525 10.016C16.845 9.84533 17.205 9.76 17.605 9.76C17.9783 9.76 18.3143 9.83733 18.613 9.992C18.9117 10.1467 19.149 10.376 19.325 10.68C19.501 10.984 19.589 11.3547 19.589 11.792C19.589 12.2293 19.501 12.6 19.325 12.904C19.149 13.208 18.9117 13.44 18.613 13.6C18.3143 13.76 17.9783 13.84 17.605 13.84ZM17.661 13.336C17.9703 13.336 18.245 13.272 18.485 13.144C18.725 13.0107 18.9143 12.8293 19.053 12.6C19.1917 12.3653 19.261 12.096 19.261 11.792C19.261 11.488 19.1917 11.2213 19.053 10.992C18.9143 10.7627 18.725 10.584 18.485 10.456C18.245 10.3227 17.9703 10.256 17.661 10.256C17.357 10.256 17.0823 10.3227 16.837 10.456C16.597 10.584 16.4077 10.7627 16.269 10.992C16.1357 11.2213 16.069 11.488 16.069 11.792C16.069 12.096 16.1357 12.3653 16.269 12.6C16.4077 12.8293 16.597 13.0107 16.837 13.144C17.0823 13.272 17.357 13.336 17.661 13.336ZM26.6416 9.76C26.9829 9.76 27.2789 9.82667 27.5296 9.96C27.7856 10.088 27.9829 10.2853 28.1216 10.552C28.2656 10.8187 28.3376 11.1547 28.3376 11.56V14H27.7696V11.616C27.7696 11.1733 27.6629 10.84 27.4496 10.616C27.2416 10.3867 26.9456 10.272 26.5616 10.272C26.2736 10.272 26.0229 10.3333 25.8096 10.456C25.6016 10.5733 25.4389 10.7467 25.3216 10.976C25.2096 11.2 25.1536 11.472 25.1536 11.792V14H24.5856V11.616C24.5856 11.1733 24.4789 10.84 24.2656 10.616C24.0522 10.3867 23.7536 10.272 23.3696 10.272C23.0869 10.272 22.8389 10.3333 22.6256 10.456C22.4122 10.5733 22.2469 10.7467 22.1296 10.976C22.0176 11.2 21.9616 11.472 21.9616 11.792V14H21.3936V9.8H21.9376V10.936L21.8496 10.736C21.9776 10.432 22.1829 10.1947 22.4656 10.024C22.7536 9.848 23.0922 9.76 23.4816 9.76C23.8922 9.76 24.2416 9.864 24.5296 10.072C24.8176 10.2747 25.0042 10.5813 25.0896 10.992L24.8656 10.904C24.9882 10.5627 25.2042 10.288 25.5136 10.08C25.8282 9.86667 26.2042 9.76 26.6416 9.76ZM31.0059 14.04C30.6593 14.04 30.3313 13.992 30.0219 13.896C29.7126 13.7947 29.4699 13.6693 29.2939 13.52L29.5499 13.072C29.7206 13.2 29.9393 13.312 30.2059 13.408C30.4726 13.4987 30.7526 13.544 31.0459 13.544C31.4459 13.544 31.7339 13.4827 31.9099 13.36C32.0859 13.232 32.1739 13.064 32.1739 12.856C32.1739 12.7013 32.1233 12.5813 32.0219 12.496C31.9259 12.4053 31.7979 12.3387 31.6379 12.296C31.4779 12.248 31.2993 12.208 31.1019 12.176C30.9046 12.144 30.7073 12.1067 30.5099 12.064C30.3179 12.0213 30.1419 11.96 29.9819 11.88C29.8219 11.7947 29.6913 11.68 29.5899 11.536C29.4939 11.392 29.4459 11.2 29.4459 10.96C29.4459 10.7307 29.5099 10.5253 29.6379 10.344C29.7659 10.1627 29.9526 10.0213 30.1979 9.92C30.4486 9.81333 30.7526 9.76 31.1099 9.76C31.3819 9.76 31.6539 9.79733 31.9259 9.872C32.1979 9.94133 32.4219 10.0347 32.5979 10.152L32.3499 10.608C32.1633 10.48 31.9633 10.3893 31.7499 10.336C31.5366 10.2773 31.3233 10.248 31.1099 10.248C30.7313 10.248 30.4513 10.3147 30.2699 10.448C30.0939 10.576 30.0059 10.7413 30.0059 10.944C30.0059 11.104 30.0539 11.2293 30.1499 11.32C30.2513 11.4107 30.3819 11.4827 30.5419 11.536C30.7073 11.584 30.8859 11.624 31.0779 11.656C31.2753 11.688 31.4699 11.728 31.6619 11.776C31.8593 11.8187 32.0379 11.88 32.1979 11.96C32.3633 12.0347 32.4939 12.144 32.5899 12.288C32.6913 12.4267 32.7419 12.6107 32.7419 12.84C32.7419 13.0853 32.6726 13.2987 32.5339 13.48C32.4006 13.656 32.2033 13.7947 31.9419 13.896C31.6859 13.992 31.3739 14.04 31.0059 14.04ZM37.5419 14.048C37.1259 14.048 36.7259 13.9813 36.3419 13.848C35.9633 13.7093 35.6699 13.5333 35.4619 13.32L35.6939 12.864C35.8913 13.056 36.1553 13.2187 36.4859 13.352C36.8219 13.48 37.1739 13.544 37.5419 13.544C37.8939 13.544 38.1793 13.5013 38.3979 13.416C38.6219 13.3253 38.7846 13.2053 38.8859 13.056C38.9926 12.9067 39.0459 12.7413 39.0459 12.56C39.0459 12.3413 38.9819 12.1653 38.8539 12.032C38.7313 11.8987 38.5686 11.7947 38.3659 11.72C38.1633 11.64 37.9393 11.5707 37.6939 11.512C37.4486 11.4533 37.2033 11.392 36.9579 11.328C36.7126 11.2587 36.4859 11.168 36.2779 11.056C36.0753 10.944 35.9099 10.7973 35.7819 10.616C35.6593 10.4293 35.5979 10.1867 35.5979 9.888C35.5979 9.61067 35.6699 9.35733 35.8139 9.128C35.9633 8.89333 36.1899 8.70667 36.4939 8.568C36.7979 8.424 37.1873 8.352 37.6619 8.352C37.9766 8.352 38.2886 8.39733 38.5979 8.488C38.9073 8.57333 39.1739 8.69333 39.3979 8.848L39.1979 9.32C38.9579 9.16 38.7019 9.04267 38.4299 8.968C38.1633 8.89333 37.9046 8.856 37.6539 8.856C37.3179 8.856 37.0406 8.90133 36.8219 8.992C36.6033 9.08267 36.4406 9.20533 36.3339 9.36C36.2326 9.50933 36.1819 9.68 36.1819 9.872C36.1819 10.0907 36.2433 10.2667 36.3659 10.4C36.4939 10.5333 36.6593 10.6373 36.8619 10.712C37.0699 10.7867 37.2966 10.8533 37.5419 10.912C37.7873 10.9707 38.0299 11.0347 38.2699 11.104C38.5153 11.1733 38.7393 11.264 38.9419 11.376C39.1499 11.4827 39.3153 11.6267 39.4379 11.808C39.5659 11.9893 39.6299 12.2267 39.6299 12.52C39.6299 12.792 39.5553 13.0453 39.4059 13.28C39.2566 13.5093 39.0273 13.696 38.7179 13.84C38.4139 13.9787 38.0219 14.048 37.5419 14.048ZM41.5777 14L39.9937 9.8H40.5377L41.9777 13.696H41.7297L43.2097 9.8H43.6977L45.1617 13.696H44.9137L46.3777 9.8H46.8977L45.3057 14H44.7697L43.3617 10.336H43.5297L42.1137 14H41.5777ZM49.4198 14.04C48.9824 14.04 48.5984 13.9493 48.2678 13.768C47.9371 13.5813 47.6784 13.328 47.4918 13.008C47.3051 12.6827 47.2118 12.312 47.2118 11.896C47.2118 11.48 47.2998 11.112 47.4758 10.792C47.6571 10.472 47.9024 10.2213 48.2118 10.04C48.5264 9.85333 48.8784 9.76 49.2678 9.76C49.6624 9.76 50.0118 9.85067 50.3158 10.032C50.6251 10.208 50.8678 10.4587 51.0438 10.784C51.2198 11.104 51.3078 11.4747 51.3078 11.896C51.3078 11.9227 51.3051 11.952 51.2998 11.984C51.2998 12.0107 51.2998 12.04 51.2998 12.072H47.6438V11.648H50.9958L50.7718 11.816C50.7718 11.512 50.7051 11.2427 50.5718 11.008C50.4438 10.768 50.2678 10.5813 50.0438 10.448C49.8198 10.3147 49.5611 10.248 49.2678 10.248C48.9798 10.248 48.7211 10.3147 48.4918 10.448C48.2624 10.5813 48.0838 10.768 47.9558 11.008C47.8278 11.248 47.7638 11.5227 47.7638 11.832V11.92C47.7638 12.24 47.8331 12.5227 47.9718 12.768C48.1158 13.008 48.3131 13.1973 48.5638 13.336C48.8198 13.4693 49.1104 13.536 49.4358 13.536C49.6918 13.536 49.9291 13.4907 50.1478 13.4C50.3718 13.3093 50.5638 13.1707 50.7238 12.984L51.0438 13.352C50.8571 13.576 50.6224 13.7467 50.3398 13.864C50.0624 13.9813 49.7558 14.04 49.4198 14.04ZM54.2479 14.04C53.8105 14.04 53.4265 13.9493 53.0959 13.768C52.7652 13.5813 52.5065 13.328 52.3199 13.008C52.1332 12.6827 52.0399 12.312 52.0399 11.896C52.0399 11.48 52.1279 11.112 52.3039 10.792C52.4852 10.472 52.7305 10.2213 53.0399 10.04C53.3545 9.85333 53.7065 9.76 54.0959 9.76C54.4905 9.76 54.8399 9.85067 55.1439 10.032C55.4532 10.208 55.6959 10.4587 55.8719 10.784C56.0479 11.104 56.1359 11.4747 56.1359 11.896C56.1359 11.9227 56.1332 11.952 56.1279 11.984C56.1279 12.0107 56.1279 12.04 56.1279 12.072H52.4719V11.648H55.8239L55.5999 11.816C55.5999 11.512 55.5332 11.2427 55.3999 11.008C55.2719 10.768 55.0959 10.5813 54.8719 10.448C54.6479 10.3147 54.3892 10.248 54.0959 10.248C53.8079 10.248 53.5492 10.3147 53.3199 10.448C53.0905 10.5813 52.9119 10.768 52.7839 11.008C52.6559 11.248 52.5919 11.5227 52.5919 11.832V11.92C52.5919 12.24 52.6612 12.5227 52.7999 12.768C52.9439 13.008 53.1412 13.1973 53.3919 13.336C53.6479 13.4693 53.9385 13.536 54.2639 13.536C54.5199 13.536 54.7572 13.4907 54.9759 13.4C55.1999 13.3093 55.3919 13.1707 55.5519 12.984L55.8719 13.352C55.6852 13.576 55.4505 13.7467 55.1679 13.864C54.8905 13.9813 54.5839 14.04 54.2479 14.04ZM58.62 14.04C58.2253 14.04 57.9213 13.9333 57.708 13.72C57.4947 13.5067 57.388 13.2053 57.388 12.816V8.872H57.956V12.784C57.956 13.0293 58.0173 13.2187 58.14 13.352C58.268 13.4853 58.4493 13.552 58.684 13.552C58.9347 13.552 59.1427 13.48 59.308 13.336L59.508 13.744C59.396 13.8453 59.26 13.92 59.1 13.968C58.9453 14.016 58.7853 14.04 58.62 14.04ZM56.636 10.272V9.8H59.236V10.272H56.636ZM62.7558 14V8.4H65.1718C65.7958 8.4 66.2784 8.52533 66.6198 8.776C66.9664 9.02667 67.1398 9.38133 67.1398 9.84C67.1398 10.144 67.0678 10.4 66.9238 10.608C66.7851 10.816 66.5931 10.9733 66.3478 11.08C66.1078 11.1867 65.8438 11.24 65.5558 11.24L65.6918 11.048C66.0491 11.048 66.3558 11.104 66.6118 11.216C66.8731 11.3227 67.0758 11.4853 67.2198 11.704C67.3638 11.9173 67.4358 12.184 67.4358 12.504C67.4358 12.9787 67.2598 13.3467 66.9078 13.608C66.5611 13.8693 66.0358 14 65.3318 14H62.7558ZM63.3478 13.512H65.3238C65.8144 13.512 66.1904 13.4293 66.4518 13.264C66.7131 13.0933 66.8438 12.824 66.8438 12.456C66.8438 12.0933 66.7131 11.8293 66.4518 11.664C66.1904 11.4933 65.8144 11.408 65.3238 11.408H63.2838V10.92H65.1318C65.5798 10.92 65.9264 10.8347 66.1718 10.664C66.4224 10.4933 66.5477 10.24 66.5477 9.904C66.5477 9.56267 66.4224 9.30933 66.1718 9.144C65.9264 8.97333 65.5798 8.888 65.1318 8.888H63.3478V13.512ZM70.379 14.04C69.9737 14.04 69.6083 13.9493 69.283 13.768C68.963 13.5813 68.7097 13.328 68.523 13.008C68.3363 12.6827 68.243 12.312 68.243 11.896C68.243 11.4747 68.3363 11.104 68.523 10.784C68.7097 10.464 68.963 10.2133 69.283 10.032C69.603 9.85067 69.9683 9.76 70.379 9.76C70.795 9.76 71.163 9.85067 71.483 10.032C71.8083 10.2133 72.0617 10.464 72.243 10.784C72.4297 11.104 72.523 11.4747 72.523 11.896C72.523 12.312 72.4297 12.6827 72.243 13.008C72.0617 13.328 71.8083 13.5813 71.483 13.768C71.1577 13.9493 70.7897 14.04 70.379 14.04ZM70.379 13.536C70.683 13.536 70.9523 13.4693 71.187 13.336C71.4217 13.1973 71.6057 13.0053 71.739 12.76C71.8777 12.5093 71.947 12.2213 71.947 11.896C71.947 11.5653 71.8777 11.2773 71.739 11.032C71.6057 10.7867 71.4217 10.5973 71.187 10.464C70.9523 10.3253 70.6857 10.256 70.387 10.256C70.0883 10.256 69.8217 10.3253 69.587 10.464C69.3523 10.5973 69.1657 10.7867 69.027 11.032C68.8883 11.2773 68.819 11.5653 68.819 11.896C68.819 12.2213 68.8883 12.5093 69.027 12.76C69.1657 13.0053 69.3523 13.1973 69.587 13.336C69.8217 13.4693 70.0857 13.536 70.379 13.536ZM72.8942 14L74.6702 11.696L74.6622 11.976L72.9742 9.8H73.6142L74.9982 11.6L74.7582 11.592L76.1422 9.8H76.7662L75.0622 12L75.0702 11.696L76.8622 14H76.2142L74.7502 12.08L74.9742 12.112L73.5342 14H72.8942Z" fill="black"/>
<path d="M307.062 14.048C306.63 14.048 306.246 13.936 305.91 13.712C305.574 13.4827 305.31 13.1573 305.118 12.736C304.926 12.3093 304.83 11.7973 304.83 11.2C304.83 10.6027 304.926 10.0933 305.118 9.672C305.31 9.24533 305.574 8.92 305.91 8.696C306.246 8.46667 306.63 8.352 307.062 8.352C307.494 8.352 307.878 8.46667 308.214 8.696C308.55 8.92 308.814 9.24533 309.006 9.672C309.203 10.0933 309.302 10.6027 309.302 11.2C309.302 11.7973 309.203 12.3093 309.006 12.736C308.814 13.1573 308.55 13.4827 308.214 13.712C307.878 13.936 307.494 14.048 307.062 14.048ZM307.062 13.52C307.393 13.52 307.681 13.432 307.926 13.256C308.171 13.0747 308.363 12.8133 308.502 12.472C308.641 12.1253 308.71 11.7013 308.71 11.2C308.71 10.6987 308.641 10.2773 308.502 9.936C308.363 9.58933 308.171 9.328 307.926 9.152C307.681 8.97067 307.393 8.88 307.062 8.88C306.742 8.88 306.457 8.97067 306.206 9.152C305.955 9.328 305.761 9.58933 305.622 9.936C305.483 10.2773 305.414 10.6987 305.414 11.2C305.414 11.7013 305.483 12.1253 305.622 12.472C305.761 12.8133 305.955 13.0747 306.206 13.256C306.457 13.432 306.742 13.52 307.062 13.52ZM311.871 8.352C312.367 8.352 312.786 8.464 313.127 8.688C313.468 8.90667 313.727 9.224 313.903 9.64C314.079 10.056 314.167 10.56 314.167 11.152C314.167 11.7813 314.058 12.312 313.839 12.744C313.626 13.176 313.327 13.5013 312.943 13.72C312.559 13.9387 312.114 14.048 311.607 14.048C311.356 14.048 311.116 14.024 310.887 13.976C310.663 13.928 310.46 13.8507 310.279 13.744L310.511 13.28C310.655 13.376 310.82 13.4453 311.007 13.488C311.199 13.5253 311.396 13.544 311.599 13.544C312.202 13.544 312.682 13.352 313.039 12.968C313.402 12.584 313.583 12.0107 313.583 11.248C313.583 11.1253 313.575 10.9787 313.559 10.808C313.548 10.6373 313.519 10.4667 313.471 10.296L313.671 10.448C313.618 10.7253 313.503 10.9627 313.327 11.16C313.156 11.352 312.943 11.4987 312.687 11.6C312.436 11.7013 312.156 11.752 311.847 11.752C311.479 11.752 311.151 11.6827 310.863 11.544C310.58 11.4053 310.359 11.2107 310.199 10.96C310.039 10.7093 309.959 10.4133 309.959 10.072C309.959 9.72 310.042 9.416 310.207 9.16C310.372 8.904 310.599 8.70667 310.887 8.568C311.18 8.424 311.508 8.352 311.871 8.352ZM311.895 8.84C311.628 8.84 311.391 8.89067 311.183 8.992C310.98 9.088 310.82 9.22667 310.703 9.408C310.586 9.58933 310.527 9.80533 310.527 10.056C310.527 10.424 310.652 10.7173 310.903 10.936C311.159 11.1547 311.503 11.264 311.935 11.264C312.223 11.264 312.474 11.2107 312.687 11.104C312.906 10.9973 313.074 10.8507 313.191 10.664C313.314 10.4773 313.375 10.2693 313.375 10.04C313.375 9.832 313.319 9.63733 313.207 9.456C313.095 9.27467 312.93 9.128 312.711 9.016C312.492 8.89867 312.22 8.84 311.895 8.84Z" fill="black"/>
<path d="M145.272 12.06C145.096 12.06 144.944 11.996 144.816 11.868C144.696 11.74 144.636 11.584 144.636 11.4C144.636 11.208 144.696 11.052 144.816 10.932C144.944 10.812 145.096 10.752 145.272 10.752C145.448 10.752 145.596 10.812 145.716 10.932C145.844 11.052 145.908 11.208 145.908 11.4C145.908 11.584 145.844 11.74 145.716 11.868C145.596 11.996 145.448 12.06 145.272 12.06ZM147.815 12.06C147.639 12.06 147.487 11.996 147.359 11.868C147.239 11.74 147.179 11.584 147.179 11.4C147.179 11.208 147.239 11.052 147.359 10.932C147.487 10.812 147.639 10.752 147.815 10.752C147.991 10.752 148.139 10.812 148.259 10.932C148.387 11.052 148.451 11.208 148.451 11.4C148.451 11.584 148.387 11.74 148.259 11.868C148.139 11.996 147.991 12.06 147.815 12.06ZM150.358 12.06C150.182 12.06 150.03 11.996 149.902 11.868C149.782 11.74 149.722 11.584 149.722 11.4C149.722 11.208 149.782 11.052 149.902 10.932C150.03 10.812 150.182 10.752 150.358 10.752C150.534 10.752 150.682 10.812 150.802 10.932C150.93 11.052 150.994 11.208 150.994 11.4C150.994 11.584 150.93 11.74 150.802 11.868C150.682 11.996 150.534 12.06 150.358 12.06ZM152.901 12.06C152.725 12.06 152.573 11.996 152.445 11.868C152.325 11.74 152.265 11.584 152.265 11.4C152.265 11.208 152.325 11.052 152.445 10.932C152.573 10.812 152.725 10.752 152.901 10.752C153.077 10.752 153.225 10.812 153.345 10.932C153.473 11.052 153.537 11.208 153.537 11.4C153.537 11.584 153.473 11.74 153.345 11.868C153.225 11.996 153.077 12.06 152.901 12.06ZM155.444 12.06C155.268 12.06 155.116 11.996 154.988 11.868C154.868 11.74 154.808 11.584 154.808 11.4C154.808 11.208 154.868 11.052 154.988 10.932C155.116 10.812 155.268 10.752 155.444 10.752C155.62 10.752 155.768 10.812 155.888 10.932C156.016 11.052 156.08 11.208 156.08 11.4C156.08 11.584 156.016 11.74 155.888 11.868C155.768 11.996 155.62 12.06 155.444 12.06ZM157.987 12.06C157.811 12.06 157.659 11.996 157.531 11.868C157.411 11.74 157.351 11.584 157.351 11.4C157.351 11.208 157.411 11.052 157.531 10.932C157.659 10.812 157.811 10.752 157.987 10.752C158.163 10.752 158.311 10.812 158.431 10.932C158.559 11.052 158.623 11.208 158.623 11.4C158.623 11.584 158.559 11.74 158.431 11.868C158.311 11.996 158.163 12.06 157.987 12.06ZM160.53 12.06C160.354 12.06 160.202 11.996 160.074 11.868C159.954 11.74 159.894 11.584 159.894 11.4C159.894 11.208 159.954 11.052 160.074 10.932C160.202 10.812 160.354 10.752 160.53 10.752C160.706 10.752 160.854 10.812 160.974 10.932C161.102 11.052 161.166 11.208 161.166 11.4C161.166 11.584 161.102 11.74 160.974 11.868C160.854 11.996 160.706 12.06 160.53 12.06ZM163.073 12.06C162.897 12.06 162.745 11.996 162.617 11.868C162.497 11.74 162.437 11.584 162.437 11.4C162.437 11.208 162.497 11.052 162.617 10.932C162.745 10.812 162.897 10.752 163.073 10.752C163.249 10.752 163.397 10.812 163.517 10.932C163.645 11.052 163.709 11.208 163.709 11.4C163.709 11.584 163.645 11.74 163.517 11.868C163.397 11.996 163.249 12.06 163.073 12.06ZM165.616 12.06C165.44 12.06 165.288 11.996 165.16 11.868C165.04 11.74 164.98 11.584 164.98 11.4C164.98 11.208 165.04 11.052 165.16 10.932C165.288 10.812 165.44 10.752 165.616 10.752C165.792 10.752 165.94 10.812 166.06 10.932C166.188 11.052 166.252 11.208 166.252 11.4C166.252 11.584 166.188 11.74 166.06 11.868C165.94 11.996 165.792 12.06 165.616 12.06ZM168.159 12.06C167.983 12.06 167.831 11.996 167.703 11.868C167.583 11.74 167.523 11.584 167.523 11.4C167.523 11.208 167.583 11.052 167.703 10.932C167.831 10.812 167.983 10.752 168.159 10.752C168.335 10.752 168.483 10.812 168.603 10.932C168.731 11.052 168.795 11.208 168.795 11.4C168.795 11.584 168.731 11.74 168.603 11.868C168.483 11.996 168.335 12.06 168.159 12.06ZM170.702 12.06C170.526 12.06 170.374 11.996 170.246 11.868C170.126 11.74 170.066 11.584 170.066 11.4C170.066 11.208 170.126 11.052 170.246 10.932C170.374 10.812 170.526 10.752 170.702 10.752C170.878 10.752 171.026 10.812 171.146 10.932C171.274 11.052 171.338 11.208 171.338 11.4C171.338 11.584 171.274 11.74 171.146 11.868C171.026 11.996 170.878 12.06 170.702 12.06ZM173.245 12.06C173.069 12.06 172.917 11.996 172.789 11.868C172.669 11.74 172.609 11.584 172.609 11.4C172.609 11.208 172.669 11.052 172.789 10.932C172.917 10.812 173.069 10.752 173.245 10.752C173.421 10.752 173.569 10.812 173.689 10.932C173.817 11.052 173.881 11.208 173.881 11.4C173.881 11.584 173.817 11.74 173.689 11.868C173.569 11.996 173.421 12.06 173.245 12.06ZM175.788 12.06C175.612 12.06 175.46 11.996 175.332 11.868C175.212 11.74 175.152 11.584 175.152 11.4C175.152 11.208 175.212 11.052 175.332 10.932C175.46 10.812 175.612 10.752 175.788 10.752C175.964 10.752 176.112 10.812 176.232 10.932C176.36 11.052 176.424 11.208 176.424 11.4C176.424 11.584 176.36 11.74 176.232 11.868C176.112 11.996 175.964 12.06 175.788 12.06ZM178.331 12.06C178.155 12.06 178.003 11.996 177.875 11.868C177.755 11.74 177.695 11.584 177.695 11.4C177.695 11.208 177.755 11.052 177.875 10.932C178.003 10.812 178.155 10.752 178.331 10.752C178.507 10.752 178.655 10.812 178.775 10.932C178.903 11.052 178.967 11.208 178.967 11.4C178.967 11.584 178.903 11.74 178.775 11.868C178.655 11.996 178.507 12.06 178.331 12.06ZM180.874 12.06C180.698 12.06 180.546 11.996 180.418 11.868C180.298 11.74 180.238 11.584 180.238 11.4C180.238 11.208 180.298 11.052 180.418 10.932C180.546 10.812 180.698 10.752 180.874 10.752C181.05 10.752 181.198 10.812 181.318 10.932C181.446 11.052 181.51 11.208 181.51 11.4C181.51 11.584 181.446 11.74 181.318 11.868C181.198 11.996 181.05 12.06 180.874 12.06ZM183.417 12.06C183.241 12.06 183.089 11.996 182.961 11.868C182.841 11.74 182.781 11.584 182.781 11.4C182.781 11.208 182.841 11.052 182.961 10.932C183.089 10.812 183.241 10.752 183.417 10.752C183.593 10.752 183.741 10.812 183.861 10.932C183.989 11.052 184.053 11.208 184.053 11.4C184.053 11.584 183.989 11.74 183.861 11.868C183.741 11.996 183.593 12.06 183.417 12.06ZM185.96 12.06C185.784 12.06 185.632 11.996 185.504 11.868C185.384 11.74 185.324 11.584 185.324 11.4C185.324 11.208 185.384 11.052 185.504 10.932C185.632 10.812 185.784 10.752 185.96 10.752C186.136 10.752 186.284 10.812 186.404 10.932C186.532 11.052 186.596 11.208 186.596 11.4C186.596 11.584 186.532 11.74 186.404 11.868C186.284 11.996 186.136 12.06 185.96 12.06ZM188.502 12.06C188.326 12.06 188.174 11.996 188.046 11.868C187.926 11.74 187.866 11.584 187.866 11.4C187.866 11.208 187.926 11.052 188.046 10.932C188.174 10.812 188.326 10.752 188.502 10.752C188.678 10.752 188.826 10.812 188.946 10.932C189.074 11.052 189.138 11.208 189.138 11.4C189.138 11.584 189.074 11.74 188.946 11.868C188.826 11.996 188.678 12.06 188.502 12.06ZM191.045 12.06C190.869 12.06 190.717 11.996 190.589 11.868C190.469 11.74 190.409 11.584 190.409 11.4C190.409 11.208 190.469 11.052 190.589 10.932C190.717 10.812 190.869 10.752 191.045 10.752C191.221 10.752 191.369 10.812 191.489 10.932C191.617 11.052 191.681 11.208 191.681 11.4C191.681 11.584 191.617 11.74 191.489 11.868C191.369 11.996 191.221 12.06 191.045 12.06ZM193.588 12.06C193.412 12.06 193.26 11.996 193.132 11.868C193.012 11.74 192.952 11.584 192.952 11.4C192.952 11.208 193.012 11.052 193.132 10.932C193.26 10.812 193.412 10.752 193.588 10.752C193.764 10.752 193.912 10.812 194.032 10.932C194.16 11.052 194.224 11.208 194.224 11.4C194.224 11.584 194.16 11.74 194.032 11.868C193.912 11.996 193.764 12.06 193.588 12.06ZM196.131 12.06C195.955 12.06 195.803 11.996 195.675 11.868C195.555 11.74 195.495 11.584 195.495 11.4C195.495 11.208 195.555 11.052 195.675 10.932C195.803 10.812 195.955 10.752 196.131 10.752C196.307 10.752 196.455 10.812 196.575 10.932C196.703 11.052 196.767 11.208 196.767 11.4C196.767 11.584 196.703 11.74 196.575 11.868C196.455 11.996 196.307 12.06 196.131 12.06ZM198.674 12.06C198.498 12.06 198.346 11.996 198.218 11.868C198.098 11.74 198.038 11.584 198.038 11.4C198.038 11.208 198.098 11.052 198.218 10.932C198.346 10.812 198.498 10.752 198.674 10.752C198.85 10.752 198.998 10.812 199.118 10.932C199.246 11.052 199.31 11.208 199.31 11.4C199.31 11.584 199.246 11.74 199.118 11.868C198.998 11.996 198.85 12.06 198.674 12.06ZM201.217 12.06C201.041 12.06 200.889 11.996 200.761 11.868C200.641 11.74 200.581 11.584 200.581 11.4C200.581 11.208 200.641 11.052 200.761 10.932C200.889 10.812 201.041 10.752 201.217 10.752C201.393 10.752 201.541 10.812 201.661 10.932C201.789 11.052 201.853 11.208 201.853 11.4C201.853 11.584 201.789 11.74 201.661 11.868C201.541 11.996 201.393 12.06 201.217 12.06ZM203.76 12.06C203.584 12.06 203.432 11.996 203.304 11.868C203.184 11.74 203.124 11.584 203.124 11.4C203.124 11.208 203.184 11.052 203.304 10.932C203.432 10.812 203.584 10.752 203.76 10.752C203.936 10.752 204.084 10.812 204.204 10.932C204.332 11.052 204.396 11.208 204.396 11.4C204.396 11.584 204.332 11.74 204.204 11.868C204.084 11.996 203.936 12.06 203.76 12.06ZM206.303 12.06C206.127 12.06 205.975 11.996 205.847 11.868C205.727 11.74 205.667 11.584 205.667 11.4C205.667 11.208 205.727 11.052 205.847 10.932C205.975 10.812 206.127 10.752 206.303 10.752C206.479 10.752 206.627 10.812 206.747 10.932C206.875 11.052 206.939 11.208 206.939 11.4C206.939 11.584 206.875 11.74 206.747 11.868C206.627 11.996 206.479 12.06 206.303 12.06ZM208.846 12.06C208.67 12.06 208.518 11.996 208.39 11.868C208.27 11.74 208.21 11.584 208.21 11.4C208.21 11.208 208.27 11.052 208.39 10.932C208.518 10.812 208.67 10.752 208.846 10.752C209.022 10.752 209.17 10.812 209.29 10.932C209.418 11.052 209.482 11.208 209.482 11.4C209.482 11.584 209.418 11.74 209.29 11.868C209.17 11.996 209.022 12.06 208.846 12.06ZM211.389 12.06C211.213 12.06 211.061 11.996 210.933 11.868C210.813 11.74 210.753 11.584 210.753 11.4C210.753 11.208 210.813 11.052 210.933 10.932C211.061 10.812 211.213 10.752 211.389 10.752C211.565 10.752 211.713 10.812 211.833 10.932C211.961 11.052 212.025 11.208 212.025 11.4C212.025 11.584 211.961 11.74 211.833 11.868C211.713 11.996 211.565 12.06 211.389 12.06ZM213.932 12.06C213.756 12.06 213.604 11.996 213.476 11.868C213.356 11.74 213.296 11.584 213.296 11.4C213.296 11.208 213.356 11.052 213.476 10.932C213.604 10.812 213.756 10.752 213.932 10.752C214.108 10.752 214.256 10.812 214.376 10.932C214.504 11.052 214.568 11.208 214.568 11.4C214.568 11.584 214.504 11.74 214.376 11.868C214.256 11.996 214.108 12.06 213.932 12.06ZM216.475 12.06C216.299 12.06 216.147 11.996 216.019 11.868C215.899 11.74 215.839 11.584 215.839 11.4C215.839 11.208 215.899 11.052 216.019 10.932C216.147 10.812 216.299 10.752 216.475 10.752C216.651 10.752 216.799 10.812 216.919 10.932C217.047 11.052 217.111 11.208 217.111 11.4C217.111 11.584 217.047 11.74 216.919 11.868C216.799 11.996 216.651 12.06 216.475 12.06ZM219.018 12.06C218.842 12.06 218.69 11.996 218.562 11.868C218.442 11.74 218.382 11.584 218.382 11.4C218.382 11.208 218.442 11.052 218.562 10.932C218.69 10.812 218.842 10.752 219.018 10.752C219.194 10.752 219.342 10.812 219.462 10.932C219.59 11.052 219.654 11.208 219.654 11.4C219.654 11.584 219.59 11.74 219.462 11.868C219.342 11.996 219.194 12.06 219.018 12.06ZM221.561 12.06C221.385 12.06 221.233 11.996 221.105 11.868C220.985 11.74 220.925 11.584 220.925 11.4C220.925 11.208 220.985 11.052 221.105 10.932C221.233 10.812 221.385 10.752 221.561 10.752C221.737 10.752 221.885 10.812 222.005 10.932C222.133 11.052 222.197 11.208 222.197 11.4C222.197 11.584 222.133 11.74 222.005 11.868C221.885 11.996 221.737 12.06 221.561 12.06ZM224.104 12.06C223.928 12.06 223.776 11.996 223.648 11.868C223.528 11.74 223.468 11.584 223.468 11.4C223.468 11.208 223.528 11.052 223.648 10.932C223.776 10.812 223.928 10.752 224.104 10.752C224.28 10.752 224.428 10.812 224.548 10.932C224.676 11.052 224.74 11.208 224.74 11.4C224.74 11.584 224.676 11.74 224.548 11.868C224.428 11.996 224.28 12.06 224.104 12.06ZM226.647 12.06C226.471 12.06 226.319 11.996 226.191 11.868C226.071 11.74 226.011 11.584 226.011 11.4C226.011 11.208 226.071 11.052 226.191 10.932C226.319 10.812 226.471 10.752 226.647 10.752C226.823 10.752 226.971 10.812 227.091 10.932C227.219 11.052 227.283 11.208 227.283 11.4C227.283 11.584 227.219 11.74 227.091 11.868C226.971 11.996 226.823 12.06 226.647 12.06ZM229.19 12.06C229.014 12.06 228.862 11.996 228.734 11.868C228.614 11.74 228.554 11.584 228.554 11.4C228.554 11.208 228.614 11.052 228.734 10.932C228.862 10.812 229.014 10.752 229.19 10.752C229.366 10.752 229.514 10.812 229.634 10.932C229.762 11.052 229.826 11.208 229.826 11.4C229.826 11.584 229.762 11.74 229.634 11.868C229.514 11.996 229.366 12.06 229.19 12.06ZM231.733 12.06C231.557 12.06 231.405 11.996 231.277 11.868C231.157 11.74 231.097 11.584 231.097 11.4C231.097 11.208 231.157 11.052 231.277 10.932C231.405 10.812 231.557 10.752 231.733 10.752C231.909 10.752 232.057 10.812 232.177 10.932C232.305 11.052 232.369 11.208 232.369 11.4C232.369 11.584 232.305 11.74 232.177 11.868C232.057 11.996 231.909 12.06 231.733 12.06ZM234.276 12.06C234.1 12.06 233.948 11.996 233.82 11.868C233.7 11.74 233.64 11.584 233.64 11.4C233.64 11.208 233.7 11.052 233.82 10.932C233.948 10.812 234.1 10.752 234.276 10.752C234.452 10.752 234.6 10.812 234.72 10.932C234.848 11.052 234.912 11.208 234.912 11.4C234.912 11.584 234.848 11.74 234.72 11.868C234.6 11.996 234.452 12.06 234.276 12.06ZM236.819 12.06C236.643 12.06 236.491 11.996 236.363 11.868C236.243 11.74 236.183 11.584 236.183 11.4C236.183 11.208 236.243 11.052 236.363 10.932C236.491 10.812 236.643 10.752 236.819 10.752C236.995 10.752 237.143 10.812 237.263 10.932C237.391 11.052 237.455 11.208 237.455 11.4C237.455 11.584 237.391 11.74 237.263 11.868C237.143 11.996 236.995 12.06 236.819 12.06ZM239.362 12.06C239.186 12.06 239.034 11.996 238.906 11.868C238.786 11.74 238.726 11.584 238.726 11.4C238.726 11.208 238.786 11.052 238.906 10.932C239.034 10.812 239.186 10.752 239.362 10.752C239.538 10.752 239.686 10.812 239.806 10.932C239.934 11.052 239.998 11.208 239.998 11.4C239.998 11.584 239.934 11.74 239.806 11.868C239.686 11.996 239.538 12.06 239.362 12.06ZM241.905 12.06C241.729 12.06 241.577 11.996 241.449 11.868C241.329 11.74 241.269 11.584 241.269 11.4C241.269 11.208 241.329 11.052 241.449 10.932C241.577 10.812 241.729 10.752 241.905 10.752C242.081 10.752 242.229 10.812 242.349 10.932C242.477 11.052 242.541 11.208 242.541 11.4C242.541 11.584 242.477 11.74 242.349 11.868C242.229 11.996 242.081 12.06 241.905 12.06ZM244.448 12.06C244.272 12.06 244.12 11.996 243.992 11.868C243.872 11.74 243.812 11.584 243.812 11.4C243.812 11.208 243.872 11.052 243.992 10.932C244.12 10.812 244.272 10.752 244.448 10.752C244.624 10.752 244.772 10.812 244.892 10.932C245.02 11.052 245.084 11.208 245.084 11.4C245.084 11.584 245.02 11.74 244.892 11.868C244.772 11.996 244.624 12.06 244.448 12.06ZM246.991 12.06C246.815 12.06 246.663 11.996 246.535 11.868C246.415 11.74 246.355 11.584 246.355 11.4C246.355 11.208 246.415 11.052 246.535 10.932C246.663 10.812 246.815 10.752 246.991 10.752C247.167 10.752 247.315 10.812 247.435 10.932C247.563 11.052 247.627 11.208 247.627 11.4C247.627 11.584 247.563 11.74 247.435 11.868C247.315 11.996 247.167 12.06 246.991 12.06ZM249.534 12.06C249.358 12.06 249.206 11.996 249.078 11.868C248.958 11.74 248.898 11.584 248.898 11.4C248.898 11.208 248.958 11.052 249.078 10.932C249.206 10.812 249.358 10.752 249.534 10.752C249.71 10.752 249.858 10.812 249.978 10.932C250.106 11.052 250.17 11.208 250.17 11.4C250.17 11.584 250.106 11.74 249.978 11.868C249.858 11.996 249.71 12.06 249.534 12.06ZM252.077 12.06C251.901 12.06 251.749 11.996 251.621 11.868C251.501 11.74 251.441 11.584 251.441 11.4C251.441 11.208 251.501 11.052 251.621 10.932C251.749 10.812 251.901 10.752 252.077 10.752C252.253 10.752 252.401 10.812 252.521 10.932C252.649 11.052 252.713 11.208 252.713 11.4C252.713 11.584 252.649 11.74 252.521 11.868C252.401 11.996 252.253 12.06 252.077 12.06ZM254.62 12.06C254.444 12.06 254.292 11.996 254.164 11.868C254.044 11.74 253.984 11.584 253.984 11.4C253.984 11.208 254.044 11.052 254.164 10.932C254.292 10.812 254.444 10.752 254.62 10.752C254.796 10.752 254.944 10.812 255.064 10.932C255.192 11.052 255.256 11.208 255.256 11.4C255.256 11.584 255.192 11.74 255.064 11.868C254.944 11.996 254.796 12.06 254.62 12.06ZM257.163 12.06C256.987 12.06 256.835 11.996 256.707 11.868C256.587 11.74 256.527 11.584 256.527 11.4C256.527 11.208 256.587 11.052 256.707 10.932C256.835 10.812 256.987 10.752 257.163 10.752C257.339 10.752 257.487 10.812 257.607 10.932C257.735 11.052 257.799 11.208 257.799 11.4C257.799 11.584 257.735 11.74 257.607 11.868C257.487 11.996 257.339 12.06 257.163 12.06ZM259.706 12.06C259.53 12.06 259.378 11.996 259.25 11.868C259.13 11.74 259.07 11.584 259.07 11.4C259.07 11.208 259.13 11.052 259.25 10.932C259.378 10.812 259.53 10.752 259.706 10.752C259.882 10.752 260.03 10.812 260.15 10.932C260.278 11.052 260.342 11.208 260.342 11.4C260.342 11.584 260.278 11.74 260.15 11.868C260.03 11.996 259.882 12.06 259.706 12.06ZM262.249 12.06C262.073 12.06 261.921 11.996 261.793 11.868C261.673 11.74 261.613 11.584 261.613 11.4C261.613 11.208 261.673 11.052 261.793 10.932C261.921 10.812 262.073 10.752 262.249 10.752C262.425 10.752 262.573 10.812 262.693 10.932C262.821 11.052 262.885 11.208 262.885 11.4C262.885 11.584 262.821 11.74 262.693 11.868C262.573 11.996 262.425 12.06 262.249 12.06ZM264.792 12.06C264.616 12.06 264.464 11.996 264.336 11.868C264.216 11.74 264.156 11.584 264.156 11.4C264.156 11.208 264.216 11.052 264.336 10.932C264.464 10.812 264.616 10.752 264.792 10.752C264.968 10.752 265.116 10.812 265.236 10.932C265.364 11.052 265.428 11.208 265.428 11.4C265.428 11.584 265.364 11.74 265.236 11.868C265.116 11.996 264.968 12.06 264.792 12.06ZM267.335 12.06C267.159 12.06 267.007 11.996 266.879 11.868C266.759 11.74 266.699 11.584 266.699 11.4C266.699 11.208 266.759 11.052 266.879 10.932C267.007 10.812 267.159 10.752 267.335 10.752C267.511 10.752 267.659 10.812 267.779 10.932C267.907 11.052 267.971 11.208 267.971 11.4C267.971 11.584 267.907 11.74 267.779 11.868C267.659 11.996 267.511 12.06 267.335 12.06ZM269.877 12.06C269.701 12.06 269.549 11.996 269.421 11.868C269.301 11.74 269.241 11.584 269.241 11.4C269.241 11.208 269.301 11.052 269.421 10.932C269.549 10.812 269.701 10.752 269.877 10.752C270.053 10.752 270.201 10.812 270.321 10.932C270.449 11.052 270.513 11.208 270.513 11.4C270.513 11.584 270.449 11.74 270.321 11.868C270.201 11.996 270.053 12.06 269.877 12.06ZM272.42 12.06C272.244 12.06 272.092 11.996 271.964 11.868C271.844 11.74 271.784 11.584 271.784 11.4C271.784 11.208 271.844 11.052 271.964 10.932C272.092 10.812 272.244 10.752 272.42 10.752C272.596 10.752 272.744 10.812 272.864 10.932C272.992 11.052 273.056 11.208 273.056 11.4C273.056 11.584 272.992 11.74 272.864 11.868C272.744 11.996 272.596 12.06 272.42 12.06ZM274.963 12.06C274.787 12.06 274.635 11.996 274.507 11.868C274.387 11.74 274.327 11.584 274.327 11.4C274.327 11.208 274.387 11.052 274.507 10.932C274.635 10.812 274.787 10.752 274.963 10.752C275.139 10.752 275.287 10.812 275.407 10.932C275.535 11.052 275.599 11.208 275.599 11.4C275.599 11.584 275.535 11.74 275.407 11.868C275.287 11.996 275.139 12.06 274.963 12.06ZM277.506 12.06C277.33 12.06 277.178 11.996 277.05 11.868C276.93 11.74 276.87 11.584 276.87 11.4C276.87 11.208 276.93 11.052 277.05 10.932C277.178 10.812 277.33 10.752 277.506 10.752C277.682 10.752 277.83 10.812 277.95 10.932C278.078 11.052 278.142 11.208 278.142 11.4C278.142 11.584 278.078 11.74 277.95 11.868C277.83 11.996 277.682 12.06 277.506 12.06ZM280.049 12.06C279.873 12.06 279.721 11.996 279.593 11.868C279.473 11.74 279.413 11.584 279.413 11.4C279.413 11.208 279.473 11.052 279.593 10.932C279.721 10.812 279.873 10.752 280.049 10.752C280.225 10.752 280.373 10.812 280.493 10.932C280.621 11.052 280.685 11.208 280.685 11.4C280.685 11.584 280.621 11.74 280.493 11.868C280.373 11.996 280.225 12.06 280.049 12.06ZM282.592 12.06C282.416 12.06 282.264 11.996 282.136 11.868C282.016 11.74 281.956 11.584 281.956 11.4C281.956 11.208 282.016 11.052 282.136 10.932C282.264 10.812 282.416 10.752 282.592 10.752C282.768 10.752 282.916 10.812 283.036 10.932C283.164 11.052 283.228 11.208 283.228 11.4C283.228 11.584 283.164 11.74 283.036 11.868C282.916 11.996 282.768 12.06 282.592 12.06ZM285.135 12.06C284.959 12.06 284.807 11.996 284.679 11.868C284.559 11.74 284.499 11.584 284.499 11.4C284.499 11.208 284.559 11.052 284.679 10.932C284.807 10.812 284.959 10.752 285.135 10.752C285.311 10.752 285.459 10.812 285.579 10.932C285.707 11.052 285.771 11.208 285.771 11.4C285.771 11.584 285.707 11.74 285.579 11.868C285.459 11.996 285.311 12.06 285.135 12.06ZM287.678 12.06C287.502 12.06 287.35 11.996 287.222 11.868C287.102 11.74 287.042 11.584 287.042 11.4C287.042 11.208 287.102 11.052 287.222 10.932C287.35 10.812 287.502 10.752 287.678 10.752C287.854 10.752 288.002 10.812 288.122 10.932C288.25 11.052 288.314 11.208 288.314 11.4C288.314 11.584 288.25 11.74 288.122 11.868C288.002 11.996 287.854 12.06 287.678 12.06ZM290.221 12.06C290.045 12.06 289.893 11.996 289.765 11.868C289.645 11.74 289.585 11.584 289.585 11.4C289.585 11.208 289.645 11.052 289.765 10.932C289.893 10.812 290.045 10.752 290.221 10.752C290.397 10.752 290.545 10.812 290.665 10.932C290.793 11.052 290.857 11.208 290.857 11.4C290.857 11.584 290.793 11.74 290.665 11.868C290.545 11.996 290.397 12.06 290.221 12.06Z" fill="black"/>
</svg>
