<svg width="322" height="18" viewBox="0 0 322 18" fill="none" xmlns="http://www.w3.org/2000/svg">
<path d="M2 12V6.912H0.032V6.4H4.56V6.912H2.592V12H2ZM6.03375 8.904H8.99375V9.408H6.03375V8.904ZM6.09775 11.488H9.46575V12H5.50575V6.4H9.34575V6.912H6.09775V11.488ZM14.2231 12.048C13.8231 12.048 13.4417 11.984 13.0791 11.856C12.7164 11.7227 12.4284 11.5467 12.2151 11.328L12.4951 10.872C12.6711 11.0587 12.9111 11.2133 13.2151 11.336C13.5244 11.4587 13.8577 11.52 14.2151 11.52C14.6897 11.52 15.0497 11.416 15.2951 11.208C15.5457 10.9947 15.6711 10.7173 15.6711 10.376C15.6711 10.136 15.6124 9.93067 15.4951 9.76C15.3831 9.584 15.1911 9.448 14.9191 9.352C14.6471 9.256 14.2737 9.208 13.7991 9.208H12.6071L12.8951 6.4H15.9591V6.912H13.1271L13.4231 6.632L13.1751 8.984L12.8791 8.696H13.9271C14.4924 8.696 14.9457 8.76533 15.2871 8.904C15.6284 9.04267 15.8737 9.23733 16.0231 9.488C16.1777 9.73333 16.2551 10.0213 16.2551 10.352C16.2551 10.6667 16.1804 10.9547 16.0311 11.216C15.8817 11.472 15.6577 11.6747 15.3591 11.824C15.0604 11.9733 14.6817 12.048 14.2231 12.048ZM19.2183 12.048C18.7863 12.048 18.4023 11.936 18.0663 11.712C17.7303 11.4827 17.4663 11.1573 17.2743 10.736C17.0823 10.3093 16.9863 9.79733 16.9863 9.2C16.9863 8.60267 17.0823 8.09333 17.2743 7.672C17.4663 7.24533 17.7303 6.92 18.0663 6.696C18.4023 6.46667 18.7863 6.352 19.2183 6.352C19.6503 6.352 20.0343 6.46667 20.3703 6.696C20.7063 6.92 20.9703 7.24533 21.1623 7.672C21.3596 8.09333 21.4583 8.60267 21.4583 9.2C21.4583 9.79733 21.3596 10.3093 21.1623 10.736C20.9703 11.1573 20.7063 11.4827 20.3703 11.712C20.0343 11.936 19.6503 12.048 19.2183 12.048ZM19.2183 11.52C19.549 11.52 19.837 11.432 20.0823 11.256C20.3276 11.0747 20.5196 10.8133 20.6583 10.472C20.797 10.1253 20.8663 9.70133 20.8663 9.2C20.8663 8.69867 20.797 8.27733 20.6583 7.936C20.5196 7.58933 20.3276 7.328 20.0823 7.152C19.837 6.97067 19.549 6.88 19.2183 6.88C18.8983 6.88 18.613 6.97067 18.3623 7.152C18.1116 7.328 17.917 7.58933 17.7783 7.936C17.6396 8.27733 17.5703 8.69867 17.5703 9.2C17.5703 9.70133 17.6396 10.1253 17.7783 10.472C17.917 10.8133 18.1116 11.0747 18.3623 11.256C18.613 11.432 18.8983 11.52 19.2183 11.52ZM24.5152 12.048C24.0832 12.048 23.6992 11.936 23.3632 11.712C23.0272 11.4827 22.7632 11.1573 22.5712 10.736C22.3792 10.3093 22.2832 9.79733 22.2832 9.2C22.2832 8.60267 22.3792 8.09333 22.5712 7.672C22.7632 7.24533 23.0272 6.92 23.3632 6.696C23.6992 6.46667 24.0832 6.352 24.5152 6.352C24.9472 6.352 25.3312 6.46667 25.6672 6.696C26.0032 6.92 26.2672 7.24533 26.4592 7.672C26.6565 8.09333 26.7552 8.60267 26.7552 9.2C26.7552 9.79733 26.6565 10.3093 26.4592 10.736C26.2672 11.1573 26.0032 11.4827 25.6672 11.712C25.3312 11.936 24.9472 12.048 24.5152 12.048ZM24.5152 11.52C24.8459 11.52 25.1339 11.432 25.3792 11.256C25.6245 11.0747 25.8165 10.8133 25.9552 10.472C26.0939 10.1253 26.1632 9.70133 26.1632 9.2C26.1632 8.69867 26.0939 8.27733 25.9552 7.936C25.8165 7.58933 25.6245 7.328 25.3792 7.152C25.1339 6.97067 24.8459 6.88 24.5152 6.88C24.1952 6.88 23.9099 6.97067 23.6592 7.152C23.4085 7.328 23.2139 7.58933 23.0752 7.936C22.9365 8.27733 22.8672 8.69867 22.8672 9.2C22.8672 9.70133 22.9365 10.1253 23.0752 10.472C23.2139 10.8133 23.4085 11.0747 23.6592 11.256C23.9099 11.432 24.1952 11.52 24.5152 11.52ZM29.7481 13.592C29.3641 13.592 28.9961 13.536 28.6441 13.424C28.2921 13.312 28.0067 13.152 27.7881 12.944L28.0761 12.512C28.2734 12.688 28.5161 12.8267 28.8041 12.928C29.0974 13.0347 29.4067 13.088 29.7321 13.088C30.2654 13.088 30.6574 12.9627 30.9081 12.712C31.1587 12.4667 31.2841 12.0827 31.2841 11.56V10.512L31.3641 9.792L31.3081 9.072V7.8H31.8521V11.488C31.8521 12.2133 31.6734 12.744 31.3161 13.08C30.9641 13.4213 30.4414 13.592 29.7481 13.592ZM29.6441 11.84C29.2441 11.84 28.8841 11.7547 28.5641 11.584C28.2441 11.408 27.9907 11.1653 27.8041 10.856C27.6227 10.5467 27.5321 10.192 27.5321 9.792C27.5321 9.392 27.6227 9.04 27.8041 8.736C27.9907 8.42667 28.2441 8.18667 28.5641 8.016C28.8841 7.84533 29.2441 7.76 29.6441 7.76C30.0174 7.76 30.3534 7.83733 30.6521 7.992C30.9507 8.14667 31.1881 8.376 31.3641 8.68C31.5401 8.984 31.6281 9.35467 31.6281 9.792C31.6281 10.2293 31.5401 10.6 31.3641 10.904C31.1881 11.208 30.9507 11.44 30.6521 11.6C30.3534 11.76 30.0174 11.84 29.6441 11.84ZM29.7001 11.336C30.0094 11.336 30.2841 11.272 30.5241 11.144C30.7641 11.0107 30.9534 10.8293 31.0921 10.6C31.2307 10.3653 31.3001 10.096 31.3001 9.792C31.3001 9.488 31.2307 9.22133 31.0921 8.992C30.9534 8.76267 30.7641 8.584 30.5241 8.456C30.2841 8.32267 30.0094 8.256 29.7001 8.256C29.3961 8.256 29.1214 8.32267 28.8761 8.456C28.6361 8.584 28.4467 8.76267 28.3081 8.992C28.1747 9.22133 28.1081 9.488 28.1081 9.792C28.1081 10.096 28.1747 10.3653 28.3081 10.6C28.4467 10.8293 28.6361 11.0107 28.8761 11.144C29.1214 11.272 29.3961 11.336 29.7001 11.336ZM38.6806 7.76C39.022 7.76 39.318 7.82667 39.5686 7.96C39.8246 8.088 40.022 8.28533 40.1606 8.552C40.3046 8.81867 40.3766 9.15467 40.3766 9.56V12H39.8086V9.616C39.8086 9.17333 39.702 8.84 39.4886 8.616C39.2806 8.38667 38.9846 8.272 38.6006 8.272C38.3126 8.272 38.062 8.33333 37.8486 8.456C37.6406 8.57333 37.478 8.74667 37.3606 8.976C37.2486 9.2 37.1926 9.472 37.1926 9.792V12H36.6246V9.616C36.6246 9.17333 36.518 8.84 36.3046 8.616C36.0913 8.38667 35.7926 8.272 35.4086 8.272C35.126 8.272 34.878 8.33333 34.6646 8.456C34.4513 8.57333 34.286 8.74667 34.1686 8.976C34.0566 9.2 34.0006 9.472 34.0006 9.792V12H33.4326V7.8H33.9766V8.936L33.8886 8.736C34.0166 8.432 34.222 8.19467 34.5046 8.024C34.7926 7.848 35.1313 7.76 35.5206 7.76C35.9313 7.76 36.2806 7.864 36.5686 8.072C36.8566 8.27467 37.0433 8.58133 37.1286 8.992L36.9046 8.904C37.0273 8.56267 37.2433 8.288 37.5526 8.08C37.8673 7.86667 38.2433 7.76 38.6806 7.76ZM43.045 12.04C42.6983 12.04 42.3703 11.992 42.061 11.896C41.7517 11.7947 41.509 11.6693 41.333 11.52L41.589 11.072C41.7597 11.2 41.9783 11.312 42.245 11.408C42.5117 11.4987 42.7917 11.544 43.085 11.544C43.485 11.544 43.773 11.4827 43.949 11.36C44.125 11.232 44.213 11.064 44.213 10.856C44.213 10.7013 44.1623 10.5813 44.061 10.496C43.965 10.4053 43.837 10.3387 43.677 10.296C43.517 10.248 43.3383 10.208 43.141 10.176C42.9437 10.144 42.7463 10.1067 42.549 10.064C42.357 10.0213 42.181 9.96 42.021 9.88C41.861 9.79467 41.7303 9.68 41.629 9.536C41.533 9.392 41.485 9.2 41.485 8.96C41.485 8.73067 41.549 8.52533 41.677 8.344C41.805 8.16267 41.9917 8.02133 42.237 7.92C42.4877 7.81333 42.7917 7.76 43.149 7.76C43.421 7.76 43.693 7.79733 43.965 7.872C44.237 7.94133 44.461 8.03467 44.637 8.152L44.389 8.608C44.2023 8.48 44.0023 8.38933 43.789 8.336C43.5757 8.27733 43.3623 8.248 43.149 8.248C42.7703 8.248 42.4903 8.31467 42.309 8.448C42.133 8.576 42.045 8.74133 42.045 8.944C42.045 9.104 42.093 9.22933 42.189 9.32C42.2903 9.41067 42.421 9.48267 42.581 9.536C42.7463 9.584 42.925 9.624 43.117 9.656C43.3143 9.688 43.509 9.728 43.701 9.776C43.8983 9.81867 44.077 9.88 44.237 9.96C44.4023 10.0347 44.533 10.144 44.629 10.288C44.7303 10.4267 44.781 10.6107 44.781 10.84C44.781 11.0853 44.7117 11.2987 44.573 11.48C44.4397 11.656 44.2423 11.7947 43.981 11.896C43.725 11.992 43.413 12.04 43.045 12.04ZM49.581 12.048C49.165 12.048 48.765 11.9813 48.381 11.848C48.0023 11.7093 47.709 11.5333 47.501 11.32L47.733 10.864C47.9303 11.056 48.1943 11.2187 48.525 11.352C48.861 11.48 49.213 11.544 49.581 11.544C49.933 11.544 50.2183 11.5013 50.437 11.416C50.661 11.3253 50.8237 11.2053 50.925 11.056C51.0317 10.9067 51.085 10.7413 51.085 10.56C51.085 10.3413 51.021 10.1653 50.893 10.032C50.7703 9.89867 50.6077 9.79467 50.405 9.72C50.2023 9.64 49.9783 9.57067 49.733 9.512C49.4877 9.45333 49.2423 9.392 48.997 9.328C48.7517 9.25867 48.525 9.168 48.317 9.056C48.1143 8.944 47.949 8.79733 47.821 8.616C47.6983 8.42933 47.637 8.18667 47.637 7.888C47.637 7.61067 47.709 7.35733 47.853 7.128C48.0023 6.89333 48.229 6.70667 48.533 6.568C48.837 6.424 49.2263 6.352 49.701 6.352C50.0157 6.352 50.3277 6.39733 50.637 6.488C50.9463 6.57333 51.213 6.69333 51.437 6.848L51.237 7.32C50.997 7.16 50.741 7.04267 50.469 6.968C50.2023 6.89333 49.9437 6.856 49.693 6.856C49.357 6.856 49.0797 6.90133 48.861 6.992C48.6423 7.08267 48.4797 7.20533 48.373 7.36C48.2717 7.50933 48.221 7.68 48.221 7.872C48.221 8.09067 48.2823 8.26667 48.405 8.4C48.533 8.53333 48.6983 8.63733 48.901 8.712C49.109 8.78667 49.3357 8.85333 49.581 8.912C49.8263 8.97067 50.069 9.03467 50.309 9.104C50.5543 9.17333 50.7783 9.264 50.981 9.376C51.189 9.48267 51.3543 9.62667 51.477 9.808C51.605 9.98933 51.669 10.2267 51.669 10.52C51.669 10.792 51.5943 11.0453 51.445 11.28C51.2957 11.5093 51.0663 11.696 50.757 11.84C50.453 11.9787 50.061 12.048 49.581 12.048ZM53.6168 12L52.0328 7.8H52.5768L54.0168 11.696H53.7688L55.2488 7.8H55.7368L57.2008 11.696H56.9528L58.4168 7.8H58.9368L57.3448 12H56.8088L55.4008 8.336H55.5688L54.1528 12H53.6168ZM61.4588 12.04C61.0215 12.04 60.6375 11.9493 60.3068 11.768C59.9761 11.5813 59.7175 11.328 59.5308 11.008C59.3441 10.6827 59.2508 10.312 59.2508 9.896C59.2508 9.48 59.3388 9.112 59.5148 8.792C59.6961 8.472 59.9415 8.22133 60.2508 8.04C60.5655 7.85333 60.9175 7.76 61.3068 7.76C61.7015 7.76 62.0508 7.85067 62.3548 8.032C62.6641 8.208 62.9068 8.45867 63.0828 8.784C63.2588 9.104 63.3468 9.47467 63.3468 9.896C63.3468 9.92267 63.3441 9.952 63.3388 9.984C63.3388 10.0107 63.3388 10.04 63.3388 10.072H59.6828V9.648H63.0348L62.8108 9.816C62.8108 9.512 62.7441 9.24267 62.6108 9.008C62.4828 8.768 62.3068 8.58133 62.0828 8.448C61.8588 8.31467 61.6001 8.248 61.3068 8.248C61.0188 8.248 60.7601 8.31467 60.5308 8.448C60.3015 8.58133 60.1228 8.768 59.9948 9.008C59.8668 9.248 59.8028 9.52267 59.8028 9.832V9.92C59.8028 10.24 59.8721 10.5227 60.0108 10.768C60.1548 11.008 60.3521 11.1973 60.6028 11.336C60.8588 11.4693 61.1495 11.536 61.4748 11.536C61.7308 11.536 61.9681 11.4907 62.1868 11.4C62.4108 11.3093 62.6028 11.1707 62.7628 10.984L63.0828 11.352C62.8961 11.576 62.6615 11.7467 62.3788 11.864C62.1015 11.9813 61.7948 12.04 61.4588 12.04ZM66.2869 12.04C65.8496 12.04 65.4656 11.9493 65.1349 11.768C64.8043 11.5813 64.5456 11.328 64.3589 11.008C64.1723 10.6827 64.0789 10.312 64.0789 9.896C64.0789 9.48 64.1669 9.112 64.3429 8.792C64.5243 8.472 64.7696 8.22133 65.0789 8.04C65.3936 7.85333 65.7456 7.76 66.1349 7.76C66.5296 7.76 66.8789 7.85067 67.1829 8.032C67.4923 8.208 67.7349 8.45867 67.9109 8.784C68.0869 9.104 68.1749 9.47467 68.1749 9.896C68.1749 9.92267 68.1723 9.952 68.1669 9.984C68.1669 10.0107 68.1669 10.04 68.1669 10.072H64.5109V9.648H67.8629L67.6389 9.816C67.6389 9.512 67.5723 9.24267 67.4389 9.008C67.3109 8.768 67.1349 8.58133 66.9109 8.448C66.6869 8.31467 66.4283 8.248 66.1349 8.248C65.8469 8.248 65.5883 8.31467 65.3589 8.448C65.1296 8.58133 64.9509 8.768 64.8229 9.008C64.6949 9.248 64.6309 9.52267 64.6309 9.832V9.92C64.6309 10.24 64.7003 10.5227 64.8389 10.768C64.9829 11.008 65.1803 11.1973 65.4309 11.336C65.6869 11.4693 65.9776 11.536 66.3029 11.536C66.5589 11.536 66.7963 11.4907 67.0149 11.4C67.2389 11.3093 67.4309 11.1707 67.5909 10.984L67.9109 11.352C67.7243 11.576 67.4896 11.7467 67.2069 11.864C66.9296 11.9813 66.6229 12.04 66.2869 12.04ZM70.6591 12.04C70.2644 12.04 69.9604 11.9333 69.7471 11.72C69.5337 11.5067 69.4271 11.2053 69.4271 10.816V6.872H69.9951V10.784C69.9951 11.0293 70.0564 11.2187 70.1791 11.352C70.3071 11.4853 70.4884 11.552 70.7231 11.552C70.9737 11.552 71.1817 11.48 71.3471 11.336L71.5471 11.744C71.4351 11.8453 71.2991 11.92 71.1391 11.968C70.9844 12.016 70.8244 12.04 70.6591 12.04ZM68.6751 8.272V7.8H71.2751V8.272H68.6751ZM74.7948 12V6.4H77.2108C77.8348 6.4 78.3175 6.52533 78.6588 6.776C79.0055 7.02667 79.1788 7.38133 79.1788 7.84C79.1788 8.144 79.1068 8.4 78.9628 8.608C78.8241 8.816 78.6321 8.97333 78.3868 9.08C78.1468 9.18667 77.8828 9.24 77.5948 9.24L77.7308 9.048C78.0881 9.048 78.3948 9.104 78.6508 9.216C78.9121 9.32267 79.1148 9.48533 79.2588 9.704C79.4028 9.91733 79.4748 10.184 79.4748 10.504C79.4748 10.9787 79.2988 11.3467 78.9468 11.608C78.6001 11.8693 78.0748 12 77.3708 12H74.7948ZM75.3868 11.512H77.3628C77.8535 11.512 78.2295 11.4293 78.4908 11.264C78.7521 11.0933 78.8828 10.824 78.8828 10.456C78.8828 10.0933 78.7521 9.82933 78.4908 9.664C78.2295 9.49333 77.8535 9.408 77.3628 9.408H75.3228V8.92H77.1708C77.6188 8.92 77.9655 8.83467 78.2108 8.664C78.4615 8.49333 78.5868 8.24 78.5868 7.904C78.5868 7.56267 78.4615 7.30933 78.2108 7.144C77.9655 6.97333 77.6188 6.888 77.1708 6.888H75.3868V11.512ZM82.4181 12.04C82.0127 12.04 81.6474 11.9493 81.3221 11.768C81.0021 11.5813 80.7487 11.328 80.5621 11.008C80.3754 10.6827 80.2821 10.312 80.2821 9.896C80.2821 9.47467 80.3754 9.104 80.5621 8.784C80.7487 8.464 81.0021 8.21333 81.3221 8.032C81.6421 7.85067 82.0074 7.76 82.4181 7.76C82.8341 7.76 83.2021 7.85067 83.5221 8.032C83.8474 8.21333 84.1007 8.464 84.2821 8.784C84.4687 9.104 84.5621 9.47467 84.5621 9.896C84.5621 10.312 84.4687 10.6827 84.2821 11.008C84.1007 11.328 83.8474 11.5813 83.5221 11.768C83.1967 11.9493 82.8287 12.04 82.4181 12.04ZM82.4181 11.536C82.7221 11.536 82.9914 11.4693 83.2261 11.336C83.4607 11.1973 83.6447 11.0053 83.7781 10.76C83.9167 10.5093 83.9861 10.2213 83.9861 9.896C83.9861 9.56533 83.9167 9.27733 83.7781 9.032C83.6447 8.78667 83.4607 8.59733 83.2261 8.464C82.9914 8.32533 82.7247 8.256 82.4261 8.256C82.1274 8.256 81.8607 8.32533 81.6261 8.464C81.3914 8.59733 81.2047 8.78667 81.0661 9.032C80.9274 9.27733 80.8581 9.56533 80.8581 9.896C80.8581 10.2213 80.9274 10.5093 81.0661 10.76C81.2047 11.0053 81.3914 11.1973 81.6261 11.336C81.8607 11.4693 82.1247 11.536 82.4181 11.536ZM84.9333 12L86.7093 9.696L86.7013 9.976L85.0133 7.8H85.6533L87.0373 9.6L86.7973 9.592L88.1813 7.8H88.8053L87.1013 10L87.1093 9.696L88.9013 12H88.2533L86.7893 10.08L87.0133 10.112L85.5733 12H84.9333Z" fill="black"/>
<path d="M306.798 14V8.64L307.054 8.912H305.478V8.4H307.374V14H306.798ZM310.945 14.048C310.513 14.048 310.129 13.936 309.793 13.712C309.457 13.4827 309.193 13.1573 309.001 12.736C308.809 12.3093 308.713 11.7973 308.713 11.2C308.713 10.6027 308.809 10.0933 309.001 9.672C309.193 9.24533 309.457 8.92 309.793 8.696C310.129 8.46667 310.513 8.352 310.945 8.352C311.377 8.352 311.761 8.46667 312.097 8.696C312.433 8.92 312.697 9.24533 312.889 9.672C313.086 10.0933 313.185 10.6027 313.185 11.2C313.185 11.7973 313.086 12.3093 312.889 12.736C312.697 13.1573 312.433 13.4827 312.097 13.712C311.761 13.936 311.377 14.048 310.945 14.048ZM310.945 13.52C311.276 13.52 311.564 13.432 311.809 13.256C312.054 13.0747 312.246 12.8133 312.385 12.472C312.524 12.1253 312.593 11.7013 312.593 11.2C312.593 10.6987 312.524 10.2773 312.385 9.936C312.246 9.58933 312.054 9.328 311.809 9.152C311.564 8.97067 311.276 8.88 310.945 8.88C310.625 8.88 310.34 8.97067 310.089 9.152C309.838 9.328 309.644 9.58933 309.505 9.936C309.366 10.2773 309.297 10.6987 309.297 11.2C309.297 11.7013 309.366 12.1253 309.505 12.472C309.644 12.8133 309.838 13.0747 310.089 13.256C310.34 13.432 310.625 13.52 310.945 13.52Z" fill="black"/>
<path d="M145.272 12.06C145.096 12.06 144.944 11.996 144.816 11.868C144.696 11.74 144.636 11.584 144.636 11.4C144.636 11.208 144.696 11.052 144.816 10.932C144.944 10.812 145.096 10.752 145.272 10.752C145.448 10.752 145.596 10.812 145.716 10.932C145.844 11.052 145.908 11.208 145.908 11.4C145.908 11.584 145.844 11.74 145.716 11.868C145.596 11.996 145.448 12.06 145.272 12.06ZM147.815 12.06C147.639 12.06 147.487 11.996 147.359 11.868C147.239 11.74 147.179 11.584 147.179 11.4C147.179 11.208 147.239 11.052 147.359 10.932C147.487 10.812 147.639 10.752 147.815 10.752C147.991 10.752 148.139 10.812 148.259 10.932C148.387 11.052 148.451 11.208 148.451 11.4C148.451 11.584 148.387 11.74 148.259 11.868C148.139 11.996 147.991 12.06 147.815 12.06ZM150.358 12.06C150.182 12.06 150.03 11.996 149.902 11.868C149.782 11.74 149.722 11.584 149.722 11.4C149.722 11.208 149.782 11.052 149.902 10.932C150.03 10.812 150.182 10.752 150.358 10.752C150.534 10.752 150.682 10.812 150.802 10.932C150.93 11.052 150.994 11.208 150.994 11.4C150.994 11.584 150.93 11.74 150.802 11.868C150.682 11.996 150.534 12.06 150.358 12.06ZM152.901 12.06C152.725 12.06 152.573 11.996 152.445 11.868C152.325 11.74 152.265 11.584 152.265 11.4C152.265 11.208 152.325 11.052 152.445 10.932C152.573 10.812 152.725 10.752 152.901 10.752C153.077 10.752 153.225 10.812 153.345 10.932C153.473 11.052 153.537 11.208 153.537 11.4C153.537 11.584 153.473 11.74 153.345 11.868C153.225 11.996 153.077 12.06 152.901 12.06ZM155.444 12.06C155.268 12.06 155.116 11.996 154.988 11.868C154.868 11.74 154.808 11.584 154.808 11.4C154.808 11.208 154.868 11.052 154.988 10.932C155.116 10.812 155.268 10.752 155.444 10.752C155.62 10.752 155.768 10.812 155.888 10.932C156.016 11.052 156.08 11.208 156.08 11.4C156.08 11.584 156.016 11.74 155.888 11.868C155.768 11.996 155.62 12.06 155.444 12.06ZM157.987 12.06C157.811 12.06 157.659 11.996 157.531 11.868C157.411 11.74 157.351 11.584 157.351 11.4C157.351 11.208 157.411 11.052 157.531 10.932C157.659 10.812 157.811 10.752 157.987 10.752C158.163 10.752 158.311 10.812 158.431 10.932C158.559 11.052 158.623 11.208 158.623 11.4C158.623 11.584 158.559 11.74 158.431 11.868C158.311 11.996 158.163 12.06 157.987 12.06ZM160.53 12.06C160.354 12.06 160.202 11.996 160.074 11.868C159.954 11.74 159.894 11.584 159.894 11.4C159.894 11.208 159.954 11.052 160.074 10.932C160.202 10.812 160.354 10.752 160.53 10.752C160.706 10.752 160.854 10.812 160.974 10.932C161.102 11.052 161.166 11.208 161.166 11.4C161.166 11.584 161.102 11.74 160.974 11.868C160.854 11.996 160.706 12.06 160.53 12.06ZM163.073 12.06C162.897 12.06 162.745 11.996 162.617 11.868C162.497 11.74 162.437 11.584 162.437 11.4C162.437 11.208 162.497 11.052 162.617 10.932C162.745 10.812 162.897 10.752 163.073 10.752C163.249 10.752 163.397 10.812 163.517 10.932C163.645 11.052 163.709 11.208 163.709 11.4C163.709 11.584 163.645 11.74 163.517 11.868C163.397 11.996 163.249 12.06 163.073 12.06ZM165.616 12.06C165.44 12.06 165.288 11.996 165.16 11.868C165.04 11.74 164.98 11.584 164.98 11.4C164.98 11.208 165.04 11.052 165.16 10.932C165.288 10.812 165.44 10.752 165.616 10.752C165.792 10.752 165.94 10.812 166.06 10.932C166.188 11.052 166.252 11.208 166.252 11.4C166.252 11.584 166.188 11.74 166.06 11.868C165.94 11.996 165.792 12.06 165.616 12.06ZM168.159 12.06C167.983 12.06 167.831 11.996 167.703 11.868C167.583 11.74 167.523 11.584 167.523 11.4C167.523 11.208 167.583 11.052 167.703 10.932C167.831 10.812 167.983 10.752 168.159 10.752C168.335 10.752 168.483 10.812 168.603 10.932C168.731 11.052 168.795 11.208 168.795 11.4C168.795 11.584 168.731 11.74 168.603 11.868C168.483 11.996 168.335 12.06 168.159 12.06ZM170.702 12.06C170.526 12.06 170.374 11.996 170.246 11.868C170.126 11.74 170.066 11.584 170.066 11.4C170.066 11.208 170.126 11.052 170.246 10.932C170.374 10.812 170.526 10.752 170.702 10.752C170.878 10.752 171.026 10.812 171.146 10.932C171.274 11.052 171.338 11.208 171.338 11.4C171.338 11.584 171.274 11.74 171.146 11.868C171.026 11.996 170.878 12.06 170.702 12.06ZM173.245 12.06C173.069 12.06 172.917 11.996 172.789 11.868C172.669 11.74 172.609 11.584 172.609 11.4C172.609 11.208 172.669 11.052 172.789 10.932C172.917 10.812 173.069 10.752 173.245 10.752C173.421 10.752 173.569 10.812 173.689 10.932C173.817 11.052 173.881 11.208 173.881 11.4C173.881 11.584 173.817 11.74 173.689 11.868C173.569 11.996 173.421 12.06 173.245 12.06ZM175.788 12.06C175.612 12.06 175.46 11.996 175.332 11.868C175.212 11.74 175.152 11.584 175.152 11.4C175.152 11.208 175.212 11.052 175.332 10.932C175.46 10.812 175.612 10.752 175.788 10.752C175.964 10.752 176.112 10.812 176.232 10.932C176.36 11.052 176.424 11.208 176.424 11.4C176.424 11.584 176.36 11.74 176.232 11.868C176.112 11.996 175.964 12.06 175.788 12.06ZM178.331 12.06C178.155 12.06 178.003 11.996 177.875 11.868C177.755 11.74 177.695 11.584 177.695 11.4C177.695 11.208 177.755 11.052 177.875 10.932C178.003 10.812 178.155 10.752 178.331 10.752C178.507 10.752 178.655 10.812 178.775 10.932C178.903 11.052 178.967 11.208 178.967 11.4C178.967 11.584 178.903 11.74 178.775 11.868C178.655 11.996 178.507 12.06 178.331 12.06ZM180.874 12.06C180.698 12.06 180.546 11.996 180.418 11.868C180.298 11.74 180.238 11.584 180.238 11.4C180.238 11.208 180.298 11.052 180.418 10.932C180.546 10.812 180.698 10.752 180.874 10.752C181.05 10.752 181.198 10.812 181.318 10.932C181.446 11.052 181.51 11.208 181.51 11.4C181.51 11.584 181.446 11.74 181.318 11.868C181.198 11.996 181.05 12.06 180.874 12.06ZM183.417 12.06C183.241 12.06 183.089 11.996 182.961 11.868C182.841 11.74 182.781 11.584 182.781 11.4C182.781 11.208 182.841 11.052 182.961 10.932C183.089 10.812 183.241 10.752 183.417 10.752C183.593 10.752 183.741 10.812 183.861 10.932C183.989 11.052 184.053 11.208 184.053 11.4C184.053 11.584 183.989 11.74 183.861 11.868C183.741 11.996 183.593 12.06 183.417 12.06ZM185.96 12.06C185.784 12.06 185.632 11.996 185.504 11.868C185.384 11.74 185.324 11.584 185.324 11.4C185.324 11.208 185.384 11.052 185.504 10.932C185.632 10.812 185.784 10.752 185.96 10.752C186.136 10.752 186.284 10.812 186.404 10.932C186.532 11.052 186.596 11.208 186.596 11.4C186.596 11.584 186.532 11.74 186.404 11.868C186.284 11.996 186.136 12.06 185.96 12.06ZM188.502 12.06C188.326 12.06 188.174 11.996 188.046 11.868C187.926 11.74 187.866 11.584 187.866 11.4C187.866 11.208 187.926 11.052 188.046 10.932C188.174 10.812 188.326 10.752 188.502 10.752C188.678 10.752 188.826 10.812 188.946 10.932C189.074 11.052 189.138 11.208 189.138 11.4C189.138 11.584 189.074 11.74 188.946 11.868C188.826 11.996 188.678 12.06 188.502 12.06ZM191.045 12.06C190.869 12.06 190.717 11.996 190.589 11.868C190.469 11.74 190.409 11.584 190.409 11.4C190.409 11.208 190.469 11.052 190.589 10.932C190.717 10.812 190.869 10.752 191.045 10.752C191.221 10.752 191.369 10.812 191.489 10.932C191.617 11.052 191.681 11.208 191.681 11.4C191.681 11.584 191.617 11.74 191.489 11.868C191.369 11.996 191.221 12.06 191.045 12.06ZM193.588 12.06C193.412 12.06 193.26 11.996 193.132 11.868C193.012 11.74 192.952 11.584 192.952 11.4C192.952 11.208 193.012 11.052 193.132 10.932C193.26 10.812 193.412 10.752 193.588 10.752C193.764 10.752 193.912 10.812 194.032 10.932C194.16 11.052 194.224 11.208 194.224 11.4C194.224 11.584 194.16 11.74 194.032 11.868C193.912 11.996 193.764 12.06 193.588 12.06ZM196.131 12.06C195.955 12.06 195.803 11.996 195.675 11.868C195.555 11.74 195.495 11.584 195.495 11.4C195.495 11.208 195.555 11.052 195.675 10.932C195.803 10.812 195.955 10.752 196.131 10.752C196.307 10.752 196.455 10.812 196.575 10.932C196.703 11.052 196.767 11.208 196.767 11.4C196.767 11.584 196.703 11.74 196.575 11.868C196.455 11.996 196.307 12.06 196.131 12.06ZM198.674 12.06C198.498 12.06 198.346 11.996 198.218 11.868C198.098 11.74 198.038 11.584 198.038 11.4C198.038 11.208 198.098 11.052 198.218 10.932C198.346 10.812 198.498 10.752 198.674 10.752C198.85 10.752 198.998 10.812 199.118 10.932C199.246 11.052 199.31 11.208 199.31 11.4C199.31 11.584 199.246 11.74 199.118 11.868C198.998 11.996 198.85 12.06 198.674 12.06ZM201.217 12.06C201.041 12.06 200.889 11.996 200.761 11.868C200.641 11.74 200.581 11.584 200.581 11.4C200.581 11.208 200.641 11.052 200.761 10.932C200.889 10.812 201.041 10.752 201.217 10.752C201.393 10.752 201.541 10.812 201.661 10.932C201.789 11.052 201.853 11.208 201.853 11.4C201.853 11.584 201.789 11.74 201.661 11.868C201.541 11.996 201.393 12.06 201.217 12.06ZM203.76 12.06C203.584 12.06 203.432 11.996 203.304 11.868C203.184 11.74 203.124 11.584 203.124 11.4C203.124 11.208 203.184 11.052 203.304 10.932C203.432 10.812 203.584 10.752 203.76 10.752C203.936 10.752 204.084 10.812 204.204 10.932C204.332 11.052 204.396 11.208 204.396 11.4C204.396 11.584 204.332 11.74 204.204 11.868C204.084 11.996 203.936 12.06 203.76 12.06ZM206.303 12.06C206.127 12.06 205.975 11.996 205.847 11.868C205.727 11.74 205.667 11.584 205.667 11.4C205.667 11.208 205.727 11.052 205.847 10.932C205.975 10.812 206.127 10.752 206.303 10.752C206.479 10.752 206.627 10.812 206.747 10.932C206.875 11.052 206.939 11.208 206.939 11.4C206.939 11.584 206.875 11.74 206.747 11.868C206.627 11.996 206.479 12.06 206.303 12.06ZM208.846 12.06C208.67 12.06 208.518 11.996 208.39 11.868C208.27 11.74 208.21 11.584 208.21 11.4C208.21 11.208 208.27 11.052 208.39 10.932C208.518 10.812 208.67 10.752 208.846 10.752C209.022 10.752 209.17 10.812 209.29 10.932C209.418 11.052 209.482 11.208 209.482 11.4C209.482 11.584 209.418 11.74 209.29 11.868C209.17 11.996 209.022 12.06 208.846 12.06ZM211.389 12.06C211.213 12.06 211.061 11.996 210.933 11.868C210.813 11.74 210.753 11.584 210.753 11.4C210.753 11.208 210.813 11.052 210.933 10.932C211.061 10.812 211.213 10.752 211.389 10.752C211.565 10.752 211.713 10.812 211.833 10.932C211.961 11.052 212.025 11.208 212.025 11.4C212.025 11.584 211.961 11.74 211.833 11.868C211.713 11.996 211.565 12.06 211.389 12.06ZM213.932 12.06C213.756 12.06 213.604 11.996 213.476 11.868C213.356 11.74 213.296 11.584 213.296 11.4C213.296 11.208 213.356 11.052 213.476 10.932C213.604 10.812 213.756 10.752 213.932 10.752C214.108 10.752 214.256 10.812 214.376 10.932C214.504 11.052 214.568 11.208 214.568 11.4C214.568 11.584 214.504 11.74 214.376 11.868C214.256 11.996 214.108 12.06 213.932 12.06ZM216.475 12.06C216.299 12.06 216.147 11.996 216.019 11.868C215.899 11.74 215.839 11.584 215.839 11.4C215.839 11.208 215.899 11.052 216.019 10.932C216.147 10.812 216.299 10.752 216.475 10.752C216.651 10.752 216.799 10.812 216.919 10.932C217.047 11.052 217.111 11.208 217.111 11.4C217.111 11.584 217.047 11.74 216.919 11.868C216.799 11.996 216.651 12.06 216.475 12.06ZM219.018 12.06C218.842 12.06 218.69 11.996 218.562 11.868C218.442 11.74 218.382 11.584 218.382 11.4C218.382 11.208 218.442 11.052 218.562 10.932C218.69 10.812 218.842 10.752 219.018 10.752C219.194 10.752 219.342 10.812 219.462 10.932C219.59 11.052 219.654 11.208 219.654 11.4C219.654 11.584 219.59 11.74 219.462 11.868C219.342 11.996 219.194 12.06 219.018 12.06ZM221.561 12.06C221.385 12.06 221.233 11.996 221.105 11.868C220.985 11.74 220.925 11.584 220.925 11.4C220.925 11.208 220.985 11.052 221.105 10.932C221.233 10.812 221.385 10.752 221.561 10.752C221.737 10.752 221.885 10.812 222.005 10.932C222.133 11.052 222.197 11.208 222.197 11.4C222.197 11.584 222.133 11.74 222.005 11.868C221.885 11.996 221.737 12.06 221.561 12.06ZM224.104 12.06C223.928 12.06 223.776 11.996 223.648 11.868C223.528 11.74 223.468 11.584 223.468 11.4C223.468 11.208 223.528 11.052 223.648 10.932C223.776 10.812 223.928 10.752 224.104 10.752C224.28 10.752 224.428 10.812 224.548 10.932C224.676 11.052 224.74 11.208 224.74 11.4C224.74 11.584 224.676 11.74 224.548 11.868C224.428 11.996 224.28 12.06 224.104 12.06ZM226.647 12.06C226.471 12.06 226.319 11.996 226.191 11.868C226.071 11.74 226.011 11.584 226.011 11.4C226.011 11.208 226.071 11.052 226.191 10.932C226.319 10.812 226.471 10.752 226.647 10.752C226.823 10.752 226.971 10.812 227.091 10.932C227.219 11.052 227.283 11.208 227.283 11.4C227.283 11.584 227.219 11.74 227.091 11.868C226.971 11.996 226.823 12.06 226.647 12.06ZM229.19 12.06C229.014 12.06 228.862 11.996 228.734 11.868C228.614 11.74 228.554 11.584 228.554 11.4C228.554 11.208 228.614 11.052 228.734 10.932C228.862 10.812 229.014 10.752 229.19 10.752C229.366 10.752 229.514 10.812 229.634 10.932C229.762 11.052 229.826 11.208 229.826 11.4C229.826 11.584 229.762 11.74 229.634 11.868C229.514 11.996 229.366 12.06 229.19 12.06ZM231.733 12.06C231.557 12.06 231.405 11.996 231.277 11.868C231.157 11.74 231.097 11.584 231.097 11.4C231.097 11.208 231.157 11.052 231.277 10.932C231.405 10.812 231.557 10.752 231.733 10.752C231.909 10.752 232.057 10.812 232.177 10.932C232.305 11.052 232.369 11.208 232.369 11.4C232.369 11.584 232.305 11.74 232.177 11.868C232.057 11.996 231.909 12.06 231.733 12.06ZM234.276 12.06C234.1 12.06 233.948 11.996 233.82 11.868C233.7 11.74 233.64 11.584 233.64 11.4C233.64 11.208 233.7 11.052 233.82 10.932C233.948 10.812 234.1 10.752 234.276 10.752C234.452 10.752 234.6 10.812 234.72 10.932C234.848 11.052 234.912 11.208 234.912 11.4C234.912 11.584 234.848 11.74 234.72 11.868C234.6 11.996 234.452 12.06 234.276 12.06ZM236.819 12.06C236.643 12.06 236.491 11.996 236.363 11.868C236.243 11.74 236.183 11.584 236.183 11.4C236.183 11.208 236.243 11.052 236.363 10.932C236.491 10.812 236.643 10.752 236.819 10.752C236.995 10.752 237.143 10.812 237.263 10.932C237.391 11.052 237.455 11.208 237.455 11.4C237.455 11.584 237.391 11.74 237.263 11.868C237.143 11.996 236.995 12.06 236.819 12.06ZM239.362 12.06C239.186 12.06 239.034 11.996 238.906 11.868C238.786 11.74 238.726 11.584 238.726 11.4C238.726 11.208 238.786 11.052 238.906 10.932C239.034 10.812 239.186 10.752 239.362 10.752C239.538 10.752 239.686 10.812 239.806 10.932C239.934 11.052 239.998 11.208 239.998 11.4C239.998 11.584 239.934 11.74 239.806 11.868C239.686 11.996 239.538 12.06 239.362 12.06ZM241.905 12.06C241.729 12.06 241.577 11.996 241.449 11.868C241.329 11.74 241.269 11.584 241.269 11.4C241.269 11.208 241.329 11.052 241.449 10.932C241.577 10.812 241.729 10.752 241.905 10.752C242.081 10.752 242.229 10.812 242.349 10.932C242.477 11.052 242.541 11.208 242.541 11.4C242.541 11.584 242.477 11.74 242.349 11.868C242.229 11.996 242.081 12.06 241.905 12.06ZM244.448 12.06C244.272 12.06 244.12 11.996 243.992 11.868C243.872 11.74 243.812 11.584 243.812 11.4C243.812 11.208 243.872 11.052 243.992 10.932C244.12 10.812 244.272 10.752 244.448 10.752C244.624 10.752 244.772 10.812 244.892 10.932C245.02 11.052 245.084 11.208 245.084 11.4C245.084 11.584 245.02 11.74 244.892 11.868C244.772 11.996 244.624 12.06 244.448 12.06ZM246.991 12.06C246.815 12.06 246.663 11.996 246.535 11.868C246.415 11.74 246.355 11.584 246.355 11.4C246.355 11.208 246.415 11.052 246.535 10.932C246.663 10.812 246.815 10.752 246.991 10.752C247.167 10.752 247.315 10.812 247.435 10.932C247.563 11.052 247.627 11.208 247.627 11.4C247.627 11.584 247.563 11.74 247.435 11.868C247.315 11.996 247.167 12.06 246.991 12.06ZM249.534 12.06C249.358 12.06 249.206 11.996 249.078 11.868C248.958 11.74 248.898 11.584 248.898 11.4C248.898 11.208 248.958 11.052 249.078 10.932C249.206 10.812 249.358 10.752 249.534 10.752C249.71 10.752 249.858 10.812 249.978 10.932C250.106 11.052 250.17 11.208 250.17 11.4C250.17 11.584 250.106 11.74 249.978 11.868C249.858 11.996 249.71 12.06 249.534 12.06ZM252.077 12.06C251.901 12.06 251.749 11.996 251.621 11.868C251.501 11.74 251.441 11.584 251.441 11.4C251.441 11.208 251.501 11.052 251.621 10.932C251.749 10.812 251.901 10.752 252.077 10.752C252.253 10.752 252.401 10.812 252.521 10.932C252.649 11.052 252.713 11.208 252.713 11.4C252.713 11.584 252.649 11.74 252.521 11.868C252.401 11.996 252.253 12.06 252.077 12.06ZM254.62 12.06C254.444 12.06 254.292 11.996 254.164 11.868C254.044 11.74 253.984 11.584 253.984 11.4C253.984 11.208 254.044 11.052 254.164 10.932C254.292 10.812 254.444 10.752 254.62 10.752C254.796 10.752 254.944 10.812 255.064 10.932C255.192 11.052 255.256 11.208 255.256 11.4C255.256 11.584 255.192 11.74 255.064 11.868C254.944 11.996 254.796 12.06 254.62 12.06ZM257.163 12.06C256.987 12.06 256.835 11.996 256.707 11.868C256.587 11.74 256.527 11.584 256.527 11.4C256.527 11.208 256.587 11.052 256.707 10.932C256.835 10.812 256.987 10.752 257.163 10.752C257.339 10.752 257.487 10.812 257.607 10.932C257.735 11.052 257.799 11.208 257.799 11.4C257.799 11.584 257.735 11.74 257.607 11.868C257.487 11.996 257.339 12.06 257.163 12.06ZM259.706 12.06C259.53 12.06 259.378 11.996 259.25 11.868C259.13 11.74 259.07 11.584 259.07 11.4C259.07 11.208 259.13 11.052 259.25 10.932C259.378 10.812 259.53 10.752 259.706 10.752C259.882 10.752 260.03 10.812 260.15 10.932C260.278 11.052 260.342 11.208 260.342 11.4C260.342 11.584 260.278 11.74 260.15 11.868C260.03 11.996 259.882 12.06 259.706 12.06ZM262.249 12.06C262.073 12.06 261.921 11.996 261.793 11.868C261.673 11.74 261.613 11.584 261.613 11.4C261.613 11.208 261.673 11.052 261.793 10.932C261.921 10.812 262.073 10.752 262.249 10.752C262.425 10.752 262.573 10.812 262.693 10.932C262.821 11.052 262.885 11.208 262.885 11.4C262.885 11.584 262.821 11.74 262.693 11.868C262.573 11.996 262.425 12.06 262.249 12.06ZM264.792 12.06C264.616 12.06 264.464 11.996 264.336 11.868C264.216 11.74 264.156 11.584 264.156 11.4C264.156 11.208 264.216 11.052 264.336 10.932C264.464 10.812 264.616 10.752 264.792 10.752C264.968 10.752 265.116 10.812 265.236 10.932C265.364 11.052 265.428 11.208 265.428 11.4C265.428 11.584 265.364 11.74 265.236 11.868C265.116 11.996 264.968 12.06 264.792 12.06ZM267.335 12.06C267.159 12.06 267.007 11.996 266.879 11.868C266.759 11.74 266.699 11.584 266.699 11.4C266.699 11.208 266.759 11.052 266.879 10.932C267.007 10.812 267.159 10.752 267.335 10.752C267.511 10.752 267.659 10.812 267.779 10.932C267.907 11.052 267.971 11.208 267.971 11.4C267.971 11.584 267.907 11.74 267.779 11.868C267.659 11.996 267.511 12.06 267.335 12.06ZM269.877 12.06C269.701 12.06 269.549 11.996 269.421 11.868C269.301 11.74 269.241 11.584 269.241 11.4C269.241 11.208 269.301 11.052 269.421 10.932C269.549 10.812 269.701 10.752 269.877 10.752C270.053 10.752 270.201 10.812 270.321 10.932C270.449 11.052 270.513 11.208 270.513 11.4C270.513 11.584 270.449 11.74 270.321 11.868C270.201 11.996 270.053 12.06 269.877 12.06ZM272.42 12.06C272.244 12.06 272.092 11.996 271.964 11.868C271.844 11.74 271.784 11.584 271.784 11.4C271.784 11.208 271.844 11.052 271.964 10.932C272.092 10.812 272.244 10.752 272.42 10.752C272.596 10.752 272.744 10.812 272.864 10.932C272.992 11.052 273.056 11.208 273.056 11.4C273.056 11.584 272.992 11.74 272.864 11.868C272.744 11.996 272.596 12.06 272.42 12.06ZM274.963 12.06C274.787 12.06 274.635 11.996 274.507 11.868C274.387 11.74 274.327 11.584 274.327 11.4C274.327 11.208 274.387 11.052 274.507 10.932C274.635 10.812 274.787 10.752 274.963 10.752C275.139 10.752 275.287 10.812 275.407 10.932C275.535 11.052 275.599 11.208 275.599 11.4C275.599 11.584 275.535 11.74 275.407 11.868C275.287 11.996 275.139 12.06 274.963 12.06ZM277.506 12.06C277.33 12.06 277.178 11.996 277.05 11.868C276.93 11.74 276.87 11.584 276.87 11.4C276.87 11.208 276.93 11.052 277.05 10.932C277.178 10.812 277.33 10.752 277.506 10.752C277.682 10.752 277.83 10.812 277.95 10.932C278.078 11.052 278.142 11.208 278.142 11.4C278.142 11.584 278.078 11.74 277.95 11.868C277.83 11.996 277.682 12.06 277.506 12.06ZM280.049 12.06C279.873 12.06 279.721 11.996 279.593 11.868C279.473 11.74 279.413 11.584 279.413 11.4C279.413 11.208 279.473 11.052 279.593 10.932C279.721 10.812 279.873 10.752 280.049 10.752C280.225 10.752 280.373 10.812 280.493 10.932C280.621 11.052 280.685 11.208 280.685 11.4C280.685 11.584 280.621 11.74 280.493 11.868C280.373 11.996 280.225 12.06 280.049 12.06ZM282.592 12.06C282.416 12.06 282.264 11.996 282.136 11.868C282.016 11.74 281.956 11.584 281.956 11.4C281.956 11.208 282.016 11.052 282.136 10.932C282.264 10.812 282.416 10.752 282.592 10.752C282.768 10.752 282.916 10.812 283.036 10.932C283.164 11.052 283.228 11.208 283.228 11.4C283.228 11.584 283.164 11.74 283.036 11.868C282.916 11.996 282.768 12.06 282.592 12.06ZM285.135 12.06C284.959 12.06 284.807 11.996 284.679 11.868C284.559 11.74 284.499 11.584 284.499 11.4C284.499 11.208 284.559 11.052 284.679 10.932C284.807 10.812 284.959 10.752 285.135 10.752C285.311 10.752 285.459 10.812 285.579 10.932C285.707 11.052 285.771 11.208 285.771 11.4C285.771 11.584 285.707 11.74 285.579 11.868C285.459 11.996 285.311 12.06 285.135 12.06ZM287.678 12.06C287.502 12.06 287.35 11.996 287.222 11.868C287.102 11.74 287.042 11.584 287.042 11.4C287.042 11.208 287.102 11.052 287.222 10.932C287.35 10.812 287.502 10.752 287.678 10.752C287.854 10.752 288.002 10.812 288.122 10.932C288.25 11.052 288.314 11.208 288.314 11.4C288.314 11.584 288.25 11.74 288.122 11.868C288.002 11.996 287.854 12.06 287.678 12.06ZM290.221 12.06C290.045 12.06 289.893 11.996 289.765 11.868C289.645 11.74 289.585 11.584 289.585 11.4C289.585 11.208 289.645 11.052 289.765 10.932C289.893 10.812 290.045 10.752 290.221 10.752C290.397 10.752 290.545 10.812 290.665 10.932C290.793 11.052 290.857 11.208 290.857 11.4C290.857 11.584 290.793 11.74 290.665 11.868C290.545 11.996 290.397 12.06 290.221 12.06Z" fill="black"/>
</svg>
