<svg width="322" height="18" viewBox="0 0 322 18" fill="none" xmlns="http://www.w3.org/2000/svg">
<path d="M1.4 14L3.816 8.656L3.992 8.912H0.528L0.824 8.632V9.96H0.256V8.4H4.368V8.808L2.024 14H1.4ZM6.7465 14.048C6.3465 14.048 5.96517 13.984 5.6025 13.856C5.23983 13.7227 4.95183 13.5467 4.7385 13.328L5.0185 12.872C5.1945 13.0587 5.4345 13.2133 5.7385 13.336C6.04783 13.4587 6.38117 13.52 6.7385 13.52C7.21317 13.52 7.57317 13.416 7.8185 13.208C8.06917 12.9947 8.1945 12.7173 8.1945 12.376C8.1945 12.136 8.13583 11.9307 8.0185 11.76C7.9065 11.584 7.7145 11.448 7.4425 11.352C7.1705 11.256 6.79717 11.208 6.3225 11.208H5.1305L5.4185 8.4H8.4825V8.912H5.6505L5.9465 8.632L5.6985 10.984L5.4025 10.696H6.4505C7.01583 10.696 7.46917 10.7653 7.8105 10.904C8.15183 11.0427 8.39717 11.2373 8.5465 11.488C8.70117 11.7333 8.7785 12.0213 8.7785 12.352C8.7785 12.6667 8.70383 12.9547 8.5545 13.216C8.40517 13.472 8.18117 13.6747 7.8825 13.824C7.58383 13.9733 7.20517 14.048 6.7465 14.048ZM11.7418 14.048C11.3098 14.048 10.9258 13.936 10.5898 13.712C10.2538 13.4827 9.98975 13.1573 9.79775 12.736C9.60575 12.3093 9.50975 11.7973 9.50975 11.2C9.50975 10.6027 9.60575 10.0933 9.79775 9.672C9.98975 9.24533 10.2538 8.92 10.5898 8.696C10.9258 8.46667 11.3098 8.352 11.7418 8.352C12.1738 8.352 12.5578 8.46667 12.8938 8.696C13.2298 8.92 13.4938 9.24533 13.6858 9.672C13.8831 10.0933 13.9818 10.6027 13.9818 11.2C13.9818 11.7973 13.8831 12.3093 13.6858 12.736C13.4938 13.1573 13.2298 13.4827 12.8938 13.712C12.5578 13.936 12.1738 14.048 11.7418 14.048ZM11.7418 13.52C12.0724 13.52 12.3604 13.432 12.6058 13.256C12.8511 13.0747 13.0431 12.8133 13.1818 12.472C13.3204 12.1253 13.3898 11.7013 13.3898 11.2C13.3898 10.6987 13.3204 10.2773 13.1818 9.936C13.0431 9.58933 12.8511 9.328 12.6058 9.152C12.3604 8.97067 12.0724 8.88 11.7418 8.88C11.4218 8.88 11.1364 8.97067 10.8858 9.152C10.6351 9.328 10.4404 9.58933 10.3018 9.936C10.1631 10.2773 10.0938 10.6987 10.0938 11.2C10.0938 11.7013 10.1631 12.1253 10.3018 12.472C10.4404 12.8133 10.6351 13.0747 10.8858 13.256C11.1364 13.432 11.4218 13.52 11.7418 13.52ZM20.4306 9.76C20.772 9.76 21.068 9.82667 21.3186 9.96C21.5746 10.088 21.772 10.2853 21.9106 10.552C22.0546 10.8187 22.1266 11.1547 22.1266 11.56V14H21.5586V11.616C21.5586 11.1733 21.452 10.84 21.2386 10.616C21.0306 10.3867 20.7346 10.272 20.3506 10.272C20.0626 10.272 19.812 10.3333 19.5986 10.456C19.3906 10.5733 19.228 10.7467 19.1106 10.976C18.9986 11.2 18.9426 11.472 18.9426 11.792V14H18.3746V11.616C18.3746 11.1733 18.268 10.84 18.0546 10.616C17.8413 10.3867 17.5426 10.272 17.1586 10.272C16.876 10.272 16.628 10.3333 16.4146 10.456C16.2013 10.5733 16.036 10.7467 15.9186 10.976C15.8066 11.2 15.7506 11.472 15.7506 11.792V14H15.1826V9.8H15.7266V10.936L15.6386 10.736C15.7666 10.432 15.972 10.1947 16.2546 10.024C16.5426 9.848 16.8813 9.76 17.2706 9.76C17.6813 9.76 18.0306 9.864 18.3186 10.072C18.6066 10.2747 18.7933 10.5813 18.8786 10.992L18.6546 10.904C18.7773 10.5627 18.9933 10.288 19.3026 10.08C19.6173 9.86667 19.9933 9.76 20.4306 9.76ZM23.667 14V8.064H24.235V14H23.667ZM28.0292 14V8.4H30.1252C30.5999 8.4 31.0079 8.47733 31.3492 8.632C31.6905 8.78133 31.9519 9 32.1332 9.288C32.3199 9.57067 32.4132 9.91467 32.4132 10.32C32.4132 10.7147 32.3199 11.056 32.1332 11.344C31.9519 11.6267 31.6905 11.8453 31.3492 12C31.0079 12.1493 30.5999 12.224 30.1252 12.224H28.3572L28.6212 11.952V14H28.0292ZM31.8532 14L30.4132 11.968H31.0532L32.5012 14H31.8532ZM28.6212 12L28.3572 11.72H30.1092C30.6692 11.72 31.0932 11.5973 31.3812 11.352C31.6745 11.1067 31.8212 10.7627 31.8212 10.32C31.8212 9.872 31.6745 9.52533 31.3812 9.28C31.0932 9.03467 30.6692 8.912 30.1092 8.912H28.3572L28.6212 8.632V12ZM35.4024 14.04C34.9971 14.04 34.6318 13.9493 34.3064 13.768C33.9864 13.5813 33.7331 13.328 33.5464 13.008C33.3598 12.6827 33.2664 12.312 33.2664 11.896C33.2664 11.4747 33.3598 11.104 33.5464 10.784C33.7331 10.464 33.9864 10.2133 34.3064 10.032C34.6264 9.85067 34.9918 9.76 35.4024 9.76C35.8184 9.76 36.1864 9.85067 36.5064 10.032C36.8318 10.2133 37.0851 10.464 37.2664 10.784C37.4531 11.104 37.5464 11.4747 37.5464 11.896C37.5464 12.312 37.4531 12.6827 37.2664 13.008C37.0851 13.328 36.8318 13.5813 36.5064 13.768C36.1811 13.9493 35.8131 14.04 35.4024 14.04ZM35.4024 13.536C35.7064 13.536 35.9758 13.4693 36.2104 13.336C36.4451 13.1973 36.6291 13.0053 36.7624 12.76C36.9011 12.5093 36.9704 12.2213 36.9704 11.896C36.9704 11.5653 36.9011 11.2773 36.7624 11.032C36.6291 10.7867 36.4451 10.5973 36.2104 10.464C35.9758 10.3253 35.7091 10.256 35.4104 10.256C35.1118 10.256 34.8451 10.3253 34.6104 10.464C34.3758 10.5973 34.1891 10.7867 34.0504 11.032C33.9118 11.2773 33.8424 11.5653 33.8424 11.896C33.8424 12.2213 33.9118 12.5093 34.0504 12.76C34.1891 13.0053 34.3758 13.1973 34.6104 13.336C34.8451 13.4693 35.1091 13.536 35.4024 13.536ZM40.4421 14.04C40.0847 14.04 39.7727 13.9733 39.5061 13.84C39.2394 13.7067 39.0314 13.5067 38.8821 13.24C38.7381 12.9733 38.6661 12.64 38.6661 12.24V9.8H39.2341V12.176C39.2341 12.624 39.3434 12.9627 39.5621 13.192C39.7861 13.416 40.0981 13.528 40.4981 13.528C40.7914 13.528 41.0447 13.4693 41.2581 13.352C41.4767 13.2293 41.6421 13.0533 41.7541 12.824C41.8714 12.5947 41.9301 12.32 41.9301 12V9.8H42.4981V14H41.9541V12.848L42.0421 13.056C41.9087 13.3653 41.7007 13.608 41.4181 13.784C41.1407 13.9547 40.8154 14.04 40.4421 14.04ZM46.2251 9.76C46.5664 9.76 46.8651 9.82667 47.1211 9.96C47.3824 10.088 47.5851 10.2853 47.7291 10.552C47.8784 10.8187 47.9531 11.1547 47.9531 11.56V14H47.3851V11.616C47.3851 11.1733 47.2731 10.84 47.0491 10.616C46.8304 10.3867 46.5211 10.272 46.1211 10.272C45.8224 10.272 45.5611 10.3333 45.3371 10.456C45.1184 10.5733 44.9477 10.7467 44.8251 10.976C44.7077 11.2 44.6491 11.472 44.6491 11.792V14H44.0811V9.8H44.6251V10.952L44.5371 10.736C44.6704 10.432 44.8837 10.1947 45.1771 10.024C45.4704 9.848 45.8197 9.76 46.2251 9.76ZM51.1593 14.04C50.7593 14.04 50.3993 13.9493 50.0793 13.768C49.7646 13.5867 49.5166 13.336 49.3353 13.016C49.154 12.6907 49.0633 12.3173 49.0633 11.896C49.0633 11.4693 49.154 11.096 49.3353 10.776C49.5166 10.456 49.7646 10.208 50.0793 10.032C50.3993 9.85067 50.7593 9.76 51.1593 9.76C51.5273 9.76 51.8553 9.84267 52.1433 10.008C52.4366 10.1733 52.6686 10.416 52.8393 10.736C53.0153 11.0507 53.1033 11.4373 53.1033 11.896C53.1033 12.3493 53.018 12.736 52.8473 13.056C52.6766 13.376 52.4446 13.6213 52.1513 13.792C51.8633 13.9573 51.5326 14.04 51.1593 14.04ZM51.1993 13.536C51.498 13.536 51.7646 13.4693 51.9993 13.336C52.2393 13.1973 52.426 13.0053 52.5593 12.76C52.698 12.5093 52.7673 12.2213 52.7673 11.896C52.7673 11.5653 52.698 11.2773 52.5593 11.032C52.426 10.7867 52.2393 10.5973 51.9993 10.464C51.7646 10.3253 51.498 10.256 51.1993 10.256C50.906 10.256 50.642 10.3253 50.4073 10.464C50.1726 10.5973 49.986 10.7867 49.8473 11.032C49.7086 11.2773 49.6393 11.5653 49.6393 11.896C49.6393 12.2213 49.7086 12.5093 49.8473 12.76C49.986 13.0053 50.1726 13.1973 50.4073 13.336C50.642 13.4693 50.906 13.536 51.1993 13.536ZM52.7833 14V12.736L52.8393 11.888L52.7593 11.04V8.064H53.3273V14H52.7833ZM59.5549 14.048C59.1336 14.048 58.7443 13.9787 58.3869 13.84C58.0296 13.696 57.7203 13.496 57.4589 13.24C57.1976 12.984 56.9923 12.6827 56.8429 12.336C56.6989 11.9893 56.6269 11.6107 56.6269 11.2C56.6269 10.7893 56.6989 10.4107 56.8429 10.064C56.9923 9.71733 57.1976 9.416 57.4589 9.16C57.7256 8.904 58.0376 8.70667 58.3949 8.568C58.7523 8.424 59.1416 8.352 59.5629 8.352C59.9683 8.352 60.3496 8.42133 60.7069 8.56C61.0643 8.69333 61.3656 8.896 61.6109 9.168L61.2349 9.544C61.0056 9.30933 60.7523 9.14133 60.4749 9.04C60.1976 8.93333 59.8989 8.88 59.5789 8.88C59.2429 8.88 58.9309 8.93867 58.6429 9.056C58.3549 9.168 58.1043 9.33067 57.8909 9.544C57.6776 9.752 57.5096 9.99733 57.3869 10.28C57.2696 10.5573 57.2109 10.864 57.2109 11.2C57.2109 11.536 57.2696 11.8453 57.3869 12.128C57.5096 12.4053 57.6776 12.6507 57.8909 12.864C58.1043 13.072 58.3549 13.2347 58.6429 13.352C58.9309 13.464 59.2429 13.52 59.5789 13.52C59.8989 13.52 60.1976 13.4667 60.4749 13.36C60.7523 13.2533 61.0056 13.0827 61.2349 12.848L61.6109 13.224C61.3656 13.496 61.0643 13.7013 60.7069 13.84C60.3496 13.9787 59.9656 14.048 59.5549 14.048ZM64.2774 14.04C63.8721 14.04 63.5068 13.9493 63.1814 13.768C62.8614 13.5813 62.6081 13.328 62.4214 13.008C62.2348 12.6827 62.1414 12.312 62.1414 11.896C62.1414 11.4747 62.2348 11.104 62.4214 10.784C62.6081 10.464 62.8614 10.2133 63.1814 10.032C63.5014 9.85067 63.8668 9.76 64.2774 9.76C64.6934 9.76 65.0614 9.85067 65.3814 10.032C65.7068 10.2133 65.9601 10.464 66.1414 10.784C66.3281 11.104 66.4214 11.4747 66.4214 11.896C66.4214 12.312 66.3281 12.6827 66.1414 13.008C65.9601 13.328 65.7068 13.5813 65.3814 13.768C65.0561 13.9493 64.6881 14.04 64.2774 14.04ZM64.2774 13.536C64.5814 13.536 64.8508 13.4693 65.0854 13.336C65.3201 13.1973 65.5041 13.0053 65.6374 12.76C65.7761 12.5093 65.8454 12.2213 65.8454 11.896C65.8454 11.5653 65.7761 11.2773 65.6374 11.032C65.5041 10.7867 65.3201 10.5973 65.0854 10.464C64.8508 10.3253 64.5841 10.256 64.2854 10.256C63.9868 10.256 63.7201 10.3253 63.4854 10.464C63.2508 10.5973 63.0641 10.7867 62.9254 11.032C62.7868 11.2773 62.7174 11.5653 62.7174 11.896C62.7174 12.2213 62.7868 12.5093 62.9254 12.76C63.0641 13.0053 63.2508 13.1973 63.4854 13.336C63.7201 13.4693 63.9841 13.536 64.2774 13.536ZM69.7251 9.76C70.0664 9.76 70.3651 9.82667 70.6211 9.96C70.8824 10.088 71.0851 10.2853 71.2291 10.552C71.3784 10.8187 71.4531 11.1547 71.4531 11.56V14H70.8851V11.616C70.8851 11.1733 70.7731 10.84 70.5491 10.616C70.3304 10.3867 70.0211 10.272 69.6211 10.272C69.3224 10.272 69.0611 10.3333 68.8371 10.456C68.6184 10.5733 68.4477 10.7467 68.3251 10.976C68.2077 11.2 68.1491 11.472 68.1491 11.792V14H67.5811V9.8H68.1251V10.952L68.0371 10.736C68.1704 10.432 68.3837 10.1947 68.6771 10.024C68.9704 9.848 69.3197 9.76 69.7251 9.76ZM74.3153 14.04C73.9206 14.04 73.6166 13.9333 73.4033 13.72C73.19 13.5067 73.0833 13.2053 73.0833 12.816V8.872H73.6513V12.784C73.6513 13.0293 73.7126 13.2187 73.8353 13.352C73.9633 13.4853 74.1446 13.552 74.3793 13.552C74.63 13.552 74.838 13.48 75.0033 13.336L75.2033 13.744C75.0913 13.8453 74.9553 13.92 74.7953 13.968C74.6406 14.016 74.4806 14.04 74.3153 14.04ZM72.3313 10.272V9.8H74.9313V10.272H72.3313ZM78.8693 14V13.072L78.8453 12.92V11.368C78.8453 11.0107 78.744 10.736 78.5413 10.544C78.344 10.352 78.048 10.256 77.6533 10.256C77.3813 10.256 77.1226 10.3013 76.8773 10.392C76.632 10.4827 76.424 10.6027 76.2533 10.752L75.9973 10.328C76.2106 10.1467 76.4666 10.008 76.7653 9.912C77.064 9.81067 77.3786 9.76 77.7093 9.76C78.2533 9.76 78.672 9.896 78.9653 10.168C79.264 10.4347 79.4133 10.8427 79.4133 11.392V14H78.8693ZM77.4213 14.04C77.1066 14.04 76.832 13.9893 76.5973 13.888C76.368 13.7813 76.192 13.6373 76.0693 13.456C75.9466 13.2693 75.8853 13.056 75.8853 12.816C75.8853 12.5973 75.936 12.4 76.0373 12.224C76.144 12.0427 76.3146 11.8987 76.5493 11.792C76.7893 11.68 77.1093 11.624 77.5093 11.624H78.9573V12.048H77.5253C77.12 12.048 76.8373 12.12 76.6773 12.264C76.5226 12.408 76.4453 12.5867 76.4453 12.8C76.4453 13.04 76.5386 13.232 76.7253 13.376C76.912 13.52 77.1733 13.592 77.5093 13.592C77.8293 13.592 78.104 13.52 78.3333 13.376C78.568 13.2267 78.7386 13.0133 78.8453 12.736L78.9733 13.128C78.8666 13.4053 78.68 13.6267 78.4133 13.792C78.152 13.9573 77.8213 14.04 77.4213 14.04ZM80.9561 14V9.8H81.5241V14H80.9561ZM81.2441 8.872C81.1267 8.872 81.0281 8.832 80.9481 8.752C80.8681 8.672 80.8281 8.576 80.8281 8.464C80.8281 8.352 80.8681 8.25867 80.9481 8.184C81.0281 8.104 81.1267 8.064 81.2441 8.064C81.3614 8.064 81.4601 8.10133 81.5401 8.176C81.6201 8.25067 81.6601 8.344 81.6601 8.456C81.6601 8.57333 81.6201 8.672 81.5401 8.752C81.4654 8.832 81.3667 8.872 81.2441 8.872ZM85.2485 9.76C85.5898 9.76 85.8885 9.82667 86.1445 9.96C86.4058 10.088 86.6085 10.2853 86.7525 10.552C86.9018 10.8187 86.9765 11.1547 86.9765 11.56V14H86.4085V11.616C86.4085 11.1733 86.2965 10.84 86.0725 10.616C85.8538 10.3867 85.5445 10.272 85.1445 10.272C84.8458 10.272 84.5845 10.3333 84.3605 10.456C84.1418 10.5733 83.9712 10.7467 83.8485 10.976C83.7312 11.2 83.6725 11.472 83.6725 11.792V14H83.1045V9.8H83.6485V10.952L83.5605 10.736C83.6938 10.432 83.9072 10.1947 84.2005 10.024C84.4938 9.848 84.8432 9.76 85.2485 9.76ZM90.2948 14.04C89.8574 14.04 89.4734 13.9493 89.1428 13.768C88.8121 13.5813 88.5534 13.328 88.3668 13.008C88.1801 12.6827 88.0868 12.312 88.0868 11.896C88.0868 11.48 88.1748 11.112 88.3508 10.792C88.5321 10.472 88.7774 10.2213 89.0868 10.04C89.4014 9.85333 89.7534 9.76 90.1428 9.76C90.5374 9.76 90.8868 9.85067 91.1908 10.032C91.5001 10.208 91.7428 10.4587 91.9188 10.784C92.0948 11.104 92.1828 11.4747 92.1828 11.896C92.1828 11.9227 92.1801 11.952 92.1748 11.984C92.1748 12.0107 92.1748 12.04 92.1748 12.072H88.5188V11.648H91.8708L91.6468 11.816C91.6468 11.512 91.5801 11.2427 91.4468 11.008C91.3188 10.768 91.1428 10.5813 90.9188 10.448C90.6948 10.3147 90.4361 10.248 90.1428 10.248C89.8548 10.248 89.5961 10.3147 89.3668 10.448C89.1374 10.5813 88.9588 10.768 88.8308 11.008C88.7028 11.248 88.6388 11.5227 88.6388 11.832V11.92C88.6388 12.24 88.7081 12.5227 88.8468 12.768C88.9908 13.008 89.1881 13.1973 89.4388 13.336C89.6948 13.4693 89.9854 13.536 90.3108 13.536C90.5668 13.536 90.8041 13.4907 91.0228 13.4C91.2468 13.3093 91.4388 13.1707 91.5988 12.984L91.9188 13.352C91.7321 13.576 91.4974 13.7467 91.2148 13.864C90.9374 13.9813 90.6308 14.04 90.2948 14.04ZM93.3389 14V9.8H93.8829V10.944L93.8269 10.744C93.9442 10.424 94.1415 10.1813 94.4189 10.016C94.6962 9.84533 95.0402 9.76 95.4509 9.76V10.312C95.4295 10.312 95.4082 10.312 95.3869 10.312C95.3655 10.3067 95.3442 10.304 95.3229 10.304C94.8802 10.304 94.5335 10.44 94.2829 10.712C94.0322 10.9787 93.9069 11.36 93.9069 11.856V14H93.3389Z" fill="black"/>
<path d="M307.062 14.048C306.63 14.048 306.246 13.936 305.91 13.712C305.574 13.4827 305.31 13.1573 305.118 12.736C304.926 12.3093 304.83 11.7973 304.83 11.2C304.83 10.6027 304.926 10.0933 305.118 9.672C305.31 9.24533 305.574 8.92 305.91 8.696C306.246 8.46667 306.63 8.352 307.062 8.352C307.494 8.352 307.878 8.46667 308.214 8.696C308.55 8.92 308.814 9.24533 309.006 9.672C309.203 10.0933 309.302 10.6027 309.302 11.2C309.302 11.7973 309.203 12.3093 309.006 12.736C308.814 13.1573 308.55 13.4827 308.214 13.712C307.878 13.936 307.494 14.048 307.062 14.048ZM307.062 13.52C307.393 13.52 307.681 13.432 307.926 13.256C308.171 13.0747 308.363 12.8133 308.502 12.472C308.641 12.1253 308.71 11.7013 308.71 11.2C308.71 10.6987 308.641 10.2773 308.502 9.936C308.363 9.58933 308.171 9.328 307.926 9.152C307.681 8.97067 307.393 8.88 307.062 8.88C306.742 8.88 306.457 8.97067 306.206 9.152C305.955 9.328 305.761 9.58933 305.622 9.936C305.483 10.2773 305.414 10.6987 305.414 11.2C305.414 11.7013 305.483 12.1253 305.622 12.472C305.761 12.8133 305.955 13.0747 306.206 13.256C306.457 13.432 306.742 13.52 307.062 13.52ZM312.423 14.048C311.927 14.048 311.508 13.9387 311.167 13.72C310.826 13.496 310.567 13.176 310.391 12.76C310.215 12.3387 310.127 11.8347 310.127 11.248C310.127 10.6133 310.234 10.0827 310.447 9.656C310.666 9.224 310.967 8.89867 311.351 8.68C311.735 8.46133 312.18 8.352 312.687 8.352C312.938 8.352 313.178 8.376 313.407 8.424C313.636 8.472 313.839 8.54933 314.015 8.656L313.783 9.12C313.639 9.024 313.474 8.95733 313.287 8.92C313.1 8.87733 312.903 8.856 312.695 8.856C312.092 8.856 311.61 9.048 311.247 9.432C310.89 9.816 310.711 10.3893 310.711 11.152C310.711 11.2693 310.716 11.416 310.727 11.592C310.743 11.7627 310.775 11.9333 310.823 12.104L310.623 11.952C310.682 11.6747 310.796 11.44 310.967 11.248C311.138 11.0507 311.351 10.9013 311.607 10.8C311.863 10.6987 312.143 10.648 312.447 10.648C312.82 10.648 313.148 10.7173 313.431 10.856C313.714 10.9947 313.935 11.1893 314.095 11.44C314.255 11.6907 314.335 11.9867 314.335 12.328C314.335 12.6747 314.252 12.9787 314.087 13.24C313.922 13.496 313.692 13.696 313.399 13.84C313.111 13.9787 312.786 14.048 312.423 14.048ZM312.399 13.56C312.666 13.56 312.9 13.512 313.103 13.416C313.311 13.3147 313.474 13.1733 313.591 12.992C313.708 12.8053 313.767 12.5893 313.767 12.344C313.767 11.976 313.639 11.6827 313.383 11.464C313.132 11.2453 312.791 11.136 312.359 11.136C312.071 11.136 311.82 11.1893 311.607 11.296C311.394 11.4027 311.226 11.5493 311.103 11.736C310.98 11.9173 310.919 12.1253 310.919 12.36C310.919 12.5627 310.975 12.7573 311.087 12.944C311.199 13.1253 311.364 13.2747 311.583 13.392C311.807 13.504 312.079 13.56 312.399 13.56Z" fill="black"/>
<path d="M145.272 12.06C145.096 12.06 144.944 11.996 144.816 11.868C144.696 11.74 144.636 11.584 144.636 11.4C144.636 11.208 144.696 11.052 144.816 10.932C144.944 10.812 145.096 10.752 145.272 10.752C145.448 10.752 145.596 10.812 145.716 10.932C145.844 11.052 145.908 11.208 145.908 11.4C145.908 11.584 145.844 11.74 145.716 11.868C145.596 11.996 145.448 12.06 145.272 12.06ZM147.815 12.06C147.639 12.06 147.487 11.996 147.359 11.868C147.239 11.74 147.179 11.584 147.179 11.4C147.179 11.208 147.239 11.052 147.359 10.932C147.487 10.812 147.639 10.752 147.815 10.752C147.991 10.752 148.139 10.812 148.259 10.932C148.387 11.052 148.451 11.208 148.451 11.4C148.451 11.584 148.387 11.74 148.259 11.868C148.139 11.996 147.991 12.06 147.815 12.06ZM150.358 12.06C150.182 12.06 150.03 11.996 149.902 11.868C149.782 11.74 149.722 11.584 149.722 11.4C149.722 11.208 149.782 11.052 149.902 10.932C150.03 10.812 150.182 10.752 150.358 10.752C150.534 10.752 150.682 10.812 150.802 10.932C150.93 11.052 150.994 11.208 150.994 11.4C150.994 11.584 150.93 11.74 150.802 11.868C150.682 11.996 150.534 12.06 150.358 12.06ZM152.901 12.06C152.725 12.06 152.573 11.996 152.445 11.868C152.325 11.74 152.265 11.584 152.265 11.4C152.265 11.208 152.325 11.052 152.445 10.932C152.573 10.812 152.725 10.752 152.901 10.752C153.077 10.752 153.225 10.812 153.345 10.932C153.473 11.052 153.537 11.208 153.537 11.4C153.537 11.584 153.473 11.74 153.345 11.868C153.225 11.996 153.077 12.06 152.901 12.06ZM155.444 12.06C155.268 12.06 155.116 11.996 154.988 11.868C154.868 11.74 154.808 11.584 154.808 11.4C154.808 11.208 154.868 11.052 154.988 10.932C155.116 10.812 155.268 10.752 155.444 10.752C155.62 10.752 155.768 10.812 155.888 10.932C156.016 11.052 156.08 11.208 156.08 11.4C156.08 11.584 156.016 11.74 155.888 11.868C155.768 11.996 155.62 12.06 155.444 12.06ZM157.987 12.06C157.811 12.06 157.659 11.996 157.531 11.868C157.411 11.74 157.351 11.584 157.351 11.4C157.351 11.208 157.411 11.052 157.531 10.932C157.659 10.812 157.811 10.752 157.987 10.752C158.163 10.752 158.311 10.812 158.431 10.932C158.559 11.052 158.623 11.208 158.623 11.4C158.623 11.584 158.559 11.74 158.431 11.868C158.311 11.996 158.163 12.06 157.987 12.06ZM160.53 12.06C160.354 12.06 160.202 11.996 160.074 11.868C159.954 11.74 159.894 11.584 159.894 11.4C159.894 11.208 159.954 11.052 160.074 10.932C160.202 10.812 160.354 10.752 160.53 10.752C160.706 10.752 160.854 10.812 160.974 10.932C161.102 11.052 161.166 11.208 161.166 11.4C161.166 11.584 161.102 11.74 160.974 11.868C160.854 11.996 160.706 12.06 160.53 12.06ZM163.073 12.06C162.897 12.06 162.745 11.996 162.617 11.868C162.497 11.74 162.437 11.584 162.437 11.4C162.437 11.208 162.497 11.052 162.617 10.932C162.745 10.812 162.897 10.752 163.073 10.752C163.249 10.752 163.397 10.812 163.517 10.932C163.645 11.052 163.709 11.208 163.709 11.4C163.709 11.584 163.645 11.74 163.517 11.868C163.397 11.996 163.249 12.06 163.073 12.06ZM165.616 12.06C165.44 12.06 165.288 11.996 165.16 11.868C165.04 11.74 164.98 11.584 164.98 11.4C164.98 11.208 165.04 11.052 165.16 10.932C165.288 10.812 165.44 10.752 165.616 10.752C165.792 10.752 165.94 10.812 166.06 10.932C166.188 11.052 166.252 11.208 166.252 11.4C166.252 11.584 166.188 11.74 166.06 11.868C165.94 11.996 165.792 12.06 165.616 12.06ZM168.159 12.06C167.983 12.06 167.831 11.996 167.703 11.868C167.583 11.74 167.523 11.584 167.523 11.4C167.523 11.208 167.583 11.052 167.703 10.932C167.831 10.812 167.983 10.752 168.159 10.752C168.335 10.752 168.483 10.812 168.603 10.932C168.731 11.052 168.795 11.208 168.795 11.4C168.795 11.584 168.731 11.74 168.603 11.868C168.483 11.996 168.335 12.06 168.159 12.06ZM170.702 12.06C170.526 12.06 170.374 11.996 170.246 11.868C170.126 11.74 170.066 11.584 170.066 11.4C170.066 11.208 170.126 11.052 170.246 10.932C170.374 10.812 170.526 10.752 170.702 10.752C170.878 10.752 171.026 10.812 171.146 10.932C171.274 11.052 171.338 11.208 171.338 11.4C171.338 11.584 171.274 11.74 171.146 11.868C171.026 11.996 170.878 12.06 170.702 12.06ZM173.245 12.06C173.069 12.06 172.917 11.996 172.789 11.868C172.669 11.74 172.609 11.584 172.609 11.4C172.609 11.208 172.669 11.052 172.789 10.932C172.917 10.812 173.069 10.752 173.245 10.752C173.421 10.752 173.569 10.812 173.689 10.932C173.817 11.052 173.881 11.208 173.881 11.4C173.881 11.584 173.817 11.74 173.689 11.868C173.569 11.996 173.421 12.06 173.245 12.06ZM175.788 12.06C175.612 12.06 175.46 11.996 175.332 11.868C175.212 11.74 175.152 11.584 175.152 11.4C175.152 11.208 175.212 11.052 175.332 10.932C175.46 10.812 175.612 10.752 175.788 10.752C175.964 10.752 176.112 10.812 176.232 10.932C176.36 11.052 176.424 11.208 176.424 11.4C176.424 11.584 176.36 11.74 176.232 11.868C176.112 11.996 175.964 12.06 175.788 12.06ZM178.331 12.06C178.155 12.06 178.003 11.996 177.875 11.868C177.755 11.74 177.695 11.584 177.695 11.4C177.695 11.208 177.755 11.052 177.875 10.932C178.003 10.812 178.155 10.752 178.331 10.752C178.507 10.752 178.655 10.812 178.775 10.932C178.903 11.052 178.967 11.208 178.967 11.4C178.967 11.584 178.903 11.74 178.775 11.868C178.655 11.996 178.507 12.06 178.331 12.06ZM180.874 12.06C180.698 12.06 180.546 11.996 180.418 11.868C180.298 11.74 180.238 11.584 180.238 11.4C180.238 11.208 180.298 11.052 180.418 10.932C180.546 10.812 180.698 10.752 180.874 10.752C181.05 10.752 181.198 10.812 181.318 10.932C181.446 11.052 181.51 11.208 181.51 11.4C181.51 11.584 181.446 11.74 181.318 11.868C181.198 11.996 181.05 12.06 180.874 12.06ZM183.417 12.06C183.241 12.06 183.089 11.996 182.961 11.868C182.841 11.74 182.781 11.584 182.781 11.4C182.781 11.208 182.841 11.052 182.961 10.932C183.089 10.812 183.241 10.752 183.417 10.752C183.593 10.752 183.741 10.812 183.861 10.932C183.989 11.052 184.053 11.208 184.053 11.4C184.053 11.584 183.989 11.74 183.861 11.868C183.741 11.996 183.593 12.06 183.417 12.06ZM185.96 12.06C185.784 12.06 185.632 11.996 185.504 11.868C185.384 11.74 185.324 11.584 185.324 11.4C185.324 11.208 185.384 11.052 185.504 10.932C185.632 10.812 185.784 10.752 185.96 10.752C186.136 10.752 186.284 10.812 186.404 10.932C186.532 11.052 186.596 11.208 186.596 11.4C186.596 11.584 186.532 11.74 186.404 11.868C186.284 11.996 186.136 12.06 185.96 12.06ZM188.502 12.06C188.326 12.06 188.174 11.996 188.046 11.868C187.926 11.74 187.866 11.584 187.866 11.4C187.866 11.208 187.926 11.052 188.046 10.932C188.174 10.812 188.326 10.752 188.502 10.752C188.678 10.752 188.826 10.812 188.946 10.932C189.074 11.052 189.138 11.208 189.138 11.4C189.138 11.584 189.074 11.74 188.946 11.868C188.826 11.996 188.678 12.06 188.502 12.06ZM191.045 12.06C190.869 12.06 190.717 11.996 190.589 11.868C190.469 11.74 190.409 11.584 190.409 11.4C190.409 11.208 190.469 11.052 190.589 10.932C190.717 10.812 190.869 10.752 191.045 10.752C191.221 10.752 191.369 10.812 191.489 10.932C191.617 11.052 191.681 11.208 191.681 11.4C191.681 11.584 191.617 11.74 191.489 11.868C191.369 11.996 191.221 12.06 191.045 12.06ZM193.588 12.06C193.412 12.06 193.26 11.996 193.132 11.868C193.012 11.74 192.952 11.584 192.952 11.4C192.952 11.208 193.012 11.052 193.132 10.932C193.26 10.812 193.412 10.752 193.588 10.752C193.764 10.752 193.912 10.812 194.032 10.932C194.16 11.052 194.224 11.208 194.224 11.4C194.224 11.584 194.16 11.74 194.032 11.868C193.912 11.996 193.764 12.06 193.588 12.06ZM196.131 12.06C195.955 12.06 195.803 11.996 195.675 11.868C195.555 11.74 195.495 11.584 195.495 11.4C195.495 11.208 195.555 11.052 195.675 10.932C195.803 10.812 195.955 10.752 196.131 10.752C196.307 10.752 196.455 10.812 196.575 10.932C196.703 11.052 196.767 11.208 196.767 11.4C196.767 11.584 196.703 11.74 196.575 11.868C196.455 11.996 196.307 12.06 196.131 12.06ZM198.674 12.06C198.498 12.06 198.346 11.996 198.218 11.868C198.098 11.74 198.038 11.584 198.038 11.4C198.038 11.208 198.098 11.052 198.218 10.932C198.346 10.812 198.498 10.752 198.674 10.752C198.85 10.752 198.998 10.812 199.118 10.932C199.246 11.052 199.31 11.208 199.31 11.4C199.31 11.584 199.246 11.74 199.118 11.868C198.998 11.996 198.85 12.06 198.674 12.06ZM201.217 12.06C201.041 12.06 200.889 11.996 200.761 11.868C200.641 11.74 200.581 11.584 200.581 11.4C200.581 11.208 200.641 11.052 200.761 10.932C200.889 10.812 201.041 10.752 201.217 10.752C201.393 10.752 201.541 10.812 201.661 10.932C201.789 11.052 201.853 11.208 201.853 11.4C201.853 11.584 201.789 11.74 201.661 11.868C201.541 11.996 201.393 12.06 201.217 12.06ZM203.76 12.06C203.584 12.06 203.432 11.996 203.304 11.868C203.184 11.74 203.124 11.584 203.124 11.4C203.124 11.208 203.184 11.052 203.304 10.932C203.432 10.812 203.584 10.752 203.76 10.752C203.936 10.752 204.084 10.812 204.204 10.932C204.332 11.052 204.396 11.208 204.396 11.4C204.396 11.584 204.332 11.74 204.204 11.868C204.084 11.996 203.936 12.06 203.76 12.06ZM206.303 12.06C206.127 12.06 205.975 11.996 205.847 11.868C205.727 11.74 205.667 11.584 205.667 11.4C205.667 11.208 205.727 11.052 205.847 10.932C205.975 10.812 206.127 10.752 206.303 10.752C206.479 10.752 206.627 10.812 206.747 10.932C206.875 11.052 206.939 11.208 206.939 11.4C206.939 11.584 206.875 11.74 206.747 11.868C206.627 11.996 206.479 12.06 206.303 12.06ZM208.846 12.06C208.67 12.06 208.518 11.996 208.39 11.868C208.27 11.74 208.21 11.584 208.21 11.4C208.21 11.208 208.27 11.052 208.39 10.932C208.518 10.812 208.67 10.752 208.846 10.752C209.022 10.752 209.17 10.812 209.29 10.932C209.418 11.052 209.482 11.208 209.482 11.4C209.482 11.584 209.418 11.74 209.29 11.868C209.17 11.996 209.022 12.06 208.846 12.06ZM211.389 12.06C211.213 12.06 211.061 11.996 210.933 11.868C210.813 11.74 210.753 11.584 210.753 11.4C210.753 11.208 210.813 11.052 210.933 10.932C211.061 10.812 211.213 10.752 211.389 10.752C211.565 10.752 211.713 10.812 211.833 10.932C211.961 11.052 212.025 11.208 212.025 11.4C212.025 11.584 211.961 11.74 211.833 11.868C211.713 11.996 211.565 12.06 211.389 12.06ZM213.932 12.06C213.756 12.06 213.604 11.996 213.476 11.868C213.356 11.74 213.296 11.584 213.296 11.4C213.296 11.208 213.356 11.052 213.476 10.932C213.604 10.812 213.756 10.752 213.932 10.752C214.108 10.752 214.256 10.812 214.376 10.932C214.504 11.052 214.568 11.208 214.568 11.4C214.568 11.584 214.504 11.74 214.376 11.868C214.256 11.996 214.108 12.06 213.932 12.06ZM216.475 12.06C216.299 12.06 216.147 11.996 216.019 11.868C215.899 11.74 215.839 11.584 215.839 11.4C215.839 11.208 215.899 11.052 216.019 10.932C216.147 10.812 216.299 10.752 216.475 10.752C216.651 10.752 216.799 10.812 216.919 10.932C217.047 11.052 217.111 11.208 217.111 11.4C217.111 11.584 217.047 11.74 216.919 11.868C216.799 11.996 216.651 12.06 216.475 12.06ZM219.018 12.06C218.842 12.06 218.69 11.996 218.562 11.868C218.442 11.74 218.382 11.584 218.382 11.4C218.382 11.208 218.442 11.052 218.562 10.932C218.69 10.812 218.842 10.752 219.018 10.752C219.194 10.752 219.342 10.812 219.462 10.932C219.59 11.052 219.654 11.208 219.654 11.4C219.654 11.584 219.59 11.74 219.462 11.868C219.342 11.996 219.194 12.06 219.018 12.06ZM221.561 12.06C221.385 12.06 221.233 11.996 221.105 11.868C220.985 11.74 220.925 11.584 220.925 11.4C220.925 11.208 220.985 11.052 221.105 10.932C221.233 10.812 221.385 10.752 221.561 10.752C221.737 10.752 221.885 10.812 222.005 10.932C222.133 11.052 222.197 11.208 222.197 11.4C222.197 11.584 222.133 11.74 222.005 11.868C221.885 11.996 221.737 12.06 221.561 12.06ZM224.104 12.06C223.928 12.06 223.776 11.996 223.648 11.868C223.528 11.74 223.468 11.584 223.468 11.4C223.468 11.208 223.528 11.052 223.648 10.932C223.776 10.812 223.928 10.752 224.104 10.752C224.28 10.752 224.428 10.812 224.548 10.932C224.676 11.052 224.74 11.208 224.74 11.4C224.74 11.584 224.676 11.74 224.548 11.868C224.428 11.996 224.28 12.06 224.104 12.06ZM226.647 12.06C226.471 12.06 226.319 11.996 226.191 11.868C226.071 11.74 226.011 11.584 226.011 11.4C226.011 11.208 226.071 11.052 226.191 10.932C226.319 10.812 226.471 10.752 226.647 10.752C226.823 10.752 226.971 10.812 227.091 10.932C227.219 11.052 227.283 11.208 227.283 11.4C227.283 11.584 227.219 11.74 227.091 11.868C226.971 11.996 226.823 12.06 226.647 12.06ZM229.19 12.06C229.014 12.06 228.862 11.996 228.734 11.868C228.614 11.74 228.554 11.584 228.554 11.4C228.554 11.208 228.614 11.052 228.734 10.932C228.862 10.812 229.014 10.752 229.19 10.752C229.366 10.752 229.514 10.812 229.634 10.932C229.762 11.052 229.826 11.208 229.826 11.4C229.826 11.584 229.762 11.74 229.634 11.868C229.514 11.996 229.366 12.06 229.19 12.06ZM231.733 12.06C231.557 12.06 231.405 11.996 231.277 11.868C231.157 11.74 231.097 11.584 231.097 11.4C231.097 11.208 231.157 11.052 231.277 10.932C231.405 10.812 231.557 10.752 231.733 10.752C231.909 10.752 232.057 10.812 232.177 10.932C232.305 11.052 232.369 11.208 232.369 11.4C232.369 11.584 232.305 11.74 232.177 11.868C232.057 11.996 231.909 12.06 231.733 12.06ZM234.276 12.06C234.1 12.06 233.948 11.996 233.82 11.868C233.7 11.74 233.64 11.584 233.64 11.4C233.64 11.208 233.7 11.052 233.82 10.932C233.948 10.812 234.1 10.752 234.276 10.752C234.452 10.752 234.6 10.812 234.72 10.932C234.848 11.052 234.912 11.208 234.912 11.4C234.912 11.584 234.848 11.74 234.72 11.868C234.6 11.996 234.452 12.06 234.276 12.06ZM236.819 12.06C236.643 12.06 236.491 11.996 236.363 11.868C236.243 11.74 236.183 11.584 236.183 11.4C236.183 11.208 236.243 11.052 236.363 10.932C236.491 10.812 236.643 10.752 236.819 10.752C236.995 10.752 237.143 10.812 237.263 10.932C237.391 11.052 237.455 11.208 237.455 11.4C237.455 11.584 237.391 11.74 237.263 11.868C237.143 11.996 236.995 12.06 236.819 12.06ZM239.362 12.06C239.186 12.06 239.034 11.996 238.906 11.868C238.786 11.74 238.726 11.584 238.726 11.4C238.726 11.208 238.786 11.052 238.906 10.932C239.034 10.812 239.186 10.752 239.362 10.752C239.538 10.752 239.686 10.812 239.806 10.932C239.934 11.052 239.998 11.208 239.998 11.4C239.998 11.584 239.934 11.74 239.806 11.868C239.686 11.996 239.538 12.06 239.362 12.06ZM241.905 12.06C241.729 12.06 241.577 11.996 241.449 11.868C241.329 11.74 241.269 11.584 241.269 11.4C241.269 11.208 241.329 11.052 241.449 10.932C241.577 10.812 241.729 10.752 241.905 10.752C242.081 10.752 242.229 10.812 242.349 10.932C242.477 11.052 242.541 11.208 242.541 11.4C242.541 11.584 242.477 11.74 242.349 11.868C242.229 11.996 242.081 12.06 241.905 12.06ZM244.448 12.06C244.272 12.06 244.12 11.996 243.992 11.868C243.872 11.74 243.812 11.584 243.812 11.4C243.812 11.208 243.872 11.052 243.992 10.932C244.12 10.812 244.272 10.752 244.448 10.752C244.624 10.752 244.772 10.812 244.892 10.932C245.02 11.052 245.084 11.208 245.084 11.4C245.084 11.584 245.02 11.74 244.892 11.868C244.772 11.996 244.624 12.06 244.448 12.06ZM246.991 12.06C246.815 12.06 246.663 11.996 246.535 11.868C246.415 11.74 246.355 11.584 246.355 11.4C246.355 11.208 246.415 11.052 246.535 10.932C246.663 10.812 246.815 10.752 246.991 10.752C247.167 10.752 247.315 10.812 247.435 10.932C247.563 11.052 247.627 11.208 247.627 11.4C247.627 11.584 247.563 11.74 247.435 11.868C247.315 11.996 247.167 12.06 246.991 12.06ZM249.534 12.06C249.358 12.06 249.206 11.996 249.078 11.868C248.958 11.74 248.898 11.584 248.898 11.4C248.898 11.208 248.958 11.052 249.078 10.932C249.206 10.812 249.358 10.752 249.534 10.752C249.71 10.752 249.858 10.812 249.978 10.932C250.106 11.052 250.17 11.208 250.17 11.4C250.17 11.584 250.106 11.74 249.978 11.868C249.858 11.996 249.71 12.06 249.534 12.06ZM252.077 12.06C251.901 12.06 251.749 11.996 251.621 11.868C251.501 11.74 251.441 11.584 251.441 11.4C251.441 11.208 251.501 11.052 251.621 10.932C251.749 10.812 251.901 10.752 252.077 10.752C252.253 10.752 252.401 10.812 252.521 10.932C252.649 11.052 252.713 11.208 252.713 11.4C252.713 11.584 252.649 11.74 252.521 11.868C252.401 11.996 252.253 12.06 252.077 12.06ZM254.62 12.06C254.444 12.06 254.292 11.996 254.164 11.868C254.044 11.74 253.984 11.584 253.984 11.4C253.984 11.208 254.044 11.052 254.164 10.932C254.292 10.812 254.444 10.752 254.62 10.752C254.796 10.752 254.944 10.812 255.064 10.932C255.192 11.052 255.256 11.208 255.256 11.4C255.256 11.584 255.192 11.74 255.064 11.868C254.944 11.996 254.796 12.06 254.62 12.06ZM257.163 12.06C256.987 12.06 256.835 11.996 256.707 11.868C256.587 11.74 256.527 11.584 256.527 11.4C256.527 11.208 256.587 11.052 256.707 10.932C256.835 10.812 256.987 10.752 257.163 10.752C257.339 10.752 257.487 10.812 257.607 10.932C257.735 11.052 257.799 11.208 257.799 11.4C257.799 11.584 257.735 11.74 257.607 11.868C257.487 11.996 257.339 12.06 257.163 12.06ZM259.706 12.06C259.53 12.06 259.378 11.996 259.25 11.868C259.13 11.74 259.07 11.584 259.07 11.4C259.07 11.208 259.13 11.052 259.25 10.932C259.378 10.812 259.53 10.752 259.706 10.752C259.882 10.752 260.03 10.812 260.15 10.932C260.278 11.052 260.342 11.208 260.342 11.4C260.342 11.584 260.278 11.74 260.15 11.868C260.03 11.996 259.882 12.06 259.706 12.06ZM262.249 12.06C262.073 12.06 261.921 11.996 261.793 11.868C261.673 11.74 261.613 11.584 261.613 11.4C261.613 11.208 261.673 11.052 261.793 10.932C261.921 10.812 262.073 10.752 262.249 10.752C262.425 10.752 262.573 10.812 262.693 10.932C262.821 11.052 262.885 11.208 262.885 11.4C262.885 11.584 262.821 11.74 262.693 11.868C262.573 11.996 262.425 12.06 262.249 12.06ZM264.792 12.06C264.616 12.06 264.464 11.996 264.336 11.868C264.216 11.74 264.156 11.584 264.156 11.4C264.156 11.208 264.216 11.052 264.336 10.932C264.464 10.812 264.616 10.752 264.792 10.752C264.968 10.752 265.116 10.812 265.236 10.932C265.364 11.052 265.428 11.208 265.428 11.4C265.428 11.584 265.364 11.74 265.236 11.868C265.116 11.996 264.968 12.06 264.792 12.06ZM267.335 12.06C267.159 12.06 267.007 11.996 266.879 11.868C266.759 11.74 266.699 11.584 266.699 11.4C266.699 11.208 266.759 11.052 266.879 10.932C267.007 10.812 267.159 10.752 267.335 10.752C267.511 10.752 267.659 10.812 267.779 10.932C267.907 11.052 267.971 11.208 267.971 11.4C267.971 11.584 267.907 11.74 267.779 11.868C267.659 11.996 267.511 12.06 267.335 12.06ZM269.877 12.06C269.701 12.06 269.549 11.996 269.421 11.868C269.301 11.74 269.241 11.584 269.241 11.4C269.241 11.208 269.301 11.052 269.421 10.932C269.549 10.812 269.701 10.752 269.877 10.752C270.053 10.752 270.201 10.812 270.321 10.932C270.449 11.052 270.513 11.208 270.513 11.4C270.513 11.584 270.449 11.74 270.321 11.868C270.201 11.996 270.053 12.06 269.877 12.06ZM272.42 12.06C272.244 12.06 272.092 11.996 271.964 11.868C271.844 11.74 271.784 11.584 271.784 11.4C271.784 11.208 271.844 11.052 271.964 10.932C272.092 10.812 272.244 10.752 272.42 10.752C272.596 10.752 272.744 10.812 272.864 10.932C272.992 11.052 273.056 11.208 273.056 11.4C273.056 11.584 272.992 11.74 272.864 11.868C272.744 11.996 272.596 12.06 272.42 12.06ZM274.963 12.06C274.787 12.06 274.635 11.996 274.507 11.868C274.387 11.74 274.327 11.584 274.327 11.4C274.327 11.208 274.387 11.052 274.507 10.932C274.635 10.812 274.787 10.752 274.963 10.752C275.139 10.752 275.287 10.812 275.407 10.932C275.535 11.052 275.599 11.208 275.599 11.4C275.599 11.584 275.535 11.74 275.407 11.868C275.287 11.996 275.139 12.06 274.963 12.06ZM277.506 12.06C277.33 12.06 277.178 11.996 277.05 11.868C276.93 11.74 276.87 11.584 276.87 11.4C276.87 11.208 276.93 11.052 277.05 10.932C277.178 10.812 277.33 10.752 277.506 10.752C277.682 10.752 277.83 10.812 277.95 10.932C278.078 11.052 278.142 11.208 278.142 11.4C278.142 11.584 278.078 11.74 277.95 11.868C277.83 11.996 277.682 12.06 277.506 12.06ZM280.049 12.06C279.873 12.06 279.721 11.996 279.593 11.868C279.473 11.74 279.413 11.584 279.413 11.4C279.413 11.208 279.473 11.052 279.593 10.932C279.721 10.812 279.873 10.752 280.049 10.752C280.225 10.752 280.373 10.812 280.493 10.932C280.621 11.052 280.685 11.208 280.685 11.4C280.685 11.584 280.621 11.74 280.493 11.868C280.373 11.996 280.225 12.06 280.049 12.06ZM282.592 12.06C282.416 12.06 282.264 11.996 282.136 11.868C282.016 11.74 281.956 11.584 281.956 11.4C281.956 11.208 282.016 11.052 282.136 10.932C282.264 10.812 282.416 10.752 282.592 10.752C282.768 10.752 282.916 10.812 283.036 10.932C283.164 11.052 283.228 11.208 283.228 11.4C283.228 11.584 283.164 11.74 283.036 11.868C282.916 11.996 282.768 12.06 282.592 12.06ZM285.135 12.06C284.959 12.06 284.807 11.996 284.679 11.868C284.559 11.74 284.499 11.584 284.499 11.4C284.499 11.208 284.559 11.052 284.679 10.932C284.807 10.812 284.959 10.752 285.135 10.752C285.311 10.752 285.459 10.812 285.579 10.932C285.707 11.052 285.771 11.208 285.771 11.4C285.771 11.584 285.707 11.74 285.579 11.868C285.459 11.996 285.311 12.06 285.135 12.06ZM287.678 12.06C287.502 12.06 287.35 11.996 287.222 11.868C287.102 11.74 287.042 11.584 287.042 11.4C287.042 11.208 287.102 11.052 287.222 10.932C287.35 10.812 287.502 10.752 287.678 10.752C287.854 10.752 288.002 10.812 288.122 10.932C288.25 11.052 288.314 11.208 288.314 11.4C288.314 11.584 288.25 11.74 288.122 11.868C288.002 11.996 287.854 12.06 287.678 12.06ZM290.221 12.06C290.045 12.06 289.893 11.996 289.765 11.868C289.645 11.74 289.585 11.584 289.585 11.4C289.585 11.208 289.645 11.052 289.765 10.932C289.893 10.812 290.045 10.752 290.221 10.752C290.397 10.752 290.545 10.812 290.665 10.932C290.793 11.052 290.857 11.208 290.857 11.4C290.857 11.584 290.793 11.74 290.665 11.868C290.545 11.996 290.397 12.06 290.221 12.06Z" fill="black"/>
</svg>
