<svg width="322" height="18" viewBox="0 0 322 18" fill="none" xmlns="http://www.w3.org/2000/svg">
<path d="M1.4 13L3.816 7.656L3.992 7.912H0.528L0.824 7.632V8.96H0.256V7.4H4.368V7.808L2.024 13H1.4ZM6.7465 13.048C6.3465 13.048 5.96517 12.984 5.6025 12.856C5.23983 12.7227 4.95183 12.5467 4.7385 12.328L5.0185 11.872C5.1945 12.0587 5.4345 12.2133 5.7385 12.336C6.04783 12.4587 6.38117 12.52 6.7385 12.52C7.21317 12.52 7.57317 12.416 7.8185 12.208C8.06917 11.9947 8.1945 11.7173 8.1945 11.376C8.1945 11.136 8.13583 10.9307 8.0185 10.76C7.9065 10.584 7.7145 10.448 7.4425 10.352C7.1705 10.256 6.79717 10.208 6.3225 10.208H5.1305L5.4185 7.4H8.4825V7.912H5.6505L5.9465 7.632L5.6985 9.984L5.4025 9.696H6.4505C7.01583 9.696 7.46917 9.76533 7.8105 9.904C8.15183 10.0427 8.39717 10.2373 8.5465 10.488C8.70117 10.7333 8.7785 11.0213 8.7785 11.352C8.7785 11.6667 8.70383 11.9547 8.5545 12.216C8.40517 12.472 8.18117 12.6747 7.8825 12.824C7.58383 12.9733 7.20517 13.048 6.7465 13.048ZM11.7418 13.048C11.3098 13.048 10.9258 12.936 10.5898 12.712C10.2538 12.4827 9.98975 12.1573 9.79775 11.736C9.60575 11.3093 9.50975 10.7973 9.50975 10.2C9.50975 9.60267 9.60575 9.09333 9.79775 8.672C9.98975 8.24533 10.2538 7.92 10.5898 7.696C10.9258 7.46667 11.3098 7.352 11.7418 7.352C12.1738 7.352 12.5578 7.46667 12.8938 7.696C13.2298 7.92 13.4938 8.24533 13.6858 8.672C13.8831 9.09333 13.9818 9.60267 13.9818 10.2C13.9818 10.7973 13.8831 11.3093 13.6858 11.736C13.4938 12.1573 13.2298 12.4827 12.8938 12.712C12.5578 12.936 12.1738 13.048 11.7418 13.048ZM11.7418 12.52C12.0724 12.52 12.3604 12.432 12.6058 12.256C12.8511 12.0747 13.0431 11.8133 13.1818 11.472C13.3204 11.1253 13.3898 10.7013 13.3898 10.2C13.3898 9.69867 13.3204 9.27733 13.1818 8.936C13.0431 8.58933 12.8511 8.328 12.6058 8.152C12.3604 7.97067 12.0724 7.88 11.7418 7.88C11.4218 7.88 11.1364 7.97067 10.8858 8.152C10.6351 8.328 10.4404 8.58933 10.3018 8.936C10.1631 9.27733 10.0938 9.69867 10.0938 10.2C10.0938 10.7013 10.1631 11.1253 10.3018 11.472C10.4404 11.8133 10.6351 12.0747 10.8858 12.256C11.1364 12.432 11.4218 12.52 11.7418 12.52ZM20.4306 8.76C20.772 8.76 21.068 8.82667 21.3186 8.96C21.5746 9.088 21.772 9.28533 21.9106 9.552C22.0546 9.81867 22.1266 10.1547 22.1266 10.56V13H21.5586V10.616C21.5586 10.1733 21.452 9.84 21.2386 9.616C21.0306 9.38667 20.7346 9.272 20.3506 9.272C20.0626 9.272 19.812 9.33333 19.5986 9.456C19.3906 9.57333 19.228 9.74667 19.1106 9.976C18.9986 10.2 18.9426 10.472 18.9426 10.792V13H18.3746V10.616C18.3746 10.1733 18.268 9.84 18.0546 9.616C17.8413 9.38667 17.5426 9.272 17.1586 9.272C16.876 9.272 16.628 9.33333 16.4146 9.456C16.2013 9.57333 16.036 9.74667 15.9186 9.976C15.8066 10.2 15.7506 10.472 15.7506 10.792V13H15.1826V8.8H15.7266V9.936L15.6386 9.736C15.7666 9.432 15.972 9.19467 16.2546 9.024C16.5426 8.848 16.8813 8.76 17.2706 8.76C17.6813 8.76 18.0306 8.864 18.3186 9.072C18.6066 9.27467 18.7933 9.58133 18.8786 9.992L18.6546 9.904C18.7773 9.56267 18.9933 9.288 19.3026 9.08C19.6173 8.86667 19.9933 8.76 20.4306 8.76ZM23.667 13V7.064H24.235V13H23.667ZM28.0292 13V7.4H30.1252C30.5999 7.4 31.0079 7.47733 31.3492 7.632C31.6905 7.78133 31.9519 8 32.1332 8.288C32.3199 8.57067 32.4132 8.91467 32.4132 9.32C32.4132 9.71467 32.3199 10.056 32.1332 10.344C31.9519 10.6267 31.6905 10.8453 31.3492 11C31.0079 11.1493 30.5999 11.224 30.1252 11.224H28.3572L28.6212 10.952V13H28.0292ZM31.8532 13L30.4132 10.968H31.0532L32.5012 13H31.8532ZM28.6212 11L28.3572 10.72H30.1092C30.6692 10.72 31.0932 10.5973 31.3812 10.352C31.6745 10.1067 31.8212 9.76267 31.8212 9.32C31.8212 8.872 31.6745 8.52533 31.3812 8.28C31.0932 8.03467 30.6692 7.912 30.1092 7.912H28.3572L28.6212 7.632V11ZM35.4744 13.04C35.0371 13.04 34.6531 12.9493 34.3224 12.768C33.9918 12.5813 33.7331 12.328 33.5464 12.008C33.3598 11.6827 33.2664 11.312 33.2664 10.896C33.2664 10.48 33.3544 10.112 33.5304 9.792C33.7118 9.472 33.9571 9.22133 34.2664 9.04C34.5811 8.85333 34.9331 8.76 35.3224 8.76C35.7171 8.76 36.0664 8.85067 36.3704 9.032C36.6798 9.208 36.9224 9.45867 37.0984 9.784C37.2744 10.104 37.3624 10.4747 37.3624 10.896C37.3624 10.9227 37.3598 10.952 37.3544 10.984C37.3544 11.0107 37.3544 11.04 37.3544 11.072H33.6984V10.648H37.0504L36.8264 10.816C36.8264 10.512 36.7598 10.2427 36.6264 10.008C36.4984 9.768 36.3224 9.58133 36.0984 9.448C35.8744 9.31467 35.6158 9.248 35.3224 9.248C35.0344 9.248 34.7758 9.31467 34.5464 9.448C34.3171 9.58133 34.1384 9.768 34.0104 10.008C33.8824 10.248 33.8184 10.5227 33.8184 10.832V10.92C33.8184 11.24 33.8878 11.5227 34.0264 11.768C34.1704 12.008 34.3678 12.1973 34.6184 12.336C34.8744 12.4693 35.1651 12.536 35.4904 12.536C35.7464 12.536 35.9838 12.4907 36.2024 12.4C36.4264 12.3093 36.6184 12.1707 36.7784 11.984L37.0984 12.352C36.9118 12.576 36.6771 12.7467 36.3944 12.864C36.1171 12.9813 35.8104 13.04 35.4744 13.04ZM40.2626 13.04C39.8466 13.04 39.4732 12.9493 39.1426 12.768C38.8172 12.5813 38.5612 12.328 38.3746 12.008C38.1879 11.6827 38.0946 11.312 38.0946 10.896C38.0946 10.4747 38.1879 10.104 38.3746 9.784C38.5612 9.464 38.8172 9.21333 39.1426 9.032C39.4732 8.85067 39.8466 8.76 40.2626 8.76C40.6199 8.76 40.9426 8.82933 41.2306 8.968C41.5186 9.10667 41.7452 9.31467 41.9106 9.592L41.4866 9.88C41.3426 9.66667 41.1639 9.50933 40.9506 9.408C40.7372 9.30667 40.5052 9.256 40.2546 9.256C39.9559 9.256 39.6866 9.32533 39.4466 9.464C39.2066 9.59733 39.0172 9.78667 38.8786 10.032C38.7399 10.2773 38.6706 10.5653 38.6706 10.896C38.6706 11.2267 38.7399 11.5147 38.8786 11.76C39.0172 12.0053 39.2066 12.1973 39.4466 12.336C39.6866 12.4693 39.9559 12.536 40.2546 12.536C40.5052 12.536 40.7372 12.4853 40.9506 12.384C41.1639 12.2827 41.3426 12.128 41.4866 11.92L41.9106 12.208C41.7452 12.48 41.5186 12.688 41.2306 12.832C40.9426 12.9707 40.6199 13.04 40.2626 13.04ZM44.4013 13.04C44.0066 13.04 43.7026 12.9333 43.4893 12.72C43.2759 12.5067 43.1693 12.2053 43.1693 11.816V7.872H43.7373V11.784C43.7373 12.0293 43.7986 12.2187 43.9213 12.352C44.0493 12.4853 44.2306 12.552 44.4653 12.552C44.7159 12.552 44.9239 12.48 45.0893 12.336L45.2893 12.744C45.1773 12.8453 45.0413 12.92 44.8813 12.968C44.7266 13.016 44.5666 13.04 44.4013 13.04ZM42.4173 9.272V8.8H45.0173V9.272H42.4173ZM48.9553 13V12.072L48.9313 11.92V10.368C48.9313 10.0107 48.8299 9.736 48.6273 9.544C48.4299 9.352 48.1339 9.256 47.7393 9.256C47.4673 9.256 47.2086 9.30133 46.9633 9.392C46.7179 9.48267 46.5099 9.60267 46.3393 9.752L46.0833 9.328C46.2966 9.14667 46.5526 9.008 46.8513 8.912C47.1499 8.81067 47.4646 8.76 47.7953 8.76C48.3393 8.76 48.7579 8.896 49.0513 9.168C49.3499 9.43467 49.4993 9.84267 49.4993 10.392V13H48.9553ZM47.5073 13.04C47.1926 13.04 46.9179 12.9893 46.6833 12.888C46.4539 12.7813 46.2779 12.6373 46.1553 12.456C46.0326 12.2693 45.9713 12.056 45.9713 11.816C45.9713 11.5973 46.0219 11.4 46.1233 11.224C46.2299 11.0427 46.4006 10.8987 46.6353 10.792C46.8753 10.68 47.1953 10.624 47.5953 10.624H49.0433V11.048H47.6113C47.2059 11.048 46.9233 11.12 46.7633 11.264C46.6086 11.408 46.5312 11.5867 46.5312 11.8C46.5312 12.04 46.6246 12.232 46.8113 12.376C46.9979 12.52 47.2593 12.592 47.5953 12.592C47.9153 12.592 48.1899 12.52 48.4193 12.376C48.6539 12.2267 48.8246 12.0133 48.9313 11.736L49.0593 12.128C48.9526 12.4053 48.7659 12.6267 48.4993 12.792C48.2379 12.9573 47.9073 13.04 47.5073 13.04ZM53.186 8.76C53.5273 8.76 53.826 8.82667 54.082 8.96C54.3433 9.088 54.546 9.28533 54.69 9.552C54.8393 9.81867 54.914 10.1547 54.914 10.56V13H54.346V10.616C54.346 10.1733 54.234 9.84 54.01 9.616C53.7913 9.38667 53.482 9.272 53.082 9.272C52.7833 9.272 52.522 9.33333 52.298 9.456C52.0793 9.57333 51.9087 9.74667 51.786 9.976C51.6687 10.2 51.61 10.472 51.61 10.792V13H51.042V8.8H51.586V9.952L51.498 9.736C51.6313 9.432 51.8447 9.19467 52.138 9.024C52.4313 8.848 52.7807 8.76 53.186 8.76ZM58.2403 14.592C57.8563 14.592 57.4883 14.536 57.1363 14.424C56.7843 14.312 56.4989 14.152 56.2803 13.944L56.5683 13.512C56.7656 13.688 57.0083 13.8267 57.2963 13.928C57.5896 14.0347 57.8989 14.088 58.2243 14.088C58.7576 14.088 59.1496 13.9627 59.4003 13.712C59.6509 13.4667 59.7763 13.0827 59.7763 12.56V11.512L59.8563 10.792L59.8003 10.072V8.8H60.3443V12.488C60.3443 13.2133 60.1656 13.744 59.8083 14.08C59.4563 14.4213 58.9336 14.592 58.2403 14.592ZM58.1363 12.84C57.7363 12.84 57.3763 12.7547 57.0563 12.584C56.7363 12.408 56.4829 12.1653 56.2963 11.856C56.1149 11.5467 56.0243 11.192 56.0243 10.792C56.0243 10.392 56.1149 10.04 56.2963 9.736C56.4829 9.42667 56.7363 9.18667 57.0563 9.016C57.3763 8.84533 57.7363 8.76 58.1363 8.76C58.5096 8.76 58.8456 8.83733 59.1443 8.992C59.4429 9.14667 59.6803 9.376 59.8563 9.68C60.0323 9.984 60.1203 10.3547 60.1203 10.792C60.1203 11.2293 60.0323 11.6 59.8563 11.904C59.6803 12.208 59.4429 12.44 59.1443 12.6C58.8456 12.76 58.5096 12.84 58.1363 12.84ZM58.1923 12.336C58.5016 12.336 58.7763 12.272 59.0163 12.144C59.2563 12.0107 59.4456 11.8293 59.5843 11.6C59.7229 11.3653 59.7923 11.096 59.7923 10.792C59.7923 10.488 59.7229 10.2213 59.5843 9.992C59.4456 9.76267 59.2563 9.584 59.0163 9.456C58.7763 9.32267 58.5016 9.256 58.1923 9.256C57.8883 9.256 57.6136 9.32267 57.3683 9.456C57.1283 9.584 56.9389 9.76267 56.8003 9.992C56.6669 10.2213 56.6003 10.488 56.6003 10.792C56.6003 11.096 56.6669 11.3653 56.8003 11.6C56.9389 11.8293 57.1283 12.0107 57.3683 12.144C57.6136 12.272 57.8883 12.336 58.1923 12.336ZM63.6608 13.04C63.3035 13.04 62.9915 12.9733 62.7248 12.84C62.4581 12.7067 62.2501 12.5067 62.1008 12.24C61.9568 11.9733 61.8848 11.64 61.8848 11.24V8.8H62.4528V11.176C62.4528 11.624 62.5621 11.9627 62.7808 12.192C63.0048 12.416 63.3168 12.528 63.7168 12.528C64.0101 12.528 64.2635 12.4693 64.4768 12.352C64.6955 12.2293 64.8608 12.0533 64.9728 11.824C65.0901 11.5947 65.1488 11.32 65.1488 11V8.8H65.7168V13H65.1728V11.848L65.2608 12.056C65.1275 12.3653 64.9195 12.608 64.6368 12.784C64.3595 12.9547 64.0341 13.04 63.6608 13.04ZM67.2998 13V7.064H67.8678V13H67.2998ZM72.0803 13V12.072L72.0563 11.92V10.368C72.0563 10.0107 71.9549 9.736 71.7523 9.544C71.5549 9.352 71.2589 9.256 70.8643 9.256C70.5923 9.256 70.3336 9.30133 70.0883 9.392C69.8429 9.48267 69.6349 9.60267 69.4643 9.752L69.2083 9.328C69.4216 9.14667 69.6776 9.008 69.9763 8.912C70.2749 8.81067 70.5896 8.76 70.9203 8.76C71.4643 8.76 71.8829 8.896 72.1763 9.168C72.4749 9.43467 72.6243 9.84267 72.6243 10.392V13H72.0803ZM70.6323 13.04C70.3176 13.04 70.0429 12.9893 69.8083 12.888C69.5789 12.7813 69.4029 12.6373 69.2803 12.456C69.1576 12.2693 69.0963 12.056 69.0963 11.816C69.0963 11.5973 69.1469 11.4 69.2483 11.224C69.3549 11.0427 69.5256 10.8987 69.7603 10.792C70.0003 10.68 70.3203 10.624 70.7203 10.624H72.1683V11.048H70.7363C70.3309 11.048 70.0483 11.12 69.8883 11.264C69.7336 11.408 69.6562 11.5867 69.6562 11.8C69.6562 12.04 69.7496 12.232 69.9363 12.376C70.1229 12.52 70.3843 12.592 70.7203 12.592C71.0403 12.592 71.3149 12.52 71.5443 12.376C71.7789 12.2267 71.9496 12.0133 72.0563 11.736L72.1843 12.128C72.0776 12.4053 71.8909 12.6267 71.6243 12.792C71.3629 12.9573 71.0323 13.04 70.6323 13.04ZM74.167 13V8.8H74.711V9.944L74.655 9.744C74.7723 9.424 74.9697 9.18133 75.247 9.016C75.5243 8.84533 75.8683 8.76 76.279 8.76V9.312C76.2577 9.312 76.2363 9.312 76.215 9.312C76.1937 9.30667 76.1723 9.304 76.151 9.304C75.7083 9.304 75.3617 9.44 75.111 9.712C74.8603 9.97867 74.735 10.36 74.735 10.856V13H74.167ZM82.0237 13.048C81.6024 13.048 81.213 12.9787 80.8557 12.84C80.4984 12.696 80.189 12.496 79.9277 12.24C79.6664 11.984 79.461 11.6827 79.3117 11.336C79.1677 10.9893 79.0957 10.6107 79.0957 10.2C79.0957 9.78933 79.1677 9.41067 79.3117 9.064C79.461 8.71733 79.6664 8.416 79.9277 8.16C80.1944 7.904 80.5064 7.70667 80.8637 7.568C81.221 7.424 81.6104 7.352 82.0317 7.352C82.437 7.352 82.8184 7.42133 83.1757 7.56C83.533 7.69333 83.8344 7.896 84.0797 8.168L83.7037 8.544C83.4744 8.30933 83.221 8.14133 82.9437 8.04C82.6664 7.93333 82.3677 7.88 82.0477 7.88C81.7117 7.88 81.3997 7.93867 81.1117 8.056C80.8237 8.168 80.573 8.33067 80.3597 8.544C80.1464 8.752 79.9784 8.99733 79.8557 9.28C79.7384 9.55733 79.6797 9.864 79.6797 10.2C79.6797 10.536 79.7384 10.8453 79.8557 11.128C79.9784 11.4053 80.1464 11.6507 80.3597 11.864C80.573 12.072 80.8237 12.2347 81.1117 12.352C81.3997 12.464 81.7117 12.52 82.0477 12.52C82.3677 12.52 82.6664 12.4667 82.9437 12.36C83.221 12.2533 83.4744 12.0827 83.7037 11.848L84.0797 12.224C83.8344 12.496 83.533 12.7013 83.1757 12.84C82.8184 12.9787 82.4344 13.048 82.0237 13.048ZM86.7462 13.04C86.3409 13.04 85.9755 12.9493 85.6502 12.768C85.3302 12.5813 85.0769 12.328 84.8902 12.008C84.7035 11.6827 84.6102 11.312 84.6102 10.896C84.6102 10.4747 84.7035 10.104 84.8902 9.784C85.0769 9.464 85.3302 9.21333 85.6502 9.032C85.9702 8.85067 86.3355 8.76 86.7462 8.76C87.1622 8.76 87.5302 8.85067 87.8502 9.032C88.1755 9.21333 88.4289 9.464 88.6102 9.784C88.7969 10.104 88.8902 10.4747 88.8902 10.896C88.8902 11.312 88.7969 11.6827 88.6102 12.008C88.4289 12.328 88.1755 12.5813 87.8502 12.768C87.5249 12.9493 87.1569 13.04 86.7462 13.04ZM86.7462 12.536C87.0502 12.536 87.3195 12.4693 87.5542 12.336C87.7889 12.1973 87.9729 12.0053 88.1062 11.76C88.2449 11.5093 88.3142 11.2213 88.3142 10.896C88.3142 10.5653 88.2449 10.2773 88.1062 10.032C87.9729 9.78667 87.7889 9.59733 87.5542 9.464C87.3195 9.32533 87.0529 9.256 86.7542 9.256C86.4555 9.256 86.1889 9.32533 85.9542 9.464C85.7195 9.59733 85.5329 9.78667 85.3942 10.032C85.2555 10.2773 85.1862 10.5653 85.1862 10.896C85.1862 11.2213 85.2555 11.5093 85.3942 11.76C85.5329 12.0053 85.7195 12.1973 85.9542 12.336C86.1889 12.4693 86.4529 12.536 86.7462 12.536ZM92.1938 8.76C92.5351 8.76 92.8338 8.82667 93.0898 8.96C93.3511 9.088 93.5538 9.28533 93.6978 9.552C93.8471 9.81867 93.9218 10.1547 93.9218 10.56V13H93.3538V10.616C93.3538 10.1733 93.2418 9.84 93.0178 9.616C92.7991 9.38667 92.4898 9.272 92.0898 9.272C91.7911 9.272 91.5298 9.33333 91.3058 9.456C91.0871 9.57333 90.9165 9.74667 90.7938 9.976C90.6765 10.2 90.6178 10.472 90.6178 10.792V13H90.0498V8.8H90.5938V9.952L90.5058 9.736C90.6391 9.432 90.8525 9.19467 91.1458 9.024C91.4391 8.848 91.7885 8.76 92.1938 8.76ZM96.7841 13.04C96.3894 13.04 96.0854 12.9333 95.8721 12.72C95.6587 12.5067 95.5521 12.2053 95.5521 11.816V7.872H96.1201V11.784C96.1201 12.0293 96.1814 12.2187 96.3041 12.352C96.4321 12.4853 96.6134 12.552 96.8481 12.552C97.0987 12.552 97.3067 12.48 97.4721 12.336L97.6721 12.744C97.5601 12.8453 97.4241 12.92 97.2641 12.968C97.1094 13.016 96.9494 13.04 96.7841 13.04ZM94.8001 9.272V8.8H97.4001V9.272H94.8001ZM101.338 13V12.072L101.314 11.92V10.368C101.314 10.0107 101.213 9.736 101.01 9.544C100.813 9.352 100.517 9.256 100.122 9.256C99.8501 9.256 99.5914 9.30133 99.3461 9.392C99.1007 9.48267 98.8927 9.60267 98.7221 9.752L98.4661 9.328C98.6794 9.14667 98.9354 9.008 99.2341 8.912C99.5327 8.81067 99.8474 8.76 100.178 8.76C100.722 8.76 101.141 8.896 101.434 9.168C101.733 9.43467 101.882 9.84267 101.882 10.392V13H101.338ZM99.8901 13.04C99.5754 13.04 99.3007 12.9893 99.0661 12.888C98.8367 12.7813 98.6607 12.6373 98.5381 12.456C98.4154 12.2693 98.3541 12.056 98.3541 11.816C98.3541 11.5973 98.4047 11.4 98.5061 11.224C98.6127 11.0427 98.7834 10.8987 99.0181 10.792C99.2581 10.68 99.5781 10.624 99.9781 10.624H101.426V11.048H99.9941C99.5887 11.048 99.3061 11.12 99.1461 11.264C98.9914 11.408 98.9141 11.5867 98.9141 11.8C98.9141 12.04 99.0074 12.232 99.1941 12.376C99.3807 12.52 99.6421 12.592 99.9781 12.592C100.298 12.592 100.573 12.52 100.802 12.376C101.037 12.2267 101.207 12.0133 101.314 11.736L101.442 12.128C101.335 12.4053 101.149 12.6267 100.882 12.792C100.621 12.9573 100.29 13.04 99.8901 13.04ZM103.425 13V8.8H103.993V13H103.425ZM103.713 7.872C103.595 7.872 103.497 7.832 103.417 7.752C103.337 7.672 103.297 7.576 103.297 7.464C103.297 7.352 103.337 7.25867 103.417 7.184C103.497 7.104 103.595 7.064 103.713 7.064C103.83 7.064 103.929 7.10133 104.009 7.176C104.089 7.25067 104.129 7.344 104.129 7.456C104.129 7.57333 104.089 7.672 104.009 7.752C103.934 7.832 103.835 7.872 103.713 7.872ZM107.717 8.76C108.059 8.76 108.357 8.82667 108.613 8.96C108.875 9.088 109.077 9.28533 109.221 9.552C109.371 9.81867 109.445 10.1547 109.445 10.56V13H108.877V10.616C108.877 10.1733 108.765 9.84 108.541 9.616C108.323 9.38667 108.013 9.272 107.613 9.272C107.315 9.272 107.053 9.33333 106.829 9.456C106.611 9.57333 106.44 9.74667 106.317 9.976C106.2 10.2 106.141 10.472 106.141 10.792V13H105.573V8.8H106.117V9.952L106.029 9.736C106.163 9.432 106.376 9.19467 106.669 9.024C106.963 8.848 107.312 8.76 107.717 8.76ZM112.764 13.04C112.326 13.04 111.942 12.9493 111.612 12.768C111.281 12.5813 111.022 12.328 110.836 12.008C110.649 11.6827 110.556 11.312 110.556 10.896C110.556 10.48 110.644 10.112 110.82 9.792C111.001 9.472 111.246 9.22133 111.556 9.04C111.87 8.85333 112.222 8.76 112.612 8.76C113.006 8.76 113.356 8.85067 113.66 9.032C113.969 9.208 114.212 9.45867 114.388 9.784C114.564 10.104 114.652 10.4747 114.652 10.896C114.652 10.9227 114.649 10.952 114.644 10.984C114.644 11.0107 114.644 11.04 114.644 11.072H110.988V10.648H114.34L114.116 10.816C114.116 10.512 114.049 10.2427 113.916 10.008C113.788 9.768 113.612 9.58133 113.388 9.448C113.164 9.31467 112.905 9.248 112.612 9.248C112.324 9.248 112.065 9.31467 111.836 9.448C111.606 9.58133 111.428 9.768 111.3 10.008C111.172 10.248 111.108 10.5227 111.108 10.832V10.92C111.108 11.24 111.177 11.5227 111.316 11.768C111.46 12.008 111.657 12.1973 111.908 12.336C112.164 12.4693 112.454 12.536 112.78 12.536C113.036 12.536 113.273 12.4907 113.492 12.4C113.716 12.3093 113.908 12.1707 114.068 11.984L114.388 12.352C114.201 12.576 113.966 12.7467 113.684 12.864C113.406 12.9813 113.1 13.04 112.764 13.04ZM115.808 13V8.8H116.352V9.944L116.296 9.744C116.413 9.424 116.61 9.18133 116.888 9.016C117.165 8.84533 117.509 8.76 117.92 8.76V9.312C117.898 9.312 117.877 9.312 117.856 9.312C117.834 9.30667 117.813 9.304 117.792 9.304C117.349 9.304 117.002 9.44 116.752 9.712C116.501 9.97867 116.376 10.36 116.376 10.856V13H115.808Z" fill="black"/>
<path d="M306.949 14.048C306.517 14.048 306.133 13.936 305.797 13.712C305.461 13.4827 305.197 13.1573 305.005 12.736C304.813 12.3093 304.717 11.7973 304.717 11.2C304.717 10.6027 304.813 10.0933 305.005 9.672C305.197 9.24533 305.461 8.92 305.797 8.696C306.133 8.46667 306.517 8.352 306.949 8.352C307.381 8.352 307.765 8.46667 308.101 8.696C308.437 8.92 308.701 9.24533 308.893 9.672C309.09 10.0933 309.189 10.6027 309.189 11.2C309.189 11.7973 309.09 12.3093 308.893 12.736C308.701 13.1573 308.437 13.4827 308.101 13.712C307.765 13.936 307.381 14.048 306.949 14.048ZM306.949 13.52C307.279 13.52 307.567 13.432 307.813 13.256C308.058 13.0747 308.25 12.8133 308.389 12.472C308.527 12.1253 308.597 11.7013 308.597 11.2C308.597 10.6987 308.527 10.2773 308.389 9.936C308.25 9.58933 308.058 9.328 307.813 9.152C307.567 8.97067 307.279 8.88 306.949 8.88C306.629 8.88 306.343 8.97067 306.093 9.152C305.842 9.328 305.647 9.58933 305.509 9.936C305.37 10.2773 305.301 10.6987 305.301 11.2C305.301 11.7013 305.37 12.1253 305.509 12.472C305.647 12.8133 305.842 13.0747 306.093 13.256C306.343 13.432 306.629 13.52 306.949 13.52ZM312.142 14.048C311.694 14.048 311.307 13.984 310.982 13.856C310.662 13.728 310.414 13.544 310.238 13.304C310.067 13.0587 309.982 12.7707 309.982 12.44C309.982 12.12 310.064 11.848 310.23 11.624C310.4 11.3947 310.646 11.2187 310.966 11.096C311.291 10.9733 311.683 10.912 312.142 10.912C312.595 10.912 312.984 10.9733 313.31 11.096C313.635 11.2187 313.883 11.3947 314.054 11.624C314.23 11.848 314.318 12.12 314.318 12.44C314.318 12.7707 314.23 13.0587 314.054 13.304C313.878 13.544 313.627 13.728 313.302 13.856C312.976 13.984 312.59 14.048 312.142 14.048ZM312.142 13.56C312.638 13.56 313.024 13.4587 313.302 13.256C313.584 13.0533 313.726 12.7787 313.726 12.432C313.726 12.0853 313.584 11.8133 313.302 11.616C313.024 11.4133 312.638 11.312 312.142 11.312C311.646 11.312 311.259 11.4133 310.982 11.616C310.704 11.8133 310.566 12.0853 310.566 12.432C310.566 12.7787 310.704 13.0533 310.982 13.256C311.259 13.4587 311.646 13.56 312.142 13.56ZM312.142 11.24C311.726 11.24 311.371 11.184 311.078 11.072C310.79 10.96 310.568 10.8 310.414 10.592C310.259 10.3787 310.182 10.1253 310.182 9.832C310.182 9.52267 310.262 9.25867 310.422 9.04C310.587 8.816 310.816 8.64533 311.11 8.528C311.403 8.41067 311.747 8.352 312.142 8.352C312.536 8.352 312.88 8.41067 313.174 8.528C313.472 8.64533 313.704 8.816 313.87 9.04C314.035 9.25867 314.118 9.52267 314.118 9.832C314.118 10.1253 314.04 10.3787 313.886 10.592C313.731 10.8 313.504 10.96 313.206 11.072C312.912 11.184 312.558 11.24 312.142 11.24ZM312.142 10.856C312.579 10.856 312.92 10.7653 313.166 10.584C313.411 10.4027 313.534 10.16 313.534 9.856C313.534 9.536 313.406 9.288 313.15 9.112C312.899 8.93067 312.563 8.84 312.142 8.84C311.72 8.84 311.384 8.93067 311.134 9.112C310.883 9.288 310.758 9.53333 310.758 9.848C310.758 10.1573 310.878 10.4027 311.118 10.584C311.363 10.7653 311.704 10.856 312.142 10.856Z" fill="black"/>
<path d="M145.272 12.06C145.096 12.06 144.944 11.996 144.816 11.868C144.696 11.74 144.636 11.584 144.636 11.4C144.636 11.208 144.696 11.052 144.816 10.932C144.944 10.812 145.096 10.752 145.272 10.752C145.448 10.752 145.596 10.812 145.716 10.932C145.844 11.052 145.908 11.208 145.908 11.4C145.908 11.584 145.844 11.74 145.716 11.868C145.596 11.996 145.448 12.06 145.272 12.06ZM147.815 12.06C147.639 12.06 147.487 11.996 147.359 11.868C147.239 11.74 147.179 11.584 147.179 11.4C147.179 11.208 147.239 11.052 147.359 10.932C147.487 10.812 147.639 10.752 147.815 10.752C147.991 10.752 148.139 10.812 148.259 10.932C148.387 11.052 148.451 11.208 148.451 11.4C148.451 11.584 148.387 11.74 148.259 11.868C148.139 11.996 147.991 12.06 147.815 12.06ZM150.358 12.06C150.182 12.06 150.03 11.996 149.902 11.868C149.782 11.74 149.722 11.584 149.722 11.4C149.722 11.208 149.782 11.052 149.902 10.932C150.03 10.812 150.182 10.752 150.358 10.752C150.534 10.752 150.682 10.812 150.802 10.932C150.93 11.052 150.994 11.208 150.994 11.4C150.994 11.584 150.93 11.74 150.802 11.868C150.682 11.996 150.534 12.06 150.358 12.06ZM152.901 12.06C152.725 12.06 152.573 11.996 152.445 11.868C152.325 11.74 152.265 11.584 152.265 11.4C152.265 11.208 152.325 11.052 152.445 10.932C152.573 10.812 152.725 10.752 152.901 10.752C153.077 10.752 153.225 10.812 153.345 10.932C153.473 11.052 153.537 11.208 153.537 11.4C153.537 11.584 153.473 11.74 153.345 11.868C153.225 11.996 153.077 12.06 152.901 12.06ZM155.444 12.06C155.268 12.06 155.116 11.996 154.988 11.868C154.868 11.74 154.808 11.584 154.808 11.4C154.808 11.208 154.868 11.052 154.988 10.932C155.116 10.812 155.268 10.752 155.444 10.752C155.62 10.752 155.768 10.812 155.888 10.932C156.016 11.052 156.08 11.208 156.08 11.4C156.08 11.584 156.016 11.74 155.888 11.868C155.768 11.996 155.62 12.06 155.444 12.06ZM157.987 12.06C157.811 12.06 157.659 11.996 157.531 11.868C157.411 11.74 157.351 11.584 157.351 11.4C157.351 11.208 157.411 11.052 157.531 10.932C157.659 10.812 157.811 10.752 157.987 10.752C158.163 10.752 158.311 10.812 158.431 10.932C158.559 11.052 158.623 11.208 158.623 11.4C158.623 11.584 158.559 11.74 158.431 11.868C158.311 11.996 158.163 12.06 157.987 12.06ZM160.53 12.06C160.354 12.06 160.202 11.996 160.074 11.868C159.954 11.74 159.894 11.584 159.894 11.4C159.894 11.208 159.954 11.052 160.074 10.932C160.202 10.812 160.354 10.752 160.53 10.752C160.706 10.752 160.854 10.812 160.974 10.932C161.102 11.052 161.166 11.208 161.166 11.4C161.166 11.584 161.102 11.74 160.974 11.868C160.854 11.996 160.706 12.06 160.53 12.06ZM163.073 12.06C162.897 12.06 162.745 11.996 162.617 11.868C162.497 11.74 162.437 11.584 162.437 11.4C162.437 11.208 162.497 11.052 162.617 10.932C162.745 10.812 162.897 10.752 163.073 10.752C163.249 10.752 163.397 10.812 163.517 10.932C163.645 11.052 163.709 11.208 163.709 11.4C163.709 11.584 163.645 11.74 163.517 11.868C163.397 11.996 163.249 12.06 163.073 12.06ZM165.616 12.06C165.44 12.06 165.288 11.996 165.16 11.868C165.04 11.74 164.98 11.584 164.98 11.4C164.98 11.208 165.04 11.052 165.16 10.932C165.288 10.812 165.44 10.752 165.616 10.752C165.792 10.752 165.94 10.812 166.06 10.932C166.188 11.052 166.252 11.208 166.252 11.4C166.252 11.584 166.188 11.74 166.06 11.868C165.94 11.996 165.792 12.06 165.616 12.06ZM168.159 12.06C167.983 12.06 167.831 11.996 167.703 11.868C167.583 11.74 167.523 11.584 167.523 11.4C167.523 11.208 167.583 11.052 167.703 10.932C167.831 10.812 167.983 10.752 168.159 10.752C168.335 10.752 168.483 10.812 168.603 10.932C168.731 11.052 168.795 11.208 168.795 11.4C168.795 11.584 168.731 11.74 168.603 11.868C168.483 11.996 168.335 12.06 168.159 12.06ZM170.702 12.06C170.526 12.06 170.374 11.996 170.246 11.868C170.126 11.74 170.066 11.584 170.066 11.4C170.066 11.208 170.126 11.052 170.246 10.932C170.374 10.812 170.526 10.752 170.702 10.752C170.878 10.752 171.026 10.812 171.146 10.932C171.274 11.052 171.338 11.208 171.338 11.4C171.338 11.584 171.274 11.74 171.146 11.868C171.026 11.996 170.878 12.06 170.702 12.06ZM173.245 12.06C173.069 12.06 172.917 11.996 172.789 11.868C172.669 11.74 172.609 11.584 172.609 11.4C172.609 11.208 172.669 11.052 172.789 10.932C172.917 10.812 173.069 10.752 173.245 10.752C173.421 10.752 173.569 10.812 173.689 10.932C173.817 11.052 173.881 11.208 173.881 11.4C173.881 11.584 173.817 11.74 173.689 11.868C173.569 11.996 173.421 12.06 173.245 12.06ZM175.788 12.06C175.612 12.06 175.46 11.996 175.332 11.868C175.212 11.74 175.152 11.584 175.152 11.4C175.152 11.208 175.212 11.052 175.332 10.932C175.46 10.812 175.612 10.752 175.788 10.752C175.964 10.752 176.112 10.812 176.232 10.932C176.36 11.052 176.424 11.208 176.424 11.4C176.424 11.584 176.36 11.74 176.232 11.868C176.112 11.996 175.964 12.06 175.788 12.06ZM178.331 12.06C178.155 12.06 178.003 11.996 177.875 11.868C177.755 11.74 177.695 11.584 177.695 11.4C177.695 11.208 177.755 11.052 177.875 10.932C178.003 10.812 178.155 10.752 178.331 10.752C178.507 10.752 178.655 10.812 178.775 10.932C178.903 11.052 178.967 11.208 178.967 11.4C178.967 11.584 178.903 11.74 178.775 11.868C178.655 11.996 178.507 12.06 178.331 12.06ZM180.874 12.06C180.698 12.06 180.546 11.996 180.418 11.868C180.298 11.74 180.238 11.584 180.238 11.4C180.238 11.208 180.298 11.052 180.418 10.932C180.546 10.812 180.698 10.752 180.874 10.752C181.05 10.752 181.198 10.812 181.318 10.932C181.446 11.052 181.51 11.208 181.51 11.4C181.51 11.584 181.446 11.74 181.318 11.868C181.198 11.996 181.05 12.06 180.874 12.06ZM183.417 12.06C183.241 12.06 183.089 11.996 182.961 11.868C182.841 11.74 182.781 11.584 182.781 11.4C182.781 11.208 182.841 11.052 182.961 10.932C183.089 10.812 183.241 10.752 183.417 10.752C183.593 10.752 183.741 10.812 183.861 10.932C183.989 11.052 184.053 11.208 184.053 11.4C184.053 11.584 183.989 11.74 183.861 11.868C183.741 11.996 183.593 12.06 183.417 12.06ZM185.96 12.06C185.784 12.06 185.632 11.996 185.504 11.868C185.384 11.74 185.324 11.584 185.324 11.4C185.324 11.208 185.384 11.052 185.504 10.932C185.632 10.812 185.784 10.752 185.96 10.752C186.136 10.752 186.284 10.812 186.404 10.932C186.532 11.052 186.596 11.208 186.596 11.4C186.596 11.584 186.532 11.74 186.404 11.868C186.284 11.996 186.136 12.06 185.96 12.06ZM188.502 12.06C188.326 12.06 188.174 11.996 188.046 11.868C187.926 11.74 187.866 11.584 187.866 11.4C187.866 11.208 187.926 11.052 188.046 10.932C188.174 10.812 188.326 10.752 188.502 10.752C188.678 10.752 188.826 10.812 188.946 10.932C189.074 11.052 189.138 11.208 189.138 11.4C189.138 11.584 189.074 11.74 188.946 11.868C188.826 11.996 188.678 12.06 188.502 12.06ZM191.045 12.06C190.869 12.06 190.717 11.996 190.589 11.868C190.469 11.74 190.409 11.584 190.409 11.4C190.409 11.208 190.469 11.052 190.589 10.932C190.717 10.812 190.869 10.752 191.045 10.752C191.221 10.752 191.369 10.812 191.489 10.932C191.617 11.052 191.681 11.208 191.681 11.4C191.681 11.584 191.617 11.74 191.489 11.868C191.369 11.996 191.221 12.06 191.045 12.06ZM193.588 12.06C193.412 12.06 193.26 11.996 193.132 11.868C193.012 11.74 192.952 11.584 192.952 11.4C192.952 11.208 193.012 11.052 193.132 10.932C193.26 10.812 193.412 10.752 193.588 10.752C193.764 10.752 193.912 10.812 194.032 10.932C194.16 11.052 194.224 11.208 194.224 11.4C194.224 11.584 194.16 11.74 194.032 11.868C193.912 11.996 193.764 12.06 193.588 12.06ZM196.131 12.06C195.955 12.06 195.803 11.996 195.675 11.868C195.555 11.74 195.495 11.584 195.495 11.4C195.495 11.208 195.555 11.052 195.675 10.932C195.803 10.812 195.955 10.752 196.131 10.752C196.307 10.752 196.455 10.812 196.575 10.932C196.703 11.052 196.767 11.208 196.767 11.4C196.767 11.584 196.703 11.74 196.575 11.868C196.455 11.996 196.307 12.06 196.131 12.06ZM198.674 12.06C198.498 12.06 198.346 11.996 198.218 11.868C198.098 11.74 198.038 11.584 198.038 11.4C198.038 11.208 198.098 11.052 198.218 10.932C198.346 10.812 198.498 10.752 198.674 10.752C198.85 10.752 198.998 10.812 199.118 10.932C199.246 11.052 199.31 11.208 199.31 11.4C199.31 11.584 199.246 11.74 199.118 11.868C198.998 11.996 198.85 12.06 198.674 12.06ZM201.217 12.06C201.041 12.06 200.889 11.996 200.761 11.868C200.641 11.74 200.581 11.584 200.581 11.4C200.581 11.208 200.641 11.052 200.761 10.932C200.889 10.812 201.041 10.752 201.217 10.752C201.393 10.752 201.541 10.812 201.661 10.932C201.789 11.052 201.853 11.208 201.853 11.4C201.853 11.584 201.789 11.74 201.661 11.868C201.541 11.996 201.393 12.06 201.217 12.06ZM203.76 12.06C203.584 12.06 203.432 11.996 203.304 11.868C203.184 11.74 203.124 11.584 203.124 11.4C203.124 11.208 203.184 11.052 203.304 10.932C203.432 10.812 203.584 10.752 203.76 10.752C203.936 10.752 204.084 10.812 204.204 10.932C204.332 11.052 204.396 11.208 204.396 11.4C204.396 11.584 204.332 11.74 204.204 11.868C204.084 11.996 203.936 12.06 203.76 12.06ZM206.303 12.06C206.127 12.06 205.975 11.996 205.847 11.868C205.727 11.74 205.667 11.584 205.667 11.4C205.667 11.208 205.727 11.052 205.847 10.932C205.975 10.812 206.127 10.752 206.303 10.752C206.479 10.752 206.627 10.812 206.747 10.932C206.875 11.052 206.939 11.208 206.939 11.4C206.939 11.584 206.875 11.74 206.747 11.868C206.627 11.996 206.479 12.06 206.303 12.06ZM208.846 12.06C208.67 12.06 208.518 11.996 208.39 11.868C208.27 11.74 208.21 11.584 208.21 11.4C208.21 11.208 208.27 11.052 208.39 10.932C208.518 10.812 208.67 10.752 208.846 10.752C209.022 10.752 209.17 10.812 209.29 10.932C209.418 11.052 209.482 11.208 209.482 11.4C209.482 11.584 209.418 11.74 209.29 11.868C209.17 11.996 209.022 12.06 208.846 12.06ZM211.389 12.06C211.213 12.06 211.061 11.996 210.933 11.868C210.813 11.74 210.753 11.584 210.753 11.4C210.753 11.208 210.813 11.052 210.933 10.932C211.061 10.812 211.213 10.752 211.389 10.752C211.565 10.752 211.713 10.812 211.833 10.932C211.961 11.052 212.025 11.208 212.025 11.4C212.025 11.584 211.961 11.74 211.833 11.868C211.713 11.996 211.565 12.06 211.389 12.06ZM213.932 12.06C213.756 12.06 213.604 11.996 213.476 11.868C213.356 11.74 213.296 11.584 213.296 11.4C213.296 11.208 213.356 11.052 213.476 10.932C213.604 10.812 213.756 10.752 213.932 10.752C214.108 10.752 214.256 10.812 214.376 10.932C214.504 11.052 214.568 11.208 214.568 11.4C214.568 11.584 214.504 11.74 214.376 11.868C214.256 11.996 214.108 12.06 213.932 12.06ZM216.475 12.06C216.299 12.06 216.147 11.996 216.019 11.868C215.899 11.74 215.839 11.584 215.839 11.4C215.839 11.208 215.899 11.052 216.019 10.932C216.147 10.812 216.299 10.752 216.475 10.752C216.651 10.752 216.799 10.812 216.919 10.932C217.047 11.052 217.111 11.208 217.111 11.4C217.111 11.584 217.047 11.74 216.919 11.868C216.799 11.996 216.651 12.06 216.475 12.06ZM219.018 12.06C218.842 12.06 218.69 11.996 218.562 11.868C218.442 11.74 218.382 11.584 218.382 11.4C218.382 11.208 218.442 11.052 218.562 10.932C218.69 10.812 218.842 10.752 219.018 10.752C219.194 10.752 219.342 10.812 219.462 10.932C219.59 11.052 219.654 11.208 219.654 11.4C219.654 11.584 219.59 11.74 219.462 11.868C219.342 11.996 219.194 12.06 219.018 12.06ZM221.561 12.06C221.385 12.06 221.233 11.996 221.105 11.868C220.985 11.74 220.925 11.584 220.925 11.4C220.925 11.208 220.985 11.052 221.105 10.932C221.233 10.812 221.385 10.752 221.561 10.752C221.737 10.752 221.885 10.812 222.005 10.932C222.133 11.052 222.197 11.208 222.197 11.4C222.197 11.584 222.133 11.74 222.005 11.868C221.885 11.996 221.737 12.06 221.561 12.06ZM224.104 12.06C223.928 12.06 223.776 11.996 223.648 11.868C223.528 11.74 223.468 11.584 223.468 11.4C223.468 11.208 223.528 11.052 223.648 10.932C223.776 10.812 223.928 10.752 224.104 10.752C224.28 10.752 224.428 10.812 224.548 10.932C224.676 11.052 224.74 11.208 224.74 11.4C224.74 11.584 224.676 11.74 224.548 11.868C224.428 11.996 224.28 12.06 224.104 12.06ZM226.647 12.06C226.471 12.06 226.319 11.996 226.191 11.868C226.071 11.74 226.011 11.584 226.011 11.4C226.011 11.208 226.071 11.052 226.191 10.932C226.319 10.812 226.471 10.752 226.647 10.752C226.823 10.752 226.971 10.812 227.091 10.932C227.219 11.052 227.283 11.208 227.283 11.4C227.283 11.584 227.219 11.74 227.091 11.868C226.971 11.996 226.823 12.06 226.647 12.06ZM229.19 12.06C229.014 12.06 228.862 11.996 228.734 11.868C228.614 11.74 228.554 11.584 228.554 11.4C228.554 11.208 228.614 11.052 228.734 10.932C228.862 10.812 229.014 10.752 229.19 10.752C229.366 10.752 229.514 10.812 229.634 10.932C229.762 11.052 229.826 11.208 229.826 11.4C229.826 11.584 229.762 11.74 229.634 11.868C229.514 11.996 229.366 12.06 229.19 12.06ZM231.733 12.06C231.557 12.06 231.405 11.996 231.277 11.868C231.157 11.74 231.097 11.584 231.097 11.4C231.097 11.208 231.157 11.052 231.277 10.932C231.405 10.812 231.557 10.752 231.733 10.752C231.909 10.752 232.057 10.812 232.177 10.932C232.305 11.052 232.369 11.208 232.369 11.4C232.369 11.584 232.305 11.74 232.177 11.868C232.057 11.996 231.909 12.06 231.733 12.06ZM234.276 12.06C234.1 12.06 233.948 11.996 233.82 11.868C233.7 11.74 233.64 11.584 233.64 11.4C233.64 11.208 233.7 11.052 233.82 10.932C233.948 10.812 234.1 10.752 234.276 10.752C234.452 10.752 234.6 10.812 234.72 10.932C234.848 11.052 234.912 11.208 234.912 11.4C234.912 11.584 234.848 11.74 234.72 11.868C234.6 11.996 234.452 12.06 234.276 12.06ZM236.819 12.06C236.643 12.06 236.491 11.996 236.363 11.868C236.243 11.74 236.183 11.584 236.183 11.4C236.183 11.208 236.243 11.052 236.363 10.932C236.491 10.812 236.643 10.752 236.819 10.752C236.995 10.752 237.143 10.812 237.263 10.932C237.391 11.052 237.455 11.208 237.455 11.4C237.455 11.584 237.391 11.74 237.263 11.868C237.143 11.996 236.995 12.06 236.819 12.06ZM239.362 12.06C239.186 12.06 239.034 11.996 238.906 11.868C238.786 11.74 238.726 11.584 238.726 11.4C238.726 11.208 238.786 11.052 238.906 10.932C239.034 10.812 239.186 10.752 239.362 10.752C239.538 10.752 239.686 10.812 239.806 10.932C239.934 11.052 239.998 11.208 239.998 11.4C239.998 11.584 239.934 11.74 239.806 11.868C239.686 11.996 239.538 12.06 239.362 12.06ZM241.905 12.06C241.729 12.06 241.577 11.996 241.449 11.868C241.329 11.74 241.269 11.584 241.269 11.4C241.269 11.208 241.329 11.052 241.449 10.932C241.577 10.812 241.729 10.752 241.905 10.752C242.081 10.752 242.229 10.812 242.349 10.932C242.477 11.052 242.541 11.208 242.541 11.4C242.541 11.584 242.477 11.74 242.349 11.868C242.229 11.996 242.081 12.06 241.905 12.06ZM244.448 12.06C244.272 12.06 244.12 11.996 243.992 11.868C243.872 11.74 243.812 11.584 243.812 11.4C243.812 11.208 243.872 11.052 243.992 10.932C244.12 10.812 244.272 10.752 244.448 10.752C244.624 10.752 244.772 10.812 244.892 10.932C245.02 11.052 245.084 11.208 245.084 11.4C245.084 11.584 245.02 11.74 244.892 11.868C244.772 11.996 244.624 12.06 244.448 12.06ZM246.991 12.06C246.815 12.06 246.663 11.996 246.535 11.868C246.415 11.74 246.355 11.584 246.355 11.4C246.355 11.208 246.415 11.052 246.535 10.932C246.663 10.812 246.815 10.752 246.991 10.752C247.167 10.752 247.315 10.812 247.435 10.932C247.563 11.052 247.627 11.208 247.627 11.4C247.627 11.584 247.563 11.74 247.435 11.868C247.315 11.996 247.167 12.06 246.991 12.06ZM249.534 12.06C249.358 12.06 249.206 11.996 249.078 11.868C248.958 11.74 248.898 11.584 248.898 11.4C248.898 11.208 248.958 11.052 249.078 10.932C249.206 10.812 249.358 10.752 249.534 10.752C249.71 10.752 249.858 10.812 249.978 10.932C250.106 11.052 250.17 11.208 250.17 11.4C250.17 11.584 250.106 11.74 249.978 11.868C249.858 11.996 249.71 12.06 249.534 12.06ZM252.077 12.06C251.901 12.06 251.749 11.996 251.621 11.868C251.501 11.74 251.441 11.584 251.441 11.4C251.441 11.208 251.501 11.052 251.621 10.932C251.749 10.812 251.901 10.752 252.077 10.752C252.253 10.752 252.401 10.812 252.521 10.932C252.649 11.052 252.713 11.208 252.713 11.4C252.713 11.584 252.649 11.74 252.521 11.868C252.401 11.996 252.253 12.06 252.077 12.06ZM254.62 12.06C254.444 12.06 254.292 11.996 254.164 11.868C254.044 11.74 253.984 11.584 253.984 11.4C253.984 11.208 254.044 11.052 254.164 10.932C254.292 10.812 254.444 10.752 254.62 10.752C254.796 10.752 254.944 10.812 255.064 10.932C255.192 11.052 255.256 11.208 255.256 11.4C255.256 11.584 255.192 11.74 255.064 11.868C254.944 11.996 254.796 12.06 254.62 12.06ZM257.163 12.06C256.987 12.06 256.835 11.996 256.707 11.868C256.587 11.74 256.527 11.584 256.527 11.4C256.527 11.208 256.587 11.052 256.707 10.932C256.835 10.812 256.987 10.752 257.163 10.752C257.339 10.752 257.487 10.812 257.607 10.932C257.735 11.052 257.799 11.208 257.799 11.4C257.799 11.584 257.735 11.74 257.607 11.868C257.487 11.996 257.339 12.06 257.163 12.06ZM259.706 12.06C259.53 12.06 259.378 11.996 259.25 11.868C259.13 11.74 259.07 11.584 259.07 11.4C259.07 11.208 259.13 11.052 259.25 10.932C259.378 10.812 259.53 10.752 259.706 10.752C259.882 10.752 260.03 10.812 260.15 10.932C260.278 11.052 260.342 11.208 260.342 11.4C260.342 11.584 260.278 11.74 260.15 11.868C260.03 11.996 259.882 12.06 259.706 12.06ZM262.249 12.06C262.073 12.06 261.921 11.996 261.793 11.868C261.673 11.74 261.613 11.584 261.613 11.4C261.613 11.208 261.673 11.052 261.793 10.932C261.921 10.812 262.073 10.752 262.249 10.752C262.425 10.752 262.573 10.812 262.693 10.932C262.821 11.052 262.885 11.208 262.885 11.4C262.885 11.584 262.821 11.74 262.693 11.868C262.573 11.996 262.425 12.06 262.249 12.06ZM264.792 12.06C264.616 12.06 264.464 11.996 264.336 11.868C264.216 11.74 264.156 11.584 264.156 11.4C264.156 11.208 264.216 11.052 264.336 10.932C264.464 10.812 264.616 10.752 264.792 10.752C264.968 10.752 265.116 10.812 265.236 10.932C265.364 11.052 265.428 11.208 265.428 11.4C265.428 11.584 265.364 11.74 265.236 11.868C265.116 11.996 264.968 12.06 264.792 12.06ZM267.335 12.06C267.159 12.06 267.007 11.996 266.879 11.868C266.759 11.74 266.699 11.584 266.699 11.4C266.699 11.208 266.759 11.052 266.879 10.932C267.007 10.812 267.159 10.752 267.335 10.752C267.511 10.752 267.659 10.812 267.779 10.932C267.907 11.052 267.971 11.208 267.971 11.4C267.971 11.584 267.907 11.74 267.779 11.868C267.659 11.996 267.511 12.06 267.335 12.06ZM269.877 12.06C269.701 12.06 269.549 11.996 269.421 11.868C269.301 11.74 269.241 11.584 269.241 11.4C269.241 11.208 269.301 11.052 269.421 10.932C269.549 10.812 269.701 10.752 269.877 10.752C270.053 10.752 270.201 10.812 270.321 10.932C270.449 11.052 270.513 11.208 270.513 11.4C270.513 11.584 270.449 11.74 270.321 11.868C270.201 11.996 270.053 12.06 269.877 12.06ZM272.42 12.06C272.244 12.06 272.092 11.996 271.964 11.868C271.844 11.74 271.784 11.584 271.784 11.4C271.784 11.208 271.844 11.052 271.964 10.932C272.092 10.812 272.244 10.752 272.42 10.752C272.596 10.752 272.744 10.812 272.864 10.932C272.992 11.052 273.056 11.208 273.056 11.4C273.056 11.584 272.992 11.74 272.864 11.868C272.744 11.996 272.596 12.06 272.42 12.06ZM274.963 12.06C274.787 12.06 274.635 11.996 274.507 11.868C274.387 11.74 274.327 11.584 274.327 11.4C274.327 11.208 274.387 11.052 274.507 10.932C274.635 10.812 274.787 10.752 274.963 10.752C275.139 10.752 275.287 10.812 275.407 10.932C275.535 11.052 275.599 11.208 275.599 11.4C275.599 11.584 275.535 11.74 275.407 11.868C275.287 11.996 275.139 12.06 274.963 12.06ZM277.506 12.06C277.33 12.06 277.178 11.996 277.05 11.868C276.93 11.74 276.87 11.584 276.87 11.4C276.87 11.208 276.93 11.052 277.05 10.932C277.178 10.812 277.33 10.752 277.506 10.752C277.682 10.752 277.83 10.812 277.95 10.932C278.078 11.052 278.142 11.208 278.142 11.4C278.142 11.584 278.078 11.74 277.95 11.868C277.83 11.996 277.682 12.06 277.506 12.06ZM280.049 12.06C279.873 12.06 279.721 11.996 279.593 11.868C279.473 11.74 279.413 11.584 279.413 11.4C279.413 11.208 279.473 11.052 279.593 10.932C279.721 10.812 279.873 10.752 280.049 10.752C280.225 10.752 280.373 10.812 280.493 10.932C280.621 11.052 280.685 11.208 280.685 11.4C280.685 11.584 280.621 11.74 280.493 11.868C280.373 11.996 280.225 12.06 280.049 12.06ZM282.592 12.06C282.416 12.06 282.264 11.996 282.136 11.868C282.016 11.74 281.956 11.584 281.956 11.4C281.956 11.208 282.016 11.052 282.136 10.932C282.264 10.812 282.416 10.752 282.592 10.752C282.768 10.752 282.916 10.812 283.036 10.932C283.164 11.052 283.228 11.208 283.228 11.4C283.228 11.584 283.164 11.74 283.036 11.868C282.916 11.996 282.768 12.06 282.592 12.06ZM285.135 12.06C284.959 12.06 284.807 11.996 284.679 11.868C284.559 11.74 284.499 11.584 284.499 11.4C284.499 11.208 284.559 11.052 284.679 10.932C284.807 10.812 284.959 10.752 285.135 10.752C285.311 10.752 285.459 10.812 285.579 10.932C285.707 11.052 285.771 11.208 285.771 11.4C285.771 11.584 285.707 11.74 285.579 11.868C285.459 11.996 285.311 12.06 285.135 12.06ZM287.678 12.06C287.502 12.06 287.35 11.996 287.222 11.868C287.102 11.74 287.042 11.584 287.042 11.4C287.042 11.208 287.102 11.052 287.222 10.932C287.35 10.812 287.502 10.752 287.678 10.752C287.854 10.752 288.002 10.812 288.122 10.932C288.25 11.052 288.314 11.208 288.314 11.4C288.314 11.584 288.25 11.74 288.122 11.868C288.002 11.996 287.854 12.06 287.678 12.06ZM290.221 12.06C290.045 12.06 289.893 11.996 289.765 11.868C289.645 11.74 289.585 11.584 289.585 11.4C289.585 11.208 289.645 11.052 289.765 10.932C289.893 10.812 290.045 10.752 290.221 10.752C290.397 10.752 290.545 10.812 290.665 10.932C290.793 11.052 290.857 11.208 290.857 11.4C290.857 11.584 290.793 11.74 290.665 11.868C290.545 11.996 290.397 12.06 290.221 12.06Z" fill="black"/>
</svg>
