<svg width="204" height="15" viewBox="0 0 204 15" fill="none" xmlns="http://www.w3.org/2000/svg">
<path d="M38.128 12V3.6H41.584C42.328 3.6 42.964 3.72 43.492 3.96C44.028 4.2 44.44 4.544 44.728 4.992C45.016 5.44 45.16 5.972 45.16 6.588C45.16 7.204 45.016 7.736 44.728 8.184C44.44 8.624 44.028 8.964 43.492 9.204C42.964 9.436 42.328 9.552 41.584 9.552H38.992L39.688 8.844V12H38.128ZM43.624 12L41.5 8.952H43.168L45.304 12H43.624ZM39.688 9.012L38.992 8.268H41.512C42.2 8.268 42.716 8.12 43.06 7.824C43.412 7.528 43.588 7.116 43.588 6.588C43.588 6.052 43.412 5.64 43.06 5.352C42.716 5.064 42.2 4.92 41.512 4.92H38.992L39.688 4.152V9.012ZM48.3453 7.092H52.5213V8.376H48.3453V7.092ZM48.4653 10.692H53.2053V12H46.9053V3.6H53.0373V4.908H48.4653V10.692ZM58.8324 12.12C58.1924 12.12 57.5964 12.016 57.0444 11.808C56.5004 11.592 56.0244 11.292 55.6164 10.908C55.2164 10.516 54.9044 10.056 54.6804 9.528C54.4564 9 54.3444 8.424 54.3444 7.8C54.3444 7.176 54.4564 6.6 54.6804 6.072C54.9044 5.544 55.2204 5.088 55.6284 4.704C56.0364 4.312 56.5124 4.012 57.0564 3.804C57.6004 3.588 58.1964 3.48 58.8444 3.48C59.5324 3.48 60.1604 3.6 60.7284 3.84C61.2964 4.072 61.7764 4.42 62.1684 4.884L61.1604 5.832C60.8564 5.504 60.5164 5.26 60.1404 5.1C59.7644 4.932 59.3564 4.848 58.9164 4.848C58.4764 4.848 58.0724 4.92 57.7044 5.064C57.3444 5.208 57.0284 5.412 56.7564 5.676C56.4924 5.94 56.2844 6.252 56.1324 6.612C55.9884 6.972 55.9164 7.368 55.9164 7.8C55.9164 8.232 55.9884 8.628 56.1324 8.988C56.2844 9.348 56.4924 9.66 56.7564 9.924C57.0284 10.188 57.3444 10.392 57.7044 10.536C58.0724 10.68 58.4764 10.752 58.9164 10.752C59.3564 10.752 59.7644 10.672 60.1404 10.512C60.5164 10.344 60.8564 10.092 61.1604 9.756L62.1684 10.716C61.7764 11.172 61.2964 11.52 60.7284 11.76C60.1604 12 59.5284 12.12 58.8324 12.12ZM65.2734 12V4.92H62.4894V3.6H69.6174V4.92H66.8334V12H65.2734ZM69.1783 12L72.9583 3.6H74.4943L78.2863 12H76.6543L73.4023 4.428H74.0263L70.7863 12H69.1783ZM70.9183 10.056L71.3383 8.832H75.8743L76.2943 10.056H70.9183ZM79.3546 12V3.6H80.6386L85.9066 10.068H85.2706V3.6H86.8186V12H85.5346L80.2666 5.532H80.9026V12H79.3546ZM92.9934 12.12C92.3374 12.12 91.7334 12.016 91.1814 11.808C90.6374 11.592 90.1614 11.292 89.7534 10.908C89.3454 10.516 89.0294 10.056 88.8054 9.528C88.5814 9 88.4694 8.424 88.4694 7.8C88.4694 7.176 88.5814 6.6 88.8054 6.072C89.0294 5.544 89.3454 5.088 89.7534 4.704C90.1694 4.312 90.6534 4.012 91.2054 3.804C91.7574 3.588 92.3614 3.48 93.0174 3.48C93.7294 3.48 94.3694 3.596 94.9374 3.828C95.5134 4.06 95.9974 4.4 96.3894 4.848L95.4054 5.808C95.0774 5.48 94.7214 5.24 94.3374 5.088C93.9614 4.928 93.5454 4.848 93.0894 4.848C92.6494 4.848 92.2414 4.92 91.8654 5.064C91.4894 5.208 91.1654 5.412 90.8934 5.676C90.6214 5.94 90.4094 6.252 90.2574 6.612C90.1134 6.972 90.0414 7.368 90.0414 7.8C90.0414 8.224 90.1134 8.616 90.2574 8.976C90.4094 9.336 90.6214 9.652 90.8934 9.924C91.1654 10.188 91.4854 10.392 91.8534 10.536C92.2214 10.68 92.6294 10.752 93.0774 10.752C93.4934 10.752 93.8934 10.688 94.2774 10.56C94.6694 10.424 95.0414 10.2 95.3934 9.888L96.2814 11.052C95.8414 11.404 95.3294 11.672 94.7454 11.856C94.1694 12.032 93.5854 12.12 92.9934 12.12ZM94.8054 10.848V7.704H96.2814V11.052L94.8054 10.848ZM98.3389 12V3.6H99.8989V10.68H104.291V12H98.3389ZM106.963 7.092H111.139V8.376H106.963V7.092ZM107.083 10.692H111.823V12H105.523V3.6H111.655V4.908H107.083V10.692ZM120.766 12.12C120.126 12.12 119.53 12.016 118.978 11.808C118.434 11.592 117.958 11.292 117.55 10.908C117.15 10.516 116.838 10.056 116.614 9.528C116.39 9 116.278 8.424 116.278 7.8C116.278 7.176 116.39 6.6 116.614 6.072C116.838 5.544 117.154 5.088 117.562 4.704C117.97 4.312 118.446 4.012 118.99 3.804C119.534 3.588 120.13 3.48 120.778 3.48C121.466 3.48 122.094 3.6 122.662 3.84C123.23 4.072 123.71 4.42 124.102 4.884L123.094 5.832C122.79 5.504 122.45 5.26 122.074 5.1C121.698 4.932 121.29 4.848 120.85 4.848C120.41 4.848 120.006 4.92 119.638 5.064C119.278 5.208 118.962 5.412 118.69 5.676C118.426 5.94 118.218 6.252 118.066 6.612C117.922 6.972 117.85 7.368 117.85 7.8C117.85 8.232 117.922 8.628 118.066 8.988C118.218 9.348 118.426 9.66 118.69 9.924C118.962 10.188 119.278 10.392 119.638 10.536C120.006 10.68 120.41 10.752 120.85 10.752C121.29 10.752 121.698 10.672 122.074 10.512C122.45 10.344 122.79 10.092 123.094 9.756L124.102 10.716C123.71 11.172 123.23 11.52 122.662 11.76C122.094 12 121.462 12.12 120.766 12.12ZM129.357 12.12C128.701 12.12 128.097 12.012 127.545 11.796C126.993 11.58 126.513 11.28 126.105 10.896C125.697 10.504 125.381 10.048 125.157 9.528C124.933 9 124.821 8.424 124.821 7.8C124.821 7.176 124.933 6.604 125.157 6.084C125.381 5.556 125.697 5.1 126.105 4.716C126.513 4.324 126.993 4.02 127.545 3.804C128.097 3.588 128.697 3.48 129.345 3.48C130.001 3.48 130.601 3.588 131.145 3.804C131.697 4.02 132.177 4.324 132.585 4.716C132.993 5.1 133.309 5.556 133.533 6.084C133.757 6.604 133.869 7.176 133.869 7.8C133.869 8.424 133.757 9 133.533 9.528C133.309 10.056 132.993 10.512 132.585 10.896C132.177 11.28 131.697 11.58 131.145 11.796C130.601 12.012 130.005 12.12 129.357 12.12ZM129.345 10.752C129.769 10.752 130.161 10.68 130.521 10.536C130.881 10.392 131.193 10.188 131.457 9.924C131.721 9.652 131.925 9.34 132.069 8.988C132.221 8.628 132.297 8.232 132.297 7.8C132.297 7.368 132.221 6.976 132.069 6.624C131.925 6.264 131.721 5.952 131.457 5.688C131.193 5.416 130.881 5.208 130.521 5.064C130.161 4.92 129.769 4.848 129.345 4.848C128.921 4.848 128.529 4.92 128.169 5.064C127.817 5.208 127.505 5.416 127.233 5.688C126.969 5.952 126.761 6.264 126.609 6.624C126.465 6.976 126.393 7.368 126.393 7.8C126.393 8.224 126.465 8.616 126.609 8.976C126.761 9.336 126.969 9.652 127.233 9.924C127.497 10.188 127.809 10.392 128.169 10.536C128.529 10.68 128.921 10.752 129.345 10.752ZM135.523 12V3.6H136.807L142.075 10.068H141.439V3.6H142.987V12H141.703L136.435 5.532H137.071V12H135.523ZM146.941 12V4.92H144.157V3.6H151.285V4.92H148.501V12H146.941ZM150.846 12L154.626 3.6H156.162L159.954 12H158.322L155.07 4.428H155.694L152.454 12H150.846ZM152.586 10.056L153.006 8.832H157.542L157.962 10.056H152.586ZM161.023 12V3.6H162.583V12H161.023ZM164.855 12V3.6H166.139L171.407 10.068H170.771V3.6H172.319V12H171.035L165.767 5.532H166.403V12H164.855ZM176.009 7.092H180.185V8.376H176.009V7.092ZM176.129 10.692H180.869V12H174.569V3.6H180.701V4.908H176.129V10.692ZM182.608 12V3.6H186.064C186.808 3.6 187.444 3.72 187.972 3.96C188.508 4.2 188.92 4.544 189.208 4.992C189.496 5.44 189.64 5.972 189.64 6.588C189.64 7.204 189.496 7.736 189.208 8.184C188.92 8.624 188.508 8.964 187.972 9.204C187.444 9.436 186.808 9.552 186.064 9.552H183.472L184.168 8.844V12H182.608ZM188.104 12L185.98 8.952H187.648L189.784 12H188.104ZM184.168 9.012L183.472 8.268H185.992C186.68 8.268 187.196 8.12 187.54 7.824C187.892 7.528 188.068 7.116 188.068 6.588C188.068 6.052 187.892 5.64 187.54 5.352C187.196 5.064 186.68 4.92 185.992 4.92H183.472L184.168 4.152V9.012ZM193.99 12.12C193.334 12.12 192.706 12.028 192.106 11.844C191.506 11.652 191.03 11.408 190.678 11.112L191.218 9.9C191.554 10.164 191.97 10.384 192.466 10.56C192.962 10.736 193.47 10.824 193.99 10.824C194.43 10.824 194.786 10.776 195.058 10.68C195.33 10.584 195.53 10.456 195.658 10.296C195.786 10.128 195.85 9.94 195.85 9.732C195.85 9.476 195.758 9.272 195.574 9.12C195.39 8.96 195.15 8.836 194.854 8.748C194.566 8.652 194.242 8.564 193.882 8.484C193.53 8.404 193.174 8.312 192.814 8.208C192.462 8.096 192.138 7.956 191.842 7.788C191.554 7.612 191.318 7.38 191.134 7.092C190.95 6.804 190.858 6.436 190.858 5.988C190.858 5.532 190.978 5.116 191.218 4.74C191.466 4.356 191.838 4.052 192.334 3.828C192.838 3.596 193.474 3.48 194.242 3.48C194.746 3.48 195.246 3.544 195.742 3.672C196.238 3.8 196.67 3.984 197.038 4.224L196.546 5.436C196.17 5.212 195.782 5.048 195.382 4.944C194.982 4.832 194.598 4.776 194.23 4.776C193.798 4.776 193.446 4.828 193.174 4.932C192.91 5.036 192.714 5.172 192.586 5.34C192.466 5.508 192.406 5.7 192.406 5.916C192.406 6.172 192.494 6.38 192.67 6.54C192.854 6.692 193.09 6.812 193.378 6.9C193.674 6.988 194.002 7.076 194.362 7.164C194.722 7.244 195.078 7.336 195.43 7.44C195.79 7.544 196.114 7.68 196.402 7.848C196.698 8.016 196.934 8.244 197.11 8.532C197.294 8.82 197.386 9.184 197.386 9.624C197.386 10.072 197.262 10.488 197.014 10.872C196.774 11.248 196.402 11.552 195.898 11.784C195.394 12.008 194.758 12.12 193.99 12.12Z" fill="black"/>
<path d="M9.08919 12.072C8.44119 12.072 7.86519 11.904 7.36119 11.568C6.85719 11.224 6.46119 10.736 6.17319 10.104C5.88519 9.464 5.74119 8.696 5.74119 7.8C5.74119 6.904 5.88519 6.14 6.17319 5.508C6.46119 4.868 6.85719 4.38 7.36119 4.044C7.86519 3.7 8.44119 3.528 9.08919 3.528C9.73719 3.528 10.3132 3.7 10.8172 4.044C11.3212 4.38 11.7172 4.868 12.0052 5.508C12.3012 6.14 12.4492 6.904 12.4492 7.8C12.4492 8.696 12.3012 9.464 12.0052 10.104C11.7172 10.736 11.3212 11.224 10.8172 11.568C10.3132 11.904 9.73719 12.072 9.08919 12.072ZM9.08919 11.28C9.58519 11.28 10.0172 11.148 10.3852 10.884C10.7532 10.612 11.0412 10.22 11.2492 9.708C11.4572 9.188 11.5612 8.552 11.5612 7.8C11.5612 7.048 11.4572 6.416 11.2492 5.904C11.0412 5.384 10.7532 4.992 10.3852 4.728C10.0172 4.456 9.58519 4.32 9.08919 4.32C8.60919 4.32 8.18119 4.456 7.80519 4.728C7.42919 4.992 7.13719 5.384 6.92919 5.904C6.72119 6.416 6.61719 7.048 6.61719 7.8C6.61719 8.552 6.72119 9.188 6.92919 9.708C7.13719 10.22 7.42919 10.612 7.80519 10.884C8.18119 11.148 8.60919 11.28 9.08919 11.28ZM13.5305 12V11.388L17.0225 7.968C17.3425 7.656 17.5825 7.384 17.7425 7.152C17.9025 6.912 18.0105 6.688 18.0665 6.48C18.1225 6.272 18.1505 6.076 18.1505 5.892C18.1505 5.404 17.9825 5.02 17.6465 4.74C17.3185 4.46 16.8305 4.32 16.1825 4.32C15.6865 4.32 15.2465 4.396 14.8625 4.548C14.4865 4.7 14.1625 4.936 13.8905 5.256L13.2785 4.728C13.6065 4.344 14.0265 4.048 14.5385 3.84C15.0505 3.632 15.6225 3.528 16.2545 3.528C16.8225 3.528 17.3145 3.62 17.7305 3.804C18.1465 3.98 18.4665 4.24 18.6905 4.584C18.9225 4.928 19.0385 5.332 19.0385 5.796C19.0385 6.068 18.9985 6.336 18.9185 6.6C18.8465 6.864 18.7105 7.144 18.5105 7.44C18.3185 7.728 18.0345 8.056 17.6585 8.424L14.4545 11.568L14.2145 11.232H19.4225V12H13.5305Z" fill="black"/>
</svg>
