<svg width="174" height="15" viewBox="0 0 174 15" fill="none" xmlns="http://www.w3.org/2000/svg">
<path d="M38.128 12V3.6H41.584C42.328 3.6 42.964 3.72 43.492 3.96C44.028 4.2 44.44 4.544 44.728 4.992C45.016 5.44 45.16 5.972 45.16 6.588C45.16 7.204 45.016 7.736 44.728 8.184C44.44 8.624 44.028 8.964 43.492 9.204C42.964 9.436 42.328 9.552 41.584 9.552H38.992L39.688 8.844V12H38.128ZM43.624 12L41.5 8.952H43.168L45.304 12H43.624ZM39.688 9.012L38.992 8.268H41.512C42.2 8.268 42.716 8.12 43.06 7.824C43.412 7.528 43.588 7.116 43.588 6.588C43.588 6.052 43.412 5.64 43.06 5.352C42.716 5.064 42.2 4.92 41.512 4.92H38.992L39.688 4.152V9.012ZM50.8413 12.12C50.1853 12.12 49.5813 12.012 49.0293 11.796C48.4773 11.58 47.9973 11.28 47.5893 10.896C47.1813 10.504 46.8653 10.048 46.6413 9.528C46.4173 9 46.3053 8.424 46.3053 7.8C46.3053 7.176 46.4173 6.604 46.6413 6.084C46.8653 5.556 47.1813 5.1 47.5893 4.716C47.9973 4.324 48.4773 4.02 49.0293 3.804C49.5813 3.588 50.1813 3.48 50.8293 3.48C51.4853 3.48 52.0853 3.588 52.6293 3.804C53.1813 4.02 53.6613 4.324 54.0693 4.716C54.4773 5.1 54.7933 5.556 55.0173 6.084C55.2413 6.604 55.3533 7.176 55.3533 7.8C55.3533 8.424 55.2413 9 55.0173 9.528C54.7933 10.056 54.4773 10.512 54.0693 10.896C53.6613 11.28 53.1813 11.58 52.6293 11.796C52.0853 12.012 51.4893 12.12 50.8413 12.12ZM50.8293 10.752C51.2533 10.752 51.6453 10.68 52.0053 10.536C52.3653 10.392 52.6773 10.188 52.9413 9.924C53.2053 9.652 53.4093 9.34 53.5533 8.988C53.7053 8.628 53.7813 8.232 53.7813 7.8C53.7813 7.368 53.7053 6.976 53.5533 6.624C53.4093 6.264 53.2053 5.952 52.9413 5.688C52.6773 5.416 52.3653 5.208 52.0053 5.064C51.6453 4.92 51.2533 4.848 50.8293 4.848C50.4053 4.848 50.0133 4.92 49.6533 5.064C49.3013 5.208 48.9893 5.416 48.7173 5.688C48.4533 5.952 48.2453 6.264 48.0933 6.624C47.9493 6.976 47.8773 7.368 47.8773 7.8C47.8773 8.224 47.9493 8.616 48.0933 8.976C48.2453 9.336 48.4533 9.652 48.7173 9.924C48.9813 10.188 49.2933 10.392 49.6533 10.536C50.0133 10.68 50.4053 10.752 50.8293 10.752ZM60.6189 12.12C59.4669 12.12 58.5629 11.796 57.9069 11.148C57.2589 10.5 56.9349 9.564 56.9349 8.34V3.6H58.4949V8.28C58.4949 9.144 58.6789 9.772 59.0469 10.164C59.4229 10.556 59.9509 10.752 60.6309 10.752C61.3109 10.752 61.8349 10.556 62.2029 10.164C62.5709 9.772 62.7549 9.144 62.7549 8.28V3.6H64.2909V8.34C64.2909 9.564 63.9629 10.5 63.3069 11.148C62.6589 11.796 61.7629 12.12 60.6189 12.12ZM66.4757 12V3.6H67.7597L73.0277 10.068H72.3917V3.6H73.9397V12H72.6557L67.3877 5.532H68.0237V12H66.4757ZM76.1905 12V3.6H79.8625C80.7745 3.6 81.5745 3.776 82.2625 4.128C82.9505 4.48 83.4865 4.968 83.8705 5.592C84.2545 6.216 84.4465 6.952 84.4465 7.8C84.4465 8.64 84.2545 9.376 83.8705 10.008C83.4865 10.632 82.9505 11.12 82.2625 11.472C81.5745 11.824 80.7745 12 79.8625 12H76.1905ZM77.7505 10.68H79.7905C80.4225 10.68 80.9665 10.56 81.4225 10.32C81.8865 10.08 82.2425 9.744 82.4905 9.312C82.7465 8.88 82.8745 8.376 82.8745 7.8C82.8745 7.216 82.7465 6.712 82.4905 6.288C82.2425 5.856 81.8865 5.52 81.4225 5.28C80.9665 5.04 80.4225 4.92 79.7905 4.92H77.7505V10.68ZM93.309 12.12C92.669 12.12 92.073 12.016 91.521 11.808C90.977 11.592 90.501 11.292 90.093 10.908C89.693 10.516 89.381 10.056 89.157 9.528C88.933 9 88.821 8.424 88.821 7.8C88.821 7.176 88.933 6.6 89.157 6.072C89.381 5.544 89.697 5.088 90.105 4.704C90.513 4.312 90.989 4.012 91.533 3.804C92.077 3.588 92.673 3.48 93.321 3.48C94.009 3.48 94.637 3.6 95.205 3.84C95.773 4.072 96.253 4.42 96.645 4.884L95.637 5.832C95.333 5.504 94.993 5.26 94.617 5.1C94.241 4.932 93.833 4.848 93.393 4.848C92.953 4.848 92.549 4.92 92.181 5.064C91.821 5.208 91.505 5.412 91.233 5.676C90.969 5.94 90.761 6.252 90.609 6.612C90.465 6.972 90.393 7.368 90.393 7.8C90.393 8.232 90.465 8.628 90.609 8.988C90.761 9.348 90.969 9.66 91.233 9.924C91.505 10.188 91.821 10.392 92.181 10.536C92.549 10.68 92.953 10.752 93.393 10.752C93.833 10.752 94.241 10.672 94.617 10.512C94.993 10.344 95.333 10.092 95.637 9.756L96.645 10.716C96.253 11.172 95.773 11.52 95.205 11.76C94.637 12 94.005 12.12 93.309 12.12ZM101.9 12.12C101.244 12.12 100.64 12.012 100.088 11.796C99.5359 11.58 99.0559 11.28 98.6479 10.896C98.2399 10.504 97.9239 10.048 97.6999 9.528C97.4759 9 97.3639 8.424 97.3639 7.8C97.3639 7.176 97.4759 6.604 97.6999 6.084C97.9239 5.556 98.2399 5.1 98.6479 4.716C99.0559 4.324 99.5359 4.02 100.088 3.804C100.64 3.588 101.24 3.48 101.888 3.48C102.544 3.48 103.144 3.588 103.688 3.804C104.24 4.02 104.72 4.324 105.128 4.716C105.536 5.1 105.852 5.556 106.076 6.084C106.3 6.604 106.412 7.176 106.412 7.8C106.412 8.424 106.3 9 106.076 9.528C105.852 10.056 105.536 10.512 105.128 10.896C104.72 11.28 104.24 11.58 103.688 11.796C103.144 12.012 102.548 12.12 101.9 12.12ZM101.888 10.752C102.312 10.752 102.704 10.68 103.064 10.536C103.424 10.392 103.736 10.188 104 9.924C104.264 9.652 104.468 9.34 104.612 8.988C104.764 8.628 104.84 8.232 104.84 7.8C104.84 7.368 104.764 6.976 104.612 6.624C104.468 6.264 104.264 5.952 104 5.688C103.736 5.416 103.424 5.208 103.064 5.064C102.704 4.92 102.312 4.848 101.888 4.848C101.464 4.848 101.072 4.92 100.712 5.064C100.36 5.208 100.048 5.416 99.7759 5.688C99.5119 5.952 99.3039 6.264 99.1519 6.624C99.0079 6.976 98.9359 7.368 98.9359 7.8C98.9359 8.224 99.0079 8.616 99.1519 8.976C99.3039 9.336 99.5119 9.652 99.7759 9.924C100.04 10.188 100.352 10.392 100.712 10.536C101.072 10.68 101.464 10.752 101.888 10.752ZM108.066 12V3.6H109.35L114.618 10.068H113.982V3.6H115.53V12H114.246L108.978 5.532H109.614V12H108.066ZM119.484 12V4.92H116.7V3.6H123.828V4.92H121.044V12H119.484ZM123.389 12L127.169 3.6H128.705L132.497 12H130.865L127.613 4.428H128.237L124.997 12H123.389ZM125.129 10.056L125.549 8.832H130.085L130.505 10.056H125.129ZM133.566 12V3.6H135.126V12H133.566ZM137.398 12V3.6H138.682L143.95 10.068H143.314V3.6H144.862V12H143.578L138.31 5.532H138.946V12H137.398ZM148.552 7.092H152.728V8.376H148.552V7.092ZM148.672 10.692H153.412V12H147.112V3.6H153.244V4.908H148.672V10.692ZM155.151 12V3.6H158.607C159.351 3.6 159.987 3.72 160.515 3.96C161.051 4.2 161.463 4.544 161.751 4.992C162.039 5.44 162.183 5.972 162.183 6.588C162.183 7.204 162.039 7.736 161.751 8.184C161.463 8.624 161.051 8.964 160.515 9.204C159.987 9.436 159.351 9.552 158.607 9.552H156.015L156.711 8.844V12H155.151ZM160.647 12L158.523 8.952H160.191L162.327 12H160.647ZM156.711 9.012L156.015 8.268H158.535C159.223 8.268 159.739 8.12 160.083 7.824C160.435 7.528 160.611 7.116 160.611 6.588C160.611 6.052 160.435 5.64 160.083 5.352C159.739 5.064 159.223 4.92 158.535 4.92H156.015L156.711 4.152V9.012ZM166.533 12.12C165.877 12.12 165.249 12.028 164.649 11.844C164.049 11.652 163.573 11.408 163.221 11.112L163.761 9.9C164.097 10.164 164.513 10.384 165.009 10.56C165.505 10.736 166.013 10.824 166.533 10.824C166.973 10.824 167.329 10.776 167.601 10.68C167.873 10.584 168.073 10.456 168.201 10.296C168.329 10.128 168.393 9.94 168.393 9.732C168.393 9.476 168.301 9.272 168.117 9.12C167.933 8.96 167.693 8.836 167.397 8.748C167.109 8.652 166.785 8.564 166.425 8.484C166.073 8.404 165.717 8.312 165.357 8.208C165.005 8.096 164.681 7.956 164.385 7.788C164.097 7.612 163.861 7.38 163.677 7.092C163.493 6.804 163.401 6.436 163.401 5.988C163.401 5.532 163.521 5.116 163.761 4.74C164.009 4.356 164.381 4.052 164.877 3.828C165.381 3.596 166.017 3.48 166.785 3.48C167.289 3.48 167.789 3.544 168.285 3.672C168.781 3.8 169.213 3.984 169.581 4.224L169.089 5.436C168.713 5.212 168.325 5.048 167.925 4.944C167.525 4.832 167.141 4.776 166.773 4.776C166.341 4.776 165.989 4.828 165.717 4.932C165.453 5.036 165.257 5.172 165.129 5.34C165.009 5.508 164.949 5.7 164.949 5.916C164.949 6.172 165.037 6.38 165.213 6.54C165.397 6.692 165.633 6.812 165.921 6.9C166.217 6.988 166.545 7.076 166.905 7.164C167.265 7.244 167.621 7.336 167.973 7.44C168.333 7.544 168.657 7.68 168.945 7.848C169.241 8.016 169.477 8.244 169.653 8.532C169.837 8.82 169.929 9.184 169.929 9.624C169.929 10.072 169.805 10.488 169.557 10.872C169.317 11.248 168.945 11.552 168.441 11.784C167.937 12.008 167.301 12.12 166.533 12.12Z" fill="black"/>
<path d="M10.3314 12.072C9.68338 12.072 9.10738 11.904 8.60338 11.568C8.09938 11.224 7.70338 10.736 7.41538 10.104C7.12738 9.464 6.98338 8.696 6.98338 7.8C6.98338 6.904 7.12738 6.14 7.41538 5.508C7.70338 4.868 8.09938 4.38 8.60338 4.044C9.10738 3.7 9.68338 3.528 10.3314 3.528C10.9794 3.528 11.5554 3.7 12.0594 4.044C12.5634 4.38 12.9594 4.868 13.2474 5.508C13.5434 6.14 13.6914 6.904 13.6914 7.8C13.6914 8.696 13.5434 9.464 13.2474 10.104C12.9594 10.736 12.5634 11.224 12.0594 11.568C11.5554 11.904 10.9794 12.072 10.3314 12.072ZM10.3314 11.28C10.8274 11.28 11.2594 11.148 11.6274 10.884C11.9954 10.612 12.2834 10.22 12.4914 9.708C12.6994 9.188 12.8034 8.552 12.8034 7.8C12.8034 7.048 12.6994 6.416 12.4914 5.904C12.2834 5.384 11.9954 4.992 11.6274 4.728C11.2594 4.456 10.8274 4.32 10.3314 4.32C9.85138 4.32 9.42338 4.456 9.04738 4.728C8.67138 4.992 8.37938 5.384 8.17138 5.904C7.96338 6.416 7.85938 7.048 7.85938 7.8C7.85938 8.552 7.96338 9.188 8.17138 9.708C8.37938 10.22 8.67138 10.612 9.04738 10.884C9.42338 11.148 9.85138 11.28 10.3314 11.28ZM16.3927 12V3.96L16.7767 4.368H14.4127V3.6H17.2567V12H16.3927Z" fill="black"/>
</svg>
