<svg width="204" height="15" viewBox="0 0 204 15" fill="none" xmlns="http://www.w3.org/2000/svg">
<path d="M40.732 12.12C40.076 12.12 39.448 12.028 38.848 11.844C38.248 11.652 37.772 11.408 37.42 11.112L37.96 9.9C38.296 10.164 38.712 10.384 39.208 10.56C39.704 10.736 40.212 10.824 40.732 10.824C41.172 10.824 41.528 10.776 41.8 10.68C42.072 10.584 42.272 10.456 42.4 10.296C42.528 10.128 42.592 9.94 42.592 9.732C42.592 9.476 42.5 9.272 42.316 9.12C42.132 8.96 41.892 8.836 41.596 8.748C41.308 8.652 40.984 8.564 40.624 8.484C40.272 8.404 39.916 8.312 39.556 8.208C39.204 8.096 38.88 7.956 38.584 7.788C38.296 7.612 38.06 7.38 37.876 7.092C37.692 6.804 37.6 6.436 37.6 5.988C37.6 5.532 37.72 5.116 37.96 4.74C38.208 4.356 38.58 4.052 39.076 3.828C39.58 3.596 40.216 3.48 40.984 3.48C41.488 3.48 41.988 3.544 42.484 3.672C42.98 3.8 43.412 3.984 43.78 4.224L43.288 5.436C42.912 5.212 42.524 5.048 42.124 4.944C41.724 4.832 41.34 4.776 40.972 4.776C40.54 4.776 40.188 4.828 39.916 4.932C39.652 5.036 39.456 5.172 39.328 5.34C39.208 5.508 39.148 5.7 39.148 5.916C39.148 6.172 39.236 6.38 39.412 6.54C39.596 6.692 39.832 6.812 40.12 6.9C40.416 6.988 40.744 7.076 41.104 7.164C41.464 7.244 41.82 7.336 42.172 7.44C42.532 7.544 42.856 7.68 43.144 7.848C43.44 8.016 43.676 8.244 43.852 8.532C44.036 8.82 44.128 9.184 44.128 9.624C44.128 10.072 44.004 10.488 43.756 10.872C43.516 11.248 43.144 11.552 42.64 11.784C42.136 12.008 41.5 12.12 40.732 12.12ZM47.6549 12L44.8709 3.6H46.4909L48.9749 11.196H48.1709L50.7509 3.6H52.1909L54.6989 11.196H53.9189L56.4629 3.6H57.9509L55.1669 12H53.5109L51.2189 5.148H51.6509L49.3229 12H47.6549ZM60.6618 7.092H64.8378V8.376H60.6618V7.092ZM60.7818 10.692H65.5218V12H59.2218V3.6H65.3538V4.908H60.7818V10.692ZM68.7008 7.092H72.8768V8.376H68.7008V7.092ZM68.8208 10.692H73.5608V12H67.2608V3.6H73.3928V4.908H68.8208V10.692ZM77.0039 12V4.92H74.2199V3.6H81.3479V4.92H78.5639V12H77.0039ZM85.835 12V3.6H89.771C90.779 3.6 91.547 3.8 92.075 4.2C92.603 4.592 92.867 5.12 92.867 5.784C92.867 6.232 92.763 6.616 92.555 6.936C92.347 7.248 92.067 7.492 91.715 7.668C91.371 7.836 90.995 7.92 90.587 7.92L90.803 7.488C91.275 7.488 91.699 7.576 92.075 7.752C92.451 7.92 92.747 8.168 92.963 8.496C93.187 8.824 93.299 9.232 93.299 9.72C93.299 10.44 93.023 11 92.471 11.4C91.919 11.8 91.099 12 90.011 12H85.835ZM87.395 10.776H89.915C90.499 10.776 90.947 10.68 91.259 10.488C91.571 10.296 91.727 9.988 91.727 9.564C91.727 9.148 91.571 8.844 91.259 8.652C90.947 8.452 90.499 8.352 89.915 8.352H87.275V7.14H89.603C90.147 7.14 90.563 7.044 90.851 6.852C91.147 6.66 91.295 6.372 91.295 5.988C91.295 5.596 91.147 5.304 90.851 5.112C90.563 4.92 90.147 4.824 89.603 4.824H87.395V10.776ZM98.8999 12.12C98.2439 12.12 97.6399 12.012 97.0879 11.796C96.5359 11.58 96.0559 11.28 95.6479 10.896C95.2399 10.504 94.9239 10.048 94.6999 9.528C94.4759 9 94.3639 8.424 94.3639 7.8C94.3639 7.176 94.4759 6.604 94.6999 6.084C94.9239 5.556 95.2399 5.1 95.6479 4.716C96.0559 4.324 96.5359 4.02 97.0879 3.804C97.6399 3.588 98.2399 3.48 98.8879 3.48C99.5439 3.48 100.144 3.588 100.688 3.804C101.24 4.02 101.72 4.324 102.128 4.716C102.536 5.1 102.852 5.556 103.076 6.084C103.3 6.604 103.412 7.176 103.412 7.8C103.412 8.424 103.3 9 103.076 9.528C102.852 10.056 102.536 10.512 102.128 10.896C101.72 11.28 101.24 11.58 100.688 11.796C100.144 12.012 99.5479 12.12 98.8999 12.12ZM98.8879 10.752C99.3119 10.752 99.7039 10.68 100.064 10.536C100.424 10.392 100.736 10.188 101 9.924C101.264 9.652 101.468 9.34 101.612 8.988C101.764 8.628 101.84 8.232 101.84 7.8C101.84 7.368 101.764 6.976 101.612 6.624C101.468 6.264 101.264 5.952 101 5.688C100.736 5.416 100.424 5.208 100.064 5.064C99.7039 4.92 99.3119 4.848 98.8879 4.848C98.4639 4.848 98.0719 4.92 97.7119 5.064C97.3599 5.208 97.0479 5.416 96.7759 5.688C96.5119 5.952 96.3039 6.264 96.1519 6.624C96.0079 6.976 95.9359 7.368 95.9359 7.8C95.9359 8.224 96.0079 8.616 96.1519 8.976C96.3039 9.336 96.5119 9.652 96.7759 9.924C97.0399 10.188 97.3519 10.392 97.7119 10.536C98.0719 10.68 98.4639 10.752 98.8879 10.752ZM103.741 12L107.281 7.128V8.304L103.909 3.6H105.673L108.181 7.08L107.461 7.092L109.945 3.6H111.637L108.289 8.22V7.092L111.853 12H110.053L107.413 8.304H108.121L105.517 12H103.741Z" fill="black"/>
<path d="M9.17122 14.072C8.52322 14.072 7.94722 13.904 7.44322 13.568C6.93922 13.224 6.54322 12.736 6.25522 12.104C5.96722 11.464 5.82322 10.696 5.82322 9.8C5.82322 8.904 5.96722 8.14 6.25522 7.508C6.54322 6.868 6.93922 6.38 7.44322 6.044C7.94722 5.7 8.52322 5.528 9.17122 5.528C9.81922 5.528 10.3952 5.7 10.8992 6.044C11.4032 6.38 11.7992 6.868 12.0872 7.508C12.3832 8.14 12.5312 8.904 12.5312 9.8C12.5312 10.696 12.3832 11.464 12.0872 12.104C11.7992 12.736 11.4032 13.224 10.8992 13.568C10.3952 13.904 9.81922 14.072 9.17122 14.072ZM9.17122 13.28C9.66722 13.28 10.0992 13.148 10.4672 12.884C10.8352 12.612 11.1232 12.22 11.3312 11.708C11.5392 11.188 11.6432 10.552 11.6432 9.8C11.6432 9.048 11.5392 8.416 11.3312 7.904C11.1232 7.384 10.8352 6.992 10.4672 6.728C10.0992 6.456 9.66722 6.32 9.17122 6.32C8.69122 6.32 8.26322 6.456 7.88722 6.728C7.51122 6.992 7.21922 7.384 7.01122 7.904C6.80322 8.416 6.69922 9.048 6.69922 9.8C6.69922 10.552 6.80322 11.188 7.01122 11.708C7.21922 12.22 7.51122 12.612 7.88722 12.884C8.26322 13.148 8.69122 13.28 9.17122 13.28ZM16.1593 14.072C15.5513 14.072 14.9753 13.976 14.4313 13.784C13.8953 13.584 13.4633 13.32 13.1353 12.992L13.5553 12.308C13.8273 12.588 14.1913 12.82 14.6473 13.004C15.1113 13.188 15.6153 13.28 16.1593 13.28C16.8553 13.28 17.3873 13.128 17.7553 12.824C18.1313 12.52 18.3193 12.112 18.3193 11.6C18.3193 11.088 18.1353 10.68 17.7673 10.376C17.4073 10.072 16.8353 9.92 16.0513 9.92H15.4513V9.284L18.0433 6.032L18.1633 6.368H13.4833V5.6H18.8833V6.212L16.2913 9.464L15.8713 9.188H16.1953C17.2033 9.188 17.9553 9.412 18.4513 9.86C18.9553 10.308 19.2073 10.884 19.2073 11.588C19.2073 12.06 19.0953 12.484 18.8713 12.86C18.6473 13.236 18.3073 13.532 17.8513 13.748C17.4033 13.964 16.8393 14.072 16.1593 14.072Z" fill="black"/>
</svg>
