<svg width="204" height="15" viewBox="0 0 204 15" fill="none" xmlns="http://www.w3.org/2000/svg">
<path d="M39.832 12V4.92H37.048V3.6H44.176V4.92H41.392V12H39.832ZM43.7369 12L47.5169 3.6H49.0529L52.8449 12H51.2129L47.9609 4.428H48.5849L45.3449 12H43.7369ZM45.4769 10.056L45.8969 8.832H50.4329L50.8529 10.056H45.4769ZM53.9132 12V3.6H55.1972L58.8692 9.732H58.1972L61.8092 3.6H63.0932L63.1052 12H61.6292L61.6172 5.916H61.9292L58.8572 11.04H58.1612L55.0412 5.916H55.4012V12H53.9132ZM65.3741 12V3.6H68.8301C69.5741 3.6 70.2101 3.72 70.7381 3.96C71.2741 4.2 71.6861 4.544 71.9741 4.992C72.2621 5.44 72.4061 5.972 72.4061 6.588C72.4061 7.204 72.2621 7.736 71.9741 8.184C71.6861 8.632 71.2741 8.976 70.7381 9.216C70.2101 9.456 69.5741 9.576 68.8301 9.576H66.2381L66.9341 8.844V12H65.3741ZM66.9341 9.012L66.2381 8.256H68.7581C69.4461 8.256 69.9621 8.112 70.3061 7.824C70.6581 7.528 70.8341 7.116 70.8341 6.588C70.8341 6.052 70.6581 5.64 70.3061 5.352C69.9621 5.064 69.4461 4.92 68.7581 4.92H66.2381L66.9341 4.152V9.012ZM75.4039 7.092H79.5799V8.376H75.4039V7.092ZM75.5239 10.692H80.2639V12H73.9639V3.6H80.0959V4.908H75.5239V10.692ZM82.003 12V3.6H85.459C86.203 3.6 86.839 3.72 87.367 3.96C87.903 4.2 88.315 4.544 88.603 4.992C88.891 5.44 89.035 5.972 89.035 6.588C89.035 7.204 88.891 7.736 88.603 8.184C88.315 8.624 87.903 8.964 87.367 9.204C86.839 9.436 86.203 9.552 85.459 9.552H82.867L83.563 8.844V12H82.003ZM87.499 12L85.375 8.952H87.043L89.179 12H87.499ZM83.563 9.012L82.867 8.268H85.387C86.075 8.268 86.591 8.12 86.935 7.824C87.287 7.528 87.463 7.116 87.463 6.588C87.463 6.052 87.287 5.64 86.935 5.352C86.591 5.064 86.075 4.92 85.387 4.92H82.867L83.563 4.152V9.012ZM95.5368 7.092H99.7128V8.376H95.5368V7.092ZM95.6568 10.692H100.397V12H94.0968V3.6H100.229V4.908H95.6568V10.692ZM104.503 12L100.831 3.6H102.523L105.799 11.196H104.827L108.139 3.6H109.699L106.039 12H104.503ZM110.585 12V3.6H112.145V12H110.585ZM114.417 12V3.6H118.089C119.001 3.6 119.801 3.776 120.489 4.128C121.177 4.48 121.713 4.968 122.097 5.592C122.481 6.216 122.673 6.952 122.673 7.8C122.673 8.64 122.481 9.376 122.097 10.008C121.713 10.632 121.177 11.12 120.489 11.472C119.801 11.824 119.001 12 118.089 12H114.417ZM115.977 10.68H118.017C118.649 10.68 119.193 10.56 119.649 10.32C120.113 10.08 120.469 9.744 120.717 9.312C120.973 8.88 121.101 8.376 121.101 7.8C121.101 7.216 120.973 6.712 120.717 6.288C120.469 5.856 120.113 5.52 119.649 5.28C119.193 5.04 118.649 4.92 118.017 4.92H115.977V10.68ZM125.771 7.092H129.947V8.376H125.771V7.092ZM125.891 10.692H130.631V12H124.331V3.6H130.463V4.908H125.891V10.692ZM132.37 12V3.6H133.654L138.922 10.068H138.286V3.6H139.834V12H138.55L133.282 5.532H133.918V12H132.37ZM143.789 12V4.92H141.005V3.6H148.133V4.92H145.349V12H143.789Z" fill="black"/>
<path d="M8.53255 12.072C7.88455 12.072 7.30855 11.904 6.80455 11.568C6.30055 11.224 5.90455 10.736 5.61655 10.104C5.32855 9.464 5.18455 8.696 5.18455 7.8C5.18455 6.904 5.32855 6.14 5.61655 5.508C5.90455 4.868 6.30055 4.38 6.80455 4.044C7.30855 3.7 7.88455 3.528 8.53255 3.528C9.18055 3.528 9.75655 3.7 10.2605 4.044C10.7645 4.38 11.1605 4.868 11.4485 5.508C11.7445 6.14 11.8925 6.904 11.8925 7.8C11.8925 8.696 11.7445 9.464 11.4485 10.104C11.1605 10.736 10.7645 11.224 10.2605 11.568C9.75655 11.904 9.18055 12.072 8.53255 12.072ZM8.53255 11.28C9.02855 11.28 9.46055 11.148 9.82855 10.884C10.1965 10.612 10.4845 10.22 10.6925 9.708C10.9005 9.188 11.0045 8.552 11.0045 7.8C11.0045 7.048 10.9005 6.416 10.6925 5.904C10.4845 5.384 10.1965 4.992 9.82855 4.728C9.46055 4.456 9.02855 4.32 8.53255 4.32C8.05255 4.32 7.62455 4.456 7.24855 4.728C6.87255 4.992 6.58055 5.384 6.37255 5.904C6.16455 6.416 6.06055 7.048 6.06055 7.8C6.06055 8.552 6.16455 9.188 6.37255 9.708C6.58055 10.22 6.87255 10.612 7.24855 10.884C7.62455 11.148 8.05255 11.28 8.53255 11.28ZM12.9859 9.792V9.168L17.4379 3.6H18.3979L13.9819 9.168L13.5139 9.024H20.2699V9.792H12.9859ZM17.7259 12V9.792L17.7499 9.024V7.08H18.5899V12H17.7259Z" fill="black"/>
</svg>
