<svg width="219" height="24" viewBox="0 0 219 24" fill="none" xmlns="http://www.w3.org/2000/svg">
<path d="M4 20C3.45 20 2.97933 19.8043 2.588 19.413C2.19667 19.0217 2.00067 18.5507 2 18V6C2 5.45 2.196 4.97933 2.588 4.588C2.98 4.19667 3.45067 4.00067 4 4H20C20.55 4 21.021 4.196 21.413 4.588C21.805 4.98 22.0007 5.45067 22 6V18C22 18.55 21.8043 19.021 21.413 19.413C21.0217 19.805 20.5507 20.0007 20 20H4ZM12 13L20 8V6L12 11L4 6V8L12 13Z" fill="#FEAE00"/>
<path d="M32.18 15.06C31.588 15.06 31.132 14.9 30.812 14.58C30.492 14.26 30.332 13.808 30.332 13.224V7.308H31.184V13.176C31.184 13.544 31.276 13.828 31.46 14.028C31.652 14.228 31.924 14.328 32.276 14.328C32.652 14.328 32.964 14.22 33.212 14.004L33.512 14.616C33.344 14.768 33.14 14.88 32.9 14.952C32.668 15.024 32.428 15.06 32.18 15.06ZM29.204 9.408V8.7H33.104V9.408H29.204ZM37.5163 15.06C36.8603 15.06 36.2843 14.924 35.7883 14.652C35.2923 14.372 34.9043 13.992 34.6243 13.512C34.3443 13.024 34.2043 12.468 34.2043 11.844C34.2043 11.22 34.3363 10.668 34.6003 10.188C34.8723 9.708 35.2403 9.332 35.7043 9.06C36.1763 8.78 36.7043 8.64 37.2883 8.64C37.8803 8.64 38.4043 8.776 38.8603 9.048C39.3243 9.312 39.6883 9.688 39.9523 10.176C40.2163 10.656 40.3483 11.212 40.3483 11.844C40.3483 11.884 40.3443 11.928 40.3363 11.976C40.3363 12.016 40.3363 12.06 40.3363 12.108H34.8523V11.472H39.8803L39.5443 11.724C39.5443 11.268 39.4443 10.864 39.2443 10.512C39.0523 10.152 38.7883 9.872 38.4523 9.672C38.1163 9.472 37.7283 9.372 37.2883 9.372C36.8563 9.372 36.4683 9.472 36.1243 9.672C35.7803 9.872 35.5123 10.152 35.3203 10.512C35.1283 10.872 35.0323 11.284 35.0323 11.748V11.88C35.0323 12.36 35.1363 12.784 35.3443 13.152C35.5603 13.512 35.8563 13.796 36.2323 14.004C36.6163 14.204 37.0523 14.304 37.5403 14.304C37.9243 14.304 38.2803 14.236 38.6083 14.1C38.9443 13.964 39.2323 13.756 39.4723 13.476L39.9523 14.028C39.6723 14.364 39.3203 14.62 38.8963 14.796C38.4803 14.972 38.0203 15.06 37.5163 15.06ZM42.0825 15V8.7H42.8985V10.416L42.8145 10.116C42.9905 9.636 43.2865 9.272 43.7025 9.024C44.1185 8.768 44.6345 8.64 45.2505 8.64V9.468C45.2185 9.468 45.1865 9.468 45.1545 9.468C45.1225 9.46 45.0905 9.456 45.0585 9.456C44.3945 9.456 43.8745 9.66 43.4985 10.068C43.1225 10.468 42.9345 11.04 42.9345 11.784V15H42.0825ZM46.8052 15V8.7H47.6212V10.416L47.5372 10.116C47.7132 9.636 48.0092 9.272 48.4252 9.024C48.8412 8.768 49.3572 8.64 49.9732 8.64V9.468C49.9412 9.468 49.9092 9.468 49.8772 9.468C49.8452 9.46 49.8132 9.456 49.7812 9.456C49.1172 9.456 48.5972 9.66 48.2212 10.068C47.8452 10.468 47.6572 11.04 47.6572 11.784V15H46.8052ZM55.0071 15V13.608L54.9711 13.38V11.052C54.9711 10.516 54.8191 10.104 54.5151 9.816C54.2191 9.528 53.7751 9.384 53.1831 9.384C52.7751 9.384 52.3871 9.452 52.0191 9.588C51.6511 9.724 51.3391 9.904 51.0831 10.128L50.6991 9.492C51.0191 9.22 51.4031 9.012 51.8511 8.868C52.2991 8.716 52.7711 8.64 53.2671 8.64C54.0831 8.64 54.7111 8.844 55.1511 9.252C55.5991 9.652 55.8231 10.264 55.8231 11.088V15H55.0071ZM52.8351 15.06C52.3631 15.06 51.9511 14.984 51.5991 14.832C51.2551 14.672 50.9911 14.456 50.8071 14.184C50.6231 13.904 50.5311 13.584 50.5311 13.224C50.5311 12.896 50.6071 12.6 50.7591 12.336C50.9191 12.064 51.1751 11.848 51.5271 11.688C51.8871 11.52 52.3671 11.436 52.9671 11.436H55.1391V12.072H52.9911C52.3831 12.072 51.9591 12.18 51.7191 12.396C51.4871 12.612 51.3711 12.88 51.3711 13.2C51.3711 13.56 51.5111 13.848 51.7911 14.064C52.0711 14.28 52.4631 14.388 52.9671 14.388C53.4471 14.388 53.8591 14.28 54.2031 14.064C54.5551 13.84 54.8111 13.52 54.9711 13.104L55.1631 13.692C55.0031 14.108 54.7231 14.44 54.3231 14.688C53.9311 14.936 53.4351 15.06 52.8351 15.06ZM60.1292 15.06C59.5372 15.06 59.0812 14.9 58.7612 14.58C58.4412 14.26 58.2812 13.808 58.2812 13.224V7.308H59.1332V13.176C59.1332 13.544 59.2252 13.828 59.4092 14.028C59.6012 14.228 59.8732 14.328 60.2252 14.328C60.6012 14.328 60.9132 14.22 61.1612 14.004L61.4612 14.616C61.2932 14.768 61.0892 14.88 60.8492 14.952C60.6172 15.024 60.3772 15.06 60.1292 15.06ZM57.1532 9.408V8.7H61.0532V9.408H57.1532ZM65.4656 15.06C64.8096 15.06 64.2336 14.924 63.7376 14.652C63.2416 14.372 62.8536 13.992 62.5736 13.512C62.2936 13.024 62.1536 12.468 62.1536 11.844C62.1536 11.22 62.2856 10.668 62.5496 10.188C62.8216 9.708 63.1896 9.332 63.6536 9.06C64.1256 8.78 64.6536 8.64 65.2376 8.64C65.8296 8.64 66.3536 8.776 66.8096 9.048C67.2736 9.312 67.6376 9.688 67.9016 10.176C68.1656 10.656 68.2976 11.212 68.2976 11.844C68.2976 11.884 68.2936 11.928 68.2856 11.976C68.2856 12.016 68.2856 12.06 68.2856 12.108H62.8016V11.472H67.8296L67.4936 11.724C67.4936 11.268 67.3936 10.864 67.1936 10.512C67.0016 10.152 66.7376 9.872 66.4016 9.672C66.0656 9.472 65.6776 9.372 65.2376 9.372C64.8056 9.372 64.4176 9.472 64.0736 9.672C63.7296 9.872 63.4616 10.152 63.2696 10.512C63.0776 10.872 62.9816 11.284 62.9816 11.748V11.88C62.9816 12.36 63.0856 12.784 63.2936 13.152C63.5096 13.512 63.8056 13.796 64.1816 14.004C64.5656 14.204 65.0016 14.304 65.4896 14.304C65.8736 14.304 66.2296 14.236 66.5576 14.1C66.8936 13.964 67.1816 13.756 67.4216 13.476L67.9016 14.028C67.6216 14.364 67.2696 14.62 66.8456 14.796C66.4296 14.972 65.9696 15.06 65.4656 15.06ZM72.6478 15.06C72.0238 15.06 71.4638 14.924 70.9678 14.652C70.4798 14.372 70.0958 13.992 69.8158 13.512C69.5358 13.024 69.3958 12.468 69.3958 11.844C69.3958 11.212 69.5358 10.656 69.8158 10.176C70.0958 9.696 70.4798 9.32 70.9678 9.048C71.4638 8.776 72.0238 8.64 72.6478 8.64C73.1838 8.64 73.6678 8.744 74.0998 8.952C74.5318 9.16 74.8718 9.472 75.1198 9.888L74.4838 10.32C74.2678 10 73.9998 9.764 73.6798 9.612C73.3598 9.46 73.0118 9.384 72.6358 9.384C72.1878 9.384 71.7838 9.488 71.4238 9.696C71.0638 9.896 70.7798 10.18 70.5718 10.548C70.3638 10.916 70.2598 11.348 70.2598 11.844C70.2598 12.34 70.3638 12.772 70.5718 13.14C70.7798 13.508 71.0638 13.796 71.4238 14.004C71.7838 14.204 72.1878 14.304 72.6358 14.304C73.0118 14.304 73.3598 14.228 73.6798 14.076C73.9998 13.924 74.2678 13.692 74.4838 13.38L75.1198 13.812C74.8718 14.22 74.5318 14.532 74.0998 14.748C73.6678 14.956 73.1838 15.06 72.6478 15.06ZM79.9157 8.64C80.4277 8.64 80.8757 8.74 81.2597 8.94C81.6517 9.132 81.9557 9.428 82.1717 9.828C82.3957 10.228 82.5077 10.732 82.5077 11.34V15H81.6557V11.424C81.6557 10.76 81.4877 10.26 81.1517 9.924C80.8237 9.58 80.3597 9.408 79.7597 9.408C79.3117 9.408 78.9197 9.5 78.5837 9.684C78.2557 9.86 77.9997 10.12 77.8157 10.464C77.6397 10.8 77.5517 11.208 77.5517 11.688V15H76.6997V6.096H77.5517V10.428L77.3837 10.104C77.5837 9.648 77.9037 9.292 78.3437 9.036C78.7837 8.772 79.3077 8.64 79.9157 8.64ZM88.0611 15.06C87.5171 15.06 87.0251 14.936 86.5851 14.688C86.1451 14.432 85.7931 14.068 85.5291 13.596C85.2731 13.116 85.1451 12.532 85.1451 11.844C85.1451 11.156 85.2731 10.576 85.5291 10.104C85.7851 9.624 86.1331 9.26 86.5731 9.012C87.0131 8.764 87.5091 8.64 88.0611 8.64C88.6611 8.64 89.1971 8.776 89.6691 9.048C90.1491 9.312 90.5251 9.688 90.7971 10.176C91.0691 10.656 91.2051 11.212 91.2051 11.844C91.2051 12.484 91.0691 13.044 90.7971 13.524C90.5251 14.004 90.1491 14.38 89.6691 14.652C89.1971 14.924 88.6611 15.06 88.0611 15.06ZM84.8091 17.328V8.7H85.6251V10.596L85.5411 11.856L85.6611 13.128V17.328H84.8091ZM88.0011 14.304C88.4491 14.304 88.8491 14.204 89.2011 14.004C89.5531 13.796 89.8331 13.508 90.0411 13.14C90.2491 12.764 90.3531 12.332 90.3531 11.844C90.3531 11.356 90.2491 10.928 90.0411 10.56C89.8331 10.192 89.5531 9.904 89.2011 9.696C88.8491 9.488 88.4491 9.384 88.0011 9.384C87.5531 9.384 87.1491 9.488 86.7891 9.696C86.4371 9.904 86.1571 10.192 85.9491 10.56C85.7491 10.928 85.6491 11.356 85.6491 11.844C85.6491 12.332 85.7491 12.764 85.9491 13.14C86.1571 13.508 86.4371 13.796 86.7891 14.004C87.1491 14.204 87.5531 14.304 88.0011 14.304ZM96.8548 15V13.608L96.8188 13.38V11.052C96.8188 10.516 96.6668 10.104 96.3628 9.816C96.0668 9.528 95.6228 9.384 95.0308 9.384C94.6228 9.384 94.2348 9.452 93.8668 9.588C93.4988 9.724 93.1868 9.904 92.9308 10.128L92.5468 9.492C92.8668 9.22 93.2508 9.012 93.6988 8.868C94.1468 8.716 94.6188 8.64 95.1148 8.64C95.9308 8.64 96.5588 8.844 96.9988 9.252C97.4468 9.652 97.6708 10.264 97.6708 11.088V15H96.8548ZM94.6828 15.06C94.2108 15.06 93.7988 14.984 93.4468 14.832C93.1028 14.672 92.8388 14.456 92.6548 14.184C92.4708 13.904 92.3788 13.584 92.3788 13.224C92.3788 12.896 92.4548 12.6 92.6068 12.336C92.7668 12.064 93.0228 11.848 93.3748 11.688C93.7348 11.52 94.2148 11.436 94.8148 11.436H96.9868V12.072H94.8388C94.2308 12.072 93.8068 12.18 93.5668 12.396C93.3348 12.612 93.2188 12.88 93.2188 13.2C93.2188 13.56 93.3588 13.848 93.6388 14.064C93.9188 14.28 94.3108 14.388 94.8148 14.388C95.2948 14.388 95.7068 14.28 96.0508 14.064C96.4028 13.84 96.6588 13.52 96.8188 13.104L97.0108 13.692C96.8508 14.108 96.5708 14.44 96.1708 14.688C95.7788 14.936 95.2828 15.06 94.6828 15.06ZM102.601 15.06C101.977 15.06 101.417 14.924 100.921 14.652C100.433 14.372 100.049 13.992 99.7689 13.512C99.4889 13.024 99.3489 12.468 99.3489 11.844C99.3489 11.212 99.4889 10.656 99.7689 10.176C100.049 9.696 100.433 9.32 100.921 9.048C101.417 8.776 101.977 8.64 102.601 8.64C103.137 8.64 103.621 8.744 104.053 8.952C104.485 9.16 104.825 9.472 105.073 9.888L104.437 10.32C104.221 10 103.953 9.764 103.633 9.612C103.313 9.46 102.965 9.384 102.589 9.384C102.141 9.384 101.737 9.488 101.377 9.696C101.017 9.896 100.733 10.18 100.525 10.548C100.317 10.916 100.213 11.348 100.213 11.844C100.213 12.34 100.317 12.772 100.525 13.14C100.733 13.508 101.017 13.796 101.377 14.004C101.737 14.204 102.141 14.304 102.589 14.304C102.965 14.304 103.313 14.228 103.633 14.076C103.953 13.924 104.221 13.692 104.437 13.38L105.073 13.812C104.825 14.22 104.485 14.532 104.053 14.748C103.621 14.956 103.137 15.06 102.601 15.06ZM107.325 13.368L107.349 12.276L111.273 8.7H112.317L109.545 11.352L109.065 11.76L107.325 13.368ZM106.653 15V6.096H107.505V15H106.653ZM111.537 15L108.909 11.724L109.461 11.064L112.581 15H111.537ZM115.364 15.06C114.844 15.06 114.352 14.988 113.888 14.844C113.424 14.692 113.06 14.504 112.796 14.28L113.18 13.608C113.436 13.8 113.764 13.968 114.164 14.112C114.564 14.248 114.984 14.316 115.424 14.316C116.024 14.316 116.456 14.224 116.72 14.04C116.984 13.848 117.116 13.596 117.116 13.284C117.116 13.052 117.04 12.872 116.888 12.744C116.744 12.608 116.552 12.508 116.312 12.444C116.072 12.372 115.804 12.312 115.508 12.264C115.212 12.216 114.916 12.16 114.62 12.096C114.332 12.032 114.068 11.94 113.828 11.82C113.588 11.692 113.392 11.52 113.24 11.304C113.096 11.088 113.024 10.8 113.024 10.44C113.024 10.096 113.12 9.788 113.312 9.516C113.504 9.244 113.784 9.032 114.152 8.88C114.528 8.72 114.984 8.64 115.52 8.64C115.928 8.64 116.336 8.696 116.744 8.808C117.152 8.912 117.488 9.052 117.752 9.228L117.38 9.912C117.1 9.72 116.8 9.584 116.48 9.504C116.16 9.416 115.84 9.372 115.52 9.372C114.952 9.372 114.532 9.472 114.26 9.672C113.996 9.864 113.864 10.112 113.864 10.416C113.864 10.656 113.936 10.844 114.08 10.98C114.232 11.116 114.428 11.224 114.668 11.304C114.916 11.376 115.184 11.436 115.472 11.484C115.768 11.532 116.06 11.592 116.348 11.664C116.644 11.728 116.912 11.82 117.152 11.94C117.4 12.052 117.596 12.216 117.74 12.432C117.892 12.64 117.968 12.916 117.968 13.26C117.968 13.628 117.864 13.948 117.656 14.22C117.456 14.484 117.16 14.692 116.768 14.844C116.384 14.988 115.916 15.06 115.364 15.06ZM124.524 17.4C123.7 17.4 122.948 17.264 122.268 16.992C121.588 16.728 121 16.352 120.504 15.864C120.016 15.384 119.636 14.812 119.364 14.148C119.1 13.476 118.968 12.744 118.968 11.952C118.968 11.152 119.1 10.424 119.364 9.768C119.636 9.104 120.02 8.532 120.516 8.052C121.02 7.564 121.616 7.188 122.304 6.924C122.992 6.66 123.748 6.528 124.572 6.528C125.388 6.528 126.132 6.656 126.804 6.912C127.484 7.168 128.072 7.532 128.568 8.004C129.064 8.468 129.444 9.024 129.708 9.672C129.98 10.32 130.116 11.036 130.116 11.82C130.116 12.492 130.036 13.072 129.876 13.56C129.724 14.04 129.5 14.412 129.204 14.676C128.908 14.932 128.552 15.06 128.136 15.06C127.728 15.06 127.4 14.936 127.152 14.688C126.904 14.44 126.78 14.092 126.78 13.644V12.696L126.876 11.928L126.756 10.728V8.916H127.536V13.464C127.536 13.8 127.608 14.036 127.752 14.172C127.896 14.308 128.072 14.376 128.28 14.376C128.528 14.376 128.744 14.276 128.928 14.076C129.112 13.876 129.252 13.588 129.348 13.212C129.452 12.828 129.504 12.368 129.504 11.832C129.504 11.128 129.384 10.488 129.144 9.912C128.904 9.336 128.564 8.84 128.124 8.424C127.684 8.008 127.164 7.692 126.564 7.476C125.964 7.252 125.3 7.14 124.572 7.14C123.844 7.14 123.176 7.256 122.568 7.488C121.96 7.72 121.436 8.052 120.996 8.484C120.564 8.908 120.228 9.416 119.988 10.008C119.748 10.592 119.628 11.24 119.628 11.952C119.628 12.664 119.744 13.316 119.976 13.908C120.216 14.5 120.552 15.008 120.984 15.432C121.416 15.864 121.932 16.196 122.532 16.428C123.132 16.668 123.796 16.788 124.524 16.788C124.884 16.788 125.268 16.744 125.676 16.656C126.092 16.568 126.476 16.436 126.828 16.26L127.032 16.848C126.672 17.032 126.264 17.168 125.808 17.256C125.352 17.352 124.924 17.4 124.524 17.4ZM124.38 15.06C123.812 15.06 123.304 14.928 122.856 14.664C122.408 14.392 122.052 14.024 121.788 13.56C121.532 13.088 121.404 12.552 121.404 11.952C121.404 11.352 121.532 10.82 121.788 10.356C122.052 9.892 122.408 9.528 122.856 9.264C123.304 9 123.812 8.868 124.38 8.868C124.932 8.868 125.42 8.992 125.844 9.24C126.276 9.488 126.612 9.844 126.852 10.308C127.1 10.764 127.224 11.312 127.224 11.952C127.224 12.592 127.1 13.144 126.852 13.608C126.612 14.072 126.28 14.432 125.856 14.688C125.432 14.936 124.94 15.06 124.38 15.06ZM124.488 14.364C124.92 14.364 125.308 14.264 125.652 14.064C126.004 13.864 126.276 13.584 126.468 13.224C126.668 12.856 126.768 12.432 126.768 11.952C126.768 11.464 126.668 11.044 126.468 10.692C126.276 10.332 126.004 10.056 125.652 9.864C125.308 9.664 124.92 9.564 124.488 9.564C124.04 9.564 123.644 9.664 123.3 9.864C122.956 10.056 122.684 10.332 122.484 10.692C122.292 11.052 122.196 11.472 122.196 11.952C122.196 12.432 122.292 12.852 122.484 13.212C122.684 13.572 122.956 13.856 123.3 14.064C123.644 14.264 124.04 14.364 124.488 14.364ZM134.618 17.388C134.042 17.388 133.49 17.304 132.962 17.136C132.434 16.968 132.006 16.728 131.678 16.416L132.11 15.768C132.406 16.032 132.77 16.24 133.202 16.392C133.642 16.552 134.106 16.632 134.594 16.632C135.394 16.632 135.982 16.444 136.358 16.068C136.734 15.7 136.922 15.124 136.922 14.34V12.768L137.042 11.688L136.958 10.608V8.7H137.774V14.232C137.774 15.32 137.506 16.116 136.97 16.62C136.442 17.132 135.658 17.388 134.618 17.388ZM134.462 14.76C133.862 14.76 133.322 14.632 132.842 14.376C132.362 14.112 131.982 13.748 131.702 13.284C131.43 12.82 131.294 12.288 131.294 11.688C131.294 11.088 131.43 10.56 131.702 10.104C131.982 9.64 132.362 9.28 132.842 9.024C133.322 8.768 133.862 8.64 134.462 8.64C135.022 8.64 135.526 8.756 135.974 8.988C136.422 9.22 136.778 9.564 137.042 10.02C137.306 10.476 137.438 11.032 137.438 11.688C137.438 12.344 137.306 12.9 137.042 13.356C136.778 13.812 136.422 14.16 135.974 14.4C135.526 14.64 135.022 14.76 134.462 14.76ZM134.546 14.004C135.01 14.004 135.422 13.908 135.782 13.716C136.142 13.516 136.426 13.244 136.634 12.9C136.842 12.548 136.946 12.144 136.946 11.688C136.946 11.232 136.842 10.832 136.634 10.488C136.426 10.144 136.142 9.876 135.782 9.684C135.422 9.484 135.01 9.384 134.546 9.384C134.09 9.384 133.678 9.484 133.31 9.684C132.95 9.876 132.666 10.144 132.458 10.488C132.258 10.832 132.158 11.232 132.158 11.688C132.158 12.144 132.258 12.548 132.458 12.9C132.666 13.244 132.95 13.516 133.31 13.716C133.678 13.908 134.09 14.004 134.546 14.004ZM148.017 8.64C148.529 8.64 148.973 8.74 149.349 8.94C149.733 9.132 150.029 9.428 150.237 9.828C150.453 10.228 150.561 10.732 150.561 11.34V15H149.709V11.424C149.709 10.76 149.549 10.26 149.229 9.924C148.917 9.58 148.473 9.408 147.897 9.408C147.465 9.408 147.089 9.5 146.769 9.684C146.457 9.86 146.213 10.12 146.037 10.464C145.869 10.8 145.785 11.208 145.785 11.688V15H144.933V11.424C144.933 10.76 144.773 10.26 144.453 9.924C144.133 9.58 143.685 9.408 143.109 9.408C142.685 9.408 142.313 9.5 141.993 9.684C141.673 9.86 141.425 10.12 141.249 10.464C141.081 10.8 140.997 11.208 140.997 11.688V15H140.145V8.7H140.961V10.404L140.829 10.104C141.021 9.648 141.329 9.292 141.753 9.036C142.185 8.772 142.693 8.64 143.277 8.64C143.893 8.64 144.417 8.796 144.849 9.108C145.281 9.412 145.561 9.872 145.689 10.488L145.353 10.356C145.537 9.844 145.861 9.432 146.325 9.12C146.797 8.8 147.361 8.64 148.017 8.64ZM156.82 15V13.608L156.784 13.38V11.052C156.784 10.516 156.632 10.104 156.328 9.816C156.032 9.528 155.588 9.384 154.996 9.384C154.588 9.384 154.2 9.452 153.832 9.588C153.464 9.724 153.152 9.904 152.896 10.128L152.512 9.492C152.832 9.22 153.216 9.012 153.664 8.868C154.112 8.716 154.584 8.64 155.08 8.64C155.896 8.64 156.524 8.844 156.964 9.252C157.412 9.652 157.636 10.264 157.636 11.088V15H156.82ZM154.648 15.06C154.176 15.06 153.764 14.984 153.412 14.832C153.068 14.672 152.804 14.456 152.62 14.184C152.436 13.904 152.344 13.584 152.344 13.224C152.344 12.896 152.42 12.6 152.572 12.336C152.732 12.064 152.988 11.848 153.34 11.688C153.7 11.52 154.18 11.436 154.78 11.436H156.952V12.072H154.804C154.196 12.072 153.772 12.18 153.532 12.396C153.3 12.612 153.184 12.88 153.184 13.2C153.184 13.56 153.324 13.848 153.604 14.064C153.884 14.28 154.276 14.388 154.78 14.388C155.26 14.388 155.672 14.28 156.016 14.064C156.368 13.84 156.624 13.52 156.784 13.104L156.976 13.692C156.816 14.108 156.536 14.44 156.136 14.688C155.744 14.936 155.248 15.06 154.648 15.06ZM159.95 15V8.7H160.802V15H159.95ZM160.382 7.308C160.206 7.308 160.058 7.248 159.938 7.128C159.818 7.008 159.758 6.864 159.758 6.696C159.758 6.528 159.818 6.388 159.938 6.276C160.058 6.156 160.206 6.096 160.382 6.096C160.558 6.096 160.706 6.152 160.826 6.264C160.946 6.376 161.006 6.516 161.006 6.684C161.006 6.86 160.946 7.008 160.826 7.128C160.714 7.248 160.566 7.308 160.382 7.308ZM163.172 15V6.096H164.024V15H163.172ZM166.479 15.06C166.303 15.06 166.151 14.996 166.023 14.868C165.903 14.74 165.843 14.584 165.843 14.4C165.843 14.208 165.903 14.052 166.023 13.932C166.151 13.812 166.303 13.752 166.479 13.752C166.655 13.752 166.803 13.812 166.923 13.932C167.051 14.052 167.115 14.208 167.115 14.4C167.115 14.584 167.051 14.74 166.923 14.868C166.803 14.996 166.655 15.06 166.479 15.06ZM171.378 15.06C170.754 15.06 170.194 14.924 169.698 14.652C169.21 14.372 168.826 13.992 168.546 13.512C168.266 13.024 168.126 12.468 168.126 11.844C168.126 11.212 168.266 10.656 168.546 10.176C168.826 9.696 169.21 9.32 169.698 9.048C170.194 8.776 170.754 8.64 171.378 8.64C171.914 8.64 172.398 8.744 172.83 8.952C173.262 9.16 173.602 9.472 173.85 9.888L173.214 10.32C172.998 10 172.73 9.764 172.41 9.612C172.09 9.46 171.742 9.384 171.366 9.384C170.918 9.384 170.514 9.488 170.154 9.696C169.794 9.896 169.51 10.18 169.302 10.548C169.094 10.916 168.99 11.348 168.99 11.844C168.99 12.34 169.094 12.772 169.302 13.14C169.51 13.508 169.794 13.796 170.154 14.004C170.514 14.204 170.918 14.304 171.366 14.304C171.742 14.304 172.09 14.228 172.41 14.076C172.73 13.924 172.998 13.692 173.214 13.38L173.85 13.812C173.602 14.22 173.262 14.532 172.83 14.748C172.398 14.956 171.914 15.06 171.378 15.06ZM177.986 15.06C177.378 15.06 176.83 14.924 176.342 14.652C175.862 14.372 175.482 13.992 175.202 13.512C174.922 13.024 174.782 12.468 174.782 11.844C174.782 11.212 174.922 10.656 175.202 10.176C175.482 9.696 175.862 9.32 176.342 9.048C176.822 8.776 177.37 8.64 177.986 8.64C178.61 8.64 179.162 8.776 179.642 9.048C180.13 9.32 180.51 9.696 180.782 10.176C181.062 10.656 181.202 11.212 181.202 11.844C181.202 12.468 181.062 13.024 180.782 13.512C180.51 13.992 180.13 14.372 179.642 14.652C179.154 14.924 178.602 15.06 177.986 15.06ZM177.986 14.304C178.442 14.304 178.846 14.204 179.198 14.004C179.55 13.796 179.826 13.508 180.026 13.14C180.234 12.764 180.338 12.332 180.338 11.844C180.338 11.348 180.234 10.916 180.026 10.548C179.826 10.18 179.55 9.896 179.198 9.696C178.846 9.488 178.446 9.384 177.998 9.384C177.55 9.384 177.15 9.488 176.798 9.696C176.446 9.896 176.166 10.18 175.958 10.548C175.75 10.916 175.646 11.348 175.646 11.844C175.646 12.332 175.75 12.764 175.958 13.14C176.166 13.508 176.446 13.796 176.798 14.004C177.15 14.204 177.546 14.304 177.986 14.304ZM190.814 8.64C191.326 8.64 191.77 8.74 192.146 8.94C192.53 9.132 192.826 9.428 193.034 9.828C193.25 10.228 193.358 10.732 193.358 11.34V15H192.506V11.424C192.506 10.76 192.346 10.26 192.026 9.924C191.714 9.58 191.27 9.408 190.694 9.408C190.262 9.408 189.886 9.5 189.566 9.684C189.254 9.86 189.01 10.12 188.834 10.464C188.666 10.8 188.582 11.208 188.582 11.688V15H187.73V11.424C187.73 10.76 187.57 10.26 187.25 9.924C186.93 9.58 186.482 9.408 185.906 9.408C185.482 9.408 185.11 9.5 184.79 9.684C184.47 9.86 184.222 10.12 184.046 10.464C183.878 10.8 183.794 11.208 183.794 11.688V15H182.942V8.7H183.758V10.404L183.626 10.104C183.818 9.648 184.126 9.292 184.55 9.036C184.982 8.772 185.49 8.64 186.074 8.64C186.69 8.64 187.214 8.796 187.646 9.108C188.078 9.412 188.358 9.872 188.486 10.488L188.15 10.356C188.334 9.844 188.658 9.432 189.122 9.12C189.594 8.8 190.158 8.64 190.814 8.64Z" fill="black"/>
</svg>
