<svg width="349" height="48" viewBox="0 0 349 48" fill="none" xmlns="http://www.w3.org/2000/svg">
<path d="M12 4C14.3869 4 16.6761 4.94821 18.364 6.63604C20.0518 8.32387 21 10.6131 21 13C21 16.074 19.324 18.59 17.558 20.395C16.6757 21.2871 15.7129 22.0958 14.682 22.811L14.256 23.101L14.056 23.234L13.679 23.474L13.343 23.679L12.927 23.921C12.6446 24.0822 12.3251 24.1669 12 24.1669C11.6749 24.1669 11.3554 24.0822 11.073 23.921L10.657 23.679L10.137 23.359L9.945 23.234L9.535 22.961C8.42283 22.2085 7.3869 21.3491 6.442 20.395C4.676 18.589 3 16.074 3 13C3 10.6131 3.94821 8.32387 5.63604 6.63604C7.32387 4.94821 9.61305 4 12 4ZM12 10C11.606 10 11.2159 10.0776 10.8519 10.2284C10.488 10.3791 10.1573 10.6001 9.87868 10.8787C9.6001 11.1573 9.37913 11.488 9.22836 11.8519C9.0776 12.2159 9 12.606 9 13C9 13.394 9.0776 13.7841 9.22836 14.1481C9.37913 14.512 9.6001 14.8427 9.87868 15.1213C10.1573 15.3999 10.488 15.6209 10.8519 15.7716C11.2159 15.9224 11.606 16 12 16C12.7956 16 13.5587 15.6839 14.1213 15.1213C14.6839 14.5587 15 13.7956 15 13C15 12.2044 14.6839 11.4413 14.1213 10.8787C13.5587 10.3161 12.7956 10 12 10Z" fill="#FEAE00"/>
<path d="M35 12V4.368H32.048V3.6H38.84V4.368H35.888V12H35ZM42.0984 12.06C41.4424 12.06 40.8664 11.924 40.3704 11.652C39.8744 11.372 39.4864 10.992 39.2064 10.512C38.9264 10.024 38.7864 9.468 38.7864 8.844C38.7864 8.22 38.9184 7.668 39.1824 7.188C39.4544 6.708 39.8224 6.332 40.2864 6.06C40.7584 5.78 41.2864 5.64 41.8704 5.64C42.4624 5.64 42.9864 5.776 43.4424 6.048C43.9064 6.312 44.2704 6.688 44.5344 7.176C44.7984 7.656 44.9304 8.212 44.9304 8.844C44.9304 8.884 44.9264 8.928 44.9184 8.976C44.9184 9.016 44.9184 9.06 44.9184 9.108H39.4344V8.472H44.4624L44.1264 8.724C44.1264 8.268 44.0264 7.864 43.8264 7.512C43.6344 7.152 43.3704 6.872 43.0344 6.672C42.6984 6.472 42.3104 6.372 41.8704 6.372C41.4384 6.372 41.0504 6.472 40.7064 6.672C40.3624 6.872 40.0944 7.152 39.9024 7.512C39.7104 7.872 39.6144 8.284 39.6144 8.748V8.88C39.6144 9.36 39.7184 9.784 39.9264 10.152C40.1424 10.512 40.4384 10.796 40.8144 11.004C41.1984 11.204 41.6344 11.304 42.1224 11.304C42.5064 11.304 42.8624 11.236 43.1904 11.1C43.5264 10.964 43.8144 10.756 44.0544 10.476L44.5344 11.028C44.2544 11.364 43.9024 11.62 43.4784 11.796C43.0624 11.972 42.6024 12.06 42.0984 12.06ZM46.6646 12V5.7H47.4806V7.416L47.3966 7.116C47.5726 6.636 47.8686 6.272 48.2846 6.024C48.7006 5.768 49.2166 5.64 49.8326 5.64V6.468C49.8006 6.468 49.7686 6.468 49.7366 6.468C49.7046 6.46 49.6726 6.456 49.6406 6.456C48.9766 6.456 48.4566 6.66 48.0806 7.068C47.7046 7.468 47.5166 8.04 47.5166 8.784V12H46.6646ZM51.3872 12V5.7H52.2032V7.416L52.1192 7.116C52.2952 6.636 52.5912 6.272 53.0072 6.024C53.4232 5.768 53.9392 5.64 54.5552 5.64V6.468C54.5232 6.468 54.4912 6.468 54.4592 6.468C54.4272 6.46 54.3952 6.456 54.3632 6.456C53.6992 6.456 53.1792 6.66 52.8032 7.068C52.4272 7.468 52.2392 8.04 52.2392 8.784V12H51.3872ZM59.6594 12V10.608L59.6234 10.38V8.052C59.6234 7.516 59.4714 7.104 59.1674 6.816C58.8714 6.528 58.4274 6.384 57.8354 6.384C57.4274 6.384 57.0394 6.452 56.6714 6.588C56.3034 6.724 55.9914 6.904 55.7354 7.128L55.3514 6.492C55.6714 6.22 56.0554 6.012 56.5034 5.868C56.9514 5.716 57.4234 5.64 57.9194 5.64C58.7354 5.64 59.3634 5.844 59.8034 6.252C60.2514 6.652 60.4754 7.264 60.4754 8.088V12H59.6594ZM57.4874 12.06C57.0154 12.06 56.6034 11.984 56.2514 11.832C55.9074 11.672 55.6434 11.456 55.4594 11.184C55.2754 10.904 55.1834 10.584 55.1834 10.224C55.1834 9.896 55.2594 9.6 55.4114 9.336C55.5714 9.064 55.8274 8.848 56.1794 8.688C56.5394 8.52 57.0194 8.436 57.6194 8.436H59.7914V9.072H57.6434C57.0354 9.072 56.6114 9.18 56.3714 9.396C56.1394 9.612 56.0234 9.88 56.0234 10.2C56.0234 10.56 56.1634 10.848 56.4434 11.064C56.7234 11.28 57.1154 11.388 57.6194 11.388C58.0994 11.388 58.5114 11.28 58.8554 11.064C59.2074 10.84 59.4634 10.52 59.6234 10.104L59.8154 10.692C59.6554 11.108 59.3754 11.44 58.9754 11.688C58.5834 11.936 58.0874 12.06 57.4874 12.06ZM67.7422 12V4.368H64.7902V3.6H71.5822V4.368H68.6302V12H67.7422ZM74.8406 12.06C74.1846 12.06 73.6086 11.924 73.1126 11.652C72.6166 11.372 72.2286 10.992 71.9486 10.512C71.6686 10.024 71.5286 9.468 71.5286 8.844C71.5286 8.22 71.6606 7.668 71.9246 7.188C72.1966 6.708 72.5646 6.332 73.0286 6.06C73.5006 5.78 74.0286 5.64 74.6126 5.64C75.2046 5.64 75.7286 5.776 76.1846 6.048C76.6486 6.312 77.0126 6.688 77.2766 7.176C77.5406 7.656 77.6726 8.212 77.6726 8.844C77.6726 8.884 77.6686 8.928 77.6606 8.976C77.6606 9.016 77.6606 9.06 77.6606 9.108H72.1766V8.472H77.2046L76.8686 8.724C76.8686 8.268 76.7686 7.864 76.5686 7.512C76.3766 7.152 76.1126 6.872 75.7766 6.672C75.4406 6.472 75.0526 6.372 74.6126 6.372C74.1806 6.372 73.7926 6.472 73.4486 6.672C73.1046 6.872 72.8366 7.152 72.6446 7.512C72.4526 7.872 72.3566 8.284 72.3566 8.748V8.88C72.3566 9.36 72.4606 9.784 72.6686 10.152C72.8846 10.512 73.1806 10.796 73.5566 11.004C73.9406 11.204 74.3766 11.304 74.8646 11.304C75.2486 11.304 75.6046 11.236 75.9326 11.1C76.2686 10.964 76.5566 10.756 76.7966 10.476L77.2766 11.028C76.9966 11.364 76.6446 11.62 76.2206 11.796C75.8046 11.972 75.3446 12.06 74.8406 12.06ZM82.0228 12.06C81.3988 12.06 80.8388 11.924 80.3428 11.652C79.8548 11.372 79.4708 10.992 79.1908 10.512C78.9108 10.024 78.7708 9.468 78.7708 8.844C78.7708 8.212 78.9108 7.656 79.1908 7.176C79.4708 6.696 79.8548 6.32 80.3428 6.048C80.8388 5.776 81.3988 5.64 82.0228 5.64C82.5588 5.64 83.0428 5.744 83.4748 5.952C83.9068 6.16 84.2468 6.472 84.4948 6.888L83.8588 7.32C83.6428 7 83.3748 6.764 83.0548 6.612C82.7348 6.46 82.3868 6.384 82.0108 6.384C81.5628 6.384 81.1588 6.488 80.7988 6.696C80.4388 6.896 80.1548 7.18 79.9468 7.548C79.7388 7.916 79.6348 8.348 79.6348 8.844C79.6348 9.34 79.7388 9.772 79.9468 10.14C80.1548 10.508 80.4388 10.796 80.7988 11.004C81.1588 11.204 81.5628 11.304 82.0108 11.304C82.3868 11.304 82.7348 11.228 83.0548 11.076C83.3748 10.924 83.6428 10.692 83.8588 10.38L84.4948 10.812C84.2468 11.22 83.9068 11.532 83.4748 11.748C83.0428 11.956 82.5588 12.06 82.0228 12.06ZM86.0747 12V3.096H86.9267V7.428L86.7587 7.104C86.9587 6.648 87.2787 6.292 87.7187 6.036C88.1587 5.772 88.6827 5.64 89.2907 5.64C89.8027 5.64 90.2507 5.74 90.6347 5.94C91.0267 6.132 91.3307 6.428 91.5467 6.828C91.7707 7.228 91.8827 7.732 91.8827 8.34V12H91.0307V8.424C91.0307 7.76 90.8627 7.26 90.5267 6.924C90.1987 6.58 89.7347 6.408 89.1347 6.408C88.6867 6.408 88.2947 6.5 87.9587 6.684C87.6307 6.86 87.3747 7.12 87.1907 7.464C87.0147 7.8 86.9267 8.208 86.9267 8.688V12H86.0747ZM97.5047 12V3.6H100.649C101.361 3.6 101.973 3.716 102.485 3.948C102.997 4.172 103.389 4.5 103.661 4.932C103.941 5.356 104.081 5.872 104.081 6.48C104.081 7.072 103.941 7.584 103.661 8.016C103.389 8.44 102.997 8.768 102.485 9C101.973 9.232 101.361 9.348 100.649 9.348H97.9967L98.3927 8.928V12H97.5047ZM98.3927 9L97.9967 8.568H100.625C101.465 8.568 102.101 8.388 102.533 8.028C102.973 7.66 103.193 7.144 103.193 6.48C103.193 5.808 102.973 5.288 102.533 4.92C102.101 4.552 101.465 4.368 100.625 4.368H97.9967L98.3927 3.948V9ZM109.71 12V10.608L109.674 10.38V8.052C109.674 7.516 109.522 7.104 109.218 6.816C108.922 6.528 108.478 6.384 107.886 6.384C107.478 6.384 107.09 6.452 106.722 6.588C106.354 6.724 106.042 6.904 105.786 7.128L105.402 6.492C105.722 6.22 106.106 6.012 106.554 5.868C107.002 5.716 107.474 5.64 107.97 5.64C108.786 5.64 109.414 5.844 109.854 6.252C110.302 6.652 110.526 7.264 110.526 8.088V12H109.71ZM107.538 12.06C107.066 12.06 106.654 11.984 106.302 11.832C105.958 11.672 105.694 11.456 105.51 11.184C105.326 10.904 105.234 10.584 105.234 10.224C105.234 9.896 105.31 9.6 105.462 9.336C105.622 9.064 105.878 8.848 106.23 8.688C106.59 8.52 107.07 8.436 107.67 8.436H109.842V9.072H107.694C107.086 9.072 106.662 9.18 106.422 9.396C106.19 9.612 106.074 9.88 106.074 10.2C106.074 10.56 106.214 10.848 106.494 11.064C106.774 11.28 107.166 11.388 107.67 11.388C108.15 11.388 108.562 11.28 108.906 11.064C109.258 10.84 109.514 10.52 109.674 10.104L109.866 10.692C109.706 11.108 109.426 11.44 109.026 11.688C108.634 11.936 108.138 12.06 107.538 12.06ZM115.456 12.06C114.832 12.06 114.272 11.924 113.776 11.652C113.288 11.372 112.904 10.992 112.624 10.512C112.344 10.024 112.204 9.468 112.204 8.844C112.204 8.212 112.344 7.656 112.624 7.176C112.904 6.696 113.288 6.32 113.776 6.048C114.272 5.776 114.832 5.64 115.456 5.64C115.992 5.64 116.476 5.744 116.908 5.952C117.34 6.16 117.68 6.472 117.928 6.888L117.292 7.32C117.076 7 116.808 6.764 116.488 6.612C116.168 6.46 115.82 6.384 115.444 6.384C114.996 6.384 114.592 6.488 114.232 6.696C113.872 6.896 113.588 7.18 113.38 7.548C113.172 7.916 113.068 8.348 113.068 8.844C113.068 9.34 113.172 9.772 113.38 10.14C113.588 10.508 113.872 10.796 114.232 11.004C114.592 11.204 114.996 11.304 115.444 11.304C115.82 11.304 116.168 11.228 116.488 11.076C116.808 10.924 117.076 10.692 117.292 10.38L117.928 10.812C117.68 11.22 117.34 11.532 116.908 11.748C116.476 11.956 115.992 12.06 115.456 12.06ZM120.18 10.368L120.204 9.276L124.128 5.7H125.172L122.4 8.352L121.92 8.76L120.18 10.368ZM119.508 12V3.096H120.36V12H119.508ZM124.392 12L121.764 8.724L122.316 8.064L125.436 12H124.392ZM128.185 12.06C127.665 12.06 127.173 11.988 126.709 11.844C126.245 11.692 125.881 11.504 125.617 11.28L126.001 10.608C126.257 10.8 126.585 10.968 126.985 11.112C127.385 11.248 127.805 11.316 128.245 11.316C128.845 11.316 129.277 11.224 129.541 11.04C129.805 10.848 129.937 10.596 129.937 10.284C129.937 10.052 129.861 9.872 129.709 9.744C129.565 9.608 129.373 9.508 129.133 9.444C128.893 9.372 128.625 9.312 128.329 9.264C128.033 9.216 127.737 9.16 127.441 9.096C127.153 9.032 126.889 8.94 126.649 8.82C126.409 8.692 126.213 8.52 126.061 8.304C125.917 8.088 125.845 7.8 125.845 7.44C125.845 7.096 125.941 6.788 126.133 6.516C126.325 6.244 126.605 6.032 126.973 5.88C127.349 5.72 127.805 5.64 128.341 5.64C128.749 5.64 129.157 5.696 129.565 5.808C129.973 5.912 130.309 6.052 130.573 6.228L130.201 6.912C129.921 6.72 129.621 6.584 129.301 6.504C128.981 6.416 128.661 6.372 128.341 6.372C127.773 6.372 127.353 6.472 127.081 6.672C126.817 6.864 126.685 7.112 126.685 7.416C126.685 7.656 126.757 7.844 126.901 7.98C127.053 8.116 127.249 8.224 127.489 8.304C127.737 8.376 128.005 8.436 128.293 8.484C128.589 8.532 128.881 8.592 129.169 8.664C129.465 8.728 129.733 8.82 129.973 8.94C130.221 9.052 130.417 9.216 130.561 9.432C130.713 9.64 130.789 9.916 130.789 10.26C130.789 10.628 130.685 10.948 130.477 11.22C130.277 11.484 129.981 11.692 129.589 11.844C129.205 11.988 128.737 12.06 128.185 12.06Z" fill="black"/>
<path d="M34.088 30V21.96L34.472 22.368H32.108V21.6H34.952V30H34.088ZM36.8039 30V29.388L40.2959 25.968C40.6159 25.656 40.8559 25.384 41.0159 25.152C41.1759 24.912 41.2839 24.688 41.3399 24.48C41.3959 24.272 41.4239 24.076 41.4239 23.892C41.4239 23.404 41.2559 23.02 40.9199 22.74C40.5919 22.46 40.1039 22.32 39.4559 22.32C38.9599 22.32 38.5199 22.396 38.1359 22.548C37.7599 22.7 37.4359 22.936 37.1639 23.256L36.5519 22.728C36.8799 22.344 37.2999 22.048 37.8119 21.84C38.3239 21.632 38.8959 21.528 39.5279 21.528C40.0959 21.528 40.5879 21.62 41.0039 21.804C41.4199 21.98 41.7399 22.24 41.9639 22.584C42.1959 22.928 42.3119 23.332 42.3119 23.796C42.3119 24.068 42.2719 24.336 42.1919 24.6C42.1199 24.864 41.9839 25.144 41.7839 25.44C41.5919 25.728 41.3079 26.056 40.9319 26.424L37.7279 29.568L37.4879 29.232H42.6959V30H36.8039ZM46.4323 30.072C45.8323 30.072 45.2603 29.976 44.7163 29.784C44.1723 29.584 43.7403 29.32 43.4203 28.992L43.8403 28.308C44.1043 28.588 44.4643 28.82 44.9202 29.004C45.3843 29.188 45.8843 29.28 46.4203 29.28C47.1323 29.28 47.6723 29.124 48.0403 28.812C48.4163 28.492 48.6043 28.076 48.6043 27.564C48.6043 27.204 48.5163 26.896 48.3403 26.64C48.1723 26.376 47.8843 26.172 47.4763 26.028C47.0683 25.884 46.5083 25.812 45.7963 25.812H44.0083L44.4403 21.6H49.0363V22.368H44.7883L45.2323 21.948L44.8603 25.476L44.4163 25.044H45.9883C46.8363 25.044 47.5163 25.148 48.0283 25.356C48.5403 25.564 48.9083 25.856 49.1323 26.232C49.3643 26.6 49.4803 27.032 49.4803 27.528C49.4803 28 49.3683 28.432 49.1443 28.824C48.9203 29.208 48.5843 29.512 48.1363 29.736C47.6883 29.96 47.1203 30.072 46.4323 30.072ZM50.6251 31.752L51.1531 29.532L51.2491 30.048C51.0651 30.048 50.9091 29.988 50.7811 29.868C50.6611 29.748 50.6011 29.592 50.6011 29.4C50.6011 29.208 50.6611 29.052 50.7811 28.932C50.9091 28.812 51.0611 28.752 51.2371 28.752C51.4211 28.752 51.5691 28.816 51.6811 28.944C51.8011 29.072 51.8611 29.224 51.8611 29.4C51.8611 29.464 51.8571 29.528 51.8491 29.592C51.8411 29.656 51.8251 29.728 51.8011 29.808C51.7771 29.888 51.7451 29.984 51.7051 30.096L51.2011 31.752H50.6251ZM57.4967 28.368L57.5207 27.276L61.4447 23.7H62.4887L59.7167 26.352L59.2367 26.76L57.4967 28.368ZM56.8247 30V21.096H57.6767V30H56.8247ZM61.7087 30L59.0807 26.724L59.6327 26.064L62.7527 30H61.7087ZM66.5186 30.06C65.9826 30.06 65.5146 29.96 65.1146 29.76C64.7146 29.56 64.4026 29.26 64.1786 28.86C63.9626 28.46 63.8546 27.96 63.8546 27.36V23.7H64.7066V27.264C64.7066 27.936 64.8706 28.444 65.1986 28.788C65.5346 29.124 66.0026 29.292 66.6026 29.292C67.0426 29.292 67.4226 29.204 67.7426 29.028C68.0706 28.844 68.3186 28.58 68.4866 28.236C68.6626 27.892 68.7506 27.48 68.7506 27V23.7H69.6026V30H68.7866V28.272L68.9186 28.584C68.7186 29.048 68.4066 29.412 67.9826 29.676C67.5666 29.932 67.0786 30.06 66.5186 30.06ZM79.8491 23.64C80.3611 23.64 80.8051 23.74 81.1811 23.94C81.5651 24.132 81.8611 24.428 82.0691 24.828C82.2851 25.228 82.3931 25.732 82.3931 26.34V30H81.5411V26.424C81.5411 25.76 81.3811 25.26 81.0611 24.924C80.7491 24.58 80.3051 24.408 79.7291 24.408C79.2971 24.408 78.9211 24.5 78.6011 24.684C78.2891 24.86 78.0451 25.12 77.8691 25.464C77.7011 25.8 77.6171 26.208 77.6171 26.688V30H76.7651V26.424C76.7651 25.76 76.6051 25.26 76.2851 24.924C75.9651 24.58 75.5171 24.408 74.9411 24.408C74.5171 24.408 74.1451 24.5 73.8251 24.684C73.5051 24.86 73.2571 25.12 73.0811 25.464C72.9131 25.8 72.8291 26.208 72.8291 26.688V30H71.9771V23.7H72.7931V25.404L72.6611 25.104C72.8531 24.648 73.1611 24.292 73.5851 24.036C74.0171 23.772 74.5251 23.64 75.1091 23.64C75.7251 23.64 76.2491 23.796 76.6811 24.108C77.1131 24.412 77.3931 24.872 77.5211 25.488L77.1851 25.356C77.3691 24.844 77.6931 24.432 78.1571 24.12C78.6291 23.8 79.1931 23.64 79.8491 23.64ZM88.6516 30V28.608L88.6156 28.38V26.052C88.6156 25.516 88.4636 25.104 88.1596 24.816C87.8636 24.528 87.4196 24.384 86.8276 24.384C86.4196 24.384 86.0316 24.452 85.6636 24.588C85.2956 24.724 84.9836 24.904 84.7276 25.128L84.3436 24.492C84.6636 24.22 85.0476 24.012 85.4956 23.868C85.9436 23.716 86.4156 23.64 86.9116 23.64C87.7276 23.64 88.3556 23.844 88.7956 24.252C89.2436 24.652 89.4676 25.264 89.4676 26.088V30H88.6516ZM86.4796 30.06C86.0076 30.06 85.5956 29.984 85.2436 29.832C84.8996 29.672 84.6356 29.456 84.4516 29.184C84.2676 28.904 84.1756 28.584 84.1756 28.224C84.1756 27.896 84.2516 27.6 84.4036 27.336C84.5636 27.064 84.8196 26.848 85.1716 26.688C85.5316 26.52 86.0116 26.436 86.6116 26.436H88.7836V27.072H86.6356C86.0276 27.072 85.6036 27.18 85.3636 27.396C85.1316 27.612 85.0156 27.88 85.0156 28.2C85.0156 28.56 85.1556 28.848 85.4356 29.064C85.7156 29.28 86.1076 29.388 86.6116 29.388C87.0916 29.388 87.5036 29.28 87.8476 29.064C88.1996 28.84 88.4556 28.52 88.6156 28.104L88.8076 28.692C88.6476 29.108 88.3676 29.44 87.9676 29.688C87.5756 29.936 87.0796 30.06 86.4796 30.06ZM91.7818 30V23.7H92.5978V25.416L92.5138 25.116C92.6898 24.636 92.9858 24.272 93.4018 24.024C93.8178 23.768 94.3338 23.64 94.9498 23.64V24.468C94.9178 24.468 94.8858 24.468 94.8538 24.468C94.8218 24.46 94.7898 24.456 94.7578 24.456C94.0938 24.456 93.5738 24.66 93.1978 25.068C92.8218 25.468 92.6338 26.04 92.6338 26.784V30H91.7818ZM99.9837 30V28.608L99.9477 28.38V26.052C99.9477 25.516 99.7957 25.104 99.4917 24.816C99.1957 24.528 98.7517 24.384 98.1597 24.384C97.7517 24.384 97.3637 24.452 96.9957 24.588C96.6277 24.724 96.3157 24.904 96.0597 25.128L95.6757 24.492C95.9957 24.22 96.3797 24.012 96.8277 23.868C97.2757 23.716 97.7477 23.64 98.2437 23.64C99.0597 23.64 99.6877 23.844 100.128 24.252C100.576 24.652 100.8 25.264 100.8 26.088V30H99.9837ZM97.8117 30.06C97.3397 30.06 96.9277 29.984 96.5757 29.832C96.2317 29.672 95.9677 29.456 95.7837 29.184C95.5997 28.904 95.5077 28.584 95.5077 28.224C95.5077 27.896 95.5837 27.6 95.7357 27.336C95.8957 27.064 96.1517 26.848 96.5037 26.688C96.8637 26.52 97.3437 26.436 97.9437 26.436H100.116V27.072H97.9677C97.3597 27.072 96.9357 27.18 96.6957 27.396C96.4637 27.612 96.3477 27.88 96.3477 28.2C96.3477 28.56 96.4877 28.848 96.7677 29.064C97.0477 29.28 97.4397 29.388 97.9437 29.388C98.4237 29.388 98.8357 29.28 99.1797 29.064C99.5317 28.84 99.7877 28.52 99.9477 28.104L100.14 28.692C99.9797 29.108 99.6997 29.44 99.2997 29.688C98.9077 29.936 98.4117 30.06 97.8117 30.06ZM106.33 23.64C106.842 23.64 107.29 23.74 107.674 23.94C108.066 24.132 108.37 24.428 108.586 24.828C108.81 25.228 108.922 25.732 108.922 26.34V30H108.07V26.424C108.07 25.76 107.902 25.26 107.566 24.924C107.238 24.58 106.774 24.408 106.174 24.408C105.726 24.408 105.334 24.5 104.998 24.684C104.67 24.86 104.414 25.12 104.23 25.464C104.054 25.8 103.966 26.208 103.966 26.688V30H103.114V23.7H103.93V25.428L103.798 25.104C103.998 24.648 104.318 24.292 104.758 24.036C105.198 23.772 105.722 23.64 106.33 23.64ZM117.052 32.388C116.476 32.388 115.924 32.304 115.396 32.136C114.868 31.968 114.44 31.728 114.112 31.416L114.544 30.768C114.84 31.032 115.204 31.24 115.636 31.392C116.076 31.552 116.54 31.632 117.028 31.632C117.828 31.632 118.416 31.444 118.792 31.068C119.168 30.7 119.356 30.124 119.356 29.34V27.768L119.476 26.688L119.392 25.608V23.7H120.208V29.232C120.208 30.32 119.94 31.116 119.404 31.62C118.876 32.132 118.092 32.388 117.052 32.388ZM116.896 29.76C116.296 29.76 115.756 29.632 115.276 29.376C114.796 29.112 114.416 28.748 114.136 28.284C113.864 27.82 113.728 27.288 113.728 26.688C113.728 26.088 113.864 25.56 114.136 25.104C114.416 24.64 114.796 24.28 115.276 24.024C115.756 23.768 116.296 23.64 116.896 23.64C117.456 23.64 117.96 23.756 118.408 23.988C118.856 24.22 119.212 24.564 119.476 25.02C119.74 25.476 119.872 26.032 119.872 26.688C119.872 27.344 119.74 27.9 119.476 28.356C119.212 28.812 118.856 29.16 118.408 29.4C117.96 29.64 117.456 29.76 116.896 29.76ZM116.98 29.004C117.444 29.004 117.856 28.908 118.216 28.716C118.576 28.516 118.86 28.244 119.068 27.9C119.276 27.548 119.38 27.144 119.38 26.688C119.38 26.232 119.276 25.832 119.068 25.488C118.86 25.144 118.576 24.876 118.216 24.684C117.856 24.484 117.444 24.384 116.98 24.384C116.524 24.384 116.112 24.484 115.744 24.684C115.384 24.876 115.1 25.144 114.892 25.488C114.692 25.832 114.592 26.232 114.592 26.688C114.592 27.144 114.692 27.548 114.892 27.9C115.1 28.244 115.384 28.516 115.744 28.716C116.112 28.908 116.524 29.004 116.98 29.004ZM126.527 30V28.608L126.491 28.38V26.052C126.491 25.516 126.339 25.104 126.035 24.816C125.739 24.528 125.295 24.384 124.703 24.384C124.295 24.384 123.907 24.452 123.539 24.588C123.171 24.724 122.859 24.904 122.603 25.128L122.219 24.492C122.539 24.22 122.923 24.012 123.371 23.868C123.819 23.716 124.291 23.64 124.787 23.64C125.603 23.64 126.231 23.844 126.671 24.252C127.119 24.652 127.343 25.264 127.343 26.088V30H126.527ZM124.355 30.06C123.883 30.06 123.471 29.984 123.119 29.832C122.775 29.672 122.511 29.456 122.327 29.184C122.143 28.904 122.051 28.584 122.051 28.224C122.051 27.896 122.127 27.6 122.279 27.336C122.439 27.064 122.695 26.848 123.047 26.688C123.407 26.52 123.887 26.436 124.487 26.436H126.659V27.072H124.511C123.903 27.072 123.479 27.18 123.239 27.396C123.007 27.612 122.891 27.88 122.891 28.2C122.891 28.56 123.031 28.848 123.311 29.064C123.591 29.28 123.983 29.388 124.487 29.388C124.967 29.388 125.379 29.28 125.723 29.064C126.075 28.84 126.331 28.52 126.491 28.104L126.683 28.692C126.523 29.108 126.243 29.44 125.843 29.688C125.451 29.936 124.955 30.06 124.355 30.06ZM129.657 30V23.7H130.473V25.416L130.389 25.116C130.565 24.636 130.861 24.272 131.277 24.024C131.693 23.768 132.209 23.64 132.825 23.64V24.468C132.793 24.468 132.761 24.468 132.729 24.468C132.697 24.46 132.665 24.456 132.633 24.456C131.969 24.456 131.449 24.66 131.073 25.068C130.697 25.468 130.509 26.04 130.509 26.784V30H129.657ZM136.829 30.06C136.229 30.06 135.689 29.924 135.209 29.652C134.737 29.38 134.365 29.004 134.093 28.524C133.821 28.036 133.685 27.476 133.685 26.844C133.685 26.204 133.821 25.644 134.093 25.164C134.365 24.684 134.737 24.312 135.209 24.048C135.689 23.776 136.229 23.64 136.829 23.64C137.381 23.64 137.873 23.764 138.305 24.012C138.745 24.26 139.093 24.624 139.349 25.104C139.613 25.576 139.745 26.156 139.745 26.844C139.745 27.524 139.617 28.104 139.361 28.584C139.105 29.064 138.757 29.432 138.317 29.688C137.885 29.936 137.389 30.06 136.829 30.06ZM136.889 29.304C137.337 29.304 137.737 29.204 138.089 29.004C138.449 28.796 138.729 28.508 138.929 28.14C139.137 27.764 139.241 27.332 139.241 26.844C139.241 26.348 139.137 25.916 138.929 25.548C138.729 25.18 138.449 24.896 138.089 24.696C137.737 24.488 137.337 24.384 136.889 24.384C136.449 24.384 136.053 24.488 135.701 24.696C135.349 24.896 135.069 25.18 134.861 25.548C134.653 25.916 134.549 26.348 134.549 26.844C134.549 27.332 134.653 27.764 134.861 28.14C135.069 28.508 135.349 28.796 135.701 29.004C136.053 29.204 136.449 29.304 136.889 29.304ZM139.265 30V28.104L139.349 26.832L139.229 25.56V21.096H140.081V30H139.265ZM145.13 30.06C144.474 30.06 143.898 29.924 143.402 29.652C142.906 29.372 142.518 28.992 142.238 28.512C141.958 28.024 141.818 27.468 141.818 26.844C141.818 26.22 141.95 25.668 142.214 25.188C142.486 24.708 142.854 24.332 143.318 24.06C143.79 23.78 144.318 23.64 144.902 23.64C145.494 23.64 146.018 23.776 146.474 24.048C146.938 24.312 147.302 24.688 147.566 25.176C147.83 25.656 147.962 26.212 147.962 26.844C147.962 26.884 147.958 26.928 147.95 26.976C147.95 27.016 147.95 27.06 147.95 27.108H142.466V26.472H147.494L147.158 26.724C147.158 26.268 147.058 25.864 146.858 25.512C146.666 25.152 146.402 24.872 146.066 24.672C145.73 24.472 145.342 24.372 144.902 24.372C144.47 24.372 144.082 24.472 143.738 24.672C143.394 24.872 143.126 25.152 142.934 25.512C142.742 25.872 142.646 26.284 142.646 26.748V26.88C142.646 27.36 142.75 27.784 142.958 28.152C143.174 28.512 143.47 28.796 143.846 29.004C144.23 29.204 144.666 29.304 145.154 29.304C145.538 29.304 145.894 29.236 146.222 29.1C146.558 28.964 146.846 28.756 147.086 28.476L147.566 29.028C147.286 29.364 146.934 29.62 146.51 29.796C146.094 29.972 145.634 30.06 145.13 30.06ZM152.912 23.64C153.424 23.64 153.872 23.74 154.256 23.94C154.648 24.132 154.952 24.428 155.168 24.828C155.392 25.228 155.504 25.732 155.504 26.34V30H154.652V26.424C154.652 25.76 154.484 25.26 154.148 24.924C153.82 24.58 153.356 24.408 152.756 24.408C152.308 24.408 151.916 24.5 151.58 24.684C151.252 24.86 150.996 25.12 150.812 25.464C150.636 25.8 150.548 26.208 150.548 26.688V30H149.696V23.7H150.512V25.428L150.38 25.104C150.58 24.648 150.9 24.292 151.34 24.036C151.78 23.772 152.304 23.64 152.912 23.64ZM157.289 31.752L157.817 29.532L157.913 30.048C157.729 30.048 157.573 29.988 157.445 29.868C157.325 29.748 157.265 29.592 157.265 29.4C157.265 29.208 157.325 29.052 157.445 28.932C157.573 28.812 157.725 28.752 157.901 28.752C158.085 28.752 158.233 28.816 158.345 28.944C158.465 29.072 158.525 29.224 158.525 29.4C158.525 29.464 158.521 29.528 158.513 29.592C158.505 29.656 158.489 29.728 158.465 29.808C158.441 29.888 158.409 29.984 158.369 30.096L157.865 31.752H157.289ZM166.165 30.06C165.509 30.06 164.933 29.924 164.437 29.652C163.941 29.372 163.553 28.992 163.273 28.512C162.993 28.024 162.853 27.468 162.853 26.844C162.853 26.22 162.985 25.668 163.249 25.188C163.521 24.708 163.889 24.332 164.353 24.06C164.825 23.78 165.353 23.64 165.937 23.64C166.529 23.64 167.053 23.776 167.509 24.048C167.973 24.312 168.337 24.688 168.601 25.176C168.865 25.656 168.997 26.212 168.997 26.844C168.997 26.884 168.993 26.928 168.985 26.976C168.985 27.016 168.985 27.06 168.985 27.108H163.501V26.472H168.529L168.193 26.724C168.193 26.268 168.093 25.864 167.893 25.512C167.701 25.152 167.437 24.872 167.101 24.672C166.765 24.472 166.377 24.372 165.937 24.372C165.505 24.372 165.117 24.472 164.773 24.672C164.429 24.872 164.161 25.152 163.969 25.512C163.777 25.872 163.681 26.284 163.681 26.748V26.88C163.681 27.36 163.785 27.784 163.993 28.152C164.209 28.512 164.505 28.796 164.881 29.004C165.265 29.204 165.701 29.304 166.189 29.304C166.573 29.304 166.929 29.236 167.257 29.1C167.593 28.964 167.881 28.756 168.121 28.476L168.601 29.028C168.321 29.364 167.969 29.62 167.545 29.796C167.129 29.972 166.669 30.06 166.165 30.06ZM173.239 30.06C172.639 30.06 172.099 29.924 171.619 29.652C171.147 29.38 170.775 29.004 170.503 28.524C170.231 28.036 170.095 27.476 170.095 26.844C170.095 26.204 170.231 25.644 170.503 25.164C170.775 24.684 171.147 24.312 171.619 24.048C172.099 23.776 172.639 23.64 173.239 23.64C173.791 23.64 174.283 23.764 174.715 24.012C175.155 24.26 175.503 24.624 175.759 25.104C176.023 25.576 176.155 26.156 176.155 26.844C176.155 27.524 176.027 28.104 175.771 28.584C175.515 29.064 175.167 29.432 174.727 29.688C174.295 29.936 173.799 30.06 173.239 30.06ZM173.299 29.304C173.747 29.304 174.147 29.204 174.499 29.004C174.859 28.796 175.139 28.508 175.339 28.14C175.547 27.764 175.651 27.332 175.651 26.844C175.651 26.348 175.547 25.916 175.339 25.548C175.139 25.18 174.859 24.896 174.499 24.696C174.147 24.488 173.747 24.384 173.299 24.384C172.859 24.384 172.463 24.488 172.111 24.696C171.759 24.896 171.479 25.18 171.271 25.548C171.063 25.916 170.959 26.348 170.959 26.844C170.959 27.332 171.063 27.764 171.271 28.14C171.479 28.508 171.759 28.796 172.111 29.004C172.463 29.204 172.859 29.304 173.299 29.304ZM175.675 30V28.104L175.759 26.832L175.639 25.56V21.096H176.491V30H175.675ZM182.812 30V28.608L182.776 28.38V26.052C182.776 25.516 182.624 25.104 182.32 24.816C182.024 24.528 181.58 24.384 180.988 24.384C180.58 24.384 180.192 24.452 179.824 24.588C179.456 24.724 179.144 24.904 178.888 25.128L178.504 24.492C178.824 24.22 179.208 24.012 179.656 23.868C180.104 23.716 180.576 23.64 181.072 23.64C181.888 23.64 182.516 23.844 182.956 24.252C183.404 24.652 183.628 25.264 183.628 26.088V30H182.812ZM180.64 30.06C180.168 30.06 179.756 29.984 179.404 29.832C179.06 29.672 178.796 29.456 178.612 29.184C178.428 28.904 178.336 28.584 178.336 28.224C178.336 27.896 178.412 27.6 178.564 27.336C178.724 27.064 178.98 26.848 179.332 26.688C179.692 26.52 180.172 26.436 180.772 26.436H182.944V27.072H180.796C180.188 27.072 179.764 27.18 179.524 27.396C179.292 27.612 179.176 27.88 179.176 28.2C179.176 28.56 179.316 28.848 179.596 29.064C179.876 29.28 180.268 29.388 180.772 29.388C181.252 29.388 181.664 29.28 182.008 29.064C182.36 28.84 182.616 28.52 182.776 28.104L182.968 28.692C182.808 29.108 182.528 29.44 182.128 29.688C181.736 29.936 181.24 30.06 180.64 30.06ZM185.873 32.388C185.577 32.388 185.293 32.34 185.021 32.244C184.757 32.148 184.529 32.004 184.337 31.812L184.733 31.176C184.893 31.328 185.065 31.444 185.249 31.524C185.441 31.612 185.653 31.656 185.885 31.656C186.165 31.656 186.405 31.576 186.605 31.416C186.813 31.264 187.009 30.992 187.193 30.6L187.601 29.676L187.697 29.544L190.289 23.7H191.129L187.973 30.756C187.797 31.164 187.601 31.488 187.385 31.728C187.177 31.968 186.949 32.136 186.701 32.232C186.453 32.336 186.177 32.388 185.873 32.388ZM187.553 30.18L184.649 23.7H185.537L188.105 29.484L187.553 30.18ZM196.089 30V28.608L196.053 28.38V26.052C196.053 25.516 195.901 25.104 195.597 24.816C195.301 24.528 194.857 24.384 194.265 24.384C193.857 24.384 193.469 24.452 193.101 24.588C192.733 24.724 192.421 24.904 192.165 25.128L191.781 24.492C192.101 24.22 192.485 24.012 192.933 23.868C193.381 23.716 193.853 23.64 194.349 23.64C195.165 23.64 195.793 23.844 196.233 24.252C196.681 24.652 196.905 25.264 196.905 26.088V30H196.089ZM193.917 30.06C193.445 30.06 193.033 29.984 192.681 29.832C192.337 29.672 192.073 29.456 191.889 29.184C191.705 28.904 191.613 28.584 191.613 28.224C191.613 27.896 191.689 27.6 191.841 27.336C192.001 27.064 192.257 26.848 192.609 26.688C192.969 26.52 193.449 26.436 194.049 26.436H196.221V27.072H194.073C193.465 27.072 193.041 27.18 192.801 27.396C192.569 27.612 192.453 27.88 192.453 28.2C192.453 28.56 192.593 28.848 192.873 29.064C193.153 29.28 193.545 29.388 194.049 29.388C194.529 29.388 194.941 29.28 195.285 29.064C195.637 28.84 195.893 28.52 196.053 28.104L196.245 28.692C196.085 29.108 195.805 29.44 195.405 29.688C195.013 29.936 194.517 30.06 193.917 30.06ZM199.219 30V23.7H200.035V25.416L199.951 25.116C200.127 24.636 200.423 24.272 200.839 24.024C201.255 23.768 201.771 23.64 202.387 23.64V24.468C202.355 24.468 202.323 24.468 202.291 24.468C202.259 24.46 202.227 24.456 202.195 24.456C201.531 24.456 201.011 24.66 200.635 25.068C200.259 25.468 200.071 26.04 200.071 26.784V30H199.219ZM207.194 30.06C206.65 30.06 206.158 29.936 205.718 29.688C205.278 29.432 204.926 29.068 204.662 28.596C204.406 28.116 204.278 27.532 204.278 26.844C204.278 26.156 204.406 25.576 204.662 25.104C204.918 24.624 205.266 24.26 205.706 24.012C206.146 23.764 206.642 23.64 207.194 23.64C207.794 23.64 208.33 23.776 208.802 24.048C209.282 24.312 209.658 24.688 209.93 25.176C210.202 25.656 210.338 26.212 210.338 26.844C210.338 27.484 210.202 28.044 209.93 28.524C209.658 29.004 209.282 29.38 208.802 29.652C208.33 29.924 207.794 30.06 207.194 30.06ZM203.942 32.328V23.7H204.758V25.596L204.674 26.856L204.794 28.128V32.328H203.942ZM207.134 29.304C207.582 29.304 207.982 29.204 208.334 29.004C208.686 28.796 208.966 28.508 209.174 28.14C209.382 27.764 209.486 27.332 209.486 26.844C209.486 26.356 209.382 25.928 209.174 25.56C208.966 25.192 208.686 24.904 208.334 24.696C207.982 24.488 207.582 24.384 207.134 24.384C206.686 24.384 206.282 24.488 205.922 24.696C205.57 24.904 205.29 25.192 205.082 25.56C204.882 25.928 204.782 26.356 204.782 26.844C204.782 27.332 204.882 27.764 205.082 28.14C205.29 28.508 205.57 28.796 205.922 29.004C206.282 29.204 206.686 29.304 207.134 29.304ZM215.988 30V28.608L215.952 28.38V26.052C215.952 25.516 215.8 25.104 215.496 24.816C215.2 24.528 214.756 24.384 214.164 24.384C213.756 24.384 213.368 24.452 213 24.588C212.632 24.724 212.32 24.904 212.064 25.128L211.68 24.492C212 24.22 212.384 24.012 212.832 23.868C213.28 23.716 213.752 23.64 214.248 23.64C215.064 23.64 215.692 23.844 216.132 24.252C216.58 24.652 216.804 25.264 216.804 26.088V30H215.988ZM213.816 30.06C213.344 30.06 212.932 29.984 212.58 29.832C212.236 29.672 211.972 29.456 211.788 29.184C211.604 28.904 211.512 28.584 211.512 28.224C211.512 27.896 211.588 27.6 211.74 27.336C211.9 27.064 212.156 26.848 212.508 26.688C212.868 26.52 213.348 26.436 213.948 26.436H216.12V27.072H213.972C213.364 27.072 212.94 27.18 212.7 27.396C212.468 27.612 212.352 27.88 212.352 28.2C212.352 28.56 212.492 28.848 212.772 29.064C213.052 29.28 213.444 29.388 213.948 29.388C214.428 29.388 214.84 29.28 215.184 29.064C215.536 28.84 215.792 28.52 215.952 28.104L216.144 28.692C215.984 29.108 215.704 29.44 215.304 29.688C214.912 29.936 214.416 30.06 213.816 30.06ZM219.118 30V21.096H219.97V30H219.118ZM226.288 30V28.608L226.252 28.38V26.052C226.252 25.516 226.1 25.104 225.796 24.816C225.5 24.528 225.056 24.384 224.464 24.384C224.056 24.384 223.668 24.452 223.3 24.588C222.932 24.724 222.62 24.904 222.364 25.128L221.98 24.492C222.3 24.22 222.684 24.012 223.132 23.868C223.58 23.716 224.052 23.64 224.548 23.64C225.364 23.64 225.992 23.844 226.432 24.252C226.88 24.652 227.104 25.264 227.104 26.088V30H226.288ZM224.116 30.06C223.644 30.06 223.232 29.984 222.88 29.832C222.536 29.672 222.272 29.456 222.088 29.184C221.904 28.904 221.812 28.584 221.812 28.224C221.812 27.896 221.888 27.6 222.04 27.336C222.2 27.064 222.456 26.848 222.808 26.688C223.168 26.52 223.648 26.436 224.248 26.436H226.42V27.072H224.272C223.664 27.072 223.24 27.18 223 27.396C222.768 27.612 222.652 27.88 222.652 28.2C222.652 28.56 222.792 28.848 223.072 29.064C223.352 29.28 223.744 29.388 224.248 29.388C224.728 29.388 225.14 29.28 225.484 29.064C225.836 28.84 226.092 28.52 226.252 28.104L226.444 28.692C226.284 29.108 226.004 29.44 225.604 29.688C225.212 29.936 224.716 30.06 224.116 30.06ZM229.349 32.388C229.053 32.388 228.769 32.34 228.497 32.244C228.233 32.148 228.005 32.004 227.813 31.812L228.209 31.176C228.369 31.328 228.541 31.444 228.725 31.524C228.917 31.612 229.129 31.656 229.361 31.656C229.641 31.656 229.881 31.576 230.081 31.416C230.289 31.264 230.485 30.992 230.669 30.6L231.077 29.676L231.173 29.544L233.765 23.7H234.605L231.449 30.756C231.273 31.164 231.077 31.488 230.861 31.728C230.653 31.968 230.425 32.136 230.177 32.232C229.929 32.336 229.653 32.388 229.349 32.388ZM231.029 30.18L228.125 23.7H229.013L231.581 29.484L231.029 30.18ZM239.566 30V28.608L239.53 28.38V26.052C239.53 25.516 239.378 25.104 239.074 24.816C238.778 24.528 238.334 24.384 237.742 24.384C237.334 24.384 236.946 24.452 236.578 24.588C236.21 24.724 235.898 24.904 235.642 25.128L235.258 24.492C235.578 24.22 235.962 24.012 236.41 23.868C236.858 23.716 237.33 23.64 237.826 23.64C238.642 23.64 239.27 23.844 239.71 24.252C240.158 24.652 240.382 25.264 240.382 26.088V30H239.566ZM237.394 30.06C236.922 30.06 236.51 29.984 236.158 29.832C235.814 29.672 235.55 29.456 235.366 29.184C235.182 28.904 235.09 28.584 235.09 28.224C235.09 27.896 235.166 27.6 235.318 27.336C235.478 27.064 235.734 26.848 236.086 26.688C236.446 26.52 236.926 26.436 237.526 26.436H239.698V27.072H237.55C236.942 27.072 236.518 27.18 236.278 27.396C236.046 27.612 235.93 27.88 235.93 28.2C235.93 28.56 236.07 28.848 236.35 29.064C236.63 29.28 237.022 29.388 237.526 29.388C238.006 29.388 238.418 29.28 238.762 29.064C239.114 28.84 239.37 28.52 239.53 28.104L239.722 28.692C239.562 29.108 239.282 29.44 238.882 29.688C238.49 29.936 237.994 30.06 237.394 30.06ZM250.568 23.64C251.08 23.64 251.524 23.74 251.9 23.94C252.284 24.132 252.58 24.428 252.788 24.828C253.004 25.228 253.112 25.732 253.112 26.34V30H252.26V26.424C252.26 25.76 252.1 25.26 251.78 24.924C251.468 24.58 251.024 24.408 250.448 24.408C250.016 24.408 249.64 24.5 249.32 24.684C249.008 24.86 248.764 25.12 248.588 25.464C248.42 25.8 248.336 26.208 248.336 26.688V30H247.484V26.424C247.484 25.76 247.324 25.26 247.004 24.924C246.684 24.58 246.236 24.408 245.66 24.408C245.236 24.408 244.864 24.5 244.544 24.684C244.224 24.86 243.976 25.12 243.8 25.464C243.632 25.8 243.548 26.208 243.548 26.688V30H242.696V23.7H243.512V25.404L243.38 25.104C243.572 24.648 243.88 24.292 244.304 24.036C244.736 23.772 245.244 23.64 245.828 23.64C246.444 23.64 246.968 23.796 247.4 24.108C247.832 24.412 248.112 24.872 248.24 25.488L247.904 25.356C248.088 24.844 248.412 24.432 248.876 24.12C249.348 23.8 249.912 23.64 250.568 23.64ZM36.44 45.06C35.896 45.06 35.404 44.936 34.964 44.688C34.524 44.432 34.172 44.068 33.908 43.596C33.652 43.116 33.524 42.532 33.524 41.844C33.524 41.156 33.652 40.576 33.908 40.104C34.164 39.624 34.512 39.26 34.952 39.012C35.392 38.764 35.888 38.64 36.44 38.64C37.04 38.64 37.576 38.776 38.048 39.048C38.528 39.312 38.904 39.688 39.176 40.176C39.448 40.656 39.584 41.212 39.584 41.844C39.584 42.484 39.448 43.044 39.176 43.524C38.904 44.004 38.528 44.38 38.048 44.652C37.576 44.924 37.04 45.06 36.44 45.06ZM33.188 47.328V38.7H34.004V40.596L33.92 41.856L34.04 43.128V47.328H33.188ZM36.38 44.304C36.828 44.304 37.228 44.204 37.58 44.004C37.932 43.796 38.212 43.508 38.42 43.14C38.628 42.764 38.732 42.332 38.732 41.844C38.732 41.356 38.628 40.928 38.42 40.56C38.212 40.192 37.932 39.904 37.58 39.696C37.228 39.488 36.828 39.384 36.38 39.384C35.932 39.384 35.528 39.488 35.168 39.696C34.816 39.904 34.536 40.192 34.328 40.56C34.128 40.928 34.028 41.356 34.028 41.844C34.028 42.332 34.128 42.764 34.328 43.14C34.536 43.508 34.816 43.796 35.168 44.004C35.528 44.204 35.932 44.304 36.38 44.304ZM41.3208 45V38.7H42.1728V45H41.3208ZM41.7528 37.308C41.5768 37.308 41.4288 37.248 41.3088 37.128C41.1888 37.008 41.1288 36.864 41.1288 36.696C41.1288 36.528 41.1888 36.388 41.3088 36.276C41.4288 36.156 41.5768 36.096 41.7528 36.096C41.9288 36.096 42.0768 36.152 42.1968 36.264C42.3168 36.376 42.3768 36.516 42.3768 36.684C42.3768 36.86 42.3168 37.008 42.1968 37.128C42.0848 37.248 41.9368 37.308 41.7528 37.308ZM44.5435 45V38.7H45.3595V40.416L45.2755 40.116C45.4515 39.636 45.7475 39.272 46.1635 39.024C46.5795 38.768 47.0955 38.64 47.7115 38.64V39.468C47.6795 39.468 47.6475 39.468 47.6155 39.468C47.5835 39.46 47.5515 39.456 47.5195 39.456C46.8555 39.456 46.3355 39.66 45.9595 40.068C45.5835 40.468 45.3955 41.04 45.3955 41.784V45H44.5435ZM49.2661 45V38.7H50.1181V45H49.2661ZM49.6981 37.308C49.5221 37.308 49.3741 37.248 49.2541 37.128C49.1341 37.008 49.0741 36.864 49.0741 36.696C49.0741 36.528 49.1341 36.388 49.2541 36.276C49.3741 36.156 49.5221 36.096 49.6981 36.096C49.8741 36.096 50.0221 36.152 50.1421 36.264C50.2621 36.376 50.3221 36.516 50.3221 36.684C50.3221 36.86 50.2621 37.008 50.1421 37.128C50.0301 37.248 49.8821 37.308 49.6981 37.308ZM54.1088 45L51.3128 38.7H52.2008L54.7688 44.544H54.3488L56.9528 38.7H57.7928L54.9848 45H54.1088ZM61.5967 45.06C61.0607 45.06 60.5927 44.96 60.1927 44.76C59.7927 44.56 59.4807 44.26 59.2567 43.86C59.0407 43.46 58.9327 42.96 58.9327 42.36V38.7H59.7847V42.264C59.7847 42.936 59.9487 43.444 60.2767 43.788C60.6127 44.124 61.0807 44.292 61.6807 44.292C62.1207 44.292 62.5007 44.204 62.8207 44.028C63.1487 43.844 63.3967 43.58 63.5647 43.236C63.7407 42.892 63.8287 42.48 63.8287 42V38.7H64.6807V45H63.8647V43.272L63.9967 43.584C63.7967 44.048 63.4847 44.412 63.0607 44.676C62.6447 44.932 62.1567 45.06 61.5967 45.06ZM66.5392 46.752L67.0672 44.532L67.1632 45.048C66.9792 45.048 66.8232 44.988 66.6952 44.868C66.5752 44.748 66.5152 44.592 66.5152 44.4C66.5152 44.208 66.5752 44.052 66.6952 43.932C66.8232 43.812 66.9752 43.752 67.1512 43.752C67.3352 43.752 67.4832 43.816 67.5952 43.944C67.7152 44.072 67.7752 44.224 67.7752 44.4C67.7752 44.464 67.7712 44.528 67.7632 44.592C67.7552 44.656 67.7392 44.728 67.7152 44.808C67.6912 44.888 67.6592 44.984 67.6192 45.096L67.1152 46.752H66.5392ZM73.4108 43.368L73.4348 42.276L77.3588 38.7H78.4028L75.6308 41.352L75.1508 41.76L73.4108 43.368ZM72.7388 45V36.096H73.5908V45H72.7388ZM77.6228 45L74.9948 41.724L75.5468 41.064L78.6668 45H77.6228ZM82.4326 45.06C81.8966 45.06 81.4286 44.96 81.0286 44.76C80.6286 44.56 80.3166 44.26 80.0926 43.86C79.8766 43.46 79.7686 42.96 79.7686 42.36V38.7H80.6206V42.264C80.6206 42.936 80.7846 43.444 81.1126 43.788C81.4486 44.124 81.9166 44.292 82.5166 44.292C82.9566 44.292 83.3366 44.204 83.6566 44.028C83.9846 43.844 84.2326 43.58 84.4006 43.236C84.5766 42.892 84.6646 42.48 84.6646 42V38.7H85.5166V45H84.7006V43.272L84.8326 43.584C84.6326 44.048 84.3206 44.412 83.8966 44.676C83.4806 44.932 82.9926 45.06 82.4326 45.06ZM91.1071 38.64C91.6191 38.64 92.0671 38.74 92.4511 38.94C92.8431 39.132 93.1471 39.428 93.3631 39.828C93.5871 40.228 93.6991 40.732 93.6991 41.34V45H92.8471V41.424C92.8471 40.76 92.6791 40.26 92.3431 39.924C92.0151 39.58 91.5511 39.408 90.9511 39.408C90.5031 39.408 90.1111 39.5 89.7751 39.684C89.4471 39.86 89.1911 40.12 89.0071 40.464C88.8311 40.8 88.7431 41.208 88.7431 41.688V45H87.8911V38.7H88.7071V40.428L88.5751 40.104C88.7751 39.648 89.0951 39.292 89.5351 39.036C89.9751 38.772 90.4991 38.64 91.1071 38.64ZM96.0005 45V38.7H96.8525V45H96.0005ZM96.4325 37.308C96.2565 37.308 96.1085 37.248 95.9885 37.128C95.8685 37.008 95.8085 36.864 95.8085 36.696C95.8085 36.528 95.8685 36.388 95.9885 36.276C96.1085 36.156 96.2565 36.096 96.4325 36.096C96.6085 36.096 96.7565 36.152 96.8765 36.264C96.9965 36.376 97.0565 36.516 97.0565 36.684C97.0565 36.86 96.9965 37.008 96.8765 37.128C96.7645 37.248 96.6165 37.308 96.4325 37.308ZM99.2712 47.388C98.9752 47.388 98.6912 47.34 98.4192 47.244C98.1552 47.148 97.9272 47.004 97.7352 46.812L98.1312 46.176C98.2912 46.328 98.4632 46.444 98.6472 46.524C98.8392 46.612 99.0512 46.656 99.2832 46.656C99.5632 46.656 99.8032 46.576 100.003 46.416C100.211 46.264 100.407 45.992 100.591 45.6L100.999 44.676L101.095 44.544L103.687 38.7H104.527L101.371 45.756C101.195 46.164 100.999 46.488 100.783 46.728C100.575 46.968 100.347 47.136 100.099 47.232C99.8512 47.336 99.5752 47.388 99.2712 47.388ZM100.951 45.18L98.0472 38.7H98.9352L101.503 44.484L100.951 45.18ZM109.488 45V43.608L109.452 43.38V41.052C109.452 40.516 109.3 40.104 108.996 39.816C108.7 39.528 108.256 39.384 107.664 39.384C107.256 39.384 106.868 39.452 106.5 39.588C106.132 39.724 105.82 39.904 105.564 40.128L105.18 39.492C105.5 39.22 105.884 39.012 106.332 38.868C106.78 38.716 107.252 38.64 107.748 38.64C108.564 38.64 109.192 38.844 109.632 39.252C110.08 39.652 110.304 40.264 110.304 41.088V45H109.488ZM107.316 45.06C106.844 45.06 106.432 44.984 106.08 44.832C105.736 44.672 105.472 44.456 105.288 44.184C105.104 43.904 105.012 43.584 105.012 43.224C105.012 42.896 105.088 42.6 105.24 42.336C105.4 42.064 105.656 41.848 106.008 41.688C106.368 41.52 106.848 41.436 107.448 41.436H109.62V42.072H107.472C106.864 42.072 106.44 42.18 106.2 42.396C105.968 42.612 105.852 42.88 105.852 43.2C105.852 43.56 105.992 43.848 106.272 44.064C106.552 44.28 106.944 44.388 107.448 44.388C107.928 44.388 108.34 44.28 108.684 44.064C109.036 43.84 109.292 43.52 109.452 43.104L109.644 43.692C109.484 44.108 109.204 44.44 108.804 44.688C108.412 44.936 107.916 45.06 107.316 45.06ZM120.49 38.64C121.002 38.64 121.446 38.74 121.822 38.94C122.206 39.132 122.502 39.428 122.71 39.828C122.926 40.228 123.034 40.732 123.034 41.34V45H122.182V41.424C122.182 40.76 122.022 40.26 121.702 39.924C121.39 39.58 120.946 39.408 120.37 39.408C119.938 39.408 119.562 39.5 119.242 39.684C118.93 39.86 118.686 40.12 118.51 40.464C118.342 40.8 118.258 41.208 118.258 41.688V45H117.406V41.424C117.406 40.76 117.246 40.26 116.926 39.924C116.606 39.58 116.158 39.408 115.582 39.408C115.158 39.408 114.786 39.5 114.466 39.684C114.146 39.86 113.898 40.12 113.722 40.464C113.554 40.8 113.47 41.208 113.47 41.688V45H112.618V38.7H113.434V40.404L113.302 40.104C113.494 39.648 113.802 39.292 114.226 39.036C114.658 38.772 115.166 38.64 115.75 38.64C116.366 38.64 116.89 38.796 117.322 39.108C117.754 39.412 118.034 39.872 118.162 40.488L117.826 40.356C118.01 39.844 118.334 39.432 118.798 39.12C119.27 38.8 119.834 38.64 120.49 38.64ZM127.948 45.06C127.412 45.06 126.944 44.96 126.544 44.76C126.144 44.56 125.832 44.26 125.608 43.86C125.392 43.46 125.284 42.96 125.284 42.36V38.7H126.136V42.264C126.136 42.936 126.3 43.444 126.628 43.788C126.964 44.124 127.432 44.292 128.032 44.292C128.472 44.292 128.852 44.204 129.172 44.028C129.5 43.844 129.748 43.58 129.916 43.236C130.092 42.892 130.18 42.48 130.18 42V38.7H131.032V45H130.216V43.272L130.348 43.584C130.148 44.048 129.836 44.412 129.412 44.676C128.996 44.932 128.508 45.06 127.948 45.06ZM135.399 45.06C134.807 45.06 134.351 44.9 134.031 44.58C133.711 44.26 133.551 43.808 133.551 43.224V37.308H134.403V43.176C134.403 43.544 134.495 43.828 134.679 44.028C134.871 44.228 135.143 44.328 135.495 44.328C135.871 44.328 136.183 44.22 136.431 44.004L136.731 44.616C136.563 44.768 136.359 44.88 136.119 44.952C135.887 45.024 135.647 45.06 135.399 45.06ZM132.423 39.408V38.7H136.323V39.408H132.423ZM141.498 38.64C142.01 38.64 142.458 38.74 142.842 38.94C143.234 39.132 143.538 39.428 143.754 39.828C143.978 40.228 144.09 40.732 144.09 41.34V45H143.238V41.424C143.238 40.76 143.07 40.26 142.734 39.924C142.406 39.58 141.942 39.408 141.342 39.408C140.894 39.408 140.502 39.5 140.166 39.684C139.838 39.86 139.582 40.12 139.398 40.464C139.222 40.8 139.134 41.208 139.134 41.688V45H138.282V36.096H139.134V40.428L138.966 40.104C139.166 39.648 139.486 39.292 139.926 39.036C140.366 38.772 140.89 38.64 141.498 38.64ZM148.995 45.06C148.459 45.06 147.991 44.96 147.591 44.76C147.191 44.56 146.879 44.26 146.655 43.86C146.439 43.46 146.331 42.96 146.331 42.36V38.7H147.183V42.264C147.183 42.936 147.347 43.444 147.675 43.788C148.011 44.124 148.479 44.292 149.079 44.292C149.519 44.292 149.899 44.204 150.219 44.028C150.547 43.844 150.795 43.58 150.963 43.236C151.139 42.892 151.227 42.48 151.227 42V38.7H152.079V45H151.263V43.272L151.395 43.584C151.195 44.048 150.883 44.412 150.459 44.676C150.043 44.932 149.555 45.06 148.995 45.06ZM154.454 45V38.7H155.27V40.416L155.186 40.116C155.362 39.636 155.658 39.272 156.074 39.024C156.49 38.768 157.006 38.64 157.622 38.64V39.468C157.59 39.468 157.558 39.468 157.526 39.468C157.494 39.46 157.462 39.456 157.43 39.456C156.766 39.456 156.246 39.66 155.87 40.068C155.494 40.468 155.306 41.04 155.306 41.784V45H154.454ZM158.637 46.752L159.165 44.532L159.261 45.048C159.077 45.048 158.921 44.988 158.793 44.868C158.673 44.748 158.613 44.592 158.613 44.4C158.613 44.208 158.673 44.052 158.793 43.932C158.921 43.812 159.073 43.752 159.249 43.752C159.433 43.752 159.581 43.816 159.693 43.944C159.813 44.072 159.873 44.224 159.873 44.4C159.873 44.464 159.869 44.528 159.861 44.592C159.853 44.656 159.837 44.728 159.813 44.808C159.789 44.888 159.757 44.984 159.717 45.096L159.213 46.752H158.637ZM164.136 45.06C163.512 45.06 162.952 44.924 162.456 44.652C161.968 44.372 161.584 43.992 161.304 43.512C161.024 43.024 160.884 42.468 160.884 41.844C160.884 41.212 161.024 40.656 161.304 40.176C161.584 39.696 161.968 39.32 162.456 39.048C162.952 38.776 163.512 38.64 164.136 38.64C164.672 38.64 165.156 38.744 165.588 38.952C166.02 39.16 166.36 39.472 166.608 39.888L165.972 40.32C165.756 40 165.488 39.764 165.168 39.612C164.848 39.46 164.5 39.384 164.124 39.384C163.676 39.384 163.272 39.488 162.912 39.696C162.552 39.896 162.268 40.18 162.06 40.548C161.852 40.916 161.748 41.348 161.748 41.844C161.748 42.34 161.852 42.772 162.06 43.14C162.268 43.508 162.552 43.796 162.912 44.004C163.272 44.204 163.676 44.304 164.124 44.304C164.5 44.304 164.848 44.228 165.168 44.076C165.488 43.924 165.756 43.692 165.972 43.38L166.608 43.812C166.36 44.22 166.02 44.532 165.588 44.748C165.156 44.956 164.672 45.06 164.136 45.06ZM170.744 45.06C170.136 45.06 169.588 44.924 169.1 44.652C168.62 44.372 168.24 43.992 167.96 43.512C167.68 43.024 167.54 42.468 167.54 41.844C167.54 41.212 167.68 40.656 167.96 40.176C168.24 39.696 168.62 39.32 169.1 39.048C169.58 38.776 170.128 38.64 170.744 38.64C171.368 38.64 171.92 38.776 172.4 39.048C172.888 39.32 173.268 39.696 173.54 40.176C173.82 40.656 173.96 41.212 173.96 41.844C173.96 42.468 173.82 43.024 173.54 43.512C173.268 43.992 172.888 44.372 172.4 44.652C171.912 44.924 171.36 45.06 170.744 45.06ZM170.744 44.304C171.2 44.304 171.604 44.204 171.956 44.004C172.308 43.796 172.584 43.508 172.784 43.14C172.992 42.764 173.096 42.332 173.096 41.844C173.096 41.348 172.992 40.916 172.784 40.548C172.584 40.18 172.308 39.896 171.956 39.696C171.604 39.488 171.204 39.384 170.756 39.384C170.308 39.384 169.908 39.488 169.556 39.696C169.204 39.896 168.924 40.18 168.716 40.548C168.508 40.916 168.404 41.348 168.404 41.844C168.404 42.332 168.508 42.764 168.716 43.14C168.924 43.508 169.204 43.796 169.556 44.004C169.908 44.204 170.304 44.304 170.744 44.304ZM175.7 45V38.7H176.552V45H175.7ZM176.132 37.308C175.956 37.308 175.808 37.248 175.688 37.128C175.568 37.008 175.508 36.864 175.508 36.696C175.508 36.528 175.568 36.388 175.688 36.276C175.808 36.156 175.956 36.096 176.132 36.096C176.308 36.096 176.456 36.152 176.576 36.264C176.696 36.376 176.756 36.516 176.756 36.684C176.756 36.86 176.696 37.008 176.576 37.128C176.464 37.248 176.316 37.308 176.132 37.308ZM186.794 38.64C187.306 38.64 187.75 38.74 188.126 38.94C188.51 39.132 188.806 39.428 189.014 39.828C189.23 40.228 189.338 40.732 189.338 41.34V45H188.486V41.424C188.486 40.76 188.326 40.26 188.006 39.924C187.694 39.58 187.25 39.408 186.674 39.408C186.242 39.408 185.866 39.5 185.546 39.684C185.234 39.86 184.99 40.12 184.814 40.464C184.646 40.8 184.562 41.208 184.562 41.688V45H183.71V41.424C183.71 40.76 183.55 40.26 183.23 39.924C182.91 39.58 182.462 39.408 181.886 39.408C181.462 39.408 181.09 39.5 180.77 39.684C180.45 39.86 180.202 40.12 180.026 40.464C179.858 40.8 179.774 41.208 179.774 41.688V45H178.922V38.7H179.738V40.404L179.606 40.104C179.798 39.648 180.106 39.292 180.53 39.036C180.962 38.772 181.47 38.64 182.054 38.64C182.67 38.64 183.194 38.796 183.626 39.108C184.058 39.412 184.338 39.872 184.466 40.488L184.13 40.356C184.314 39.844 184.638 39.432 185.102 39.12C185.574 38.8 186.138 38.64 186.794 38.64ZM194.901 45.06C194.349 45.06 193.853 44.936 193.413 44.688C192.973 44.432 192.625 44.064 192.369 43.584C192.113 43.104 191.985 42.524 191.985 41.844C191.985 41.156 192.113 40.576 192.369 40.104C192.633 39.624 192.985 39.26 193.425 39.012C193.865 38.764 194.357 38.64 194.901 38.64C195.501 38.64 196.037 38.776 196.509 39.048C196.989 39.312 197.365 39.684 197.637 40.164C197.909 40.644 198.045 41.204 198.045 41.844C198.045 42.476 197.909 43.036 197.637 43.524C197.365 44.004 196.989 44.38 196.509 44.652C196.037 44.924 195.501 45.06 194.901 45.06ZM191.649 45V36.096H192.501V40.56L192.381 41.832L192.465 43.104V45H191.649ZM194.841 44.304C195.289 44.304 195.689 44.204 196.041 44.004C196.393 43.796 196.673 43.508 196.881 43.14C197.089 42.764 197.193 42.332 197.193 41.844C197.193 41.348 197.089 40.916 196.881 40.548C196.673 40.18 196.393 39.896 196.041 39.696C195.689 39.488 195.289 39.384 194.841 39.384C194.393 39.384 193.989 39.488 193.629 39.696C193.277 39.896 192.997 40.18 192.789 40.548C192.589 40.916 192.489 41.348 192.489 41.844C192.489 42.332 192.589 42.764 192.789 43.14C192.997 43.508 193.277 43.796 193.629 44.004C193.989 44.204 194.393 44.304 194.841 44.304ZM203.695 45V43.608L203.659 43.38V41.052C203.659 40.516 203.507 40.104 203.203 39.816C202.907 39.528 202.463 39.384 201.871 39.384C201.463 39.384 201.075 39.452 200.707 39.588C200.339 39.724 200.027 39.904 199.771 40.128L199.387 39.492C199.707 39.22 200.091 39.012 200.539 38.868C200.987 38.716 201.459 38.64 201.955 38.64C202.771 38.64 203.399 38.844 203.839 39.252C204.287 39.652 204.511 40.264 204.511 41.088V45H203.695ZM201.523 45.06C201.051 45.06 200.639 44.984 200.287 44.832C199.943 44.672 199.679 44.456 199.495 44.184C199.311 43.904 199.219 43.584 199.219 43.224C199.219 42.896 199.295 42.6 199.447 42.336C199.607 42.064 199.863 41.848 200.215 41.688C200.575 41.52 201.055 41.436 201.655 41.436H203.827V42.072H201.679C201.071 42.072 200.647 42.18 200.407 42.396C200.175 42.612 200.059 42.88 200.059 43.2C200.059 43.56 200.199 43.848 200.479 44.064C200.759 44.28 201.151 44.388 201.655 44.388C202.135 44.388 202.547 44.28 202.891 44.064C203.243 43.84 203.499 43.52 203.659 43.104L203.851 43.692C203.691 44.108 203.411 44.44 203.011 44.688C202.619 44.936 202.123 45.06 201.523 45.06ZM208.817 45.06C208.225 45.06 207.769 44.9 207.449 44.58C207.129 44.26 206.969 43.808 206.969 43.224V37.308H207.821V43.176C207.821 43.544 207.913 43.828 208.097 44.028C208.289 44.228 208.561 44.328 208.913 44.328C209.289 44.328 209.601 44.22 209.849 44.004L210.149 44.616C209.981 44.768 209.777 44.88 209.537 44.952C209.305 45.024 209.065 45.06 208.817 45.06ZM205.841 39.408V38.7H209.741V39.408H205.841ZM214.045 45.06C213.437 45.06 212.889 44.924 212.401 44.652C211.921 44.372 211.541 43.992 211.261 43.512C210.981 43.024 210.841 42.468 210.841 41.844C210.841 41.212 210.981 40.656 211.261 40.176C211.541 39.696 211.921 39.32 212.401 39.048C212.881 38.776 213.429 38.64 214.045 38.64C214.669 38.64 215.221 38.776 215.701 39.048C216.189 39.32 216.569 39.696 216.841 40.176C217.121 40.656 217.261 41.212 217.261 41.844C217.261 42.468 217.121 43.024 216.841 43.512C216.569 43.992 216.189 44.372 215.701 44.652C215.213 44.924 214.661 45.06 214.045 45.06ZM214.045 44.304C214.501 44.304 214.905 44.204 215.257 44.004C215.609 43.796 215.885 43.508 216.085 43.14C216.293 42.764 216.397 42.332 216.397 41.844C216.397 41.348 216.293 40.916 216.085 40.548C215.885 40.18 215.609 39.896 215.257 39.696C214.905 39.488 214.505 39.384 214.057 39.384C213.609 39.384 213.209 39.488 212.857 39.696C212.505 39.896 212.225 40.18 212.017 40.548C211.809 40.916 211.705 41.348 211.705 41.844C211.705 42.332 211.809 42.764 212.017 43.14C212.225 43.508 212.505 43.796 212.857 44.004C213.209 44.204 213.605 44.304 214.045 44.304ZM219.001 45V38.7H219.817V40.416L219.733 40.116C219.909 39.636 220.205 39.272 220.621 39.024C221.037 38.768 221.553 38.64 222.169 38.64V39.468C222.137 39.468 222.105 39.468 222.073 39.468C222.041 39.46 222.009 39.456 221.977 39.456C221.312 39.456 220.793 39.66 220.417 40.068C220.041 40.468 219.853 41.04 219.853 41.784V45H219.001ZM226.341 45.06C225.685 45.06 225.109 44.924 224.613 44.652C224.117 44.372 223.729 43.992 223.449 43.512C223.169 43.024 223.029 42.468 223.029 41.844C223.029 41.22 223.161 40.668 223.425 40.188C223.697 39.708 224.065 39.332 224.529 39.06C225.001 38.78 225.529 38.64 226.113 38.64C226.705 38.64 227.229 38.776 227.685 39.048C228.149 39.312 228.513 39.688 228.777 40.176C229.041 40.656 229.173 41.212 229.173 41.844C229.173 41.884 229.169 41.928 229.161 41.976C229.161 42.016 229.161 42.06 229.161 42.108H223.677V41.472H228.705L228.369 41.724C228.369 41.268 228.269 40.864 228.069 40.512C227.877 40.152 227.613 39.872 227.277 39.672C226.941 39.472 226.553 39.372 226.113 39.372C225.681 39.372 225.293 39.472 224.949 39.672C224.605 39.872 224.337 40.152 224.145 40.512C223.953 40.872 223.857 41.284 223.857 41.748V41.88C223.857 42.36 223.961 42.784 224.169 43.152C224.385 43.512 224.681 43.796 225.057 44.004C225.441 44.204 225.877 44.304 226.365 44.304C226.749 44.304 227.105 44.236 227.433 44.1C227.769 43.964 228.057 43.756 228.297 43.476L228.777 44.028C228.497 44.364 228.145 44.62 227.721 44.796C227.305 44.972 226.845 45.06 226.341 45.06ZM230.556 42.12V41.376H233.7V42.12H230.556ZM238.58 45.072C237.836 45.072 237.208 44.908 236.696 44.58C236.184 44.244 235.796 43.764 235.532 43.14C235.268 42.508 235.136 41.752 235.136 40.872C235.136 39.92 235.296 39.124 235.616 38.484C235.944 37.836 236.396 37.348 236.972 37.02C237.548 36.692 238.216 36.528 238.976 36.528C239.352 36.528 239.712 36.564 240.056 36.636C240.4 36.708 240.704 36.824 240.968 36.984L240.62 37.68C240.404 37.536 240.156 37.436 239.876 37.38C239.596 37.316 239.3 37.284 238.988 37.284C238.084 37.284 237.36 37.572 236.816 38.148C236.28 38.724 236.012 39.584 236.012 40.728C236.012 40.904 236.02 41.124 236.036 41.388C236.06 41.644 236.108 41.9 236.18 42.156L235.88 41.928C235.968 41.512 236.14 41.16 236.396 40.872C236.652 40.576 236.972 40.352 237.356 40.2C237.74 40.048 238.16 39.972 238.616 39.972C239.176 39.972 239.668 40.076 240.092 40.284C240.516 40.492 240.848 40.784 241.088 41.16C241.328 41.536 241.448 41.98 241.448 42.492C241.448 43.012 241.324 43.468 241.076 43.86C240.828 44.244 240.484 44.544 240.044 44.76C239.612 44.968 239.124 45.072 238.58 45.072ZM238.544 44.34C238.944 44.34 239.296 44.268 239.6 44.124C239.912 43.972 240.156 43.76 240.332 43.488C240.508 43.208 240.596 42.884 240.596 42.516C240.596 41.964 240.404 41.524 240.02 41.196C239.644 40.868 239.132 40.704 238.484 40.704C238.052 40.704 237.676 40.784 237.356 40.944C237.036 41.104 236.784 41.324 236.6 41.604C236.416 41.876 236.324 42.188 236.324 42.54C236.324 42.844 236.408 43.136 236.576 43.416C236.744 43.688 236.992 43.912 237.32 44.088C237.656 44.256 238.064 44.34 238.544 44.34ZM242.304 42.792V42.168L246.756 36.6H247.716L243.3 42.168L242.832 42.024H249.588V42.792H242.304ZM247.044 45V42.792L247.068 42.024V40.08H247.908V45H247.044ZM251.541 45V36.96L251.925 37.368H249.561V36.6H252.405V45H251.541ZM257.761 45.072C257.113 45.072 256.537 44.904 256.033 44.568C255.529 44.224 255.133 43.736 254.845 43.104C254.557 42.464 254.413 41.696 254.413 40.8C254.413 39.904 254.557 39.14 254.845 38.508C255.133 37.868 255.529 37.38 256.033 37.044C256.537 36.7 257.113 36.528 257.761 36.528C258.409 36.528 258.985 36.7 259.489 37.044C259.993 37.38 260.389 37.868 260.677 38.508C260.973 39.14 261.121 39.904 261.121 40.8C261.121 41.696 260.973 42.464 260.677 43.104C260.389 43.736 259.993 44.224 259.489 44.568C258.985 44.904 258.409 45.072 257.761 45.072ZM257.761 44.28C258.257 44.28 258.689 44.148 259.057 43.884C259.425 43.612 259.713 43.22 259.921 42.708C260.129 42.188 260.233 41.552 260.233 40.8C260.233 40.048 260.129 39.416 259.921 38.904C259.713 38.384 259.425 37.992 259.057 37.728C258.689 37.456 258.257 37.32 257.761 37.32C257.281 37.32 256.853 37.456 256.477 37.728C256.101 37.992 255.809 38.384 255.601 38.904C255.393 39.416 255.289 40.048 255.289 40.8C255.289 41.552 255.393 42.188 255.601 42.708C255.809 43.22 256.101 43.612 256.477 43.884C256.853 44.148 257.281 44.28 257.761 44.28ZM265.706 45.072C265.058 45.072 264.482 44.904 263.978 44.568C263.474 44.224 263.078 43.736 262.79 43.104C262.502 42.464 262.358 41.696 262.358 40.8C262.358 39.904 262.502 39.14 262.79 38.508C263.078 37.868 263.474 37.38 263.978 37.044C264.482 36.7 265.058 36.528 265.706 36.528C266.354 36.528 266.93 36.7 267.434 37.044C267.938 37.38 268.334 37.868 268.622 38.508C268.918 39.14 269.066 39.904 269.066 40.8C269.066 41.696 268.918 42.464 268.622 43.104C268.334 43.736 267.938 44.224 267.434 44.568C266.93 44.904 266.354 45.072 265.706 45.072ZM265.706 44.28C266.202 44.28 266.634 44.148 267.002 43.884C267.37 43.612 267.658 43.22 267.866 42.708C268.074 42.188 268.178 41.552 268.178 40.8C268.178 40.048 268.074 39.416 267.866 38.904C267.658 38.384 267.37 37.992 267.002 37.728C266.634 37.456 266.202 37.32 265.706 37.32C265.226 37.32 264.798 37.456 264.422 37.728C264.046 37.992 263.754 38.384 263.546 38.904C263.338 39.416 263.234 40.048 263.234 40.8C263.234 41.552 263.338 42.188 263.546 42.708C263.754 43.22 264.046 43.612 264.422 43.884C264.798 44.148 265.226 44.28 265.706 44.28ZM273.496 45.072C272.824 45.072 272.244 44.976 271.756 44.784C271.276 44.592 270.904 44.316 270.64 43.956C270.384 43.588 270.256 43.156 270.256 42.66C270.256 42.18 270.38 41.772 270.628 41.436C270.884 41.092 271.252 40.828 271.732 40.644C272.22 40.46 272.808 40.368 273.496 40.368C274.176 40.368 274.76 40.46 275.248 40.644C275.736 40.828 276.108 41.092 276.364 41.436C276.628 41.772 276.76 42.18 276.76 42.66C276.76 43.156 276.628 43.588 276.364 43.956C276.1 44.316 275.724 44.592 275.236 44.784C274.748 44.976 274.168 45.072 273.496 45.072ZM273.496 44.34C274.24 44.34 274.82 44.188 275.236 43.884C275.66 43.58 275.872 43.168 275.872 42.648C275.872 42.128 275.66 41.72 275.236 41.424C274.82 41.12 274.24 40.968 273.496 40.968C272.752 40.968 272.172 41.12 271.756 41.424C271.34 41.72 271.132 42.128 271.132 42.648C271.132 43.168 271.34 43.58 271.756 43.884C272.172 44.188 272.752 44.34 273.496 44.34ZM273.496 40.86C272.872 40.86 272.34 40.776 271.9 40.608C271.468 40.44 271.136 40.2 270.904 39.888C270.672 39.568 270.556 39.188 270.556 38.748C270.556 38.284 270.676 37.888 270.916 37.56C271.164 37.224 271.508 36.968 271.948 36.792C272.388 36.616 272.904 36.528 273.496 36.528C274.088 36.528 274.604 36.616 275.044 36.792C275.492 36.968 275.84 37.224 276.088 37.56C276.336 37.888 276.46 38.284 276.46 38.748C276.46 39.188 276.344 39.568 276.112 39.888C275.88 40.2 275.54 40.44 275.092 40.608C274.652 40.776 274.12 40.86 273.496 40.86ZM273.496 40.284C274.152 40.284 274.664 40.148 275.032 39.876C275.4 39.604 275.584 39.24 275.584 38.784C275.584 38.304 275.392 37.932 275.008 37.668C274.632 37.396 274.128 37.26 273.496 37.26C272.864 37.26 272.36 37.396 271.984 37.668C271.608 37.932 271.42 38.3 271.42 38.772C271.42 39.236 271.6 39.604 271.96 39.876C272.328 40.148 272.84 40.284 273.496 40.284Z" fill="black"/>
</svg>
