<svg width="97" height="10" viewBox="0 0 97 10" fill="none" xmlns="http://www.w3.org/2000/svg">
<path d="M3.072 7.344V2.256H3.828V7.344H3.072ZM0.84 5.16V4.452H6.06V5.16H0.84ZM10.1423 0.528C10.8863 0.528 11.5143 0.696 12.0263 1.032C12.5383 1.36 12.9263 1.836 13.1903 2.46C13.4543 3.084 13.5863 3.84 13.5863 4.728C13.5863 5.672 13.4223 6.468 13.0943 7.116C12.7743 7.764 12.3263 8.252 11.7503 8.58C11.1743 8.908 10.5063 9.072 9.74634 9.072C9.37034 9.072 9.01034 9.036 8.66634 8.964C8.33034 8.892 8.02634 8.776 7.75434 8.616L8.10234 7.92C8.31834 8.064 8.56634 8.168 8.84634 8.232C9.13434 8.288 9.43034 8.316 9.73434 8.316C10.6383 8.316 11.3583 8.028 11.8943 7.452C12.4383 6.876 12.7103 6.016 12.7103 4.872C12.7103 4.688 12.6983 4.468 12.6743 4.212C12.6583 3.956 12.6143 3.7 12.5423 3.444L12.8423 3.672C12.7623 4.088 12.5903 4.444 12.3263 4.74C12.0703 5.028 11.7503 5.248 11.3663 5.4C10.9903 5.552 10.5703 5.628 10.1063 5.628C9.55434 5.628 9.06234 5.524 8.63034 5.316C8.20634 5.108 7.87434 4.816 7.63434 4.44C7.39434 4.064 7.27434 3.62 7.27434 3.108C7.27434 2.58 7.39834 2.124 7.64634 1.74C7.89434 1.356 8.23434 1.06 8.66634 0.852C9.10634 0.636 9.59834 0.528 10.1423 0.528ZM10.1783 1.26C9.77834 1.26 9.42234 1.336 9.11034 1.488C8.80634 1.632 8.56634 1.84 8.39034 2.112C8.21434 2.384 8.12634 2.708 8.12634 3.084C8.12634 3.636 8.31434 4.076 8.69034 4.404C9.07434 4.732 9.59034 4.896 10.2383 4.896C10.6703 4.896 11.0463 4.816 11.3663 4.656C11.6943 4.496 11.9463 4.276 12.1223 3.996C12.3063 3.716 12.3983 3.404 12.3983 3.06C12.3983 2.748 12.3143 2.456 12.1463 2.184C11.9783 1.912 11.7303 1.692 11.4023 1.524C11.0743 1.348 10.6663 1.26 10.1783 1.26ZM16.3028 9V0.96L16.6868 1.368H14.3228V0.599999H17.1668V9H16.3028ZM24.9314 0.528C25.6754 0.528 26.3034 0.696 26.8154 1.032C27.3274 1.36 27.7154 1.836 27.9794 2.46C28.2434 3.084 28.3754 3.84 28.3754 4.728C28.3754 5.672 28.2114 6.468 27.8834 7.116C27.5634 7.764 27.1154 8.252 26.5394 8.58C25.9634 8.908 25.2954 9.072 24.5354 9.072C24.1594 9.072 23.7994 9.036 23.4554 8.964C23.1194 8.892 22.8154 8.776 22.5434 8.616L22.8914 7.92C23.1074 8.064 23.3554 8.168 23.6354 8.232C23.9234 8.288 24.2194 8.316 24.5234 8.316C25.4274 8.316 26.1474 8.028 26.6834 7.452C27.2274 6.876 27.4994 6.016 27.4994 4.872C27.4994 4.688 27.4874 4.468 27.4634 4.212C27.4474 3.956 27.4034 3.7 27.3314 3.444L27.6314 3.672C27.5514 4.088 27.3794 4.444 27.1154 4.74C26.8594 5.028 26.5394 5.248 26.1554 5.4C25.7794 5.552 25.3594 5.628 24.8954 5.628C24.3434 5.628 23.8514 5.524 23.4194 5.316C22.9954 5.108 22.6634 4.816 22.4234 4.44C22.1834 4.064 22.0634 3.62 22.0634 3.108C22.0634 2.58 22.1874 2.124 22.4354 1.74C22.6834 1.356 23.0234 1.06 23.4554 0.852C23.8954 0.636 24.3874 0.528 24.9314 0.528ZM24.9674 1.26C24.5674 1.26 24.2114 1.336 23.8994 1.488C23.5954 1.632 23.3554 1.84 23.1794 2.112C23.0034 2.384 22.9154 2.708 22.9154 3.084C22.9154 3.636 23.1034 4.076 23.4794 4.404C23.8634 4.732 24.3794 4.896 25.0274 4.896C25.4594 4.896 25.8354 4.816 26.1554 4.656C26.4834 4.496 26.7354 4.276 26.9114 3.996C27.0954 3.716 27.1874 3.404 27.1874 3.06C27.1874 2.748 27.1034 2.456 26.9354 2.184C26.7674 1.912 26.5194 1.692 26.1914 1.524C25.8634 1.348 25.4554 1.26 24.9674 1.26ZM32.2439 0.528C32.9879 0.528 33.6159 0.696 34.1279 1.032C34.6399 1.36 35.0279 1.836 35.2919 2.46C35.5559 3.084 35.6879 3.84 35.6879 4.728C35.6879 5.672 35.5239 6.468 35.1959 7.116C34.8759 7.764 34.4279 8.252 33.8519 8.58C33.2759 8.908 32.6079 9.072 31.8479 9.072C31.4719 9.072 31.1119 9.036 30.7679 8.964C30.4319 8.892 30.1279 8.776 29.8559 8.616L30.2039 7.92C30.4199 8.064 30.6679 8.168 30.9479 8.232C31.2359 8.288 31.5319 8.316 31.8359 8.316C32.7399 8.316 33.4599 8.028 33.9959 7.452C34.5399 6.876 34.8119 6.016 34.8119 4.872C34.8119 4.688 34.7999 4.468 34.7759 4.212C34.7599 3.956 34.7159 3.7 34.6439 3.444L34.9439 3.672C34.8639 4.088 34.6919 4.444 34.4279 4.74C34.1719 5.028 33.8519 5.248 33.4679 5.4C33.0919 5.552 32.6719 5.628 32.2079 5.628C31.6559 5.628 31.1639 5.524 30.7319 5.316C30.3079 5.108 29.9759 4.816 29.7359 4.44C29.4959 4.064 29.3759 3.62 29.3759 3.108C29.3759 2.58 29.4999 2.124 29.7479 1.74C29.9959 1.356 30.3359 1.06 30.7679 0.852C31.2079 0.636 31.6999 0.528 32.2439 0.528ZM32.2799 1.26C31.8799 1.26 31.5239 1.336 31.2119 1.488C30.9079 1.632 30.6679 1.84 30.4919 2.112C30.3159 2.384 30.2279 2.708 30.2279 3.084C30.2279 3.636 30.4159 4.076 30.7919 4.404C31.1759 4.732 31.6919 4.896 32.3399 4.896C32.7719 4.896 33.1479 4.816 33.4679 4.656C33.7959 4.496 34.0479 4.276 34.2239 3.996C34.4079 3.716 34.4999 3.404 34.4999 3.06C34.4999 2.748 34.4159 2.456 34.2479 2.184C34.0799 1.912 33.8319 1.692 33.5039 1.524C33.1759 1.348 32.7679 1.26 32.2799 1.26ZM39.5564 0.528C40.3004 0.528 40.9284 0.696 41.4404 1.032C41.9524 1.36 42.3404 1.836 42.6044 2.46C42.8684 3.084 43.0004 3.84 43.0004 4.728C43.0004 5.672 42.8364 6.468 42.5084 7.116C42.1884 7.764 41.7404 8.252 41.1644 8.58C40.5884 8.908 39.9204 9.072 39.1604 9.072C38.7844 9.072 38.4244 9.036 38.0804 8.964C37.7444 8.892 37.4404 8.776 37.1684 8.616L37.5164 7.92C37.7324 8.064 37.9804 8.168 38.2604 8.232C38.5484 8.288 38.8444 8.316 39.1484 8.316C40.0524 8.316 40.7724 8.028 41.3084 7.452C41.8524 6.876 42.1244 6.016 42.1244 4.872C42.1244 4.688 42.1124 4.468 42.0884 4.212C42.0724 3.956 42.0284 3.7 41.9564 3.444L42.2564 3.672C42.1764 4.088 42.0044 4.444 41.7404 4.74C41.4844 5.028 41.1644 5.248 40.7804 5.4C40.4044 5.552 39.9844 5.628 39.5204 5.628C38.9684 5.628 38.4764 5.524 38.0444 5.316C37.6204 5.108 37.2884 4.816 37.0484 4.44C36.8084 4.064 36.6884 3.62 36.6884 3.108C36.6884 2.58 36.8124 2.124 37.0604 1.74C37.3084 1.356 37.6484 1.06 38.0804 0.852C38.5204 0.636 39.0124 0.528 39.5564 0.528ZM39.5924 1.26C39.1924 1.26 38.8364 1.336 38.5244 1.488C38.2204 1.632 37.9804 1.84 37.8044 2.112C37.6284 2.384 37.5404 2.708 37.5404 3.084C37.5404 3.636 37.7284 4.076 38.1044 4.404C38.4884 4.732 39.0044 4.896 39.6524 4.896C40.0844 4.896 40.4604 4.816 40.7804 4.656C41.1084 4.496 41.3604 4.276 41.5364 3.996C41.7204 3.716 41.8124 3.404 41.8124 3.06C41.8124 2.748 41.7284 2.456 41.5604 2.184C41.3924 1.912 41.1444 1.692 40.8164 1.524C40.4884 1.348 40.0804 1.26 39.5924 1.26ZM44.1089 6.792V6.168L48.5609 0.599999H49.5209L45.1049 6.168L44.6369 6.024H51.3929V6.792H44.1089ZM48.8489 9V6.792L48.8729 6.024V4.08H49.7129V9H48.8489ZM52.0425 6.792V6.168L56.4945 0.599999H57.4545L53.0385 6.168L52.5705 6.024H59.3265V6.792H52.0425ZM56.7825 9V6.792L56.8065 6.024V4.08H57.6465V9H56.7825ZM59.9761 6.792V6.168L64.4281 0.599999H65.3881L60.9721 6.168L60.5041 6.024H67.2601V6.792H59.9761ZM64.7161 9V6.792L64.7401 6.024V4.08H65.5801V9H64.7161ZM71.4017 9.072C70.7537 9.072 70.1777 8.904 69.6737 8.568C69.1697 8.224 68.7737 7.736 68.4857 7.104C68.1977 6.464 68.0537 5.696 68.0537 4.8C68.0537 3.904 68.1977 3.14 68.4857 2.508C68.7737 1.868 69.1697 1.38 69.6737 1.044C70.1777 0.7 70.7537 0.528 71.4017 0.528C72.0497 0.528 72.6257 0.7 73.1297 1.044C73.6337 1.38 74.0297 1.868 74.3177 2.508C74.6137 3.14 74.7617 3.904 74.7617 4.8C74.7617 5.696 74.6137 6.464 74.3177 7.104C74.0297 7.736 73.6337 8.224 73.1297 8.568C72.6257 8.904 72.0497 9.072 71.4017 9.072ZM71.4017 8.28C71.8977 8.28 72.3297 8.148 72.6977 7.884C73.0657 7.612 73.3537 7.22 73.5617 6.708C73.7697 6.188 73.8737 5.552 73.8737 4.8C73.8737 4.048 73.7697 3.416 73.5617 2.904C73.3537 2.384 73.0657 1.992 72.6977 1.728C72.3297 1.456 71.8977 1.32 71.4017 1.32C70.9217 1.32 70.4937 1.456 70.1177 1.728C69.7417 1.992 69.4497 2.384 69.2417 2.904C69.0337 3.416 68.9297 4.048 68.9297 4.8C68.9297 5.552 69.0337 6.188 69.2417 6.708C69.4497 7.22 69.7417 7.612 70.1177 7.884C70.4937 8.148 70.9217 8.28 71.4017 8.28ZM75.855 6.792V6.168L80.307 0.599999H81.267L76.851 6.168L76.383 6.024H83.139V6.792H75.855ZM80.595 9V6.792L80.619 6.024V4.08H81.459V9H80.595ZM83.7532 9V8.388L87.2452 4.968C87.5652 4.656 87.8052 4.384 87.9652 4.152C88.1252 3.912 88.2332 3.688 88.2892 3.48C88.3452 3.272 88.3732 3.076 88.3732 2.892C88.3732 2.404 88.2052 2.02 87.8692 1.74C87.5412 1.46 87.0532 1.32 86.4052 1.32C85.9092 1.32 85.4692 1.396 85.0852 1.548C84.7092 1.7 84.3852 1.936 84.1132 2.256L83.5012 1.728C83.8292 1.344 84.2492 1.048 84.7612 0.84C85.2732 0.632 85.8452 0.528 86.4772 0.528C87.0452 0.528 87.5372 0.62 87.9532 0.804C88.3692 0.98 88.6892 1.24 88.9132 1.584C89.1452 1.928 89.2612 2.332 89.2612 2.796C89.2612 3.068 89.2212 3.336 89.1412 3.6C89.0692 3.864 88.9332 4.144 88.7332 4.44C88.5412 4.728 88.2572 5.056 87.8812 5.424L84.6772 8.568L84.4372 8.232H89.6452V9H83.7532ZM93.2375 9.072C92.6295 9.072 92.0535 8.976 91.5095 8.784C90.9735 8.584 90.5415 8.32 90.2135 7.992L90.6335 7.308C90.9055 7.588 91.2695 7.82 91.7255 8.004C92.1895 8.188 92.6935 8.28 93.2375 8.28C93.9335 8.28 94.4655 8.128 94.8335 7.824C95.2095 7.52 95.3975 7.112 95.3975 6.6C95.3975 6.088 95.2135 5.68 94.8455 5.376C94.4855 5.072 93.9135 4.92 93.1295 4.92H92.5295V4.284L95.1215 1.032L95.2415 1.368H90.5615V0.599999H95.9615V1.212L93.3695 4.464L92.9495 4.188H93.2735C94.2815 4.188 95.0335 4.412 95.5295 4.86C96.0335 5.308 96.2855 5.884 96.2855 6.588C96.2855 7.06 96.1735 7.484 95.9495 7.86C95.7255 8.236 95.3855 8.532 94.9295 8.748C94.4815 8.964 93.9175 9.072 93.2375 9.072Z" fill="black"/>
</svg>
