<svg width="93" height="10" viewBox="0 0 93 10" fill="none" xmlns="http://www.w3.org/2000/svg">
<path d="M3.072 7.344V2.256H3.828V7.344H3.072ZM0.84 5.16V4.452H6.06V5.16H0.84ZM10.1423 0.528C10.8863 0.528 11.5143 0.696 12.0263 1.032C12.5383 1.36 12.9263 1.836 13.1903 2.46C13.4543 3.084 13.5863 3.84 13.5863 4.728C13.5863 5.672 13.4223 6.468 13.0943 7.116C12.7743 7.764 12.3263 8.252 11.7503 8.58C11.1743 8.908 10.5063 9.072 9.74634 9.072C9.37034 9.072 9.01034 9.036 8.66634 8.964C8.33034 8.892 8.02634 8.776 7.75434 8.616L8.10234 7.92C8.31834 8.064 8.56634 8.168 8.84634 8.232C9.13434 8.288 9.43034 8.316 9.73434 8.316C10.6383 8.316 11.3583 8.028 11.8943 7.452C12.4383 6.876 12.7103 6.016 12.7103 4.872C12.7103 4.688 12.6983 4.468 12.6743 4.212C12.6583 3.956 12.6143 3.7 12.5423 3.444L12.8423 3.672C12.7623 4.088 12.5903 4.444 12.3263 4.74C12.0703 5.028 11.7503 5.248 11.3663 5.4C10.9903 5.552 10.5703 5.628 10.1063 5.628C9.55434 5.628 9.06234 5.524 8.63034 5.316C8.20634 5.108 7.87434 4.816 7.63434 4.44C7.39434 4.064 7.27434 3.62 7.27434 3.108C7.27434 2.58 7.39834 2.124 7.64634 1.74C7.89434 1.356 8.23434 1.06 8.66634 0.852C9.10634 0.636 9.59834 0.528 10.1423 0.528ZM10.1783 1.26C9.77834 1.26 9.42234 1.336 9.11034 1.488C8.80634 1.632 8.56634 1.84 8.39034 2.112C8.21434 2.384 8.12634 2.708 8.12634 3.084C8.12634 3.636 8.31434 4.076 8.69034 4.404C9.07434 4.732 9.59034 4.896 10.2383 4.896C10.6703 4.896 11.0463 4.816 11.3663 4.656C11.6943 4.496 11.9463 4.276 12.1223 3.996C12.3063 3.716 12.3983 3.404 12.3983 3.06C12.3983 2.748 12.3143 2.456 12.1463 2.184C11.9783 1.912 11.7303 1.692 11.4023 1.524C11.0743 1.348 10.6663 1.26 10.1783 1.26ZM16.3028 9V0.96L16.6868 1.368H14.3228V0.599999H17.1668V9H16.3028ZM25.5074 9.072C24.8354 9.072 24.2554 8.976 23.7674 8.784C23.2874 8.592 22.9154 8.316 22.6514 7.956C22.3954 7.588 22.2674 7.156 22.2674 6.66C22.2674 6.18 22.3914 5.772 22.6394 5.436C22.8954 5.092 23.2634 4.828 23.7434 4.644C24.2314 4.46 24.8194 4.368 25.5074 4.368C26.1874 4.368 26.7714 4.46 27.2594 4.644C27.7474 4.828 28.1194 5.092 28.3754 5.436C28.6394 5.772 28.7714 6.18 28.7714 6.66C28.7714 7.156 28.6394 7.588 28.3754 7.956C28.1114 8.316 27.7354 8.592 27.2474 8.784C26.7594 8.976 26.1794 9.072 25.5074 9.072ZM25.5074 8.34C26.2514 8.34 26.8314 8.188 27.2474 7.884C27.6714 7.58 27.8834 7.168 27.8834 6.648C27.8834 6.128 27.6714 5.72 27.2474 5.424C26.8314 5.12 26.2514 4.968 25.5074 4.968C24.7634 4.968 24.1834 5.12 23.7674 5.424C23.3514 5.72 23.1434 6.128 23.1434 6.648C23.1434 7.168 23.3514 7.58 23.7674 7.884C24.1834 8.188 24.7634 8.34 25.5074 8.34ZM25.5074 4.86C24.8834 4.86 24.3514 4.776 23.9114 4.608C23.4794 4.44 23.1474 4.2 22.9154 3.888C22.6834 3.568 22.5674 3.188 22.5674 2.748C22.5674 2.284 22.6874 1.888 22.9274 1.56C23.1754 1.224 23.5194 0.967999 23.9594 0.792C24.3994 0.616 24.9154 0.528 25.5074 0.528C26.0994 0.528 26.6154 0.616 27.0554 0.792C27.5034 0.967999 27.8514 1.224 28.0994 1.56C28.3474 1.888 28.4714 2.284 28.4714 2.748C28.4714 3.188 28.3554 3.568 28.1234 3.888C27.8914 4.2 27.5514 4.44 27.1034 4.608C26.6634 4.776 26.1314 4.86 25.5074 4.86ZM25.5074 4.284C26.1634 4.284 26.6754 4.148 27.0434 3.876C27.4114 3.604 27.5954 3.24 27.5954 2.784C27.5954 2.304 27.4034 1.932 27.0194 1.668C26.6434 1.396 26.1394 1.26 25.5074 1.26C24.8754 1.26 24.3714 1.396 23.9954 1.668C23.6194 1.932 23.4314 2.3 23.4314 2.772C23.4314 3.236 23.6114 3.604 23.9714 3.876C24.3394 4.148 24.8514 4.284 25.5074 4.284ZM29.8118 9V8.388L33.3038 4.968C33.6238 4.656 33.8638 4.384 34.0238 4.152C34.1838 3.912 34.2918 3.688 34.3478 3.48C34.4038 3.272 34.4318 3.076 34.4318 2.892C34.4318 2.404 34.2638 2.02 33.9278 1.74C33.5998 1.46 33.1118 1.32 32.4638 1.32C31.9678 1.32 31.5278 1.396 31.1438 1.548C30.7678 1.7 30.4438 1.936 30.1718 2.256L29.5598 1.728C29.8878 1.344 30.3078 1.048 30.8198 0.84C31.3318 0.632 31.9038 0.528 32.5358 0.528C33.1038 0.528 33.5958 0.62 34.0118 0.804C34.4278 0.98 34.7478 1.24 34.9718 1.584C35.2038 1.928 35.3198 2.332 35.3198 2.796C35.3198 3.068 35.2798 3.336 35.1998 3.6C35.1278 3.864 34.9918 4.144 34.7918 4.44C34.5998 4.728 34.3158 5.056 33.9398 5.424L30.7358 8.568L30.4958 8.232H35.7038V9H29.8118ZM36.6321 9V8.388L40.1241 4.968C40.4441 4.656 40.6841 4.384 40.8441 4.152C41.0041 3.912 41.1121 3.688 41.1681 3.48C41.2241 3.272 41.2521 3.076 41.2521 2.892C41.2521 2.404 41.0841 2.02 40.7481 1.74C40.4201 1.46 39.9321 1.32 39.2841 1.32C38.7881 1.32 38.3481 1.396 37.9641 1.548C37.5881 1.7 37.2641 1.936 36.9921 2.256L36.3801 1.728C36.7081 1.344 37.1281 1.048 37.6401 0.84C38.1521 0.632 38.7241 0.528 39.3561 0.528C39.9241 0.528 40.4161 0.62 40.8321 0.804C41.2481 0.98 41.5681 1.24 41.7921 1.584C42.0241 1.928 42.1401 2.332 42.1401 2.796C42.1401 3.068 42.1001 3.336 42.0201 3.6C41.9481 3.864 41.8121 4.144 41.6121 4.44C41.4201 4.728 41.1361 5.056 40.7601 5.424L37.5561 8.568L37.3161 8.232H42.5241V9H36.6321ZM46.9329 9.072C46.2849 9.072 45.7089 8.904 45.2049 8.568C44.7009 8.224 44.3049 7.736 44.0169 7.104C43.7289 6.464 43.5849 5.696 43.5849 4.8C43.5849 3.904 43.7289 3.14 44.0169 2.508C44.3049 1.868 44.7009 1.38 45.2049 1.044C45.7089 0.7 46.2849 0.528 46.9329 0.528C47.5809 0.528 48.1569 0.7 48.6609 1.044C49.1649 1.38 49.5609 1.868 49.8489 2.508C50.1449 3.14 50.2929 3.904 50.2929 4.8C50.2929 5.696 50.1449 6.464 49.8489 7.104C49.5609 7.736 49.1649 8.224 48.6609 8.568C48.1569 8.904 47.5809 9.072 46.9329 9.072ZM46.9329 8.28C47.4289 8.28 47.8609 8.148 48.2289 7.884C48.5969 7.612 48.8849 7.22 49.0929 6.708C49.3009 6.188 49.4049 5.552 49.4049 4.8C49.4049 4.048 49.3009 3.416 49.0929 2.904C48.8849 2.384 48.5969 1.992 48.2289 1.728C47.8609 1.456 47.4289 1.32 46.9329 1.32C46.4529 1.32 46.0249 1.456 45.6489 1.728C45.2729 1.992 44.9809 2.384 44.7729 2.904C44.5649 3.416 44.4609 4.048 44.4609 4.8C44.4609 5.552 44.5649 6.188 44.7729 6.708C44.9809 7.22 45.2729 7.612 45.6489 7.884C46.0249 8.148 46.4529 8.28 46.9329 8.28ZM53.9211 9.072C53.3131 9.072 52.7371 8.976 52.1931 8.784C51.6571 8.584 51.2251 8.32 50.8971 7.992L51.3171 7.308C51.5891 7.588 51.9531 7.82 52.4091 8.004C52.8731 8.188 53.3771 8.28 53.9211 8.28C54.6171 8.28 55.1491 8.128 55.5171 7.824C55.8931 7.52 56.0811 7.112 56.0811 6.6C56.0811 6.088 55.8971 5.68 55.5291 5.376C55.1691 5.072 54.5971 4.92 53.8131 4.92H53.2131V4.284L55.8051 1.032L55.9251 1.368H51.2451V0.599999H56.6451V1.212L54.0531 4.464L53.6331 4.188H53.9571C54.9651 4.188 55.7171 4.412 56.2131 4.86C56.7171 5.308 56.9691 5.884 56.9691 6.588C56.9691 7.06 56.8571 7.484 56.6331 7.86C56.4091 8.236 56.0691 8.532 55.6131 8.748C55.1651 8.964 54.6011 9.072 53.9211 9.072ZM61.6305 9.072C60.8865 9.072 60.2585 8.908 59.7465 8.58C59.2345 8.244 58.8465 7.764 58.5825 7.14C58.3185 6.508 58.1865 5.752 58.1865 4.872C58.1865 3.92 58.3465 3.124 58.6665 2.484C58.9945 1.836 59.4465 1.348 60.0225 1.02C60.5985 0.692 61.2665 0.528 62.0265 0.528C62.4025 0.528 62.7625 0.564 63.1065 0.636C63.4505 0.708 63.7545 0.824 64.0185 0.983999L63.6705 1.68C63.4545 1.536 63.2065 1.436 62.9265 1.38C62.6465 1.316 62.3505 1.284 62.0385 1.284C61.1345 1.284 60.4105 1.572 59.8665 2.148C59.3305 2.724 59.0625 3.584 59.0625 4.728C59.0625 4.904 59.0705 5.124 59.0865 5.388C59.1105 5.644 59.1585 5.9 59.2305 6.156L58.9305 5.928C59.0185 5.512 59.1905 5.16 59.4465 4.872C59.7025 4.576 60.0225 4.352 60.4065 4.2C60.7905 4.048 61.2105 3.972 61.6665 3.972C62.2265 3.972 62.7185 4.076 63.1425 4.284C63.5665 4.492 63.8985 4.784 64.1385 5.16C64.3785 5.536 64.4985 5.98 64.4985 6.492C64.4985 7.012 64.3745 7.468 64.1265 7.86C63.8785 8.244 63.5345 8.544 63.0945 8.76C62.6625 8.968 62.1745 9.072 61.6305 9.072ZM61.5945 8.34C61.9945 8.34 62.3465 8.268 62.6505 8.124C62.9625 7.972 63.2065 7.76 63.3825 7.488C63.5585 7.208 63.6465 6.884 63.6465 6.516C63.6465 5.964 63.4545 5.524 63.0705 5.196C62.6945 4.868 62.1825 4.704 61.5345 4.704C61.1025 4.704 60.7265 4.784 60.4065 4.944C60.0865 5.104 59.8345 5.324 59.6505 5.604C59.4665 5.876 59.3745 6.188 59.3745 6.54C59.3745 6.844 59.4585 7.136 59.6265 7.416C59.7945 7.688 60.0425 7.912 60.3705 8.088C60.7065 8.256 61.1145 8.34 61.5945 8.34ZM68.007 9.072C67.399 9.072 66.823 8.976 66.279 8.784C65.743 8.584 65.311 8.32 64.983 7.992L65.403 7.308C65.675 7.588 66.039 7.82 66.495 8.004C66.959 8.188 67.463 8.28 68.007 8.28C68.703 8.28 69.235 8.128 69.603 7.824C69.979 7.52 70.167 7.112 70.167 6.6C70.167 6.088 69.983 5.68 69.615 5.376C69.255 5.072 68.683 4.92 67.899 4.92H67.299V4.284L69.891 1.032L70.011 1.368H65.331V0.599999H70.731V1.212L68.139 4.464L67.719 4.188H68.043C69.051 4.188 69.803 4.412 70.299 4.86C70.803 5.308 71.055 5.884 71.055 6.588C71.055 7.06 70.943 7.484 70.719 7.86C70.495 8.236 70.155 8.532 69.699 8.748C69.251 8.964 68.687 9.072 68.007 9.072ZM75.7164 9.072C74.9724 9.072 74.3444 8.908 73.8324 8.58C73.3204 8.244 72.9324 7.764 72.6684 7.14C72.4044 6.508 72.2724 5.752 72.2724 4.872C72.2724 3.92 72.4324 3.124 72.7524 2.484C73.0804 1.836 73.5324 1.348 74.1084 1.02C74.6844 0.692 75.3524 0.528 76.1124 0.528C76.4884 0.528 76.8484 0.564 77.1924 0.636C77.5364 0.708 77.8404 0.824 78.1044 0.983999L77.7564 1.68C77.5404 1.536 77.2924 1.436 77.0124 1.38C76.7324 1.316 76.4364 1.284 76.1244 1.284C75.2204 1.284 74.4964 1.572 73.9524 2.148C73.4164 2.724 73.1484 3.584 73.1484 4.728C73.1484 4.904 73.1564 5.124 73.1724 5.388C73.1964 5.644 73.2444 5.9 73.3164 6.156L73.0164 5.928C73.1044 5.512 73.2764 5.16 73.5324 4.872C73.7884 4.576 74.1084 4.352 74.4924 4.2C74.8764 4.048 75.2964 3.972 75.7524 3.972C76.3124 3.972 76.8044 4.076 77.2284 4.284C77.6524 4.492 77.9844 4.784 78.2244 5.16C78.4644 5.536 78.5844 5.98 78.5844 6.492C78.5844 7.012 78.4604 7.468 78.2124 7.86C77.9644 8.244 77.6204 8.544 77.1804 8.76C76.7484 8.968 76.2604 9.072 75.7164 9.072ZM75.6804 8.34C76.0804 8.34 76.4324 8.268 76.7364 8.124C77.0484 7.972 77.2924 7.76 77.4684 7.488C77.6444 7.208 77.7324 6.884 77.7324 6.516C77.7324 5.964 77.5404 5.524 77.1564 5.196C76.7804 4.868 76.2684 4.704 75.6204 4.704C75.1884 4.704 74.8124 4.784 74.4924 4.944C74.1724 5.104 73.9204 5.324 73.7364 5.604C73.5524 5.876 73.4604 6.188 73.4604 6.54C73.4604 6.844 73.5444 7.136 73.7124 7.416C73.8804 7.688 74.1284 7.912 74.4564 8.088C74.7924 8.256 75.2004 8.34 75.6804 8.34ZM82.0929 9.072C81.4849 9.072 80.9089 8.976 80.3649 8.784C79.8289 8.584 79.3969 8.32 79.0689 7.992L79.4889 7.308C79.7609 7.588 80.1249 7.82 80.5809 8.004C81.0449 8.188 81.5489 8.28 82.0929 8.28C82.7889 8.28 83.3209 8.128 83.6889 7.824C84.0649 7.52 84.2529 7.112 84.2529 6.6C84.2529 6.088 84.0689 5.68 83.7009 5.376C83.3409 5.072 82.7689 4.92 81.9849 4.92H81.3849V4.284L83.9769 1.032L84.0969 1.368H79.4169V0.599999H84.8169V1.212L82.2249 4.464L81.8049 4.188H82.1289C83.1369 4.188 83.8889 4.412 84.3849 4.86C84.8889 5.308 85.1409 5.884 85.1409 6.588C85.1409 7.06 85.0289 7.484 84.8049 7.86C84.5809 8.236 84.2409 8.532 83.7849 8.748C83.3369 8.964 82.7729 9.072 82.0929 9.072ZM88.9744 0.528C89.7184 0.528 90.3464 0.696 90.8584 1.032C91.3704 1.36 91.7584 1.836 92.0224 2.46C92.2864 3.084 92.4184 3.84 92.4184 4.728C92.4184 5.672 92.2544 6.468 91.9264 7.116C91.6064 7.764 91.1584 8.252 90.5824 8.58C90.0064 8.908 89.3384 9.072 88.5784 9.072C88.2024 9.072 87.8424 9.036 87.4984 8.964C87.1624 8.892 86.8584 8.776 86.5864 8.616L86.9344 7.92C87.1504 8.064 87.3984 8.168 87.6784 8.232C87.9664 8.288 88.2624 8.316 88.5664 8.316C89.4704 8.316 90.1904 8.028 90.7264 7.452C91.2704 6.876 91.5424 6.016 91.5424 4.872C91.5424 4.688 91.5304 4.468 91.5064 4.212C91.4904 3.956 91.4464 3.7 91.3744 3.444L91.6744 3.672C91.5944 4.088 91.4224 4.444 91.1584 4.74C90.9024 5.028 90.5824 5.248 90.1984 5.4C89.8224 5.552 89.4024 5.628 88.9384 5.628C88.3864 5.628 87.8944 5.524 87.4624 5.316C87.0384 5.108 86.7064 4.816 86.4664 4.44C86.2264 4.064 86.1064 3.62 86.1064 3.108C86.1064 2.58 86.2304 2.124 86.4784 1.74C86.7264 1.356 87.0664 1.06 87.4984 0.852C87.9384 0.636 88.4304 0.528 88.9744 0.528ZM89.0104 1.26C88.6104 1.26 88.2544 1.336 87.9424 1.488C87.6384 1.632 87.3984 1.84 87.2224 2.112C87.0464 2.384 86.9584 2.708 86.9584 3.084C86.9584 3.636 87.1464 4.076 87.5224 4.404C87.9064 4.732 88.4224 4.896 89.0704 4.896C89.5024 4.896 89.8784 4.816 90.1984 4.656C90.5264 4.496 90.7784 4.276 90.9544 3.996C91.1384 3.716 91.2304 3.404 91.2304 3.06C91.2304 2.748 91.1464 2.456 90.9784 2.184C90.8104 1.912 90.5624 1.692 90.2344 1.524C89.9064 1.348 89.4984 1.26 89.0104 1.26Z" fill="black"/>
</svg>
