<svg width="185" height="16" viewBox="0 0 185 16" fill="none" xmlns="http://www.w3.org/2000/svg">
<path d="M8.46 15.24C7.35333 15.24 6.32667 15.06 5.38 14.7C4.44667 14.34 3.63333 13.8333 2.94 13.18C2.26 12.5267 1.72667 11.76 1.34 10.88C0.966667 10 0.78 9.04 0.78 8C0.78 6.96 0.966667 6 1.34 5.12C1.72667 4.24 2.26667 3.47333 2.96 2.82C3.65333 2.16667 4.46667 1.66 5.4 1.3C6.33333 0.939999 7.34667 0.76 8.44 0.76C9.54667 0.76 10.56 0.939999 11.48 1.3C12.4133 1.66 13.22 2.16667 13.9 2.82C14.5933 3.47333 15.1333 4.24 15.52 5.12C15.9067 5.98667 16.1 6.94667 16.1 8C16.1 9.04 15.9067 10.0067 15.52 10.9C15.1333 11.78 14.5933 12.5467 13.9 13.2C13.22 13.84 12.4133 14.34 11.48 14.7C10.56 15.06 9.55333 15.24 8.46 15.24ZM8.44 12.48C9.06667 12.48 9.64 12.3733 10.16 12.16C10.6933 11.9467 11.16 11.64 11.56 11.24C11.96 10.84 12.2667 10.3667 12.48 9.82C12.7067 9.27333 12.82 8.66667 12.82 8C12.82 7.33333 12.7067 6.72667 12.48 6.18C12.2667 5.63333 11.96 5.16 11.56 4.76C11.1733 4.36 10.7133 4.05333 10.18 3.84C9.64667 3.62667 9.06667 3.52 8.44 3.52C7.81333 3.52 7.23333 3.62667 6.7 3.84C6.18 4.05333 5.72 4.36 5.32 4.76C4.92 5.16 4.60667 5.63333 4.38 6.18C4.16667 6.72667 4.06 7.33333 4.06 8C4.06 8.65333 4.16667 9.26 4.38 9.82C4.60667 10.3667 4.91333 10.84 5.3 11.24C5.7 11.64 6.16667 11.9467 6.7 12.16C7.23333 12.3733 7.81333 12.48 8.44 12.48ZM21.535 7.3H28.255V9.9H21.535V7.3ZM21.775 15H18.535V0.999999H29.115V3.6H21.775V15ZM34.3084 7.3H41.0284V9.9H34.3084V7.3ZM34.5484 15H31.3084V0.999999H41.8884V3.6H34.5484V15ZM44.0819 15V0.999999H47.3219V15H44.0819ZM57.3444 15.24C56.2644 15.24 55.2577 15.0667 54.3244 14.72C53.4044 14.36 52.6044 13.8533 51.9244 13.2C51.2444 12.5467 50.711 11.78 50.3244 10.9C49.951 10.02 49.7644 9.05333 49.7644 8C49.7644 6.94667 49.951 5.98 50.3244 5.1C50.711 4.22 51.2444 3.45333 51.9244 2.8C52.6177 2.14667 53.4244 1.64667 54.3444 1.3C55.2644 0.939999 56.271 0.76 57.3644 0.76C58.5777 0.76 59.671 0.973333 60.6444 1.4C61.631 1.81333 62.4577 2.42667 63.1244 3.24L61.0444 5.16C60.5644 4.61333 60.031 4.20667 59.4444 3.94C58.8577 3.66 58.2177 3.52 57.5244 3.52C56.871 3.52 56.271 3.62667 55.7244 3.84C55.1777 4.05333 54.7044 4.36 54.3044 4.76C53.9044 5.16 53.591 5.63333 53.3644 6.18C53.151 6.72667 53.0444 7.33333 53.0444 8C53.0444 8.66667 53.151 9.27333 53.3644 9.82C53.591 10.3667 53.9044 10.84 54.3044 11.24C54.7044 11.64 55.1777 11.9467 55.7244 12.16C56.271 12.3733 56.871 12.48 57.5244 12.48C58.2177 12.48 58.8577 12.3467 59.4444 12.08C60.031 11.8 60.5644 11.38 61.0444 10.82L63.1244 12.74C62.4577 13.5533 61.631 14.1733 60.6444 14.6C59.671 15.0267 58.571 15.24 57.3444 15.24ZM68.2923 6.64H75.0323V9.16H68.2923V6.64ZM68.5323 12.4H76.1523V15H65.3123V0.999999H75.8923V3.6H68.5323V12.4ZM82.5544 15L88.7944 0.999999H91.9944L98.2544 15H94.8544L89.7344 2.64H91.0144L85.8744 15H82.5544ZM85.6744 12L86.5344 9.54H93.7344L94.6144 12H85.6744ZM99.7069 15V0.999999H106.067C107.587 0.999999 108.927 1.29333 110.087 1.88C111.247 2.45333 112.154 3.26 112.807 4.3C113.46 5.34 113.787 6.57333 113.787 8C113.787 9.41333 113.46 10.6467 112.807 11.7C112.154 12.74 111.247 13.5533 110.087 14.14C108.927 14.7133 107.587 15 106.067 15H99.7069ZM102.947 12.34H105.907C106.84 12.34 107.647 12.1667 108.327 11.82C109.02 11.46 109.554 10.9533 109.927 10.3C110.314 9.64667 110.507 8.88 110.507 8C110.507 7.10667 110.314 6.34 109.927 5.7C109.554 5.04667 109.02 4.54667 108.327 4.2C107.647 3.84 106.84 3.66 105.907 3.66H102.947V12.34ZM116.23 15V0.999999H122.59C124.11 0.999999 125.45 1.29333 126.61 1.88C127.77 2.45333 128.677 3.26 129.33 4.3C129.984 5.34 130.31 6.57333 130.31 8C130.31 9.41333 129.984 10.6467 129.33 11.7C128.677 12.74 127.77 13.5533 126.61 14.14C125.45 14.7133 124.11 15 122.59 15H116.23ZM119.47 12.34H122.43C123.364 12.34 124.17 12.1667 124.85 11.82C125.544 11.46 126.077 10.9533 126.45 10.3C126.837 9.64667 127.03 8.88 127.03 8C127.03 7.10667 126.837 6.34 126.45 5.7C126.077 5.04667 125.544 4.54667 124.85 4.2C124.17 3.84 123.364 3.66 122.43 3.66H119.47V12.34ZM132.754 15V0.999999H138.814C140.067 0.999999 141.147 1.20667 142.054 1.62C142.96 2.02 143.66 2.6 144.154 3.36C144.647 4.12 144.894 5.02667 144.894 6.08C144.894 7.12 144.647 8.02 144.154 8.78C143.66 9.52667 142.96 10.1 142.054 10.5C141.147 10.9 140.067 11.1 138.814 11.1H134.554L135.994 9.68V15H132.754ZM141.654 15L138.154 9.92H141.614L145.154 15H141.654ZM135.994 10.04L134.554 8.52H138.634C139.634 8.52 140.38 8.30667 140.874 7.88C141.367 7.44 141.614 6.84 141.614 6.08C141.614 5.30667 141.367 4.70667 140.874 4.28C140.38 3.85333 139.634 3.64 138.634 3.64H134.554L135.994 2.1V10.04ZM150.441 6.64H157.181V9.16H150.441V6.64ZM150.681 12.4H158.301V15H147.461V0.999999H158.041V3.6H150.681V12.4ZM165.479 15.24C164.359 15.24 163.285 15.0933 162.259 14.8C161.232 14.4933 160.405 14.1 159.779 13.62L160.879 11.18C161.479 11.6067 162.185 11.96 162.999 12.24C163.825 12.5067 164.659 12.64 165.499 12.64C166.139 12.64 166.652 12.58 167.039 12.46C167.439 12.3267 167.732 12.1467 167.919 11.92C168.105 11.6933 168.199 11.4333 168.199 11.14C168.199 10.7667 168.052 10.4733 167.759 10.26C167.465 10.0333 167.079 9.85333 166.599 9.72C166.119 9.57333 165.585 9.44 164.999 9.32C164.425 9.18667 163.845 9.02667 163.259 8.84C162.685 8.65333 162.159 8.41333 161.679 8.12C161.199 7.82667 160.805 7.44 160.499 6.96C160.205 6.48 160.059 5.86667 160.059 5.12C160.059 4.32 160.272 3.59333 160.699 2.94C161.139 2.27333 161.792 1.74667 162.659 1.36C163.539 0.96 164.639 0.76 165.959 0.76C166.839 0.76 167.705 0.866666 168.559 1.08C169.412 1.28 170.165 1.58667 170.819 2L169.819 4.46C169.165 4.08667 168.512 3.81333 167.859 3.64C167.205 3.45333 166.565 3.36 165.939 3.36C165.312 3.36 164.799 3.43333 164.399 3.58C163.999 3.72667 163.712 3.92 163.539 4.16C163.365 4.38667 163.279 4.65333 163.279 4.96C163.279 5.32 163.425 5.61333 163.719 5.84C164.012 6.05333 164.399 6.22667 164.879 6.36C165.359 6.49333 165.885 6.62667 166.459 6.76C167.045 6.89333 167.625 7.04667 168.199 7.22C168.785 7.39333 169.319 7.62667 169.799 7.92C170.279 8.21333 170.665 8.6 170.959 9.08C171.265 9.56 171.419 10.1667 171.419 10.9C171.419 11.6867 171.199 12.4067 170.759 13.06C170.319 13.7133 169.659 14.24 168.779 14.64C167.912 15.04 166.812 15.24 165.479 15.24ZM178.233 15.24C177.113 15.24 176.039 15.0933 175.013 14.8C173.986 14.4933 173.159 14.1 172.533 13.62L173.633 11.18C174.233 11.6067 174.939 11.96 175.753 12.24C176.579 12.5067 177.413 12.64 178.253 12.64C178.893 12.64 179.406 12.58 179.793 12.46C180.193 12.3267 180.486 12.1467 180.673 11.92C180.859 11.6933 180.953 11.4333 180.953 11.14C180.953 10.7667 180.806 10.4733 180.513 10.26C180.219 10.0333 179.833 9.85333 179.353 9.72C178.873 9.57333 178.339 9.44 177.753 9.32C177.179 9.18667 176.599 9.02667 176.013 8.84C175.439 8.65333 174.913 8.41333 174.433 8.12C173.953 7.82667 173.559 7.44 173.253 6.96C172.959 6.48 172.813 5.86667 172.813 5.12C172.813 4.32 173.026 3.59333 173.453 2.94C173.893 2.27333 174.546 1.74667 175.413 1.36C176.293 0.96 177.393 0.76 178.713 0.76C179.593 0.76 180.459 0.866666 181.313 1.08C182.166 1.28 182.919 1.58667 183.573 2L182.573 4.46C181.919 4.08667 181.266 3.81333 180.613 3.64C179.959 3.45333 179.319 3.36 178.693 3.36C178.066 3.36 177.553 3.43333 177.153 3.58C176.753 3.72667 176.466 3.92 176.293 4.16C176.119 4.38667 176.033 4.65333 176.033 4.96C176.033 5.32 176.179 5.61333 176.473 5.84C176.766 6.05333 177.153 6.22667 177.633 6.36C178.113 6.49333 178.639 6.62667 179.213 6.76C179.799 6.89333 180.379 7.04667 180.953 7.22C181.539 7.39333 182.073 7.62667 182.553 7.92C183.033 8.21333 183.419 8.6 183.713 9.08C184.019 9.56 184.173 10.1667 184.173 10.9C184.173 11.6867 183.953 12.4067 183.513 13.06C183.073 13.7133 182.413 14.24 181.533 14.64C180.666 15.04 179.566 15.24 178.233 15.24Z" fill="#FEAE00"/>
</svg>
