<svg width="214" height="25" viewBox="0 0 214 25" fill="none" xmlns="http://www.w3.org/2000/svg">
<path d="M31.472 15L29.096 8.7H29.912L32.072 14.544H31.7L33.92 8.7H34.652L36.848 14.544H36.476L38.672 8.7H39.452L37.064 15H36.26L34.148 9.504H34.4L32.276 15H31.472ZM41.9603 15L39.5843 8.7H40.4003L42.5603 14.544H42.1883L44.4083 8.7H45.1403L47.3363 14.544H46.9643L49.1603 8.7H49.9403L47.5523 15H46.7483L44.6363 9.504H44.8883L42.7643 15H41.9603ZM52.4486 15L50.0726 8.7H50.8886L53.0486 14.544H52.6766L54.8966 8.7H55.6286L57.8246 14.544H57.4526L59.6486 8.7H60.4286L58.0406 15H57.2366L55.1246 9.504H55.3766L53.2526 15H52.4486ZM61.3853 15.06C61.2093 15.06 61.0573 14.996 60.9293 14.868C60.8093 14.74 60.7493 14.584 60.7493 14.4C60.7493 14.208 60.8093 14.052 60.9293 13.932C61.0573 13.812 61.2093 13.752 61.3853 13.752C61.5613 13.752 61.7093 13.812 61.8293 13.932C61.9573 14.052 62.0213 14.208 62.0213 14.4C62.0213 14.584 61.9573 14.74 61.8293 14.868C61.7093 14.996 61.5613 15.06 61.3853 15.06ZM65.7425 15.06C65.1505 15.06 64.6945 14.9 64.3745 14.58C64.0545 14.26 63.8945 13.808 63.8945 13.224V7.308H64.7465V13.176C64.7465 13.544 64.8385 13.828 65.0225 14.028C65.2145 14.228 65.4865 14.328 65.8385 14.328C66.2145 14.328 66.5265 14.22 66.7745 14.004L67.0745 14.616C66.9065 14.768 66.7025 14.88 66.4625 14.952C66.2305 15.024 65.9905 15.06 65.7425 15.06ZM62.7665 9.408V8.7H66.6665V9.408H62.7665ZM71.0788 15.06C70.4228 15.06 69.8468 14.924 69.3508 14.652C68.8548 14.372 68.4668 13.992 68.1868 13.512C67.9068 13.024 67.7668 12.468 67.7668 11.844C67.7668 11.22 67.8988 10.668 68.1628 10.188C68.4348 9.708 68.8028 9.332 69.2668 9.06C69.7388 8.78 70.2668 8.64 70.8508 8.64C71.4428 8.64 71.9668 8.776 72.4228 9.048C72.8868 9.312 73.2508 9.688 73.5148 10.176C73.7788 10.656 73.9108 11.212 73.9108 11.844C73.9108 11.884 73.9068 11.928 73.8988 11.976C73.8988 12.016 73.8988 12.06 73.8988 12.108H68.4148V11.472H73.4428L73.1068 11.724C73.1068 11.268 73.0068 10.864 72.8068 10.512C72.6148 10.152 72.3508 9.872 72.0148 9.672C71.6788 9.472 71.2908 9.372 70.8508 9.372C70.4188 9.372 70.0308 9.472 69.6868 9.672C69.3428 9.872 69.0748 10.152 68.8828 10.512C68.6908 10.872 68.5948 11.284 68.5948 11.748V11.88C68.5948 12.36 68.6988 12.784 68.9068 13.152C69.1228 13.512 69.4188 13.796 69.7948 14.004C70.1788 14.204 70.6148 14.304 71.1028 14.304C71.4868 14.304 71.8428 14.236 72.1708 14.1C72.5068 13.964 72.7948 13.756 73.0348 13.476L73.5148 14.028C73.2348 14.364 72.8828 14.62 72.4588 14.796C72.0428 14.972 71.5828 15.06 71.0788 15.06ZM75.645 15V8.7H76.461V10.416L76.377 10.116C76.553 9.636 76.849 9.272 77.265 9.024C77.681 8.768 78.197 8.64 78.813 8.64V9.468C78.781 9.468 78.749 9.468 78.717 9.468C78.685 9.46 78.653 9.456 78.621 9.456C77.957 9.456 77.437 9.66 77.061 10.068C76.685 10.468 76.497 11.04 76.497 11.784V15H75.645ZM80.3677 15V8.7H81.1837V10.416L81.0997 10.116C81.2757 9.636 81.5717 9.272 81.9877 9.024C82.4037 8.768 82.9197 8.64 83.5357 8.64V9.468C83.5037 9.468 83.4717 9.468 83.4397 9.468C83.4077 9.46 83.3757 9.456 83.3437 9.456C82.6797 9.456 82.1597 9.66 81.7837 10.068C81.4077 10.468 81.2197 11.04 81.2197 11.784V15H80.3677ZM88.5696 15V13.608L88.5336 13.38V11.052C88.5336 10.516 88.3816 10.104 88.0776 9.816C87.7816 9.528 87.3376 9.384 86.7456 9.384C86.3376 9.384 85.9496 9.452 85.5816 9.588C85.2136 9.724 84.9016 9.904 84.6456 10.128L84.2616 9.492C84.5816 9.22 84.9656 9.012 85.4136 8.868C85.8616 8.716 86.3336 8.64 86.8296 8.64C87.6456 8.64 88.2736 8.844 88.7136 9.252C89.1616 9.652 89.3856 10.264 89.3856 11.088V15H88.5696ZM86.3976 15.06C85.9256 15.06 85.5136 14.984 85.1616 14.832C84.8176 14.672 84.5536 14.456 84.3696 14.184C84.1856 13.904 84.0936 13.584 84.0936 13.224C84.0936 12.896 84.1696 12.6 84.3216 12.336C84.4816 12.064 84.7376 11.848 85.0896 11.688C85.4496 11.52 85.9296 11.436 86.5296 11.436H88.7016V12.072H86.5536C85.9456 12.072 85.5216 12.18 85.2816 12.396C85.0496 12.612 84.9336 12.88 84.9336 13.2C84.9336 13.56 85.0736 13.848 85.3536 14.064C85.6336 14.28 86.0256 14.388 86.5296 14.388C87.0096 14.388 87.4216 14.28 87.7656 14.064C88.1176 13.84 88.3736 13.52 88.5336 13.104L88.7256 13.692C88.5656 14.108 88.2856 14.44 87.8856 14.688C87.4936 14.936 86.9976 15.06 86.3976 15.06ZM93.6917 15.06C93.0997 15.06 92.6437 14.9 92.3237 14.58C92.0037 14.26 91.8437 13.808 91.8437 13.224V7.308H92.6957V13.176C92.6957 13.544 92.7877 13.828 92.9717 14.028C93.1637 14.228 93.4357 14.328 93.7877 14.328C94.1637 14.328 94.4757 14.22 94.7237 14.004L95.0237 14.616C94.8557 14.768 94.6517 14.88 94.4117 14.952C94.1797 15.024 93.9397 15.06 93.6917 15.06ZM90.7157 9.408V8.7H94.6157V9.408H90.7157ZM99.0281 15.06C98.3721 15.06 97.7961 14.924 97.3001 14.652C96.8041 14.372 96.4161 13.992 96.1361 13.512C95.8561 13.024 95.7161 12.468 95.7161 11.844C95.7161 11.22 95.8481 10.668 96.1121 10.188C96.3841 9.708 96.7521 9.332 97.2161 9.06C97.6881 8.78 98.2161 8.64 98.8001 8.64C99.3921 8.64 99.9161 8.776 100.372 9.048C100.836 9.312 101.2 9.688 101.464 10.176C101.728 10.656 101.86 11.212 101.86 11.844C101.86 11.884 101.856 11.928 101.848 11.976C101.848 12.016 101.848 12.06 101.848 12.108H96.3641V11.472H101.392L101.056 11.724C101.056 11.268 100.956 10.864 100.756 10.512C100.564 10.152 100.3 9.872 99.9641 9.672C99.6281 9.472 99.2401 9.372 98.8001 9.372C98.3681 9.372 97.9801 9.472 97.6361 9.672C97.2921 9.872 97.0241 10.152 96.8321 10.512C96.6401 10.872 96.5441 11.284 96.5441 11.748V11.88C96.5441 12.36 96.6481 12.784 96.8561 13.152C97.0721 13.512 97.3681 13.796 97.7441 14.004C98.1281 14.204 98.5641 14.304 99.0521 14.304C99.4361 14.304 99.7921 14.236 100.12 14.1C100.456 13.964 100.744 13.756 100.984 13.476L101.464 14.028C101.184 14.364 100.832 14.62 100.408 14.796C99.9921 14.972 99.5321 15.06 99.0281 15.06ZM106.21 15.06C105.586 15.06 105.026 14.924 104.53 14.652C104.042 14.372 103.658 13.992 103.378 13.512C103.098 13.024 102.958 12.468 102.958 11.844C102.958 11.212 103.098 10.656 103.378 10.176C103.658 9.696 104.042 9.32 104.53 9.048C105.026 8.776 105.586 8.64 106.21 8.64C106.746 8.64 107.23 8.744 107.662 8.952C108.094 9.16 108.434 9.472 108.682 9.888L108.046 10.32C107.83 10 107.562 9.764 107.242 9.612C106.922 9.46 106.574 9.384 106.198 9.384C105.75 9.384 105.346 9.488 104.986 9.696C104.626 9.896 104.342 10.18 104.134 10.548C103.926 10.916 103.822 11.348 103.822 11.844C103.822 12.34 103.926 12.772 104.134 13.14C104.342 13.508 104.626 13.796 104.986 14.004C105.346 14.204 105.75 14.304 106.198 14.304C106.574 14.304 106.922 14.228 107.242 14.076C107.562 13.924 107.83 13.692 108.046 13.38L108.682 13.812C108.434 14.22 108.094 14.532 107.662 14.748C107.23 14.956 106.746 15.06 106.21 15.06ZM113.478 8.64C113.99 8.64 114.438 8.74 114.822 8.94C115.214 9.132 115.518 9.428 115.734 9.828C115.958 10.228 116.07 10.732 116.07 11.34V15H115.218V11.424C115.218 10.76 115.05 10.26 114.714 9.924C114.386 9.58 113.922 9.408 113.322 9.408C112.874 9.408 112.482 9.5 112.146 9.684C111.818 9.86 111.562 10.12 111.378 10.464C111.202 10.8 111.114 11.208 111.114 11.688V15H110.262V6.096H111.114V10.428L110.946 10.104C111.146 9.648 111.466 9.292 111.906 9.036C112.346 8.772 112.87 8.64 113.478 8.64ZM121.624 15.06C121.08 15.06 120.588 14.936 120.148 14.688C119.708 14.432 119.356 14.068 119.092 13.596C118.836 13.116 118.708 12.532 118.708 11.844C118.708 11.156 118.836 10.576 119.092 10.104C119.348 9.624 119.696 9.26 120.136 9.012C120.576 8.764 121.072 8.64 121.624 8.64C122.224 8.64 122.76 8.776 123.232 9.048C123.712 9.312 124.088 9.688 124.36 10.176C124.632 10.656 124.768 11.212 124.768 11.844C124.768 12.484 124.632 13.044 124.36 13.524C124.088 14.004 123.712 14.38 123.232 14.652C122.76 14.924 122.224 15.06 121.624 15.06ZM118.372 17.328V8.7H119.188V10.596L119.104 11.856L119.224 13.128V17.328H118.372ZM121.564 14.304C122.012 14.304 122.412 14.204 122.764 14.004C123.116 13.796 123.396 13.508 123.604 13.14C123.812 12.764 123.916 12.332 123.916 11.844C123.916 11.356 123.812 10.928 123.604 10.56C123.396 10.192 123.116 9.904 122.764 9.696C122.412 9.488 122.012 9.384 121.564 9.384C121.116 9.384 120.712 9.488 120.352 9.696C120 9.904 119.72 10.192 119.512 10.56C119.312 10.928 119.212 11.356 119.212 11.844C119.212 12.332 119.312 12.764 119.512 13.14C119.72 13.508 120 13.796 120.352 14.004C120.712 14.204 121.116 14.304 121.564 14.304ZM130.417 15V13.608L130.381 13.38V11.052C130.381 10.516 130.229 10.104 129.925 9.816C129.629 9.528 129.185 9.384 128.593 9.384C128.185 9.384 127.797 9.452 127.429 9.588C127.061 9.724 126.749 9.904 126.493 10.128L126.109 9.492C126.429 9.22 126.813 9.012 127.261 8.868C127.709 8.716 128.181 8.64 128.677 8.64C129.493 8.64 130.121 8.844 130.561 9.252C131.009 9.652 131.233 10.264 131.233 11.088V15H130.417ZM128.245 15.06C127.773 15.06 127.361 14.984 127.009 14.832C126.665 14.672 126.401 14.456 126.217 14.184C126.033 13.904 125.941 13.584 125.941 13.224C125.941 12.896 126.017 12.6 126.169 12.336C126.329 12.064 126.585 11.848 126.937 11.688C127.297 11.52 127.777 11.436 128.377 11.436H130.549V12.072H128.401C127.793 12.072 127.369 12.18 127.129 12.396C126.897 12.612 126.781 12.88 126.781 13.2C126.781 13.56 126.921 13.848 127.201 14.064C127.481 14.28 127.873 14.388 128.377 14.388C128.857 14.388 129.269 14.28 129.613 14.064C129.965 13.84 130.221 13.52 130.381 13.104L130.573 13.692C130.413 14.108 130.133 14.44 129.733 14.688C129.341 14.936 128.845 15.06 128.245 15.06ZM136.163 15.06C135.539 15.06 134.979 14.924 134.483 14.652C133.995 14.372 133.611 13.992 133.331 13.512C133.051 13.024 132.911 12.468 132.911 11.844C132.911 11.212 133.051 10.656 133.331 10.176C133.611 9.696 133.995 9.32 134.483 9.048C134.979 8.776 135.539 8.64 136.163 8.64C136.699 8.64 137.183 8.744 137.615 8.952C138.047 9.16 138.387 9.472 138.635 9.888L137.999 10.32C137.783 10 137.515 9.764 137.195 9.612C136.875 9.46 136.527 9.384 136.151 9.384C135.703 9.384 135.299 9.488 134.939 9.696C134.579 9.896 134.295 10.18 134.087 10.548C133.879 10.916 133.775 11.348 133.775 11.844C133.775 12.34 133.879 12.772 134.087 13.14C134.295 13.508 134.579 13.796 134.939 14.004C135.299 14.204 135.703 14.304 136.151 14.304C136.527 14.304 136.875 14.228 137.195 14.076C137.515 13.924 137.783 13.692 137.999 13.38L138.635 13.812C138.387 14.22 138.047 14.532 137.615 14.748C137.183 14.956 136.699 15.06 136.163 15.06ZM140.887 13.368L140.911 12.276L144.835 8.7H145.879L143.107 11.352L142.627 11.76L140.887 13.368ZM140.215 15V6.096H141.067V15H140.215ZM145.099 15L142.471 11.724L143.023 11.064L146.143 15H145.099ZM148.927 15.06C148.407 15.06 147.915 14.988 147.451 14.844C146.987 14.692 146.623 14.504 146.359 14.28L146.743 13.608C146.999 13.8 147.327 13.968 147.727 14.112C148.127 14.248 148.547 14.316 148.987 14.316C149.587 14.316 150.019 14.224 150.283 14.04C150.547 13.848 150.679 13.596 150.679 13.284C150.679 13.052 150.603 12.872 150.451 12.744C150.307 12.608 150.115 12.508 149.875 12.444C149.635 12.372 149.367 12.312 149.071 12.264C148.775 12.216 148.479 12.16 148.183 12.096C147.895 12.032 147.631 11.94 147.391 11.82C147.151 11.692 146.955 11.52 146.803 11.304C146.659 11.088 146.587 10.8 146.587 10.44C146.587 10.096 146.683 9.788 146.875 9.516C147.067 9.244 147.347 9.032 147.715 8.88C148.091 8.72 148.547 8.64 149.083 8.64C149.491 8.64 149.899 8.696 150.307 8.808C150.715 8.912 151.051 9.052 151.315 9.228L150.943 9.912C150.663 9.72 150.363 9.584 150.043 9.504C149.723 9.416 149.403 9.372 149.083 9.372C148.515 9.372 148.095 9.472 147.823 9.672C147.559 9.864 147.427 10.112 147.427 10.416C147.427 10.656 147.499 10.844 147.643 10.98C147.795 11.116 147.991 11.224 148.231 11.304C148.479 11.376 148.747 11.436 149.035 11.484C149.331 11.532 149.623 11.592 149.911 11.664C150.207 11.728 150.475 11.82 150.715 11.94C150.963 12.052 151.159 12.216 151.303 12.432C151.455 12.64 151.531 12.916 151.531 13.26C151.531 13.628 151.427 13.948 151.219 14.22C151.019 14.484 150.723 14.692 150.331 14.844C149.947 14.988 149.479 15.06 148.927 15.06ZM153.178 15.06C153.002 15.06 152.85 14.996 152.722 14.868C152.602 14.74 152.542 14.584 152.542 14.4C152.542 14.208 152.602 14.052 152.722 13.932C152.85 13.812 153.002 13.752 153.178 13.752C153.354 13.752 153.502 13.812 153.622 13.932C153.75 14.052 153.814 14.208 153.814 14.4C153.814 14.584 153.75 14.74 153.622 14.868C153.502 14.996 153.354 15.06 153.178 15.06ZM158.077 15.06C157.453 15.06 156.893 14.924 156.397 14.652C155.909 14.372 155.525 13.992 155.245 13.512C154.965 13.024 154.825 12.468 154.825 11.844C154.825 11.212 154.965 10.656 155.245 10.176C155.525 9.696 155.909 9.32 156.397 9.048C156.893 8.776 157.453 8.64 158.077 8.64C158.613 8.64 159.097 8.744 159.529 8.952C159.961 9.16 160.301 9.472 160.549 9.888L159.913 10.32C159.697 10 159.429 9.764 159.109 9.612C158.789 9.46 158.441 9.384 158.065 9.384C157.617 9.384 157.213 9.488 156.853 9.696C156.493 9.896 156.209 10.18 156.001 10.548C155.793 10.916 155.689 11.348 155.689 11.844C155.689 12.34 155.793 12.772 156.001 13.14C156.209 13.508 156.493 13.796 156.853 14.004C157.213 14.204 157.617 14.304 158.065 14.304C158.441 14.304 158.789 14.228 159.109 14.076C159.429 13.924 159.697 13.692 159.913 13.38L160.549 13.812C160.301 14.22 159.961 14.532 159.529 14.748C159.097 14.956 158.613 15.06 158.077 15.06ZM164.686 15.06C164.078 15.06 163.53 14.924 163.042 14.652C162.562 14.372 162.182 13.992 161.902 13.512C161.622 13.024 161.482 12.468 161.482 11.844C161.482 11.212 161.622 10.656 161.902 10.176C162.182 9.696 162.562 9.32 163.042 9.048C163.522 8.776 164.07 8.64 164.686 8.64C165.31 8.64 165.862 8.776 166.342 9.048C166.83 9.32 167.21 9.696 167.482 10.176C167.762 10.656 167.902 11.212 167.902 11.844C167.902 12.468 167.762 13.024 167.482 13.512C167.21 13.992 166.83 14.372 166.342 14.652C165.854 14.924 165.302 15.06 164.686 15.06ZM164.686 14.304C165.142 14.304 165.546 14.204 165.898 14.004C166.25 13.796 166.526 13.508 166.726 13.14C166.934 12.764 167.038 12.332 167.038 11.844C167.038 11.348 166.934 10.916 166.726 10.548C166.526 10.18 166.25 9.896 165.898 9.696C165.546 9.488 165.146 9.384 164.698 9.384C164.25 9.384 163.85 9.488 163.498 9.696C163.146 9.896 162.866 10.18 162.658 10.548C162.45 10.916 162.346 11.348 162.346 11.844C162.346 12.332 162.45 12.764 162.658 13.14C162.866 13.508 163.146 13.796 163.498 14.004C163.85 14.204 164.246 14.304 164.686 14.304ZM177.513 8.64C178.025 8.64 178.469 8.74 178.845 8.94C179.229 9.132 179.525 9.428 179.733 9.828C179.949 10.228 180.057 10.732 180.057 11.34V15H179.205V11.424C179.205 10.76 179.045 10.26 178.725 9.924C178.413 9.58 177.969 9.408 177.393 9.408C176.961 9.408 176.585 9.5 176.265 9.684C175.953 9.86 175.709 10.12 175.533 10.464C175.365 10.8 175.281 11.208 175.281 11.688V15H174.429V11.424C174.429 10.76 174.269 10.26 173.949 9.924C173.629 9.58 173.181 9.408 172.605 9.408C172.181 9.408 171.809 9.5 171.489 9.684C171.169 9.86 170.921 10.12 170.745 10.464C170.577 10.8 170.493 11.208 170.493 11.688V15H169.641V8.7H170.457V10.404L170.325 10.104C170.517 9.648 170.825 9.292 171.249 9.036C171.681 8.772 172.189 8.64 172.773 8.64C173.389 8.64 173.913 8.796 174.345 9.108C174.777 9.412 175.057 9.872 175.185 10.488L174.849 10.356C175.033 9.844 175.357 9.432 175.821 9.12C176.293 8.8 176.857 8.64 177.513 8.64Z" fill="black"/>
<g clip-path="url(#clip0_313_75)">
<path d="M6.979 12.5001C6.98318 13.6545 7.12776 14.8041 7.40956 15.9237H11.9096V9.34033H7.34706C7.10729 10.3766 6.98384 11.4364 6.979 12.5001Z" fill="#FEAE00"/>
<path d="M13.0903 9.34033V15.9237H17.5903C17.8838 14.8056 18.0401 13.6559 18.0556 12.5001C18.0531 11.4367 17.9319 10.3769 17.6945 9.34033H13.0903Z" fill="#FEAE00"/>
<path d="M12.4998 1.38892C10.3022 1.38892 8.154 2.04057 6.32679 3.26148C4.49957 4.48238 3.07543 6.2177 2.23446 8.24799C1.39349 10.2783 1.17345 12.5124 1.60217 14.6677C2.0309 16.823 3.08913 18.8029 4.64305 20.3568C6.19696 21.9107 8.17677 22.9689 10.3321 23.3976C12.4875 23.8264 14.7215 23.6063 16.7518 22.7654C18.7821 21.9244 20.5174 20.5002 21.7383 18.673C22.9592 16.8458 23.6109 14.6976 23.6109 12.5C23.6109 9.55318 22.4403 6.72702 20.3565 4.64329C18.2728 2.55955 15.4466 1.38892 12.4998 1.38892ZM20.9859 17.1597H18.472C17.9967 18.6478 17.2939 20.0533 16.3887 21.3264C15.7204 21.6168 15.0215 21.8311 14.3053 21.9653C15.5885 20.5713 16.5759 18.9319 17.2081 17.1459H13.097V22.1111H11.9234V17.1597H7.79145C8.42282 18.9482 9.41031 20.5901 10.6942 21.9861C9.99279 21.8534 9.30811 21.6438 8.65257 21.3611C7.74411 20.0774 7.04123 18.6599 6.56923 17.1597H4.01368C3.79196 16.755 3.59934 16.3349 3.43729 15.9028H6.21507C5.95478 14.787 5.81969 13.6457 5.81229 12.5C5.81328 11.4381 5.925 10.3791 6.14562 9.3403H3.30534C3.45164 8.90949 3.628 8.48948 3.83312 8.08336H6.47895C6.97589 6.43011 7.74577 4.87158 8.75673 3.47225C9.39835 3.20721 10.0665 3.01165 10.7498 2.88892C9.36777 4.37119 8.3251 6.13662 7.69423 8.06253H11.9234V2.7778H13.097V8.08336H17.3262C16.6964 6.16054 15.6562 4.39761 14.2776 2.91669C14.9598 3.03046 15.6279 3.2167 16.2706 3.47225C17.2757 4.86147 18.0431 6.40798 18.5415 8.04864H21.1595C21.3646 8.45475 21.541 8.87477 21.6873 9.30558H18.8678C19.0932 10.3555 19.2073 11.4262 19.2081 12.5C19.2046 13.6524 19.0718 14.8008 18.8123 15.9236H21.5901C21.4181 16.3494 21.2162 16.7625 20.9859 17.1597Z" fill="#FEAE00"/>
</g>
<defs>
<clipPath id="clip0_313_75">
<rect width="25" height="25" fill="white"/>
</clipPath>
</defs>
</svg>
