<svg width="94" height="11" viewBox="0 0 94 11" fill="none" xmlns="http://www.w3.org/2000/svg">
<path d="M3.1392 2.54545V3.25568H0.3125V2.54545H3.1392ZM1.13636 1.23864H1.97443V6.4375C1.97443 6.67424 2.00876 6.8518 2.07741 6.97017C2.14844 7.08617 2.2384 7.1643 2.3473 7.20455C2.45857 7.24242 2.57576 7.26136 2.69886 7.26136C2.79119 7.26136 2.86695 7.25663 2.92614 7.24716C2.98532 7.23532 3.03267 7.22585 3.06818 7.21875L3.23864 7.97159C3.18182 7.9929 3.10251 8.0142 3.00071 8.03551C2.89891 8.05919 2.76989 8.07102 2.61364 8.07102C2.37689 8.07102 2.14489 8.02012 1.91761 7.91832C1.69271 7.81652 1.50568 7.66146 1.35653 7.45312C1.20975 7.24479 1.13636 6.98201 1.13636 6.66477V1.23864ZM6.6282 8.11364C6.10263 8.11364 5.64927 7.99763 5.26811 7.76562C4.88932 7.53125 4.59695 7.20455 4.39098 6.78551C4.18738 6.36411 4.08558 5.87405 4.08558 5.31534C4.08558 4.75663 4.18738 4.2642 4.39098 3.83807C4.59695 3.40956 4.8834 3.07576 5.25036 2.83665C5.61967 2.59517 6.05054 2.47443 6.54297 2.47443C6.82706 2.47443 7.1076 2.52178 7.38459 2.61648C7.66158 2.71117 7.91371 2.86506 8.14098 3.07812C8.36825 3.28883 8.54936 3.56818 8.6843 3.91619C8.81925 4.2642 8.88672 4.69271 8.88672 5.2017V5.55682H4.68217V4.83239H8.03445C8.03445 4.52462 7.97289 4.25 7.84979 4.00852C7.72905 3.76705 7.55623 3.57647 7.33132 3.43679C7.10878 3.29711 6.846 3.22727 6.54297 3.22727C6.20916 3.22727 5.92034 3.31013 5.67649 3.47585C5.43501 3.6392 5.24917 3.85227 5.11896 4.11506C4.98875 4.37784 4.92365 4.65956 4.92365 4.96023V5.44318C4.92365 5.85511 4.99467 6.20431 5.13672 6.49077C5.28113 6.77486 5.48118 6.99148 5.73686 7.14062C5.99254 7.28741 6.28965 7.3608 6.6282 7.3608C6.84837 7.3608 7.04723 7.33002 7.22479 7.26847C7.40471 7.20455 7.55978 7.10985 7.68999 6.98438C7.82019 6.85653 7.92081 6.69792 7.99183 6.50852L8.80149 6.7358C8.71626 7.01042 8.57304 7.25189 8.3718 7.46023C8.17057 7.66619 7.92199 7.82718 7.62607 7.94318C7.33014 8.05682 6.99751 8.11364 6.6282 8.11364ZM10.1616 8V2.54545H10.9712V3.36932H11.0281C11.1275 3.09943 11.3074 2.88045 11.5678 2.71236C11.8282 2.54427 12.1218 2.46023 12.4485 2.46023C12.5101 2.46023 12.587 2.46141 12.6793 2.46378C12.7717 2.46615 12.8415 2.4697 12.8888 2.47443V3.3267C12.8604 3.3196 12.7953 3.30895 12.6935 3.29474C12.5941 3.27817 12.4888 3.26989 12.3775 3.26989C12.1123 3.26989 11.8756 3.32552 11.6673 3.43679C11.4613 3.54569 11.2979 3.69721 11.1772 3.89134C11.0588 4.0831 10.9996 4.30208 10.9996 4.5483V8H10.1616ZM13.8823 8V2.54545H14.6919V3.36932H14.7488C14.8482 3.09943 15.0281 2.88045 15.2885 2.71236C15.5489 2.54427 15.8425 2.46023 16.1692 2.46023C16.2308 2.46023 16.3077 2.46141 16.4 2.46378C16.4924 2.46615 16.5622 2.4697 16.6096 2.47443V3.3267C16.5811 3.3196 16.516 3.30895 16.4142 3.29474C16.3148 3.27817 16.2095 3.26989 16.0982 3.26989C15.833 3.26989 15.5963 3.32552 15.388 3.43679C15.182 3.54569 15.0186 3.69721 14.8979 3.89134C14.7795 4.0831 14.7203 4.30208 14.7203 4.5483V8H13.8823ZM19.2081 8.12784C18.8625 8.12784 18.5488 8.06274 18.267 7.93253C17.9853 7.79995 17.7616 7.60938 17.5959 7.3608C17.4302 7.10985 17.3473 6.80682 17.3473 6.4517C17.3473 6.1392 17.4089 5.88589 17.532 5.69176C17.6551 5.49527 17.8196 5.34138 18.0256 5.23011C18.2315 5.11884 18.4588 5.03598 18.7074 4.98153C18.9583 4.92472 19.2105 4.87973 19.4638 4.84659C19.7952 4.80398 20.0639 4.77202 20.2699 4.75071C20.4782 4.72704 20.6297 4.68797 20.7244 4.63352C20.8215 4.57907 20.87 4.48437 20.87 4.34943V4.32102C20.87 3.97064 20.7741 3.69839 20.5824 3.50426C20.393 3.31013 20.1054 3.21307 19.7195 3.21307C19.3194 3.21307 19.0057 3.30066 18.7784 3.47585C18.5511 3.65104 18.3913 3.83807 18.299 4.03693L17.5036 3.75284C17.6456 3.4214 17.835 3.16335 18.0717 2.97869C18.3108 2.79167 18.5713 2.66146 18.853 2.58807C19.1371 2.51231 19.4164 2.47443 19.6911 2.47443C19.8662 2.47443 20.0675 2.49574 20.2947 2.53835C20.5244 2.5786 20.7457 2.66264 20.9588 2.79048C21.1742 2.91832 21.353 3.11127 21.495 3.36932C21.6371 3.62737 21.7081 3.97301 21.7081 4.40625V8H20.87V7.26136H20.8274C20.7706 7.37973 20.6759 7.50639 20.5433 7.64134C20.4107 7.77628 20.2344 7.8911 20.0142 7.9858C19.794 8.08049 19.5253 8.12784 19.2081 8.12784ZM19.3359 7.375C19.6674 7.375 19.9467 7.3099 20.174 7.17969C20.4036 7.04948 20.5765 6.88139 20.6925 6.67543C20.8108 6.46946 20.87 6.25284 20.87 6.02557V5.25852C20.8345 5.30114 20.7564 5.3402 20.6357 5.37571C20.5173 5.40885 20.38 5.43845 20.2237 5.46449C20.0698 5.48816 19.9195 5.50947 19.7727 5.52841C19.6283 5.54498 19.5111 5.55919 19.4212 5.57102C19.2034 5.59943 18.9998 5.6456 18.8104 5.70952C18.6233 5.77107 18.4718 5.86458 18.3558 5.99006C18.2422 6.11316 18.1854 6.28125 18.1854 6.49432C18.1854 6.78551 18.2931 7.00568 18.5085 7.15483C18.7263 7.30161 19.0021 7.375 19.3359 7.375ZM25.6099 2.54545V3.25568H22.7832V2.54545H25.6099ZM23.6071 1.23864H24.4451V6.4375C24.4451 6.67424 24.4795 6.8518 24.5481 6.97017C24.6191 7.08617 24.7091 7.1643 24.818 7.20455C24.9293 7.24242 25.0465 7.26136 25.1696 7.26136C25.2619 7.26136 25.3377 7.25663 25.3968 7.24716C25.456 7.23532 25.5034 7.22585 25.5389 7.21875L25.7093 7.97159C25.6525 7.9929 25.5732 8.0142 25.4714 8.03551C25.3696 8.05919 25.2406 8.07102 25.0843 8.07102C24.8476 8.07102 24.6156 8.02012 24.3883 7.91832C24.1634 7.81652 23.9764 7.66146 23.8272 7.45312C23.6805 7.24479 23.6071 6.98201 23.6071 6.66477V1.23864ZM29.0989 8.11364C28.5733 8.11364 28.12 7.99763 27.7388 7.76562C27.36 7.53125 27.0676 7.20455 26.8617 6.78551C26.6581 6.36411 26.5563 5.87405 26.5563 5.31534C26.5563 4.75663 26.6581 4.2642 26.8617 3.83807C27.0676 3.40956 27.3541 3.07576 27.7211 2.83665C28.0904 2.59517 28.5212 2.47443 29.0137 2.47443C29.2978 2.47443 29.5783 2.52178 29.8553 2.61648C30.1323 2.71117 30.3844 2.86506 30.6117 3.07812C30.839 3.28883 31.0201 3.56818 31.155 3.91619C31.29 4.2642 31.3574 4.69271 31.3574 5.2017V5.55682H27.1529V4.83239H30.5051C30.5051 4.52462 30.4436 4.25 30.3205 4.00852C30.1998 3.76705 30.0269 3.57647 29.802 3.43679C29.5795 3.29711 29.3167 3.22727 29.0137 3.22727C28.6799 3.22727 28.391 3.31013 28.1472 3.47585C27.9057 3.6392 27.7199 3.85227 27.5897 4.11506C27.4595 4.37784 27.3944 4.65956 27.3944 4.96023V5.44318C27.3944 5.85511 27.4654 6.20431 27.6074 6.49077C27.7518 6.77486 27.9519 6.99148 28.2076 7.14062C28.4632 7.28741 28.7604 7.3608 29.0989 7.3608C29.3191 7.3608 29.5179 7.33002 29.6955 7.26847C29.8754 7.20455 30.0305 7.10985 30.1607 6.98438C30.2909 6.85653 30.3915 6.69792 30.4625 6.50852L31.2722 6.7358C31.187 7.01042 31.0437 7.25189 30.8425 7.46023C30.6413 7.66619 30.3927 7.82718 30.0968 7.94318C29.8008 8.05682 29.4682 8.11364 29.0989 8.11364ZM34.8482 8.11364C34.3368 8.11364 33.8965 7.9929 33.5272 7.75142C33.1578 7.50994 32.8738 7.17732 32.6749 6.75355C32.476 6.32978 32.3766 5.84564 32.3766 5.30114C32.3766 4.74716 32.4784 4.25829 32.682 3.83452C32.888 3.40838 33.1744 3.07576 33.5414 2.83665C33.9107 2.59517 34.3416 2.47443 34.834 2.47443C35.2175 2.47443 35.5632 2.54545 35.8709 2.6875C36.1787 2.82955 36.4308 3.02841 36.6273 3.28409C36.8238 3.53977 36.9457 3.83807 36.9931 4.17898H36.155C36.0911 3.9304 35.949 3.71023 35.7289 3.51847C35.5111 3.32434 35.2175 3.22727 34.8482 3.22727C34.5215 3.22727 34.235 3.3125 33.9888 3.48295C33.745 3.65104 33.5544 3.88897 33.4171 4.19673C33.2821 4.50213 33.2147 4.8608 33.2147 5.27273C33.2147 5.69413 33.281 6.06108 33.4135 6.37358C33.5485 6.68608 33.7379 6.92874 33.9817 7.10156C34.2279 7.27438 34.5167 7.3608 34.8482 7.3608C35.066 7.3608 35.2637 7.32292 35.4412 7.24716C35.6188 7.1714 35.7691 7.0625 35.8922 6.92045C36.0153 6.77841 36.1029 6.60795 36.155 6.40909H36.9931C36.9457 6.73106 36.8285 7.02107 36.6415 7.27912C36.4569 7.5348 36.2118 7.7384 35.9064 7.88991C35.6034 8.03906 35.2507 8.11364 34.8482 8.11364ZM39.0563 4.71875V8H38.2182V0.727273H39.0563V3.39773H39.1273C39.2551 3.116 39.4469 2.89228 39.7026 2.72656C39.9606 2.55848 40.3039 2.47443 40.7324 2.47443C41.1041 2.47443 41.4296 2.54901 41.709 2.69815C41.9883 2.84493 42.205 3.07102 42.3588 3.37642C42.5151 3.67945 42.5932 4.06534 42.5932 4.53409V8H41.7551V4.59091C41.7551 4.15767 41.6427 3.82268 41.4178 3.58594C41.1953 3.34683 40.8863 3.22727 40.4909 3.22727C40.2163 3.22727 39.9701 3.28527 39.7523 3.40128C39.5369 3.51728 39.3664 3.68655 39.2409 3.90909C39.1178 4.13163 39.0563 4.40152 39.0563 4.71875ZM44.1264 10.0455V2.54545H44.9361V3.41193H45.0355C45.0971 3.31723 45.1823 3.1965 45.2912 3.04972C45.4025 2.90057 45.5611 2.76799 45.767 2.65199C45.9754 2.53362 46.2571 2.47443 46.6122 2.47443C47.0715 2.47443 47.4763 2.58925 47.8267 2.81889C48.1771 3.04853 48.4505 3.37405 48.647 3.79545C48.8435 4.21686 48.9418 4.71402 48.9418 5.28693C48.9418 5.86458 48.8435 6.36529 48.647 6.78906C48.4505 7.21046 48.1783 7.53717 47.8303 7.76918C47.4822 7.99882 47.081 8.11364 46.6264 8.11364C46.276 8.11364 45.9955 8.05563 45.7848 7.93963C45.5741 7.82126 45.4119 7.6875 45.2983 7.53835C45.1847 7.38684 45.0971 7.26136 45.0355 7.16193H44.9645V10.0455H44.1264ZM44.9503 5.27273C44.9503 5.68466 45.0107 6.04806 45.1314 6.36293C45.2521 6.67543 45.4285 6.92045 45.6605 7.09801C45.8925 7.2732 46.1766 7.3608 46.5128 7.3608C46.8632 7.3608 47.1555 7.26847 47.3899 7.08381C47.6267 6.89678 47.8042 6.64583 47.9226 6.33097C48.0433 6.01373 48.1037 5.66098 48.1037 5.27273C48.1037 4.8892 48.0445 4.54356 47.9261 4.2358C47.8101 3.92566 47.6338 3.68063 47.397 3.50071C47.1626 3.31842 46.8679 3.22727 46.5128 3.22727C46.1719 3.22727 45.8854 3.31368 45.6534 3.48651C45.4214 3.65696 45.2462 3.89607 45.1278 4.20384C45.0095 4.50923 44.9503 4.86553 44.9503 5.27273ZM51.8253 8.12784C51.4796 8.12784 51.166 8.06274 50.8842 7.93253C50.6025 7.79995 50.3788 7.60938 50.2131 7.3608C50.0473 7.10985 49.9645 6.80682 49.9645 6.4517C49.9645 6.1392 50.026 5.88589 50.1491 5.69176C50.2723 5.49527 50.4368 5.34138 50.6428 5.23011C50.8487 5.11884 51.076 5.03598 51.3246 4.98153C51.5755 4.92472 51.8277 4.87973 52.081 4.84659C52.4124 4.80398 52.6811 4.77202 52.8871 4.75071C53.0954 4.72704 53.2469 4.68797 53.3416 4.63352C53.4387 4.57907 53.4872 4.48437 53.4872 4.34943V4.32102C53.4872 3.97064 53.3913 3.69839 53.1996 3.50426C53.0102 3.31013 52.7225 3.21307 52.3366 3.21307C51.9366 3.21307 51.6229 3.30066 51.3956 3.47585C51.1683 3.65104 51.0085 3.83807 50.9162 4.03693L50.1207 3.75284C50.2628 3.4214 50.4522 3.16335 50.6889 2.97869C50.928 2.79167 51.1884 2.66146 51.4702 2.58807C51.7543 2.51231 52.0336 2.47443 52.3082 2.47443C52.4834 2.47443 52.6847 2.49574 52.9119 2.53835C53.1416 2.5786 53.3629 2.66264 53.576 2.79048C53.7914 2.91832 53.9702 3.11127 54.1122 3.36932C54.2543 3.62737 54.3253 3.97301 54.3253 4.40625V8H53.4872V7.26136H53.4446C53.3878 7.37973 53.2931 7.50639 53.1605 7.64134C53.0279 7.77628 52.8516 7.8911 52.6314 7.9858C52.4112 8.08049 52.1425 8.12784 51.8253 8.12784ZM51.9531 7.375C52.2846 7.375 52.5639 7.3099 52.7912 7.17969C53.0208 7.04948 53.1937 6.88139 53.3097 6.67543C53.428 6.46946 53.4872 6.25284 53.4872 6.02557V5.25852C53.4517 5.30114 53.3736 5.3402 53.2528 5.37571C53.1345 5.40885 52.9972 5.43845 52.8409 5.46449C52.687 5.48816 52.5367 5.50947 52.3899 5.52841C52.2455 5.54498 52.1283 5.55919 52.0384 5.57102C51.8205 5.59943 51.617 5.6456 51.4276 5.70952C51.2405 5.77107 51.089 5.86458 50.973 5.99006C50.8594 6.11316 50.8026 6.28125 50.8026 6.49432C50.8026 6.78551 50.9103 7.00568 51.1257 7.15483C51.3435 7.30161 51.6193 7.375 51.9531 7.375ZM58.0708 8.11364C57.5595 8.11364 57.1191 7.9929 56.7498 7.75142C56.3805 7.50994 56.0964 7.17732 55.8975 6.75355C55.6987 6.32978 55.5993 5.84564 55.5993 5.30114C55.5993 4.74716 55.7011 4.25829 55.9047 3.83452C56.1106 3.40838 56.3971 3.07576 56.764 2.83665C57.1333 2.59517 57.5642 2.47443 58.0566 2.47443C58.4402 2.47443 58.7858 2.54545 59.0936 2.6875C59.4013 2.82955 59.6535 3.02841 59.85 3.28409C60.0465 3.53977 60.1684 3.83807 60.2157 4.17898H59.3777C59.3137 3.9304 59.1717 3.71023 58.9515 3.51847C58.7337 3.32434 58.4402 3.22727 58.0708 3.22727C57.7441 3.22727 57.4577 3.3125 57.2115 3.48295C56.9676 3.65104 56.777 3.88897 56.6397 4.19673C56.5048 4.50213 56.4373 4.8608 56.4373 5.27273C56.4373 5.69413 56.5036 6.06108 56.6362 6.37358C56.7711 6.68608 56.9605 6.92874 57.2044 7.10156C57.4506 7.27438 57.7394 7.3608 58.0708 7.3608C58.2886 7.3608 58.4863 7.32292 58.6639 7.24716C58.8414 7.1714 58.9918 7.0625 59.1149 6.92045C59.238 6.77841 59.3256 6.60795 59.3777 6.40909H60.2157C60.1684 6.73106 60.0512 7.02107 59.8642 7.27912C59.6795 7.5348 59.4345 7.7384 59.1291 7.88991C58.8261 8.03906 58.4733 8.11364 58.0708 8.11364ZM62.2221 6.01136L62.2079 4.97443H62.3784L64.7647 2.54545H65.8017L63.2591 5.11648H63.188L62.2221 6.01136ZM61.4409 8V0.727273H62.2789V8H61.4409ZM64.9068 8L62.7761 5.30114L63.3727 4.71875L65.9721 8H64.9068ZM70.744 3.76705L69.9911 3.98011C69.9438 3.85464 69.8739 3.73272 69.7816 3.61435C69.6916 3.49361 69.5685 3.39418 69.4123 3.31605C69.256 3.23793 69.056 3.19886 68.8121 3.19886C68.4783 3.19886 68.2002 3.2758 67.9776 3.42969C67.7575 3.5812 67.6474 3.77415 67.6474 4.00852C67.6474 4.21686 67.7231 4.38139 67.8746 4.50213C68.0262 4.62287 68.2629 4.72348 68.5849 4.80398L69.3945 5.00284C69.8822 5.12121 70.2456 5.30232 70.4847 5.54616C70.7238 5.78764 70.8434 6.09896 70.8434 6.48011C70.8434 6.79261 70.7534 7.07197 70.5735 7.31818C70.396 7.56439 70.1474 7.75852 69.8278 7.90057C69.5082 8.04261 69.1365 8.11364 68.7127 8.11364C68.1564 8.11364 67.6959 7.9929 67.3313 7.75142C66.9667 7.50994 66.7359 7.1572 66.6388 6.69318L67.4343 6.49432C67.5101 6.78788 67.6533 7.00805 67.864 7.15483C68.0771 7.30161 68.3552 7.375 68.6985 7.375C69.0891 7.375 69.3993 7.29214 69.6289 7.12642C69.8609 6.95833 69.9769 6.7571 69.9769 6.52273C69.9769 6.33333 69.9106 6.17472 69.7781 6.04688C69.6455 5.91667 69.4419 5.8196 69.1673 5.75568L68.2582 5.54261C67.7586 5.42424 67.3917 5.24077 67.1573 4.99219C66.9253 4.74124 66.8093 4.42756 66.8093 4.05114C66.8093 3.74337 66.8957 3.47112 67.0685 3.23438C67.2437 2.99763 67.4817 2.81179 67.7823 2.67685C68.0853 2.5419 68.4286 2.47443 68.8121 2.47443C69.3519 2.47443 69.7757 2.5928 70.0835 2.82955C70.3936 3.06629 70.6138 3.37879 70.744 3.76705ZM72.7157 8.05682C72.5405 8.05682 72.3902 7.99408 72.2647 7.86861C72.1393 7.74313 72.0765 7.5928 72.0765 7.41761C72.0765 7.24242 72.1393 7.09209 72.2647 6.96662C72.3902 6.84115 72.5405 6.77841 72.7157 6.77841C72.8909 6.77841 73.0413 6.84115 73.1667 6.96662C73.2922 7.09209 73.3549 7.24242 73.3549 7.41761C73.3549 7.53362 73.3253 7.64015 73.2662 7.73722C73.2093 7.83428 73.1324 7.91241 73.0353 7.97159C72.9406 8.02841 72.8341 8.05682 72.7157 8.05682ZM77.0748 8.11364C76.5634 8.11364 76.123 7.9929 75.7537 7.75142C75.3844 7.50994 75.1003 7.17732 74.9015 6.75355C74.7026 6.32978 74.6032 5.84564 74.6032 5.30114C74.6032 4.74716 74.705 4.25829 74.9086 3.83452C75.1145 3.40838 75.401 3.07576 75.7679 2.83665C76.1373 2.59517 76.5681 2.47443 77.0605 2.47443C77.4441 2.47443 77.7897 2.54545 78.0975 2.6875C78.4052 2.82955 78.6574 3.02841 78.8539 3.28409C79.0504 3.53977 79.1723 3.83807 79.2196 4.17898H78.3816C78.3176 3.9304 78.1756 3.71023 77.9554 3.51847C77.7376 3.32434 77.4441 3.22727 77.0748 3.22727C76.748 3.22727 76.4616 3.3125 76.2154 3.48295C75.9715 3.65104 75.781 3.88897 75.6436 4.19673C75.5087 4.50213 75.4412 4.8608 75.4412 5.27273C75.4412 5.69413 75.5075 6.06108 75.6401 6.37358C75.775 6.68608 75.9644 6.92874 76.2083 7.10156C76.4545 7.27438 76.7433 7.3608 77.0748 7.3608C77.2926 7.3608 77.4902 7.32292 77.6678 7.24716C77.8453 7.1714 77.9957 7.0625 78.1188 6.92045C78.2419 6.77841 78.3295 6.60795 78.3816 6.40909H79.2196C79.1723 6.73106 79.0551 7.02107 78.8681 7.27912C78.6834 7.5348 78.4384 7.7384 78.133 7.88991C77.83 8.03906 77.4772 8.11364 77.0748 8.11364ZM82.6607 8.11364C82.1683 8.11364 81.7362 7.99645 81.3645 7.76207C80.9952 7.5277 80.7064 7.19981 80.498 6.77841C80.2921 6.35701 80.1891 5.86458 80.1891 5.30114C80.1891 4.73295 80.2921 4.23698 80.498 3.81321C80.7064 3.38944 80.9952 3.06037 81.3645 2.82599C81.7362 2.59162 82.1683 2.47443 82.6607 2.47443C83.1531 2.47443 83.584 2.59162 83.9533 2.82599C84.325 3.06037 84.6138 3.38944 84.8198 3.81321C85.0281 4.23698 85.1323 4.73295 85.1323 5.30114C85.1323 5.86458 85.0281 6.35701 84.8198 6.77841C84.6138 7.19981 84.325 7.5277 83.9533 7.76207C83.584 7.99645 83.1531 8.11364 82.6607 8.11364ZM82.6607 7.3608C83.0347 7.3608 83.3425 7.26491 83.584 7.07315C83.8255 6.88139 84.0042 6.62926 84.1202 6.31676C84.2362 6.00426 84.2942 5.66572 84.2942 5.30114C84.2942 4.93655 84.2362 4.59683 84.1202 4.28196C84.0042 3.96709 83.8255 3.71259 83.584 3.51847C83.3425 3.32434 83.0347 3.22727 82.6607 3.22727C82.2866 3.22727 81.9789 3.32434 81.7374 3.51847C81.4959 3.71259 81.3172 3.96709 81.2012 4.28196C81.0852 4.59683 81.0272 4.93655 81.0272 5.30114C81.0272 5.66572 81.0852 6.00426 81.2012 6.31676C81.3172 6.62926 81.4959 6.88139 81.7374 7.07315C81.9789 7.26491 82.2866 7.3608 82.6607 7.3608ZM86.4116 8V2.54545H87.2212V3.39773H87.2923C87.4059 3.10653 87.5894 2.88045 87.8427 2.71946C88.096 2.55611 88.4002 2.47443 88.7553 2.47443C89.1152 2.47443 89.4147 2.55611 89.6538 2.71946C89.8952 2.88045 90.0835 3.10653 90.2184 3.39773H90.2752C90.4149 3.116 90.6244 2.89228 90.9038 2.72656C91.1831 2.55848 91.5181 2.47443 91.9087 2.47443C92.3964 2.47443 92.7953 2.62713 93.1055 2.93253C93.4156 3.23556 93.5707 3.70786 93.5707 4.34943V8H92.7326V4.34943C92.7326 3.94697 92.6225 3.65933 92.4023 3.48651C92.1822 3.31368 91.9229 3.22727 91.6246 3.22727C91.2411 3.22727 90.944 3.34328 90.7333 3.57528C90.5226 3.80492 90.4173 4.09612 90.4173 4.44886V8H89.565V4.2642C89.565 3.95407 89.4644 3.70431 89.2631 3.51491C89.0619 3.32315 88.8027 3.22727 88.4854 3.22727C88.2676 3.22727 88.064 3.28527 87.8746 3.40128C87.6876 3.51728 87.5361 3.67827 87.4201 3.88423C87.3065 4.08783 87.2496 4.32339 87.2496 4.59091V8H86.4116Z" fill="black"/>
</svg>
